%TF.GenerationSoftware,KiCad,Pcbnew,6.0.4-6f826c9f35~116~ubuntu18.04.1*%
%TF.CreationDate,2022-04-09T00:00:09+02:00*%
%TF.ProjectId,AE01.07.50.100,41453031-2e30-4372-9e35-302e3130302e,V1R0*%
%TF.SameCoordinates,PX9464480PY76a3180*%
%TF.FileFunction,Soldermask,Top*%
%TF.FilePolarity,Negative*%
%FSLAX46Y46*%
G04 Gerber Fmt 4.6, Leading zero omitted, Abs format (unit mm)*
G04 Created by KiCad (PCBNEW 6.0.4-6f826c9f35~116~ubuntu18.04.1) date 2022-04-09 00:00:09*
%MOMM*%
%LPD*%
G01*
G04 APERTURE LIST*
%ADD10C,3.000000*%
%ADD11R,2.600000X2.600000*%
%ADD12C,2.600000*%
%ADD13R,3.000000X3.000000*%
%ADD14C,2.400000*%
%ADD15C,2.000000*%
%ADD16R,2.000000X2.300000*%
%ADD17C,2.300000*%
%ADD18R,1.700000X1.700000*%
%ADD19O,1.700000X1.700000*%
%ADD20C,3.200000*%
%ADD21R,1.600000X1.600000*%
%ADD22C,1.600000*%
%ADD23C,2.700000*%
%ADD24C,1.800000*%
%ADD25O,2.400000X2.400000*%
%ADD26C,0.800000*%
%ADD27C,6.400000*%
%ADD28O,2.600000X2.600000*%
G04 APERTURE END LIST*
D10*
%TO.C,L1*%
X15100000Y9400000D03*
X15100000Y21600000D03*
%TD*%
D11*
%TO.C,CONN1*%
X32900000Y2495000D03*
D12*
X37980000Y2495000D03*
X43060000Y2495000D03*
%TD*%
D13*
%TO.C,L2*%
X30580000Y20825000D03*
D10*
X45820000Y20825000D03*
X45820000Y27175000D03*
X30580000Y27175000D03*
%TD*%
D14*
%TO.C,C1*%
X30500000Y15500000D03*
X45500000Y15500000D03*
%TD*%
D15*
%TO.C,C3*%
X51500000Y13450000D03*
X51500000Y20950000D03*
%TD*%
D16*
%TO.C,PS1*%
X7150000Y33150000D03*
D17*
X12230000Y33150000D03*
X37630000Y33150000D03*
X37630000Y50930000D03*
X32550000Y50930000D03*
%TD*%
D15*
%TO.C,C2*%
X14650000Y26600000D03*
X22150000Y26600000D03*
%TD*%
D18*
%TO.C,CONN2*%
X43000000Y51900000D03*
D19*
X43000000Y49360000D03*
X45540000Y51900000D03*
X45540000Y49360000D03*
%TD*%
D20*
%TO.C,H2*%
X0Y0D03*
%TD*%
D21*
%TO.C,C5*%
X45500000Y38852651D03*
D22*
X45500000Y35352651D03*
%TD*%
D23*
%TO.C,F1*%
X16700000Y1600000D03*
D10*
X27950000Y1600000D03*
X5450000Y1600000D03*
%TD*%
D20*
%TO.C,H3*%
X0Y50800000D03*
%TD*%
D24*
%TO.C,RV1*%
X34250000Y11200000D03*
X41750000Y9800000D03*
%TD*%
D14*
%TO.C,R1*%
X400000Y36390000D03*
D25*
X400000Y31310000D03*
%TD*%
D22*
%TO.C,C4*%
X51700000Y40400000D03*
X51700000Y35400000D03*
%TD*%
D20*
%TO.C,H1*%
X50800000Y50800000D03*
%TD*%
D26*
%TO.C,H4*%
X49102944Y-1697056D03*
X49102944Y1697056D03*
X52497056Y-1697056D03*
X50800000Y2400000D03*
X48400000Y0D03*
D27*
X50800000Y0D03*
D26*
X50800000Y-2400000D03*
X52497056Y1697056D03*
X53200000Y0D03*
%TD*%
D11*
%TO.C,TVS1*%
X42805000Y44400000D03*
D28*
X47885000Y44400000D03*
%TD*%
M02*
