M48
; DRILL file {KiCad 6.0.4-6f826c9f35~116~ubuntu18.04.1} date Sat 09 Apr 2022 00:00:05 CEST
; FORMAT={-:-/ absolute / inch / decimal}
; #@! TF.CreationDate,2022-04-09T00:00:05+02:00
; #@! TF.GenerationSoftware,Kicad,Pcbnew,6.0.4-6f826c9f35~116~ubuntu18.04.1
; #@! TF.FileFunction,MixedPlating,1,2
FMAT,2
INCH
; #@! TA.AperFunction,Plated,PTH,ComponentDrill
T1C0.0197
; #@! TA.AperFunction,Plated,PTH,ComponentDrill
T2C0.0299
; #@! TA.AperFunction,Plated,PTH,ComponentDrill
T3C0.0315
; #@! TA.AperFunction,Plated,PTH,ComponentDrill
T4C0.0394
; #@! TA.AperFunction,Plated,PTH,ComponentDrill
T5C0.0472
; #@! TA.AperFunction,Plated,PTH,ComponentDrill
T6C0.0512
; #@! TA.AperFunction,Plated,PTH,ComponentDrill
T7C0.0591
; #@! TA.AperFunction,Plated,PTH,ComponentDrill
T8C0.1260
; #@! TA.AperFunction,NonPlated,NPTH,ComponentDrill
T9C0.1063
; #@! TA.AperFunction,NonPlated,NPTH,ComponentDrill
T10C0.1260
%
G90
G05
T1
X1.9055Y0.0
X1.9332Y0.0668
X1.9332Y-0.0668
X2.0Y0.0945
X2.0Y-0.0945
X2.0668Y0.0668
X2.0668Y-0.0668
X2.0945Y0.0
T2
X1.2815Y2.0051
X1.4815Y2.0051
X1.4815Y1.3051
T3
X0.2815Y1.3051
X0.4815Y1.3051
X1.3484Y0.4409
X1.6437Y0.3858
X1.7913Y1.5296
X1.7913Y1.3918
X2.0354Y1.5906
X2.0354Y1.3937
T4
X0.5768Y1.0472
X0.872Y1.0472
X1.6929Y2.0433
X1.6929Y1.9433
X1.7929Y2.0433
X1.7929Y1.9433
X2.0276Y0.8248
X2.0276Y0.5295
T5
X0.0157Y1.4327
X0.0157Y1.2327
X1.2008Y0.6102
X1.7913Y0.6102
T6
X0.2146Y0.063
X1.1004Y0.063
X1.2953Y0.0982
X1.4953Y0.0982
X1.6852Y1.748
X1.6953Y0.0982
X1.8852Y1.748
T7
X0.5945Y0.8504
X0.5945Y0.3701
X1.2039Y1.0699
X1.2039Y0.8199
X1.8039Y1.0699
X1.8039Y0.8199
T8
X2.0Y0.0
T9
X0.6575Y0.063
T10
X0.0Y2.0
X0.0Y0.0
X2.0Y2.0
T0
M30
