%TF.GenerationSoftware,KiCad,Pcbnew,6.0.4-6f826c9f35~116~ubuntu18.04.1*%
%TF.CreationDate,2022-04-09T00:00:09+02:00*%
%TF.ProjectId,AE01.07.50.100,41453031-2e30-4372-9e35-302e3130302e,V1R0*%
%TF.SameCoordinates,PX9464480PY76a3180*%
%TF.FileFunction,Legend,Bot*%
%TF.FilePolarity,Positive*%
%FSLAX46Y46*%
G04 Gerber Fmt 4.6, Leading zero omitted, Abs format (unit mm)*
G04 Created by KiCad (PCBNEW 6.0.4-6f826c9f35~116~ubuntu18.04.1) date 2022-04-09 00:00:09*
%MOMM*%
%LPD*%
G01*
G04 APERTURE LIST*
%ADD10C,0.100000*%
%ADD11C,0.500000*%
%ADD12C,0.300000*%
%ADD13C,0.010000*%
G04 APERTURE END LIST*
D10*
G36*
X24600000Y43200000D02*
G01*
X4600000Y43200000D01*
X4600000Y53200000D01*
X24600000Y53200000D01*
X24600000Y43200000D01*
G37*
X24600000Y43200000D02*
X4600000Y43200000D01*
X4600000Y53200000D01*
X24600000Y53200000D01*
X24600000Y43200000D01*
D11*
X36400000Y38600000D02*
X44700000Y30300000D01*
X49500000Y29000000D02*
X54400000Y29000000D01*
X-3600000Y38600000D02*
X36400000Y38600000D01*
X44700000Y30300000D02*
X48200000Y30300000D01*
X48200000Y30300000D02*
X49500000Y29000000D01*
D12*
X10157142Y25443929D02*
X10157142Y26943929D01*
X9800000Y26943929D01*
X9585714Y26872500D01*
X9442857Y26729643D01*
X9371428Y26586786D01*
X9300000Y26301072D01*
X9300000Y26086786D01*
X9371428Y25801072D01*
X9442857Y25658215D01*
X9585714Y25515358D01*
X9800000Y25443929D01*
X10157142Y25443929D01*
X8728571Y25872500D02*
X8014285Y25872500D01*
X8871428Y25443929D02*
X8371428Y26943929D01*
X7871428Y25443929D01*
X7371428Y25443929D02*
X7371428Y26943929D01*
X6514285Y25443929D01*
X6514285Y26943929D01*
X5014285Y26872500D02*
X5157142Y26943929D01*
X5371428Y26943929D01*
X5585714Y26872500D01*
X5728571Y26729643D01*
X5800000Y26586786D01*
X5871428Y26301072D01*
X5871428Y26086786D01*
X5800000Y25801072D01*
X5728571Y25658215D01*
X5585714Y25515358D01*
X5371428Y25443929D01*
X5228571Y25443929D01*
X5014285Y25515358D01*
X4942857Y25586786D01*
X4942857Y26086786D01*
X5228571Y26086786D01*
X4300000Y26229643D02*
X3800000Y26229643D01*
X3585714Y25443929D02*
X4300000Y25443929D01*
X4300000Y26943929D01*
X3585714Y26943929D01*
X2085714Y25443929D02*
X2585714Y26158215D01*
X2942857Y25443929D02*
X2942857Y26943929D01*
X2371428Y26943929D01*
X2228571Y26872500D01*
X2157142Y26801072D01*
X2085714Y26658215D01*
X2085714Y26443929D01*
X2157142Y26301072D01*
X2228571Y26229643D01*
X2371428Y26158215D01*
X2942857Y26158215D01*
X1442857Y25586786D02*
X1371428Y25515358D01*
X1442857Y25443929D01*
X1514285Y25515358D01*
X1442857Y25586786D01*
X1442857Y25443929D01*
X1442857Y26015358D02*
X1514285Y26872500D01*
X1442857Y26943929D01*
X1371428Y26872500D01*
X1442857Y26015358D01*
X1442857Y26943929D01*
X8121428Y23028929D02*
X8121428Y24528929D01*
X8121428Y23814643D02*
X7264285Y23814643D01*
X7264285Y23028929D02*
X7264285Y24528929D01*
X6550000Y23028929D02*
X6550000Y24528929D01*
X5050000Y24457500D02*
X5192857Y24528929D01*
X5407142Y24528929D01*
X5621428Y24457500D01*
X5764285Y24314643D01*
X5835714Y24171786D01*
X5907142Y23886072D01*
X5907142Y23671786D01*
X5835714Y23386072D01*
X5764285Y23243215D01*
X5621428Y23100358D01*
X5407142Y23028929D01*
X5264285Y23028929D01*
X5050000Y23100358D01*
X4978571Y23171786D01*
X4978571Y23671786D01*
X5264285Y23671786D01*
X4335714Y23028929D02*
X4335714Y24528929D01*
X4335714Y23814643D02*
X3478571Y23814643D01*
X3478571Y23028929D02*
X3478571Y24528929D01*
X10335714Y22113929D02*
X9835714Y20613929D01*
X9335714Y22113929D01*
X8550000Y22113929D02*
X8264285Y22113929D01*
X8121428Y22042500D01*
X7978571Y21899643D01*
X7907142Y21613929D01*
X7907142Y21113929D01*
X7978571Y20828215D01*
X8121428Y20685358D01*
X8264285Y20613929D01*
X8550000Y20613929D01*
X8692857Y20685358D01*
X8835714Y20828215D01*
X8907142Y21113929D01*
X8907142Y21613929D01*
X8835714Y21899643D01*
X8692857Y22042500D01*
X8550000Y22113929D01*
X6550000Y20613929D02*
X7264285Y20613929D01*
X7264285Y22113929D01*
X6264285Y22113929D02*
X5407142Y22113929D01*
X5835714Y20613929D02*
X5835714Y22113929D01*
X4978571Y21042500D02*
X4264285Y21042500D01*
X5121428Y20613929D02*
X4621428Y22113929D01*
X4121428Y20613929D01*
X2835714Y22042500D02*
X2978571Y22113929D01*
X3192857Y22113929D01*
X3407142Y22042500D01*
X3550000Y21899643D01*
X3621428Y21756786D01*
X3692857Y21471072D01*
X3692857Y21256786D01*
X3621428Y20971072D01*
X3550000Y20828215D01*
X3407142Y20685358D01*
X3192857Y20613929D01*
X3050000Y20613929D01*
X2835714Y20685358D01*
X2764285Y20756786D01*
X2764285Y21256786D01*
X3050000Y21256786D01*
X2121428Y21399643D02*
X1621428Y21399643D01*
X1407142Y20613929D02*
X2121428Y20613929D01*
X2121428Y22113929D01*
X1407142Y22113929D01*
X8014285Y18270358D02*
X7800000Y18198929D01*
X7442857Y18198929D01*
X7300000Y18270358D01*
X7228571Y18341786D01*
X7157142Y18484643D01*
X7157142Y18627500D01*
X7228571Y18770358D01*
X7300000Y18841786D01*
X7442857Y18913215D01*
X7728571Y18984643D01*
X7871428Y19056072D01*
X7942857Y19127500D01*
X8014285Y19270358D01*
X8014285Y19413215D01*
X7942857Y19556072D01*
X7871428Y19627500D01*
X7728571Y19698929D01*
X7371428Y19698929D01*
X7157142Y19627500D01*
X6514285Y18198929D02*
X6514285Y19698929D01*
X5800000Y18198929D02*
X5800000Y19698929D01*
X5442857Y19698929D01*
X5228571Y19627500D01*
X5085714Y19484643D01*
X5014285Y19341786D01*
X4942857Y19056072D01*
X4942857Y18841786D01*
X5014285Y18556072D01*
X5085714Y18413215D01*
X5228571Y18270358D01*
X5442857Y18198929D01*
X5800000Y18198929D01*
X4300000Y18984643D02*
X3800000Y18984643D01*
X3585714Y18198929D02*
X4300000Y18198929D01*
X4300000Y19698929D01*
X3585714Y19698929D01*
%TO.C,LOGO4*%
G36*
X36186137Y43826537D02*
G01*
X36220291Y43803224D01*
X36248000Y43775515D01*
X36248000Y43462463D01*
X36247959Y43378433D01*
X36247701Y43304211D01*
X36247030Y43247459D01*
X36245752Y43205488D01*
X36243673Y43175611D01*
X36240599Y43155139D01*
X36236334Y43141386D01*
X36230684Y43131663D01*
X36223455Y43123283D01*
X36191991Y43101819D01*
X36156826Y43100053D01*
X36123822Y43119733D01*
X36118516Y43125602D01*
X36113066Y43134686D01*
X36108900Y43148027D01*
X36105846Y43168243D01*
X36103732Y43197951D01*
X36102386Y43239768D01*
X36101638Y43296311D01*
X36101314Y43370198D01*
X36101245Y43464044D01*
X36101284Y43539706D01*
X36101539Y43617615D01*
X36102183Y43677625D01*
X36103387Y43722352D01*
X36105324Y43754415D01*
X36108164Y43776429D01*
X36112079Y43791013D01*
X36117242Y43800782D01*
X36123822Y43808355D01*
X36153006Y43827377D01*
X36186137Y43826537D01*
G37*
D13*
X36186137Y43826537D02*
X36220291Y43803224D01*
X36248000Y43775515D01*
X36248000Y43462463D01*
X36247959Y43378433D01*
X36247701Y43304211D01*
X36247030Y43247459D01*
X36245752Y43205488D01*
X36243673Y43175611D01*
X36240599Y43155139D01*
X36236334Y43141386D01*
X36230684Y43131663D01*
X36223455Y43123283D01*
X36191991Y43101819D01*
X36156826Y43100053D01*
X36123822Y43119733D01*
X36118516Y43125602D01*
X36113066Y43134686D01*
X36108900Y43148027D01*
X36105846Y43168243D01*
X36103732Y43197951D01*
X36102386Y43239768D01*
X36101638Y43296311D01*
X36101314Y43370198D01*
X36101245Y43464044D01*
X36101284Y43539706D01*
X36101539Y43617615D01*
X36102183Y43677625D01*
X36103387Y43722352D01*
X36105324Y43754415D01*
X36108164Y43776429D01*
X36112079Y43791013D01*
X36117242Y43800782D01*
X36123822Y43808355D01*
X36153006Y43827377D01*
X36186137Y43826537D01*
G36*
X28355767Y43830932D02*
G01*
X28449890Y43830842D01*
X28524405Y43830502D01*
X28581811Y43829761D01*
X28624611Y43828465D01*
X28655304Y43826463D01*
X28676391Y43823604D01*
X28690373Y43819734D01*
X28699750Y43814702D01*
X28707022Y43808355D01*
X28725828Y43775638D01*
X28727275Y43738061D01*
X28710917Y43704822D01*
X28709557Y43703369D01*
X28698354Y43695008D01*
X28681252Y43689453D01*
X28654082Y43686160D01*
X28612678Y43684582D01*
X28552873Y43684178D01*
X28413511Y43684178D01*
X28413511Y43420411D01*
X28413436Y43344583D01*
X28413028Y43277917D01*
X28412046Y43228133D01*
X28410250Y43192216D01*
X28407399Y43167150D01*
X28403253Y43149919D01*
X28397571Y43137508D01*
X28390114Y43126900D01*
X28387824Y43124094D01*
X28356646Y43101452D01*
X28322266Y43099888D01*
X28289334Y43119733D01*
X28282355Y43127809D01*
X28276883Y43138407D01*
X28272863Y43154251D01*
X28270072Y43178227D01*
X28268288Y43213226D01*
X28267289Y43262136D01*
X28266852Y43327846D01*
X28266756Y43413244D01*
X28266756Y43684178D01*
X28120820Y43684178D01*
X28109720Y43684179D01*
X28053202Y43684404D01*
X28014358Y43685543D01*
X27988965Y43688343D01*
X27972804Y43693550D01*
X27961652Y43701911D01*
X27951289Y43714174D01*
X27935441Y43744862D01*
X27938543Y43778642D01*
X27964187Y43811178D01*
X27969129Y43814895D01*
X27979338Y43819731D01*
X27994764Y43823494D01*
X28017886Y43826317D01*
X28051183Y43828330D01*
X28097137Y43829667D01*
X28158228Y43830458D01*
X28236935Y43830837D01*
X28335740Y43830933D01*
X28355767Y43830932D01*
G37*
X28355767Y43830932D02*
X28449890Y43830842D01*
X28524405Y43830502D01*
X28581811Y43829761D01*
X28624611Y43828465D01*
X28655304Y43826463D01*
X28676391Y43823604D01*
X28690373Y43819734D01*
X28699750Y43814702D01*
X28707022Y43808355D01*
X28725828Y43775638D01*
X28727275Y43738061D01*
X28710917Y43704822D01*
X28709557Y43703369D01*
X28698354Y43695008D01*
X28681252Y43689453D01*
X28654082Y43686160D01*
X28612678Y43684582D01*
X28552873Y43684178D01*
X28413511Y43684178D01*
X28413511Y43420411D01*
X28413436Y43344583D01*
X28413028Y43277917D01*
X28412046Y43228133D01*
X28410250Y43192216D01*
X28407399Y43167150D01*
X28403253Y43149919D01*
X28397571Y43137508D01*
X28390114Y43126900D01*
X28387824Y43124094D01*
X28356646Y43101452D01*
X28322266Y43099888D01*
X28289334Y43119733D01*
X28282355Y43127809D01*
X28276883Y43138407D01*
X28272863Y43154251D01*
X28270072Y43178227D01*
X28268288Y43213226D01*
X28267289Y43262136D01*
X28266852Y43327846D01*
X28266756Y43413244D01*
X28266756Y43684178D01*
X28120820Y43684178D01*
X28109720Y43684179D01*
X28053202Y43684404D01*
X28014358Y43685543D01*
X27988965Y43688343D01*
X27972804Y43693550D01*
X27961652Y43701911D01*
X27951289Y43714174D01*
X27935441Y43744862D01*
X27938543Y43778642D01*
X27964187Y43811178D01*
X27969129Y43814895D01*
X27979338Y43819731D01*
X27994764Y43823494D01*
X28017886Y43826317D01*
X28051183Y43828330D01*
X28097137Y43829667D01*
X28158228Y43830458D01*
X28236935Y43830837D01*
X28335740Y43830933D01*
X28355767Y43830932D01*
G36*
X32383163Y43186825D02*
G01*
X32380235Y43163905D01*
X32376158Y43148103D01*
X32370743Y43136681D01*
X32363803Y43126900D01*
X32340406Y43097155D01*
X32174714Y43097749D01*
X32139918Y43098047D01*
X32041435Y43101478D01*
X31960473Y43109161D01*
X31893379Y43121718D01*
X31836496Y43139773D01*
X31786169Y43163948D01*
X31782810Y43165865D01*
X31724998Y43202583D01*
X31682644Y43239549D01*
X31649828Y43283034D01*
X31620628Y43339311D01*
X31616346Y43348927D01*
X31593769Y43412113D01*
X31588034Y43457667D01*
X31737279Y43457667D01*
X31742892Y43432939D01*
X31748618Y43417061D01*
X31781548Y43357153D01*
X31828886Y43311400D01*
X31892652Y43278264D01*
X31974861Y43256210D01*
X31977655Y43255708D01*
X32023940Y43249745D01*
X32080336Y43245517D01*
X32135274Y43243911D01*
X32229156Y43243911D01*
X32229156Y43684178D01*
X32141667Y43683730D01*
X32074747Y43681254D01*
X31982349Y43670002D01*
X31903034Y43650463D01*
X31841060Y43623489D01*
X31810120Y43602760D01*
X31782000Y43572994D01*
X31758660Y43530566D01*
X31751533Y43514600D01*
X31739709Y43482098D01*
X31737279Y43457667D01*
X31588034Y43457667D01*
X31586797Y43467491D01*
X31595399Y43522517D01*
X31619541Y43584649D01*
X31620337Y43586342D01*
X31660788Y43655764D01*
X31711473Y43712362D01*
X31774198Y43756930D01*
X31850774Y43790259D01*
X31943009Y43813139D01*
X32052712Y43826364D01*
X32181691Y43830725D01*
X32185263Y43830730D01*
X32245283Y43830590D01*
X32287214Y43829554D01*
X32315328Y43826960D01*
X32333897Y43822147D01*
X32347194Y43814456D01*
X32359491Y43803224D01*
X32387200Y43775515D01*
X32387200Y43466080D01*
X32387175Y43404474D01*
X32386950Y43325689D01*
X32386332Y43264979D01*
X32385775Y43243911D01*
X32385133Y43219604D01*
X32383163Y43186825D01*
G37*
X32383163Y43186825D02*
X32380235Y43163905D01*
X32376158Y43148103D01*
X32370743Y43136681D01*
X32363803Y43126900D01*
X32340406Y43097155D01*
X32174714Y43097749D01*
X32139918Y43098047D01*
X32041435Y43101478D01*
X31960473Y43109161D01*
X31893379Y43121718D01*
X31836496Y43139773D01*
X31786169Y43163948D01*
X31782810Y43165865D01*
X31724998Y43202583D01*
X31682644Y43239549D01*
X31649828Y43283034D01*
X31620628Y43339311D01*
X31616346Y43348927D01*
X31593769Y43412113D01*
X31588034Y43457667D01*
X31737279Y43457667D01*
X31742892Y43432939D01*
X31748618Y43417061D01*
X31781548Y43357153D01*
X31828886Y43311400D01*
X31892652Y43278264D01*
X31974861Y43256210D01*
X31977655Y43255708D01*
X32023940Y43249745D01*
X32080336Y43245517D01*
X32135274Y43243911D01*
X32229156Y43243911D01*
X32229156Y43684178D01*
X32141667Y43683730D01*
X32074747Y43681254D01*
X31982349Y43670002D01*
X31903034Y43650463D01*
X31841060Y43623489D01*
X31810120Y43602760D01*
X31782000Y43572994D01*
X31758660Y43530566D01*
X31751533Y43514600D01*
X31739709Y43482098D01*
X31737279Y43457667D01*
X31588034Y43457667D01*
X31586797Y43467491D01*
X31595399Y43522517D01*
X31619541Y43584649D01*
X31620337Y43586342D01*
X31660788Y43655764D01*
X31711473Y43712362D01*
X31774198Y43756930D01*
X31850774Y43790259D01*
X31943009Y43813139D01*
X32052712Y43826364D01*
X32181691Y43830725D01*
X32185263Y43830730D01*
X32245283Y43830590D01*
X32287214Y43829554D01*
X32315328Y43826960D01*
X32333897Y43822147D01*
X32347194Y43814456D01*
X32359491Y43803224D01*
X32387200Y43775515D01*
X32387200Y43466080D01*
X32387175Y43404474D01*
X32386950Y43325689D01*
X32386332Y43264979D01*
X32385775Y43243911D01*
X32385133Y43219604D01*
X32383163Y43186825D01*
G36*
X35329150Y43825821D02*
G01*
X35435157Y43809506D01*
X35528969Y43781455D01*
X35607765Y43742548D01*
X35668719Y43693666D01*
X35694789Y43660805D01*
X35724297Y43611606D01*
X35749568Y43557748D01*
X35767218Y43506581D01*
X35773858Y43465456D01*
X35772298Y43445741D01*
X35759357Y43394408D01*
X35736194Y43337882D01*
X35706302Y43283965D01*
X35673173Y43240461D01*
X35662977Y43230113D01*
X35595892Y43178338D01*
X35515766Y43138446D01*
X35429556Y43114044D01*
X35374592Y43105932D01*
X35281139Y43099327D01*
X35191358Y43101414D01*
X35108869Y43111660D01*
X35037286Y43129530D01*
X34980228Y43154492D01*
X34941311Y43186012D01*
X34939936Y43187988D01*
X34932848Y43213214D01*
X34928609Y43260465D01*
X34927200Y43329929D01*
X34928060Y43392162D01*
X34932780Y43439544D01*
X34944470Y43471647D01*
X34966239Y43491200D01*
X35001198Y43500930D01*
X35052456Y43503567D01*
X35123123Y43501839D01*
X35171743Y43498827D01*
X35221939Y43490634D01*
X35254433Y43476581D01*
X35271892Y43455346D01*
X35276983Y43425606D01*
X35276877Y43421064D01*
X35268175Y43386270D01*
X35244165Y43362853D01*
X35202900Y43349653D01*
X35142431Y43345511D01*
X35073956Y43345511D01*
X35073956Y43307159D01*
X35074006Y43298024D01*
X35076227Y43280773D01*
X35085494Y43270479D01*
X35106875Y43263541D01*
X35145436Y43256359D01*
X35150910Y43255425D01*
X35247860Y43245522D01*
X35337852Y43248441D01*
X35418760Y43263171D01*
X35488459Y43288701D01*
X35544824Y43324022D01*
X35585729Y43368121D01*
X35609051Y43419988D01*
X35612663Y43478612D01*
X35607145Y43507506D01*
X35580461Y43563396D01*
X35534273Y43609055D01*
X35469291Y43643892D01*
X35386229Y43667310D01*
X35361555Y43671759D01*
X35272226Y43682258D01*
X35192419Y43681029D01*
X35114326Y43668094D01*
X35079183Y43661304D01*
X35033745Y43660287D01*
X35002430Y43672818D01*
X34982277Y43699605D01*
X34975893Y43727852D01*
X34985379Y43759076D01*
X34994708Y43772501D01*
X35028943Y43796033D01*
X35081565Y43813905D01*
X35150081Y43825401D01*
X35232000Y43829808D01*
X35329150Y43825821D01*
G37*
X35329150Y43825821D02*
X35435157Y43809506D01*
X35528969Y43781455D01*
X35607765Y43742548D01*
X35668719Y43693666D01*
X35694789Y43660805D01*
X35724297Y43611606D01*
X35749568Y43557748D01*
X35767218Y43506581D01*
X35773858Y43465456D01*
X35772298Y43445741D01*
X35759357Y43394408D01*
X35736194Y43337882D01*
X35706302Y43283965D01*
X35673173Y43240461D01*
X35662977Y43230113D01*
X35595892Y43178338D01*
X35515766Y43138446D01*
X35429556Y43114044D01*
X35374592Y43105932D01*
X35281139Y43099327D01*
X35191358Y43101414D01*
X35108869Y43111660D01*
X35037286Y43129530D01*
X34980228Y43154492D01*
X34941311Y43186012D01*
X34939936Y43187988D01*
X34932848Y43213214D01*
X34928609Y43260465D01*
X34927200Y43329929D01*
X34928060Y43392162D01*
X34932780Y43439544D01*
X34944470Y43471647D01*
X34966239Y43491200D01*
X35001198Y43500930D01*
X35052456Y43503567D01*
X35123123Y43501839D01*
X35171743Y43498827D01*
X35221939Y43490634D01*
X35254433Y43476581D01*
X35271892Y43455346D01*
X35276983Y43425606D01*
X35276877Y43421064D01*
X35268175Y43386270D01*
X35244165Y43362853D01*
X35202900Y43349653D01*
X35142431Y43345511D01*
X35073956Y43345511D01*
X35073956Y43307159D01*
X35074006Y43298024D01*
X35076227Y43280773D01*
X35085494Y43270479D01*
X35106875Y43263541D01*
X35145436Y43256359D01*
X35150910Y43255425D01*
X35247860Y43245522D01*
X35337852Y43248441D01*
X35418760Y43263171D01*
X35488459Y43288701D01*
X35544824Y43324022D01*
X35585729Y43368121D01*
X35609051Y43419988D01*
X35612663Y43478612D01*
X35607145Y43507506D01*
X35580461Y43563396D01*
X35534273Y43609055D01*
X35469291Y43643892D01*
X35386229Y43667310D01*
X35361555Y43671759D01*
X35272226Y43682258D01*
X35192419Y43681029D01*
X35114326Y43668094D01*
X35079183Y43661304D01*
X35033745Y43660287D01*
X35002430Y43672818D01*
X34982277Y43699605D01*
X34975893Y43727852D01*
X34985379Y43759076D01*
X34994708Y43772501D01*
X35028943Y43796033D01*
X35081565Y43813905D01*
X35150081Y43825401D01*
X35232000Y43829808D01*
X35329150Y43825821D01*
G36*
X38056734Y43830917D02*
G01*
X38133831Y43830725D01*
X38192777Y43830140D01*
X38236364Y43828949D01*
X38267383Y43826936D01*
X38288625Y43823888D01*
X38302882Y43819591D01*
X38312945Y43813828D01*
X38321606Y43806388D01*
X38323391Y43804707D01*
X38330635Y43797168D01*
X38336277Y43788150D01*
X38340517Y43775016D01*
X38343556Y43755128D01*
X38345594Y43725849D01*
X38346830Y43684542D01*
X38347465Y43628569D01*
X38347700Y43555293D01*
X38347734Y43462077D01*
X38347697Y43389287D01*
X38347448Y43311111D01*
X38346812Y43250897D01*
X38345615Y43206018D01*
X38343684Y43173848D01*
X38340846Y43151761D01*
X38336927Y43137130D01*
X38331755Y43127330D01*
X38325156Y43119733D01*
X38321822Y43116556D01*
X38313300Y43110446D01*
X38301298Y43105771D01*
X38283087Y43102341D01*
X38255940Y43099964D01*
X38217129Y43098448D01*
X38163924Y43097602D01*
X38093598Y43097235D01*
X38003422Y43097155D01*
X37961314Y43097167D01*
X37880167Y43097349D01*
X37817675Y43097902D01*
X37771109Y43099018D01*
X37737741Y43100887D01*
X37714844Y43103702D01*
X37699688Y43107654D01*
X37689546Y43112934D01*
X37681689Y43119733D01*
X37666963Y43141333D01*
X37659111Y43170533D01*
X37664610Y43194440D01*
X37681689Y43221333D01*
X37686668Y43225941D01*
X37696443Y43232228D01*
X37710559Y43236854D01*
X37732054Y43240070D01*
X37763968Y43242130D01*
X37809342Y43243288D01*
X37871213Y43243798D01*
X37952622Y43243911D01*
X38200978Y43243911D01*
X38200978Y43401955D01*
X38039801Y43401955D01*
X38003983Y43402101D01*
X37938359Y43403824D01*
X37891118Y43408259D01*
X37859383Y43416363D01*
X37840277Y43429094D01*
X37830923Y43447408D01*
X37828445Y43472262D01*
X37829242Y43492518D01*
X37834494Y43514344D01*
X37847288Y43529696D01*
X37870628Y43539691D01*
X37907517Y43545447D01*
X37960959Y43548081D01*
X38033958Y43548711D01*
X38202105Y43548711D01*
X38198719Y43613622D01*
X38195334Y43678533D01*
X37947617Y43681582D01*
X37885026Y43682461D01*
X37816565Y43683905D01*
X37765661Y43685836D01*
X37729408Y43688486D01*
X37704901Y43692090D01*
X37689235Y43696879D01*
X37679506Y43703087D01*
X37673491Y43709490D01*
X37660482Y43741172D01*
X37664043Y43776858D01*
X37683818Y43807916D01*
X37687069Y43810839D01*
X37696049Y43817190D01*
X37708153Y43822043D01*
X37726159Y43825597D01*
X37752847Y43828054D01*
X37790997Y43829615D01*
X37843386Y43830482D01*
X37912794Y43830854D01*
X38002001Y43830933D01*
X38056734Y43830917D01*
G37*
X38056734Y43830917D02*
X38133831Y43830725D01*
X38192777Y43830140D01*
X38236364Y43828949D01*
X38267383Y43826936D01*
X38288625Y43823888D01*
X38302882Y43819591D01*
X38312945Y43813828D01*
X38321606Y43806388D01*
X38323391Y43804707D01*
X38330635Y43797168D01*
X38336277Y43788150D01*
X38340517Y43775016D01*
X38343556Y43755128D01*
X38345594Y43725849D01*
X38346830Y43684542D01*
X38347465Y43628569D01*
X38347700Y43555293D01*
X38347734Y43462077D01*
X38347697Y43389287D01*
X38347448Y43311111D01*
X38346812Y43250897D01*
X38345615Y43206018D01*
X38343684Y43173848D01*
X38340846Y43151761D01*
X38336927Y43137130D01*
X38331755Y43127330D01*
X38325156Y43119733D01*
X38321822Y43116556D01*
X38313300Y43110446D01*
X38301298Y43105771D01*
X38283087Y43102341D01*
X38255940Y43099964D01*
X38217129Y43098448D01*
X38163924Y43097602D01*
X38093598Y43097235D01*
X38003422Y43097155D01*
X37961314Y43097167D01*
X37880167Y43097349D01*
X37817675Y43097902D01*
X37771109Y43099018D01*
X37737741Y43100887D01*
X37714844Y43103702D01*
X37699688Y43107654D01*
X37689546Y43112934D01*
X37681689Y43119733D01*
X37666963Y43141333D01*
X37659111Y43170533D01*
X37664610Y43194440D01*
X37681689Y43221333D01*
X37686668Y43225941D01*
X37696443Y43232228D01*
X37710559Y43236854D01*
X37732054Y43240070D01*
X37763968Y43242130D01*
X37809342Y43243288D01*
X37871213Y43243798D01*
X37952622Y43243911D01*
X38200978Y43243911D01*
X38200978Y43401955D01*
X38039801Y43401955D01*
X38003983Y43402101D01*
X37938359Y43403824D01*
X37891118Y43408259D01*
X37859383Y43416363D01*
X37840277Y43429094D01*
X37830923Y43447408D01*
X37828445Y43472262D01*
X37829242Y43492518D01*
X37834494Y43514344D01*
X37847288Y43529696D01*
X37870628Y43539691D01*
X37907517Y43545447D01*
X37960959Y43548081D01*
X38033958Y43548711D01*
X38202105Y43548711D01*
X38198719Y43613622D01*
X38195334Y43678533D01*
X37947617Y43681582D01*
X37885026Y43682461D01*
X37816565Y43683905D01*
X37765661Y43685836D01*
X37729408Y43688486D01*
X37704901Y43692090D01*
X37689235Y43696879D01*
X37679506Y43703087D01*
X37673491Y43709490D01*
X37660482Y43741172D01*
X37664043Y43776858D01*
X37683818Y43807916D01*
X37687069Y43810839D01*
X37696049Y43817190D01*
X37708153Y43822043D01*
X37726159Y43825597D01*
X37752847Y43828054D01*
X37790997Y43829615D01*
X37843386Y43830482D01*
X37912794Y43830854D01*
X38002001Y43830933D01*
X38056734Y43830917D01*
G36*
X33379803Y43801189D02*
G01*
X33384752Y43794505D01*
X33390596Y43783934D01*
X33395057Y43769847D01*
X33398321Y43749522D01*
X33400574Y43720235D01*
X33402002Y43679263D01*
X33402792Y43623883D01*
X33403129Y43551372D01*
X33403200Y43459006D01*
X33403171Y43393089D01*
X33402939Y43314772D01*
X33402319Y43254504D01*
X33401126Y43209607D01*
X33399179Y43177398D01*
X33396294Y43155200D01*
X33392288Y43140331D01*
X33386979Y43130111D01*
X33380183Y43121862D01*
X33375668Y43117205D01*
X33367438Y43110718D01*
X33356078Y43105806D01*
X33338810Y43102251D01*
X33312855Y43099833D01*
X33275436Y43098333D01*
X33223773Y43097533D01*
X33155089Y43097213D01*
X33066606Y43097155D01*
X33046931Y43097162D01*
X32959906Y43097428D01*
X32892254Y43098194D01*
X32841299Y43099608D01*
X32804367Y43101820D01*
X32778783Y43104978D01*
X32761871Y43109231D01*
X32750957Y43114729D01*
X32740464Y43124715D01*
X32727203Y43155832D01*
X32728386Y43191720D01*
X32744550Y43223267D01*
X32746739Y43225543D01*
X32755427Y43231811D01*
X32768769Y43236477D01*
X32789752Y43239773D01*
X32821363Y43241932D01*
X32866590Y43243186D01*
X32928420Y43243769D01*
X33009839Y43243911D01*
X33256445Y43243911D01*
X33256445Y43401955D01*
X33094006Y43401955D01*
X33058338Y43402036D01*
X33002568Y43402833D01*
X32963430Y43404838D01*
X32936976Y43408479D01*
X32919259Y43414188D01*
X32906329Y43422393D01*
X32902686Y43425577D01*
X32884278Y43456552D01*
X32883644Y43492888D01*
X32901183Y43526507D01*
X32901245Y43526576D01*
X32910916Y43535202D01*
X32924209Y43541258D01*
X32944917Y43545189D01*
X32976828Y43547444D01*
X33023734Y43548469D01*
X33089424Y43548711D01*
X33257571Y43548711D01*
X33254186Y43613622D01*
X33250800Y43678533D01*
X33008723Y43681586D01*
X32983707Y43681914D01*
X32902087Y43683394D01*
X32839768Y43685778D01*
X32794154Y43689773D01*
X32762652Y43696087D01*
X32742667Y43705426D01*
X32731604Y43718497D01*
X32726869Y43736008D01*
X32725867Y43758665D01*
X32725873Y43761030D01*
X32727027Y43781061D01*
X32731824Y43796854D01*
X32742632Y43808910D01*
X32761817Y43817733D01*
X32791745Y43823825D01*
X32834783Y43827689D01*
X32893299Y43829826D01*
X32969657Y43830740D01*
X33066226Y43830933D01*
X33356406Y43830933D01*
X33379803Y43801189D01*
G37*
X33379803Y43801189D02*
X33384752Y43794505D01*
X33390596Y43783934D01*
X33395057Y43769847D01*
X33398321Y43749522D01*
X33400574Y43720235D01*
X33402002Y43679263D01*
X33402792Y43623883D01*
X33403129Y43551372D01*
X33403200Y43459006D01*
X33403171Y43393089D01*
X33402939Y43314772D01*
X33402319Y43254504D01*
X33401126Y43209607D01*
X33399179Y43177398D01*
X33396294Y43155200D01*
X33392288Y43140331D01*
X33386979Y43130111D01*
X33380183Y43121862D01*
X33375668Y43117205D01*
X33367438Y43110718D01*
X33356078Y43105806D01*
X33338810Y43102251D01*
X33312855Y43099833D01*
X33275436Y43098333D01*
X33223773Y43097533D01*
X33155089Y43097213D01*
X33066606Y43097155D01*
X33046931Y43097162D01*
X32959906Y43097428D01*
X32892254Y43098194D01*
X32841299Y43099608D01*
X32804367Y43101820D01*
X32778783Y43104978D01*
X32761871Y43109231D01*
X32750957Y43114729D01*
X32740464Y43124715D01*
X32727203Y43155832D01*
X32728386Y43191720D01*
X32744550Y43223267D01*
X32746739Y43225543D01*
X32755427Y43231811D01*
X32768769Y43236477D01*
X32789752Y43239773D01*
X32821363Y43241932D01*
X32866590Y43243186D01*
X32928420Y43243769D01*
X33009839Y43243911D01*
X33256445Y43243911D01*
X33256445Y43401955D01*
X33094006Y43401955D01*
X33058338Y43402036D01*
X33002568Y43402833D01*
X32963430Y43404838D01*
X32936976Y43408479D01*
X32919259Y43414188D01*
X32906329Y43422393D01*
X32902686Y43425577D01*
X32884278Y43456552D01*
X32883644Y43492888D01*
X32901183Y43526507D01*
X32901245Y43526576D01*
X32910916Y43535202D01*
X32924209Y43541258D01*
X32944917Y43545189D01*
X32976828Y43547444D01*
X33023734Y43548469D01*
X33089424Y43548711D01*
X33257571Y43548711D01*
X33254186Y43613622D01*
X33250800Y43678533D01*
X33008723Y43681586D01*
X32983707Y43681914D01*
X32902087Y43683394D01*
X32839768Y43685778D01*
X32794154Y43689773D01*
X32762652Y43696087D01*
X32742667Y43705426D01*
X32731604Y43718497D01*
X32726869Y43736008D01*
X32725867Y43758665D01*
X32725873Y43761030D01*
X32727027Y43781061D01*
X32731824Y43796854D01*
X32742632Y43808910D01*
X32761817Y43817733D01*
X32791745Y43823825D01*
X32834783Y43827689D01*
X32893299Y43829826D01*
X32969657Y43830740D01*
X33066226Y43830933D01*
X33356406Y43830933D01*
X33379803Y43801189D01*
G36*
X27679734Y43808355D02*
G01*
X27685366Y43802165D01*
X27690456Y43793959D01*
X27694543Y43782183D01*
X27697721Y43764724D01*
X27700087Y43739470D01*
X27701738Y43704310D01*
X27702769Y43657131D01*
X27703277Y43595823D01*
X27703359Y43518273D01*
X27703109Y43422369D01*
X27702625Y43306000D01*
X27702557Y43291825D01*
X27701971Y43230063D01*
X27700648Y43186380D01*
X27698103Y43156999D01*
X27693848Y43138145D01*
X27687396Y43126041D01*
X27678262Y43116911D01*
X27644804Y43099494D01*
X27609856Y43102396D01*
X27578953Y43126900D01*
X27569944Y43140103D01*
X27562492Y43158639D01*
X27558124Y43184667D01*
X27556069Y43223213D01*
X27555556Y43279300D01*
X27555556Y43401955D01*
X27058845Y43401955D01*
X27058845Y43267129D01*
X27058772Y43231338D01*
X27058009Y43185008D01*
X27055833Y43154474D01*
X27051536Y43135443D01*
X27044412Y43123626D01*
X27033755Y43114729D01*
X27001504Y43099659D01*
X26966217Y43102327D01*
X26935486Y43126900D01*
X26930831Y43133155D01*
X26924895Y43143679D01*
X26920364Y43157609D01*
X26917048Y43177683D01*
X26914759Y43206640D01*
X26913308Y43247220D01*
X26912505Y43302160D01*
X26912162Y43374201D01*
X26912089Y43466080D01*
X26912089Y43775515D01*
X26939798Y43803224D01*
X26971177Y43825467D01*
X27004406Y43828156D01*
X27036267Y43808355D01*
X27044553Y43798585D01*
X27051965Y43782693D01*
X27056302Y43758725D01*
X27058338Y43721852D01*
X27058845Y43667244D01*
X27058845Y43548711D01*
X27555556Y43548711D01*
X27555556Y43664224D01*
X27555994Y43715922D01*
X27557958Y43750446D01*
X27562474Y43773022D01*
X27570567Y43788874D01*
X27583265Y43803224D01*
X27614643Y43825467D01*
X27647872Y43828156D01*
X27679734Y43808355D01*
G37*
X27679734Y43808355D02*
X27685366Y43802165D01*
X27690456Y43793959D01*
X27694543Y43782183D01*
X27697721Y43764724D01*
X27700087Y43739470D01*
X27701738Y43704310D01*
X27702769Y43657131D01*
X27703277Y43595823D01*
X27703359Y43518273D01*
X27703109Y43422369D01*
X27702625Y43306000D01*
X27702557Y43291825D01*
X27701971Y43230063D01*
X27700648Y43186380D01*
X27698103Y43156999D01*
X27693848Y43138145D01*
X27687396Y43126041D01*
X27678262Y43116911D01*
X27644804Y43099494D01*
X27609856Y43102396D01*
X27578953Y43126900D01*
X27569944Y43140103D01*
X27562492Y43158639D01*
X27558124Y43184667D01*
X27556069Y43223213D01*
X27555556Y43279300D01*
X27555556Y43401955D01*
X27058845Y43401955D01*
X27058845Y43267129D01*
X27058772Y43231338D01*
X27058009Y43185008D01*
X27055833Y43154474D01*
X27051536Y43135443D01*
X27044412Y43123626D01*
X27033755Y43114729D01*
X27001504Y43099659D01*
X26966217Y43102327D01*
X26935486Y43126900D01*
X26930831Y43133155D01*
X26924895Y43143679D01*
X26920364Y43157609D01*
X26917048Y43177683D01*
X26914759Y43206640D01*
X26913308Y43247220D01*
X26912505Y43302160D01*
X26912162Y43374201D01*
X26912089Y43466080D01*
X26912089Y43775515D01*
X26939798Y43803224D01*
X26971177Y43825467D01*
X27004406Y43828156D01*
X27036267Y43808355D01*
X27044553Y43798585D01*
X27051965Y43782693D01*
X27056302Y43758725D01*
X27058338Y43721852D01*
X27058845Y43667244D01*
X27058845Y43548711D01*
X27555556Y43548711D01*
X27555556Y43664224D01*
X27555994Y43715922D01*
X27557958Y43750446D01*
X27562474Y43773022D01*
X27570567Y43788874D01*
X27583265Y43803224D01*
X27614643Y43825467D01*
X27647872Y43828156D01*
X27679734Y43808355D01*
G36*
X35654562Y49067150D02*
G01*
X35737313Y49039947D01*
X35812406Y48994516D01*
X35884298Y48928698D01*
X35922846Y48884433D01*
X35962256Y48826039D01*
X35987446Y48765414D01*
X36000861Y48696135D01*
X36004948Y48611778D01*
X36004669Y48565693D01*
X36002460Y48524550D01*
X35996894Y48492418D01*
X35986586Y48461878D01*
X35970148Y48425511D01*
X35956200Y48398272D01*
X35897665Y48312571D01*
X35825619Y48243383D01*
X35741947Y48192259D01*
X35648531Y48160750D01*
X35615434Y48153775D01*
X35574960Y48146906D01*
X35541999Y48145081D01*
X35507698Y48148053D01*
X35463200Y48155574D01*
X35411934Y48167998D01*
X35321434Y48205888D01*
X35242345Y48260164D01*
X35176528Y48328230D01*
X35125840Y48407489D01*
X35092140Y48495346D01*
X35077286Y48589205D01*
X35083136Y48686470D01*
X35109399Y48782780D01*
X35154418Y48871506D01*
X35215373Y48946581D01*
X35290184Y49006359D01*
X35376768Y49049191D01*
X35473043Y49073429D01*
X35576928Y49077424D01*
X35654562Y49067150D01*
G37*
X35654562Y49067150D02*
X35737313Y49039947D01*
X35812406Y48994516D01*
X35884298Y48928698D01*
X35922846Y48884433D01*
X35962256Y48826039D01*
X35987446Y48765414D01*
X36000861Y48696135D01*
X36004948Y48611778D01*
X36004669Y48565693D01*
X36002460Y48524550D01*
X35996894Y48492418D01*
X35986586Y48461878D01*
X35970148Y48425511D01*
X35956200Y48398272D01*
X35897665Y48312571D01*
X35825619Y48243383D01*
X35741947Y48192259D01*
X35648531Y48160750D01*
X35615434Y48153775D01*
X35574960Y48146906D01*
X35541999Y48145081D01*
X35507698Y48148053D01*
X35463200Y48155574D01*
X35411934Y48167998D01*
X35321434Y48205888D01*
X35242345Y48260164D01*
X35176528Y48328230D01*
X35125840Y48407489D01*
X35092140Y48495346D01*
X35077286Y48589205D01*
X35083136Y48686470D01*
X35109399Y48782780D01*
X35154418Y48871506D01*
X35215373Y48946581D01*
X35290184Y49006359D01*
X35376768Y49049191D01*
X35473043Y49073429D01*
X35576928Y49077424D01*
X35654562Y49067150D01*
G36*
X34531893Y43832108D02*
G01*
X34543301Y43825971D01*
X34553850Y43815309D01*
X34565136Y43801189D01*
X34569589Y43795228D01*
X34575588Y43784732D01*
X34580167Y43770907D01*
X34583519Y43751002D01*
X34585833Y43722268D01*
X34587301Y43681955D01*
X34588113Y43627313D01*
X34588460Y43555593D01*
X34588534Y43464044D01*
X34588511Y43405514D01*
X34588292Y43326427D01*
X34587683Y43265484D01*
X34586492Y43219938D01*
X34584529Y43187037D01*
X34581603Y43164032D01*
X34577523Y43148174D01*
X34572097Y43136714D01*
X34565136Y43126900D01*
X34534708Y43102507D01*
X34499765Y43099628D01*
X34462784Y43118718D01*
X34458600Y43122193D01*
X34450424Y43130721D01*
X34444364Y43142272D01*
X34439981Y43160104D01*
X34436839Y43187476D01*
X34434502Y43227646D01*
X34432531Y43283872D01*
X34430489Y43359411D01*
X34424845Y43578542D01*
X34159556Y43337901D01*
X34085722Y43271125D01*
X34020542Y43213009D01*
X33968348Y43168051D01*
X33927273Y43135129D01*
X33895455Y43113121D01*
X33871026Y43100906D01*
X33852124Y43097361D01*
X33836883Y43101364D01*
X33823439Y43111793D01*
X33809927Y43127526D01*
X33803682Y43136009D01*
X33798050Y43146587D01*
X33793839Y43160745D01*
X33790887Y43181197D01*
X33789032Y43210658D01*
X33788113Y43251839D01*
X33787968Y43307456D01*
X33788435Y43380221D01*
X33789352Y43472849D01*
X33792667Y43787801D01*
X33819318Y43809367D01*
X33845383Y43825559D01*
X33878241Y43828330D01*
X33912772Y43809377D01*
X33917084Y43805792D01*
X33925216Y43797263D01*
X33931245Y43785671D01*
X33935606Y43767765D01*
X33938734Y43740294D01*
X33941063Y43700006D01*
X33943029Y43643649D01*
X33945067Y43567971D01*
X33950711Y43348122D01*
X34131334Y43511916D01*
X34218072Y43590549D01*
X34293843Y43658942D01*
X34355980Y43714292D01*
X34406078Y43757662D01*
X34445735Y43790119D01*
X34476548Y43812727D01*
X34500114Y43826552D01*
X34518030Y43832657D01*
X34531893Y43832108D01*
G37*
X34531893Y43832108D02*
X34543301Y43825971D01*
X34553850Y43815309D01*
X34565136Y43801189D01*
X34569589Y43795228D01*
X34575588Y43784732D01*
X34580167Y43770907D01*
X34583519Y43751002D01*
X34585833Y43722268D01*
X34587301Y43681955D01*
X34588113Y43627313D01*
X34588460Y43555593D01*
X34588534Y43464044D01*
X34588511Y43405514D01*
X34588292Y43326427D01*
X34587683Y43265484D01*
X34586492Y43219938D01*
X34584529Y43187037D01*
X34581603Y43164032D01*
X34577523Y43148174D01*
X34572097Y43136714D01*
X34565136Y43126900D01*
X34534708Y43102507D01*
X34499765Y43099628D01*
X34462784Y43118718D01*
X34458600Y43122193D01*
X34450424Y43130721D01*
X34444364Y43142272D01*
X34439981Y43160104D01*
X34436839Y43187476D01*
X34434502Y43227646D01*
X34432531Y43283872D01*
X34430489Y43359411D01*
X34424845Y43578542D01*
X34159556Y43337901D01*
X34085722Y43271125D01*
X34020542Y43213009D01*
X33968348Y43168051D01*
X33927273Y43135129D01*
X33895455Y43113121D01*
X33871026Y43100906D01*
X33852124Y43097361D01*
X33836883Y43101364D01*
X33823439Y43111793D01*
X33809927Y43127526D01*
X33803682Y43136009D01*
X33798050Y43146587D01*
X33793839Y43160745D01*
X33790887Y43181197D01*
X33789032Y43210658D01*
X33788113Y43251839D01*
X33787968Y43307456D01*
X33788435Y43380221D01*
X33789352Y43472849D01*
X33792667Y43787801D01*
X33819318Y43809367D01*
X33845383Y43825559D01*
X33878241Y43828330D01*
X33912772Y43809377D01*
X33917084Y43805792D01*
X33925216Y43797263D01*
X33931245Y43785671D01*
X33935606Y43767765D01*
X33938734Y43740294D01*
X33941063Y43700006D01*
X33943029Y43643649D01*
X33945067Y43567971D01*
X33950711Y43348122D01*
X34131334Y43511916D01*
X34218072Y43590549D01*
X34293843Y43658942D01*
X34355980Y43714292D01*
X34406078Y43757662D01*
X34445735Y43790119D01*
X34476548Y43812727D01*
X34500114Y43826552D01*
X34518030Y43832657D01*
X34531893Y43832108D01*
G36*
X39476870Y43564959D02*
G01*
X39476622Y43464044D01*
X39476583Y43388383D01*
X39476328Y43310474D01*
X39475684Y43250464D01*
X39474480Y43205736D01*
X39472543Y43173674D01*
X39469703Y43151660D01*
X39465788Y43137076D01*
X39460626Y43127306D01*
X39454045Y43119733D01*
X39447077Y43113499D01*
X39434079Y43106199D01*
X39414931Y43101446D01*
X39385528Y43098708D01*
X39341762Y43097455D01*
X39279528Y43097155D01*
X39230582Y43097531D01*
X39123722Y43101959D01*
X39034494Y43112047D01*
X38959696Y43128635D01*
X38896125Y43152565D01*
X38840579Y43184679D01*
X38789854Y43225818D01*
X38783866Y43231670D01*
X38746999Y43280179D01*
X38715899Y43340987D01*
X38694417Y43405231D01*
X38689136Y43443974D01*
X38836353Y43443974D01*
X38854635Y43393039D01*
X38884305Y43347122D01*
X38931002Y43304713D01*
X38992392Y43274910D01*
X39071538Y43255774D01*
X39073028Y43255536D01*
X39121999Y43249744D01*
X39180693Y43245604D01*
X39236734Y43243996D01*
X39329867Y43243911D01*
X39329867Y43684178D01*
X39253667Y43684192D01*
X39250639Y43684183D01*
X39199519Y43682218D01*
X39139416Y43677493D01*
X39082708Y43670965D01*
X39032750Y43661669D01*
X38957998Y43635400D01*
X38900489Y43596101D01*
X38858988Y43543067D01*
X38837771Y43491800D01*
X38836353Y43443974D01*
X38689136Y43443974D01*
X38686400Y43464044D01*
X38687679Y43485261D01*
X38699991Y43542677D01*
X38722520Y43602587D01*
X38751750Y43656637D01*
X38784167Y43696468D01*
X38803708Y43713490D01*
X38858420Y43752678D01*
X38918723Y43782807D01*
X38987919Y43804768D01*
X39069311Y43819450D01*
X39166200Y43827741D01*
X39281889Y43830533D01*
X39321371Y43830934D01*
X39367082Y43831347D01*
X39402883Y43829543D01*
X39429974Y43823261D01*
X39449556Y43810241D01*
X39462830Y43788222D01*
X39470998Y43754945D01*
X39475260Y43708149D01*
X39475857Y43684178D01*
X39476817Y43645573D01*
X39476870Y43564959D01*
G37*
X39476870Y43564959D02*
X39476622Y43464044D01*
X39476583Y43388383D01*
X39476328Y43310474D01*
X39475684Y43250464D01*
X39474480Y43205736D01*
X39472543Y43173674D01*
X39469703Y43151660D01*
X39465788Y43137076D01*
X39460626Y43127306D01*
X39454045Y43119733D01*
X39447077Y43113499D01*
X39434079Y43106199D01*
X39414931Y43101446D01*
X39385528Y43098708D01*
X39341762Y43097455D01*
X39279528Y43097155D01*
X39230582Y43097531D01*
X39123722Y43101959D01*
X39034494Y43112047D01*
X38959696Y43128635D01*
X38896125Y43152565D01*
X38840579Y43184679D01*
X38789854Y43225818D01*
X38783866Y43231670D01*
X38746999Y43280179D01*
X38715899Y43340987D01*
X38694417Y43405231D01*
X38689136Y43443974D01*
X38836353Y43443974D01*
X38854635Y43393039D01*
X38884305Y43347122D01*
X38931002Y43304713D01*
X38992392Y43274910D01*
X39071538Y43255774D01*
X39073028Y43255536D01*
X39121999Y43249744D01*
X39180693Y43245604D01*
X39236734Y43243996D01*
X39329867Y43243911D01*
X39329867Y43684178D01*
X39253667Y43684192D01*
X39250639Y43684183D01*
X39199519Y43682218D01*
X39139416Y43677493D01*
X39082708Y43670965D01*
X39032750Y43661669D01*
X38957998Y43635400D01*
X38900489Y43596101D01*
X38858988Y43543067D01*
X38837771Y43491800D01*
X38836353Y43443974D01*
X38689136Y43443974D01*
X38686400Y43464044D01*
X38687679Y43485261D01*
X38699991Y43542677D01*
X38722520Y43602587D01*
X38751750Y43656637D01*
X38784167Y43696468D01*
X38803708Y43713490D01*
X38858420Y43752678D01*
X38918723Y43782807D01*
X38987919Y43804768D01*
X39069311Y43819450D01*
X39166200Y43827741D01*
X39281889Y43830533D01*
X39321371Y43830934D01*
X39367082Y43831347D01*
X39402883Y43829543D01*
X39429974Y43823261D01*
X39449556Y43810241D01*
X39462830Y43788222D01*
X39470998Y43754945D01*
X39475260Y43708149D01*
X39475857Y43684178D01*
X39476817Y43645573D01*
X39476870Y43564959D01*
G36*
X31927261Y45422637D02*
G01*
X31923632Y45347798D01*
X31916022Y45285599D01*
X31903688Y45229016D01*
X31859313Y45102924D01*
X31796400Y44988321D01*
X31716238Y44887432D01*
X31619740Y44801076D01*
X31507822Y44730068D01*
X31381397Y44675224D01*
X31241378Y44637362D01*
X31205149Y44631649D01*
X31126155Y44625687D01*
X31037841Y44625354D01*
X30948075Y44630341D01*
X30864722Y44640334D01*
X30795651Y44655022D01*
X30709187Y44685251D01*
X30599286Y44739943D01*
X30501956Y44807457D01*
X30439867Y44858444D01*
X30436605Y44762378D01*
X30433343Y44666311D01*
X30010450Y44666311D01*
X29999543Y44666314D01*
X29905056Y44666620D01*
X29818331Y44667384D01*
X29741837Y44668549D01*
X29678043Y44670058D01*
X29629418Y44671853D01*
X29598433Y44673879D01*
X29587556Y44676078D01*
X29587578Y44676537D01*
X29594614Y44692090D01*
X29610434Y44714929D01*
X29614734Y44720362D01*
X29625777Y44734394D01*
X29635311Y44747814D01*
X29643461Y44762278D01*
X29650352Y44779444D01*
X29656111Y44800966D01*
X29660862Y44828502D01*
X29664731Y44863708D01*
X29667844Y44908240D01*
X29670325Y44963754D01*
X29672300Y45031907D01*
X29673894Y45114355D01*
X29675234Y45212754D01*
X29676444Y45328761D01*
X29676896Y45379538D01*
X30479378Y45379538D01*
X30524048Y45323027D01*
X30536785Y45307788D01*
X30583604Y45265156D01*
X30644255Y45229328D01*
X30654897Y45224150D01*
X30693676Y45207255D01*
X30728692Y45197091D01*
X30768722Y45191675D01*
X30822541Y45189022D01*
X30840648Y45188617D01*
X30916011Y45191460D01*
X30976743Y45203380D01*
X31028452Y45225963D01*
X31076746Y45260789D01*
X31081803Y45265202D01*
X31130272Y45320840D01*
X31158459Y45384667D01*
X31167752Y45459718D01*
X31160520Y45531307D01*
X31135796Y45594355D01*
X31091249Y45652242D01*
X31036319Y45699192D01*
X30963894Y45739039D01*
X30877340Y45766737D01*
X30774670Y45782904D01*
X30653894Y45788158D01*
X30645007Y45788143D01*
X30589660Y45787345D01*
X30542736Y45785512D01*
X30508953Y45782889D01*
X30493028Y45779726D01*
X30488943Y45773259D01*
X30484572Y45751125D01*
X30481604Y45712012D01*
X30479914Y45654061D01*
X30479378Y45575414D01*
X30479378Y45379538D01*
X29676896Y45379538D01*
X29677649Y45464032D01*
X29678975Y45620222D01*
X29680228Y45762988D01*
X29681651Y45908058D01*
X29683176Y46033973D01*
X29684933Y46142564D01*
X29687051Y46235666D01*
X29689660Y46315109D01*
X29692890Y46382727D01*
X29696869Y46440351D01*
X29701728Y46489815D01*
X29707597Y46532950D01*
X29714604Y46571590D01*
X29722880Y46607566D01*
X29732554Y46642711D01*
X29743756Y46678858D01*
X29756616Y46717839D01*
X29772090Y46760909D01*
X29814994Y46853129D01*
X29868735Y46932901D01*
X29937576Y47007035D01*
X30015185Y47070595D01*
X30119761Y47132275D01*
X30239244Y47179798D01*
X30374508Y47213433D01*
X30526426Y47233448D01*
X30695872Y47240111D01*
X30753890Y47239713D01*
X30819398Y47237665D01*
X30880693Y47233296D01*
X30942097Y47225965D01*
X31007932Y47215031D01*
X31082520Y47199853D01*
X31170184Y47179791D01*
X31275245Y47154203D01*
X31303806Y47147180D01*
X31379054Y47129224D01*
X31449388Y47113180D01*
X31510567Y47099972D01*
X31558354Y47090526D01*
X31588511Y47085769D01*
X31616783Y47082090D01*
X31643060Y47076813D01*
X31653059Y47072058D01*
X31649952Y47063219D01*
X31639194Y47035928D01*
X31621864Y46993094D01*
X31599126Y46937575D01*
X31572147Y46872228D01*
X31542090Y46799911D01*
X31535493Y46784121D01*
X31496907Y46693516D01*
X31465768Y46623783D01*
X31441917Y46574595D01*
X31425198Y46545626D01*
X31415454Y46536548D01*
X31407766Y46538595D01*
X31381415Y46548240D01*
X31342982Y46563810D01*
X31297822Y46583185D01*
X31203293Y46621186D01*
X31066480Y46662220D01*
X30925289Y46687388D01*
X30887314Y46691389D01*
X30784059Y46693553D01*
X30696952Y46680378D01*
X30625129Y46651244D01*
X30567731Y46605534D01*
X30523896Y46542628D01*
X30492762Y46461908D01*
X30473470Y46362755D01*
X30466050Y46303776D01*
X30627936Y46310555D01*
X30754495Y46312187D01*
X30905951Y46305806D01*
X31054396Y46291223D01*
X31190578Y46269118D01*
X31255245Y46254179D01*
X31387490Y46211259D01*
X31509762Y46154660D01*
X31619685Y46085983D01*
X31714883Y46006830D01*
X31792980Y45918804D01*
X31851599Y45823507D01*
X31875595Y45771136D01*
X31901232Y45700410D01*
X31917478Y45629188D01*
X31925822Y45550288D01*
X31927690Y45459718D01*
X31927755Y45456533D01*
X31927261Y45422637D01*
G37*
X31927261Y45422637D02*
X31923632Y45347798D01*
X31916022Y45285599D01*
X31903688Y45229016D01*
X31859313Y45102924D01*
X31796400Y44988321D01*
X31716238Y44887432D01*
X31619740Y44801076D01*
X31507822Y44730068D01*
X31381397Y44675224D01*
X31241378Y44637362D01*
X31205149Y44631649D01*
X31126155Y44625687D01*
X31037841Y44625354D01*
X30948075Y44630341D01*
X30864722Y44640334D01*
X30795651Y44655022D01*
X30709187Y44685251D01*
X30599286Y44739943D01*
X30501956Y44807457D01*
X30439867Y44858444D01*
X30436605Y44762378D01*
X30433343Y44666311D01*
X30010450Y44666311D01*
X29999543Y44666314D01*
X29905056Y44666620D01*
X29818331Y44667384D01*
X29741837Y44668549D01*
X29678043Y44670058D01*
X29629418Y44671853D01*
X29598433Y44673879D01*
X29587556Y44676078D01*
X29587578Y44676537D01*
X29594614Y44692090D01*
X29610434Y44714929D01*
X29614734Y44720362D01*
X29625777Y44734394D01*
X29635311Y44747814D01*
X29643461Y44762278D01*
X29650352Y44779444D01*
X29656111Y44800966D01*
X29660862Y44828502D01*
X29664731Y44863708D01*
X29667844Y44908240D01*
X29670325Y44963754D01*
X29672300Y45031907D01*
X29673894Y45114355D01*
X29675234Y45212754D01*
X29676444Y45328761D01*
X29676896Y45379538D01*
X30479378Y45379538D01*
X30524048Y45323027D01*
X30536785Y45307788D01*
X30583604Y45265156D01*
X30644255Y45229328D01*
X30654897Y45224150D01*
X30693676Y45207255D01*
X30728692Y45197091D01*
X30768722Y45191675D01*
X30822541Y45189022D01*
X30840648Y45188617D01*
X30916011Y45191460D01*
X30976743Y45203380D01*
X31028452Y45225963D01*
X31076746Y45260789D01*
X31081803Y45265202D01*
X31130272Y45320840D01*
X31158459Y45384667D01*
X31167752Y45459718D01*
X31160520Y45531307D01*
X31135796Y45594355D01*
X31091249Y45652242D01*
X31036319Y45699192D01*
X30963894Y45739039D01*
X30877340Y45766737D01*
X30774670Y45782904D01*
X30653894Y45788158D01*
X30645007Y45788143D01*
X30589660Y45787345D01*
X30542736Y45785512D01*
X30508953Y45782889D01*
X30493028Y45779726D01*
X30488943Y45773259D01*
X30484572Y45751125D01*
X30481604Y45712012D01*
X30479914Y45654061D01*
X30479378Y45575414D01*
X30479378Y45379538D01*
X29676896Y45379538D01*
X29677649Y45464032D01*
X29678975Y45620222D01*
X29680228Y45762988D01*
X29681651Y45908058D01*
X29683176Y46033973D01*
X29684933Y46142564D01*
X29687051Y46235666D01*
X29689660Y46315109D01*
X29692890Y46382727D01*
X29696869Y46440351D01*
X29701728Y46489815D01*
X29707597Y46532950D01*
X29714604Y46571590D01*
X29722880Y46607566D01*
X29732554Y46642711D01*
X29743756Y46678858D01*
X29756616Y46717839D01*
X29772090Y46760909D01*
X29814994Y46853129D01*
X29868735Y46932901D01*
X29937576Y47007035D01*
X30015185Y47070595D01*
X30119761Y47132275D01*
X30239244Y47179798D01*
X30374508Y47213433D01*
X30526426Y47233448D01*
X30695872Y47240111D01*
X30753890Y47239713D01*
X30819398Y47237665D01*
X30880693Y47233296D01*
X30942097Y47225965D01*
X31007932Y47215031D01*
X31082520Y47199853D01*
X31170184Y47179791D01*
X31275245Y47154203D01*
X31303806Y47147180D01*
X31379054Y47129224D01*
X31449388Y47113180D01*
X31510567Y47099972D01*
X31558354Y47090526D01*
X31588511Y47085769D01*
X31616783Y47082090D01*
X31643060Y47076813D01*
X31653059Y47072058D01*
X31649952Y47063219D01*
X31639194Y47035928D01*
X31621864Y46993094D01*
X31599126Y46937575D01*
X31572147Y46872228D01*
X31542090Y46799911D01*
X31535493Y46784121D01*
X31496907Y46693516D01*
X31465768Y46623783D01*
X31441917Y46574595D01*
X31425198Y46545626D01*
X31415454Y46536548D01*
X31407766Y46538595D01*
X31381415Y46548240D01*
X31342982Y46563810D01*
X31297822Y46583185D01*
X31203293Y46621186D01*
X31066480Y46662220D01*
X30925289Y46687388D01*
X30887314Y46691389D01*
X30784059Y46693553D01*
X30696952Y46680378D01*
X30625129Y46651244D01*
X30567731Y46605534D01*
X30523896Y46542628D01*
X30492762Y46461908D01*
X30473470Y46362755D01*
X30466050Y46303776D01*
X30627936Y46310555D01*
X30754495Y46312187D01*
X30905951Y46305806D01*
X31054396Y46291223D01*
X31190578Y46269118D01*
X31255245Y46254179D01*
X31387490Y46211259D01*
X31509762Y46154660D01*
X31619685Y46085983D01*
X31714883Y46006830D01*
X31792980Y45918804D01*
X31851599Y45823507D01*
X31875595Y45771136D01*
X31901232Y45700410D01*
X31917478Y45629188D01*
X31925822Y45550288D01*
X31927690Y45459718D01*
X31927755Y45456533D01*
X31927261Y45422637D01*
G36*
X37040853Y43830064D02*
G01*
X37107100Y43824634D01*
X37162400Y43815036D01*
X37213283Y43800175D01*
X37284595Y43767042D01*
X37335752Y43724360D01*
X37366575Y43672295D01*
X37376889Y43611017D01*
X37375952Y43579768D01*
X37370160Y43554971D01*
X37355353Y43533301D01*
X37327380Y43505951D01*
X37319402Y43498622D01*
X37295692Y43477719D01*
X37273298Y43460749D01*
X37249265Y43446795D01*
X37220637Y43434944D01*
X37184460Y43424280D01*
X37137780Y43413889D01*
X37077641Y43402854D01*
X37001090Y43390262D01*
X36905171Y43375196D01*
X36886808Y43372162D01*
X36824478Y43358542D01*
X36779260Y43342808D01*
X36752976Y43325737D01*
X36747447Y43308103D01*
X36750068Y43303832D01*
X36768000Y43288767D01*
X36796126Y43272133D01*
X36808926Y43266143D01*
X36830224Y43258950D01*
X36856610Y43254173D01*
X36892454Y43251354D01*
X36942128Y43250036D01*
X37010000Y43249763D01*
X37027785Y43249836D01*
X37095406Y43250947D01*
X37160345Y43253172D01*
X37215970Y43256238D01*
X37255651Y43259873D01*
X37291162Y43263941D01*
X37320415Y43264724D01*
X37339315Y43260124D01*
X37354429Y43249449D01*
X37358085Y43245856D01*
X37374427Y43214082D01*
X37373107Y43178428D01*
X37354150Y43147810D01*
X37333780Y43136204D01*
X37297796Y43123509D01*
X37255372Y43113459D01*
X37251922Y43112860D01*
X37209252Y43107644D01*
X37151866Y43103270D01*
X37086849Y43100182D01*
X37021289Y43098823D01*
X37005057Y43098782D01*
X36906744Y43101259D01*
X36826692Y43109265D01*
X36761513Y43123797D01*
X36707817Y43145851D01*
X36662216Y43176424D01*
X36621323Y43216514D01*
X36601202Y43242741D01*
X36589576Y43272288D01*
X36586667Y43312005D01*
X36586808Y43323974D01*
X36590681Y43356655D01*
X36603065Y43383181D01*
X36628230Y43414029D01*
X36649442Y43436169D01*
X36675838Y43458715D01*
X36705555Y43477083D01*
X36741785Y43492339D01*
X36787717Y43505551D01*
X36846544Y43517786D01*
X36921456Y43530111D01*
X37015645Y43543594D01*
X37060957Y43550604D01*
X37128911Y43565163D01*
X37178047Y43581663D01*
X37207614Y43599561D01*
X37216864Y43618315D01*
X37205048Y43637385D01*
X37171416Y43656229D01*
X37168370Y43657443D01*
X37122011Y43669521D01*
X37059361Y43677721D01*
X36985927Y43681881D01*
X36907217Y43681839D01*
X36828739Y43677431D01*
X36756000Y43668495D01*
X36752073Y43667846D01*
X36703257Y43660139D01*
X36671005Y43656527D01*
X36650008Y43657124D01*
X36634954Y43662046D01*
X36620534Y43671404D01*
X36619364Y43672275D01*
X36594847Y43702649D01*
X36590054Y43738150D01*
X36605860Y43772731D01*
X36610406Y43777187D01*
X36640020Y43792327D01*
X36687002Y43805450D01*
X36747306Y43816250D01*
X36816888Y43824419D01*
X36891703Y43829649D01*
X36967706Y43831633D01*
X37040853Y43830064D01*
G37*
X37040853Y43830064D02*
X37107100Y43824634D01*
X37162400Y43815036D01*
X37213283Y43800175D01*
X37284595Y43767042D01*
X37335752Y43724360D01*
X37366575Y43672295D01*
X37376889Y43611017D01*
X37375952Y43579768D01*
X37370160Y43554971D01*
X37355353Y43533301D01*
X37327380Y43505951D01*
X37319402Y43498622D01*
X37295692Y43477719D01*
X37273298Y43460749D01*
X37249265Y43446795D01*
X37220637Y43434944D01*
X37184460Y43424280D01*
X37137780Y43413889D01*
X37077641Y43402854D01*
X37001090Y43390262D01*
X36905171Y43375196D01*
X36886808Y43372162D01*
X36824478Y43358542D01*
X36779260Y43342808D01*
X36752976Y43325737D01*
X36747447Y43308103D01*
X36750068Y43303832D01*
X36768000Y43288767D01*
X36796126Y43272133D01*
X36808926Y43266143D01*
X36830224Y43258950D01*
X36856610Y43254173D01*
X36892454Y43251354D01*
X36942128Y43250036D01*
X37010000Y43249763D01*
X37027785Y43249836D01*
X37095406Y43250947D01*
X37160345Y43253172D01*
X37215970Y43256238D01*
X37255651Y43259873D01*
X37291162Y43263941D01*
X37320415Y43264724D01*
X37339315Y43260124D01*
X37354429Y43249449D01*
X37358085Y43245856D01*
X37374427Y43214082D01*
X37373107Y43178428D01*
X37354150Y43147810D01*
X37333780Y43136204D01*
X37297796Y43123509D01*
X37255372Y43113459D01*
X37251922Y43112860D01*
X37209252Y43107644D01*
X37151866Y43103270D01*
X37086849Y43100182D01*
X37021289Y43098823D01*
X37005057Y43098782D01*
X36906744Y43101259D01*
X36826692Y43109265D01*
X36761513Y43123797D01*
X36707817Y43145851D01*
X36662216Y43176424D01*
X36621323Y43216514D01*
X36601202Y43242741D01*
X36589576Y43272288D01*
X36586667Y43312005D01*
X36586808Y43323974D01*
X36590681Y43356655D01*
X36603065Y43383181D01*
X36628230Y43414029D01*
X36649442Y43436169D01*
X36675838Y43458715D01*
X36705555Y43477083D01*
X36741785Y43492339D01*
X36787717Y43505551D01*
X36846544Y43517786D01*
X36921456Y43530111D01*
X37015645Y43543594D01*
X37060957Y43550604D01*
X37128911Y43565163D01*
X37178047Y43581663D01*
X37207614Y43599561D01*
X37216864Y43618315D01*
X37205048Y43637385D01*
X37171416Y43656229D01*
X37168370Y43657443D01*
X37122011Y43669521D01*
X37059361Y43677721D01*
X36985927Y43681881D01*
X36907217Y43681839D01*
X36828739Y43677431D01*
X36756000Y43668495D01*
X36752073Y43667846D01*
X36703257Y43660139D01*
X36671005Y43656527D01*
X36650008Y43657124D01*
X36634954Y43662046D01*
X36620534Y43671404D01*
X36619364Y43672275D01*
X36594847Y43702649D01*
X36590054Y43738150D01*
X36605860Y43772731D01*
X36610406Y43777187D01*
X36640020Y43792327D01*
X36687002Y43805450D01*
X36747306Y43816250D01*
X36816888Y43824419D01*
X36891703Y43829649D01*
X36967706Y43831633D01*
X37040853Y43830064D01*
G36*
X39476059Y47856989D02*
G01*
X39476362Y47709784D01*
X39476548Y47545651D01*
X39476642Y47363648D01*
X39476671Y47162835D01*
X39476661Y46942268D01*
X39476636Y46701008D01*
X39476622Y46438111D01*
X39476622Y46395960D01*
X39476646Y46135332D01*
X39476685Y45896204D01*
X39476708Y45677640D01*
X39476687Y45478705D01*
X39476593Y45298465D01*
X39476395Y45135985D01*
X39476063Y44990330D01*
X39475569Y44860566D01*
X39474883Y44745757D01*
X39473976Y44644970D01*
X39472817Y44557270D01*
X39471378Y44481721D01*
X39469629Y44417389D01*
X39467540Y44363339D01*
X39465083Y44318637D01*
X39462227Y44282348D01*
X39458943Y44253537D01*
X39455202Y44231269D01*
X39450974Y44214610D01*
X39446229Y44202625D01*
X39440939Y44194379D01*
X39435073Y44188938D01*
X39428602Y44185366D01*
X39421497Y44182730D01*
X39413728Y44180094D01*
X39405266Y44176523D01*
X39400908Y44174855D01*
X39392395Y44172889D01*
X39379694Y44171089D01*
X39361885Y44169445D01*
X39338049Y44167953D01*
X39307266Y44166603D01*
X39268617Y44165389D01*
X39221182Y44164303D01*
X39164043Y44163339D01*
X39096279Y44162489D01*
X39016971Y44161747D01*
X38925199Y44161103D01*
X38820044Y44160553D01*
X38700587Y44160087D01*
X38565908Y44159700D01*
X38415088Y44159384D01*
X38247206Y44159131D01*
X38061345Y44158934D01*
X37856583Y44158787D01*
X37632002Y44158682D01*
X37386682Y44158611D01*
X37119704Y44158568D01*
X37081321Y44158563D01*
X36815922Y44158520D01*
X36572050Y44158475D01*
X36348783Y44158452D01*
X36145196Y44158476D01*
X35960367Y44158570D01*
X35793373Y44158757D01*
X35643290Y44159061D01*
X35509196Y44159506D01*
X35390166Y44160115D01*
X35285279Y44160911D01*
X35193610Y44161920D01*
X35114237Y44163163D01*
X35046237Y44164665D01*
X34988686Y44166449D01*
X34940662Y44168539D01*
X34901240Y44170958D01*
X34869499Y44173730D01*
X34844514Y44176879D01*
X34825364Y44180428D01*
X34811123Y44184402D01*
X34800871Y44188822D01*
X34793682Y44193714D01*
X34788635Y44199100D01*
X34784805Y44205004D01*
X34781271Y44211451D01*
X34777108Y44218463D01*
X34776025Y44220313D01*
X34773813Y44225820D01*
X34771786Y44234132D01*
X34769938Y44246191D01*
X34768261Y44262937D01*
X34766745Y44285313D01*
X34765383Y44314260D01*
X34764167Y44350720D01*
X34763089Y44395633D01*
X34762140Y44449943D01*
X34761312Y44514590D01*
X34760597Y44590516D01*
X34759987Y44678662D01*
X34759942Y44687507D01*
X35051378Y44687507D01*
X35055260Y44686235D01*
X35078520Y44684209D01*
X35120874Y44682374D01*
X35180132Y44680773D01*
X35254107Y44679451D01*
X35340610Y44678452D01*
X35437452Y44677820D01*
X35542445Y44677600D01*
X36240651Y44677600D01*
X37395090Y44677600D01*
X37394456Y44753800D01*
X37395574Y44795840D01*
X37401304Y44831666D01*
X37413890Y44869228D01*
X37435568Y44917423D01*
X37438789Y44924103D01*
X37464188Y44973641D01*
X37490996Y45021631D01*
X37513917Y45058534D01*
X37518485Y45065166D01*
X37540516Y45096407D01*
X37572693Y45141346D01*
X37613457Y45197853D01*
X37661245Y45263796D01*
X37714498Y45337043D01*
X37771655Y45415464D01*
X37831155Y45496928D01*
X37891437Y45579302D01*
X37950940Y45660456D01*
X38008105Y45738258D01*
X38061370Y45810577D01*
X38109174Y45875282D01*
X38149957Y45930241D01*
X38182158Y45973324D01*
X38204216Y46002398D01*
X38214571Y46015333D01*
X38219044Y46019649D01*
X38223236Y46021688D01*
X38226643Y46019074D01*
X38229325Y46010014D01*
X38231341Y45992715D01*
X38232748Y45965386D01*
X38233605Y45926235D01*
X38233970Y45873467D01*
X38233903Y45805293D01*
X38233460Y45719918D01*
X38232702Y45615551D01*
X38231685Y45490400D01*
X38231308Y45445700D01*
X38230169Y45324605D01*
X38228972Y45223312D01*
X38227636Y45139738D01*
X38226077Y45071796D01*
X38224215Y45017401D01*
X38221966Y44974468D01*
X38219248Y44940911D01*
X38215979Y44914645D01*
X38212078Y44893584D01*
X38207461Y44875643D01*
X38199192Y44849230D01*
X38175583Y44787228D01*
X38149685Y44734427D01*
X38124535Y44697355D01*
X38123339Y44695925D01*
X38121168Y44691576D01*
X38123328Y44687974D01*
X38131644Y44685049D01*
X38147940Y44682731D01*
X38174041Y44680949D01*
X38211771Y44679633D01*
X38262956Y44678714D01*
X38329420Y44678122D01*
X38412987Y44677785D01*
X38515483Y44677635D01*
X38638732Y44677600D01*
X39170296Y44677600D01*
X39131523Y44735217D01*
X39125432Y44744107D01*
X39114976Y44758931D01*
X39105579Y44772578D01*
X39097183Y44786235D01*
X39089733Y44801089D01*
X39083173Y44818330D01*
X39077446Y44839145D01*
X39072495Y44864720D01*
X39068266Y44896245D01*
X39064701Y44934907D01*
X39061744Y44981893D01*
X39059340Y45038392D01*
X39057431Y45105591D01*
X39055962Y45184678D01*
X39054876Y45276840D01*
X39054118Y45383266D01*
X39053630Y45505143D01*
X39053358Y45643659D01*
X39053243Y45800001D01*
X39053231Y45975358D01*
X39053265Y46170918D01*
X39053289Y46387867D01*
X39053280Y46510487D01*
X39053243Y46715553D01*
X39053227Y46899884D01*
X39053288Y47064666D01*
X39053484Y47211084D01*
X39053870Y47340326D01*
X39054505Y47453578D01*
X39055444Y47552025D01*
X39056745Y47636856D01*
X39058464Y47709256D01*
X39060659Y47770411D01*
X39063385Y47821508D01*
X39066701Y47863733D01*
X39070662Y47898273D01*
X39075325Y47926314D01*
X39080747Y47949042D01*
X39086986Y47967644D01*
X39094097Y47983307D01*
X39102138Y47997216D01*
X39111166Y48010559D01*
X39121236Y48024521D01*
X39132407Y48040289D01*
X39172197Y48098133D01*
X38112314Y48098133D01*
X38150311Y48035034D01*
X38164993Y48009995D01*
X38179531Y47982414D01*
X38191627Y47954300D01*
X38201532Y47923449D01*
X38209494Y47887656D01*
X38215761Y47844717D01*
X38220582Y47792426D01*
X38224206Y47728581D01*
X38226881Y47650975D01*
X38228857Y47557406D01*
X38230382Y47445667D01*
X38231704Y47313555D01*
X38232613Y47193566D01*
X38233020Y47076937D01*
X38232767Y46981469D01*
X38231857Y46907444D01*
X38230293Y46855145D01*
X38228079Y46824851D01*
X38225220Y46816844D01*
X38222161Y46820142D01*
X38204006Y46841592D01*
X38174275Y46878111D01*
X38134639Y46927558D01*
X38086771Y46987793D01*
X38032343Y47056673D01*
X37973027Y47132057D01*
X37910495Y47211804D01*
X37846421Y47293772D01*
X37782475Y47375820D01*
X37720331Y47455806D01*
X37661661Y47531589D01*
X37608137Y47601027D01*
X37561430Y47661979D01*
X37523214Y47712304D01*
X37495161Y47749860D01*
X37478943Y47772505D01*
X37433635Y47844788D01*
X37393661Y47924537D01*
X37372130Y47992812D01*
X37368827Y48050156D01*
X37374116Y48098133D01*
X36242356Y48097883D01*
X36281867Y48067278D01*
X36291248Y48059911D01*
X36354183Y48005562D01*
X36422997Y47937741D01*
X36499596Y47854484D01*
X36585888Y47753822D01*
X36603052Y47733153D01*
X36643833Y47683591D01*
X36693588Y47622674D01*
X36750955Y47552102D01*
X36814569Y47473576D01*
X36883069Y47388796D01*
X36955090Y47299463D01*
X37029270Y47207278D01*
X37044517Y47188298D01*
X37104246Y47113940D01*
X37178653Y47021152D01*
X37251131Y46930612D01*
X37320314Y46844022D01*
X37384841Y46763082D01*
X37443347Y46689494D01*
X37494470Y46624956D01*
X37536847Y46571171D01*
X37569115Y46529838D01*
X37589910Y46502658D01*
X37597869Y46491332D01*
X37596111Y46487229D01*
X37583230Y46466666D01*
X37558885Y46430439D01*
X37524247Y46380176D01*
X37480486Y46317508D01*
X37428775Y46244064D01*
X37370284Y46161473D01*
X37306184Y46071364D01*
X37237646Y45975369D01*
X37165843Y45875115D01*
X37091944Y45772232D01*
X37017121Y45668350D01*
X36942545Y45565099D01*
X36869387Y45464108D01*
X36798819Y45367006D01*
X36732011Y45275423D01*
X36670135Y45190989D01*
X36614361Y45115333D01*
X36565862Y45050084D01*
X36525807Y44996872D01*
X36495369Y44957327D01*
X36474944Y44931974D01*
X36428899Y44877705D01*
X36378612Y44821225D01*
X36331815Y44771331D01*
X36240651Y44677600D01*
X35542445Y44677600D01*
X35611356Y44677651D01*
X35709607Y44677909D01*
X35799030Y44678363D01*
X35877333Y44678990D01*
X35942223Y44679765D01*
X35991411Y44680665D01*
X36022604Y44681666D01*
X36033511Y44682743D01*
X36032322Y44685963D01*
X36022176Y44703548D01*
X36005040Y44729842D01*
X35996540Y44742309D01*
X35987329Y44756378D01*
X35979233Y44770649D01*
X35972185Y44786521D01*
X35966117Y44805391D01*
X35960961Y44828659D01*
X35956651Y44857722D01*
X35953119Y44893979D01*
X35950297Y44938830D01*
X35948118Y44993672D01*
X35946514Y45059903D01*
X35945419Y45138923D01*
X35944765Y45232129D01*
X35944484Y45340921D01*
X35944509Y45466697D01*
X35944772Y45610855D01*
X35945206Y45774793D01*
X35945745Y45959911D01*
X35946279Y46138768D01*
X35946805Y46297626D01*
X35947350Y46436684D01*
X35947945Y46557335D01*
X35948619Y46660972D01*
X35949403Y46748989D01*
X35950326Y46822777D01*
X35951419Y46883731D01*
X35952712Y46933243D01*
X35954235Y46972707D01*
X35956019Y47003516D01*
X35958092Y47027062D01*
X35960486Y47044740D01*
X35963230Y47057941D01*
X35966356Y47068060D01*
X35969892Y47076489D01*
X35973791Y47084625D01*
X35993438Y47121456D01*
X36012225Y47151609D01*
X36013272Y47153092D01*
X36027602Y47175341D01*
X36033511Y47188298D01*
X36032504Y47188751D01*
X36015305Y47190197D01*
X35978656Y47191520D01*
X35924962Y47192684D01*
X35856630Y47193653D01*
X35776064Y47194389D01*
X35685670Y47194858D01*
X35587853Y47195022D01*
X35142195Y47195022D01*
X35139120Y46018155D01*
X35136045Y44841289D01*
X35109407Y44782378D01*
X35097485Y44757817D01*
X35080246Y44727566D01*
X35067074Y44710440D01*
X35059076Y44702409D01*
X35051378Y44687507D01*
X34759942Y44687507D01*
X34759474Y44779971D01*
X34759050Y44895383D01*
X34758706Y45025840D01*
X34758434Y45172284D01*
X34758227Y45335656D01*
X34758076Y45516899D01*
X34757972Y45716952D01*
X34757908Y45936759D01*
X34757876Y46177261D01*
X34757867Y46439398D01*
X34757867Y48630969D01*
X34796249Y48669351D01*
X34823355Y48693089D01*
X34850253Y48704889D01*
X34886560Y48707733D01*
X34938489Y48707733D01*
X34938489Y48619794D01*
X34940427Y48569898D01*
X34959199Y48459477D01*
X34996217Y48358013D01*
X35049369Y48266848D01*
X35116546Y48187327D01*
X35195638Y48120795D01*
X35284534Y48068594D01*
X35381125Y48032070D01*
X35483300Y48012566D01*
X35588950Y48011427D01*
X35695964Y48029995D01*
X35802232Y48069616D01*
X35899219Y48127484D01*
X35984293Y48202316D01*
X36053015Y48290385D01*
X36103918Y48389384D01*
X36135535Y48497007D01*
X36146400Y48610946D01*
X36146400Y48707733D01*
X37766753Y48707733D01*
X37977897Y48707720D01*
X38182020Y48707670D01*
X38365686Y48707570D01*
X38529991Y48707408D01*
X38676029Y48707171D01*
X38804894Y48706847D01*
X38917683Y48706425D01*
X39015488Y48705891D01*
X39099404Y48705233D01*
X39170527Y48704439D01*
X39229950Y48703496D01*
X39278768Y48702392D01*
X39318077Y48701116D01*
X39348969Y48699653D01*
X39372541Y48697993D01*
X39389886Y48696122D01*
X39402099Y48694028D01*
X39410275Y48691700D01*
X39415508Y48689124D01*
X39421504Y48685555D01*
X39428279Y48682022D01*
X39434478Y48678512D01*
X39440126Y48674082D01*
X39445247Y48667792D01*
X39449869Y48658699D01*
X39454015Y48645861D01*
X39457713Y48628338D01*
X39460987Y48605187D01*
X39463863Y48575466D01*
X39466367Y48538235D01*
X39468524Y48492551D01*
X39470360Y48437473D01*
X39471900Y48372059D01*
X39473170Y48295367D01*
X39474195Y48206456D01*
X39475001Y48104383D01*
X39475034Y48098133D01*
X39475614Y47988208D01*
X39476059Y47856989D01*
G37*
X39476059Y47856989D02*
X39476362Y47709784D01*
X39476548Y47545651D01*
X39476642Y47363648D01*
X39476671Y47162835D01*
X39476661Y46942268D01*
X39476636Y46701008D01*
X39476622Y46438111D01*
X39476622Y46395960D01*
X39476646Y46135332D01*
X39476685Y45896204D01*
X39476708Y45677640D01*
X39476687Y45478705D01*
X39476593Y45298465D01*
X39476395Y45135985D01*
X39476063Y44990330D01*
X39475569Y44860566D01*
X39474883Y44745757D01*
X39473976Y44644970D01*
X39472817Y44557270D01*
X39471378Y44481721D01*
X39469629Y44417389D01*
X39467540Y44363339D01*
X39465083Y44318637D01*
X39462227Y44282348D01*
X39458943Y44253537D01*
X39455202Y44231269D01*
X39450974Y44214610D01*
X39446229Y44202625D01*
X39440939Y44194379D01*
X39435073Y44188938D01*
X39428602Y44185366D01*
X39421497Y44182730D01*
X39413728Y44180094D01*
X39405266Y44176523D01*
X39400908Y44174855D01*
X39392395Y44172889D01*
X39379694Y44171089D01*
X39361885Y44169445D01*
X39338049Y44167953D01*
X39307266Y44166603D01*
X39268617Y44165389D01*
X39221182Y44164303D01*
X39164043Y44163339D01*
X39096279Y44162489D01*
X39016971Y44161747D01*
X38925199Y44161103D01*
X38820044Y44160553D01*
X38700587Y44160087D01*
X38565908Y44159700D01*
X38415088Y44159384D01*
X38247206Y44159131D01*
X38061345Y44158934D01*
X37856583Y44158787D01*
X37632002Y44158682D01*
X37386682Y44158611D01*
X37119704Y44158568D01*
X37081321Y44158563D01*
X36815922Y44158520D01*
X36572050Y44158475D01*
X36348783Y44158452D01*
X36145196Y44158476D01*
X35960367Y44158570D01*
X35793373Y44158757D01*
X35643290Y44159061D01*
X35509196Y44159506D01*
X35390166Y44160115D01*
X35285279Y44160911D01*
X35193610Y44161920D01*
X35114237Y44163163D01*
X35046237Y44164665D01*
X34988686Y44166449D01*
X34940662Y44168539D01*
X34901240Y44170958D01*
X34869499Y44173730D01*
X34844514Y44176879D01*
X34825364Y44180428D01*
X34811123Y44184402D01*
X34800871Y44188822D01*
X34793682Y44193714D01*
X34788635Y44199100D01*
X34784805Y44205004D01*
X34781271Y44211451D01*
X34777108Y44218463D01*
X34776025Y44220313D01*
X34773813Y44225820D01*
X34771786Y44234132D01*
X34769938Y44246191D01*
X34768261Y44262937D01*
X34766745Y44285313D01*
X34765383Y44314260D01*
X34764167Y44350720D01*
X34763089Y44395633D01*
X34762140Y44449943D01*
X34761312Y44514590D01*
X34760597Y44590516D01*
X34759987Y44678662D01*
X34759942Y44687507D01*
X35051378Y44687507D01*
X35055260Y44686235D01*
X35078520Y44684209D01*
X35120874Y44682374D01*
X35180132Y44680773D01*
X35254107Y44679451D01*
X35340610Y44678452D01*
X35437452Y44677820D01*
X35542445Y44677600D01*
X36240651Y44677600D01*
X37395090Y44677600D01*
X37394456Y44753800D01*
X37395574Y44795840D01*
X37401304Y44831666D01*
X37413890Y44869228D01*
X37435568Y44917423D01*
X37438789Y44924103D01*
X37464188Y44973641D01*
X37490996Y45021631D01*
X37513917Y45058534D01*
X37518485Y45065166D01*
X37540516Y45096407D01*
X37572693Y45141346D01*
X37613457Y45197853D01*
X37661245Y45263796D01*
X37714498Y45337043D01*
X37771655Y45415464D01*
X37831155Y45496928D01*
X37891437Y45579302D01*
X37950940Y45660456D01*
X38008105Y45738258D01*
X38061370Y45810577D01*
X38109174Y45875282D01*
X38149957Y45930241D01*
X38182158Y45973324D01*
X38204216Y46002398D01*
X38214571Y46015333D01*
X38219044Y46019649D01*
X38223236Y46021688D01*
X38226643Y46019074D01*
X38229325Y46010014D01*
X38231341Y45992715D01*
X38232748Y45965386D01*
X38233605Y45926235D01*
X38233970Y45873467D01*
X38233903Y45805293D01*
X38233460Y45719918D01*
X38232702Y45615551D01*
X38231685Y45490400D01*
X38231308Y45445700D01*
X38230169Y45324605D01*
X38228972Y45223312D01*
X38227636Y45139738D01*
X38226077Y45071796D01*
X38224215Y45017401D01*
X38221966Y44974468D01*
X38219248Y44940911D01*
X38215979Y44914645D01*
X38212078Y44893584D01*
X38207461Y44875643D01*
X38199192Y44849230D01*
X38175583Y44787228D01*
X38149685Y44734427D01*
X38124535Y44697355D01*
X38123339Y44695925D01*
X38121168Y44691576D01*
X38123328Y44687974D01*
X38131644Y44685049D01*
X38147940Y44682731D01*
X38174041Y44680949D01*
X38211771Y44679633D01*
X38262956Y44678714D01*
X38329420Y44678122D01*
X38412987Y44677785D01*
X38515483Y44677635D01*
X38638732Y44677600D01*
X39170296Y44677600D01*
X39131523Y44735217D01*
X39125432Y44744107D01*
X39114976Y44758931D01*
X39105579Y44772578D01*
X39097183Y44786235D01*
X39089733Y44801089D01*
X39083173Y44818330D01*
X39077446Y44839145D01*
X39072495Y44864720D01*
X39068266Y44896245D01*
X39064701Y44934907D01*
X39061744Y44981893D01*
X39059340Y45038392D01*
X39057431Y45105591D01*
X39055962Y45184678D01*
X39054876Y45276840D01*
X39054118Y45383266D01*
X39053630Y45505143D01*
X39053358Y45643659D01*
X39053243Y45800001D01*
X39053231Y45975358D01*
X39053265Y46170918D01*
X39053289Y46387867D01*
X39053280Y46510487D01*
X39053243Y46715553D01*
X39053227Y46899884D01*
X39053288Y47064666D01*
X39053484Y47211084D01*
X39053870Y47340326D01*
X39054505Y47453578D01*
X39055444Y47552025D01*
X39056745Y47636856D01*
X39058464Y47709256D01*
X39060659Y47770411D01*
X39063385Y47821508D01*
X39066701Y47863733D01*
X39070662Y47898273D01*
X39075325Y47926314D01*
X39080747Y47949042D01*
X39086986Y47967644D01*
X39094097Y47983307D01*
X39102138Y47997216D01*
X39111166Y48010559D01*
X39121236Y48024521D01*
X39132407Y48040289D01*
X39172197Y48098133D01*
X38112314Y48098133D01*
X38150311Y48035034D01*
X38164993Y48009995D01*
X38179531Y47982414D01*
X38191627Y47954300D01*
X38201532Y47923449D01*
X38209494Y47887656D01*
X38215761Y47844717D01*
X38220582Y47792426D01*
X38224206Y47728581D01*
X38226881Y47650975D01*
X38228857Y47557406D01*
X38230382Y47445667D01*
X38231704Y47313555D01*
X38232613Y47193566D01*
X38233020Y47076937D01*
X38232767Y46981469D01*
X38231857Y46907444D01*
X38230293Y46855145D01*
X38228079Y46824851D01*
X38225220Y46816844D01*
X38222161Y46820142D01*
X38204006Y46841592D01*
X38174275Y46878111D01*
X38134639Y46927558D01*
X38086771Y46987793D01*
X38032343Y47056673D01*
X37973027Y47132057D01*
X37910495Y47211804D01*
X37846421Y47293772D01*
X37782475Y47375820D01*
X37720331Y47455806D01*
X37661661Y47531589D01*
X37608137Y47601027D01*
X37561430Y47661979D01*
X37523214Y47712304D01*
X37495161Y47749860D01*
X37478943Y47772505D01*
X37433635Y47844788D01*
X37393661Y47924537D01*
X37372130Y47992812D01*
X37368827Y48050156D01*
X37374116Y48098133D01*
X36242356Y48097883D01*
X36281867Y48067278D01*
X36291248Y48059911D01*
X36354183Y48005562D01*
X36422997Y47937741D01*
X36499596Y47854484D01*
X36585888Y47753822D01*
X36603052Y47733153D01*
X36643833Y47683591D01*
X36693588Y47622674D01*
X36750955Y47552102D01*
X36814569Y47473576D01*
X36883069Y47388796D01*
X36955090Y47299463D01*
X37029270Y47207278D01*
X37044517Y47188298D01*
X37104246Y47113940D01*
X37178653Y47021152D01*
X37251131Y46930612D01*
X37320314Y46844022D01*
X37384841Y46763082D01*
X37443347Y46689494D01*
X37494470Y46624956D01*
X37536847Y46571171D01*
X37569115Y46529838D01*
X37589910Y46502658D01*
X37597869Y46491332D01*
X37596111Y46487229D01*
X37583230Y46466666D01*
X37558885Y46430439D01*
X37524247Y46380176D01*
X37480486Y46317508D01*
X37428775Y46244064D01*
X37370284Y46161473D01*
X37306184Y46071364D01*
X37237646Y45975369D01*
X37165843Y45875115D01*
X37091944Y45772232D01*
X37017121Y45668350D01*
X36942545Y45565099D01*
X36869387Y45464108D01*
X36798819Y45367006D01*
X36732011Y45275423D01*
X36670135Y45190989D01*
X36614361Y45115333D01*
X36565862Y45050084D01*
X36525807Y44996872D01*
X36495369Y44957327D01*
X36474944Y44931974D01*
X36428899Y44877705D01*
X36378612Y44821225D01*
X36331815Y44771331D01*
X36240651Y44677600D01*
X35542445Y44677600D01*
X35611356Y44677651D01*
X35709607Y44677909D01*
X35799030Y44678363D01*
X35877333Y44678990D01*
X35942223Y44679765D01*
X35991411Y44680665D01*
X36022604Y44681666D01*
X36033511Y44682743D01*
X36032322Y44685963D01*
X36022176Y44703548D01*
X36005040Y44729842D01*
X35996540Y44742309D01*
X35987329Y44756378D01*
X35979233Y44770649D01*
X35972185Y44786521D01*
X35966117Y44805391D01*
X35960961Y44828659D01*
X35956651Y44857722D01*
X35953119Y44893979D01*
X35950297Y44938830D01*
X35948118Y44993672D01*
X35946514Y45059903D01*
X35945419Y45138923D01*
X35944765Y45232129D01*
X35944484Y45340921D01*
X35944509Y45466697D01*
X35944772Y45610855D01*
X35945206Y45774793D01*
X35945745Y45959911D01*
X35946279Y46138768D01*
X35946805Y46297626D01*
X35947350Y46436684D01*
X35947945Y46557335D01*
X35948619Y46660972D01*
X35949403Y46748989D01*
X35950326Y46822777D01*
X35951419Y46883731D01*
X35952712Y46933243D01*
X35954235Y46972707D01*
X35956019Y47003516D01*
X35958092Y47027062D01*
X35960486Y47044740D01*
X35963230Y47057941D01*
X35966356Y47068060D01*
X35969892Y47076489D01*
X35973791Y47084625D01*
X35993438Y47121456D01*
X36012225Y47151609D01*
X36013272Y47153092D01*
X36027602Y47175341D01*
X36033511Y47188298D01*
X36032504Y47188751D01*
X36015305Y47190197D01*
X35978656Y47191520D01*
X35924962Y47192684D01*
X35856630Y47193653D01*
X35776064Y47194389D01*
X35685670Y47194858D01*
X35587853Y47195022D01*
X35142195Y47195022D01*
X35139120Y46018155D01*
X35136045Y44841289D01*
X35109407Y44782378D01*
X35097485Y44757817D01*
X35080246Y44727566D01*
X35067074Y44710440D01*
X35059076Y44702409D01*
X35051378Y44687507D01*
X34759942Y44687507D01*
X34759474Y44779971D01*
X34759050Y44895383D01*
X34758706Y45025840D01*
X34758434Y45172284D01*
X34758227Y45335656D01*
X34758076Y45516899D01*
X34757972Y45716952D01*
X34757908Y45936759D01*
X34757876Y46177261D01*
X34757867Y46439398D01*
X34757867Y48630969D01*
X34796249Y48669351D01*
X34823355Y48693089D01*
X34850253Y48704889D01*
X34886560Y48707733D01*
X34938489Y48707733D01*
X34938489Y48619794D01*
X34940427Y48569898D01*
X34959199Y48459477D01*
X34996217Y48358013D01*
X35049369Y48266848D01*
X35116546Y48187327D01*
X35195638Y48120795D01*
X35284534Y48068594D01*
X35381125Y48032070D01*
X35483300Y48012566D01*
X35588950Y48011427D01*
X35695964Y48029995D01*
X35802232Y48069616D01*
X35899219Y48127484D01*
X35984293Y48202316D01*
X36053015Y48290385D01*
X36103918Y48389384D01*
X36135535Y48497007D01*
X36146400Y48610946D01*
X36146400Y48707733D01*
X37766753Y48707733D01*
X37977897Y48707720D01*
X38182020Y48707670D01*
X38365686Y48707570D01*
X38529991Y48707408D01*
X38676029Y48707171D01*
X38804894Y48706847D01*
X38917683Y48706425D01*
X39015488Y48705891D01*
X39099404Y48705233D01*
X39170527Y48704439D01*
X39229950Y48703496D01*
X39278768Y48702392D01*
X39318077Y48701116D01*
X39348969Y48699653D01*
X39372541Y48697993D01*
X39389886Y48696122D01*
X39402099Y48694028D01*
X39410275Y48691700D01*
X39415508Y48689124D01*
X39421504Y48685555D01*
X39428279Y48682022D01*
X39434478Y48678512D01*
X39440126Y48674082D01*
X39445247Y48667792D01*
X39449869Y48658699D01*
X39454015Y48645861D01*
X39457713Y48628338D01*
X39460987Y48605187D01*
X39463863Y48575466D01*
X39466367Y48538235D01*
X39468524Y48492551D01*
X39470360Y48437473D01*
X39471900Y48372059D01*
X39473170Y48295367D01*
X39474195Y48206456D01*
X39475001Y48104383D01*
X39475034Y48098133D01*
X39475614Y47988208D01*
X39476059Y47856989D01*
G36*
X33188711Y48137967D02*
G01*
X33284268Y48120477D01*
X33448558Y48075436D01*
X33602589Y48012344D01*
X33748509Y47930085D01*
X33888466Y47827543D01*
X34024608Y47703601D01*
X34068473Y47658339D01*
X34180758Y47526135D01*
X34273972Y47388168D01*
X34350719Y47240250D01*
X34413603Y47078197D01*
X34417420Y47066609D01*
X34467507Y46880608D01*
X34500899Y46684479D01*
X34517584Y46482432D01*
X34517551Y46278675D01*
X34500791Y46077419D01*
X34467292Y45882872D01*
X34417044Y45699244D01*
X34373190Y45581947D01*
X34295348Y45419049D01*
X34201828Y45265134D01*
X34094822Y45123329D01*
X33976519Y44996761D01*
X33849111Y44888559D01*
X33771606Y44835880D01*
X33644725Y44766250D01*
X33507243Y44707532D01*
X33365716Y44662413D01*
X33226702Y44633578D01*
X33212597Y44631894D01*
X33169153Y44628566D01*
X33111723Y44625725D01*
X33046122Y44623627D01*
X32978167Y44622532D01*
X32851378Y44624860D01*
X32703673Y44637864D01*
X32565779Y44662867D01*
X32432014Y44700682D01*
X32408562Y44709111D01*
X32360612Y44728592D01*
X32304140Y44753527D01*
X32242379Y44782278D01*
X32178563Y44813210D01*
X32115926Y44844685D01*
X32057703Y44875066D01*
X32007127Y44902717D01*
X31967433Y44926001D01*
X31941854Y44943282D01*
X31933625Y44952921D01*
X31935076Y44956016D01*
X31946250Y44975921D01*
X31967134Y45011580D01*
X31996265Y45060541D01*
X32032181Y45120354D01*
X32073420Y45188567D01*
X32118517Y45262729D01*
X32299785Y45559992D01*
X32346315Y45515461D01*
X32437723Y45437135D01*
X32551334Y45362561D01*
X32669122Y45308526D01*
X32789559Y45275710D01*
X32911117Y45264789D01*
X32952585Y45266132D01*
X33070080Y45284388D01*
X33180089Y45323383D01*
X33281430Y45382330D01*
X33372921Y45460443D01*
X33453380Y45556936D01*
X33521627Y45671022D01*
X33537908Y45705276D01*
X33583982Y45828760D01*
X33619106Y45967082D01*
X33643197Y46116439D01*
X33656173Y46273027D01*
X33657949Y46433044D01*
X33648443Y46592686D01*
X33627572Y46748150D01*
X33595252Y46895634D01*
X33551399Y47031333D01*
X33513982Y47117924D01*
X33449185Y47231312D01*
X33373772Y47324930D01*
X33287418Y47399041D01*
X33189795Y47453906D01*
X33080577Y47489788D01*
X32959439Y47506949D01*
X32890038Y47508120D01*
X32767168Y47493859D01*
X32651664Y47458759D01*
X32544953Y47403318D01*
X32448464Y47328036D01*
X32432720Y47313560D01*
X32402150Y47287038D01*
X32379809Y47269862D01*
X32369691Y47265213D01*
X32367706Y47267403D01*
X32353241Y47286279D01*
X32329400Y47319603D01*
X32298029Y47364620D01*
X32260974Y47418575D01*
X32220083Y47478715D01*
X32177202Y47542282D01*
X32134178Y47606524D01*
X32092857Y47668685D01*
X32055086Y47726009D01*
X32022712Y47775743D01*
X31997582Y47815132D01*
X31981542Y47841420D01*
X31976439Y47851853D01*
X31981050Y47856059D01*
X32000267Y47861067D01*
X32009838Y47863614D01*
X32037809Y47874751D01*
X32079448Y47893198D01*
X32130995Y47917275D01*
X32188690Y47945301D01*
X32199957Y47950846D01*
X32377687Y48030111D01*
X32547490Y48089615D01*
X32711430Y48129755D01*
X32871571Y48150929D01*
X33029977Y48153534D01*
X33188711Y48137967D01*
G37*
X33188711Y48137967D02*
X33284268Y48120477D01*
X33448558Y48075436D01*
X33602589Y48012344D01*
X33748509Y47930085D01*
X33888466Y47827543D01*
X34024608Y47703601D01*
X34068473Y47658339D01*
X34180758Y47526135D01*
X34273972Y47388168D01*
X34350719Y47240250D01*
X34413603Y47078197D01*
X34417420Y47066609D01*
X34467507Y46880608D01*
X34500899Y46684479D01*
X34517584Y46482432D01*
X34517551Y46278675D01*
X34500791Y46077419D01*
X34467292Y45882872D01*
X34417044Y45699244D01*
X34373190Y45581947D01*
X34295348Y45419049D01*
X34201828Y45265134D01*
X34094822Y45123329D01*
X33976519Y44996761D01*
X33849111Y44888559D01*
X33771606Y44835880D01*
X33644725Y44766250D01*
X33507243Y44707532D01*
X33365716Y44662413D01*
X33226702Y44633578D01*
X33212597Y44631894D01*
X33169153Y44628566D01*
X33111723Y44625725D01*
X33046122Y44623627D01*
X32978167Y44622532D01*
X32851378Y44624860D01*
X32703673Y44637864D01*
X32565779Y44662867D01*
X32432014Y44700682D01*
X32408562Y44709111D01*
X32360612Y44728592D01*
X32304140Y44753527D01*
X32242379Y44782278D01*
X32178563Y44813210D01*
X32115926Y44844685D01*
X32057703Y44875066D01*
X32007127Y44902717D01*
X31967433Y44926001D01*
X31941854Y44943282D01*
X31933625Y44952921D01*
X31935076Y44956016D01*
X31946250Y44975921D01*
X31967134Y45011580D01*
X31996265Y45060541D01*
X32032181Y45120354D01*
X32073420Y45188567D01*
X32118517Y45262729D01*
X32299785Y45559992D01*
X32346315Y45515461D01*
X32437723Y45437135D01*
X32551334Y45362561D01*
X32669122Y45308526D01*
X32789559Y45275710D01*
X32911117Y45264789D01*
X32952585Y45266132D01*
X33070080Y45284388D01*
X33180089Y45323383D01*
X33281430Y45382330D01*
X33372921Y45460443D01*
X33453380Y45556936D01*
X33521627Y45671022D01*
X33537908Y45705276D01*
X33583982Y45828760D01*
X33619106Y45967082D01*
X33643197Y46116439D01*
X33656173Y46273027D01*
X33657949Y46433044D01*
X33648443Y46592686D01*
X33627572Y46748150D01*
X33595252Y46895634D01*
X33551399Y47031333D01*
X33513982Y47117924D01*
X33449185Y47231312D01*
X33373772Y47324930D01*
X33287418Y47399041D01*
X33189795Y47453906D01*
X33080577Y47489788D01*
X32959439Y47506949D01*
X32890038Y47508120D01*
X32767168Y47493859D01*
X32651664Y47458759D01*
X32544953Y47403318D01*
X32448464Y47328036D01*
X32432720Y47313560D01*
X32402150Y47287038D01*
X32379809Y47269862D01*
X32369691Y47265213D01*
X32367706Y47267403D01*
X32353241Y47286279D01*
X32329400Y47319603D01*
X32298029Y47364620D01*
X32260974Y47418575D01*
X32220083Y47478715D01*
X32177202Y47542282D01*
X32134178Y47606524D01*
X32092857Y47668685D01*
X32055086Y47726009D01*
X32022712Y47775743D01*
X31997582Y47815132D01*
X31981542Y47841420D01*
X31976439Y47851853D01*
X31981050Y47856059D01*
X32000267Y47861067D01*
X32009838Y47863614D01*
X32037809Y47874751D01*
X32079448Y47893198D01*
X32130995Y47917275D01*
X32188690Y47945301D01*
X32199957Y47950846D01*
X32377687Y48030111D01*
X32547490Y48089615D01*
X32711430Y48129755D01*
X32871571Y48150929D01*
X33029977Y48153534D01*
X33188711Y48137967D01*
G36*
X29055406Y43825051D02*
G01*
X29081127Y43809353D01*
X29107778Y43787773D01*
X29107778Y43140316D01*
X29081127Y43118736D01*
X29049767Y43101261D01*
X29013966Y43100425D01*
X28982528Y43120918D01*
X28978652Y43125584D01*
X28973186Y43135051D01*
X28968979Y43148733D01*
X28965867Y43169252D01*
X28963687Y43199232D01*
X28962276Y43241296D01*
X28961471Y43298068D01*
X28961107Y43372170D01*
X28961022Y43466227D01*
X28961022Y43787773D01*
X28987673Y43809353D01*
X29011386Y43824123D01*
X29034400Y43830933D01*
X29055406Y43825051D01*
G37*
X29055406Y43825051D02*
X29081127Y43809353D01*
X29107778Y43787773D01*
X29107778Y43140316D01*
X29081127Y43118736D01*
X29049767Y43101261D01*
X29013966Y43100425D01*
X28982528Y43120918D01*
X28978652Y43125584D01*
X28973186Y43135051D01*
X28968979Y43148733D01*
X28965867Y43169252D01*
X28963687Y43199232D01*
X28962276Y43241296D01*
X28961471Y43298068D01*
X28961107Y43372170D01*
X28961022Y43466227D01*
X28961022Y43787773D01*
X28987673Y43809353D01*
X29011386Y43824123D01*
X29034400Y43830933D01*
X29055406Y43825051D01*
G36*
X29385268Y45779842D02*
G01*
X29376689Y45628406D01*
X29357833Y45491717D01*
X29327837Y45365724D01*
X29285836Y45246375D01*
X29230969Y45129619D01*
X29164167Y45018821D01*
X29073363Y44905261D01*
X28969708Y44809789D01*
X28853887Y44732927D01*
X28726586Y44675203D01*
X28588489Y44637142D01*
X28550793Y44631334D01*
X28471752Y44625604D01*
X28383629Y44625417D01*
X28294236Y44630461D01*
X28211384Y44640422D01*
X28142887Y44654988D01*
X28112035Y44664636D01*
X28034730Y44694877D01*
X27957679Y44732383D01*
X27888200Y44773386D01*
X27833615Y44814121D01*
X27810916Y44833495D01*
X27788201Y44851338D01*
X27776779Y44858222D01*
X27775537Y44856576D01*
X27772728Y44838795D01*
X27770776Y44805630D01*
X27770045Y44762267D01*
X27770045Y44666311D01*
X26911896Y44666311D01*
X26946161Y44727026D01*
X26951355Y44736132D01*
X26959715Y44750751D01*
X26967288Y44764827D01*
X26974112Y44779460D01*
X26980227Y44795751D01*
X26985673Y44814802D01*
X26990487Y44837714D01*
X26994708Y44865587D01*
X26998377Y44899522D01*
X27001531Y44940621D01*
X27004211Y44989985D01*
X27006454Y45048714D01*
X27008299Y45117910D01*
X27009787Y45198674D01*
X27010955Y45292106D01*
X27011678Y45379279D01*
X27815200Y45379279D01*
X27885756Y45332911D01*
X27926417Y45309209D01*
X27980546Y45283361D01*
X28029689Y45265171D01*
X28093165Y45249449D01*
X28189331Y45238459D01*
X28273900Y45246635D01*
X28347219Y45274195D01*
X28409637Y45321358D01*
X28461502Y45388342D01*
X28503160Y45475367D01*
X28534962Y45582650D01*
X28537545Y45594991D01*
X28546000Y45656228D01*
X28551663Y45733308D01*
X28554576Y45820998D01*
X28554783Y45914066D01*
X28552330Y46007280D01*
X28547261Y46095406D01*
X28539619Y46173212D01*
X28529448Y46235467D01*
X28528167Y46241334D01*
X28499126Y46351879D01*
X28464610Y46442425D01*
X28423456Y46515047D01*
X28374499Y46571819D01*
X28316574Y46614816D01*
X28284620Y46630385D01*
X28211784Y46649278D01*
X28130443Y46652535D01*
X28045319Y46640611D01*
X27961133Y46613960D01*
X27882608Y46573038D01*
X27815200Y46529470D01*
X27815200Y45379279D01*
X27011678Y45379279D01*
X27011844Y45399308D01*
X27012491Y45521380D01*
X27012936Y45659424D01*
X27013218Y45814541D01*
X27013375Y45987832D01*
X27013448Y46180397D01*
X27013474Y46393338D01*
X27013493Y46627755D01*
X27013689Y48312622D01*
X27919017Y48312622D01*
X27894585Y48275933D01*
X27888318Y48266353D01*
X27862208Y48220019D01*
X27844469Y48172898D01*
X27832908Y48117749D01*
X27825331Y48047333D01*
X27824839Y48040350D01*
X27823062Y48002359D01*
X27821444Y47948424D01*
X27819999Y47881297D01*
X27818740Y47803729D01*
X27817680Y47718472D01*
X27816829Y47628276D01*
X27816203Y47535893D01*
X27815812Y47444075D01*
X27815670Y47355573D01*
X27815790Y47273138D01*
X27816183Y47199521D01*
X27816862Y47137474D01*
X27817841Y47089749D01*
X27819132Y47059096D01*
X27820747Y47048267D01*
X27828957Y47052667D01*
X27850647Y47067638D01*
X27880014Y47089552D01*
X27928879Y47123764D01*
X28017125Y47170286D01*
X28115916Y47203954D01*
X28228510Y47225769D01*
X28358164Y47236735D01*
X28450670Y47237781D01*
X28572011Y47227986D01*
X28682099Y47203826D01*
X28785389Y47164215D01*
X28886338Y47108068D01*
X28931503Y47077117D01*
X29036911Y46985885D01*
X29128538Y46876894D01*
X29206332Y46750274D01*
X29270241Y46606155D01*
X29320214Y46444668D01*
X29356198Y46265941D01*
X29378143Y46070105D01*
X29383900Y45914066D01*
X29385994Y45857289D01*
X29385268Y45779842D01*
G37*
X29385268Y45779842D02*
X29376689Y45628406D01*
X29357833Y45491717D01*
X29327837Y45365724D01*
X29285836Y45246375D01*
X29230969Y45129619D01*
X29164167Y45018821D01*
X29073363Y44905261D01*
X28969708Y44809789D01*
X28853887Y44732927D01*
X28726586Y44675203D01*
X28588489Y44637142D01*
X28550793Y44631334D01*
X28471752Y44625604D01*
X28383629Y44625417D01*
X28294236Y44630461D01*
X28211384Y44640422D01*
X28142887Y44654988D01*
X28112035Y44664636D01*
X28034730Y44694877D01*
X27957679Y44732383D01*
X27888200Y44773386D01*
X27833615Y44814121D01*
X27810916Y44833495D01*
X27788201Y44851338D01*
X27776779Y44858222D01*
X27775537Y44856576D01*
X27772728Y44838795D01*
X27770776Y44805630D01*
X27770045Y44762267D01*
X27770045Y44666311D01*
X26911896Y44666311D01*
X26946161Y44727026D01*
X26951355Y44736132D01*
X26959715Y44750751D01*
X26967288Y44764827D01*
X26974112Y44779460D01*
X26980227Y44795751D01*
X26985673Y44814802D01*
X26990487Y44837714D01*
X26994708Y44865587D01*
X26998377Y44899522D01*
X27001531Y44940621D01*
X27004211Y44989985D01*
X27006454Y45048714D01*
X27008299Y45117910D01*
X27009787Y45198674D01*
X27010955Y45292106D01*
X27011678Y45379279D01*
X27815200Y45379279D01*
X27885756Y45332911D01*
X27926417Y45309209D01*
X27980546Y45283361D01*
X28029689Y45265171D01*
X28093165Y45249449D01*
X28189331Y45238459D01*
X28273900Y45246635D01*
X28347219Y45274195D01*
X28409637Y45321358D01*
X28461502Y45388342D01*
X28503160Y45475367D01*
X28534962Y45582650D01*
X28537545Y45594991D01*
X28546000Y45656228D01*
X28551663Y45733308D01*
X28554576Y45820998D01*
X28554783Y45914066D01*
X28552330Y46007280D01*
X28547261Y46095406D01*
X28539619Y46173212D01*
X28529448Y46235467D01*
X28528167Y46241334D01*
X28499126Y46351879D01*
X28464610Y46442425D01*
X28423456Y46515047D01*
X28374499Y46571819D01*
X28316574Y46614816D01*
X28284620Y46630385D01*
X28211784Y46649278D01*
X28130443Y46652535D01*
X28045319Y46640611D01*
X27961133Y46613960D01*
X27882608Y46573038D01*
X27815200Y46529470D01*
X27815200Y45379279D01*
X27011678Y45379279D01*
X27011844Y45399308D01*
X27012491Y45521380D01*
X27012936Y45659424D01*
X27013218Y45814541D01*
X27013375Y45987832D01*
X27013448Y46180397D01*
X27013474Y46393338D01*
X27013493Y46627755D01*
X27013689Y48312622D01*
X27919017Y48312622D01*
X27894585Y48275933D01*
X27888318Y48266353D01*
X27862208Y48220019D01*
X27844469Y48172898D01*
X27832908Y48117749D01*
X27825331Y48047333D01*
X27824839Y48040350D01*
X27823062Y48002359D01*
X27821444Y47948424D01*
X27819999Y47881297D01*
X27818740Y47803729D01*
X27817680Y47718472D01*
X27816829Y47628276D01*
X27816203Y47535893D01*
X27815812Y47444075D01*
X27815670Y47355573D01*
X27815790Y47273138D01*
X27816183Y47199521D01*
X27816862Y47137474D01*
X27817841Y47089749D01*
X27819132Y47059096D01*
X27820747Y47048267D01*
X27828957Y47052667D01*
X27850647Y47067638D01*
X27880014Y47089552D01*
X27928879Y47123764D01*
X28017125Y47170286D01*
X28115916Y47203954D01*
X28228510Y47225769D01*
X28358164Y47236735D01*
X28450670Y47237781D01*
X28572011Y47227986D01*
X28682099Y47203826D01*
X28785389Y47164215D01*
X28886338Y47108068D01*
X28931503Y47077117D01*
X29036911Y46985885D01*
X29128538Y46876894D01*
X29206332Y46750274D01*
X29270241Y46606155D01*
X29320214Y46444668D01*
X29356198Y46265941D01*
X29378143Y46070105D01*
X29383900Y45914066D01*
X29385994Y45857289D01*
X29385268Y45779842D01*
G36*
X29489702Y43821522D02*
G01*
X29507663Y43803011D01*
X29528263Y43771929D01*
X29553095Y43726244D01*
X29583750Y43663922D01*
X29621820Y43582929D01*
X29636454Y43551546D01*
X29666203Y43488362D01*
X29692297Y43433756D01*
X29713292Y43390710D01*
X29727739Y43362207D01*
X29734191Y43351230D01*
X29735550Y43351811D01*
X29745542Y43365758D01*
X29762833Y43395296D01*
X29785430Y43436913D01*
X29811338Y43487097D01*
X29827311Y43518586D01*
X29856261Y43573939D01*
X29878749Y43612956D01*
X29896965Y43638434D01*
X29913096Y43653169D01*
X29929330Y43659958D01*
X29947857Y43661600D01*
X29958360Y43661125D01*
X29974476Y43656918D01*
X29989790Y43646054D01*
X30006388Y43625781D01*
X30026357Y43593346D01*
X30051783Y43545996D01*
X30084752Y43480978D01*
X30094485Y43461723D01*
X30118943Y43415054D01*
X30139178Y43378891D01*
X30153311Y43356503D01*
X30159460Y43351155D01*
X30160827Y43354427D01*
X30170202Y43375336D01*
X30187062Y43412275D01*
X30209979Y43462126D01*
X30237520Y43521774D01*
X30268255Y43588102D01*
X30294970Y43645323D01*
X30324593Y43707312D01*
X30347664Y43753051D01*
X30365643Y43785092D01*
X30379990Y43805986D01*
X30392166Y43818282D01*
X30403632Y43824534D01*
X30413042Y43827426D01*
X30438147Y43827575D01*
X30465290Y43812232D01*
X30466590Y43811247D01*
X30488674Y43788612D01*
X30499723Y43766387D01*
X30499769Y43765747D01*
X30495228Y43748085D01*
X30482364Y43713519D01*
X30462605Y43665174D01*
X30437381Y43606175D01*
X30408119Y43539645D01*
X30376250Y43468709D01*
X30343201Y43396493D01*
X30310401Y43326120D01*
X30279280Y43260715D01*
X30251265Y43203403D01*
X30227786Y43157308D01*
X30210272Y43125554D01*
X30200151Y43111267D01*
X30165743Y43097898D01*
X30124046Y43104259D01*
X30118681Y43108956D01*
X30102852Y43131107D01*
X30080650Y43167868D01*
X30054233Y43215585D01*
X30025760Y43270607D01*
X29945986Y43429850D01*
X29872799Y43283258D01*
X29863103Y43263968D01*
X29836125Y43211620D01*
X29812096Y43166830D01*
X29793332Y43133846D01*
X29782146Y43116911D01*
X29781000Y43115668D01*
X29752879Y43100381D01*
X29717817Y43098698D01*
X29686776Y43111267D01*
X29684350Y43114116D01*
X29672090Y43134741D01*
X29652352Y43172292D01*
X29626448Y43224120D01*
X29595685Y43287577D01*
X29561375Y43360015D01*
X29524825Y43438784D01*
X29504585Y43482907D01*
X29467812Y43563635D01*
X29439355Y43627313D01*
X29418331Y43676248D01*
X29403854Y43712743D01*
X29395039Y43739105D01*
X29391004Y43757639D01*
X29390862Y43770648D01*
X29393730Y43780439D01*
X29408387Y43801322D01*
X29434990Y43821623D01*
X29435745Y43821965D01*
X29455335Y43828966D01*
X29472790Y43829496D01*
X29489702Y43821522D01*
G37*
X29489702Y43821522D02*
X29507663Y43803011D01*
X29528263Y43771929D01*
X29553095Y43726244D01*
X29583750Y43663922D01*
X29621820Y43582929D01*
X29636454Y43551546D01*
X29666203Y43488362D01*
X29692297Y43433756D01*
X29713292Y43390710D01*
X29727739Y43362207D01*
X29734191Y43351230D01*
X29735550Y43351811D01*
X29745542Y43365758D01*
X29762833Y43395296D01*
X29785430Y43436913D01*
X29811338Y43487097D01*
X29827311Y43518586D01*
X29856261Y43573939D01*
X29878749Y43612956D01*
X29896965Y43638434D01*
X29913096Y43653169D01*
X29929330Y43659958D01*
X29947857Y43661600D01*
X29958360Y43661125D01*
X29974476Y43656918D01*
X29989790Y43646054D01*
X30006388Y43625781D01*
X30026357Y43593346D01*
X30051783Y43545996D01*
X30084752Y43480978D01*
X30094485Y43461723D01*
X30118943Y43415054D01*
X30139178Y43378891D01*
X30153311Y43356503D01*
X30159460Y43351155D01*
X30160827Y43354427D01*
X30170202Y43375336D01*
X30187062Y43412275D01*
X30209979Y43462126D01*
X30237520Y43521774D01*
X30268255Y43588102D01*
X30294970Y43645323D01*
X30324593Y43707312D01*
X30347664Y43753051D01*
X30365643Y43785092D01*
X30379990Y43805986D01*
X30392166Y43818282D01*
X30403632Y43824534D01*
X30413042Y43827426D01*
X30438147Y43827575D01*
X30465290Y43812232D01*
X30466590Y43811247D01*
X30488674Y43788612D01*
X30499723Y43766387D01*
X30499769Y43765747D01*
X30495228Y43748085D01*
X30482364Y43713519D01*
X30462605Y43665174D01*
X30437381Y43606175D01*
X30408119Y43539645D01*
X30376250Y43468709D01*
X30343201Y43396493D01*
X30310401Y43326120D01*
X30279280Y43260715D01*
X30251265Y43203403D01*
X30227786Y43157308D01*
X30210272Y43125554D01*
X30200151Y43111267D01*
X30165743Y43097898D01*
X30124046Y43104259D01*
X30118681Y43108956D01*
X30102852Y43131107D01*
X30080650Y43167868D01*
X30054233Y43215585D01*
X30025760Y43270607D01*
X29945986Y43429850D01*
X29872799Y43283258D01*
X29863103Y43263968D01*
X29836125Y43211620D01*
X29812096Y43166830D01*
X29793332Y43133846D01*
X29782146Y43116911D01*
X29781000Y43115668D01*
X29752879Y43100381D01*
X29717817Y43098698D01*
X29686776Y43111267D01*
X29684350Y43114116D01*
X29672090Y43134741D01*
X29652352Y43172292D01*
X29626448Y43224120D01*
X29595685Y43287577D01*
X29561375Y43360015D01*
X29524825Y43438784D01*
X29504585Y43482907D01*
X29467812Y43563635D01*
X29439355Y43627313D01*
X29418331Y43676248D01*
X29403854Y43712743D01*
X29395039Y43739105D01*
X29391004Y43757639D01*
X29390862Y43770648D01*
X29393730Y43780439D01*
X29408387Y43801322D01*
X29434990Y43821623D01*
X29435745Y43821965D01*
X29455335Y43828966D01*
X29472790Y43829496D01*
X29489702Y43821522D01*
%TO.C,LOGO1*%
G36*
X1907157Y40848118D02*
G01*
X1891835Y40783521D01*
X1857753Y40734937D01*
X1803218Y40699928D01*
X1775036Y40691411D01*
X1726764Y40684772D01*
X1673978Y40683187D01*
X1626353Y40686840D01*
X1593566Y40695917D01*
X1573652Y40703187D01*
X1554155Y40695917D01*
X1547023Y40691705D01*
X1518557Y40684874D01*
X1480059Y40682178D01*
X1419703Y40682178D01*
X1419703Y40897889D01*
X1558020Y40897889D01*
X1562668Y40861096D01*
X1581015Y40828731D01*
X1591514Y40821726D01*
X1628988Y40810809D01*
X1675773Y40808083D01*
X1721652Y40813621D01*
X1756410Y40827495D01*
X1773726Y40845839D01*
X1784356Y40878434D01*
X1774929Y40904271D01*
X1743764Y40926737D01*
X1693667Y40941150D01*
X1627582Y40946237D01*
X1558020Y40946237D01*
X1558020Y40897889D01*
X1419703Y40897889D01*
X1419703Y40925516D01*
X1419707Y40946560D01*
X1419937Y41025878D01*
X1420797Y41084846D01*
X1422679Y41127384D01*
X1425974Y41157408D01*
X1431073Y41178837D01*
X1438366Y41195589D01*
X1448246Y41211581D01*
X1480023Y41249052D01*
X1525055Y41277661D01*
X1584210Y41293445D01*
X1662161Y41298297D01*
X1664695Y41298292D01*
X1718880Y41295845D01*
X1767380Y41289744D01*
X1800478Y41281191D01*
X1809552Y41276904D01*
X1838433Y41258752D01*
X1864568Y41237178D01*
X1881764Y41217764D01*
X1883825Y41206091D01*
X1879803Y41202937D01*
X1835976Y41169261D01*
X1806671Y41149400D01*
X1787294Y41141387D01*
X1773253Y41143254D01*
X1759957Y41153035D01*
X1735418Y41165244D01*
X1694064Y41173385D01*
X1647326Y41175497D01*
X1605034Y41171200D01*
X1577017Y41160113D01*
X1575543Y41158764D01*
X1562953Y41133419D01*
X1558020Y41095589D01*
X1558020Y41046831D01*
X1674331Y41046784D01*
X1727760Y41045939D01*
X1772735Y41042260D01*
X1804907Y41034691D01*
X1830899Y41022192D01*
X1836948Y41018353D01*
X1880710Y40976155D01*
X1903987Y40920353D01*
X1905955Y40878434D01*
X1907299Y40849777D01*
X1907157Y40848118D01*
G37*
X1907157Y40848118D02*
X1891835Y40783521D01*
X1857753Y40734937D01*
X1803218Y40699928D01*
X1775036Y40691411D01*
X1726764Y40684772D01*
X1673978Y40683187D01*
X1626353Y40686840D01*
X1593566Y40695917D01*
X1573652Y40703187D01*
X1554155Y40695917D01*
X1547023Y40691705D01*
X1518557Y40684874D01*
X1480059Y40682178D01*
X1419703Y40682178D01*
X1419703Y40897889D01*
X1558020Y40897889D01*
X1562668Y40861096D01*
X1581015Y40828731D01*
X1591514Y40821726D01*
X1628988Y40810809D01*
X1675773Y40808083D01*
X1721652Y40813621D01*
X1756410Y40827495D01*
X1773726Y40845839D01*
X1784356Y40878434D01*
X1774929Y40904271D01*
X1743764Y40926737D01*
X1693667Y40941150D01*
X1627582Y40946237D01*
X1558020Y40946237D01*
X1558020Y40897889D01*
X1419703Y40897889D01*
X1419703Y40925516D01*
X1419707Y40946560D01*
X1419937Y41025878D01*
X1420797Y41084846D01*
X1422679Y41127384D01*
X1425974Y41157408D01*
X1431073Y41178837D01*
X1438366Y41195589D01*
X1448246Y41211581D01*
X1480023Y41249052D01*
X1525055Y41277661D01*
X1584210Y41293445D01*
X1662161Y41298297D01*
X1664695Y41298292D01*
X1718880Y41295845D01*
X1767380Y41289744D01*
X1800478Y41281191D01*
X1809552Y41276904D01*
X1838433Y41258752D01*
X1864568Y41237178D01*
X1881764Y41217764D01*
X1883825Y41206091D01*
X1879803Y41202937D01*
X1835976Y41169261D01*
X1806671Y41149400D01*
X1787294Y41141387D01*
X1773253Y41143254D01*
X1759957Y41153035D01*
X1735418Y41165244D01*
X1694064Y41173385D01*
X1647326Y41175497D01*
X1605034Y41171200D01*
X1577017Y41160113D01*
X1575543Y41158764D01*
X1562953Y41133419D01*
X1558020Y41095589D01*
X1558020Y41046831D01*
X1674331Y41046784D01*
X1727760Y41045939D01*
X1772735Y41042260D01*
X1804907Y41034691D01*
X1830899Y41022192D01*
X1836948Y41018353D01*
X1880710Y40976155D01*
X1903987Y40920353D01*
X1905955Y40878434D01*
X1907299Y40849777D01*
X1907157Y40848118D01*
G36*
X-70651Y41856435D02*
G01*
X-86156Y41780462D01*
X-113890Y41722489D01*
X-156102Y41678700D01*
X-215040Y41645278D01*
X-237924Y41637324D01*
X-297188Y41627399D01*
X-359553Y41627669D01*
X-412177Y41638570D01*
X-413211Y41638966D01*
X-455619Y41663913D01*
X-498463Y41702532D01*
X-534014Y41746694D01*
X-554541Y41788273D01*
X-560626Y41818666D01*
X-565836Y41875571D01*
X-566709Y41926295D01*
X-440024Y41926295D01*
X-432451Y41865455D01*
X-414659Y41815462D01*
X-387704Y41782796D01*
X-377487Y41777188D01*
X-338527Y41766993D01*
X-293464Y41764896D01*
X-255552Y41771980D01*
X-240756Y41782139D01*
X-219986Y41817666D01*
X-206917Y41873268D01*
X-202376Y41946234D01*
X-202449Y41967238D01*
X-204026Y42009797D01*
X-209272Y42037561D01*
X-220277Y42058075D01*
X-239132Y42078888D01*
X-275011Y42104113D01*
X-321720Y42114427D01*
X-366849Y42104604D01*
X-404320Y42076195D01*
X-428057Y42030747D01*
X-436325Y41991503D01*
X-440024Y41926295D01*
X-566709Y41926295D01*
X-566951Y41940379D01*
X-564156Y42004884D01*
X-557634Y42060879D01*
X-547568Y42100158D01*
X-524123Y42144628D01*
X-474363Y42199308D01*
X-410762Y42233945D01*
X-335210Y42247655D01*
X-249601Y42239552D01*
X-235356Y42236101D01*
X-169018Y42206336D01*
X-119029Y42157470D01*
X-85388Y42089499D01*
X-68094Y42002420D01*
X-67590Y41946234D01*
X-67143Y41896229D01*
X-70651Y41856435D01*
G37*
X-70651Y41856435D02*
X-86156Y41780462D01*
X-113890Y41722489D01*
X-156102Y41678700D01*
X-215040Y41645278D01*
X-237924Y41637324D01*
X-297188Y41627399D01*
X-359553Y41627669D01*
X-412177Y41638570D01*
X-413211Y41638966D01*
X-455619Y41663913D01*
X-498463Y41702532D01*
X-534014Y41746694D01*
X-554541Y41788273D01*
X-560626Y41818666D01*
X-565836Y41875571D01*
X-566709Y41926295D01*
X-440024Y41926295D01*
X-432451Y41865455D01*
X-414659Y41815462D01*
X-387704Y41782796D01*
X-377487Y41777188D01*
X-338527Y41766993D01*
X-293464Y41764896D01*
X-255552Y41771980D01*
X-240756Y41782139D01*
X-219986Y41817666D01*
X-206917Y41873268D01*
X-202376Y41946234D01*
X-202449Y41967238D01*
X-204026Y42009797D01*
X-209272Y42037561D01*
X-220277Y42058075D01*
X-239132Y42078888D01*
X-275011Y42104113D01*
X-321720Y42114427D01*
X-366849Y42104604D01*
X-404320Y42076195D01*
X-428057Y42030747D01*
X-436325Y41991503D01*
X-440024Y41926295D01*
X-566709Y41926295D01*
X-566951Y41940379D01*
X-564156Y42004884D01*
X-557634Y42060879D01*
X-547568Y42100158D01*
X-524123Y42144628D01*
X-474363Y42199308D01*
X-410762Y42233945D01*
X-335210Y42247655D01*
X-249601Y42239552D01*
X-235356Y42236101D01*
X-169018Y42206336D01*
X-119029Y42157470D01*
X-85388Y42089499D01*
X-68094Y42002420D01*
X-67590Y41946234D01*
X-67143Y41896229D01*
X-70651Y41856435D01*
G36*
X564389Y46409982D02*
G01*
X621237Y46108430D01*
X831001Y46021959D01*
X1040764Y45935488D01*
X1292410Y46106605D01*
X1342216Y46140339D01*
X1408244Y46184619D01*
X1465410Y46222439D01*
X1510744Y46251858D01*
X1541280Y46270933D01*
X1554046Y46277722D01*
X1561887Y46272894D01*
X1585325Y46252661D01*
X1620794Y46219457D01*
X1665289Y46176330D01*
X1715805Y46126330D01*
X1769336Y46072505D01*
X1822877Y46017905D01*
X1873423Y45965577D01*
X1917968Y45918572D01*
X1953507Y45879937D01*
X1977034Y45852722D01*
X1985544Y45839976D01*
X1983565Y45834500D01*
X1969857Y45810073D01*
X1944825Y45769871D01*
X1910499Y45717048D01*
X1868907Y45654753D01*
X1822079Y45586138D01*
X1796380Y45548717D01*
X1752173Y45483568D01*
X1714272Y45426711D01*
X1684698Y45381230D01*
X1665472Y45350207D01*
X1658614Y45336726D01*
X1658726Y45335979D01*
X1664776Y45318890D01*
X1678654Y45283994D01*
X1698427Y45235849D01*
X1722160Y45179014D01*
X1747918Y45118047D01*
X1773766Y45057508D01*
X1797771Y45001953D01*
X1817998Y44955943D01*
X1832511Y44924035D01*
X1839377Y44910788D01*
X1843439Y44909613D01*
X1868121Y44904313D01*
X1912111Y44895533D01*
X1971887Y44883960D01*
X2043929Y44870279D01*
X2124716Y44855177D01*
X2167294Y44847170D01*
X2245445Y44831893D01*
X2313775Y44817785D01*
X2368551Y44805655D01*
X2406037Y44796314D01*
X2422500Y44790573D01*
X2425457Y44784881D01*
X2430362Y44757070D01*
X2434216Y44710750D01*
X2437021Y44650280D01*
X2438781Y44580017D01*
X2439499Y44504320D01*
X2439177Y44427547D01*
X2437819Y44354056D01*
X2435428Y44288206D01*
X2432006Y44234355D01*
X2427556Y44196862D01*
X2422082Y44180084D01*
X2418760Y44178191D01*
X2393987Y44170074D01*
X2351011Y44159334D01*
X2294802Y44147147D01*
X2230325Y44134690D01*
X2208570Y44130723D01*
X2108093Y44112271D01*
X2029126Y44097441D01*
X1968934Y44085620D01*
X1924778Y44076191D01*
X1893920Y44068540D01*
X1873625Y44062052D01*
X1861154Y44056112D01*
X1853771Y44050106D01*
X1852913Y44049098D01*
X1840838Y44028081D01*
X1822971Y43989624D01*
X1801042Y43938239D01*
X1776784Y43878437D01*
X1751927Y43814730D01*
X1728205Y43751629D01*
X1707347Y43693645D01*
X1691087Y43645291D01*
X1681156Y43611078D01*
X1679285Y43595517D01*
X1680536Y43593498D01*
X1693486Y43573972D01*
X1717840Y43537958D01*
X1751340Y43488772D01*
X1791727Y43429733D01*
X1836745Y43364158D01*
X1849100Y43346116D01*
X1892545Y43281401D01*
X1930091Y43223524D01*
X1959594Y43175918D01*
X1978914Y43142015D01*
X1985905Y43125248D01*
X1984398Y43120839D01*
X1968695Y43099118D01*
X1937714Y43063646D01*
X1893673Y43016812D01*
X1838790Y42961004D01*
X1775286Y42898608D01*
X1738988Y42863683D01*
X1681595Y42809289D01*
X1631361Y42762698D01*
X1590984Y42726364D01*
X1563161Y42702739D01*
X1550590Y42694276D01*
X1541952Y42697413D01*
X1515360Y42712253D01*
X1476741Y42736523D01*
X1431134Y42767148D01*
X1398707Y42789497D01*
X1333970Y42833878D01*
X1264886Y42881013D01*
X1201787Y42923845D01*
X1078178Y43007453D01*
X974417Y42951350D01*
X949984Y42938401D01*
X905552Y42916251D01*
X871191Y42900959D01*
X852828Y42895257D01*
X846818Y42902579D01*
X831895Y42930459D01*
X809852Y42976425D01*
X781917Y43037559D01*
X749317Y43110945D01*
X713276Y43193665D01*
X675023Y43282803D01*
X635783Y43375441D01*
X596783Y43468663D01*
X559249Y43559550D01*
X524409Y43645186D01*
X493488Y43722655D01*
X467714Y43789038D01*
X448311Y43841418D01*
X436508Y43876879D01*
X433531Y43892504D01*
X433732Y43892961D01*
X447601Y43907405D01*
X476611Y43930026D01*
X514772Y43956136D01*
X526817Y43964108D01*
X618469Y44039744D01*
X694323Y44129831D01*
X752581Y44230619D01*
X791448Y44338360D01*
X809128Y44449303D01*
X803826Y44559697D01*
X782347Y44657885D01*
X743782Y44757034D01*
X687562Y44845488D01*
X610410Y44929513D01*
X580095Y44956355D01*
X482094Y45022490D01*
X376227Y45067030D01*
X265561Y45090375D01*
X153164Y45092922D01*
X42105Y45075071D01*
X-64549Y45037220D01*
X-163730Y44979768D01*
X-252369Y44903113D01*
X-327400Y44807655D01*
X-341825Y44784015D01*
X-390857Y44675966D01*
X-416897Y44563452D01*
X-420628Y44449386D01*
X-402732Y44336682D01*
X-363891Y44228255D01*
X-304786Y44127018D01*
X-226100Y44035886D01*
X-128515Y43957772D01*
X-125346Y43955667D01*
X-87589Y43929060D01*
X-59291Y43906439D01*
X-46366Y43892504D01*
X-47997Y43881579D01*
X-58136Y43849769D01*
X-76116Y43800466D01*
X-100708Y43736587D01*
X-130689Y43661052D01*
X-164830Y43576777D01*
X-201908Y43486680D01*
X-240694Y43393679D01*
X-279964Y43300692D01*
X-318491Y43210636D01*
X-355050Y43126429D01*
X-388414Y43050990D01*
X-417357Y42987235D01*
X-440654Y42938083D01*
X-457077Y42906451D01*
X-465402Y42895257D01*
X-472326Y42896773D01*
X-499523Y42907669D01*
X-539720Y42926772D01*
X-586991Y42951350D01*
X-690752Y43007453D01*
X-814361Y42923845D01*
X-850880Y42899087D01*
X-918806Y42852829D01*
X-986525Y42806497D01*
X-1043709Y42767148D01*
X-1075268Y42745703D01*
X-1116286Y42719061D01*
X-1146699Y42700822D01*
X-1161554Y42694059D01*
X-1167935Y42696930D01*
X-1191004Y42714515D01*
X-1226567Y42745477D01*
X-1271529Y42786769D01*
X-1322794Y42835347D01*
X-1377267Y42888165D01*
X-1431852Y42942177D01*
X-1483453Y42994339D01*
X-1528976Y43041604D01*
X-1565325Y43080928D01*
X-1589405Y43109264D01*
X-1598119Y43123568D01*
X-1597617Y43126289D01*
X-1587245Y43148440D01*
X-1565088Y43186765D01*
X-1533288Y43237800D01*
X-1493984Y43298086D01*
X-1449319Y43364158D01*
X-1436793Y43382383D01*
X-1392807Y43446515D01*
X-1354063Y43503211D01*
X-1322818Y43549156D01*
X-1301331Y43581030D01*
X-1291860Y43595517D01*
X-1291627Y43596138D01*
X-1294422Y43613861D01*
X-1305097Y43649765D01*
X-1321919Y43699338D01*
X-1343157Y43758068D01*
X-1367079Y43821444D01*
X-1391954Y43884954D01*
X-1416050Y43944087D01*
X-1437635Y43994331D01*
X-1454977Y44031174D01*
X-1466345Y44050106D01*
X-1467484Y44051281D01*
X-1475624Y44057227D01*
X-1489371Y44063224D01*
X-1511463Y44069886D01*
X-1544637Y44077827D01*
X-1591630Y44087663D01*
X-1655180Y44100009D01*
X-1738024Y44115480D01*
X-1842900Y44134690D01*
X-1864652Y44138733D01*
X-1926964Y44151231D01*
X-1979381Y44163073D01*
X-2016934Y44173083D01*
X-2034657Y44180084D01*
X-2037622Y44185925D01*
X-2042565Y44213984D01*
X-2046482Y44260500D01*
X-2049371Y44321114D01*
X-2051227Y44391468D01*
X-2052048Y44467204D01*
X-2051832Y44543963D01*
X-2050574Y44617388D01*
X-2048272Y44683120D01*
X-2044924Y44736800D01*
X-2040526Y44774070D01*
X-2035074Y44790573D01*
X-2029509Y44793011D01*
X-2001822Y44800695D01*
X-1955021Y44811564D01*
X-1892843Y44824808D01*
X-1819021Y44839616D01*
X-1737290Y44855177D01*
X-1692664Y44863491D01*
X-1616176Y44877908D01*
X-1550340Y44890533D01*
X-1498677Y44900679D01*
X-1464707Y44907659D01*
X-1451952Y44910788D01*
X-1451472Y44911432D01*
X-1443349Y44927819D01*
X-1427863Y44962148D01*
X-1406950Y45009864D01*
X-1382545Y45066414D01*
X-1356584Y45127242D01*
X-1331003Y45187794D01*
X-1307738Y45243515D01*
X-1288723Y45289850D01*
X-1275895Y45322245D01*
X-1271188Y45336145D01*
X-1273264Y45341035D01*
X-1287080Y45364308D01*
X-1312140Y45403481D01*
X-1346432Y45455480D01*
X-1387941Y45517232D01*
X-1434654Y45585664D01*
X-1460282Y45623140D01*
X-1504510Y45688844D01*
X-1542430Y45746508D01*
X-1572020Y45792986D01*
X-1591257Y45825135D01*
X-1598119Y45839810D01*
X-1593351Y45847770D01*
X-1573407Y45871554D01*
X-1540687Y45907549D01*
X-1498195Y45952705D01*
X-1448935Y46003972D01*
X-1395909Y46058299D01*
X-1342123Y46112636D01*
X-1290579Y46163933D01*
X-1244280Y46209141D01*
X-1206231Y46245208D01*
X-1179435Y46269086D01*
X-1166895Y46277722D01*
X-1159934Y46274364D01*
X-1134373Y46258790D01*
X-1093126Y46232285D01*
X-1039163Y46196790D01*
X-975458Y46154250D01*
X-904984Y46106605D01*
X-653338Y45935488D01*
X-233812Y46108430D01*
X-176964Y46409982D01*
X-120115Y46711534D01*
X507540Y46711534D01*
X564389Y46409982D01*
G37*
X564389Y46409982D02*
X621237Y46108430D01*
X831001Y46021959D01*
X1040764Y45935488D01*
X1292410Y46106605D01*
X1342216Y46140339D01*
X1408244Y46184619D01*
X1465410Y46222439D01*
X1510744Y46251858D01*
X1541280Y46270933D01*
X1554046Y46277722D01*
X1561887Y46272894D01*
X1585325Y46252661D01*
X1620794Y46219457D01*
X1665289Y46176330D01*
X1715805Y46126330D01*
X1769336Y46072505D01*
X1822877Y46017905D01*
X1873423Y45965577D01*
X1917968Y45918572D01*
X1953507Y45879937D01*
X1977034Y45852722D01*
X1985544Y45839976D01*
X1983565Y45834500D01*
X1969857Y45810073D01*
X1944825Y45769871D01*
X1910499Y45717048D01*
X1868907Y45654753D01*
X1822079Y45586138D01*
X1796380Y45548717D01*
X1752173Y45483568D01*
X1714272Y45426711D01*
X1684698Y45381230D01*
X1665472Y45350207D01*
X1658614Y45336726D01*
X1658726Y45335979D01*
X1664776Y45318890D01*
X1678654Y45283994D01*
X1698427Y45235849D01*
X1722160Y45179014D01*
X1747918Y45118047D01*
X1773766Y45057508D01*
X1797771Y45001953D01*
X1817998Y44955943D01*
X1832511Y44924035D01*
X1839377Y44910788D01*
X1843439Y44909613D01*
X1868121Y44904313D01*
X1912111Y44895533D01*
X1971887Y44883960D01*
X2043929Y44870279D01*
X2124716Y44855177D01*
X2167294Y44847170D01*
X2245445Y44831893D01*
X2313775Y44817785D01*
X2368551Y44805655D01*
X2406037Y44796314D01*
X2422500Y44790573D01*
X2425457Y44784881D01*
X2430362Y44757070D01*
X2434216Y44710750D01*
X2437021Y44650280D01*
X2438781Y44580017D01*
X2439499Y44504320D01*
X2439177Y44427547D01*
X2437819Y44354056D01*
X2435428Y44288206D01*
X2432006Y44234355D01*
X2427556Y44196862D01*
X2422082Y44180084D01*
X2418760Y44178191D01*
X2393987Y44170074D01*
X2351011Y44159334D01*
X2294802Y44147147D01*
X2230325Y44134690D01*
X2208570Y44130723D01*
X2108093Y44112271D01*
X2029126Y44097441D01*
X1968934Y44085620D01*
X1924778Y44076191D01*
X1893920Y44068540D01*
X1873625Y44062052D01*
X1861154Y44056112D01*
X1853771Y44050106D01*
X1852913Y44049098D01*
X1840838Y44028081D01*
X1822971Y43989624D01*
X1801042Y43938239D01*
X1776784Y43878437D01*
X1751927Y43814730D01*
X1728205Y43751629D01*
X1707347Y43693645D01*
X1691087Y43645291D01*
X1681156Y43611078D01*
X1679285Y43595517D01*
X1680536Y43593498D01*
X1693486Y43573972D01*
X1717840Y43537958D01*
X1751340Y43488772D01*
X1791727Y43429733D01*
X1836745Y43364158D01*
X1849100Y43346116D01*
X1892545Y43281401D01*
X1930091Y43223524D01*
X1959594Y43175918D01*
X1978914Y43142015D01*
X1985905Y43125248D01*
X1984398Y43120839D01*
X1968695Y43099118D01*
X1937714Y43063646D01*
X1893673Y43016812D01*
X1838790Y42961004D01*
X1775286Y42898608D01*
X1738988Y42863683D01*
X1681595Y42809289D01*
X1631361Y42762698D01*
X1590984Y42726364D01*
X1563161Y42702739D01*
X1550590Y42694276D01*
X1541952Y42697413D01*
X1515360Y42712253D01*
X1476741Y42736523D01*
X1431134Y42767148D01*
X1398707Y42789497D01*
X1333970Y42833878D01*
X1264886Y42881013D01*
X1201787Y42923845D01*
X1078178Y43007453D01*
X974417Y42951350D01*
X949984Y42938401D01*
X905552Y42916251D01*
X871191Y42900959D01*
X852828Y42895257D01*
X846818Y42902579D01*
X831895Y42930459D01*
X809852Y42976425D01*
X781917Y43037559D01*
X749317Y43110945D01*
X713276Y43193665D01*
X675023Y43282803D01*
X635783Y43375441D01*
X596783Y43468663D01*
X559249Y43559550D01*
X524409Y43645186D01*
X493488Y43722655D01*
X467714Y43789038D01*
X448311Y43841418D01*
X436508Y43876879D01*
X433531Y43892504D01*
X433732Y43892961D01*
X447601Y43907405D01*
X476611Y43930026D01*
X514772Y43956136D01*
X526817Y43964108D01*
X618469Y44039744D01*
X694323Y44129831D01*
X752581Y44230619D01*
X791448Y44338360D01*
X809128Y44449303D01*
X803826Y44559697D01*
X782347Y44657885D01*
X743782Y44757034D01*
X687562Y44845488D01*
X610410Y44929513D01*
X580095Y44956355D01*
X482094Y45022490D01*
X376227Y45067030D01*
X265561Y45090375D01*
X153164Y45092922D01*
X42105Y45075071D01*
X-64549Y45037220D01*
X-163730Y44979768D01*
X-252369Y44903113D01*
X-327400Y44807655D01*
X-341825Y44784015D01*
X-390857Y44675966D01*
X-416897Y44563452D01*
X-420628Y44449386D01*
X-402732Y44336682D01*
X-363891Y44228255D01*
X-304786Y44127018D01*
X-226100Y44035886D01*
X-128515Y43957772D01*
X-125346Y43955667D01*
X-87589Y43929060D01*
X-59291Y43906439D01*
X-46366Y43892504D01*
X-47997Y43881579D01*
X-58136Y43849769D01*
X-76116Y43800466D01*
X-100708Y43736587D01*
X-130689Y43661052D01*
X-164830Y43576777D01*
X-201908Y43486680D01*
X-240694Y43393679D01*
X-279964Y43300692D01*
X-318491Y43210636D01*
X-355050Y43126429D01*
X-388414Y43050990D01*
X-417357Y42987235D01*
X-440654Y42938083D01*
X-457077Y42906451D01*
X-465402Y42895257D01*
X-472326Y42896773D01*
X-499523Y42907669D01*
X-539720Y42926772D01*
X-586991Y42951350D01*
X-690752Y43007453D01*
X-814361Y42923845D01*
X-850880Y42899087D01*
X-918806Y42852829D01*
X-986525Y42806497D01*
X-1043709Y42767148D01*
X-1075268Y42745703D01*
X-1116286Y42719061D01*
X-1146699Y42700822D01*
X-1161554Y42694059D01*
X-1167935Y42696930D01*
X-1191004Y42714515D01*
X-1226567Y42745477D01*
X-1271529Y42786769D01*
X-1322794Y42835347D01*
X-1377267Y42888165D01*
X-1431852Y42942177D01*
X-1483453Y42994339D01*
X-1528976Y43041604D01*
X-1565325Y43080928D01*
X-1589405Y43109264D01*
X-1598119Y43123568D01*
X-1597617Y43126289D01*
X-1587245Y43148440D01*
X-1565088Y43186765D01*
X-1533288Y43237800D01*
X-1493984Y43298086D01*
X-1449319Y43364158D01*
X-1436793Y43382383D01*
X-1392807Y43446515D01*
X-1354063Y43503211D01*
X-1322818Y43549156D01*
X-1301331Y43581030D01*
X-1291860Y43595517D01*
X-1291627Y43596138D01*
X-1294422Y43613861D01*
X-1305097Y43649765D01*
X-1321919Y43699338D01*
X-1343157Y43758068D01*
X-1367079Y43821444D01*
X-1391954Y43884954D01*
X-1416050Y43944087D01*
X-1437635Y43994331D01*
X-1454977Y44031174D01*
X-1466345Y44050106D01*
X-1467484Y44051281D01*
X-1475624Y44057227D01*
X-1489371Y44063224D01*
X-1511463Y44069886D01*
X-1544637Y44077827D01*
X-1591630Y44087663D01*
X-1655180Y44100009D01*
X-1738024Y44115480D01*
X-1842900Y44134690D01*
X-1864652Y44138733D01*
X-1926964Y44151231D01*
X-1979381Y44163073D01*
X-2016934Y44173083D01*
X-2034657Y44180084D01*
X-2037622Y44185925D01*
X-2042565Y44213984D01*
X-2046482Y44260500D01*
X-2049371Y44321114D01*
X-2051227Y44391468D01*
X-2052048Y44467204D01*
X-2051832Y44543963D01*
X-2050574Y44617388D01*
X-2048272Y44683120D01*
X-2044924Y44736800D01*
X-2040526Y44774070D01*
X-2035074Y44790573D01*
X-2029509Y44793011D01*
X-2001822Y44800695D01*
X-1955021Y44811564D01*
X-1892843Y44824808D01*
X-1819021Y44839616D01*
X-1737290Y44855177D01*
X-1692664Y44863491D01*
X-1616176Y44877908D01*
X-1550340Y44890533D01*
X-1498677Y44900679D01*
X-1464707Y44907659D01*
X-1451952Y44910788D01*
X-1451472Y44911432D01*
X-1443349Y44927819D01*
X-1427863Y44962148D01*
X-1406950Y45009864D01*
X-1382545Y45066414D01*
X-1356584Y45127242D01*
X-1331003Y45187794D01*
X-1307738Y45243515D01*
X-1288723Y45289850D01*
X-1275895Y45322245D01*
X-1271188Y45336145D01*
X-1273264Y45341035D01*
X-1287080Y45364308D01*
X-1312140Y45403481D01*
X-1346432Y45455480D01*
X-1387941Y45517232D01*
X-1434654Y45585664D01*
X-1460282Y45623140D01*
X-1504510Y45688844D01*
X-1542430Y45746508D01*
X-1572020Y45792986D01*
X-1591257Y45825135D01*
X-1598119Y45839810D01*
X-1593351Y45847770D01*
X-1573407Y45871554D01*
X-1540687Y45907549D01*
X-1498195Y45952705D01*
X-1448935Y46003972D01*
X-1395909Y46058299D01*
X-1342123Y46112636D01*
X-1290579Y46163933D01*
X-1244280Y46209141D01*
X-1206231Y46245208D01*
X-1179435Y46269086D01*
X-1166895Y46277722D01*
X-1159934Y46274364D01*
X-1134373Y46258790D01*
X-1093126Y46232285D01*
X-1039163Y46196790D01*
X-975458Y46154250D01*
X-904984Y46106605D01*
X-653338Y45935488D01*
X-233812Y46108430D01*
X-176964Y46409982D01*
X-120115Y46711534D01*
X507540Y46711534D01*
X564389Y46409982D01*
G36*
X1082605Y42242576D02*
G01*
X1139926Y42224566D01*
X1165199Y42212326D01*
X1177910Y42211062D01*
X1180792Y42222202D01*
X1180795Y42222539D01*
X1187006Y42233913D01*
X1208428Y42239744D01*
X1249950Y42241386D01*
X1319109Y42241386D01*
X1319109Y41637821D01*
X1180792Y41637821D01*
X1180792Y41845868D01*
X1180697Y41916121D01*
X1180051Y41973830D01*
X1178320Y42014213D01*
X1174974Y42041385D01*
X1169481Y42059460D01*
X1161310Y42072553D01*
X1149928Y42084779D01*
X1134424Y42097783D01*
X1089843Y42115255D01*
X1043047Y42110127D01*
X1000180Y42082493D01*
X987927Y42069632D01*
X979132Y42056616D01*
X973233Y42039294D01*
X969651Y42013499D01*
X967809Y41975061D01*
X967128Y41919811D01*
X967030Y41843582D01*
X967030Y41637821D01*
X828713Y41637821D01*
X828989Y41861015D01*
X829008Y41870956D01*
X830207Y41965894D01*
X833891Y42039642D01*
X841006Y42095786D01*
X852500Y42137913D01*
X869318Y42169609D01*
X892409Y42194459D01*
X922717Y42216050D01*
X954012Y42230998D01*
X1017037Y42244579D01*
X1082605Y42242576D01*
G37*
X1082605Y42242576D02*
X1139926Y42224566D01*
X1165199Y42212326D01*
X1177910Y42211062D01*
X1180792Y42222202D01*
X1180795Y42222539D01*
X1187006Y42233913D01*
X1208428Y42239744D01*
X1249950Y42241386D01*
X1319109Y42241386D01*
X1319109Y41637821D01*
X1180792Y41637821D01*
X1180792Y41845868D01*
X1180697Y41916121D01*
X1180051Y41973830D01*
X1178320Y42014213D01*
X1174974Y42041385D01*
X1169481Y42059460D01*
X1161310Y42072553D01*
X1149928Y42084779D01*
X1134424Y42097783D01*
X1089843Y42115255D01*
X1043047Y42110127D01*
X1000180Y42082493D01*
X987927Y42069632D01*
X979132Y42056616D01*
X973233Y42039294D01*
X969651Y42013499D01*
X967809Y41975061D01*
X967128Y41919811D01*
X967030Y41843582D01*
X967030Y41637821D01*
X828713Y41637821D01*
X828989Y41861015D01*
X829008Y41870956D01*
X830207Y41965894D01*
X833891Y42039642D01*
X841006Y42095786D01*
X852500Y42137913D01*
X869318Y42169609D01*
X892409Y42194459D01*
X922717Y42216050D01*
X954012Y42230998D01*
X1017037Y42244579D01*
X1082605Y42242576D01*
G36*
X-525756Y40790581D02*
G01*
X-558723Y40741745D01*
X-608730Y40706614D01*
X-613638Y40704479D01*
X-668354Y40689097D01*
X-730007Y40683101D01*
X-788624Y40686767D01*
X-834233Y40700371D01*
X-852451Y40709246D01*
X-865821Y40711363D01*
X-868812Y40700294D01*
X-874476Y40690058D01*
X-896393Y40683962D01*
X-938932Y40682178D01*
X-1009052Y40682178D01*
X-1005320Y40902227D01*
X-868812Y40902227D01*
X-864076Y40869334D01*
X-843664Y40833069D01*
X-836129Y40826403D01*
X-805247Y40812380D01*
X-758787Y40808772D01*
X-730910Y40810181D01*
X-678745Y40820796D01*
X-646413Y40840575D01*
X-635508Y40868176D01*
X-647626Y40902257D01*
X-654696Y40911176D01*
X-686276Y40931182D01*
X-736256Y40942605D01*
X-807513Y40946237D01*
X-868812Y40946237D01*
X-868812Y40902227D01*
X-1005320Y40902227D01*
X-1004947Y40924232D01*
X-1003831Y40980206D01*
X-1000894Y41064004D01*
X-995942Y41128080D01*
X-987998Y41175927D01*
X-976083Y41211038D01*
X-959220Y41236907D01*
X-936428Y41257026D01*
X-906731Y41274890D01*
X-891411Y41281710D01*
X-838411Y41294583D01*
X-774487Y41299905D01*
X-708398Y41297773D01*
X-648901Y41288286D01*
X-604753Y41271539D01*
X-589396Y41261815D01*
X-554040Y41232995D01*
X-542074Y41208863D01*
X-544980Y41204200D01*
X-563091Y41187912D01*
X-592328Y41166183D01*
X-607275Y41156013D01*
X-632730Y41141603D01*
X-649272Y41140227D01*
X-664630Y41150173D01*
X-702906Y41170316D01*
X-754410Y41178600D01*
X-807043Y41172258D01*
X-808039Y41171970D01*
X-845162Y41155842D01*
X-863537Y41130595D01*
X-868620Y41088842D01*
X-868812Y41049121D01*
X-737577Y41044832D01*
X-716669Y41044127D01*
X-663957Y41041674D01*
X-628619Y41037820D01*
X-604733Y41031122D01*
X-586376Y41020136D01*
X-567624Y41003420D01*
X-536663Y40964756D01*
X-513971Y40907544D01*
X-511746Y40868176D01*
X-510587Y40847667D01*
X-525756Y40790581D01*
G37*
X-525756Y40790581D02*
X-558723Y40741745D01*
X-608730Y40706614D01*
X-613638Y40704479D01*
X-668354Y40689097D01*
X-730007Y40683101D01*
X-788624Y40686767D01*
X-834233Y40700371D01*
X-852451Y40709246D01*
X-865821Y40711363D01*
X-868812Y40700294D01*
X-874476Y40690058D01*
X-896393Y40683962D01*
X-938932Y40682178D01*
X-1009052Y40682178D01*
X-1005320Y40902227D01*
X-868812Y40902227D01*
X-864076Y40869334D01*
X-843664Y40833069D01*
X-836129Y40826403D01*
X-805247Y40812380D01*
X-758787Y40808772D01*
X-730910Y40810181D01*
X-678745Y40820796D01*
X-646413Y40840575D01*
X-635508Y40868176D01*
X-647626Y40902257D01*
X-654696Y40911176D01*
X-686276Y40931182D01*
X-736256Y40942605D01*
X-807513Y40946237D01*
X-868812Y40946237D01*
X-868812Y40902227D01*
X-1005320Y40902227D01*
X-1004947Y40924232D01*
X-1003831Y40980206D01*
X-1000894Y41064004D01*
X-995942Y41128080D01*
X-987998Y41175927D01*
X-976083Y41211038D01*
X-959220Y41236907D01*
X-936428Y41257026D01*
X-906731Y41274890D01*
X-891411Y41281710D01*
X-838411Y41294583D01*
X-774487Y41299905D01*
X-708398Y41297773D01*
X-648901Y41288286D01*
X-604753Y41271539D01*
X-589396Y41261815D01*
X-554040Y41232995D01*
X-542074Y41208863D01*
X-544980Y41204200D01*
X-563091Y41187912D01*
X-592328Y41166183D01*
X-607275Y41156013D01*
X-632730Y41141603D01*
X-649272Y41140227D01*
X-664630Y41150173D01*
X-702906Y41170316D01*
X-754410Y41178600D01*
X-807043Y41172258D01*
X-808039Y41171970D01*
X-845162Y41155842D01*
X-863537Y41130595D01*
X-868620Y41088842D01*
X-868812Y41049121D01*
X-737577Y41044832D01*
X-716669Y41044127D01*
X-663957Y41041674D01*
X-628619Y41037820D01*
X-604733Y41031122D01*
X-586376Y41020136D01*
X-567624Y41003420D01*
X-536663Y40964756D01*
X-513971Y40907544D01*
X-511746Y40868176D01*
X-510587Y40847667D01*
X-525756Y40790581D01*
G36*
X889167Y40889429D02*
G01*
X885962Y40851982D01*
X885413Y40848550D01*
X863838Y40787165D01*
X824438Y40735123D01*
X772752Y40699865D01*
X717248Y40685271D01*
X648977Y40686403D01*
X586173Y40705971D01*
X569815Y40714229D01*
X548779Y40723077D01*
X540774Y40720324D01*
X539505Y40705971D01*
X538922Y40698814D01*
X531394Y40688228D01*
X510488Y40683355D01*
X470346Y40682178D01*
X401188Y40682178D01*
X401188Y40984070D01*
X539505Y40984070D01*
X540496Y40931770D01*
X544519Y40896950D01*
X553108Y40873095D01*
X567797Y40853105D01*
X606584Y40823382D01*
X651974Y40813418D01*
X695989Y40825740D01*
X733060Y40860112D01*
X742859Y40885265D01*
X750097Y40929806D01*
X753279Y40983845D01*
X752277Y41039272D01*
X746961Y41087978D01*
X737204Y41121852D01*
X734087Y41127407D01*
X704038Y41155326D01*
X663315Y41167694D01*
X619579Y41164817D01*
X580491Y41147000D01*
X553710Y41114548D01*
X552603Y41111819D01*
X545963Y41081366D01*
X541278Y41035861D01*
X539505Y40984070D01*
X401188Y40984070D01*
X401188Y41537227D01*
X539505Y41537227D01*
X539505Y41244122D01*
X565124Y41267307D01*
X589792Y41281718D01*
X636480Y41293764D01*
X691056Y41297646D01*
X744354Y41292880D01*
X787207Y41278986D01*
X817878Y41259221D01*
X849471Y41225551D01*
X870733Y41180270D01*
X883514Y41119019D01*
X889664Y41037437D01*
X890568Y41004460D01*
X890633Y40983845D01*
X890761Y40943187D01*
X889167Y40889429D01*
G37*
X889167Y40889429D02*
X885962Y40851982D01*
X885413Y40848550D01*
X863838Y40787165D01*
X824438Y40735123D01*
X772752Y40699865D01*
X717248Y40685271D01*
X648977Y40686403D01*
X586173Y40705971D01*
X569815Y40714229D01*
X548779Y40723077D01*
X540774Y40720324D01*
X539505Y40705971D01*
X538922Y40698814D01*
X531394Y40688228D01*
X510488Y40683355D01*
X470346Y40682178D01*
X401188Y40682178D01*
X401188Y40984070D01*
X539505Y40984070D01*
X540496Y40931770D01*
X544519Y40896950D01*
X553108Y40873095D01*
X567797Y40853105D01*
X606584Y40823382D01*
X651974Y40813418D01*
X695989Y40825740D01*
X733060Y40860112D01*
X742859Y40885265D01*
X750097Y40929806D01*
X753279Y40983845D01*
X752277Y41039272D01*
X746961Y41087978D01*
X737204Y41121852D01*
X734087Y41127407D01*
X704038Y41155326D01*
X663315Y41167694D01*
X619579Y41164817D01*
X580491Y41147000D01*
X553710Y41114548D01*
X552603Y41111819D01*
X545963Y41081366D01*
X541278Y41035861D01*
X539505Y40984070D01*
X401188Y40984070D01*
X401188Y41537227D01*
X539505Y41537227D01*
X539505Y41244122D01*
X565124Y41267307D01*
X589792Y41281718D01*
X636480Y41293764D01*
X691056Y41297646D01*
X744354Y41292880D01*
X787207Y41278986D01*
X817878Y41259221D01*
X849471Y41225551D01*
X870733Y41180270D01*
X883514Y41119019D01*
X889664Y41037437D01*
X890568Y41004460D01*
X890633Y40983845D01*
X890761Y40943187D01*
X889167Y40889429D01*
G36*
X-2182175Y41883879D02*
G01*
X-2182385Y41881986D01*
X-2200465Y41793675D01*
X-2233130Y41725014D01*
X-2281399Y41674494D01*
X-2346287Y41640607D01*
X-2358199Y41636732D01*
X-2432029Y41625312D01*
X-2508386Y41631680D01*
X-2579374Y41654437D01*
X-2637096Y41692181D01*
X-2680333Y41732128D01*
X-2634375Y41768468D01*
X-2588417Y41804807D01*
X-2533031Y41777899D01*
X-2468944Y41756095D01*
X-2412368Y41755442D01*
X-2366080Y41775475D01*
X-2332770Y41815685D01*
X-2320829Y41839778D01*
X-2314163Y41860370D01*
X-2318020Y41874280D01*
X-2335325Y41882819D01*
X-2369003Y41887296D01*
X-2421979Y41889022D01*
X-2497178Y41889307D01*
X-2679505Y41889307D01*
X-2679505Y41976508D01*
X-2678143Y42014790D01*
X-2549766Y42014790D01*
X-2543601Y42007749D01*
X-2525346Y42004084D01*
X-2490648Y42002694D01*
X-2435154Y42002475D01*
X-2405397Y42002824D01*
X-2358438Y42005133D01*
X-2326584Y42009178D01*
X-2314852Y42014458D01*
X-2317854Y42033938D01*
X-2339012Y42071214D01*
X-2374269Y42101836D01*
X-2416301Y42120332D01*
X-2457780Y42121227D01*
X-2489003Y42106396D01*
X-2524382Y42072645D01*
X-2546878Y42030767D01*
X-2548195Y42026310D01*
X-2549766Y42014790D01*
X-2678143Y42014790D01*
X-2677864Y42022629D01*
X-2673045Y42068260D01*
X-2666160Y42099107D01*
X-2661141Y42110883D01*
X-2624610Y42163333D01*
X-2571825Y42207079D01*
X-2510096Y42235721D01*
X-2477898Y42243543D01*
X-2401180Y42247104D01*
X-2332821Y42228991D01*
X-2274701Y42191221D01*
X-2228698Y42135809D01*
X-2196690Y42064771D01*
X-2187100Y42014458D01*
X-2180556Y41980122D01*
X-2182175Y41883879D01*
G37*
X-2182175Y41883879D02*
X-2182385Y41881986D01*
X-2200465Y41793675D01*
X-2233130Y41725014D01*
X-2281399Y41674494D01*
X-2346287Y41640607D01*
X-2358199Y41636732D01*
X-2432029Y41625312D01*
X-2508386Y41631680D01*
X-2579374Y41654437D01*
X-2637096Y41692181D01*
X-2680333Y41732128D01*
X-2634375Y41768468D01*
X-2588417Y41804807D01*
X-2533031Y41777899D01*
X-2468944Y41756095D01*
X-2412368Y41755442D01*
X-2366080Y41775475D01*
X-2332770Y41815685D01*
X-2320829Y41839778D01*
X-2314163Y41860370D01*
X-2318020Y41874280D01*
X-2335325Y41882819D01*
X-2369003Y41887296D01*
X-2421979Y41889022D01*
X-2497178Y41889307D01*
X-2679505Y41889307D01*
X-2679505Y41976508D01*
X-2678143Y42014790D01*
X-2549766Y42014790D01*
X-2543601Y42007749D01*
X-2525346Y42004084D01*
X-2490648Y42002694D01*
X-2435154Y42002475D01*
X-2405397Y42002824D01*
X-2358438Y42005133D01*
X-2326584Y42009178D01*
X-2314852Y42014458D01*
X-2317854Y42033938D01*
X-2339012Y42071214D01*
X-2374269Y42101836D01*
X-2416301Y42120332D01*
X-2457780Y42121227D01*
X-2489003Y42106396D01*
X-2524382Y42072645D01*
X-2546878Y42030767D01*
X-2548195Y42026310D01*
X-2549766Y42014790D01*
X-2678143Y42014790D01*
X-2677864Y42022629D01*
X-2673045Y42068260D01*
X-2666160Y42099107D01*
X-2661141Y42110883D01*
X-2624610Y42163333D01*
X-2571825Y42207079D01*
X-2510096Y42235721D01*
X-2477898Y42243543D01*
X-2401180Y42247104D01*
X-2332821Y42228991D01*
X-2274701Y42191221D01*
X-2228698Y42135809D01*
X-2196690Y42064771D01*
X-2187100Y42014458D01*
X-2180556Y41980122D01*
X-2182175Y41883879D01*
G36*
X3063373Y41865690D02*
G01*
X3059688Y41817668D01*
X3053410Y41783632D01*
X3043044Y41756662D01*
X3027092Y41729842D01*
X3026412Y41728825D01*
X2987132Y41685371D01*
X2939072Y41652228D01*
X2883185Y41632561D01*
X2809666Y41626176D01*
X2737609Y41638732D01*
X2673201Y41668989D01*
X2622627Y41715706D01*
X2608108Y41737779D01*
X2580993Y41806398D01*
X2567546Y41891061D01*
X2567776Y41912477D01*
X2702920Y41912477D01*
X2703174Y41872426D01*
X2707421Y41845687D01*
X2717096Y41825141D01*
X2733638Y41803669D01*
X2756593Y41782361D01*
X2802505Y41763347D01*
X2851802Y41766878D01*
X2898917Y41793306D01*
X2912207Y41805928D01*
X2926397Y41827535D01*
X2934266Y41857906D01*
X2938726Y41905230D01*
X2939955Y41940781D01*
X2933224Y42013380D01*
X2912567Y42065358D01*
X2877894Y42097001D01*
X2837249Y42112153D01*
X2788777Y42110877D01*
X2743845Y42085297D01*
X2733103Y42075558D01*
X2719548Y42058520D01*
X2711505Y42036228D01*
X2707043Y42002053D01*
X2704228Y41949362D01*
X2702920Y41912477D01*
X2567776Y41912477D01*
X2568583Y41987649D01*
X2569907Y42001349D01*
X2588374Y42089092D01*
X2622540Y42157207D01*
X2672479Y42205769D01*
X2738261Y42234852D01*
X2819961Y42244529D01*
X2850828Y42243621D01*
X2914128Y42232507D01*
X2965889Y42205979D01*
X3014147Y42160564D01*
X3021865Y42151449D01*
X3042681Y42120752D01*
X3056362Y42085993D01*
X3063948Y42041944D01*
X3066479Y41983379D01*
X3065672Y41940781D01*
X3064997Y41905069D01*
X3063373Y41865690D01*
G37*
X3063373Y41865690D02*
X3059688Y41817668D01*
X3053410Y41783632D01*
X3043044Y41756662D01*
X3027092Y41729842D01*
X3026412Y41728825D01*
X2987132Y41685371D01*
X2939072Y41652228D01*
X2883185Y41632561D01*
X2809666Y41626176D01*
X2737609Y41638732D01*
X2673201Y41668989D01*
X2622627Y41715706D01*
X2608108Y41737779D01*
X2580993Y41806398D01*
X2567546Y41891061D01*
X2567776Y41912477D01*
X2702920Y41912477D01*
X2703174Y41872426D01*
X2707421Y41845687D01*
X2717096Y41825141D01*
X2733638Y41803669D01*
X2756593Y41782361D01*
X2802505Y41763347D01*
X2851802Y41766878D01*
X2898917Y41793306D01*
X2912207Y41805928D01*
X2926397Y41827535D01*
X2934266Y41857906D01*
X2938726Y41905230D01*
X2939955Y41940781D01*
X2933224Y42013380D01*
X2912567Y42065358D01*
X2877894Y42097001D01*
X2837249Y42112153D01*
X2788777Y42110877D01*
X2743845Y42085297D01*
X2733103Y42075558D01*
X2719548Y42058520D01*
X2711505Y42036228D01*
X2707043Y42002053D01*
X2704228Y41949362D01*
X2702920Y41912477D01*
X2567776Y41912477D01*
X2568583Y41987649D01*
X2569907Y42001349D01*
X2588374Y42089092D01*
X2622540Y42157207D01*
X2672479Y42205769D01*
X2738261Y42234852D01*
X2819961Y42244529D01*
X2850828Y42243621D01*
X2914128Y42232507D01*
X2965889Y42205979D01*
X3014147Y42160564D01*
X3021865Y42151449D01*
X3042681Y42120752D01*
X3056362Y42085993D01*
X3063948Y42041944D01*
X3066479Y41983379D01*
X3065672Y41940781D01*
X3064997Y41905069D01*
X3063373Y41865690D01*
G36*
X-1329735Y41290035D02*
G01*
X-1291745Y41272255D01*
X-1258614Y41246194D01*
X-1258614Y41272255D01*
X-1257789Y41282151D01*
X-1250107Y41292642D01*
X-1229333Y41297275D01*
X-1189456Y41298317D01*
X-1120297Y41298317D01*
X-1120297Y40682178D01*
X-1258614Y40682178D01*
X-1258614Y40882774D01*
X-1258631Y40894290D01*
X-1259811Y40975242D01*
X-1262706Y41041183D01*
X-1267112Y41088742D01*
X-1272819Y41114548D01*
X-1278060Y41124290D01*
X-1310324Y41154844D01*
X-1354270Y41168369D01*
X-1402257Y41162059D01*
X-1414027Y41157783D01*
X-1439102Y41150224D01*
X-1456238Y41152572D01*
X-1473482Y41167936D01*
X-1498876Y41199429D01*
X-1540064Y41251432D01*
X-1511114Y41274875D01*
X-1483595Y41288985D01*
X-1435255Y41298514D01*
X-1380770Y41298826D01*
X-1329735Y41290035D01*
G37*
X-1329735Y41290035D02*
X-1291745Y41272255D01*
X-1258614Y41246194D01*
X-1258614Y41272255D01*
X-1257789Y41282151D01*
X-1250107Y41292642D01*
X-1229333Y41297275D01*
X-1189456Y41298317D01*
X-1120297Y41298317D01*
X-1120297Y40682178D01*
X-1258614Y40682178D01*
X-1258614Y40882774D01*
X-1258631Y40894290D01*
X-1259811Y40975242D01*
X-1262706Y41041183D01*
X-1267112Y41088742D01*
X-1272819Y41114548D01*
X-1278060Y41124290D01*
X-1310324Y41154844D01*
X-1354270Y41168369D01*
X-1402257Y41162059D01*
X-1414027Y41157783D01*
X-1439102Y41150224D01*
X-1456238Y41152572D01*
X-1473482Y41167936D01*
X-1498876Y41199429D01*
X-1540064Y41251432D01*
X-1511114Y41274875D01*
X-1483595Y41288985D01*
X-1435255Y41298514D01*
X-1380770Y41298826D01*
X-1329735Y41290035D01*
G36*
X2409926Y40684664D02*
G01*
X2343911Y40688465D01*
X2340772Y40889653D01*
X2339844Y40938575D01*
X2337208Y41012074D01*
X2332683Y41066009D01*
X2325438Y41104005D01*
X2314642Y41129687D01*
X2299462Y41146680D01*
X2279066Y41158611D01*
X2240797Y41170795D01*
X2202738Y41166060D01*
X2162549Y41140021D01*
X2123861Y41107467D01*
X2123861Y40682178D01*
X1985544Y40682178D01*
X1985544Y40912824D01*
X1985677Y40985118D01*
X1986413Y41049359D01*
X1988181Y41096382D01*
X1991411Y41130452D01*
X1996530Y41155830D01*
X2003967Y41176779D01*
X2014150Y41197564D01*
X2016564Y41201976D01*
X2048675Y41244953D01*
X2086256Y41274987D01*
X2131564Y41290757D01*
X2191561Y41297778D01*
X2251643Y41293975D01*
X2300525Y41279132D01*
X2337624Y41259948D01*
X2337624Y41675141D01*
X2286792Y41648646D01*
X2265558Y41639020D01*
X2198536Y41625408D01*
X2131930Y41634816D01*
X2070187Y41666095D01*
X2017757Y41718098D01*
X2009543Y41730320D01*
X2001649Y41748237D01*
X1996500Y41772596D01*
X1993527Y41808073D01*
X1992161Y41859344D01*
X1991915Y41912764D01*
X2124749Y41912764D01*
X2124861Y41868151D01*
X2128272Y41838399D01*
X2135937Y41817165D01*
X2148814Y41798104D01*
X2165171Y41780383D01*
X2191329Y41766972D01*
X2230742Y41763564D01*
X2265559Y41766529D01*
X2300020Y41781369D01*
X2322215Y41811431D01*
X2334097Y41859746D01*
X2337624Y41929350D01*
X2336712Y41966376D01*
X2327609Y42036272D01*
X2308828Y42083536D01*
X2280476Y42107832D01*
X2251840Y42114668D01*
X2201970Y42111463D01*
X2159833Y42091620D01*
X2149749Y42082520D01*
X2139063Y42066777D01*
X2132456Y42043342D01*
X2128532Y42006396D01*
X2125897Y41950120D01*
X2124749Y41912764D01*
X1991915Y41912764D01*
X1991831Y41931083D01*
X1991944Y41963816D01*
X1993872Y42039956D01*
X1999240Y42096834D01*
X2009406Y42138751D01*
X2025725Y42170004D01*
X2049553Y42194894D01*
X2082247Y42217718D01*
X2108759Y42230816D01*
X2171615Y42245261D01*
X2237869Y42243293D01*
X2296757Y42224567D01*
X2322030Y42212327D01*
X2334742Y42211062D01*
X2337624Y42222202D01*
X2337626Y42222539D01*
X2343838Y42233913D01*
X2365260Y42239744D01*
X2406782Y42241386D01*
X2475940Y42241386D01*
X2475940Y40680864D01*
X2409926Y40684664D01*
G37*
X2409926Y40684664D02*
X2343911Y40688465D01*
X2340772Y40889653D01*
X2339844Y40938575D01*
X2337208Y41012074D01*
X2332683Y41066009D01*
X2325438Y41104005D01*
X2314642Y41129687D01*
X2299462Y41146680D01*
X2279066Y41158611D01*
X2240797Y41170795D01*
X2202738Y41166060D01*
X2162549Y41140021D01*
X2123861Y41107467D01*
X2123861Y40682178D01*
X1985544Y40682178D01*
X1985544Y40912824D01*
X1985677Y40985118D01*
X1986413Y41049359D01*
X1988181Y41096382D01*
X1991411Y41130452D01*
X1996530Y41155830D01*
X2003967Y41176779D01*
X2014150Y41197564D01*
X2016564Y41201976D01*
X2048675Y41244953D01*
X2086256Y41274987D01*
X2131564Y41290757D01*
X2191561Y41297778D01*
X2251643Y41293975D01*
X2300525Y41279132D01*
X2337624Y41259948D01*
X2337624Y41675141D01*
X2286792Y41648646D01*
X2265558Y41639020D01*
X2198536Y41625408D01*
X2131930Y41634816D01*
X2070187Y41666095D01*
X2017757Y41718098D01*
X2009543Y41730320D01*
X2001649Y41748237D01*
X1996500Y41772596D01*
X1993527Y41808073D01*
X1992161Y41859344D01*
X1991915Y41912764D01*
X2124749Y41912764D01*
X2124861Y41868151D01*
X2128272Y41838399D01*
X2135937Y41817165D01*
X2148814Y41798104D01*
X2165171Y41780383D01*
X2191329Y41766972D01*
X2230742Y41763564D01*
X2265559Y41766529D01*
X2300020Y41781369D01*
X2322215Y41811431D01*
X2334097Y41859746D01*
X2337624Y41929350D01*
X2336712Y41966376D01*
X2327609Y42036272D01*
X2308828Y42083536D01*
X2280476Y42107832D01*
X2251840Y42114668D01*
X2201970Y42111463D01*
X2159833Y42091620D01*
X2149749Y42082520D01*
X2139063Y42066777D01*
X2132456Y42043342D01*
X2128532Y42006396D01*
X2125897Y41950120D01*
X2124749Y41912764D01*
X1991915Y41912764D01*
X1991831Y41931083D01*
X1991944Y41963816D01*
X1993872Y42039956D01*
X1999240Y42096834D01*
X2009406Y42138751D01*
X2025725Y42170004D01*
X2049553Y42194894D01*
X2082247Y42217718D01*
X2108759Y42230816D01*
X2171615Y42245261D01*
X2237869Y42243293D01*
X2296757Y42224567D01*
X2322030Y42212327D01*
X2334742Y42211062D01*
X2337624Y42222202D01*
X2337626Y42222539D01*
X2343838Y42233913D01*
X2365260Y42239744D01*
X2406782Y42241386D01*
X2475940Y42241386D01*
X2475940Y40680864D01*
X2409926Y40684664D01*
G36*
X32997Y41100870D02*
G01*
X49997Y41050150D01*
X70107Y40994003D01*
X86899Y40951468D01*
X98986Y40926010D01*
X104980Y40921097D01*
X106426Y40925370D01*
X114254Y40951578D01*
X126723Y40995351D01*
X142447Y41051789D01*
X160043Y41115990D01*
X207914Y41292029D01*
X281007Y41295848D01*
X287177Y41296154D01*
X326592Y41296559D01*
X345533Y41292513D01*
X347945Y41283274D01*
X344898Y41274251D01*
X334874Y41243368D01*
X319180Y41194456D01*
X298934Y41131013D01*
X275256Y41056538D01*
X249263Y40974529D01*
X156736Y40682178D01*
X40993Y40682178D01*
X-13543Y40867648D01*
X-23614Y40901706D01*
X-42225Y40963622D01*
X-58128Y41015213D01*
X-69891Y41051870D01*
X-76082Y41068982D01*
X-77846Y41070259D01*
X-86429Y41059221D01*
X-98684Y41030031D01*
X-112574Y40987250D01*
X-113308Y40984737D01*
X-131904Y40921600D01*
X-153182Y40850111D01*
X-172679Y40785266D01*
X-204295Y40680878D01*
X-262598Y40684672D01*
X-320902Y40688465D01*
X-374902Y40858218D01*
X-398610Y40932807D01*
X-425167Y41016461D01*
X-450596Y41096658D01*
X-471646Y41163143D01*
X-514391Y41298317D01*
X-371388Y41298317D01*
X-336726Y41169430D01*
X-327512Y41135375D01*
X-310085Y41071885D01*
X-293946Y41014126D01*
X-281678Y40971386D01*
X-261291Y40902227D01*
X-131255Y41292029D01*
X-81524Y41295763D01*
X-31794Y41299496D01*
X32997Y41100870D01*
G37*
X32997Y41100870D02*
X49997Y41050150D01*
X70107Y40994003D01*
X86899Y40951468D01*
X98986Y40926010D01*
X104980Y40921097D01*
X106426Y40925370D01*
X114254Y40951578D01*
X126723Y40995351D01*
X142447Y41051789D01*
X160043Y41115990D01*
X207914Y41292029D01*
X281007Y41295848D01*
X287177Y41296154D01*
X326592Y41296559D01*
X345533Y41292513D01*
X347945Y41283274D01*
X344898Y41274251D01*
X334874Y41243368D01*
X319180Y41194456D01*
X298934Y41131013D01*
X275256Y41056538D01*
X249263Y40974529D01*
X156736Y40682178D01*
X40993Y40682178D01*
X-13543Y40867648D01*
X-23614Y40901706D01*
X-42225Y40963622D01*
X-58128Y41015213D01*
X-69891Y41051870D01*
X-76082Y41068982D01*
X-77846Y41070259D01*
X-86429Y41059221D01*
X-98684Y41030031D01*
X-112574Y40987250D01*
X-113308Y40984737D01*
X-131904Y40921600D01*
X-153182Y40850111D01*
X-172679Y40785266D01*
X-204295Y40680878D01*
X-262598Y40684672D01*
X-320902Y40688465D01*
X-374902Y40858218D01*
X-398610Y40932807D01*
X-425167Y41016461D01*
X-450596Y41096658D01*
X-471646Y41163143D01*
X-514391Y41298317D01*
X-371388Y41298317D01*
X-336726Y41169430D01*
X-327512Y41135375D01*
X-310085Y41071885D01*
X-293946Y41014126D01*
X-281678Y40971386D01*
X-261291Y40902227D01*
X-131255Y41292029D01*
X-81524Y41295763D01*
X-31794Y41299496D01*
X32997Y41100870D01*
G36*
X298874Y42241793D02*
G01*
X371495Y42223592D01*
X424546Y42189856D01*
X458329Y42140358D01*
X473147Y42074874D01*
X470147Y42012180D01*
X448493Y41959301D01*
X406967Y41920204D01*
X344736Y41894127D01*
X260969Y41880305D01*
X206540Y41873060D01*
X156860Y41857385D01*
X131211Y41834686D01*
X129662Y41805002D01*
X139984Y41786493D01*
X171951Y41764557D01*
X217395Y41754182D01*
X270649Y41755601D01*
X326048Y41769048D01*
X377928Y41794757D01*
X429653Y41828987D01*
X475148Y41782951D01*
X520643Y41736916D01*
X482921Y41706124D01*
X468253Y41695426D01*
X426983Y41671120D01*
X382327Y41650175D01*
X346984Y41638155D01*
X295234Y41629448D01*
X231435Y41629333D01*
X153200Y41638919D01*
X82722Y41663217D01*
X32836Y41701812D01*
X3423Y41754802D01*
X-5635Y41822282D01*
X921Y41881646D01*
X21970Y41930248D01*
X59864Y41965054D01*
X117004Y41988202D01*
X195785Y42001830D01*
X204834Y42002817D01*
X253885Y42009108D01*
X293675Y42015691D01*
X316312Y42021292D01*
X323866Y42025803D01*
X336637Y42049059D01*
X334563Y42078829D01*
X317495Y42104673D01*
X308533Y42110309D01*
X271188Y42119340D01*
X222950Y42118733D01*
X172650Y42109122D01*
X129115Y42091142D01*
X83372Y42064153D01*
X47890Y42105616D01*
X39280Y42116150D01*
X19883Y42144368D01*
X11897Y42163492D01*
X20283Y42175219D01*
X46226Y42193524D01*
X83688Y42213223D01*
X88966Y42215630D01*
X138366Y42234518D01*
X185983Y42243548D01*
X245072Y42245361D01*
X298874Y42241793D01*
G37*
X298874Y42241793D02*
X371495Y42223592D01*
X424546Y42189856D01*
X458329Y42140358D01*
X473147Y42074874D01*
X470147Y42012180D01*
X448493Y41959301D01*
X406967Y41920204D01*
X344736Y41894127D01*
X260969Y41880305D01*
X206540Y41873060D01*
X156860Y41857385D01*
X131211Y41834686D01*
X129662Y41805002D01*
X139984Y41786493D01*
X171951Y41764557D01*
X217395Y41754182D01*
X270649Y41755601D01*
X326048Y41769048D01*
X377928Y41794757D01*
X429653Y41828987D01*
X475148Y41782951D01*
X520643Y41736916D01*
X482921Y41706124D01*
X468253Y41695426D01*
X426983Y41671120D01*
X382327Y41650175D01*
X346984Y41638155D01*
X295234Y41629448D01*
X231435Y41629333D01*
X153200Y41638919D01*
X82722Y41663217D01*
X32836Y41701812D01*
X3423Y41754802D01*
X-5635Y41822282D01*
X921Y41881646D01*
X21970Y41930248D01*
X59864Y41965054D01*
X117004Y41988202D01*
X195785Y42001830D01*
X204834Y42002817D01*
X253885Y42009108D01*
X293675Y42015691D01*
X316312Y42021292D01*
X323866Y42025803D01*
X336637Y42049059D01*
X334563Y42078829D01*
X317495Y42104673D01*
X308533Y42110309D01*
X271188Y42119340D01*
X222950Y42118733D01*
X172650Y42109122D01*
X129115Y42091142D01*
X83372Y42064153D01*
X47890Y42105616D01*
X39280Y42116150D01*
X19883Y42144368D01*
X11897Y42163492D01*
X20283Y42175219D01*
X46226Y42193524D01*
X83688Y42213223D01*
X88966Y42215630D01*
X138366Y42234518D01*
X185983Y42243548D01*
X245072Y42245361D01*
X298874Y42241793D01*
G36*
X-1866591Y42238507D02*
G01*
X-1797979Y42211776D01*
X-1739952Y42167649D01*
X-1697093Y42107042D01*
X-1694199Y42100863D01*
X-1675824Y42040591D01*
X-1666643Y41968593D01*
X-1666715Y41893631D01*
X-1676099Y41824464D01*
X-1694851Y41769851D01*
X-1718005Y41731788D01*
X-1768970Y41677865D01*
X-1832694Y41643589D01*
X-1887215Y41629728D01*
X-1970233Y41628215D01*
X-2049674Y41649118D01*
X-2120121Y41691536D01*
X-2165716Y41729120D01*
X-2124649Y41771490D01*
X-2098704Y41796591D01*
X-2075236Y41810566D01*
X-2053476Y41807489D01*
X-2025644Y41788713D01*
X-2014546Y41781362D01*
X-1967663Y41766317D01*
X-1913776Y41766327D01*
X-1863325Y41781832D01*
X-1844328Y41794284D01*
X-1816463Y41831054D01*
X-1802494Y41885061D01*
X-1801595Y41958669D01*
X-1801597Y41958711D01*
X-1811991Y42024567D01*
X-1834886Y42070228D01*
X-1872561Y42098472D01*
X-1927292Y42112080D01*
X-1961759Y42113910D01*
X-1991874Y42106416D01*
X-2022760Y42084705D01*
X-2062728Y42051074D01*
X-2113344Y42091750D01*
X-2131837Y42107333D01*
X-2154935Y42129660D01*
X-2163961Y42142817D01*
X-2160764Y42148747D01*
X-2142354Y42166952D01*
X-2113027Y42190105D01*
X-2090080Y42205170D01*
X-2017226Y42236120D01*
X-1941201Y42246927D01*
X-1866591Y42238507D01*
G37*
X-1866591Y42238507D02*
X-1797979Y42211776D01*
X-1739952Y42167649D01*
X-1697093Y42107042D01*
X-1694199Y42100863D01*
X-1675824Y42040591D01*
X-1666643Y41968593D01*
X-1666715Y41893631D01*
X-1676099Y41824464D01*
X-1694851Y41769851D01*
X-1718005Y41731788D01*
X-1768970Y41677865D01*
X-1832694Y41643589D01*
X-1887215Y41629728D01*
X-1970233Y41628215D01*
X-2049674Y41649118D01*
X-2120121Y41691536D01*
X-2165716Y41729120D01*
X-2124649Y41771490D01*
X-2098704Y41796591D01*
X-2075236Y41810566D01*
X-2053476Y41807489D01*
X-2025644Y41788713D01*
X-2014546Y41781362D01*
X-1967663Y41766317D01*
X-1913776Y41766327D01*
X-1863325Y41781832D01*
X-1844328Y41794284D01*
X-1816463Y41831054D01*
X-1802494Y41885061D01*
X-1801595Y41958669D01*
X-1801597Y41958711D01*
X-1811991Y42024567D01*
X-1834886Y42070228D01*
X-1872561Y42098472D01*
X-1927292Y42112080D01*
X-1961759Y42113910D01*
X-1991874Y42106416D01*
X-2022760Y42084705D01*
X-2062728Y42051074D01*
X-2113344Y42091750D01*
X-2131837Y42107333D01*
X-2154935Y42129660D01*
X-2163961Y42142817D01*
X-2160764Y42148747D01*
X-2142354Y42166952D01*
X-2113027Y42190105D01*
X-2090080Y42205170D01*
X-2017226Y42236120D01*
X-1941201Y42246927D01*
X-1866591Y42238507D01*
G36*
X1293960Y40682178D02*
G01*
X1168218Y40682178D01*
X1168218Y40876260D01*
X1168078Y40921406D01*
X1166649Y40996177D01*
X1163029Y41051533D01*
X1156434Y41091298D01*
X1146079Y41119300D01*
X1131178Y41139365D01*
X1110946Y41155319D01*
X1088859Y41167208D01*
X1062705Y41170579D01*
X1025508Y41163083D01*
X1013555Y41159962D01*
X983718Y41155265D01*
X962383Y41161995D01*
X937655Y41182823D01*
X932963Y41187353D01*
X907020Y41215374D01*
X890291Y41238157D01*
X887996Y41243645D01*
X892543Y41263912D01*
X915602Y41280116D01*
X951995Y41291487D01*
X996544Y41297260D01*
X1044072Y41296666D01*
X1089400Y41288937D01*
X1127351Y41273306D01*
X1139381Y41266007D01*
X1159632Y41255324D01*
X1167129Y41257770D01*
X1168218Y41273353D01*
X1168473Y41278947D01*
X1174539Y41291340D01*
X1193356Y41296980D01*
X1231089Y41298317D01*
X1293960Y41298317D01*
X1293960Y40682178D01*
G37*
X1293960Y40682178D02*
X1168218Y40682178D01*
X1168218Y40876260D01*
X1168078Y40921406D01*
X1166649Y40996177D01*
X1163029Y41051533D01*
X1156434Y41091298D01*
X1146079Y41119300D01*
X1131178Y41139365D01*
X1110946Y41155319D01*
X1088859Y41167208D01*
X1062705Y41170579D01*
X1025508Y41163083D01*
X1013555Y41159962D01*
X983718Y41155265D01*
X962383Y41161995D01*
X937655Y41182823D01*
X932963Y41187353D01*
X907020Y41215374D01*
X890291Y41238157D01*
X887996Y41243645D01*
X892543Y41263912D01*
X915602Y41280116D01*
X951995Y41291487D01*
X996544Y41297260D01*
X1044072Y41296666D01*
X1089400Y41288937D01*
X1127351Y41273306D01*
X1139381Y41266007D01*
X1159632Y41255324D01*
X1167129Y41257770D01*
X1168218Y41273353D01*
X1168473Y41278947D01*
X1174539Y41291340D01*
X1193356Y41296980D01*
X1231089Y41298317D01*
X1293960Y41298317D01*
X1293960Y40682178D01*
G36*
X1911421Y41927064D02*
G01*
X1910322Y41888629D01*
X1897926Y41804633D01*
X1870608Y41738405D01*
X1826941Y41687216D01*
X1765495Y41648337D01*
X1705888Y41630188D01*
X1631110Y41626716D01*
X1555664Y41640070D01*
X1488366Y41669575D01*
X1463428Y41685988D01*
X1435951Y41707027D01*
X1423414Y41720871D01*
X1424124Y41726583D01*
X1438158Y41746045D01*
X1464533Y41769624D01*
X1510240Y41804487D01*
X1563799Y41777738D01*
X1578282Y41771118D01*
X1620916Y41756727D01*
X1656649Y41750990D01*
X1682998Y41755718D01*
X1724347Y41778486D01*
X1759104Y41813830D01*
X1778983Y41854727D01*
X1787083Y41889307D01*
X1407129Y41889307D01*
X1407199Y41955321D01*
X1407774Y41976243D01*
X1411972Y42021138D01*
X1545445Y42021138D01*
X1545690Y42018566D01*
X1552604Y42010557D01*
X1572141Y42005636D01*
X1608467Y42003157D01*
X1665748Y42002475D01*
X1684575Y42002483D01*
X1733470Y42002935D01*
X1762863Y42004887D01*
X1777115Y42009442D01*
X1780582Y42017701D01*
X1777625Y42030767D01*
X1777173Y42032248D01*
X1751699Y42077715D01*
X1711539Y42109019D01*
X1663651Y42120673D01*
X1645949Y42119741D01*
X1613094Y42108592D01*
X1581575Y42080237D01*
X1573085Y42070211D01*
X1553336Y42041577D01*
X1545445Y42021138D01*
X1411972Y42021138D01*
X1412512Y42026909D01*
X1420459Y42068834D01*
X1429168Y42092304D01*
X1459790Y42143354D01*
X1500799Y42189717D01*
X1544168Y42221486D01*
X1556699Y42227386D01*
X1629661Y42246954D01*
X1704168Y42244891D01*
X1774217Y42222069D01*
X1833807Y42179361D01*
X1866038Y42139975D01*
X1892392Y42084490D01*
X1906482Y42017701D01*
X1907022Y42015139D01*
X1911421Y41927064D01*
G37*
X1911421Y41927064D02*
X1910322Y41888629D01*
X1897926Y41804633D01*
X1870608Y41738405D01*
X1826941Y41687216D01*
X1765495Y41648337D01*
X1705888Y41630188D01*
X1631110Y41626716D01*
X1555664Y41640070D01*
X1488366Y41669575D01*
X1463428Y41685988D01*
X1435951Y41707027D01*
X1423414Y41720871D01*
X1424124Y41726583D01*
X1438158Y41746045D01*
X1464533Y41769624D01*
X1510240Y41804487D01*
X1563799Y41777738D01*
X1578282Y41771118D01*
X1620916Y41756727D01*
X1656649Y41750990D01*
X1682998Y41755718D01*
X1724347Y41778486D01*
X1759104Y41813830D01*
X1778983Y41854727D01*
X1787083Y41889307D01*
X1407129Y41889307D01*
X1407199Y41955321D01*
X1407774Y41976243D01*
X1411972Y42021138D01*
X1545445Y42021138D01*
X1545690Y42018566D01*
X1552604Y42010557D01*
X1572141Y42005636D01*
X1608467Y42003157D01*
X1665748Y42002475D01*
X1684575Y42002483D01*
X1733470Y42002935D01*
X1762863Y42004887D01*
X1777115Y42009442D01*
X1780582Y42017701D01*
X1777625Y42030767D01*
X1777173Y42032248D01*
X1751699Y42077715D01*
X1711539Y42109019D01*
X1663651Y42120673D01*
X1645949Y42119741D01*
X1613094Y42108592D01*
X1581575Y42080237D01*
X1573085Y42070211D01*
X1553336Y42041577D01*
X1545445Y42021138D01*
X1411972Y42021138D01*
X1412512Y42026909D01*
X1420459Y42068834D01*
X1429168Y42092304D01*
X1459790Y42143354D01*
X1500799Y42189717D01*
X1544168Y42221486D01*
X1556699Y42227386D01*
X1629661Y42246954D01*
X1704168Y42244891D01*
X1774217Y42222069D01*
X1833807Y42179361D01*
X1866038Y42139975D01*
X1892392Y42084490D01*
X1906482Y42017701D01*
X1907022Y42015139D01*
X1911421Y41927064D01*
G36*
X-1019703Y42045658D02*
G01*
X-1018643Y41957606D01*
X-1014491Y41886490D01*
X-1006079Y41834801D01*
X-992243Y41799640D01*
X-971818Y41778111D01*
X-943636Y41767318D01*
X-906535Y41764364D01*
X-871110Y41767000D01*
X-842500Y41777321D01*
X-821704Y41798228D01*
X-807558Y41832619D01*
X-798897Y41883390D01*
X-794555Y41953437D01*
X-793367Y42045658D01*
X-793367Y42241386D01*
X-667624Y42241386D01*
X-667624Y42005422D01*
X-667840Y41942439D01*
X-669516Y41860993D01*
X-673723Y41798879D01*
X-681479Y41752542D01*
X-693804Y41718427D01*
X-711715Y41692978D01*
X-736233Y41672638D01*
X-768377Y41653853D01*
X-835875Y41630072D01*
X-906319Y41628520D01*
X-972736Y41650420D01*
X-1001714Y41664617D01*
X-1016091Y41666739D01*
X-1019703Y41656707D01*
X-1025701Y41645444D01*
X-1047170Y41639511D01*
X-1088862Y41637821D01*
X-1158020Y41637821D01*
X-1158020Y42241386D01*
X-1019703Y42241386D01*
X-1019703Y42045658D01*
G37*
X-1019703Y42045658D02*
X-1018643Y41957606D01*
X-1014491Y41886490D01*
X-1006079Y41834801D01*
X-992243Y41799640D01*
X-971818Y41778111D01*
X-943636Y41767318D01*
X-906535Y41764364D01*
X-871110Y41767000D01*
X-842500Y41777321D01*
X-821704Y41798228D01*
X-807558Y41832619D01*
X-798897Y41883390D01*
X-794555Y41953437D01*
X-793367Y42045658D01*
X-793367Y42241386D01*
X-667624Y42241386D01*
X-667624Y42005422D01*
X-667840Y41942439D01*
X-669516Y41860993D01*
X-673723Y41798879D01*
X-681479Y41752542D01*
X-693804Y41718427D01*
X-711715Y41692978D01*
X-736233Y41672638D01*
X-768377Y41653853D01*
X-835875Y41630072D01*
X-906319Y41628520D01*
X-972736Y41650420D01*
X-1001714Y41664617D01*
X-1016091Y41666739D01*
X-1019703Y41656707D01*
X-1025701Y41645444D01*
X-1047170Y41639511D01*
X-1088862Y41637821D01*
X-1158020Y41637821D01*
X-1158020Y42241386D01*
X-1019703Y42241386D01*
X-1019703Y42045658D01*
G36*
X-1512872Y42246055D02*
G01*
X-1482046Y42236432D01*
X-1444084Y42220437D01*
X-1425704Y42211841D01*
X-1412439Y42210287D01*
X-1409505Y42222202D01*
X-1409502Y42222539D01*
X-1403291Y42233913D01*
X-1381869Y42239744D01*
X-1340347Y42241386D01*
X-1271188Y42241386D01*
X-1271188Y41637821D01*
X-1409505Y41637821D01*
X-1409505Y42053973D01*
X-1443890Y42085839D01*
X-1454632Y42094896D01*
X-1486630Y42110370D01*
X-1526035Y42110990D01*
X-1579688Y42097336D01*
X-1597775Y42096471D01*
X-1618992Y42109717D01*
X-1647232Y42141200D01*
X-1660931Y42158615D01*
X-1677132Y42183203D01*
X-1679629Y42198855D01*
X-1670558Y42212059D01*
X-1642711Y42228755D01*
X-1599460Y42241970D01*
X-1552536Y42248522D01*
X-1512872Y42246055D01*
G37*
X-1512872Y42246055D02*
X-1482046Y42236432D01*
X-1444084Y42220437D01*
X-1425704Y42211841D01*
X-1412439Y42210287D01*
X-1409505Y42222202D01*
X-1409502Y42222539D01*
X-1403291Y42233913D01*
X-1381869Y42239744D01*
X-1340347Y42241386D01*
X-1271188Y42241386D01*
X-1271188Y41637821D01*
X-1409505Y41637821D01*
X-1409505Y42053973D01*
X-1443890Y42085839D01*
X-1454632Y42094896D01*
X-1486630Y42110370D01*
X-1526035Y42110990D01*
X-1579688Y42097336D01*
X-1597775Y42096471D01*
X-1618992Y42109717D01*
X-1647232Y42141200D01*
X-1660931Y42158615D01*
X-1677132Y42183203D01*
X-1679629Y42198855D01*
X-1670558Y42212059D01*
X-1642711Y42228755D01*
X-1599460Y42241970D01*
X-1552536Y42248522D01*
X-1512872Y42246055D01*
G36*
X-1537282Y40943308D02*
G01*
X-1552173Y40853541D01*
X-1582815Y40782955D01*
X-1629476Y40731048D01*
X-1692426Y40697314D01*
X-1712765Y40691353D01*
X-1785388Y40683029D01*
X-1862072Y40690054D01*
X-1931337Y40711735D01*
X-1955738Y40724041D01*
X-1990725Y40745121D01*
X-2011928Y40762466D01*
X-2015058Y40766429D01*
X-2020915Y40780923D01*
X-2012476Y40796679D01*
X-1986779Y40820540D01*
X-1974378Y40830928D01*
X-1949948Y40849937D01*
X-1937139Y40857707D01*
X-1933470Y40856906D01*
X-1912439Y40848255D01*
X-1881040Y40833069D01*
X-1870803Y40828074D01*
X-1810410Y40809525D01*
X-1757943Y40814306D01*
X-1711935Y40842500D01*
X-1706581Y40847709D01*
X-1680987Y40880341D01*
X-1666363Y40911658D01*
X-1658264Y40946237D01*
X-2038218Y40946237D01*
X-2038148Y41012252D01*
X-2038108Y41018818D01*
X-2032978Y41071782D01*
X-1899901Y41071782D01*
X-1898330Y41060797D01*
X-1890262Y41053227D01*
X-1871033Y41049025D01*
X-1835981Y41047217D01*
X-1780446Y41046831D01*
X-1749571Y41047232D01*
X-1703998Y41049571D01*
X-1672652Y41053535D01*
X-1660990Y41058587D01*
X-1670936Y41100173D01*
X-1700053Y41138987D01*
X-1742048Y41165914D01*
X-1790560Y41175228D01*
X-1826277Y41164728D01*
X-1861980Y41139060D01*
X-1889121Y41105619D01*
X-1899901Y41071782D01*
X-2032978Y41071782D01*
X-2030242Y41100035D01*
X-2007345Y41166105D01*
X-1967393Y41223060D01*
X-1943021Y41247152D01*
X-1892685Y41279403D01*
X-1832581Y41295030D01*
X-1756662Y41296129D01*
X-1719990Y41291821D01*
X-1652297Y41269451D01*
X-1600470Y41228737D01*
X-1564055Y41169051D01*
X-1542599Y41089764D01*
X-1540421Y41058587D01*
X-1535647Y40990247D01*
X-1537282Y40943308D01*
G37*
X-1537282Y40943308D02*
X-1552173Y40853541D01*
X-1582815Y40782955D01*
X-1629476Y40731048D01*
X-1692426Y40697314D01*
X-1712765Y40691353D01*
X-1785388Y40683029D01*
X-1862072Y40690054D01*
X-1931337Y40711735D01*
X-1955738Y40724041D01*
X-1990725Y40745121D01*
X-2011928Y40762466D01*
X-2015058Y40766429D01*
X-2020915Y40780923D01*
X-2012476Y40796679D01*
X-1986779Y40820540D01*
X-1974378Y40830928D01*
X-1949948Y40849937D01*
X-1937139Y40857707D01*
X-1933470Y40856906D01*
X-1912439Y40848255D01*
X-1881040Y40833069D01*
X-1870803Y40828074D01*
X-1810410Y40809525D01*
X-1757943Y40814306D01*
X-1711935Y40842500D01*
X-1706581Y40847709D01*
X-1680987Y40880341D01*
X-1666363Y40911658D01*
X-1658264Y40946237D01*
X-2038218Y40946237D01*
X-2038148Y41012252D01*
X-2038108Y41018818D01*
X-2032978Y41071782D01*
X-1899901Y41071782D01*
X-1898330Y41060797D01*
X-1890262Y41053227D01*
X-1871033Y41049025D01*
X-1835981Y41047217D01*
X-1780446Y41046831D01*
X-1749571Y41047232D01*
X-1703998Y41049571D01*
X-1672652Y41053535D01*
X-1660990Y41058587D01*
X-1670936Y41100173D01*
X-1700053Y41138987D01*
X-1742048Y41165914D01*
X-1790560Y41175228D01*
X-1826277Y41164728D01*
X-1861980Y41139060D01*
X-1889121Y41105619D01*
X-1899901Y41071782D01*
X-2032978Y41071782D01*
X-2030242Y41100035D01*
X-2007345Y41166105D01*
X-1967393Y41223060D01*
X-1943021Y41247152D01*
X-1892685Y41279403D01*
X-1832581Y41295030D01*
X-1756662Y41296129D01*
X-1719990Y41291821D01*
X-1652297Y41269451D01*
X-1600470Y41228737D01*
X-1564055Y41169051D01*
X-1542599Y41089764D01*
X-1540421Y41058587D01*
X-1535647Y40990247D01*
X-1537282Y40943308D01*
%TD*%
M02*
