%TF.GenerationSoftware,KiCad,Pcbnew,6.0.4-6f826c9f35~116~ubuntu18.04.1*%
%TF.CreationDate,2022-04-03T22:47:15+02:00*%
%TF.ProjectId,AE01.07.50.100,41453031-2e30-4372-9e35-302e3130302e,V1R0*%
%TF.SameCoordinates,PX9464480PY76a3180*%
%TF.FileFunction,Copper,L1,Top*%
%TF.FilePolarity,Positive*%
%FSLAX46Y46*%
G04 Gerber Fmt 4.6, Leading zero omitted, Abs format (unit mm)*
G04 Created by KiCad (PCBNEW 6.0.4-6f826c9f35~116~ubuntu18.04.1) date 2022-04-03 22:47:15*
%MOMM*%
%LPD*%
G01*
G04 APERTURE LIST*
%ADD10C,0.100000*%
%ADD11C,0.350000*%
%ADD12C,0.700000*%
%ADD13C,1.050000*%
%ADD14C,0.400000*%
%ADD15C,0.460000*%
%TA.AperFunction,Profile*%
%ADD16C,0.050000*%
%TD*%
%TA.AperFunction,ComponentPad*%
%ADD17C,3.000000*%
%TD*%
%TA.AperFunction,ComponentPad*%
%ADD18R,2.600000X2.600000*%
%TD*%
%TA.AperFunction,ComponentPad*%
%ADD19C,2.600000*%
%TD*%
%TA.AperFunction,ComponentPad*%
%ADD20R,3.000000X3.000000*%
%TD*%
%TA.AperFunction,ComponentPad*%
%ADD21C,2.400000*%
%TD*%
%TA.AperFunction,ComponentPad*%
%ADD22C,2.000000*%
%TD*%
%TA.AperFunction,ComponentPad*%
%ADD23R,2.000000X2.300000*%
%TD*%
%TA.AperFunction,ComponentPad*%
%ADD24C,2.300000*%
%TD*%
%TA.AperFunction,ComponentPad*%
%ADD25R,1.700000X1.700000*%
%TD*%
%TA.AperFunction,ComponentPad*%
%ADD26O,1.700000X1.700000*%
%TD*%
%TA.AperFunction,ComponentPad*%
%ADD27R,1.600000X1.600000*%
%TD*%
%TA.AperFunction,ComponentPad*%
%ADD28C,1.600000*%
%TD*%
%TA.AperFunction,ComponentPad*%
%ADD29C,1.800000*%
%TD*%
%TA.AperFunction,ComponentPad*%
%ADD30O,2.400000X2.400000*%
%TD*%
%TA.AperFunction,ComponentPad*%
%ADD31C,0.800000*%
%TD*%
%TA.AperFunction,ComponentPad*%
%ADD32C,6.400000*%
%TD*%
%TA.AperFunction,ComponentPad*%
%ADD33O,2.600000X2.600000*%
%TD*%
G04 APERTURE END LIST*
D10*
D11*
X-8597800Y114400000D02*
X-8597800Y78400000D01*
D10*
D11*
X1402200Y108400000D02*
X1402200Y78400000D01*
D10*
D11*
X11402200Y108400000D02*
X11402200Y78400000D01*
D10*
D11*
X81402200Y108400000D02*
X81402200Y78400000D01*
D10*
D11*
X106402200Y108400000D02*
X106402200Y78400000D01*
D10*
D11*
X131402200Y114400000D02*
X131402200Y64400000D01*
D10*
D11*
X131402200Y114400000D02*
X-8597800Y114400000D01*
D10*
D11*
X131402200Y108400000D02*
X-8597800Y108400000D01*
D10*
D11*
X131402200Y102400000D02*
X-8597800Y102400000D01*
D10*
D11*
X131402200Y96400000D02*
X-8597800Y96400000D01*
D10*
D11*
X131402200Y90400000D02*
X-8597800Y90400000D01*
D10*
D11*
X131402200Y84400000D02*
X-8597800Y84400000D01*
D10*
D11*
X131402200Y78400000D02*
X-8597800Y78400000D01*
D10*
D11*
X46342676Y110269048D02*
X45509342Y111459524D01*
X44914104Y110269048D02*
X44914104Y112769048D01*
X45866485Y112769048D01*
X46104580Y112650000D01*
X46223628Y112530953D01*
X46342676Y112292858D01*
X46342676Y111935715D01*
X46223628Y111697620D01*
X46104580Y111578572D01*
X45866485Y111459524D01*
X44914104Y111459524D01*
X47414104Y111578572D02*
X48247438Y111578572D01*
X48604580Y110269048D02*
X47414104Y110269048D01*
X47414104Y112769048D01*
X48604580Y112769048D01*
X49318866Y112769048D02*
X50152200Y110269048D01*
X50985533Y112769048D01*
X51818866Y110269048D02*
X51818866Y112769048D01*
X52890295Y110388096D02*
X53247438Y110269048D01*
X53842676Y110269048D01*
X54080771Y110388096D01*
X54199819Y110507143D01*
X54318866Y110745239D01*
X54318866Y110983334D01*
X54199819Y111221429D01*
X54080771Y111340477D01*
X53842676Y111459524D01*
X53366485Y111578572D01*
X53128390Y111697620D01*
X53009342Y111816667D01*
X52890295Y112054762D01*
X52890295Y112292858D01*
X53009342Y112530953D01*
X53128390Y112650000D01*
X53366485Y112769048D01*
X53961723Y112769048D01*
X54318866Y112650000D01*
X55390295Y110269048D02*
X55390295Y112769048D01*
X57056961Y112769048D02*
X57533152Y112769048D01*
X57771247Y112650000D01*
X58009342Y112411905D01*
X58128390Y111935715D01*
X58128390Y111102381D01*
X58009342Y110626191D01*
X57771247Y110388096D01*
X57533152Y110269048D01*
X57056961Y110269048D01*
X56818866Y110388096D01*
X56580771Y110626191D01*
X56461723Y111102381D01*
X56461723Y111935715D01*
X56580771Y112411905D01*
X56818866Y112650000D01*
X57056961Y112769048D01*
X59199819Y110269048D02*
X59199819Y112769048D01*
X60628390Y110269048D01*
X60628390Y112769048D01*
X63723628Y110269048D02*
X63723628Y112769048D01*
X63723628Y111578572D02*
X65152200Y111578572D01*
X65152200Y110269048D02*
X65152200Y112769048D01*
X66342676Y110269048D02*
X66342676Y112769048D01*
X67414104Y110388096D02*
X67771247Y110269048D01*
X68366485Y110269048D01*
X68604580Y110388096D01*
X68723628Y110507143D01*
X68842676Y110745239D01*
X68842676Y110983334D01*
X68723628Y111221429D01*
X68604580Y111340477D01*
X68366485Y111459524D01*
X67890295Y111578572D01*
X67652200Y111697620D01*
X67533152Y111816667D01*
X67414104Y112054762D01*
X67414104Y112292858D01*
X67533152Y112530953D01*
X67652200Y112650000D01*
X67890295Y112769048D01*
X68485533Y112769048D01*
X68842676Y112650000D01*
X69556961Y112769048D02*
X70985533Y112769048D01*
X70271247Y110269048D02*
X70271247Y112769048D01*
X72295057Y112769048D02*
X72771247Y112769048D01*
X73009342Y112650000D01*
X73247438Y112411905D01*
X73366485Y111935715D01*
X73366485Y111102381D01*
X73247438Y110626191D01*
X73009342Y110388096D01*
X72771247Y110269048D01*
X72295057Y110269048D01*
X72056961Y110388096D01*
X71818866Y110626191D01*
X71699819Y111102381D01*
X71699819Y111935715D01*
X71818866Y112411905D01*
X72056961Y112650000D01*
X72295057Y112769048D01*
X75866485Y110269048D02*
X75033152Y111459524D01*
X74437914Y110269048D02*
X74437914Y112769048D01*
X75390295Y112769048D01*
X75628390Y112650000D01*
X75747438Y112530953D01*
X75866485Y112292858D01*
X75866485Y111935715D01*
X75747438Y111697620D01*
X75628390Y111578572D01*
X75390295Y111459524D01*
X74437914Y111459524D01*
X77414104Y111459524D02*
X77414104Y110269048D01*
X76580771Y112769048D02*
X77414104Y111459524D01*
X78247438Y112769048D01*
D10*
D11*
X-8181134Y106769048D02*
X-6514467Y106769048D01*
X-8181134Y104269048D01*
X-6514467Y104269048D01*
X-5085896Y106769048D02*
X-4609705Y106769048D01*
X-4371610Y106650000D01*
X-4133515Y106411905D01*
X-4014467Y105935715D01*
X-4014467Y105102381D01*
X-4133515Y104626191D01*
X-4371610Y104388096D01*
X-4609705Y104269048D01*
X-5085896Y104269048D01*
X-5323991Y104388096D01*
X-5562086Y104626191D01*
X-5681134Y105102381D01*
X-5681134Y105935715D01*
X-5562086Y106411905D01*
X-5323991Y106650000D01*
X-5085896Y106769048D01*
X-2943039Y104269048D02*
X-2943039Y106769048D01*
X-1514467Y104269048D01*
X-1514467Y106769048D01*
X-323991Y105578572D02*
X509342Y105578572D01*
X866485Y104269048D02*
X-323991Y104269048D01*
X-323991Y106769048D01*
X866485Y106769048D01*
D10*
D11*
X4973628Y104269048D02*
X4140295Y105459524D01*
X3545057Y104269048D02*
X3545057Y106769048D01*
X4497438Y106769048D01*
X4735533Y106650000D01*
X4854580Y106530953D01*
X4973628Y106292858D01*
X4973628Y105935715D01*
X4854580Y105697620D01*
X4735533Y105578572D01*
X4497438Y105459524D01*
X3545057Y105459524D01*
X6045057Y105578572D02*
X6878390Y105578572D01*
X7235533Y104269048D02*
X6045057Y104269048D01*
X6045057Y106769048D01*
X7235533Y106769048D01*
X7949819Y106769048D02*
X8783152Y104269048D01*
X9616485Y106769048D01*
D10*
D11*
X34914104Y104269048D02*
X34914104Y106769048D01*
X35509342Y106769048D01*
X35866485Y106650000D01*
X36104580Y106411905D01*
X36223628Y106173810D01*
X36342676Y105697620D01*
X36342676Y105340477D01*
X36223628Y104864286D01*
X36104580Y104626191D01*
X35866485Y104388096D01*
X35509342Y104269048D01*
X34914104Y104269048D01*
X37414104Y105578572D02*
X38247438Y105578572D01*
X38604580Y104269048D02*
X37414104Y104269048D01*
X37414104Y106769048D01*
X38604580Y106769048D01*
X39556961Y104388096D02*
X39914104Y104269048D01*
X40509342Y104269048D01*
X40747438Y104388096D01*
X40866485Y104507143D01*
X40985533Y104745239D01*
X40985533Y104983334D01*
X40866485Y105221429D01*
X40747438Y105340477D01*
X40509342Y105459524D01*
X40033152Y105578572D01*
X39795057Y105697620D01*
X39676009Y105816667D01*
X39556961Y106054762D01*
X39556961Y106292858D01*
X39676009Y106530953D01*
X39795057Y106650000D01*
X40033152Y106769048D01*
X40628390Y106769048D01*
X40985533Y106650000D01*
X43485533Y104507143D02*
X43366485Y104388096D01*
X43009342Y104269048D01*
X42771247Y104269048D01*
X42414104Y104388096D01*
X42176009Y104626191D01*
X42056961Y104864286D01*
X41937914Y105340477D01*
X41937914Y105697620D01*
X42056961Y106173810D01*
X42176009Y106411905D01*
X42414104Y106650000D01*
X42771247Y106769048D01*
X43009342Y106769048D01*
X43366485Y106650000D01*
X43485533Y106530953D01*
X45985533Y104269048D02*
X45152200Y105459524D01*
X44556961Y104269048D02*
X44556961Y106769048D01*
X45509342Y106769048D01*
X45747438Y106650000D01*
X45866485Y106530953D01*
X45985533Y106292858D01*
X45985533Y105935715D01*
X45866485Y105697620D01*
X45747438Y105578572D01*
X45509342Y105459524D01*
X44556961Y105459524D01*
X47056961Y104269048D02*
X47056961Y106769048D01*
X48247438Y104269048D02*
X48247438Y106769048D01*
X49199819Y106769048D01*
X49437914Y106650000D01*
X49556961Y106530953D01*
X49676009Y106292858D01*
X49676009Y105935715D01*
X49556961Y105697620D01*
X49437914Y105578572D01*
X49199819Y105459524D01*
X48247438Y105459524D01*
X50390295Y106769048D02*
X51818866Y106769048D01*
X51104580Y104269048D02*
X51104580Y106769048D01*
X52652200Y104269048D02*
X52652200Y106769048D01*
X54318866Y106769048D02*
X54795057Y106769048D01*
X55033152Y106650000D01*
X55271247Y106411905D01*
X55390295Y105935715D01*
X55390295Y105102381D01*
X55271247Y104626191D01*
X55033152Y104388096D01*
X54795057Y104269048D01*
X54318866Y104269048D01*
X54080771Y104388096D01*
X53842676Y104626191D01*
X53723628Y105102381D01*
X53723628Y105935715D01*
X53842676Y106411905D01*
X54080771Y106650000D01*
X54318866Y106769048D01*
X56461723Y104269048D02*
X56461723Y106769048D01*
X57890295Y104269048D01*
X57890295Y106769048D01*
D10*
D11*
X109795057Y104983334D02*
X110985533Y104983334D01*
X109556961Y104269048D02*
X110390295Y106769048D01*
X111223628Y104269048D01*
X112056961Y104269048D02*
X112056961Y106769048D01*
X113009342Y106769048D01*
X113247438Y106650000D01*
X113366485Y106530953D01*
X113485533Y106292858D01*
X113485533Y105935715D01*
X113366485Y105697620D01*
X113247438Y105578572D01*
X113009342Y105459524D01*
X112056961Y105459524D01*
X114556961Y104269048D02*
X114556961Y106769048D01*
X115509342Y106769048D01*
X115747438Y106650000D01*
X115866485Y106530953D01*
X115985533Y106292858D01*
X115985533Y105935715D01*
X115866485Y105697620D01*
X115747438Y105578572D01*
X115509342Y105459524D01*
X114556961Y105459524D01*
X118485533Y104269048D02*
X117652200Y105459524D01*
X117056961Y104269048D02*
X117056961Y106769048D01*
X118009342Y106769048D01*
X118247438Y106650000D01*
X118366485Y106530953D01*
X118485533Y106292858D01*
X118485533Y105935715D01*
X118366485Y105697620D01*
X118247438Y105578572D01*
X118009342Y105459524D01*
X117056961Y105459524D01*
X120033152Y106769048D02*
X120509342Y106769048D01*
X120747438Y106650000D01*
X120985533Y106411905D01*
X121104580Y105935715D01*
X121104580Y105102381D01*
X120985533Y104626191D01*
X120747438Y104388096D01*
X120509342Y104269048D01*
X120033152Y104269048D01*
X119795057Y104388096D01*
X119556961Y104626191D01*
X119437914Y105102381D01*
X119437914Y105935715D01*
X119556961Y106411905D01*
X119795057Y106650000D01*
X120033152Y106769048D01*
X121818866Y106769048D02*
X122652200Y104269048D01*
X123485533Y106769048D01*
X124318866Y105578572D02*
X125152200Y105578572D01*
X125509342Y104269048D02*
X124318866Y104269048D01*
X124318866Y106769048D01*
X125509342Y106769048D01*
X126580771Y104269048D02*
X126580771Y106769048D01*
X127176009Y106769048D01*
X127533152Y106650000D01*
X127771247Y106411905D01*
X127890295Y106173810D01*
X128009342Y105697620D01*
X128009342Y105340477D01*
X127890295Y104864286D01*
X127771247Y104626191D01*
X127533152Y104388096D01*
X127176009Y104269048D01*
X126580771Y104269048D01*
D10*
D11*
X90092676Y104269048D02*
X90092676Y106769048D01*
X90687914Y106769048D01*
X91045057Y106650000D01*
X91283152Y106411905D01*
X91402200Y106173810D01*
X91521247Y105697620D01*
X91521247Y105340477D01*
X91402200Y104864286D01*
X91283152Y104626191D01*
X91045057Y104388096D01*
X90687914Y104269048D01*
X90092676Y104269048D01*
X92473628Y104983334D02*
X93664104Y104983334D01*
X92235533Y104269048D02*
X93068866Y106769048D01*
X93902200Y104269048D01*
X94378390Y106769048D02*
X95806961Y106769048D01*
X95092676Y104269048D02*
X95092676Y106769048D01*
X96640295Y105578572D02*
X97473628Y105578572D01*
X97830771Y104269048D02*
X96640295Y104269048D01*
X96640295Y106769048D01*
X97830771Y106769048D01*
D10*
D11*
X-140600000Y119400000D02*
X-140600000Y-80607200D01*
X136402200Y-80607200D01*
X136402200Y119400000D01*
X-140600000Y119400000D01*
D10*
D12*
X-135600000Y114400000D02*
X-135600000Y-75607200D01*
X131402200Y-75607200D01*
X131402200Y114400000D01*
X-135600000Y114400000D01*
D10*
D13*
X-7100000Y119400000D02*
X-7100000Y114400000D01*
D10*
D13*
X-7100000Y-80607200D02*
X-7100000Y-75607200D01*
D10*
D13*
X-140600000Y19400000D02*
X-135600000Y19400000D01*
D10*
D13*
X136402200Y19400000D02*
X131402200Y19400000D01*
D10*
D11*
X-107100000Y119400000D02*
X-107100000Y114400000D01*
D10*
D11*
X-57100000Y119400000D02*
X-57100000Y114400000D01*
D10*
D11*
X-7100000Y119400000D02*
X-7100000Y114400000D01*
D10*
D11*
X42900000Y119400000D02*
X42900000Y114400000D01*
D10*
D11*
X92900000Y119400000D02*
X92900000Y114400000D01*
D10*
D11*
X-107100000Y-80607200D02*
X-107100000Y-75607200D01*
D10*
D11*
X-57100000Y-80607200D02*
X-57100000Y-75607200D01*
D10*
D11*
X-7100000Y-80607200D02*
X-7100000Y-75607200D01*
D10*
D11*
X42900000Y-80607200D02*
X42900000Y-75607200D01*
D10*
D11*
X92900000Y-80607200D02*
X92900000Y-75607200D01*
D10*
D11*
X-140600000Y69400000D02*
X-135600000Y69400000D01*
D10*
D11*
X-140600000Y19400000D02*
X-135600000Y19400000D01*
D10*
D11*
X-140600000Y-30600000D02*
X-135600000Y-30600000D01*
D10*
D11*
X136402200Y69400000D02*
X131402200Y69400000D01*
D10*
D11*
X136402200Y19400000D02*
X131402200Y19400000D01*
D10*
D11*
X136402200Y-30600000D02*
X131402200Y-30600000D01*
D10*
D11*
X-131100000Y115316667D02*
X-133100000Y115316667D01*
X-132100000Y115316667D02*
X-132100000Y118816667D01*
X-132433334Y118316667D01*
X-132766667Y117983334D01*
X-133100000Y117816667D01*
D10*
D11*
X-83100000Y118483334D02*
X-82933334Y118650000D01*
X-82600000Y118816667D01*
X-81766667Y118816667D01*
X-81433334Y118650000D01*
X-81266667Y118483334D01*
X-81100000Y118150000D01*
X-81100000Y117816667D01*
X-81266667Y117316667D01*
X-83266667Y115316667D01*
X-81100000Y115316667D01*
D10*
D11*
X-33266667Y118816667D02*
X-31100000Y118816667D01*
X-32266667Y117483334D01*
X-31766667Y117483334D01*
X-31433334Y117316667D01*
X-31266667Y117150000D01*
X-31100000Y116816667D01*
X-31100000Y115983334D01*
X-31266667Y115650000D01*
X-31433334Y115483334D01*
X-31766667Y115316667D01*
X-32766667Y115316667D01*
X-33100000Y115483334D01*
X-33266667Y115650000D01*
D10*
D11*
X18566666Y117650000D02*
X18566666Y115316667D01*
X17733333Y118983334D02*
X16900000Y116483334D01*
X19066666Y116483334D01*
D10*
D11*
X68733333Y118816667D02*
X67066666Y118816667D01*
X66900000Y117150000D01*
X67066666Y117316667D01*
X67400000Y117483334D01*
X68233333Y117483334D01*
X68566666Y117316667D01*
X68733333Y117150000D01*
X68900000Y116816667D01*
X68900000Y115983334D01*
X68733333Y115650000D01*
X68566666Y115483334D01*
X68233333Y115316667D01*
X67400000Y115316667D01*
X67066666Y115483334D01*
X66900000Y115650000D01*
D10*
D11*
X118566666Y118816667D02*
X117900000Y118816667D01*
X117566666Y118650000D01*
X117400000Y118483334D01*
X117066666Y117983334D01*
X116900000Y117316667D01*
X116900000Y115983334D01*
X117066666Y115650000D01*
X117233333Y115483334D01*
X117566666Y115316667D01*
X118233333Y115316667D01*
X118566666Y115483334D01*
X118733333Y115650000D01*
X118900000Y115983334D01*
X118900000Y116816667D01*
X118733333Y117150000D01*
X118566666Y117316667D01*
X118233333Y117483334D01*
X117566666Y117483334D01*
X117233333Y117316667D01*
X117066666Y117150000D01*
X116900000Y116816667D01*
D10*
D11*
X133068866Y93816667D02*
X134735533Y93816667D01*
X132735533Y92816667D02*
X133902200Y96316667D01*
X135068866Y92816667D01*
D10*
D11*
X134152200Y44650000D02*
X134652200Y44483334D01*
X134818866Y44316667D01*
X134985533Y43983334D01*
X134985533Y43483334D01*
X134818866Y43150000D01*
X134652200Y42983334D01*
X134318866Y42816667D01*
X132985533Y42816667D01*
X132985533Y46316667D01*
X134152200Y46316667D01*
X134485533Y46150000D01*
X134652200Y45983334D01*
X134818866Y45650000D01*
X134818866Y45316667D01*
X134652200Y44983334D01*
X134485533Y44816667D01*
X134152200Y44650000D01*
X132985533Y44650000D01*
D10*
D11*
X134985533Y-6850000D02*
X134818866Y-7016666D01*
X134318866Y-7183333D01*
X133985533Y-7183333D01*
X133485533Y-7016666D01*
X133152200Y-6683333D01*
X132985533Y-6350000D01*
X132818866Y-5683333D01*
X132818866Y-5183333D01*
X132985533Y-4516666D01*
X133152200Y-4183333D01*
X133485533Y-3850000D01*
X133985533Y-3683333D01*
X134318866Y-3683333D01*
X134818866Y-3850000D01*
X134985533Y-4016666D01*
D10*
D11*
X132985533Y-57183333D02*
X132985533Y-53683333D01*
X133818866Y-53683333D01*
X134318866Y-53850000D01*
X134652200Y-54183333D01*
X134818866Y-54516666D01*
X134985533Y-55183333D01*
X134985533Y-55683333D01*
X134818866Y-56350000D01*
X134652200Y-56683333D01*
X134318866Y-57016666D01*
X133818866Y-57183333D01*
X132985533Y-57183333D01*
D10*
G36*
X-155600000Y124400000D02*
G01*
X-145600000Y124400000D01*
X-145600000Y119400000D01*
X-150600000Y119400000D01*
X-150600000Y114400000D01*
X-155600000Y114400000D01*
X-155600000Y124400000D01*
G37*
D11*
X-155600000Y124400000D02*
X-145600000Y124400000D01*
X-145600000Y119400000D01*
X-150600000Y119400000D01*
X-150600000Y114400000D01*
X-155600000Y114400000D01*
X-155600000Y124400000D01*
D10*
G36*
X-155600000Y-85607199D02*
G01*
X-155600000Y-75607199D01*
X-150600000Y-75607199D01*
X-150600000Y-80607199D01*
X-145600000Y-80607199D01*
X-145600000Y-85607199D01*
X-155600000Y-85607199D01*
G37*
D11*
X-155600000Y-85607199D02*
X-155600000Y-75607199D01*
X-150600000Y-75607199D01*
X-150600000Y-80607199D01*
X-145600000Y-80607199D01*
X-145600000Y-85607199D01*
X-155600000Y-85607199D01*
D10*
G36*
X141402200Y124400000D02*
G01*
X141402200Y114400000D01*
X136402200Y114400000D01*
X136402200Y119400000D01*
X131402200Y119400000D01*
X131402200Y124400000D01*
X141402200Y124400000D01*
G37*
D11*
X141402200Y124400000D02*
X141402200Y114400000D01*
X136402200Y114400000D01*
X136402200Y119400000D01*
X131402200Y119400000D01*
X131402200Y124400000D01*
X141402200Y124400000D01*
D10*
G36*
X141402200Y-85607199D02*
G01*
X131402200Y-85607199D01*
X131402200Y-80607199D01*
X136402200Y-80607199D01*
X136402200Y-75607199D01*
X141402200Y-75607199D01*
X141402200Y-85607199D01*
G37*
D11*
X141402200Y-85607199D02*
X131402200Y-85607199D01*
X131402200Y-80607199D01*
X136402200Y-80607199D01*
X136402200Y-75607199D01*
X141402200Y-75607199D01*
X141402200Y-85607199D01*
D10*
D12*
X131402200Y-75607200D02*
X131402200Y-30607200D01*
X-48597800Y-30607200D01*
X-48597800Y-75607200D01*
X131402200Y-75607200D01*
D10*
D11*
X131402200Y-48607200D02*
X-48597800Y-48607200D01*
D10*
D11*
X131402200Y-57607200D02*
X-48597800Y-57607200D01*
D10*
D11*
X131402200Y-66607200D02*
X-48597800Y-66607200D01*
D10*
D11*
X-16597800Y-30607200D02*
X-16597800Y-48607200D01*
D10*
D11*
X25402200Y-30607200D02*
X25402200Y-57607200D01*
D10*
D11*
X67402200Y-30607200D02*
X67402200Y-48607200D01*
D10*
D11*
X80402200Y-57607200D02*
X80402200Y-75607200D01*
D10*
D11*
X98292200Y-66607000D02*
X98292200Y-75607000D01*
D10*
D11*
X122402200Y-66607200D02*
X122402200Y-75607200D01*
D10*
D14*
X-46956848Y-33416723D02*
X-46671134Y-33511961D01*
X-46194943Y-33511961D01*
X-46004467Y-33416723D01*
X-45909229Y-33321485D01*
X-45813991Y-33131009D01*
X-45813991Y-32940533D01*
X-45909229Y-32750057D01*
X-46004467Y-32654819D01*
X-46194943Y-32559580D01*
X-46575896Y-32464342D01*
X-46766372Y-32369104D01*
X-46861610Y-32273866D01*
X-46956848Y-32083390D01*
X-46956848Y-31892914D01*
X-46861610Y-31702438D01*
X-46766372Y-31607200D01*
X-46575896Y-31511961D01*
X-46099705Y-31511961D01*
X-45813991Y-31607200D01*
X-45242562Y-31511961D02*
X-44099705Y-31511961D01*
X-44671134Y-33511961D02*
X-44671134Y-31511961D01*
X-43528277Y-32940533D02*
X-42575896Y-32940533D01*
X-43718753Y-33511961D02*
X-43052086Y-31511961D01*
X-42385420Y-33511961D01*
X-42004467Y-31511961D02*
X-40861610Y-31511961D01*
X-41433039Y-33511961D02*
X-41433039Y-31511961D01*
X-40194943Y-31511961D02*
X-40194943Y-33131009D01*
X-40099705Y-33321485D01*
X-40004467Y-33416723D01*
X-39813991Y-33511961D01*
X-39433039Y-33511961D01*
X-39242562Y-33416723D01*
X-39147324Y-33321485D01*
X-39052086Y-33131009D01*
X-39052086Y-31511961D01*
X-38194943Y-33416723D02*
X-37909229Y-33511961D01*
X-37433039Y-33511961D01*
X-37242562Y-33416723D01*
X-37147324Y-33321485D01*
X-37052086Y-33131009D01*
X-37052086Y-32940533D01*
X-37147324Y-32750057D01*
X-37242562Y-32654819D01*
X-37433039Y-32559580D01*
X-37813991Y-32464342D01*
X-38004467Y-32369104D01*
X-38099705Y-32273866D01*
X-38194943Y-32083390D01*
X-38194943Y-31892914D01*
X-38099705Y-31702438D01*
X-38004467Y-31607200D01*
X-37813991Y-31511961D01*
X-37337800Y-31511961D01*
X-37052086Y-31607200D01*
D10*
D14*
X-15147324Y-31511961D02*
X-14004467Y-31511961D01*
X-14575896Y-33511961D02*
X-14575896Y-31511961D01*
X-13337800Y-32464342D02*
X-12671134Y-32464342D01*
X-12385420Y-33511961D02*
X-13337800Y-33511961D01*
X-13337800Y-31511961D01*
X-12385420Y-31511961D01*
X-10385420Y-33321485D02*
X-10480658Y-33416723D01*
X-10766372Y-33511961D01*
X-10956848Y-33511961D01*
X-11242562Y-33416723D01*
X-11433039Y-33226247D01*
X-11528277Y-33035771D01*
X-11623515Y-32654819D01*
X-11623515Y-32369104D01*
X-11528277Y-31988152D01*
X-11433039Y-31797676D01*
X-11242562Y-31607200D01*
X-10956848Y-31511961D01*
X-10766372Y-31511961D01*
X-10480658Y-31607200D01*
X-10385420Y-31702438D01*
X-9528277Y-33511961D02*
X-9528277Y-31511961D01*
X-9528277Y-32464342D02*
X-8385420Y-32464342D01*
X-8385420Y-33511961D02*
X-8385420Y-31511961D01*
X-7433039Y-33511961D02*
X-7433039Y-31511961D01*
X-6290181Y-33511961D01*
X-6290181Y-31511961D01*
X-5337800Y-33511961D02*
X-5337800Y-31511961D01*
X-3242562Y-33321485D02*
X-3337800Y-33416723D01*
X-3623515Y-33511961D01*
X-3813991Y-33511961D01*
X-4099705Y-33416723D01*
X-4290181Y-33226247D01*
X-4385420Y-33035771D01*
X-4480658Y-32654819D01*
X-4480658Y-32369104D01*
X-4385420Y-31988152D01*
X-4290181Y-31797676D01*
X-4099705Y-31607200D01*
X-3813991Y-31511961D01*
X-3623515Y-31511961D01*
X-3337800Y-31607200D01*
X-3242562Y-31702438D01*
X-2480658Y-32940533D02*
X-1528277Y-32940533D01*
X-2671134Y-33511961D02*
X-2004467Y-31511961D01*
X-1337800Y-33511961D01*
X281247Y-33511961D02*
X-671134Y-33511961D01*
X-671134Y-31511961D01*
X3614580Y-33511961D02*
X2947914Y-32559580D01*
X2471723Y-33511961D02*
X2471723Y-31511961D01*
X3233628Y-31511961D01*
X3424104Y-31607200D01*
X3519342Y-31702438D01*
X3614580Y-31892914D01*
X3614580Y-32178628D01*
X3519342Y-32369104D01*
X3424104Y-32464342D01*
X3233628Y-32559580D01*
X2471723Y-32559580D01*
X4471723Y-32464342D02*
X5138390Y-32464342D01*
X5424104Y-33511961D02*
X4471723Y-33511961D01*
X4471723Y-31511961D01*
X5424104Y-31511961D01*
X6947914Y-32464342D02*
X6281247Y-32464342D01*
X6281247Y-33511961D02*
X6281247Y-31511961D01*
X7233628Y-31511961D01*
X7995533Y-32464342D02*
X8662200Y-32464342D01*
X8947914Y-33511961D02*
X7995533Y-33511961D01*
X7995533Y-31511961D01*
X8947914Y-31511961D01*
X10947914Y-33511961D02*
X10281247Y-32559580D01*
X9805057Y-33511961D02*
X9805057Y-31511961D01*
X10566961Y-31511961D01*
X10757438Y-31607200D01*
X10852676Y-31702438D01*
X10947914Y-31892914D01*
X10947914Y-32178628D01*
X10852676Y-32369104D01*
X10757438Y-32464342D01*
X10566961Y-32559580D01*
X9805057Y-32559580D01*
X11805057Y-32464342D02*
X12471723Y-32464342D01*
X12757438Y-33511961D02*
X11805057Y-33511961D01*
X11805057Y-31511961D01*
X12757438Y-31511961D01*
X13614580Y-33511961D02*
X13614580Y-31511961D01*
X14757438Y-33511961D01*
X14757438Y-31511961D01*
X16852676Y-33321485D02*
X16757438Y-33416723D01*
X16471723Y-33511961D01*
X16281247Y-33511961D01*
X15995533Y-33416723D01*
X15805057Y-33226247D01*
X15709819Y-33035771D01*
X15614580Y-32654819D01*
X15614580Y-32369104D01*
X15709819Y-31988152D01*
X15805057Y-31797676D01*
X15995533Y-31607200D01*
X16281247Y-31511961D01*
X16471723Y-31511961D01*
X16757438Y-31607200D01*
X16852676Y-31702438D01*
X17709819Y-32464342D02*
X18376485Y-32464342D01*
X18662200Y-33511961D02*
X17709819Y-33511961D01*
X17709819Y-31511961D01*
X18662200Y-31511961D01*
D10*
D14*
X27043152Y-33416723D02*
X27328866Y-33511961D01*
X27805057Y-33511961D01*
X27995533Y-33416723D01*
X28090771Y-33321485D01*
X28186009Y-33131009D01*
X28186009Y-32940533D01*
X28090771Y-32750057D01*
X27995533Y-32654819D01*
X27805057Y-32559580D01*
X27424104Y-32464342D01*
X27233628Y-32369104D01*
X27138390Y-32273866D01*
X27043152Y-32083390D01*
X27043152Y-31892914D01*
X27138390Y-31702438D01*
X27233628Y-31607200D01*
X27424104Y-31511961D01*
X27900295Y-31511961D01*
X28186009Y-31607200D01*
X28757438Y-31511961D02*
X29900295Y-31511961D01*
X29328866Y-33511961D02*
X29328866Y-31511961D01*
X30471723Y-32940533D02*
X31424104Y-32940533D01*
X30281247Y-33511961D02*
X30947914Y-31511961D01*
X31614580Y-33511961D01*
X32281247Y-33511961D02*
X32281247Y-31511961D01*
X33424104Y-33511961D01*
X33424104Y-31511961D01*
X34376485Y-33511961D02*
X34376485Y-31511961D01*
X34852676Y-31511961D01*
X35138390Y-31607200D01*
X35328866Y-31797676D01*
X35424104Y-31988152D01*
X35519342Y-32369104D01*
X35519342Y-32654819D01*
X35424104Y-33035771D01*
X35328866Y-33226247D01*
X35138390Y-33416723D01*
X34852676Y-33511961D01*
X34376485Y-33511961D01*
X36281247Y-32940533D02*
X37233628Y-32940533D01*
X36090771Y-33511961D02*
X36757438Y-31511961D01*
X37424104Y-33511961D01*
X39233628Y-33511961D02*
X38566961Y-32559580D01*
X38090771Y-33511961D02*
X38090771Y-31511961D01*
X38852676Y-31511961D01*
X39043152Y-31607200D01*
X39138390Y-31702438D01*
X39233628Y-31892914D01*
X39233628Y-32178628D01*
X39138390Y-32369104D01*
X39043152Y-32464342D01*
X38852676Y-32559580D01*
X38090771Y-32559580D01*
X40090771Y-33511961D02*
X40090771Y-31511961D01*
X40566961Y-31511961D01*
X40852676Y-31607200D01*
X41043152Y-31797676D01*
X41138390Y-31988152D01*
X41233628Y-32369104D01*
X41233628Y-32654819D01*
X41138390Y-33035771D01*
X41043152Y-33226247D01*
X40852676Y-33416723D01*
X40566961Y-33511961D01*
X40090771Y-33511961D01*
D10*
D14*
X70090771Y-33511961D02*
X69138390Y-33511961D01*
X69138390Y-31511961D01*
X70757438Y-33511961D02*
X70757438Y-31511961D01*
X72852676Y-33321485D02*
X72757438Y-33416723D01*
X72471723Y-33511961D01*
X72281247Y-33511961D01*
X71995533Y-33416723D01*
X71805057Y-33226247D01*
X71709819Y-33035771D01*
X71614580Y-32654819D01*
X71614580Y-32369104D01*
X71709819Y-31988152D01*
X71805057Y-31797676D01*
X71995533Y-31607200D01*
X72281247Y-31511961D01*
X72471723Y-31511961D01*
X72757438Y-31607200D01*
X72852676Y-31702438D01*
X73709819Y-32464342D02*
X74376485Y-32464342D01*
X74662200Y-33511961D02*
X73709819Y-33511961D01*
X73709819Y-31511961D01*
X74662200Y-31511961D01*
X75519342Y-33511961D02*
X75519342Y-31511961D01*
X76662200Y-33511961D01*
X76662200Y-31511961D01*
X77519342Y-33416723D02*
X77805057Y-33511961D01*
X78281247Y-33511961D01*
X78471723Y-33416723D01*
X78566961Y-33321485D01*
X78662200Y-33131009D01*
X78662200Y-32940533D01*
X78566961Y-32750057D01*
X78471723Y-32654819D01*
X78281247Y-32559580D01*
X77900295Y-32464342D01*
X77709819Y-32369104D01*
X77614580Y-32273866D01*
X77519342Y-32083390D01*
X77519342Y-31892914D01*
X77614580Y-31702438D01*
X77709819Y-31607200D01*
X77900295Y-31511961D01*
X78376485Y-31511961D01*
X78662200Y-31607200D01*
X79519342Y-32464342D02*
X80186009Y-32464342D01*
X80471723Y-33511961D02*
X79519342Y-33511961D01*
X79519342Y-31511961D01*
X80471723Y-31511961D01*
D10*
D14*
X27043152Y-41940533D02*
X27995533Y-41940533D01*
X26852676Y-42511961D02*
X27519342Y-40511961D01*
X28186009Y-42511961D01*
X28757438Y-42416723D02*
X29043152Y-42511961D01*
X29519342Y-42511961D01*
X29709819Y-42416723D01*
X29805057Y-42321485D01*
X29900295Y-42131009D01*
X29900295Y-41940533D01*
X29805057Y-41750057D01*
X29709819Y-41654819D01*
X29519342Y-41559580D01*
X29138390Y-41464342D01*
X28947914Y-41369104D01*
X28852676Y-41273866D01*
X28757438Y-41083390D01*
X28757438Y-40892914D01*
X28852676Y-40702438D01*
X28947914Y-40607200D01*
X29138390Y-40511961D01*
X29614580Y-40511961D01*
X29900295Y-40607200D01*
X30662200Y-42416723D02*
X30947914Y-42511961D01*
X31424104Y-42511961D01*
X31614580Y-42416723D01*
X31709819Y-42321485D01*
X31805057Y-42131009D01*
X31805057Y-41940533D01*
X31709819Y-41750057D01*
X31614580Y-41654819D01*
X31424104Y-41559580D01*
X31043152Y-41464342D01*
X30852676Y-41369104D01*
X30757438Y-41273866D01*
X30662200Y-41083390D01*
X30662200Y-40892914D01*
X30757438Y-40702438D01*
X30852676Y-40607200D01*
X31043152Y-40511961D01*
X31519342Y-40511961D01*
X31805057Y-40607200D01*
X32662200Y-41464342D02*
X33328866Y-41464342D01*
X33614580Y-42511961D02*
X32662200Y-42511961D01*
X32662200Y-40511961D01*
X33614580Y-40511961D01*
X34471723Y-42511961D02*
X34471723Y-40511961D01*
X35138390Y-41940533D01*
X35805057Y-40511961D01*
X35805057Y-42511961D01*
X37424104Y-41464342D02*
X37709819Y-41559580D01*
X37805057Y-41654819D01*
X37900295Y-41845295D01*
X37900295Y-42131009D01*
X37805057Y-42321485D01*
X37709819Y-42416723D01*
X37519342Y-42511961D01*
X36757438Y-42511961D01*
X36757438Y-40511961D01*
X37424104Y-40511961D01*
X37614580Y-40607200D01*
X37709819Y-40702438D01*
X37805057Y-40892914D01*
X37805057Y-41083390D01*
X37709819Y-41273866D01*
X37614580Y-41369104D01*
X37424104Y-41464342D01*
X36757438Y-41464342D01*
X39709819Y-42511961D02*
X38757438Y-42511961D01*
X38757438Y-40511961D01*
X40757438Y-41559580D02*
X40757438Y-42511961D01*
X40090771Y-40511961D02*
X40757438Y-41559580D01*
X41424104Y-40511961D01*
X43614580Y-42511961D02*
X43614580Y-40511961D01*
X44757438Y-42511961D01*
X44757438Y-40511961D01*
X45709819Y-40511961D02*
X45709819Y-42131009D01*
X45805057Y-42321485D01*
X45900295Y-42416723D01*
X46090771Y-42511961D01*
X46471723Y-42511961D01*
X46662200Y-42416723D01*
X46757438Y-42321485D01*
X46852676Y-42131009D01*
X46852676Y-40511961D01*
X47805057Y-42511961D02*
X47805057Y-40511961D01*
X48471723Y-41940533D01*
X49138390Y-40511961D01*
X49138390Y-42511961D01*
X50757438Y-41464342D02*
X51043152Y-41559580D01*
X51138390Y-41654819D01*
X51233628Y-41845295D01*
X51233628Y-42131009D01*
X51138390Y-42321485D01*
X51043152Y-42416723D01*
X50852676Y-42511961D01*
X50090771Y-42511961D01*
X50090771Y-40511961D01*
X50757438Y-40511961D01*
X50947914Y-40607200D01*
X51043152Y-40702438D01*
X51138390Y-40892914D01*
X51138390Y-41083390D01*
X51043152Y-41273866D01*
X50947914Y-41369104D01*
X50757438Y-41464342D01*
X50090771Y-41464342D01*
X52090771Y-41464342D02*
X52757438Y-41464342D01*
X53043152Y-42511961D02*
X52090771Y-42511961D01*
X52090771Y-40511961D01*
X53043152Y-40511961D01*
X55043152Y-42511961D02*
X54376485Y-41559580D01*
X53900295Y-42511961D02*
X53900295Y-40511961D01*
X54662200Y-40511961D01*
X54852676Y-40607200D01*
X54947914Y-40702438D01*
X55043152Y-40892914D01*
X55043152Y-41178628D01*
X54947914Y-41369104D01*
X54852676Y-41464342D01*
X54662200Y-41559580D01*
X53900295Y-41559580D01*
D10*
D14*
X69138390Y-42511961D02*
X69138390Y-40511961D01*
X70090771Y-42511961D02*
X70090771Y-40511961D01*
X70566961Y-40511961D01*
X70852676Y-40607200D01*
X71043152Y-40797676D01*
X71138390Y-40988152D01*
X71233628Y-41369104D01*
X71233628Y-41654819D01*
X71138390Y-42035771D01*
X71043152Y-42226247D01*
X70852676Y-42416723D01*
X70566961Y-42511961D01*
X70090771Y-42511961D01*
D10*
D14*
X81852676Y-67511961D02*
X82519342Y-69511961D01*
X83186009Y-67511961D01*
X83852676Y-68464342D02*
X84519342Y-68464342D01*
X84805057Y-69511961D02*
X83852676Y-69511961D01*
X83852676Y-67511961D01*
X84805057Y-67511961D01*
X86805057Y-69511961D02*
X86138390Y-68559580D01*
X85662200Y-69511961D02*
X85662200Y-67511961D01*
X86424104Y-67511961D01*
X86614580Y-67607200D01*
X86709819Y-67702438D01*
X86805057Y-67892914D01*
X86805057Y-68178628D01*
X86709819Y-68369104D01*
X86614580Y-68464342D01*
X86424104Y-68559580D01*
X85662200Y-68559580D01*
X87662200Y-69321485D02*
X87757438Y-69416723D01*
X87662200Y-69511961D01*
X87566961Y-69416723D01*
X87662200Y-69321485D01*
X87662200Y-69511961D01*
X90043152Y-67416723D02*
X88328866Y-69988152D01*
X91852676Y-69511961D02*
X91186009Y-68559580D01*
X90709819Y-69511961D02*
X90709819Y-67511961D01*
X91471723Y-67511961D01*
X91662200Y-67607200D01*
X91757438Y-67702438D01*
X91852676Y-67892914D01*
X91852676Y-68178628D01*
X91757438Y-68369104D01*
X91662200Y-68464342D01*
X91471723Y-68559580D01*
X90709819Y-68559580D01*
X92709819Y-68464342D02*
X93376485Y-68464342D01*
X93662200Y-69511961D02*
X92709819Y-69511961D01*
X92709819Y-67511961D01*
X93662200Y-67511961D01*
X94233628Y-67511961D02*
X94900295Y-69511961D01*
X95566961Y-67511961D01*
X96233628Y-69321485D02*
X96328866Y-69416723D01*
X96233628Y-69511961D01*
X96138390Y-69416723D01*
X96233628Y-69321485D01*
X96233628Y-69511961D01*
D10*
D14*
X99138390Y-69511961D02*
X99138390Y-67511961D01*
X99614580Y-67511961D01*
X99900295Y-67607200D01*
X100090771Y-67797676D01*
X100186009Y-67988152D01*
X100281247Y-68369104D01*
X100281247Y-68654819D01*
X100186009Y-69035771D01*
X100090771Y-69226247D01*
X99900295Y-69416723D01*
X99614580Y-69511961D01*
X99138390Y-69511961D01*
X101043152Y-68940533D02*
X101995533Y-68940533D01*
X100852676Y-69511961D02*
X101519342Y-67511961D01*
X102186009Y-69511961D01*
X102566961Y-67511961D02*
X103709819Y-67511961D01*
X103138390Y-69511961D02*
X103138390Y-67511961D01*
X104376485Y-68464342D02*
X105043152Y-68464342D01*
X105328866Y-69511961D02*
X104376485Y-69511961D01*
X104376485Y-67511961D01*
X105328866Y-67511961D01*
D10*
D14*
X123043152Y-69416723D02*
X123328866Y-69511961D01*
X123805057Y-69511961D01*
X123995533Y-69416723D01*
X124090771Y-69321485D01*
X124186009Y-69131009D01*
X124186009Y-68940533D01*
X124090771Y-68750057D01*
X123995533Y-68654819D01*
X123805057Y-68559580D01*
X123424104Y-68464342D01*
X123233628Y-68369104D01*
X123138390Y-68273866D01*
X123043152Y-68083390D01*
X123043152Y-67892914D01*
X123138390Y-67702438D01*
X123233628Y-67607200D01*
X123424104Y-67511961D01*
X123900295Y-67511961D01*
X124186009Y-67607200D01*
X125043152Y-69511961D02*
X125043152Y-67511961D01*
X125043152Y-68464342D02*
X126186009Y-68464342D01*
X126186009Y-69511961D02*
X126186009Y-67511961D01*
X127138390Y-68464342D02*
X127805057Y-68464342D01*
X128090771Y-69511961D02*
X127138390Y-69511961D01*
X127138390Y-67511961D01*
X128090771Y-67511961D01*
X128947914Y-68464342D02*
X129614580Y-68464342D01*
X129900295Y-69511961D02*
X128947914Y-69511961D01*
X128947914Y-67511961D01*
X129900295Y-67511961D01*
X130471723Y-67511961D02*
X131614580Y-67511961D01*
X131043152Y-69511961D02*
X131043152Y-67511961D01*
D10*
D11*
X69124819Y-45771485D02*
X70877200Y-45771485D01*
D10*
D15*
X88533152Y-62497676D02*
X88533152Y-61292914D01*
X88423628Y-61073866D01*
X88204580Y-60964342D01*
X87766485Y-60964342D01*
X87547438Y-61073866D01*
X88533152Y-62388152D02*
X88314104Y-62497676D01*
X87766485Y-62497676D01*
X87547438Y-62388152D01*
X87437914Y-62169104D01*
X87437914Y-61950057D01*
X87547438Y-61731009D01*
X87766485Y-61621485D01*
X88314104Y-61621485D01*
X88533152Y-61511961D01*
X89518866Y-62388152D02*
X89737914Y-62497676D01*
X90176009Y-62497676D01*
X90395057Y-62388152D01*
X90504580Y-62169104D01*
X90504580Y-62059580D01*
X90395057Y-61840533D01*
X90176009Y-61731009D01*
X89847438Y-61731009D01*
X89628390Y-61621485D01*
X89518866Y-61402438D01*
X89518866Y-61292914D01*
X89628390Y-61073866D01*
X89847438Y-60964342D01*
X90176009Y-60964342D01*
X90395057Y-61073866D01*
X91161723Y-60964342D02*
X92037914Y-60964342D01*
X91490295Y-60197676D02*
X91490295Y-62169104D01*
X91599819Y-62388152D01*
X91818866Y-62497676D01*
X92037914Y-62497676D01*
X92804580Y-62497676D02*
X92804580Y-60964342D01*
X92804580Y-61402438D02*
X92914104Y-61183390D01*
X93023628Y-61073866D01*
X93242676Y-60964342D01*
X93461723Y-60964342D01*
X94556961Y-62497676D02*
X94337914Y-62388152D01*
X94228390Y-62278628D01*
X94118866Y-62059580D01*
X94118866Y-61402438D01*
X94228390Y-61183390D01*
X94337914Y-61073866D01*
X94556961Y-60964342D01*
X94885533Y-60964342D01*
X95104580Y-61073866D01*
X95214104Y-61183390D01*
X95323628Y-61402438D01*
X95323628Y-62059580D01*
X95214104Y-62278628D01*
X95104580Y-62388152D01*
X94885533Y-62497676D01*
X94556961Y-62497676D01*
X97185533Y-62388152D02*
X96966485Y-62497676D01*
X96528390Y-62497676D01*
X96309342Y-62388152D01*
X96199819Y-62169104D01*
X96199819Y-61292914D01*
X96309342Y-61073866D01*
X96528390Y-60964342D01*
X96966485Y-60964342D01*
X97185533Y-61073866D01*
X97295057Y-61292914D01*
X97295057Y-61511961D01*
X96199819Y-61731009D01*
X98609342Y-62497676D02*
X98390295Y-62388152D01*
X98280771Y-62169104D01*
X98280771Y-60197676D01*
X100361723Y-62388152D02*
X100142676Y-62497676D01*
X99704580Y-62497676D01*
X99485533Y-62388152D01*
X99376009Y-62169104D01*
X99376009Y-61292914D01*
X99485533Y-61073866D01*
X99704580Y-60964342D01*
X100142676Y-60964342D01*
X100361723Y-61073866D01*
X100471247Y-61292914D01*
X100471247Y-61511961D01*
X99376009Y-61731009D01*
X102442676Y-62388152D02*
X102223628Y-62497676D01*
X101785533Y-62497676D01*
X101566485Y-62388152D01*
X101456961Y-62278628D01*
X101347438Y-62059580D01*
X101347438Y-61402438D01*
X101456961Y-61183390D01*
X101566485Y-61073866D01*
X101785533Y-60964342D01*
X102223628Y-60964342D01*
X102442676Y-61073866D01*
X103099819Y-60964342D02*
X103976009Y-60964342D01*
X103428390Y-60197676D02*
X103428390Y-62169104D01*
X103537914Y-62388152D01*
X103756961Y-62497676D01*
X103976009Y-62497676D01*
X104742676Y-62497676D02*
X104742676Y-60964342D01*
X104742676Y-61402438D02*
X104852200Y-61183390D01*
X104961723Y-61073866D01*
X105180771Y-60964342D01*
X105399819Y-60964342D01*
X106495057Y-62497676D02*
X106276009Y-62388152D01*
X106166485Y-62278628D01*
X106056961Y-62059580D01*
X106056961Y-61402438D01*
X106166485Y-61183390D01*
X106276009Y-61073866D01*
X106495057Y-60964342D01*
X106823628Y-60964342D01*
X107042676Y-61073866D01*
X107152200Y-61183390D01*
X107261723Y-61402438D01*
X107261723Y-62059580D01*
X107152200Y-62278628D01*
X107042676Y-62388152D01*
X106823628Y-62497676D01*
X106495057Y-62497676D01*
X108247438Y-60964342D02*
X108247438Y-62497676D01*
X108247438Y-61183390D02*
X108356961Y-61073866D01*
X108576009Y-60964342D01*
X108904580Y-60964342D01*
X109123628Y-61073866D01*
X109233152Y-61292914D01*
X109233152Y-62497676D01*
X110328390Y-62497676D02*
X110328390Y-60964342D01*
X110328390Y-60197676D02*
X110218866Y-60307200D01*
X110328390Y-60416723D01*
X110437914Y-60307200D01*
X110328390Y-60197676D01*
X110328390Y-60416723D01*
X112409342Y-62388152D02*
X112190295Y-62497676D01*
X111752200Y-62497676D01*
X111533152Y-62388152D01*
X111423628Y-62278628D01*
X111314104Y-62059580D01*
X111314104Y-61402438D01*
X111423628Y-61183390D01*
X111533152Y-61073866D01*
X111752200Y-60964342D01*
X112190295Y-60964342D01*
X112409342Y-61073866D01*
X114818866Y-61402438D02*
X114709342Y-61292914D01*
X114490295Y-61183390D01*
X114271247Y-61183390D01*
X114052200Y-61292914D01*
X113942676Y-61402438D01*
X113833152Y-61621485D01*
X113833152Y-61840533D01*
X113942676Y-62059580D01*
X114052200Y-62169104D01*
X114271247Y-62278628D01*
X114490295Y-62278628D01*
X114709342Y-62169104D01*
X114818866Y-62059580D01*
X114818866Y-61183390D02*
X114818866Y-62059580D01*
X114928390Y-62169104D01*
X115037914Y-62169104D01*
X115256961Y-62059580D01*
X115366485Y-61840533D01*
X115366485Y-61292914D01*
X115147438Y-60964342D01*
X114818866Y-60745295D01*
X114380771Y-60635771D01*
X113942676Y-60745295D01*
X113614104Y-60964342D01*
X113395057Y-61292914D01*
X113285533Y-61731009D01*
X113395057Y-62169104D01*
X113614104Y-62497676D01*
X113942676Y-62716723D01*
X114380771Y-62826247D01*
X114818866Y-62716723D01*
X115147438Y-62497676D01*
D10*
D11*
X81796247Y-71347676D02*
X82562914Y-73647676D01*
X83329580Y-71347676D01*
X85301009Y-73647676D02*
X83986723Y-73647676D01*
X84643866Y-73647676D02*
X84643866Y-71347676D01*
X84424819Y-71676247D01*
X84205771Y-71895295D01*
X83986723Y-72004819D01*
X87601009Y-73647676D02*
X86834342Y-72552438D01*
X86286723Y-73647676D02*
X86286723Y-71347676D01*
X87162914Y-71347676D01*
X87381961Y-71457200D01*
X87491485Y-71566723D01*
X87601009Y-71785771D01*
X87601009Y-72114342D01*
X87491485Y-72333390D01*
X87381961Y-72442914D01*
X87162914Y-72552438D01*
X86286723Y-72552438D01*
X89024819Y-71347676D02*
X89243866Y-71347676D01*
X89462914Y-71457200D01*
X89572438Y-71566723D01*
X89681961Y-71785771D01*
X89791485Y-72223866D01*
X89791485Y-72771485D01*
X89681961Y-73209580D01*
X89572438Y-73428628D01*
X89462914Y-73538152D01*
X89243866Y-73647676D01*
X89024819Y-73647676D01*
X88805771Y-73538152D01*
X88696247Y-73428628D01*
X88586723Y-73209580D01*
X88477200Y-72771485D01*
X88477200Y-72223866D01*
X88586723Y-71785771D01*
X88696247Y-71566723D01*
X88805771Y-71457200D01*
X89024819Y-71347676D01*
D10*
D11*
X99015295Y-71566723D02*
X99124819Y-71457200D01*
X99343866Y-71347676D01*
X99891485Y-71347676D01*
X100110533Y-71457200D01*
X100220057Y-71566723D01*
X100329580Y-71785771D01*
X100329580Y-72004819D01*
X100220057Y-72333390D01*
X98905771Y-73647676D01*
X100329580Y-73647676D01*
X101753390Y-71347676D02*
X101972438Y-71347676D01*
X102191485Y-71457200D01*
X102301009Y-71566723D01*
X102410533Y-71785771D01*
X102520057Y-72223866D01*
X102520057Y-72771485D01*
X102410533Y-73209580D01*
X102301009Y-73428628D01*
X102191485Y-73538152D01*
X101972438Y-73647676D01*
X101753390Y-73647676D01*
X101534342Y-73538152D01*
X101424819Y-73428628D01*
X101315295Y-73209580D01*
X101205771Y-72771485D01*
X101205771Y-72223866D01*
X101315295Y-71785771D01*
X101424819Y-71566723D01*
X101534342Y-71457200D01*
X101753390Y-71347676D01*
X103396247Y-71566723D02*
X103505771Y-71457200D01*
X103724819Y-71347676D01*
X104272438Y-71347676D01*
X104491485Y-71457200D01*
X104601009Y-71566723D01*
X104710533Y-71785771D01*
X104710533Y-72004819D01*
X104601009Y-72333390D01*
X103286723Y-73647676D01*
X104710533Y-73647676D01*
X105586723Y-71566723D02*
X105696247Y-71457200D01*
X105915295Y-71347676D01*
X106462914Y-71347676D01*
X106681961Y-71457200D01*
X106791485Y-71566723D01*
X106901009Y-71785771D01*
X106901009Y-72004819D01*
X106791485Y-72333390D01*
X105477200Y-73647676D01*
X106901009Y-73647676D01*
X107886723Y-72771485D02*
X109639104Y-72771485D01*
X111172438Y-71347676D02*
X111391485Y-71347676D01*
X111610533Y-71457200D01*
X111720057Y-71566723D01*
X111829580Y-71785771D01*
X111939104Y-72223866D01*
X111939104Y-72771485D01*
X111829580Y-73209580D01*
X111720057Y-73428628D01*
X111610533Y-73538152D01*
X111391485Y-73647676D01*
X111172438Y-73647676D01*
X110953390Y-73538152D01*
X110843866Y-73428628D01*
X110734342Y-73209580D01*
X110624819Y-72771485D01*
X110624819Y-72223866D01*
X110734342Y-71785771D01*
X110843866Y-71566723D01*
X110953390Y-71457200D01*
X111172438Y-71347676D01*
X113910533Y-72114342D02*
X113910533Y-73647676D01*
X113362914Y-71238152D02*
X112815295Y-72881009D01*
X114239104Y-72881009D01*
X115115295Y-72771485D02*
X116867676Y-72771485D01*
X118401009Y-71347676D02*
X118620057Y-71347676D01*
X118839104Y-71457200D01*
X118948628Y-71566723D01*
X119058152Y-71785771D01*
X119167676Y-72223866D01*
X119167676Y-72771485D01*
X119058152Y-73209580D01*
X118948628Y-73428628D01*
X118839104Y-73538152D01*
X118620057Y-73647676D01*
X118401009Y-73647676D01*
X118181961Y-73538152D01*
X118072438Y-73428628D01*
X117962914Y-73209580D01*
X117853390Y-72771485D01*
X117853390Y-72223866D01*
X117962914Y-71785771D01*
X118072438Y-71566723D01*
X118181961Y-71457200D01*
X118401009Y-71347676D01*
X119934342Y-71347676D02*
X121358152Y-71347676D01*
X120591485Y-72223866D01*
X120920057Y-72223866D01*
X121139104Y-72333390D01*
X121248628Y-72442914D01*
X121358152Y-72661961D01*
X121358152Y-73209580D01*
X121248628Y-73428628D01*
X121139104Y-73538152D01*
X120920057Y-73647676D01*
X120262914Y-73647676D01*
X120043866Y-73538152D01*
X119934342Y-73428628D01*
D10*
D11*
X27124819Y-45771485D02*
X28877200Y-45771485D01*
D10*
D11*
X125687914Y-73647676D02*
X124716485Y-73647676D01*
X125202200Y-73647676D02*
X125202200Y-71347676D01*
X125040295Y-71676247D01*
X124878390Y-71895295D01*
X124716485Y-72004819D01*
X127630771Y-71238152D02*
X126173628Y-74195295D01*
X129087914Y-73647676D02*
X128116485Y-73647676D01*
X128602200Y-73647676D02*
X128602200Y-71347676D01*
X128440295Y-71676247D01*
X128278390Y-71895295D01*
X128116485Y-72004819D01*
D10*
D11*
X70439104Y-37428628D02*
X70329580Y-37538152D01*
X70001009Y-37647676D01*
X69781961Y-37647676D01*
X69453390Y-37538152D01*
X69234342Y-37319104D01*
X69124819Y-37100057D01*
X69015295Y-36661961D01*
X69015295Y-36333390D01*
X69124819Y-35895295D01*
X69234342Y-35676247D01*
X69453390Y-35457200D01*
X69781961Y-35347676D01*
X70001009Y-35347676D01*
X70329580Y-35457200D01*
X70439104Y-35566723D01*
X72739104Y-37428628D02*
X72629580Y-37538152D01*
X72301009Y-37647676D01*
X72081961Y-37647676D01*
X71753390Y-37538152D01*
X71534342Y-37319104D01*
X71424819Y-37100057D01*
X71315295Y-36661961D01*
X71315295Y-36333390D01*
X71424819Y-35895295D01*
X71534342Y-35676247D01*
X71753390Y-35457200D01*
X72081961Y-35347676D01*
X72301009Y-35347676D01*
X72629580Y-35457200D01*
X72739104Y-35566723D01*
X76243866Y-36442914D02*
X76572438Y-36552438D01*
X76681961Y-36661961D01*
X76791485Y-36881009D01*
X76791485Y-37209580D01*
X76681961Y-37428628D01*
X76572438Y-37538152D01*
X76353390Y-37647676D01*
X75477200Y-37647676D01*
X75477200Y-35347676D01*
X76243866Y-35347676D01*
X76462914Y-35457200D01*
X76572438Y-35566723D01*
X76681961Y-35785771D01*
X76681961Y-36004819D01*
X76572438Y-36223866D01*
X76462914Y-36333390D01*
X76243866Y-36442914D01*
X75477200Y-36442914D01*
X78215295Y-36552438D02*
X78215295Y-37647676D01*
X77448628Y-35347676D02*
X78215295Y-36552438D01*
X78981961Y-35347676D01*
X79748628Y-36771485D02*
X81501009Y-36771485D01*
X82486723Y-37538152D02*
X82815295Y-37647676D01*
X83362914Y-37647676D01*
X83581961Y-37538152D01*
X83691485Y-37428628D01*
X83801009Y-37209580D01*
X83801009Y-36990533D01*
X83691485Y-36771485D01*
X83581961Y-36661961D01*
X83362914Y-36552438D01*
X82924819Y-36442914D01*
X82705771Y-36333390D01*
X82596247Y-36223866D01*
X82486723Y-36004819D01*
X82486723Y-35785771D01*
X82596247Y-35566723D01*
X82705771Y-35457200D01*
X82924819Y-35347676D01*
X83472438Y-35347676D01*
X83801009Y-35457200D01*
X84677200Y-36990533D02*
X85772438Y-36990533D01*
X84458152Y-37647676D02*
X85224819Y-35347676D01*
X85991485Y-37647676D01*
D10*
D11*
X112329580Y-46647676D02*
X111015295Y-46647676D01*
X111672438Y-46647676D02*
X111672438Y-44347676D01*
X111453390Y-44676247D01*
X111234342Y-44895295D01*
X111015295Y-45004819D01*
X113315295Y-46428628D02*
X113424819Y-46538152D01*
X113315295Y-46647676D01*
X113205771Y-46538152D01*
X113315295Y-46428628D01*
X113315295Y-46647676D01*
X113315295Y-45223866D02*
X113424819Y-45333390D01*
X113315295Y-45442914D01*
X113205771Y-45333390D01*
X113315295Y-45223866D01*
X113315295Y-45442914D01*
X115615295Y-46647676D02*
X114301009Y-46647676D01*
X114958152Y-46647676D02*
X114958152Y-44347676D01*
X114739104Y-44676247D01*
X114520057Y-44895295D01*
X114301009Y-45004819D01*
D10*
D11*
X-14875181Y-37647676D02*
X-14875181Y-35347676D01*
X-12465658Y-37647676D02*
X-13232324Y-36552438D01*
X-13779943Y-37647676D02*
X-13779943Y-35347676D01*
X-12903753Y-35347676D01*
X-12684705Y-35457200D01*
X-12575181Y-35566723D01*
X-12465658Y-35785771D01*
X-12465658Y-36114342D01*
X-12575181Y-36333390D01*
X-12684705Y-36442914D01*
X-12903753Y-36552438D01*
X-13779943Y-36552438D01*
X-11479943Y-37647676D02*
X-11479943Y-35347676D01*
X-10713277Y-36990533D01*
X-9946610Y-35347676D01*
X-9946610Y-37647676D01*
X-8851372Y-36771485D02*
X-7098991Y-36771485D01*
X-5565658Y-35347676D02*
X-5346610Y-35347676D01*
X-5127562Y-35457200D01*
X-5018039Y-35566723D01*
X-4908515Y-35785771D01*
X-4798991Y-36223866D01*
X-4798991Y-36771485D01*
X-4908515Y-37209580D01*
X-5018039Y-37428628D01*
X-5127562Y-37538152D01*
X-5346610Y-37647676D01*
X-5565658Y-37647676D01*
X-5784705Y-37538152D01*
X-5894229Y-37428628D01*
X-6003753Y-37209580D01*
X-6113277Y-36771485D01*
X-6113277Y-36223866D01*
X-6003753Y-35785771D01*
X-5894229Y-35566723D01*
X-5784705Y-35457200D01*
X-5565658Y-35347676D01*
X-4032324Y-35347676D02*
X-2608515Y-35347676D01*
X-3375181Y-36223866D01*
X-3046610Y-36223866D01*
X-2827562Y-36333390D01*
X-2718039Y-36442914D01*
X-2608515Y-36661961D01*
X-2608515Y-37209580D01*
X-2718039Y-37428628D01*
X-2827562Y-37538152D01*
X-3046610Y-37647676D01*
X-3703753Y-37647676D01*
X-3922800Y-37538152D01*
X-4032324Y-37428628D01*
X-1622800Y-36771485D02*
X129580Y-36771485D01*
X1115295Y-35566723D02*
X1224819Y-35457200D01*
X1443866Y-35347676D01*
X1991485Y-35347676D01*
X2210533Y-35457200D01*
X2320057Y-35566723D01*
X2429580Y-35785771D01*
X2429580Y-36004819D01*
X2320057Y-36333390D01*
X1005771Y-37647676D01*
X2429580Y-37647676D01*
X4401009Y-36114342D02*
X4401009Y-37647676D01*
X3853390Y-35238152D02*
X3305771Y-36881009D01*
X4729580Y-36881009D01*
D10*
D11*
X-46875181Y-37647676D02*
X-46875181Y-35347676D01*
X-45998991Y-35347676D01*
X-45779943Y-35457200D01*
X-45670420Y-35566723D01*
X-45560896Y-35785771D01*
X-45560896Y-36114342D01*
X-45670420Y-36333390D01*
X-45779943Y-36442914D01*
X-45998991Y-36552438D01*
X-46875181Y-36552438D01*
X-44575181Y-37647676D02*
X-44575181Y-36114342D01*
X-44575181Y-36552438D02*
X-44465658Y-36333390D01*
X-44356134Y-36223866D01*
X-44137086Y-36114342D01*
X-43918039Y-36114342D01*
X-42822800Y-37647676D02*
X-43041848Y-37538152D01*
X-43151372Y-37428628D01*
X-43260896Y-37209580D01*
X-43260896Y-36552438D01*
X-43151372Y-36333390D01*
X-43041848Y-36223866D01*
X-42822800Y-36114342D01*
X-42494229Y-36114342D01*
X-42275181Y-36223866D01*
X-42165658Y-36333390D01*
X-42056134Y-36552438D01*
X-42056134Y-37209580D01*
X-42165658Y-37428628D01*
X-42275181Y-37538152D01*
X-42494229Y-37647676D01*
X-42822800Y-37647676D01*
X-41398991Y-36114342D02*
X-40522800Y-36114342D01*
X-41070420Y-35347676D02*
X-41070420Y-37319104D01*
X-40960896Y-37538152D01*
X-40741848Y-37647676D01*
X-40522800Y-37647676D01*
X-39427562Y-37647676D02*
X-39646610Y-37538152D01*
X-39756134Y-37428628D01*
X-39865658Y-37209580D01*
X-39865658Y-36552438D01*
X-39756134Y-36333390D01*
X-39646610Y-36223866D01*
X-39427562Y-36114342D01*
X-39098991Y-36114342D01*
X-38879943Y-36223866D01*
X-38770420Y-36333390D01*
X-38660896Y-36552438D01*
X-38660896Y-37209580D01*
X-38770420Y-37428628D01*
X-38879943Y-37538152D01*
X-39098991Y-37647676D01*
X-39427562Y-37647676D01*
X-38003753Y-36114342D02*
X-37127562Y-36114342D01*
X-37675181Y-35347676D02*
X-37675181Y-37319104D01*
X-37565658Y-37538152D01*
X-37346610Y-37647676D01*
X-37127562Y-37647676D01*
X-36579943Y-36114342D02*
X-36032324Y-37647676D01*
X-35484705Y-36114342D02*
X-36032324Y-37647676D01*
X-36251372Y-38195295D01*
X-36360896Y-38304819D01*
X-36579943Y-38414342D01*
X-34608515Y-36114342D02*
X-34608515Y-38414342D01*
X-34608515Y-36223866D02*
X-34389467Y-36114342D01*
X-33951372Y-36114342D01*
X-33732324Y-36223866D01*
X-33622800Y-36333390D01*
X-33513277Y-36552438D01*
X-33513277Y-37209580D01*
X-33622800Y-37428628D01*
X-33732324Y-37538152D01*
X-33951372Y-37647676D01*
X-34389467Y-37647676D01*
X-34608515Y-37538152D01*
X-31651372Y-37538152D02*
X-31870420Y-37647676D01*
X-32308515Y-37647676D01*
X-32527562Y-37538152D01*
X-32637086Y-37319104D01*
X-32637086Y-36442914D01*
X-32527562Y-36223866D01*
X-32308515Y-36114342D01*
X-31870420Y-36114342D01*
X-31651372Y-36223866D01*
X-31541848Y-36442914D01*
X-31541848Y-36661961D01*
X-32637086Y-36881009D01*
D10*
D14*
X-14861610Y-42511961D02*
X-14861610Y-40511961D01*
X-14099705Y-40511961D01*
X-13909229Y-40607200D01*
X-13813991Y-40702438D01*
X-13718753Y-40892914D01*
X-13718753Y-41178628D01*
X-13813991Y-41369104D01*
X-13909229Y-41464342D01*
X-14099705Y-41559580D01*
X-14861610Y-41559580D01*
X-11718753Y-42321485D02*
X-11813991Y-42416723D01*
X-12099705Y-42511961D01*
X-12290181Y-42511961D01*
X-12575896Y-42416723D01*
X-12766372Y-42226247D01*
X-12861610Y-42035771D01*
X-12956848Y-41654819D01*
X-12956848Y-41369104D01*
X-12861610Y-40988152D01*
X-12766372Y-40797676D01*
X-12575896Y-40607200D01*
X-12290181Y-40511961D01*
X-12099705Y-40511961D01*
X-11813991Y-40607200D01*
X-11718753Y-40702438D01*
X-10194943Y-41464342D02*
X-9909229Y-41559580D01*
X-9813991Y-41654819D01*
X-9718753Y-41845295D01*
X-9718753Y-42131009D01*
X-9813991Y-42321485D01*
X-9909229Y-42416723D01*
X-10099705Y-42511961D01*
X-10861610Y-42511961D01*
X-10861610Y-40511961D01*
X-10194943Y-40511961D01*
X-10004467Y-40607200D01*
X-9909229Y-40702438D01*
X-9813991Y-40892914D01*
X-9813991Y-41083390D01*
X-9909229Y-41273866D01*
X-10004467Y-41369104D01*
X-10194943Y-41464342D01*
X-10861610Y-41464342D01*
X-7337800Y-42511961D02*
X-7337800Y-40511961D01*
X-6194943Y-42511961D01*
X-6194943Y-40511961D01*
X-5242562Y-40511961D02*
X-5242562Y-42131009D01*
X-5147324Y-42321485D01*
X-5052086Y-42416723D01*
X-4861610Y-42511961D01*
X-4480658Y-42511961D01*
X-4290181Y-42416723D01*
X-4194943Y-42321485D01*
X-4099705Y-42131009D01*
X-4099705Y-40511961D01*
X-3147324Y-42511961D02*
X-3147324Y-40511961D01*
X-2480658Y-41940533D01*
X-1813991Y-40511961D01*
X-1813991Y-42511961D01*
X-194943Y-41464342D02*
X90771Y-41559580D01*
X186009Y-41654819D01*
X281247Y-41845295D01*
X281247Y-42131009D01*
X186009Y-42321485D01*
X90771Y-42416723D01*
X-99705Y-42511961D01*
X-861610Y-42511961D01*
X-861610Y-40511961D01*
X-194943Y-40511961D01*
X-4467Y-40607200D01*
X90771Y-40702438D01*
X186009Y-40892914D01*
X186009Y-41083390D01*
X90771Y-41273866D01*
X-4467Y-41369104D01*
X-194943Y-41464342D01*
X-861610Y-41464342D01*
X1138390Y-41464342D02*
X1805057Y-41464342D01*
X2090771Y-42511961D02*
X1138390Y-42511961D01*
X1138390Y-40511961D01*
X2090771Y-40511961D01*
X4090771Y-42511961D02*
X3424104Y-41559580D01*
X2947914Y-42511961D02*
X2947914Y-40511961D01*
X3709819Y-40511961D01*
X3900295Y-40607200D01*
X3995533Y-40702438D01*
X4090771Y-40892914D01*
X4090771Y-41178628D01*
X3995533Y-41369104D01*
X3900295Y-41464342D01*
X3709819Y-41559580D01*
X2947914Y-41559580D01*
D10*
D14*
X-46861610Y-60511961D02*
X-46861610Y-58511961D01*
X-46385420Y-58511961D01*
X-46099705Y-58607200D01*
X-45909229Y-58797676D01*
X-45813991Y-58988152D01*
X-45718753Y-59369104D01*
X-45718753Y-59654819D01*
X-45813991Y-60035771D01*
X-45909229Y-60226247D01*
X-46099705Y-60416723D01*
X-46385420Y-60511961D01*
X-46861610Y-60511961D01*
X-44861610Y-59464342D02*
X-44194943Y-59464342D01*
X-43909229Y-60511961D02*
X-44861610Y-60511961D01*
X-44861610Y-58511961D01*
X-43909229Y-58511961D01*
X-43147324Y-60416723D02*
X-42861610Y-60511961D01*
X-42385420Y-60511961D01*
X-42194943Y-60416723D01*
X-42099705Y-60321485D01*
X-42004467Y-60131009D01*
X-42004467Y-59940533D01*
X-42099705Y-59750057D01*
X-42194943Y-59654819D01*
X-42385420Y-59559580D01*
X-42766372Y-59464342D01*
X-42956848Y-59369104D01*
X-43052086Y-59273866D01*
X-43147324Y-59083390D01*
X-43147324Y-58892914D01*
X-43052086Y-58702438D01*
X-42956848Y-58607200D01*
X-42766372Y-58511961D01*
X-42290181Y-58511961D01*
X-42004467Y-58607200D01*
X-40004467Y-60321485D02*
X-40099705Y-60416723D01*
X-40385420Y-60511961D01*
X-40575896Y-60511961D01*
X-40861610Y-60416723D01*
X-41052086Y-60226247D01*
X-41147324Y-60035771D01*
X-41242562Y-59654819D01*
X-41242562Y-59369104D01*
X-41147324Y-58988152D01*
X-41052086Y-58797676D01*
X-40861610Y-58607200D01*
X-40575896Y-58511961D01*
X-40385420Y-58511961D01*
X-40099705Y-58607200D01*
X-40004467Y-58702438D01*
X-38004467Y-60511961D02*
X-38671134Y-59559580D01*
X-39147324Y-60511961D02*
X-39147324Y-58511961D01*
X-38385420Y-58511961D01*
X-38194943Y-58607200D01*
X-38099705Y-58702438D01*
X-38004467Y-58892914D01*
X-38004467Y-59178628D01*
X-38099705Y-59369104D01*
X-38194943Y-59464342D01*
X-38385420Y-59559580D01*
X-39147324Y-59559580D01*
X-37147324Y-60511961D02*
X-37147324Y-58511961D01*
X-36194943Y-60511961D02*
X-36194943Y-58511961D01*
X-35433039Y-58511961D01*
X-35242562Y-58607200D01*
X-35147324Y-58702438D01*
X-35052086Y-58892914D01*
X-35052086Y-59178628D01*
X-35147324Y-59369104D01*
X-35242562Y-59464342D01*
X-35433039Y-59559580D01*
X-36194943Y-59559580D01*
X-34480658Y-58511961D02*
X-33337800Y-58511961D01*
X-33909229Y-60511961D02*
X-33909229Y-58511961D01*
X-32671134Y-60511961D02*
X-32671134Y-58511961D01*
X-31337800Y-58511961D02*
X-30956848Y-58511961D01*
X-30766372Y-58607200D01*
X-30575896Y-58797676D01*
X-30480658Y-59178628D01*
X-30480658Y-59845295D01*
X-30575896Y-60226247D01*
X-30766372Y-60416723D01*
X-30956848Y-60511961D01*
X-31337800Y-60511961D01*
X-31528277Y-60416723D01*
X-31718753Y-60226247D01*
X-31813991Y-59845295D01*
X-31813991Y-59178628D01*
X-31718753Y-58797676D01*
X-31528277Y-58607200D01*
X-31337800Y-58511961D01*
X-29623515Y-60511961D02*
X-29623515Y-58511961D01*
X-28480658Y-60511961D01*
X-28480658Y-58511961D01*
D10*
D14*
X110674152Y-42416723D02*
X110959866Y-42511961D01*
X111436057Y-42511961D01*
X111626533Y-42416723D01*
X111721771Y-42321485D01*
X111817009Y-42131009D01*
X111817009Y-41940533D01*
X111721771Y-41750057D01*
X111626533Y-41654819D01*
X111436057Y-41559580D01*
X111055104Y-41464342D01*
X110864628Y-41369104D01*
X110769390Y-41273866D01*
X110674152Y-41083390D01*
X110674152Y-40892914D01*
X110769390Y-40702438D01*
X110864628Y-40607200D01*
X111055104Y-40511961D01*
X111531295Y-40511961D01*
X111817009Y-40607200D01*
X113817009Y-42321485D02*
X113721771Y-42416723D01*
X113436057Y-42511961D01*
X113245580Y-42511961D01*
X112959866Y-42416723D01*
X112769390Y-42226247D01*
X112674152Y-42035771D01*
X112578914Y-41654819D01*
X112578914Y-41369104D01*
X112674152Y-40988152D01*
X112769390Y-40797676D01*
X112959866Y-40607200D01*
X113245580Y-40511961D01*
X113436057Y-40511961D01*
X113721771Y-40607200D01*
X113817009Y-40702438D01*
X114578914Y-41940533D02*
X115531295Y-41940533D01*
X114388438Y-42511961D02*
X115055104Y-40511961D01*
X115721771Y-42511961D01*
X117340819Y-42511961D02*
X116388438Y-42511961D01*
X116388438Y-40511961D01*
X118007485Y-41464342D02*
X118674152Y-41464342D01*
X118959866Y-42511961D02*
X118007485Y-42511961D01*
X118007485Y-40511961D01*
X118959866Y-40511961D01*
D10*
D11*
X27015295Y-54990533D02*
X28110533Y-54990533D01*
X26796247Y-55647676D02*
X27562914Y-53347676D01*
X28329580Y-55647676D01*
X29096247Y-54442914D02*
X29862914Y-54442914D01*
X30191485Y-55647676D02*
X29096247Y-55647676D01*
X29096247Y-53347676D01*
X30191485Y-53347676D01*
X31615295Y-53347676D02*
X31834342Y-53347676D01*
X32053390Y-53457200D01*
X32162914Y-53566723D01*
X32272438Y-53785771D01*
X32381961Y-54223866D01*
X32381961Y-54771485D01*
X32272438Y-55209580D01*
X32162914Y-55428628D01*
X32053390Y-55538152D01*
X31834342Y-55647676D01*
X31615295Y-55647676D01*
X31396247Y-55538152D01*
X31286723Y-55428628D01*
X31177200Y-55209580D01*
X31067676Y-54771485D01*
X31067676Y-54223866D01*
X31177200Y-53785771D01*
X31286723Y-53566723D01*
X31396247Y-53457200D01*
X31615295Y-53347676D01*
X34572438Y-55647676D02*
X33258152Y-55647676D01*
X33915295Y-55647676D02*
X33915295Y-53347676D01*
X33696247Y-53676247D01*
X33477200Y-53895295D01*
X33258152Y-54004819D01*
X35558152Y-55428628D02*
X35667676Y-55538152D01*
X35558152Y-55647676D01*
X35448628Y-55538152D01*
X35558152Y-55428628D01*
X35558152Y-55647676D01*
X37091485Y-53347676D02*
X37310533Y-53347676D01*
X37529580Y-53457200D01*
X37639104Y-53566723D01*
X37748628Y-53785771D01*
X37858152Y-54223866D01*
X37858152Y-54771485D01*
X37748628Y-55209580D01*
X37639104Y-55428628D01*
X37529580Y-55538152D01*
X37310533Y-55647676D01*
X37091485Y-55647676D01*
X36872438Y-55538152D01*
X36762914Y-55428628D01*
X36653390Y-55209580D01*
X36543866Y-54771485D01*
X36543866Y-54223866D01*
X36653390Y-53785771D01*
X36762914Y-53566723D01*
X36872438Y-53457200D01*
X37091485Y-53347676D01*
X38624819Y-53347676D02*
X40158152Y-53347676D01*
X39172438Y-55647676D01*
X41034342Y-55428628D02*
X41143866Y-55538152D01*
X41034342Y-55647676D01*
X40924819Y-55538152D01*
X41034342Y-55428628D01*
X41034342Y-55647676D01*
X43224819Y-53347676D02*
X42129580Y-53347676D01*
X42020057Y-54442914D01*
X42129580Y-54333390D01*
X42348628Y-54223866D01*
X42896247Y-54223866D01*
X43115295Y-54333390D01*
X43224819Y-54442914D01*
X43334342Y-54661961D01*
X43334342Y-55209580D01*
X43224819Y-55428628D01*
X43115295Y-55538152D01*
X42896247Y-55647676D01*
X42348628Y-55647676D01*
X42129580Y-55538152D01*
X42020057Y-55428628D01*
X44758152Y-53347676D02*
X44977200Y-53347676D01*
X45196247Y-53457200D01*
X45305771Y-53566723D01*
X45415295Y-53785771D01*
X45524819Y-54223866D01*
X45524819Y-54771485D01*
X45415295Y-55209580D01*
X45305771Y-55428628D01*
X45196247Y-55538152D01*
X44977200Y-55647676D01*
X44758152Y-55647676D01*
X44539104Y-55538152D01*
X44429580Y-55428628D01*
X44320057Y-55209580D01*
X44210533Y-54771485D01*
X44210533Y-54223866D01*
X44320057Y-53785771D01*
X44429580Y-53566723D01*
X44539104Y-53457200D01*
X44758152Y-53347676D01*
X46510533Y-55428628D02*
X46620057Y-55538152D01*
X46510533Y-55647676D01*
X46401009Y-55538152D01*
X46510533Y-55428628D01*
X46510533Y-55647676D01*
X48810533Y-55647676D02*
X47496247Y-55647676D01*
X48153390Y-55647676D02*
X48153390Y-53347676D01*
X47934342Y-53676247D01*
X47715295Y-53895295D01*
X47496247Y-54004819D01*
X50234342Y-53347676D02*
X50453390Y-53347676D01*
X50672438Y-53457200D01*
X50781961Y-53566723D01*
X50891485Y-53785771D01*
X51001009Y-54223866D01*
X51001009Y-54771485D01*
X50891485Y-55209580D01*
X50781961Y-55428628D01*
X50672438Y-55538152D01*
X50453390Y-55647676D01*
X50234342Y-55647676D01*
X50015295Y-55538152D01*
X49905771Y-55428628D01*
X49796247Y-55209580D01*
X49686723Y-54771485D01*
X49686723Y-54223866D01*
X49796247Y-53785771D01*
X49905771Y-53566723D01*
X50015295Y-53457200D01*
X50234342Y-53347676D01*
X52424819Y-53347676D02*
X52643866Y-53347676D01*
X52862914Y-53457200D01*
X52972438Y-53566723D01*
X53081961Y-53785771D01*
X53191485Y-54223866D01*
X53191485Y-54771485D01*
X53081961Y-55209580D01*
X52972438Y-55428628D01*
X52862914Y-55538152D01*
X52643866Y-55647676D01*
X52424819Y-55647676D01*
X52205771Y-55538152D01*
X52096247Y-55428628D01*
X51986723Y-55209580D01*
X51877200Y-54771485D01*
X51877200Y-54223866D01*
X51986723Y-53785771D01*
X52096247Y-53566723D01*
X52205771Y-53457200D01*
X52424819Y-53347676D01*
X54177200Y-55428628D02*
X54286723Y-55538152D01*
X54177200Y-55647676D01*
X54067676Y-55538152D01*
X54177200Y-55428628D01*
X54177200Y-55647676D01*
X55272438Y-55647676D02*
X55272438Y-53347676D01*
X55491485Y-54771485D02*
X56148628Y-55647676D01*
X56148628Y-54114342D02*
X55272438Y-54990533D01*
X57134342Y-55647676D02*
X57134342Y-54114342D01*
X57134342Y-53347676D02*
X57024819Y-53457200D01*
X57134342Y-53566723D01*
X57243866Y-53457200D01*
X57134342Y-53347676D01*
X57134342Y-53566723D01*
X59215295Y-55538152D02*
X58996247Y-55647676D01*
X58558152Y-55647676D01*
X58339104Y-55538152D01*
X58229580Y-55428628D01*
X58120057Y-55209580D01*
X58120057Y-54552438D01*
X58229580Y-54333390D01*
X58339104Y-54223866D01*
X58558152Y-54114342D01*
X58996247Y-54114342D01*
X59215295Y-54223866D01*
X61186723Y-55647676D02*
X61186723Y-54442914D01*
X61077200Y-54223866D01*
X60858152Y-54114342D01*
X60420057Y-54114342D01*
X60201009Y-54223866D01*
X61186723Y-55538152D02*
X60967676Y-55647676D01*
X60420057Y-55647676D01*
X60201009Y-55538152D01*
X60091485Y-55319104D01*
X60091485Y-55100057D01*
X60201009Y-54881009D01*
X60420057Y-54771485D01*
X60967676Y-54771485D01*
X61186723Y-54661961D01*
X63267676Y-55647676D02*
X63267676Y-53347676D01*
X63267676Y-55538152D02*
X63048628Y-55647676D01*
X62610533Y-55647676D01*
X62391485Y-55538152D01*
X62281961Y-55428628D01*
X62172438Y-55209580D01*
X62172438Y-54552438D01*
X62281961Y-54333390D01*
X62391485Y-54223866D01*
X62610533Y-54114342D01*
X63048628Y-54114342D01*
X63267676Y-54223866D01*
X63815295Y-55866723D02*
X65567676Y-55866723D01*
X66115295Y-54114342D02*
X66115295Y-56414342D01*
X66115295Y-54223866D02*
X66334342Y-54114342D01*
X66772438Y-54114342D01*
X66991485Y-54223866D01*
X67101009Y-54333390D01*
X67210533Y-54552438D01*
X67210533Y-55209580D01*
X67101009Y-55428628D01*
X66991485Y-55538152D01*
X66772438Y-55647676D01*
X66334342Y-55647676D01*
X66115295Y-55538152D01*
X69181961Y-55538152D02*
X68962914Y-55647676D01*
X68524819Y-55647676D01*
X68305771Y-55538152D01*
X68196247Y-55428628D01*
X68086723Y-55209580D01*
X68086723Y-54552438D01*
X68196247Y-54333390D01*
X68305771Y-54223866D01*
X68524819Y-54114342D01*
X68962914Y-54114342D01*
X69181961Y-54223866D01*
X70167676Y-55647676D02*
X70167676Y-53347676D01*
X70167676Y-54223866D02*
X70386723Y-54114342D01*
X70824819Y-54114342D01*
X71043866Y-54223866D01*
X71153390Y-54333390D01*
X71262914Y-54552438D01*
X71262914Y-55209580D01*
X71153390Y-55428628D01*
X71043866Y-55538152D01*
X70824819Y-55647676D01*
X70386723Y-55647676D01*
X70167676Y-55538152D01*
D10*
D11*
X29917676Y-79147676D02*
X29917676Y-76847676D01*
X31231961Y-79147676D02*
X30246247Y-77833390D01*
X31231961Y-76847676D02*
X29917676Y-78161961D01*
X32217676Y-79147676D02*
X32217676Y-77614342D01*
X32217676Y-76847676D02*
X32108152Y-76957200D01*
X32217676Y-77066723D01*
X32327200Y-76957200D01*
X32217676Y-76847676D01*
X32217676Y-77066723D01*
X34627200Y-78928628D02*
X34517676Y-79038152D01*
X34189104Y-79147676D01*
X33970057Y-79147676D01*
X33641485Y-79038152D01*
X33422438Y-78819104D01*
X33312914Y-78600057D01*
X33203390Y-78161961D01*
X33203390Y-77833390D01*
X33312914Y-77395295D01*
X33422438Y-77176247D01*
X33641485Y-76957200D01*
X33970057Y-76847676D01*
X34189104Y-76847676D01*
X34517676Y-76957200D01*
X34627200Y-77066723D01*
X36598628Y-79147676D02*
X36598628Y-77942914D01*
X36489104Y-77723866D01*
X36270057Y-77614342D01*
X35831961Y-77614342D01*
X35612914Y-77723866D01*
X36598628Y-79038152D02*
X36379580Y-79147676D01*
X35831961Y-79147676D01*
X35612914Y-79038152D01*
X35503390Y-78819104D01*
X35503390Y-78600057D01*
X35612914Y-78381009D01*
X35831961Y-78271485D01*
X36379580Y-78271485D01*
X36598628Y-78161961D01*
X38679580Y-79147676D02*
X38679580Y-76847676D01*
X38679580Y-79038152D02*
X38460533Y-79147676D01*
X38022438Y-79147676D01*
X37803390Y-79038152D01*
X37693866Y-78928628D01*
X37584342Y-78709580D01*
X37584342Y-78052438D01*
X37693866Y-77833390D01*
X37803390Y-77723866D01*
X38022438Y-77614342D01*
X38460533Y-77614342D01*
X38679580Y-77723866D01*
X41527200Y-77942914D02*
X42293866Y-77942914D01*
X42622438Y-79147676D02*
X41527200Y-79147676D01*
X41527200Y-76847676D01*
X42622438Y-76847676D01*
X43608152Y-78928628D02*
X43717676Y-79038152D01*
X43608152Y-79147676D01*
X43498628Y-79038152D01*
X43608152Y-78928628D01*
X43608152Y-79147676D01*
X44703390Y-79147676D02*
X44703390Y-76847676D01*
X45251009Y-76847676D01*
X45579580Y-76957200D01*
X45798628Y-77176247D01*
X45908152Y-77395295D01*
X46017676Y-77833390D01*
X46017676Y-78161961D01*
X45908152Y-78600057D01*
X45798628Y-78819104D01*
X45579580Y-79038152D01*
X45251009Y-79147676D01*
X44703390Y-79147676D01*
X47003390Y-78928628D02*
X47112914Y-79038152D01*
X47003390Y-79147676D01*
X46893866Y-79038152D01*
X47003390Y-78928628D01*
X47003390Y-79147676D01*
X47989104Y-78490533D02*
X49084342Y-78490533D01*
X47770057Y-79147676D02*
X48536723Y-76847676D01*
X49303390Y-79147676D01*
X50070057Y-78928628D02*
X50179580Y-79038152D01*
X50070057Y-79147676D01*
X49960533Y-79038152D01*
X50070057Y-78928628D01*
X50070057Y-79147676D01*
X54670057Y-79147676D02*
X54670057Y-76847676D01*
X54889104Y-78271485D02*
X55546247Y-79147676D01*
X55546247Y-77614342D02*
X54670057Y-78490533D01*
X56531961Y-79147676D02*
X56531961Y-77614342D01*
X56531961Y-76847676D02*
X56422438Y-76957200D01*
X56531961Y-77066723D01*
X56641485Y-76957200D01*
X56531961Y-76847676D01*
X56531961Y-77066723D01*
X58612914Y-79038152D02*
X58393866Y-79147676D01*
X57955771Y-79147676D01*
X57736723Y-79038152D01*
X57627200Y-78928628D01*
X57517676Y-78709580D01*
X57517676Y-78052438D01*
X57627200Y-77833390D01*
X57736723Y-77723866D01*
X57955771Y-77614342D01*
X58393866Y-77614342D01*
X58612914Y-77723866D01*
X60584342Y-79147676D02*
X60584342Y-77942914D01*
X60474819Y-77723866D01*
X60255771Y-77614342D01*
X59817676Y-77614342D01*
X59598628Y-77723866D01*
X60584342Y-79038152D02*
X60365295Y-79147676D01*
X59817676Y-79147676D01*
X59598628Y-79038152D01*
X59489104Y-78819104D01*
X59489104Y-78600057D01*
X59598628Y-78381009D01*
X59817676Y-78271485D01*
X60365295Y-78271485D01*
X60584342Y-78161961D01*
X62665295Y-79147676D02*
X62665295Y-76847676D01*
X62665295Y-79038152D02*
X62446247Y-79147676D01*
X62008152Y-79147676D01*
X61789104Y-79038152D01*
X61679580Y-78928628D01*
X61570057Y-78709580D01*
X61570057Y-78052438D01*
X61679580Y-77833390D01*
X61789104Y-77723866D01*
X62008152Y-77614342D01*
X62446247Y-77614342D01*
X62665295Y-77723866D01*
X66498628Y-76847676D02*
X66060533Y-76847676D01*
X65841485Y-76957200D01*
X65731961Y-77066723D01*
X65512914Y-77395295D01*
X65403390Y-77833390D01*
X65403390Y-78709580D01*
X65512914Y-78928628D01*
X65622438Y-79038152D01*
X65841485Y-79147676D01*
X66279580Y-79147676D01*
X66498628Y-79038152D01*
X66608152Y-78928628D01*
X66717676Y-78709580D01*
X66717676Y-78161961D01*
X66608152Y-77942914D01*
X66498628Y-77833390D01*
X66279580Y-77723866D01*
X65841485Y-77723866D01*
X65622438Y-77833390D01*
X65512914Y-77942914D01*
X65403390Y-78161961D01*
X67703390Y-78928628D02*
X67812914Y-79038152D01*
X67703390Y-79147676D01*
X67593866Y-79038152D01*
X67703390Y-78928628D01*
X67703390Y-79147676D01*
X69236723Y-76847676D02*
X69455771Y-76847676D01*
X69674819Y-76957200D01*
X69784342Y-77066723D01*
X69893866Y-77285771D01*
X70003390Y-77723866D01*
X70003390Y-78271485D01*
X69893866Y-78709580D01*
X69784342Y-78928628D01*
X69674819Y-79038152D01*
X69455771Y-79147676D01*
X69236723Y-79147676D01*
X69017676Y-79038152D01*
X68908152Y-78928628D01*
X68798628Y-78709580D01*
X68689104Y-78271485D01*
X68689104Y-77723866D01*
X68798628Y-77285771D01*
X68908152Y-77066723D01*
X69017676Y-76957200D01*
X69236723Y-76847676D01*
X70989104Y-78928628D02*
X71098628Y-79038152D01*
X70989104Y-79147676D01*
X70879580Y-79038152D01*
X70989104Y-78928628D01*
X70989104Y-79147676D01*
X73070057Y-77614342D02*
X73070057Y-79147676D01*
X72522438Y-76738152D02*
X71974819Y-78381009D01*
X73398628Y-78381009D01*
X74274819Y-78271485D02*
X76027200Y-78271485D01*
X78108152Y-76847676D02*
X77670057Y-76847676D01*
X77451009Y-76957200D01*
X77341485Y-77066723D01*
X77122438Y-77395295D01*
X77012914Y-77833390D01*
X77012914Y-78709580D01*
X77122438Y-78928628D01*
X77231961Y-79038152D01*
X77451009Y-79147676D01*
X77889104Y-79147676D01*
X78108152Y-79038152D01*
X78217676Y-78928628D01*
X78327200Y-78709580D01*
X78327200Y-78161961D01*
X78217676Y-77942914D01*
X78108152Y-77833390D01*
X77889104Y-77723866D01*
X77451009Y-77723866D01*
X77231961Y-77833390D01*
X77122438Y-77942914D01*
X77012914Y-78161961D01*
X78984342Y-77614342D02*
X79860533Y-77614342D01*
X79312914Y-79147676D02*
X79312914Y-77176247D01*
X79422438Y-76957200D01*
X79641485Y-76847676D01*
X79860533Y-76847676D01*
X80955771Y-77833390D02*
X80736723Y-77723866D01*
X80627200Y-77614342D01*
X80517676Y-77395295D01*
X80517676Y-77285771D01*
X80627200Y-77066723D01*
X80736723Y-76957200D01*
X80955771Y-76847676D01*
X81393866Y-76847676D01*
X81612914Y-76957200D01*
X81722438Y-77066723D01*
X81831961Y-77285771D01*
X81831961Y-77395295D01*
X81722438Y-77614342D01*
X81612914Y-77723866D01*
X81393866Y-77833390D01*
X80955771Y-77833390D01*
X80736723Y-77942914D01*
X80627200Y-78052438D01*
X80517676Y-78271485D01*
X80517676Y-78709580D01*
X80627200Y-78928628D01*
X80736723Y-79038152D01*
X80955771Y-79147676D01*
X81393866Y-79147676D01*
X81612914Y-79038152D01*
X81722438Y-78928628D01*
X81831961Y-78709580D01*
X81831961Y-78271485D01*
X81722438Y-78052438D01*
X81612914Y-77942914D01*
X81393866Y-77833390D01*
X82708152Y-77066723D02*
X82817676Y-76957200D01*
X83036723Y-76847676D01*
X83584342Y-76847676D01*
X83803390Y-76957200D01*
X83912914Y-77066723D01*
X84022438Y-77285771D01*
X84022438Y-77504819D01*
X83912914Y-77833390D01*
X82598628Y-79147676D01*
X84022438Y-79147676D01*
X85993866Y-76847676D02*
X85555771Y-76847676D01*
X85336723Y-76957200D01*
X85227200Y-77066723D01*
X85008152Y-77395295D01*
X84898628Y-77833390D01*
X84898628Y-78709580D01*
X85008152Y-78928628D01*
X85117676Y-79038152D01*
X85336723Y-79147676D01*
X85774819Y-79147676D01*
X85993866Y-79038152D01*
X86103390Y-78928628D01*
X86212914Y-78709580D01*
X86212914Y-78161961D01*
X86103390Y-77942914D01*
X85993866Y-77833390D01*
X85774819Y-77723866D01*
X85336723Y-77723866D01*
X85117676Y-77833390D01*
X85008152Y-77942914D01*
X84898628Y-78161961D01*
X88184342Y-79038152D02*
X87965295Y-79147676D01*
X87527200Y-79147676D01*
X87308152Y-79038152D01*
X87198628Y-78928628D01*
X87089104Y-78709580D01*
X87089104Y-78052438D01*
X87198628Y-77833390D01*
X87308152Y-77723866D01*
X87527200Y-77614342D01*
X87965295Y-77614342D01*
X88184342Y-77723866D01*
X89279580Y-79147676D02*
X89717676Y-79147676D01*
X89936723Y-79038152D01*
X90046247Y-78928628D01*
X90265295Y-78600057D01*
X90374819Y-78161961D01*
X90374819Y-77285771D01*
X90265295Y-77066723D01*
X90155771Y-76957200D01*
X89936723Y-76847676D01*
X89498628Y-76847676D01*
X89279580Y-76957200D01*
X89170057Y-77066723D01*
X89060533Y-77285771D01*
X89060533Y-77833390D01*
X89170057Y-78052438D01*
X89279580Y-78161961D01*
X89498628Y-78271485D01*
X89936723Y-78271485D01*
X90155771Y-78161961D01*
X90265295Y-78052438D01*
X90374819Y-77833390D01*
X91031961Y-77614342D02*
X91908152Y-77614342D01*
X91360533Y-79147676D02*
X91360533Y-77176247D01*
X91470057Y-76957200D01*
X91689104Y-76847676D01*
X91908152Y-76847676D01*
X92455771Y-76847676D02*
X93879580Y-76847676D01*
X93112914Y-77723866D01*
X93441485Y-77723866D01*
X93660533Y-77833390D01*
X93770057Y-77942914D01*
X93879580Y-78161961D01*
X93879580Y-78709580D01*
X93770057Y-78928628D01*
X93660533Y-79038152D01*
X93441485Y-79147676D01*
X92784342Y-79147676D01*
X92565295Y-79038152D01*
X92455771Y-78928628D01*
X95960533Y-76847676D02*
X94865295Y-76847676D01*
X94755771Y-77942914D01*
X94865295Y-77833390D01*
X95084342Y-77723866D01*
X95631961Y-77723866D01*
X95851009Y-77833390D01*
X95960533Y-77942914D01*
X96070057Y-78161961D01*
X96070057Y-78709580D01*
X95960533Y-78928628D01*
X95851009Y-79038152D01*
X95631961Y-79147676D01*
X95084342Y-79147676D01*
X94865295Y-79038152D01*
X94755771Y-78928628D01*
X96727200Y-78271485D02*
X96836723Y-78161961D01*
X97055771Y-78052438D01*
X97493866Y-78271485D01*
X97712914Y-78161961D01*
X97822438Y-78052438D01*
X99903390Y-79147676D02*
X98589104Y-79147676D01*
X99246247Y-79147676D02*
X99246247Y-76847676D01*
X99027200Y-77176247D01*
X98808152Y-77395295D01*
X98589104Y-77504819D01*
X102093866Y-79147676D02*
X100779580Y-79147676D01*
X101436723Y-79147676D02*
X101436723Y-76847676D01*
X101217676Y-77176247D01*
X100998628Y-77395295D01*
X100779580Y-77504819D01*
X104065295Y-76847676D02*
X103627200Y-76847676D01*
X103408152Y-76957200D01*
X103298628Y-77066723D01*
X103079580Y-77395295D01*
X102970057Y-77833390D01*
X102970057Y-78709580D01*
X103079580Y-78928628D01*
X103189104Y-79038152D01*
X103408152Y-79147676D01*
X103846247Y-79147676D01*
X104065295Y-79038152D01*
X104174819Y-78928628D01*
X104284342Y-78709580D01*
X104284342Y-78161961D01*
X104174819Y-77942914D01*
X104065295Y-77833390D01*
X103846247Y-77723866D01*
X103408152Y-77723866D01*
X103189104Y-77833390D01*
X103079580Y-77942914D01*
X102970057Y-78161961D01*
X104941485Y-78271485D02*
X105051009Y-78161961D01*
X105270057Y-78052438D01*
X105708152Y-78271485D01*
X105927200Y-78161961D01*
X106036723Y-78052438D01*
X107898628Y-77614342D02*
X107898628Y-79147676D01*
X106912914Y-77614342D02*
X106912914Y-78819104D01*
X107022438Y-79038152D01*
X107241485Y-79147676D01*
X107570057Y-79147676D01*
X107789104Y-79038152D01*
X107898628Y-78928628D01*
X108993866Y-79147676D02*
X108993866Y-76847676D01*
X108993866Y-77723866D02*
X109212914Y-77614342D01*
X109651009Y-77614342D01*
X109870057Y-77723866D01*
X109979580Y-77833390D01*
X110089104Y-78052438D01*
X110089104Y-78709580D01*
X109979580Y-78928628D01*
X109870057Y-79038152D01*
X109651009Y-79147676D01*
X109212914Y-79147676D01*
X108993866Y-79038152D01*
X112060533Y-77614342D02*
X112060533Y-79147676D01*
X111074819Y-77614342D02*
X111074819Y-78819104D01*
X111184342Y-79038152D01*
X111403390Y-79147676D01*
X111731961Y-79147676D01*
X111951009Y-79038152D01*
X112060533Y-78928628D01*
X113155771Y-77614342D02*
X113155771Y-79147676D01*
X113155771Y-77833390D02*
X113265295Y-77723866D01*
X113484342Y-77614342D01*
X113812914Y-77614342D01*
X114031961Y-77723866D01*
X114141485Y-77942914D01*
X114141485Y-79147676D01*
X114908152Y-77614342D02*
X115784342Y-77614342D01*
X115236723Y-76847676D02*
X115236723Y-78819104D01*
X115346247Y-79038152D01*
X115565295Y-79147676D01*
X115784342Y-79147676D01*
X117536723Y-77614342D02*
X117536723Y-79147676D01*
X116551009Y-77614342D02*
X116551009Y-78819104D01*
X116660533Y-79038152D01*
X116879580Y-79147676D01*
X117208152Y-79147676D01*
X117427200Y-79038152D01*
X117536723Y-78928628D01*
X119836723Y-79147676D02*
X118522438Y-79147676D01*
X119179580Y-79147676D02*
X119179580Y-76847676D01*
X118960533Y-77176247D01*
X118741485Y-77395295D01*
X118522438Y-77504819D01*
X121151009Y-77833390D02*
X120931961Y-77723866D01*
X120822438Y-77614342D01*
X120712914Y-77395295D01*
X120712914Y-77285771D01*
X120822438Y-77066723D01*
X120931961Y-76957200D01*
X121151009Y-76847676D01*
X121589104Y-76847676D01*
X121808152Y-76957200D01*
X121917676Y-77066723D01*
X122027200Y-77285771D01*
X122027200Y-77395295D01*
X121917676Y-77614342D01*
X121808152Y-77723866D01*
X121589104Y-77833390D01*
X121151009Y-77833390D01*
X120931961Y-77942914D01*
X120822438Y-78052438D01*
X120712914Y-78271485D01*
X120712914Y-78709580D01*
X120822438Y-78928628D01*
X120931961Y-79038152D01*
X121151009Y-79147676D01*
X121589104Y-79147676D01*
X121808152Y-79038152D01*
X121917676Y-78928628D01*
X122027200Y-78709580D01*
X122027200Y-78271485D01*
X121917676Y-78052438D01*
X121808152Y-77942914D01*
X121589104Y-77833390D01*
X123012914Y-78928628D02*
X123122438Y-79038152D01*
X123012914Y-79147676D01*
X122903390Y-79038152D01*
X123012914Y-78928628D01*
X123012914Y-79147676D01*
X124546247Y-76847676D02*
X124765295Y-76847676D01*
X124984342Y-76957200D01*
X125093866Y-77066723D01*
X125203390Y-77285771D01*
X125312914Y-77723866D01*
X125312914Y-78271485D01*
X125203390Y-78709580D01*
X125093866Y-78928628D01*
X124984342Y-79038152D01*
X124765295Y-79147676D01*
X124546247Y-79147676D01*
X124327200Y-79038152D01*
X124217676Y-78928628D01*
X124108152Y-78709580D01*
X123998628Y-78271485D01*
X123998628Y-77723866D01*
X124108152Y-77285771D01*
X124217676Y-77066723D01*
X124327200Y-76957200D01*
X124546247Y-76847676D01*
X127284342Y-77614342D02*
X127284342Y-79147676D01*
X126736723Y-76738152D02*
X126189104Y-78381009D01*
X127612914Y-78381009D01*
X128489104Y-78928628D02*
X128598628Y-79038152D01*
X128489104Y-79147676D01*
X128379580Y-79038152D01*
X128489104Y-78928628D01*
X128489104Y-79147676D01*
X130789104Y-79147676D02*
X129474819Y-79147676D01*
X130131961Y-79147676D02*
X130131961Y-76847676D01*
X129912914Y-77176247D01*
X129693866Y-77395295D01*
X129474819Y-77504819D01*
D10*
D11*
X27124819Y-37647676D02*
X27124819Y-35347676D01*
X28110533Y-37538152D02*
X28439104Y-37647676D01*
X28986723Y-37647676D01*
X29205771Y-37538152D01*
X29315295Y-37428628D01*
X29424819Y-37209580D01*
X29424819Y-36990533D01*
X29315295Y-36771485D01*
X29205771Y-36661961D01*
X28986723Y-36552438D01*
X28548628Y-36442914D01*
X28329580Y-36333390D01*
X28220057Y-36223866D01*
X28110533Y-36004819D01*
X28110533Y-35785771D01*
X28220057Y-35566723D01*
X28329580Y-35457200D01*
X28548628Y-35347676D01*
X29096247Y-35347676D01*
X29424819Y-35457200D01*
X30848628Y-35347676D02*
X31286723Y-35347676D01*
X31505771Y-35457200D01*
X31724819Y-35676247D01*
X31834342Y-36114342D01*
X31834342Y-36881009D01*
X31724819Y-37319104D01*
X31505771Y-37538152D01*
X31286723Y-37647676D01*
X30848628Y-37647676D01*
X30629580Y-37538152D01*
X30410533Y-37319104D01*
X30301009Y-36881009D01*
X30301009Y-36114342D01*
X30410533Y-35676247D01*
X30629580Y-35457200D01*
X30848628Y-35347676D01*
X32601009Y-35347676D02*
X34134342Y-35347676D01*
X33148628Y-37647676D01*
X34901009Y-35566723D02*
X35010533Y-35457200D01*
X35229580Y-35347676D01*
X35777200Y-35347676D01*
X35996247Y-35457200D01*
X36105771Y-35566723D01*
X36215295Y-35785771D01*
X36215295Y-36004819D01*
X36105771Y-36333390D01*
X34791485Y-37647676D01*
X36215295Y-37647676D01*
X37639104Y-35347676D02*
X37858152Y-35347676D01*
X38077200Y-35457200D01*
X38186723Y-35566723D01*
X38296247Y-35785771D01*
X38405771Y-36223866D01*
X38405771Y-36771485D01*
X38296247Y-37209580D01*
X38186723Y-37428628D01*
X38077200Y-37538152D01*
X37858152Y-37647676D01*
X37639104Y-37647676D01*
X37420057Y-37538152D01*
X37310533Y-37428628D01*
X37201009Y-37209580D01*
X37091485Y-36771485D01*
X37091485Y-36223866D01*
X37201009Y-35785771D01*
X37310533Y-35566723D01*
X37420057Y-35457200D01*
X37639104Y-35347676D01*
X39829580Y-35347676D02*
X40048628Y-35347676D01*
X40267676Y-35457200D01*
X40377200Y-35566723D01*
X40486723Y-35785771D01*
X40596247Y-36223866D01*
X40596247Y-36771485D01*
X40486723Y-37209580D01*
X40377200Y-37428628D01*
X40267676Y-37538152D01*
X40048628Y-37647676D01*
X39829580Y-37647676D01*
X39610533Y-37538152D01*
X39501009Y-37428628D01*
X39391485Y-37209580D01*
X39281961Y-36771485D01*
X39281961Y-36223866D01*
X39391485Y-35785771D01*
X39501009Y-35566723D01*
X39610533Y-35457200D01*
X39829580Y-35347676D01*
X41581961Y-36771485D02*
X43334342Y-36771485D01*
X44320057Y-35566723D02*
X44429580Y-35457200D01*
X44648628Y-35347676D01*
X45196247Y-35347676D01*
X45415295Y-35457200D01*
X45524819Y-35566723D01*
X45634342Y-35785771D01*
X45634342Y-36004819D01*
X45524819Y-36333390D01*
X44210533Y-37647676D01*
X45634342Y-37647676D01*
X47058152Y-35347676D02*
X47277200Y-35347676D01*
X47496247Y-35457200D01*
X47605771Y-35566723D01*
X47715295Y-35785771D01*
X47824819Y-36223866D01*
X47824819Y-36771485D01*
X47715295Y-37209580D01*
X47605771Y-37428628D01*
X47496247Y-37538152D01*
X47277200Y-37647676D01*
X47058152Y-37647676D01*
X46839104Y-37538152D01*
X46729580Y-37428628D01*
X46620057Y-37209580D01*
X46510533Y-36771485D01*
X46510533Y-36223866D01*
X46620057Y-35785771D01*
X46729580Y-35566723D01*
X46839104Y-35457200D01*
X47058152Y-35347676D01*
X49248628Y-35347676D02*
X49467676Y-35347676D01*
X49686723Y-35457200D01*
X49796247Y-35566723D01*
X49905771Y-35785771D01*
X50015295Y-36223866D01*
X50015295Y-36771485D01*
X49905771Y-37209580D01*
X49796247Y-37428628D01*
X49686723Y-37538152D01*
X49467676Y-37647676D01*
X49248628Y-37647676D01*
X49029580Y-37538152D01*
X48920057Y-37428628D01*
X48810533Y-37209580D01*
X48701009Y-36771485D01*
X48701009Y-36223866D01*
X48810533Y-35785771D01*
X48920057Y-35566723D01*
X49029580Y-35457200D01*
X49248628Y-35347676D01*
X51986723Y-36114342D02*
X51986723Y-37647676D01*
X51439104Y-35238152D02*
X50891485Y-36881009D01*
X52315295Y-36881009D01*
D10*
D11*
X111015295Y-36990533D02*
X112110533Y-36990533D01*
X110796247Y-37647676D02*
X111562914Y-35347676D01*
X112329580Y-37647676D01*
X114081961Y-36114342D02*
X114081961Y-37647676D01*
X113534342Y-35238152D02*
X112986723Y-36881009D01*
X114410533Y-36881009D01*
D10*
D11*
D10*
D14*
X111043152Y-33416723D02*
X111328866Y-33511961D01*
X111805057Y-33511961D01*
X111995533Y-33416723D01*
X112090771Y-33321485D01*
X112186009Y-33131009D01*
X112186009Y-32940533D01*
X112090771Y-32750057D01*
X111995533Y-32654819D01*
X111805057Y-32559580D01*
X111424104Y-32464342D01*
X111233628Y-32369104D01*
X111138390Y-32273866D01*
X111043152Y-32083390D01*
X111043152Y-31892914D01*
X111138390Y-31702438D01*
X111233628Y-31607200D01*
X111424104Y-31511961D01*
X111900295Y-31511961D01*
X112186009Y-31607200D01*
X113043152Y-33511961D02*
X113043152Y-31511961D01*
X113805057Y-31511961D02*
X115138390Y-31511961D01*
X113805057Y-33511961D01*
X115138390Y-33511961D01*
X115900295Y-32464342D02*
X116566961Y-32464342D01*
X116852676Y-33511961D02*
X115900295Y-33511961D01*
X115900295Y-31511961D01*
X116852676Y-31511961D01*
D10*
D14*
X-47147324Y-67511961D02*
X-46004467Y-67511961D01*
X-46575896Y-69511961D02*
X-46575896Y-67511961D01*
X-45337800Y-69511961D02*
X-45337800Y-67511961D01*
X-44671134Y-67511961D02*
X-43528277Y-67511961D01*
X-44099705Y-69511961D02*
X-44099705Y-67511961D01*
X-41909229Y-69511961D02*
X-42861610Y-69511961D01*
X-42861610Y-67511961D01*
X-41242562Y-68464342D02*
X-40575896Y-68464342D01*
X-40290181Y-69511961D02*
X-41242562Y-69511961D01*
X-41242562Y-67511961D01*
X-40290181Y-67511961D01*
D10*
D11*
X-46875181Y-73647676D02*
X-46875181Y-71347676D01*
X-44465658Y-73647676D02*
X-45232324Y-72552438D01*
X-45779943Y-73647676D02*
X-45779943Y-71347676D01*
X-44903753Y-71347676D01*
X-44684705Y-71457200D01*
X-44575181Y-71566723D01*
X-44465658Y-71785771D01*
X-44465658Y-72114342D01*
X-44575181Y-72333390D01*
X-44684705Y-72442914D01*
X-44903753Y-72552438D01*
X-45779943Y-72552438D01*
X-43479943Y-73647676D02*
X-43479943Y-71347676D01*
X-42713277Y-72990533D01*
X-41946610Y-71347676D01*
X-41946610Y-73647676D01*
X-40851372Y-72771485D02*
X-39098991Y-72771485D01*
X-37565658Y-71347676D02*
X-37346610Y-71347676D01*
X-37127562Y-71457200D01*
X-37018039Y-71566723D01*
X-36908515Y-71785771D01*
X-36798991Y-72223866D01*
X-36798991Y-72771485D01*
X-36908515Y-73209580D01*
X-37018039Y-73428628D01*
X-37127562Y-73538152D01*
X-37346610Y-73647676D01*
X-37565658Y-73647676D01*
X-37784705Y-73538152D01*
X-37894229Y-73428628D01*
X-38003753Y-73209580D01*
X-38113277Y-72771485D01*
X-38113277Y-72223866D01*
X-38003753Y-71785771D01*
X-37894229Y-71566723D01*
X-37784705Y-71457200D01*
X-37565658Y-71347676D01*
X-36032324Y-71347676D02*
X-34608515Y-71347676D01*
X-35375181Y-72223866D01*
X-35046610Y-72223866D01*
X-34827562Y-72333390D01*
X-34718039Y-72442914D01*
X-34608515Y-72661961D01*
X-34608515Y-73209580D01*
X-34718039Y-73428628D01*
X-34827562Y-73538152D01*
X-35046610Y-73647676D01*
X-35703753Y-73647676D01*
X-35922800Y-73538152D01*
X-36032324Y-73428628D01*
X-33622800Y-72771485D02*
X-31870420Y-72771485D01*
X-30884705Y-71566723D02*
X-30775181Y-71457200D01*
X-30556134Y-71347676D01*
X-30008515Y-71347676D01*
X-29789467Y-71457200D01*
X-29679943Y-71566723D01*
X-29570420Y-71785771D01*
X-29570420Y-72004819D01*
X-29679943Y-72333390D01*
X-30994229Y-73647676D01*
X-29570420Y-73647676D01*
X-27598991Y-72114342D02*
X-27598991Y-73647676D01*
X-28146610Y-71238152D02*
X-28694229Y-72881009D01*
X-27270420Y-72881009D01*
X-24751372Y-72990533D02*
X-23656134Y-72990533D01*
X-24970420Y-73647676D02*
X-24203753Y-71347676D01*
X-23437086Y-73647676D01*
X-21356134Y-73428628D02*
X-21465658Y-73538152D01*
X-21794229Y-73647676D01*
X-22013277Y-73647676D01*
X-22341848Y-73538152D01*
X-22560896Y-73319104D01*
X-22670420Y-73100057D01*
X-22779943Y-72661961D01*
X-22779943Y-72333390D01*
X-22670420Y-71895295D01*
X-22560896Y-71676247D01*
X-22341848Y-71457200D01*
X-22013277Y-71347676D01*
X-21794229Y-71347676D01*
X-21465658Y-71457200D01*
X-21356134Y-71566723D01*
X-18727562Y-71238152D02*
X-20698991Y-74195295D01*
X-17960896Y-73647676D02*
X-17960896Y-71347676D01*
X-17413277Y-71347676D01*
X-17084705Y-71457200D01*
X-16865658Y-71676247D01*
X-16756134Y-71895295D01*
X-16646610Y-72333390D01*
X-16646610Y-72661961D01*
X-16756134Y-73100057D01*
X-16865658Y-73319104D01*
X-17084705Y-73538152D01*
X-17413277Y-73647676D01*
X-17960896Y-73647676D01*
X-14346610Y-73428628D02*
X-14456134Y-73538152D01*
X-14784705Y-73647676D01*
X-15003753Y-73647676D01*
X-15332324Y-73538152D01*
X-15551372Y-73319104D01*
X-15660896Y-73100057D01*
X-15770420Y-72661961D01*
X-15770420Y-72333390D01*
X-15660896Y-71895295D01*
X-15551372Y-71676247D01*
X-15332324Y-71457200D01*
X-15003753Y-71347676D01*
X-14784705Y-71347676D01*
X-14456134Y-71457200D01*
X-14346610Y-71566723D01*
X-11608515Y-73647676D02*
X-11608515Y-71347676D01*
X-10732324Y-71347676D01*
X-10513277Y-71457200D01*
X-10403753Y-71566723D01*
X-10294229Y-71785771D01*
X-10294229Y-72114342D01*
X-10403753Y-72333390D01*
X-10513277Y-72442914D01*
X-10732324Y-72552438D01*
X-11608515Y-72552438D01*
X-8870420Y-71347676D02*
X-8432324Y-71347676D01*
X-8213277Y-71457200D01*
X-7994229Y-71676247D01*
X-7884705Y-72114342D01*
X-7884705Y-72881009D01*
X-7994229Y-73319104D01*
X-8213277Y-73538152D01*
X-8432324Y-73647676D01*
X-8870420Y-73647676D01*
X-9089467Y-73538152D01*
X-9308515Y-73319104D01*
X-9418039Y-72881009D01*
X-9418039Y-72114342D01*
X-9308515Y-71676247D01*
X-9089467Y-71457200D01*
X-8870420Y-71347676D01*
X-7118039Y-71347676D02*
X-6570420Y-73647676D01*
X-6132324Y-72004819D01*
X-5694229Y-73647676D01*
X-5146610Y-71347676D01*
X-4270420Y-72442914D02*
X-3503753Y-72442914D01*
X-3175181Y-73647676D02*
X-4270420Y-73647676D01*
X-4270420Y-71347676D01*
X-3175181Y-71347676D01*
X-875181Y-73647676D02*
X-1641848Y-72552438D01*
X-2189467Y-73647676D02*
X-2189467Y-71347676D01*
X-1313277Y-71347676D01*
X-1094229Y-71457200D01*
X-984705Y-71566723D01*
X-875181Y-71785771D01*
X-875181Y-72114342D01*
X-984705Y-72333390D01*
X-1094229Y-72442914D01*
X-1313277Y-72552438D01*
X-2189467Y-72552438D01*
X1753390Y-73538152D02*
X2081961Y-73647676D01*
X2629580Y-73647676D01*
X2848628Y-73538152D01*
X2958152Y-73428628D01*
X3067676Y-73209580D01*
X3067676Y-72990533D01*
X2958152Y-72771485D01*
X2848628Y-72661961D01*
X2629580Y-72552438D01*
X2191485Y-72442914D01*
X1972438Y-72333390D01*
X1862914Y-72223866D01*
X1753390Y-72004819D01*
X1753390Y-71785771D01*
X1862914Y-71566723D01*
X1972438Y-71457200D01*
X2191485Y-71347676D01*
X2739104Y-71347676D01*
X3067676Y-71457200D01*
X4053390Y-71347676D02*
X4053390Y-73209580D01*
X4162914Y-73428628D01*
X4272438Y-73538152D01*
X4491485Y-73647676D01*
X4929580Y-73647676D01*
X5148628Y-73538152D01*
X5258152Y-73428628D01*
X5367676Y-73209580D01*
X5367676Y-71347676D01*
X6462914Y-73647676D02*
X6462914Y-71347676D01*
X7339104Y-71347676D01*
X7558152Y-71457200D01*
X7667676Y-71566723D01*
X7777200Y-71785771D01*
X7777200Y-72114342D01*
X7667676Y-72333390D01*
X7558152Y-72442914D01*
X7339104Y-72552438D01*
X6462914Y-72552438D01*
X8762914Y-73647676D02*
X8762914Y-71347676D01*
X9639104Y-71347676D01*
X9858152Y-71457200D01*
X9967676Y-71566723D01*
X10077200Y-71785771D01*
X10077200Y-72114342D01*
X9967676Y-72333390D01*
X9858152Y-72442914D01*
X9639104Y-72552438D01*
X8762914Y-72552438D01*
X12158152Y-73647676D02*
X11062914Y-73647676D01*
X11062914Y-71347676D01*
X13362914Y-72552438D02*
X13362914Y-73647676D01*
X12596247Y-71347676D02*
X13362914Y-72552438D01*
X14129580Y-71347676D01*
D10*
D11*
X-46984705Y-62566723D02*
X-46875181Y-62457200D01*
X-46656134Y-62347676D01*
X-46108515Y-62347676D01*
X-45889467Y-62457200D01*
X-45779943Y-62566723D01*
X-45670420Y-62785771D01*
X-45670420Y-63004819D01*
X-45779943Y-63333390D01*
X-47094229Y-64647676D01*
X-45670420Y-64647676D01*
X-44903753Y-62347676D02*
X-43479943Y-62347676D01*
X-44246610Y-63223866D01*
X-43918039Y-63223866D01*
X-43698991Y-63333390D01*
X-43589467Y-63442914D01*
X-43479943Y-63661961D01*
X-43479943Y-64209580D01*
X-43589467Y-64428628D01*
X-43698991Y-64538152D01*
X-43918039Y-64647676D01*
X-44575181Y-64647676D01*
X-44794229Y-64538152D01*
X-44903753Y-64428628D01*
X-42056134Y-62347676D02*
X-41837086Y-62347676D01*
X-41618039Y-62457200D01*
X-41508515Y-62566723D01*
X-41398991Y-62785771D01*
X-41289467Y-63223866D01*
X-41289467Y-63771485D01*
X-41398991Y-64209580D01*
X-41508515Y-64428628D01*
X-41618039Y-64538152D01*
X-41837086Y-64647676D01*
X-42056134Y-64647676D01*
X-42275181Y-64538152D01*
X-42384705Y-64428628D01*
X-42494229Y-64209580D01*
X-42603753Y-63771485D01*
X-42603753Y-63223866D01*
X-42494229Y-62785771D01*
X-42384705Y-62566723D01*
X-42275181Y-62457200D01*
X-42056134Y-62347676D01*
X-40632324Y-62347676D02*
X-39865658Y-64647676D01*
X-39098991Y-62347676D01*
X-37346610Y-64647676D02*
X-37346610Y-63442914D01*
X-37456134Y-63223866D01*
X-37675181Y-63114342D01*
X-38113277Y-63114342D01*
X-38332324Y-63223866D01*
X-37346610Y-64538152D02*
X-37565658Y-64647676D01*
X-38113277Y-64647676D01*
X-38332324Y-64538152D01*
X-38441848Y-64319104D01*
X-38441848Y-64100057D01*
X-38332324Y-63881009D01*
X-38113277Y-63771485D01*
X-37565658Y-63771485D01*
X-37346610Y-63661961D01*
X-35265658Y-64538152D02*
X-35484705Y-64647676D01*
X-35922800Y-64647676D01*
X-36141848Y-64538152D01*
X-36251372Y-64428628D01*
X-36360896Y-64209580D01*
X-36360896Y-63552438D01*
X-36251372Y-63333390D01*
X-36141848Y-63223866D01*
X-35922800Y-63114342D01*
X-35484705Y-63114342D01*
X-35265658Y-63223866D01*
X-32527562Y-64647676D02*
X-32527562Y-63114342D01*
X-32527562Y-62347676D02*
X-32637086Y-62457200D01*
X-32527562Y-62566723D01*
X-32418039Y-62457200D01*
X-32527562Y-62347676D01*
X-32527562Y-62566723D01*
X-31432324Y-63114342D02*
X-31432324Y-64647676D01*
X-31432324Y-63333390D02*
X-31322800Y-63223866D01*
X-31103753Y-63114342D01*
X-30775181Y-63114342D01*
X-30556134Y-63223866D01*
X-30446610Y-63442914D01*
X-30446610Y-64647676D01*
X-29351372Y-63114342D02*
X-29351372Y-65414342D01*
X-29351372Y-63223866D02*
X-29132324Y-63114342D01*
X-28694229Y-63114342D01*
X-28475181Y-63223866D01*
X-28365658Y-63333390D01*
X-28256134Y-63552438D01*
X-28256134Y-64209580D01*
X-28365658Y-64428628D01*
X-28475181Y-64538152D01*
X-28694229Y-64647676D01*
X-29132324Y-64647676D01*
X-29351372Y-64538152D01*
X-26284705Y-63114342D02*
X-26284705Y-64647676D01*
X-27270420Y-63114342D02*
X-27270420Y-64319104D01*
X-27160896Y-64538152D01*
X-26941848Y-64647676D01*
X-26613277Y-64647676D01*
X-26394229Y-64538152D01*
X-26284705Y-64428628D01*
X-25518039Y-63114342D02*
X-24641848Y-63114342D01*
X-25189467Y-62347676D02*
X-25189467Y-64319104D01*
X-25079943Y-64538152D01*
X-24860896Y-64647676D01*
X-24641848Y-64647676D01*
X-23875181Y-64428628D02*
X-23765658Y-64538152D01*
X-23875181Y-64647676D01*
X-23984705Y-64538152D01*
X-23875181Y-64428628D01*
X-23875181Y-64647676D01*
X-21137086Y-62566723D02*
X-21027562Y-62457200D01*
X-20808515Y-62347676D01*
X-20260896Y-62347676D01*
X-20041848Y-62457200D01*
X-19932324Y-62566723D01*
X-19822800Y-62785771D01*
X-19822800Y-63004819D01*
X-19932324Y-63333390D01*
X-21246610Y-64647676D01*
X-19822800Y-64647676D01*
X-17851372Y-63114342D02*
X-17851372Y-64647676D01*
X-18398991Y-62238152D02*
X-18946610Y-63881009D01*
X-17522800Y-63881009D01*
X-16975181Y-62347676D02*
X-16208515Y-64647676D01*
X-15441848Y-62347676D01*
X-13689467Y-64647676D02*
X-13689467Y-62347676D01*
X-13689467Y-64538152D02*
X-13908515Y-64647676D01*
X-14346610Y-64647676D01*
X-14565658Y-64538152D01*
X-14675181Y-64428628D01*
X-14784705Y-64209580D01*
X-14784705Y-63552438D01*
X-14675181Y-63333390D01*
X-14565658Y-63223866D01*
X-14346610Y-63114342D01*
X-13908515Y-63114342D01*
X-13689467Y-63223866D01*
X-11608515Y-64538152D02*
X-11827562Y-64647676D01*
X-12265658Y-64647676D01*
X-12484705Y-64538152D01*
X-12594229Y-64428628D01*
X-12703753Y-64209580D01*
X-12703753Y-63552438D01*
X-12594229Y-63333390D01*
X-12484705Y-63223866D01*
X-12265658Y-63114342D01*
X-11827562Y-63114342D01*
X-11608515Y-63223866D01*
X-8979943Y-62238152D02*
X-10951372Y-65195295D01*
X-7008515Y-64647676D02*
X-8322800Y-64647676D01*
X-7665658Y-64647676D02*
X-7665658Y-62347676D01*
X-7884705Y-62676247D01*
X-8103753Y-62895295D01*
X-8322800Y-63004819D01*
X-6132324Y-62566723D02*
X-6022800Y-62457200D01*
X-5803753Y-62347676D01*
X-5256134Y-62347676D01*
X-5037086Y-62457200D01*
X-4927562Y-62566723D01*
X-4818039Y-62785771D01*
X-4818039Y-63004819D01*
X-4927562Y-63333390D01*
X-6241848Y-64647676D01*
X-4818039Y-64647676D01*
X-2737086Y-62347676D02*
X-3832324Y-62347676D01*
X-3941848Y-63442914D01*
X-3832324Y-63333390D01*
X-3613277Y-63223866D01*
X-3065658Y-63223866D01*
X-2846610Y-63333390D01*
X-2737086Y-63442914D01*
X-2627562Y-63661961D01*
X-2627562Y-64209580D01*
X-2737086Y-64428628D01*
X-2846610Y-64538152D01*
X-3065658Y-64647676D01*
X-3613277Y-64647676D01*
X-3832324Y-64538152D01*
X-3941848Y-64428628D01*
X-1641848Y-64647676D02*
X-1641848Y-63114342D01*
X-1641848Y-63333390D02*
X-1532324Y-63223866D01*
X-1313277Y-63114342D01*
X-984705Y-63114342D01*
X-765658Y-63223866D01*
X-656134Y-63442914D01*
X-656134Y-64647676D01*
X-656134Y-63442914D02*
X-546610Y-63223866D01*
X-327562Y-63114342D01*
X1009Y-63114342D01*
X220057Y-63223866D01*
X329580Y-63442914D01*
X329580Y-64647676D01*
X1315295Y-63990533D02*
X2410533Y-63990533D01*
X1096247Y-64647676D02*
X1862914Y-62347676D01*
X2629580Y-64647676D01*
X5039104Y-62238152D02*
X3067676Y-65195295D01*
X5586723Y-62347676D02*
X7010533Y-62347676D01*
X6243866Y-63223866D01*
X6572438Y-63223866D01*
X6791485Y-63333390D01*
X6901009Y-63442914D01*
X7010533Y-63661961D01*
X7010533Y-64209580D01*
X6901009Y-64428628D01*
X6791485Y-64538152D01*
X6572438Y-64647676D01*
X5915295Y-64647676D01*
X5696247Y-64538152D01*
X5586723Y-64428628D01*
X7777200Y-62347676D02*
X8324819Y-64647676D01*
X8762914Y-63004819D01*
X9201009Y-64647676D01*
X9748628Y-62347676D01*
X12705771Y-64647676D02*
X12486723Y-64538152D01*
X12377200Y-64428628D01*
X12267676Y-64209580D01*
X12267676Y-63552438D01*
X12377200Y-63333390D01*
X12486723Y-63223866D01*
X12705771Y-63114342D01*
X13034342Y-63114342D01*
X13253390Y-63223866D01*
X13362914Y-63333390D01*
X13472438Y-63552438D01*
X13472438Y-64209580D01*
X13362914Y-64428628D01*
X13253390Y-64538152D01*
X13034342Y-64647676D01*
X12705771Y-64647676D01*
X15443866Y-63114342D02*
X15443866Y-64647676D01*
X14458152Y-63114342D02*
X14458152Y-64319104D01*
X14567676Y-64538152D01*
X14786723Y-64647676D01*
X15115295Y-64647676D01*
X15334342Y-64538152D01*
X15443866Y-64428628D01*
X16210533Y-63114342D02*
X17086723Y-63114342D01*
X16539104Y-62347676D02*
X16539104Y-64319104D01*
X16648628Y-64538152D01*
X16867676Y-64647676D01*
X17086723Y-64647676D01*
X17853390Y-63114342D02*
X17853390Y-65414342D01*
X17853390Y-63223866D02*
X18072438Y-63114342D01*
X18510533Y-63114342D01*
X18729580Y-63223866D01*
X18839104Y-63333390D01*
X18948628Y-63552438D01*
X18948628Y-64209580D01*
X18839104Y-64428628D01*
X18729580Y-64538152D01*
X18510533Y-64647676D01*
X18072438Y-64647676D01*
X17853390Y-64538152D01*
X20920057Y-63114342D02*
X20920057Y-64647676D01*
X19934342Y-63114342D02*
X19934342Y-64319104D01*
X20043866Y-64538152D01*
X20262914Y-64647676D01*
X20591485Y-64647676D01*
X20810533Y-64538152D01*
X20920057Y-64428628D01*
X21686723Y-63114342D02*
X22562914Y-63114342D01*
X22015295Y-62347676D02*
X22015295Y-64319104D01*
X22124819Y-64538152D01*
X22343866Y-64647676D01*
X22562914Y-64647676D01*
X23329580Y-64428628D02*
X23439104Y-64538152D01*
X23329580Y-64647676D01*
X23220057Y-64538152D01*
X23329580Y-64428628D01*
X23329580Y-64647676D01*
X27381961Y-64647676D02*
X26067676Y-64647676D01*
X26724819Y-64647676D02*
X26724819Y-62347676D01*
X26505771Y-62676247D01*
X26286723Y-62895295D01*
X26067676Y-63004819D01*
X31105771Y-63114342D02*
X31105771Y-64976247D01*
X30996247Y-65195295D01*
X30886723Y-65304819D01*
X30667676Y-65414342D01*
X30339104Y-65414342D01*
X30120057Y-65304819D01*
X31105771Y-64538152D02*
X30886723Y-64647676D01*
X30448628Y-64647676D01*
X30229580Y-64538152D01*
X30120057Y-64428628D01*
X30010533Y-64209580D01*
X30010533Y-63552438D01*
X30120057Y-63333390D01*
X30229580Y-63223866D01*
X30448628Y-63114342D01*
X30886723Y-63114342D01*
X31105771Y-63223866D01*
X33186723Y-64647676D02*
X33186723Y-63442914D01*
X33077200Y-63223866D01*
X32858152Y-63114342D01*
X32420057Y-63114342D01*
X32201009Y-63223866D01*
X33186723Y-64538152D02*
X32967676Y-64647676D01*
X32420057Y-64647676D01*
X32201009Y-64538152D01*
X32091485Y-64319104D01*
X32091485Y-64100057D01*
X32201009Y-63881009D01*
X32420057Y-63771485D01*
X32967676Y-63771485D01*
X33186723Y-63661961D01*
X35267676Y-63114342D02*
X35267676Y-64647676D01*
X34281961Y-63114342D02*
X34281961Y-64319104D01*
X34391485Y-64538152D01*
X34610533Y-64647676D01*
X34939104Y-64647676D01*
X35158152Y-64538152D01*
X35267676Y-64428628D01*
X37348628Y-63114342D02*
X37348628Y-64976247D01*
X37239104Y-65195295D01*
X37129580Y-65304819D01*
X36910533Y-65414342D01*
X36581961Y-65414342D01*
X36362914Y-65304819D01*
X37348628Y-64538152D02*
X37129580Y-64647676D01*
X36691485Y-64647676D01*
X36472438Y-64538152D01*
X36362914Y-64428628D01*
X36253390Y-64209580D01*
X36253390Y-63552438D01*
X36362914Y-63333390D01*
X36472438Y-63223866D01*
X36691485Y-63114342D01*
X37129580Y-63114342D01*
X37348628Y-63223866D01*
X39320057Y-64538152D02*
X39101009Y-64647676D01*
X38662914Y-64647676D01*
X38443866Y-64538152D01*
X38334342Y-64319104D01*
X38334342Y-63442914D01*
X38443866Y-63223866D01*
X38662914Y-63114342D01*
X39101009Y-63114342D01*
X39320057Y-63223866D01*
X39429580Y-63442914D01*
X39429580Y-63661961D01*
X38334342Y-63881009D01*
X42496247Y-64647676D02*
X42277200Y-64538152D01*
X42167676Y-64428628D01*
X42058152Y-64209580D01*
X42058152Y-63552438D01*
X42167676Y-63333390D01*
X42277200Y-63223866D01*
X42496247Y-63114342D01*
X42824819Y-63114342D01*
X43043866Y-63223866D01*
X43153390Y-63333390D01*
X43262914Y-63552438D01*
X43262914Y-64209580D01*
X43153390Y-64428628D01*
X43043866Y-64538152D01*
X42824819Y-64647676D01*
X42496247Y-64647676D01*
X45234342Y-63114342D02*
X45234342Y-64647676D01*
X44248628Y-63114342D02*
X44248628Y-64319104D01*
X44358152Y-64538152D01*
X44577200Y-64647676D01*
X44905771Y-64647676D01*
X45124819Y-64538152D01*
X45234342Y-64428628D01*
X46001009Y-63114342D02*
X46877200Y-63114342D01*
X46329580Y-62347676D02*
X46329580Y-64319104D01*
X46439104Y-64538152D01*
X46658152Y-64647676D01*
X46877200Y-64647676D01*
X47972438Y-64647676D02*
X47753390Y-64538152D01*
X47643866Y-64319104D01*
X47643866Y-62347676D01*
X49724819Y-64538152D02*
X49505771Y-64647676D01*
X49067676Y-64647676D01*
X48848628Y-64538152D01*
X48739104Y-64319104D01*
X48739104Y-63442914D01*
X48848628Y-63223866D01*
X49067676Y-63114342D01*
X49505771Y-63114342D01*
X49724819Y-63223866D01*
X49834342Y-63442914D01*
X49834342Y-63661961D01*
X48739104Y-63881009D01*
X50491485Y-63114342D02*
X51367676Y-63114342D01*
X50820057Y-62347676D02*
X50820057Y-64319104D01*
X50929580Y-64538152D01*
X51148628Y-64647676D01*
X51367676Y-64647676D01*
X53777200Y-64538152D02*
X53996247Y-64647676D01*
X54434342Y-64647676D01*
X54653390Y-64538152D01*
X54762914Y-64319104D01*
X54762914Y-64209580D01*
X54653390Y-63990533D01*
X54434342Y-63881009D01*
X54105771Y-63881009D01*
X53886723Y-63771485D01*
X53777200Y-63552438D01*
X53777200Y-63442914D01*
X53886723Y-63223866D01*
X54105771Y-63114342D01*
X54434342Y-63114342D01*
X54653390Y-63223866D01*
X55748628Y-64647676D02*
X55748628Y-63114342D01*
X55748628Y-62347676D02*
X55639104Y-62457200D01*
X55748628Y-62566723D01*
X55858152Y-62457200D01*
X55748628Y-62347676D01*
X55748628Y-62566723D01*
X56624819Y-63114342D02*
X57829580Y-63114342D01*
X56624819Y-64647676D01*
X57829580Y-64647676D01*
X59581961Y-64538152D02*
X59362914Y-64647676D01*
X58924819Y-64647676D01*
X58705771Y-64538152D01*
X58596247Y-64319104D01*
X58596247Y-63442914D01*
X58705771Y-63223866D01*
X58924819Y-63114342D01*
X59362914Y-63114342D01*
X59581961Y-63223866D01*
X59691485Y-63442914D01*
X59691485Y-63661961D01*
X58596247Y-63881009D01*
X60677200Y-64428628D02*
X60786723Y-64538152D01*
X60677200Y-64647676D01*
X60567676Y-64538152D01*
X60677200Y-64428628D01*
X60677200Y-64647676D01*
D10*
D11*
X-46984705Y-45990533D02*
X-45889467Y-45990533D01*
X-47203753Y-46647676D02*
X-46437086Y-44347676D01*
X-45670420Y-46647676D01*
X-44903753Y-45442914D02*
X-44137086Y-45442914D01*
X-43808515Y-46647676D02*
X-44903753Y-46647676D01*
X-44903753Y-44347676D01*
X-43808515Y-44347676D01*
X-42384705Y-44347676D02*
X-42165658Y-44347676D01*
X-41946610Y-44457200D01*
X-41837086Y-44566723D01*
X-41727562Y-44785771D01*
X-41618039Y-45223866D01*
X-41618039Y-45771485D01*
X-41727562Y-46209580D01*
X-41837086Y-46428628D01*
X-41946610Y-46538152D01*
X-42165658Y-46647676D01*
X-42384705Y-46647676D01*
X-42603753Y-46538152D01*
X-42713277Y-46428628D01*
X-42822800Y-46209580D01*
X-42932324Y-45771485D01*
X-42932324Y-45223866D01*
X-42822800Y-44785771D01*
X-42713277Y-44566723D01*
X-42603753Y-44457200D01*
X-42384705Y-44347676D01*
X-39427562Y-46647676D02*
X-40741848Y-46647676D01*
X-40084705Y-46647676D02*
X-40084705Y-44347676D01*
X-40303753Y-44676247D01*
X-40522800Y-44895295D01*
X-40741848Y-45004819D01*
X-38441848Y-46428628D02*
X-38332324Y-46538152D01*
X-38441848Y-46647676D01*
X-38551372Y-46538152D01*
X-38441848Y-46428628D01*
X-38441848Y-46647676D01*
X-36908515Y-44347676D02*
X-36689467Y-44347676D01*
X-36470420Y-44457200D01*
X-36360896Y-44566723D01*
X-36251372Y-44785771D01*
X-36141848Y-45223866D01*
X-36141848Y-45771485D01*
X-36251372Y-46209580D01*
X-36360896Y-46428628D01*
X-36470420Y-46538152D01*
X-36689467Y-46647676D01*
X-36908515Y-46647676D01*
X-37127562Y-46538152D01*
X-37237086Y-46428628D01*
X-37346610Y-46209580D01*
X-37456134Y-45771485D01*
X-37456134Y-45223866D01*
X-37346610Y-44785771D01*
X-37237086Y-44566723D01*
X-37127562Y-44457200D01*
X-36908515Y-44347676D01*
X-35375181Y-44347676D02*
X-33841848Y-44347676D01*
X-34827562Y-46647676D01*
X-32965658Y-46428628D02*
X-32856134Y-46538152D01*
X-32965658Y-46647676D01*
X-33075181Y-46538152D01*
X-32965658Y-46428628D01*
X-32965658Y-46647676D01*
X-30775181Y-44347676D02*
X-31870420Y-44347676D01*
X-31979943Y-45442914D01*
X-31870420Y-45333390D01*
X-31651372Y-45223866D01*
X-31103753Y-45223866D01*
X-30884705Y-45333390D01*
X-30775181Y-45442914D01*
X-30665658Y-45661961D01*
X-30665658Y-46209580D01*
X-30775181Y-46428628D01*
X-30884705Y-46538152D01*
X-31103753Y-46647676D01*
X-31651372Y-46647676D01*
X-31870420Y-46538152D01*
X-31979943Y-46428628D01*
X-29241848Y-44347676D02*
X-29022800Y-44347676D01*
X-28803753Y-44457200D01*
X-28694229Y-44566723D01*
X-28584705Y-44785771D01*
X-28475181Y-45223866D01*
X-28475181Y-45771485D01*
X-28584705Y-46209580D01*
X-28694229Y-46428628D01*
X-28803753Y-46538152D01*
X-29022800Y-46647676D01*
X-29241848Y-46647676D01*
X-29460896Y-46538152D01*
X-29570420Y-46428628D01*
X-29679943Y-46209580D01*
X-29789467Y-45771485D01*
X-29789467Y-45223866D01*
X-29679943Y-44785771D01*
X-29570420Y-44566723D01*
X-29460896Y-44457200D01*
X-29241848Y-44347676D01*
X-27489467Y-46428628D02*
X-27379943Y-46538152D01*
X-27489467Y-46647676D01*
X-27598991Y-46538152D01*
X-27489467Y-46428628D01*
X-27489467Y-46647676D01*
X-25189467Y-46647676D02*
X-26503753Y-46647676D01*
X-25846610Y-46647676D02*
X-25846610Y-44347676D01*
X-26065658Y-44676247D01*
X-26284705Y-44895295D01*
X-26503753Y-45004819D01*
X-23765658Y-44347676D02*
X-23546610Y-44347676D01*
X-23327562Y-44457200D01*
X-23218039Y-44566723D01*
X-23108515Y-44785771D01*
X-22998991Y-45223866D01*
X-22998991Y-45771485D01*
X-23108515Y-46209580D01*
X-23218039Y-46428628D01*
X-23327562Y-46538152D01*
X-23546610Y-46647676D01*
X-23765658Y-46647676D01*
X-23984705Y-46538152D01*
X-24094229Y-46428628D01*
X-24203753Y-46209580D01*
X-24313277Y-45771485D01*
X-24313277Y-45223866D01*
X-24203753Y-44785771D01*
X-24094229Y-44566723D01*
X-23984705Y-44457200D01*
X-23765658Y-44347676D01*
X-21575181Y-44347676D02*
X-21356134Y-44347676D01*
X-21137086Y-44457200D01*
X-21027562Y-44566723D01*
X-20918039Y-44785771D01*
X-20808515Y-45223866D01*
X-20808515Y-45771485D01*
X-20918039Y-46209580D01*
X-21027562Y-46428628D01*
X-21137086Y-46538152D01*
X-21356134Y-46647676D01*
X-21575181Y-46647676D01*
X-21794229Y-46538152D01*
X-21903753Y-46428628D01*
X-22013277Y-46209580D01*
X-22122800Y-45771485D01*
X-22122800Y-45223866D01*
X-22013277Y-44785771D01*
X-21903753Y-44566723D01*
X-21794229Y-44457200D01*
X-21575181Y-44347676D01*
D10*
D11*
X-14875181Y-45771485D02*
X-13122800Y-45771485D01*
D10*
D14*
X-46956848Y-51416723D02*
X-46671134Y-51511961D01*
X-46194943Y-51511961D01*
X-46004467Y-51416723D01*
X-45909229Y-51321485D01*
X-45813991Y-51131009D01*
X-45813991Y-50940533D01*
X-45909229Y-50750057D01*
X-46004467Y-50654819D01*
X-46194943Y-50559580D01*
X-46575896Y-50464342D01*
X-46766372Y-50369104D01*
X-46861610Y-50273866D01*
X-46956848Y-50083390D01*
X-46956848Y-49892914D01*
X-46861610Y-49702438D01*
X-46766372Y-49607200D01*
X-46575896Y-49511961D01*
X-46099705Y-49511961D01*
X-45813991Y-49607200D01*
X-44956848Y-51511961D02*
X-44956848Y-49511961D01*
X-44956848Y-50464342D02*
X-43813991Y-50464342D01*
X-43813991Y-51511961D02*
X-43813991Y-49511961D01*
X-42861610Y-50464342D02*
X-42194943Y-50464342D01*
X-41909229Y-51511961D02*
X-42861610Y-51511961D01*
X-42861610Y-49511961D01*
X-41909229Y-49511961D01*
X-41052086Y-50464342D02*
X-40385420Y-50464342D01*
X-40099705Y-51511961D02*
X-41052086Y-51511961D01*
X-41052086Y-49511961D01*
X-40099705Y-49511961D01*
X-39528277Y-49511961D02*
X-38385420Y-49511961D01*
X-38956848Y-51511961D02*
X-38956848Y-49511961D01*
X-36194943Y-51511961D02*
X-36194943Y-49511961D01*
X-35052086Y-51511961D01*
X-35052086Y-49511961D01*
X-34194943Y-50940533D02*
X-33242562Y-50940533D01*
X-34385420Y-51511961D02*
X-33718753Y-49511961D01*
X-33052086Y-51511961D01*
X-32385420Y-51511961D02*
X-32385420Y-49511961D01*
X-31718753Y-50940533D01*
X-31052086Y-49511961D01*
X-31052086Y-51511961D01*
X-30099705Y-50464342D02*
X-29433039Y-50464342D01*
X-29147324Y-51511961D02*
X-30099705Y-51511961D01*
X-30099705Y-49511961D01*
X-29147324Y-49511961D01*
D10*
D14*
X27805057Y-50464342D02*
X27138390Y-50464342D01*
X27138390Y-51511961D02*
X27138390Y-49511961D01*
X28090771Y-49511961D01*
X28852676Y-51511961D02*
X28852676Y-49511961D01*
X30757438Y-51511961D02*
X29805057Y-51511961D01*
X29805057Y-49511961D01*
X31424104Y-50464342D02*
X32090771Y-50464342D01*
X32376485Y-51511961D02*
X31424104Y-51511961D01*
X31424104Y-49511961D01*
X32376485Y-49511961D01*
D10*
D14*
X-46861610Y-42511961D02*
X-46861610Y-40511961D01*
X-46099705Y-40511961D01*
X-45909229Y-40607200D01*
X-45813991Y-40702438D01*
X-45718753Y-40892914D01*
X-45718753Y-41178628D01*
X-45813991Y-41369104D01*
X-45909229Y-41464342D01*
X-46099705Y-41559580D01*
X-46861610Y-41559580D01*
X-44956848Y-41940533D02*
X-44004467Y-41940533D01*
X-45147324Y-42511961D02*
X-44480658Y-40511961D01*
X-43813991Y-42511961D01*
X-42004467Y-42511961D02*
X-42671134Y-41559580D01*
X-43147324Y-42511961D02*
X-43147324Y-40511961D01*
X-42385420Y-40511961D01*
X-42194943Y-40607200D01*
X-42099705Y-40702438D01*
X-42004467Y-40892914D01*
X-42004467Y-41178628D01*
X-42099705Y-41369104D01*
X-42194943Y-41464342D01*
X-42385420Y-41559580D01*
X-43147324Y-41559580D01*
X-41433039Y-40511961D02*
X-40290181Y-40511961D01*
X-40861610Y-42511961D02*
X-40861610Y-40511961D01*
X-38099705Y-42511961D02*
X-38099705Y-40511961D01*
X-36956848Y-42511961D01*
X-36956848Y-40511961D01*
X-36004467Y-40511961D02*
X-36004467Y-42131009D01*
X-35909229Y-42321485D01*
X-35813991Y-42416723D01*
X-35623515Y-42511961D01*
X-35242562Y-42511961D01*
X-35052086Y-42416723D01*
X-34956848Y-42321485D01*
X-34861610Y-42131009D01*
X-34861610Y-40511961D01*
X-33909229Y-42511961D02*
X-33909229Y-40511961D01*
X-33242562Y-41940533D01*
X-32575896Y-40511961D01*
X-32575896Y-42511961D01*
X-30956848Y-41464342D02*
X-30671134Y-41559580D01*
X-30575896Y-41654819D01*
X-30480658Y-41845295D01*
X-30480658Y-42131009D01*
X-30575896Y-42321485D01*
X-30671134Y-42416723D01*
X-30861610Y-42511961D01*
X-31623515Y-42511961D01*
X-31623515Y-40511961D01*
X-30956848Y-40511961D01*
X-30766372Y-40607200D01*
X-30671134Y-40702438D01*
X-30575896Y-40892914D01*
X-30575896Y-41083390D01*
X-30671134Y-41273866D01*
X-30766372Y-41369104D01*
X-30956848Y-41464342D01*
X-31623515Y-41464342D01*
X-29623515Y-41464342D02*
X-28956848Y-41464342D01*
X-28671134Y-42511961D02*
X-29623515Y-42511961D01*
X-29623515Y-40511961D01*
X-28671134Y-40511961D01*
X-26671134Y-42511961D02*
X-27337800Y-41559580D01*
X-27813991Y-42511961D02*
X-27813991Y-40511961D01*
X-27052086Y-40511961D01*
X-26861610Y-40607200D01*
X-26766372Y-40702438D01*
X-26671134Y-40892914D01*
X-26671134Y-41178628D01*
X-26766372Y-41369104D01*
X-26861610Y-41464342D01*
X-27052086Y-41559580D01*
X-27813991Y-41559580D01*
D10*
D11*
X109402200Y-39607200D02*
X109402200Y-48607200D01*
D10*
D11*
X109402200Y-30607200D02*
X109402200Y-39607200D01*
D10*
D11*
X131402200Y-39607200D02*
X-48597800Y-39607200D01*
D16*
X-3600000Y27400000D02*
X-3600000Y52200000D01*
X52200000Y-3600000D02*
X-1400000Y-3600000D01*
X54400000Y27400000D02*
X54400000Y52200000D01*
X-1400000Y54400000D02*
X52200000Y54400000D01*
X52200000Y-3600000D02*
X54400000Y-1400000D01*
X41500000Y25900000D02*
X33300000Y34100000D01*
X15800000Y23400000D02*
X11000000Y23400000D01*
X39500000Y5600000D02*
X39500000Y17300000D01*
X23500000Y26100000D02*
X23500000Y29200000D01*
X-1400000Y54400000D02*
X-3600000Y52200000D01*
X19500000Y21100000D02*
X16353553Y24253553D01*
X40500000Y17300000D02*
G75*
G03*
X39500000Y17300000I-500000J0D01*
G01*
X40146447Y846447D02*
X41246447Y-253553D01*
X54400000Y17600000D02*
X54400000Y23400000D01*
X33800000Y20000000D02*
X33800000Y27800000D01*
X10300000Y34500000D02*
X10300000Y31400000D01*
X39500001Y5600000D02*
G75*
G03*
X39646447Y5246447I499999J0D01*
G01*
X21046447Y24446447D02*
G75*
G03*
X21400000Y24300000I353553J353553D01*
G01*
X22700000Y25300000D02*
X23500000Y26100000D01*
X-3600000Y23400000D02*
X-3600000Y-1400000D01*
X16300000Y17500000D02*
G75*
G03*
X16300000Y16500000I0J-500000D01*
G01*
X32453553Y30553553D02*
G75*
G03*
X32100000Y30700000I-353553J-353553D01*
G01*
X-1500000Y33400000D02*
X1600000Y33400000D01*
X17400000Y7100000D02*
X21346447Y11053553D01*
X20300000Y35100000D02*
X33500000Y35100000D01*
X36000000Y4900000D02*
X36353553Y5246447D01*
X31000000Y10200000D02*
X21900000Y10200000D01*
X24500000Y200000D02*
X24500000Y3000000D01*
X35146447Y5453553D02*
X35500000Y5800000D01*
X33300000Y34100000D02*
X20300000Y34100000D01*
X41246447Y-253553D02*
G75*
G03*
X41600000Y-400000I353553J353553D01*
G01*
X40000001Y1200000D02*
G75*
G03*
X40146447Y846447I499999J0D01*
G01*
X35146447Y5453553D02*
G75*
G03*
X35000000Y5100000I353553J-353553D01*
G01*
X36500000Y17300000D02*
X36500000Y5600000D01*
X24646447Y3353553D02*
G75*
G03*
X24500000Y3000000I353553J-353553D01*
G01*
X1600000Y33400000D02*
X4446447Y30546447D01*
X33400000Y4700000D02*
G75*
G03*
X33400000Y5700000I0J500000D01*
G01*
X35000000Y-700000D02*
X35000000Y5100000D01*
X25500000Y200000D02*
X25500000Y2800000D01*
X47700000Y12100000D02*
G75*
G03*
X48700000Y12100000I500000J0D01*
G01*
X16300000Y16500000D02*
X28200000Y16500000D01*
X41500000Y20000000D02*
G75*
G03*
X42500000Y20000000I500000J0D01*
G01*
X28553553Y23346447D02*
G75*
G03*
X28700000Y23700000I-353553J353553D01*
G01*
X45100000Y1400000D02*
X45100000Y5000000D01*
X36000000Y-700000D02*
X36000000Y4900000D01*
X31900000Y29700000D02*
X33800000Y27800000D01*
X42900000Y34300000D02*
X45100000Y32100000D01*
X48700000Y12100000D02*
X48700000Y16600000D01*
X24500000Y200000D02*
G75*
G03*
X25500000Y200000I500000J0D01*
G01*
X41000000Y1400000D02*
X41800000Y600000D01*
X25100000Y20100001D02*
G75*
G03*
X25453553Y20246447I0J499999D01*
G01*
X20800000Y26100000D02*
X21600000Y25300000D01*
X25200000Y29700000D02*
X24500000Y29000000D01*
X15800000Y23400000D02*
X18946447Y20246447D01*
X35500000Y5800000D02*
X35500000Y17300000D01*
X41500000Y25900000D02*
X41500000Y20000000D01*
X46100000Y1200000D02*
X46100000Y5000000D01*
X34800000Y20000000D02*
X34800000Y28000000D01*
X54400000Y27400000D02*
G75*
G03*
X54400000Y23400000I0J-2000000D01*
G01*
X27400000Y4700000D02*
X33400000Y4700000D01*
X19800001Y25900000D02*
G75*
G03*
X19946447Y25546447I499999J0D01*
G01*
X33853553Y34953553D02*
X42353553Y26453553D01*
X28000000Y17500000D02*
X28853553Y18353553D01*
X54400000Y52200000D02*
X52200000Y54400000D01*
X-3600000Y23400000D02*
G75*
G03*
X-3600000Y27400000I0J2000000D01*
G01*
X24353553Y25546447D02*
G75*
G03*
X24500000Y25900000I-353553J353553D01*
G01*
X33200000Y18500000D02*
X29200000Y18500000D01*
X54400000Y17600000D02*
X48700000Y17600000D01*
X29400000Y17500000D02*
X33200000Y17500000D01*
X32453553Y30553553D02*
X34653553Y28353553D01*
X20800000Y30400000D02*
X20800000Y26100000D01*
X17600000Y6100001D02*
G75*
G03*
X17953553Y6246447I0J499999D01*
G01*
X16300000Y17500000D02*
X28000000Y17500000D01*
X-3600000Y-1400000D02*
X-1400000Y-3600000D01*
X33846447Y41946447D02*
X42346447Y33446447D01*
X24900000Y21100000D02*
X27700000Y23900000D01*
X28200000Y16500001D02*
G75*
G03*
X28553553Y16646447I0J499999D01*
G01*
X14800000Y30400000D02*
G75*
G03*
X14800000Y31400000I0J500000D01*
G01*
X42499999Y26100000D02*
G75*
G03*
X42353553Y26453553I-499999J0D01*
G01*
X26846447Y5553553D02*
X24646447Y3353553D01*
X42346447Y33446447D02*
X44546447Y31246447D01*
X5000000Y31400000D02*
X9300000Y31400000D01*
X48700000Y25000000D02*
G75*
G03*
X47700000Y25000000I-500000J0D01*
G01*
X36500000Y17300000D02*
G75*
G03*
X35500000Y17300000I-500000J0D01*
G01*
X4446447Y30546447D02*
G75*
G03*
X4800000Y30400000I353553J353553D01*
G01*
X46100000Y5000000D02*
G75*
G03*
X45100000Y5000000I-500000J0D01*
G01*
X33800000Y20000000D02*
G75*
G03*
X34800000Y20000000I500000J0D01*
G01*
X11000000Y24400000D02*
X16000000Y24400000D01*
X27700000Y23900000D02*
X27700000Y26100000D01*
X23646447Y29553553D02*
G75*
G03*
X23500000Y29200000I353553J-353553D01*
G01*
X48700000Y17600000D02*
X48700000Y25000000D01*
X40999999Y5100000D02*
G75*
G03*
X40853553Y5453553I-499999J0D01*
G01*
X44300000Y600000D02*
X45100000Y1400000D01*
X34553553Y42653553D02*
X42900000Y34300000D01*
X41000000Y1400000D02*
X41000000Y5100000D01*
X44546447Y31246447D02*
G75*
G03*
X44900000Y31100000I353553J353553D01*
G01*
X24500000Y29000000D02*
X24500000Y25900000D01*
X17600000Y6100000D02*
X5600000Y6100000D01*
X40000000Y4900000D02*
X39646447Y5246447D01*
X44500000Y-399999D02*
G75*
G03*
X44853553Y-253553I0J499999D01*
G01*
X21600000Y25300000D02*
X22700000Y25300000D01*
X21400000Y24300000D02*
X22900000Y24300001D01*
X25200000Y29700000D02*
X31900000Y29700000D01*
X31000000Y11200000D02*
X21700000Y11200000D01*
X44853553Y-253553D02*
X45953553Y846447D01*
X5600000Y7100000D02*
X17400000Y7100000D01*
X48700000Y16600000D02*
X54400000Y16600000D01*
X23244891Y24446455D02*
X24353553Y25546447D01*
X31000000Y10200000D02*
G75*
G03*
X31000000Y11200000I0J500000D01*
G01*
X28700000Y26100000D02*
X28700000Y23700000D01*
X5600000Y7100000D02*
G75*
G03*
X5600000Y6100000I0J-500000D01*
G01*
X45953553Y846447D02*
G75*
G03*
X46100000Y1200000I-353553J353553D01*
G01*
X25000000Y30700000D02*
X32100000Y30700000D01*
X10300000Y34500000D02*
G75*
G03*
X9300000Y34500000I-500000J0D01*
G01*
X33853553Y34953553D02*
G75*
G03*
X33500000Y35100000I-353553J-353553D01*
G01*
X10300000Y31400000D02*
X14800000Y31400000D01*
X5000000Y31400000D02*
X2153553Y34253553D01*
X40000000Y4900000D02*
X40000000Y1200000D01*
X-1500000Y34400000D02*
G75*
G03*
X-1500000Y33400000I0J-500000D01*
G01*
X33200000Y17500000D02*
G75*
G03*
X33200000Y18500000I0J500000D01*
G01*
X18946447Y20246447D02*
G75*
G03*
X19300000Y20100000I353553J353553D01*
G01*
X36353553Y5246447D02*
G75*
G03*
X36500000Y5600000I-353553J353553D01*
G01*
X20300000Y35100000D02*
G75*
G03*
X20300000Y34100000I0J-500000D01*
G01*
X41800000Y600000D02*
X44300000Y600000D01*
X19500000Y21100000D02*
X24900000Y21100000D01*
X29400000Y17500000D02*
X28553553Y16646447D01*
X49900000Y31100000D02*
G75*
G03*
X49900000Y32100000I0J500000D01*
G01*
X41600000Y-400000D02*
X44500000Y-400000D01*
X19946447Y25546447D02*
X21046447Y24446447D01*
X42500000Y20000000D02*
X42500000Y26100000D01*
X29200000Y18500005D02*
G75*
G03*
X28853553Y18353553I0J-483005D01*
G01*
X34553553Y42653553D02*
G75*
G03*
X33846447Y41946447I-353553J-353553D01*
G01*
X33400000Y5700000D02*
X27200000Y5700000D01*
X49900000Y31100000D02*
X44900000Y31100000D01*
X35000000Y-700000D02*
G75*
G03*
X36000000Y-700000I500000J0D01*
G01*
X47700000Y25000000D02*
X47700000Y12100000D01*
X16353553Y24253553D02*
G75*
G03*
X16000000Y24400000I-353553J-353553D01*
G01*
X40853553Y5453553D02*
X40500000Y5800000D01*
X25000000Y30699999D02*
G75*
G03*
X24646447Y30553553I0J-499999D01*
G01*
X22900000Y24299975D02*
G75*
G03*
X23244891Y24446455I-8900J500225D01*
G01*
X21900000Y10200000D02*
X17953553Y6246447D01*
X21700000Y11199999D02*
G75*
G03*
X21346447Y11053553I0J-499999D01*
G01*
X19300000Y20100000D02*
X25100000Y20100000D01*
X2153553Y34253553D02*
G75*
G03*
X1800000Y34400000I-353553J-353553D01*
G01*
X54400000Y16600000D02*
X54400000Y-1400000D01*
X20800000Y30400000D02*
G75*
G03*
X19800000Y30400000I-500000J0D01*
G01*
X40500000Y5800000D02*
X40500000Y17300000D01*
X28700000Y26100000D02*
G75*
G03*
X27700000Y26100000I-500000J0D01*
G01*
X11000000Y24400000D02*
G75*
G03*
X11000000Y23400000I0J-500000D01*
G01*
X25453553Y20246447D02*
X28553553Y23346447D01*
X-1500000Y34400000D02*
X1800000Y34400000D01*
X9300000Y31400000D02*
X9300000Y34500000D01*
X14800000Y30400000D02*
X4800000Y30400000D01*
X34799999Y28000000D02*
G75*
G03*
X34653553Y28353553I-499999J0D01*
G01*
X45100000Y32100000D02*
X49900000Y32100000D01*
X25500000Y2800000D02*
X27400000Y4700000D01*
X27200000Y5699999D02*
G75*
G03*
X26846447Y5553553I0J-499999D01*
G01*
X19800000Y30400000D02*
X19800000Y25900000D01*
X23646447Y29553553D02*
X24646447Y30553553D01*
X1666666Y0D02*
G75*
G03*
X1666666Y0I-1666666J0D01*
G01*
X-2500000Y0D02*
X2500000Y0D01*
X0Y2500000D02*
X0Y-2500000D01*
X1666666Y0D02*
G75*
G03*
X1666666Y0I-1666666J0D01*
G01*
X-2500000Y0D02*
X2500000Y0D01*
X0Y2500000D02*
X0Y-2500000D01*
D17*
%TO.P,L1,1,1*%
%TO.N,/FUSE*%
X15100000Y9400000D03*
%TO.P,L1,2,2*%
%TO.N,/IND*%
X15100000Y21600000D03*
%TD*%
D18*
%TO.P,CONN1,1,Pin_1*%
%TO.N,/LINE*%
X32900000Y2495000D03*
D19*
%TO.P,CONN1,2,Pin_2*%
%TO.N,GNDPWR*%
X37980000Y2495000D03*
%TO.P,CONN1,3,Pin_3*%
%TO.N,/NEUTRAL*%
X43060000Y2495000D03*
%TD*%
D20*
%TO.P,L2,1,1*%
%TO.N,/IND*%
X30580000Y20825000D03*
D17*
%TO.P,L2,2,2*%
%TO.N,/NEUTRAL*%
X45820000Y20825000D03*
%TO.P,L2,3,3*%
%TO.N,/CHOKE_N*%
X45820000Y27175000D03*
%TO.P,L2,4,4*%
%TO.N,/CHOKE_L*%
X30580000Y27175000D03*
%TD*%
D21*
%TO.P,C1,1*%
%TO.N,/FUSE*%
X30500000Y15500000D03*
%TO.P,C1,2*%
%TO.N,/NEUTRAL*%
X45500000Y15500000D03*
%TD*%
D22*
%TO.P,C3,1*%
%TO.N,GNDPWR*%
X51500000Y13450000D03*
%TO.P,C3,2*%
%TO.N,/CHOKE_N*%
X51500000Y20950000D03*
%TD*%
D23*
%TO.P,PS1,1,AC/L*%
%TO.N,/CHOKE_R*%
X7150000Y33150000D03*
D24*
%TO.P,PS1,3,AC/N*%
%TO.N,/CHOKE_N*%
X12230000Y33150000D03*
%TO.P,PS1,5,NC*%
%TO.N,unconnected-(PS1-Pad5)*%
X37630000Y33150000D03*
%TO.P,PS1,14,-Vo*%
%TO.N,GND*%
X37630000Y50930000D03*
%TO.P,PS1,16,+Vo*%
%TO.N,+24V*%
X32550000Y50930000D03*
%TD*%
D22*
%TO.P,C2,1*%
%TO.N,/CHOKE_L*%
X14650000Y26600000D03*
%TO.P,C2,2*%
%TO.N,GNDPWR*%
X22150000Y26600000D03*
%TD*%
D25*
%TO.P,CONN2,1,Pin_1*%
%TO.N,+24V*%
X43000000Y51900000D03*
D26*
%TO.P,CONN2,2,Pin_2*%
X43000000Y49360000D03*
%TO.P,CONN2,3,Pin_3*%
%TO.N,GND*%
X45540000Y51900000D03*
%TO.P,CONN2,4,Pin_4*%
X45540000Y49360000D03*
%TD*%
D27*
%TO.P,C5,1*%
%TO.N,+24V*%
X45500000Y38852651D03*
D28*
%TO.P,C5,2*%
%TO.N,GND*%
X45500000Y35352651D03*
%TD*%
D17*
%TO.P,F1,1*%
%TO.N,/LINE*%
X27950000Y1600000D03*
%TO.P,F1,2*%
%TO.N,/FUSE*%
X5450000Y1600000D03*
%TD*%
D29*
%TO.P,RV1,1*%
%TO.N,/FUSE*%
X34250000Y11200000D03*
%TO.P,RV1,2*%
%TO.N,/NEUTRAL*%
X41750000Y9800000D03*
%TD*%
D21*
%TO.P,R1,1*%
%TO.N,/CHOKE_R*%
X400000Y36390000D03*
D30*
%TO.P,R1,2*%
%TO.N,/CHOKE_L*%
X400000Y31310000D03*
%TD*%
D28*
%TO.P,C4,1*%
%TO.N,+24V*%
X51700000Y40400000D03*
%TO.P,C4,2*%
%TO.N,GND*%
X51700000Y35400000D03*
%TD*%
D31*
%TO.P,H4,1,1*%
%TO.N,GNDPWR*%
X49102944Y-1697056D03*
X49102944Y1697056D03*
X52497056Y-1697056D03*
X50800000Y2400000D03*
X48400000Y0D03*
D32*
X50800000Y0D03*
D31*
X50800000Y-2400000D03*
X52497056Y1697056D03*
X53200000Y0D03*
%TD*%
D18*
%TO.P,TVS1,1,A1*%
%TO.N,+24V*%
X42805000Y44400000D03*
D33*
%TO.P,TVS1,2,A2*%
%TO.N,GND*%
X47885000Y44400000D03*
%TD*%
M02*
