%TF.GenerationSoftware,KiCad,Pcbnew,6.0.4-6f826c9f35~116~ubuntu18.04.1*%
%TF.CreationDate,2022-04-09T00:00:09+02:00*%
%TF.ProjectId,AE01.07.50.100,41453031-2e30-4372-9e35-302e3130302e,V1R0*%
%TF.SameCoordinates,PX9464480PY76a3180*%
%TF.FileFunction,Other,Comment*%
%FSLAX46Y46*%
G04 Gerber Fmt 4.6, Leading zero omitted, Abs format (unit mm)*
G04 Created by KiCad (PCBNEW 6.0.4-6f826c9f35~116~ubuntu18.04.1) date 2022-04-09 00:00:09*
%MOMM*%
%LPD*%
G01*
G04 APERTURE LIST*
%ADD10C,0.100000*%
%ADD11C,0.300000*%
%ADD12C,0.200000*%
%ADD13C,0.400000*%
%ADD14C,0.150000*%
G04 APERTURE END LIST*
D10*
X54400000Y27400000D02*
G75*
G03*
X54400000Y23400000I0J-2000000D01*
G01*
X-3600000Y23400000D02*
G75*
G03*
X-3600000Y27400000I0J2000000D01*
G01*
X-3600000Y-1400000D02*
X-1400000Y-3600000D01*
X-3600000Y23400000D02*
X-3600000Y-1400000D01*
X-3600000Y52200000D02*
X-3600000Y27400000D01*
X-1400000Y54400000D02*
X-3600000Y52200000D01*
X52200000Y54400000D02*
X-1400000Y54400000D01*
X54400000Y52200000D02*
X52200000Y54400000D01*
X54400000Y27400000D02*
X54400000Y52200000D01*
X54400000Y-1400000D02*
X54400000Y23400000D01*
X52200000Y-3600000D02*
X54400000Y-1400000D01*
X-1400000Y-3600000D02*
X52200000Y-3600000D01*
X-131235715Y100340000D02*
X-15721429Y100340000D01*
X-131235715Y71885000D02*
X-15721429Y71885000D01*
X-15721429Y108770000D02*
X-15721429Y67820000D01*
X-32378572Y108770000D02*
X-32378572Y67820000D01*
X-131235715Y108770000D02*
X-131235715Y67820000D01*
X-131235715Y108770000D02*
X-15721429Y108770000D01*
X-131235715Y92210000D02*
X-15721429Y92210000D01*
X-131235715Y80015000D02*
X-15721429Y80015000D01*
X-131235715Y96275000D02*
X-15721429Y96275000D01*
X-44964286Y108770000D02*
X-44964286Y67820000D01*
X-131235715Y104405000D02*
X-15721429Y104405000D01*
X-72650000Y108770000D02*
X-72650000Y67820000D01*
X-131235715Y88145000D02*
X-15721429Y88145000D01*
X-52921429Y108770000D02*
X-52921429Y67820000D01*
X-90750000Y108770000D02*
X-90750000Y67820000D01*
X-115921429Y108770000D02*
X-115921429Y67820000D01*
X-131235715Y75950000D02*
X-15721429Y75950000D01*
X-131235715Y67820000D02*
X-15721429Y67820000D01*
X-131235715Y84080000D02*
X-15721429Y84080000D01*
X-71192143Y95596429D02*
X-71049286Y95596429D01*
X-70906429Y95525000D01*
X-70835000Y95453572D01*
X-70763572Y95310715D01*
X-70692143Y95025000D01*
X-70692143Y94667858D01*
X-70763572Y94382143D01*
X-70835000Y94239286D01*
X-70906429Y94167858D01*
X-71049286Y94096429D01*
X-71192143Y94096429D01*
X-71335000Y94167858D01*
X-71406429Y94239286D01*
X-71477858Y94382143D01*
X-71549286Y94667858D01*
X-71549286Y95025000D01*
X-71477858Y95310715D01*
X-71406429Y95453572D01*
X-71335000Y95525000D01*
X-71192143Y95596429D01*
X-70049286Y94239286D02*
X-69977858Y94167858D01*
X-70049286Y94096429D01*
X-70120715Y94167858D01*
X-70049286Y94239286D01*
X-70049286Y94096429D01*
X-69049286Y95596429D02*
X-68906429Y95596429D01*
X-68763572Y95525000D01*
X-68692143Y95453572D01*
X-68620715Y95310715D01*
X-68549286Y95025000D01*
X-68549286Y94667858D01*
X-68620715Y94382143D01*
X-68692143Y94239286D01*
X-68763572Y94167858D01*
X-68906429Y94096429D01*
X-69049286Y94096429D01*
X-69192143Y94167858D01*
X-69263572Y94239286D01*
X-69335000Y94382143D01*
X-69406429Y94667858D01*
X-69406429Y95025000D01*
X-69335000Y95310715D01*
X-69263572Y95453572D01*
X-69192143Y95525000D01*
X-69049286Y95596429D01*
X-67120715Y94096429D02*
X-67977858Y94096429D01*
X-67549286Y94096429D02*
X-67549286Y95596429D01*
X-67692143Y95382143D01*
X-67835000Y95239286D01*
X-67977858Y95167858D01*
X-65335000Y94096429D02*
X-65335000Y95096429D01*
X-65335000Y94953572D02*
X-65263572Y95025000D01*
X-65120715Y95096429D01*
X-64906429Y95096429D01*
X-64763572Y95025000D01*
X-64692143Y94882143D01*
X-64692143Y94096429D01*
X-64692143Y94882143D02*
X-64620715Y95025000D01*
X-64477858Y95096429D01*
X-64263572Y95096429D01*
X-64120715Y95025000D01*
X-64049286Y94882143D01*
X-64049286Y94096429D01*
X-63335000Y94096429D02*
X-63335000Y95096429D01*
X-63335000Y94953572D02*
X-63263572Y95025000D01*
X-63120715Y95096429D01*
X-62906429Y95096429D01*
X-62763572Y95025000D01*
X-62692143Y94882143D01*
X-62692143Y94096429D01*
X-62692143Y94882143D02*
X-62620715Y95025000D01*
X-62477858Y95096429D01*
X-62263572Y95096429D01*
X-62120715Y95025000D01*
X-62049286Y94882143D01*
X-62049286Y94096429D01*
D11*
X-43662144Y107377143D02*
X-43162144Y107377143D01*
X-42947858Y106591429D02*
X-43662144Y106591429D01*
X-43662144Y108091429D01*
X-42947858Y108091429D01*
X-42305001Y107591429D02*
X-42305001Y106091429D01*
X-42305001Y107520000D02*
X-42162144Y107591429D01*
X-41876429Y107591429D01*
X-41733572Y107520000D01*
X-41662144Y107448572D01*
X-41590715Y107305715D01*
X-41590715Y106877143D01*
X-41662144Y106734286D01*
X-41733572Y106662858D01*
X-41876429Y106591429D01*
X-42162144Y106591429D01*
X-42305001Y106662858D01*
X-41019286Y106662858D02*
X-40876429Y106591429D01*
X-40590715Y106591429D01*
X-40447858Y106662858D01*
X-40376429Y106805715D01*
X-40376429Y106877143D01*
X-40447858Y107020000D01*
X-40590715Y107091429D01*
X-40805001Y107091429D01*
X-40947858Y107162858D01*
X-41019286Y107305715D01*
X-41019286Y107377143D01*
X-40947858Y107520000D01*
X-40805001Y107591429D01*
X-40590715Y107591429D01*
X-40447858Y107520000D01*
X-39733572Y106591429D02*
X-39733572Y107591429D01*
X-39733572Y108091429D02*
X-39805001Y108020000D01*
X-39733572Y107948572D01*
X-39662144Y108020000D01*
X-39733572Y108091429D01*
X-39733572Y107948572D01*
X-38805001Y106591429D02*
X-38947858Y106662858D01*
X-39019286Y106805715D01*
X-39019286Y108091429D01*
X-38019286Y106591429D02*
X-38162144Y106662858D01*
X-38233572Y106734286D01*
X-38305001Y106877143D01*
X-38305001Y107305715D01*
X-38233572Y107448572D01*
X-38162144Y107520000D01*
X-38019286Y107591429D01*
X-37805001Y107591429D01*
X-37662144Y107520000D01*
X-37590715Y107448572D01*
X-37519286Y107305715D01*
X-37519286Y106877143D01*
X-37590715Y106734286D01*
X-37662144Y106662858D01*
X-37805001Y106591429D01*
X-38019286Y106591429D01*
X-36876429Y107591429D02*
X-36876429Y106591429D01*
X-36876429Y107448572D02*
X-36805001Y107520000D01*
X-36662144Y107591429D01*
X-36447858Y107591429D01*
X-36305001Y107520000D01*
X-36233572Y107377143D01*
X-36233572Y106591429D01*
X-33519286Y106591429D02*
X-34019286Y107305715D01*
X-34376429Y106591429D02*
X-34376429Y108091429D01*
X-33805001Y108091429D01*
X-33662144Y108020000D01*
X-33590715Y107948572D01*
X-33519286Y107805715D01*
X-33519286Y107591429D01*
X-33590715Y107448572D01*
X-33662144Y107377143D01*
X-33805001Y107305715D01*
X-34376429Y107305715D01*
D10*
X-89077858Y86752143D02*
X-89577858Y86752143D01*
X-89577858Y85966429D02*
X-89577858Y87466429D01*
X-88863572Y87466429D01*
X-87435000Y85966429D02*
X-87935000Y86680715D01*
X-88292143Y85966429D02*
X-88292143Y87466429D01*
X-87720715Y87466429D01*
X-87577858Y87395000D01*
X-87506429Y87323572D01*
X-87435000Y87180715D01*
X-87435000Y86966429D01*
X-87506429Y86823572D01*
X-87577858Y86752143D01*
X-87720715Y86680715D01*
X-88292143Y86680715D01*
X-86149286Y86966429D02*
X-86149286Y85966429D01*
X-86506429Y87537858D02*
X-86863572Y86466429D01*
X-85935000Y86466429D01*
X-114249287Y78622143D02*
X-114035001Y78550715D01*
X-113963572Y78479286D01*
X-113892144Y78336429D01*
X-113892144Y78122143D01*
X-113963572Y77979286D01*
X-114035001Y77907858D01*
X-114177858Y77836429D01*
X-114749287Y77836429D01*
X-114749287Y79336429D01*
X-114249287Y79336429D01*
X-114106429Y79265000D01*
X-114035001Y79193572D01*
X-113963572Y79050715D01*
X-113963572Y78907858D01*
X-114035001Y78765000D01*
X-114106429Y78693572D01*
X-114249287Y78622143D01*
X-114749287Y78622143D01*
X-113035001Y77836429D02*
X-113177858Y77907858D01*
X-113249287Y77979286D01*
X-113320715Y78122143D01*
X-113320715Y78550715D01*
X-113249287Y78693572D01*
X-113177858Y78765000D01*
X-113035001Y78836429D01*
X-112820715Y78836429D01*
X-112677858Y78765000D01*
X-112606429Y78693572D01*
X-112535001Y78550715D01*
X-112535001Y78122143D01*
X-112606429Y77979286D01*
X-112677858Y77907858D01*
X-112820715Y77836429D01*
X-113035001Y77836429D01*
X-112106429Y78836429D02*
X-111535001Y78836429D01*
X-111892144Y79336429D02*
X-111892144Y78050715D01*
X-111820715Y77907858D01*
X-111677858Y77836429D01*
X-111535001Y77836429D01*
X-111249287Y78836429D02*
X-110677858Y78836429D01*
X-111035001Y79336429D02*
X-111035001Y78050715D01*
X-110963572Y77907858D01*
X-110820715Y77836429D01*
X-110677858Y77836429D01*
X-109963572Y77836429D02*
X-110106429Y77907858D01*
X-110177858Y77979286D01*
X-110249287Y78122143D01*
X-110249287Y78550715D01*
X-110177858Y78693572D01*
X-110106429Y78765000D01*
X-109963572Y78836429D01*
X-109749287Y78836429D01*
X-109606429Y78765000D01*
X-109535001Y78693572D01*
X-109463572Y78550715D01*
X-109463572Y78122143D01*
X-109535001Y77979286D01*
X-109606429Y77907858D01*
X-109749287Y77836429D01*
X-109963572Y77836429D01*
X-108820715Y77836429D02*
X-108820715Y78836429D01*
X-108820715Y78693572D02*
X-108749287Y78765000D01*
X-108606429Y78836429D01*
X-108392144Y78836429D01*
X-108249287Y78765000D01*
X-108177858Y78622143D01*
X-108177858Y77836429D01*
X-108177858Y78622143D02*
X-108106429Y78765000D01*
X-107963572Y78836429D01*
X-107749287Y78836429D01*
X-107606429Y78765000D01*
X-107535001Y78622143D01*
X-107535001Y77836429D01*
X-105749287Y77907858D02*
X-105535001Y77836429D01*
X-105177858Y77836429D01*
X-105035001Y77907858D01*
X-104963572Y77979286D01*
X-104892144Y78122143D01*
X-104892144Y78265000D01*
X-104963572Y78407858D01*
X-105035001Y78479286D01*
X-105177858Y78550715D01*
X-105463572Y78622143D01*
X-105606429Y78693572D01*
X-105677858Y78765000D01*
X-105749287Y78907858D01*
X-105749287Y79050715D01*
X-105677858Y79193572D01*
X-105606429Y79265000D01*
X-105463572Y79336429D01*
X-105106429Y79336429D01*
X-104892144Y79265000D01*
X-104035001Y77836429D02*
X-104177858Y77907858D01*
X-104249287Y77979286D01*
X-104320715Y78122143D01*
X-104320715Y78550715D01*
X-104249287Y78693572D01*
X-104177858Y78765000D01*
X-104035001Y78836429D01*
X-103820715Y78836429D01*
X-103677858Y78765000D01*
X-103606429Y78693572D01*
X-103535001Y78550715D01*
X-103535001Y78122143D01*
X-103606429Y77979286D01*
X-103677858Y77907858D01*
X-103820715Y77836429D01*
X-104035001Y77836429D01*
X-102677858Y77836429D02*
X-102820715Y77907858D01*
X-102892144Y78050715D01*
X-102892144Y79336429D01*
X-101463572Y77836429D02*
X-101463572Y79336429D01*
X-101463572Y77907858D02*
X-101606429Y77836429D01*
X-101892144Y77836429D01*
X-102035001Y77907858D01*
X-102106429Y77979286D01*
X-102177858Y78122143D01*
X-102177858Y78550715D01*
X-102106429Y78693572D01*
X-102035001Y78765000D01*
X-101892144Y78836429D01*
X-101606429Y78836429D01*
X-101463572Y78765000D01*
X-100177858Y77907858D02*
X-100320715Y77836429D01*
X-100606429Y77836429D01*
X-100749287Y77907858D01*
X-100820715Y78050715D01*
X-100820715Y78622143D01*
X-100749287Y78765000D01*
X-100606429Y78836429D01*
X-100320715Y78836429D01*
X-100177858Y78765000D01*
X-100106429Y78622143D01*
X-100106429Y78479286D01*
X-100820715Y78336429D01*
X-99463572Y77836429D02*
X-99463572Y78836429D01*
X-99463572Y78550715D02*
X-99392144Y78693572D01*
X-99320715Y78765000D01*
X-99177858Y78836429D01*
X-99035001Y78836429D01*
X-97392144Y77836429D02*
X-97392144Y79336429D01*
X-96892144Y78265000D01*
X-96392144Y79336429D01*
X-96392144Y77836429D01*
X-95035001Y77836429D02*
X-95035001Y78622143D01*
X-95106429Y78765000D01*
X-95249287Y78836429D01*
X-95535001Y78836429D01*
X-95677858Y78765000D01*
X-95035001Y77907858D02*
X-95177858Y77836429D01*
X-95535001Y77836429D01*
X-95677858Y77907858D01*
X-95749287Y78050715D01*
X-95749287Y78193572D01*
X-95677858Y78336429D01*
X-95535001Y78407858D01*
X-95177858Y78407858D01*
X-95035001Y78479286D01*
X-94392144Y77907858D02*
X-94249287Y77836429D01*
X-93963572Y77836429D01*
X-93820715Y77907858D01*
X-93749287Y78050715D01*
X-93749287Y78122143D01*
X-93820715Y78265000D01*
X-93963572Y78336429D01*
X-94177858Y78336429D01*
X-94320715Y78407858D01*
X-94392144Y78550715D01*
X-94392144Y78622143D01*
X-94320715Y78765000D01*
X-94177858Y78836429D01*
X-93963572Y78836429D01*
X-93820715Y78765000D01*
X-93106429Y77836429D02*
X-93106429Y79336429D01*
X-92963572Y78407858D02*
X-92535001Y77836429D01*
X-92535001Y78836429D02*
X-93106429Y78265000D01*
D12*
X-38612858Y40456429D02*
X-38612858Y41956429D01*
X-37755715Y40456429D01*
X-37755715Y41956429D01*
X-36827143Y40456429D02*
X-36970000Y40527858D01*
X-37041429Y40599286D01*
X-37112858Y40742143D01*
X-37112858Y41170715D01*
X-37041429Y41313572D01*
X-36970000Y41385000D01*
X-36827143Y41456429D01*
X-36612858Y41456429D01*
X-36470000Y41385000D01*
X-36398572Y41313572D01*
X-36327143Y41170715D01*
X-36327143Y40742143D01*
X-36398572Y40599286D01*
X-36470000Y40527858D01*
X-36612858Y40456429D01*
X-36827143Y40456429D01*
X-129212858Y36384286D02*
X-129284286Y36312858D01*
X-129498572Y36241429D01*
X-129641429Y36241429D01*
X-129855715Y36312858D01*
X-129998572Y36455715D01*
X-130070001Y36598572D01*
X-130141429Y36884286D01*
X-130141429Y37098572D01*
X-130070001Y37384286D01*
X-129998572Y37527143D01*
X-129855715Y37670000D01*
X-129641429Y37741429D01*
X-129498572Y37741429D01*
X-129284286Y37670000D01*
X-129212858Y37598572D01*
X-127927143Y36241429D02*
X-127927143Y37027143D01*
X-127998572Y37170000D01*
X-128141429Y37241429D01*
X-128427143Y37241429D01*
X-128570001Y37170000D01*
X-127927143Y36312858D02*
X-128070001Y36241429D01*
X-128427143Y36241429D01*
X-128570001Y36312858D01*
X-128641429Y36455715D01*
X-128641429Y36598572D01*
X-128570001Y36741429D01*
X-128427143Y36812858D01*
X-128070001Y36812858D01*
X-127927143Y36884286D01*
X-127284286Y36312858D02*
X-127141429Y36241429D01*
X-126855715Y36241429D01*
X-126712858Y36312858D01*
X-126641429Y36455715D01*
X-126641429Y36527143D01*
X-126712858Y36670000D01*
X-126855715Y36741429D01*
X-127070001Y36741429D01*
X-127212858Y36812858D01*
X-127284286Y36955715D01*
X-127284286Y37027143D01*
X-127212858Y37170000D01*
X-127070001Y37241429D01*
X-126855715Y37241429D01*
X-126712858Y37170000D01*
X-126212858Y37241429D02*
X-125641429Y37241429D01*
X-125998572Y37741429D02*
X-125998572Y36455715D01*
X-125927143Y36312858D01*
X-125784286Y36241429D01*
X-125641429Y36241429D01*
X-124570001Y36312858D02*
X-124712858Y36241429D01*
X-124998572Y36241429D01*
X-125141429Y36312858D01*
X-125212858Y36455715D01*
X-125212858Y37027143D01*
X-125141429Y37170000D01*
X-124998572Y37241429D01*
X-124712858Y37241429D01*
X-124570001Y37170000D01*
X-124498572Y37027143D01*
X-124498572Y36884286D01*
X-125212858Y36741429D01*
X-123641429Y36241429D02*
X-123784286Y36312858D01*
X-123855715Y36455715D01*
X-123855715Y37741429D01*
X-122855715Y36241429D02*
X-122998572Y36312858D01*
X-123070001Y36455715D01*
X-123070001Y37741429D01*
X-121641429Y36241429D02*
X-121641429Y37027143D01*
X-121712858Y37170000D01*
X-121855715Y37241429D01*
X-122141429Y37241429D01*
X-122284286Y37170000D01*
X-121641429Y36312858D02*
X-121784286Y36241429D01*
X-122141429Y36241429D01*
X-122284286Y36312858D01*
X-122355715Y36455715D01*
X-122355715Y36598572D01*
X-122284286Y36741429D01*
X-122141429Y36812858D01*
X-121784286Y36812858D01*
X-121641429Y36884286D01*
X-121141429Y37241429D02*
X-120570001Y37241429D01*
X-120927143Y37741429D02*
X-120927143Y36455715D01*
X-120855715Y36312858D01*
X-120712858Y36241429D01*
X-120570001Y36241429D01*
X-119498572Y36312858D02*
X-119641429Y36241429D01*
X-119927143Y36241429D01*
X-120070001Y36312858D01*
X-120141429Y36455715D01*
X-120141429Y37027143D01*
X-120070001Y37170000D01*
X-119927143Y37241429D01*
X-119641429Y37241429D01*
X-119498572Y37170000D01*
X-119427143Y37027143D01*
X-119427143Y36884286D01*
X-120141429Y36741429D01*
X-118141429Y36241429D02*
X-118141429Y37741429D01*
X-118141429Y36312858D02*
X-118284286Y36241429D01*
X-118570001Y36241429D01*
X-118712858Y36312858D01*
X-118784286Y36384286D01*
X-118855715Y36527143D01*
X-118855715Y36955715D01*
X-118784286Y37098572D01*
X-118712858Y37170000D01*
X-118570001Y37241429D01*
X-118284286Y37241429D01*
X-118141429Y37170000D01*
X-116284286Y37241429D02*
X-116284286Y35741429D01*
X-116284286Y37170000D02*
X-116141429Y37241429D01*
X-115855715Y37241429D01*
X-115712858Y37170000D01*
X-115641429Y37098572D01*
X-115570001Y36955715D01*
X-115570001Y36527143D01*
X-115641429Y36384286D01*
X-115712858Y36312858D01*
X-115855715Y36241429D01*
X-116141429Y36241429D01*
X-116284286Y36312858D01*
X-114284286Y36241429D02*
X-114284286Y37027143D01*
X-114355715Y37170000D01*
X-114498572Y37241429D01*
X-114784286Y37241429D01*
X-114927143Y37170000D01*
X-114284286Y36312858D02*
X-114427143Y36241429D01*
X-114784286Y36241429D01*
X-114927143Y36312858D01*
X-114998572Y36455715D01*
X-114998572Y36598572D01*
X-114927143Y36741429D01*
X-114784286Y36812858D01*
X-114427143Y36812858D01*
X-114284286Y36884286D01*
X-112927143Y36241429D02*
X-112927143Y37741429D01*
X-112927143Y36312858D02*
X-113070001Y36241429D01*
X-113355715Y36241429D01*
X-113498572Y36312858D01*
X-113570001Y36384286D01*
X-113641429Y36527143D01*
X-113641429Y36955715D01*
X-113570001Y37098572D01*
X-113498572Y37170000D01*
X-113355715Y37241429D01*
X-113070001Y37241429D01*
X-112927143Y37170000D01*
X-112284286Y36312858D02*
X-112141429Y36241429D01*
X-111855715Y36241429D01*
X-111712858Y36312858D01*
X-111641429Y36455715D01*
X-111641429Y36527143D01*
X-111712858Y36670000D01*
X-111855715Y36741429D01*
X-112070001Y36741429D01*
X-112212858Y36812858D01*
X-112284286Y36955715D01*
X-112284286Y37027143D01*
X-112212858Y37170000D01*
X-112070001Y37241429D01*
X-111855715Y37241429D01*
X-111712858Y37170000D01*
X-110998572Y36384286D02*
X-110927143Y36312858D01*
X-110998572Y36241429D01*
X-111070001Y36312858D01*
X-110998572Y36384286D01*
X-110998572Y36241429D01*
X-110998572Y37170000D02*
X-110927143Y37098572D01*
X-110998572Y37027143D01*
X-111070001Y37098572D01*
X-110998572Y37170000D01*
X-110998572Y37027143D01*
D10*
X-129563573Y82687143D02*
X-129349287Y82615715D01*
X-129277858Y82544286D01*
X-129206430Y82401429D01*
X-129206430Y82187143D01*
X-129277858Y82044286D01*
X-129349287Y81972858D01*
X-129492144Y81901429D01*
X-130063573Y81901429D01*
X-130063573Y83401429D01*
X-129563573Y83401429D01*
X-129420715Y83330000D01*
X-129349287Y83258572D01*
X-129277858Y83115715D01*
X-129277858Y82972858D01*
X-129349287Y82830000D01*
X-129420715Y82758572D01*
X-129563573Y82687143D01*
X-130063573Y82687143D01*
X-128563573Y82044286D02*
X-128492144Y81972858D01*
X-128563573Y81901429D01*
X-128635001Y81972858D01*
X-128563573Y82044286D01*
X-128563573Y81901429D01*
X-126992144Y82044286D02*
X-127063573Y81972858D01*
X-127277858Y81901429D01*
X-127420715Y81901429D01*
X-127635001Y81972858D01*
X-127777858Y82115715D01*
X-127849287Y82258572D01*
X-127920715Y82544286D01*
X-127920715Y82758572D01*
X-127849287Y83044286D01*
X-127777858Y83187143D01*
X-127635001Y83330000D01*
X-127420715Y83401429D01*
X-127277858Y83401429D01*
X-127063573Y83330000D01*
X-126992144Y83258572D01*
X-125706430Y82901429D02*
X-125706430Y81901429D01*
X-126349287Y82901429D02*
X-126349287Y82115715D01*
X-126277858Y81972858D01*
X-126135001Y81901429D01*
X-125920715Y81901429D01*
X-125777858Y81972858D01*
X-125706430Y82044286D01*
D12*
X-130070001Y32812143D02*
X-129570001Y32812143D01*
X-129355715Y32026429D02*
X-130070001Y32026429D01*
X-130070001Y33526429D01*
X-129355715Y33526429D01*
X-128070001Y32026429D02*
X-128070001Y33526429D01*
X-128070001Y32097858D02*
X-128212858Y32026429D01*
X-128498572Y32026429D01*
X-128641429Y32097858D01*
X-128712858Y32169286D01*
X-128784286Y32312143D01*
X-128784286Y32740715D01*
X-128712858Y32883572D01*
X-128641429Y32955000D01*
X-128498572Y33026429D01*
X-128212858Y33026429D01*
X-128070001Y32955000D01*
X-126712858Y33026429D02*
X-126712858Y31812143D01*
X-126784286Y31669286D01*
X-126855715Y31597858D01*
X-126998572Y31526429D01*
X-127212858Y31526429D01*
X-127355715Y31597858D01*
X-126712858Y32097858D02*
X-126855715Y32026429D01*
X-127141429Y32026429D01*
X-127284286Y32097858D01*
X-127355715Y32169286D01*
X-127427143Y32312143D01*
X-127427143Y32740715D01*
X-127355715Y32883572D01*
X-127284286Y32955000D01*
X-127141429Y33026429D01*
X-126855715Y33026429D01*
X-126712858Y32955000D01*
X-125427143Y32097858D02*
X-125570001Y32026429D01*
X-125855715Y32026429D01*
X-125998572Y32097858D01*
X-126070001Y32240715D01*
X-126070001Y32812143D01*
X-125998572Y32955000D01*
X-125855715Y33026429D01*
X-125570001Y33026429D01*
X-125427143Y32955000D01*
X-125355715Y32812143D01*
X-125355715Y32669286D01*
X-126070001Y32526429D01*
X-122927143Y32097858D02*
X-123070001Y32026429D01*
X-123355715Y32026429D01*
X-123498572Y32097858D01*
X-123570001Y32169286D01*
X-123641429Y32312143D01*
X-123641429Y32740715D01*
X-123570001Y32883572D01*
X-123498572Y32955000D01*
X-123355715Y33026429D01*
X-123070001Y33026429D01*
X-122927143Y32955000D01*
X-121641429Y32026429D02*
X-121641429Y32812143D01*
X-121712858Y32955000D01*
X-121855715Y33026429D01*
X-122141429Y33026429D01*
X-122284286Y32955000D01*
X-121641429Y32097858D02*
X-121784286Y32026429D01*
X-122141429Y32026429D01*
X-122284286Y32097858D01*
X-122355715Y32240715D01*
X-122355715Y32383572D01*
X-122284286Y32526429D01*
X-122141429Y32597858D01*
X-121784286Y32597858D01*
X-121641429Y32669286D01*
X-120927143Y32026429D02*
X-120927143Y33026429D01*
X-120927143Y32740715D02*
X-120855715Y32883572D01*
X-120784286Y32955000D01*
X-120641429Y33026429D01*
X-120498572Y33026429D01*
X-119355715Y32026429D02*
X-119355715Y33526429D01*
X-119355715Y32097858D02*
X-119498572Y32026429D01*
X-119784286Y32026429D01*
X-119927143Y32097858D01*
X-119998572Y32169286D01*
X-120070001Y32312143D01*
X-120070001Y32740715D01*
X-119998572Y32883572D01*
X-119927143Y32955000D01*
X-119784286Y33026429D01*
X-119498572Y33026429D01*
X-119355715Y32955000D01*
X-116855715Y32097858D02*
X-116998572Y32026429D01*
X-117284286Y32026429D01*
X-117427143Y32097858D01*
X-117498572Y32169286D01*
X-117570001Y32312143D01*
X-117570001Y32740715D01*
X-117498572Y32883572D01*
X-117427143Y32955000D01*
X-117284286Y33026429D01*
X-116998572Y33026429D01*
X-116855715Y32955000D01*
X-115998572Y32026429D02*
X-116141429Y32097858D01*
X-116212858Y32169286D01*
X-116284286Y32312143D01*
X-116284286Y32740715D01*
X-116212858Y32883572D01*
X-116141429Y32955000D01*
X-115998572Y33026429D01*
X-115784286Y33026429D01*
X-115641429Y32955000D01*
X-115570001Y32883572D01*
X-115498572Y32740715D01*
X-115498572Y32312143D01*
X-115570001Y32169286D01*
X-115641429Y32097858D01*
X-115784286Y32026429D01*
X-115998572Y32026429D01*
X-114855715Y33026429D02*
X-114855715Y32026429D01*
X-114855715Y32883572D02*
X-114784286Y32955000D01*
X-114641429Y33026429D01*
X-114427143Y33026429D01*
X-114284286Y32955000D01*
X-114212858Y32812143D01*
X-114212858Y32026429D01*
X-113498572Y33026429D02*
X-113498572Y32026429D01*
X-113498572Y32883572D02*
X-113427143Y32955000D01*
X-113284286Y33026429D01*
X-113070001Y33026429D01*
X-112927143Y32955000D01*
X-112855715Y32812143D01*
X-112855715Y32026429D01*
X-111570001Y32097858D02*
X-111712858Y32026429D01*
X-111998572Y32026429D01*
X-112141429Y32097858D01*
X-112212858Y32240715D01*
X-112212858Y32812143D01*
X-112141429Y32955000D01*
X-111998572Y33026429D01*
X-111712858Y33026429D01*
X-111570001Y32955000D01*
X-111498572Y32812143D01*
X-111498572Y32669286D01*
X-112212858Y32526429D01*
X-110212858Y32097858D02*
X-110355715Y32026429D01*
X-110641429Y32026429D01*
X-110784286Y32097858D01*
X-110855715Y32169286D01*
X-110927143Y32312143D01*
X-110927143Y32740715D01*
X-110855715Y32883572D01*
X-110784286Y32955000D01*
X-110641429Y33026429D01*
X-110355715Y33026429D01*
X-110212858Y32955000D01*
X-109784286Y33026429D02*
X-109212858Y33026429D01*
X-109570001Y33526429D02*
X-109570001Y32240715D01*
X-109498572Y32097858D01*
X-109355715Y32026429D01*
X-109212858Y32026429D01*
X-108498572Y32026429D02*
X-108641429Y32097858D01*
X-108712858Y32169286D01*
X-108784286Y32312143D01*
X-108784286Y32740715D01*
X-108712858Y32883572D01*
X-108641429Y32955000D01*
X-108498572Y33026429D01*
X-108284286Y33026429D01*
X-108141429Y32955000D01*
X-108070001Y32883572D01*
X-107998572Y32740715D01*
X-107998572Y32312143D01*
X-108070001Y32169286D01*
X-108141429Y32097858D01*
X-108284286Y32026429D01*
X-108498572Y32026429D01*
X-107355715Y32026429D02*
X-107355715Y33026429D01*
X-107355715Y32740715D02*
X-107284286Y32883572D01*
X-107212858Y32955000D01*
X-107070001Y33026429D01*
X-106927143Y33026429D01*
X-106498572Y32097858D02*
X-106355715Y32026429D01*
X-106070001Y32026429D01*
X-105927143Y32097858D01*
X-105855715Y32240715D01*
X-105855715Y32312143D01*
X-105927143Y32455000D01*
X-106070001Y32526429D01*
X-106284286Y32526429D01*
X-106427143Y32597858D01*
X-106498572Y32740715D01*
X-106498572Y32812143D01*
X-106427143Y32955000D01*
X-106284286Y33026429D01*
X-106070001Y33026429D01*
X-105927143Y32955000D01*
X-105212858Y32169286D02*
X-105141429Y32097858D01*
X-105212858Y32026429D01*
X-105284286Y32097858D01*
X-105212858Y32169286D01*
X-105212858Y32026429D01*
X-105212858Y32955000D02*
X-105141429Y32883572D01*
X-105212858Y32812143D01*
X-105284286Y32883572D01*
X-105212858Y32955000D01*
X-105212858Y32812143D01*
D10*
X-43935001Y95596429D02*
X-43006429Y95596429D01*
X-43506429Y95025000D01*
X-43292144Y95025000D01*
X-43149286Y94953572D01*
X-43077858Y94882143D01*
X-43006429Y94739286D01*
X-43006429Y94382143D01*
X-43077858Y94239286D01*
X-43149286Y94167858D01*
X-43292144Y94096429D01*
X-43720715Y94096429D01*
X-43863572Y94167858D01*
X-43935001Y94239286D01*
X-42363572Y94239286D02*
X-42292144Y94167858D01*
X-42363572Y94096429D01*
X-42435001Y94167858D01*
X-42363572Y94239286D01*
X-42363572Y94096429D01*
X-41792144Y95596429D02*
X-40863572Y95596429D01*
X-41363572Y95025000D01*
X-41149286Y95025000D01*
X-41006429Y94953572D01*
X-40935001Y94882143D01*
X-40863572Y94739286D01*
X-40863572Y94382143D01*
X-40935001Y94239286D01*
X-41006429Y94167858D01*
X-41149286Y94096429D01*
X-41577858Y94096429D01*
X-41720715Y94167858D01*
X-41792144Y94239286D01*
D11*
X84575952Y99904762D02*
X84671190Y100000000D01*
X84861666Y100095239D01*
X85337857Y100095239D01*
X85528333Y100000000D01*
X85623571Y99904762D01*
X85718809Y99714286D01*
X85718809Y99523810D01*
X85623571Y99238096D01*
X84480714Y98095239D01*
X85718809Y98095239D01*
X86956904Y100095239D02*
X87147380Y100095239D01*
X87337857Y100000000D01*
X87433095Y99904762D01*
X87528333Y99714286D01*
X87623571Y99333334D01*
X87623571Y98857143D01*
X87528333Y98476191D01*
X87433095Y98285715D01*
X87337857Y98190477D01*
X87147380Y98095239D01*
X86956904Y98095239D01*
X86766428Y98190477D01*
X86671190Y98285715D01*
X86575952Y98476191D01*
X86480714Y98857143D01*
X86480714Y99333334D01*
X86575952Y99714286D01*
X86671190Y99904762D01*
X86766428Y100000000D01*
X86956904Y100095239D01*
X88385476Y99904762D02*
X88480714Y100000000D01*
X88671190Y100095239D01*
X89147380Y100095239D01*
X89337857Y100000000D01*
X89433095Y99904762D01*
X89528333Y99714286D01*
X89528333Y99523810D01*
X89433095Y99238096D01*
X88290238Y98095239D01*
X89528333Y98095239D01*
X90290238Y99904762D02*
X90385476Y100000000D01*
X90575952Y100095239D01*
X91052142Y100095239D01*
X91242619Y100000000D01*
X91337857Y99904762D01*
X91433095Y99714286D01*
X91433095Y99523810D01*
X91337857Y99238096D01*
X90195000Y98095239D01*
X91433095Y98095239D01*
X92290238Y98857143D02*
X93814047Y98857143D01*
X95147380Y100095239D02*
X95337857Y100095239D01*
X95528333Y100000000D01*
X95623571Y99904762D01*
X95718809Y99714286D01*
X95814047Y99333334D01*
X95814047Y98857143D01*
X95718809Y98476191D01*
X95623571Y98285715D01*
X95528333Y98190477D01*
X95337857Y98095239D01*
X95147380Y98095239D01*
X94956904Y98190477D01*
X94861666Y98285715D01*
X94766428Y98476191D01*
X94671190Y98857143D01*
X94671190Y99333334D01*
X94766428Y99714286D01*
X94861666Y99904762D01*
X94956904Y100000000D01*
X95147380Y100095239D01*
X97528333Y99428572D02*
X97528333Y98095239D01*
X97052142Y100190477D02*
X96575952Y98761905D01*
X97814047Y98761905D01*
X98575952Y98857143D02*
X100099761Y98857143D01*
X101433095Y100095239D02*
X101623571Y100095239D01*
X101814047Y100000000D01*
X101909285Y99904762D01*
X102004523Y99714286D01*
X102099761Y99333334D01*
X102099761Y98857143D01*
X102004523Y98476191D01*
X101909285Y98285715D01*
X101814047Y98190477D01*
X101623571Y98095239D01*
X101433095Y98095239D01*
X101242619Y98190477D01*
X101147380Y98285715D01*
X101052142Y98476191D01*
X100956904Y98857143D01*
X100956904Y99333334D01*
X101052142Y99714286D01*
X101147380Y99904762D01*
X101242619Y100000000D01*
X101433095Y100095239D01*
X102766428Y100095239D02*
X104004523Y100095239D01*
X103337857Y99333334D01*
X103623571Y99333334D01*
X103814047Y99238096D01*
X103909285Y99142858D01*
X104004523Y98952381D01*
X104004523Y98476191D01*
X103909285Y98285715D01*
X103814047Y98190477D01*
X103623571Y98095239D01*
X103052142Y98095239D01*
X102861666Y98190477D01*
X102766428Y98285715D01*
D10*
X-30920715Y71206429D02*
X-30777858Y71206429D01*
X-30635001Y71135000D01*
X-30563572Y71063572D01*
X-30492144Y70920715D01*
X-30420715Y70635000D01*
X-30420715Y70277858D01*
X-30492144Y69992143D01*
X-30563572Y69849286D01*
X-30635001Y69777858D01*
X-30777858Y69706429D01*
X-30920715Y69706429D01*
X-31063572Y69777858D01*
X-31135001Y69849286D01*
X-31206430Y69992143D01*
X-31277858Y70277858D01*
X-31277858Y70635000D01*
X-31206430Y70920715D01*
X-31135001Y71063572D01*
X-31063572Y71135000D01*
X-30920715Y71206429D01*
X-30920715Y75271429D02*
X-30777858Y75271429D01*
X-30635001Y75200000D01*
X-30563572Y75128572D01*
X-30492144Y74985715D01*
X-30420715Y74700000D01*
X-30420715Y74342858D01*
X-30492144Y74057143D01*
X-30563572Y73914286D01*
X-30635001Y73842858D01*
X-30777858Y73771429D01*
X-30920715Y73771429D01*
X-31063572Y73842858D01*
X-31135001Y73914286D01*
X-31206430Y74057143D01*
X-31277858Y74342858D01*
X-31277858Y74700000D01*
X-31206430Y74985715D01*
X-31135001Y75128572D01*
X-31063572Y75200000D01*
X-30920715Y75271429D01*
X-43149286Y86966429D02*
X-43149286Y85966429D01*
X-43506429Y87537858D02*
X-43863572Y86466429D01*
X-42935001Y86466429D01*
X-42363572Y86109286D02*
X-42292144Y86037858D01*
X-42363572Y85966429D01*
X-42435001Y86037858D01*
X-42363572Y86109286D01*
X-42363572Y85966429D01*
X-40935001Y87466429D02*
X-41649286Y87466429D01*
X-41720715Y86752143D01*
X-41649286Y86823572D01*
X-41506429Y86895000D01*
X-41149286Y86895000D01*
X-41006429Y86823572D01*
X-40935001Y86752143D01*
X-40863572Y86609286D01*
X-40863572Y86252143D01*
X-40935001Y86109286D01*
X-41006429Y86037858D01*
X-41149286Y85966429D01*
X-41506429Y85966429D01*
X-41649286Y86037858D01*
X-41720715Y86109286D01*
X-129563573Y74557143D02*
X-129349287Y74485715D01*
X-129277858Y74414286D01*
X-129206430Y74271429D01*
X-129206430Y74057143D01*
X-129277858Y73914286D01*
X-129349287Y73842858D01*
X-129492144Y73771429D01*
X-130063573Y73771429D01*
X-130063573Y75271429D01*
X-129563573Y75271429D01*
X-129420715Y75200000D01*
X-129349287Y75128572D01*
X-129277858Y74985715D01*
X-129277858Y74842858D01*
X-129349287Y74700000D01*
X-129420715Y74628572D01*
X-129563573Y74557143D01*
X-130063573Y74557143D01*
X-128563573Y73914286D02*
X-128492144Y73842858D01*
X-128563573Y73771429D01*
X-128635001Y73842858D01*
X-128563573Y73914286D01*
X-128563573Y73771429D01*
X-127849287Y73771429D02*
X-127849287Y75271429D01*
X-127277858Y75271429D01*
X-127135001Y75200000D01*
X-127063573Y75128572D01*
X-126992144Y74985715D01*
X-126992144Y74771429D01*
X-127063573Y74628572D01*
X-127135001Y74557143D01*
X-127277858Y74485715D01*
X-127849287Y74485715D01*
X-125706430Y73771429D02*
X-125706430Y74557143D01*
X-125777858Y74700000D01*
X-125920715Y74771429D01*
X-126206430Y74771429D01*
X-126349287Y74700000D01*
X-125706430Y73842858D02*
X-125849287Y73771429D01*
X-126206430Y73771429D01*
X-126349287Y73842858D01*
X-126420715Y73985715D01*
X-126420715Y74128572D01*
X-126349287Y74271429D01*
X-126206430Y74342858D01*
X-125849287Y74342858D01*
X-125706430Y74414286D01*
X-125063573Y73842858D02*
X-124920715Y73771429D01*
X-124635001Y73771429D01*
X-124492144Y73842858D01*
X-124420715Y73985715D01*
X-124420715Y74057143D01*
X-124492144Y74200000D01*
X-124635001Y74271429D01*
X-124849287Y74271429D01*
X-124992144Y74342858D01*
X-125063573Y74485715D01*
X-125063573Y74557143D01*
X-124992144Y74700000D01*
X-124849287Y74771429D01*
X-124635001Y74771429D01*
X-124492144Y74700000D01*
X-123992144Y74771429D02*
X-123420715Y74771429D01*
X-123777858Y75271429D02*
X-123777858Y73985715D01*
X-123706430Y73842858D01*
X-123563573Y73771429D01*
X-123420715Y73771429D01*
X-122349287Y73842858D02*
X-122492144Y73771429D01*
X-122777858Y73771429D01*
X-122920715Y73842858D01*
X-122992144Y73985715D01*
X-122992144Y74557143D01*
X-122920715Y74700000D01*
X-122777858Y74771429D01*
X-122492144Y74771429D01*
X-122349287Y74700000D01*
X-122277858Y74557143D01*
X-122277858Y74414286D01*
X-122992144Y74271429D01*
D12*
X-129212858Y40599286D02*
X-129284286Y40527858D01*
X-129498572Y40456429D01*
X-129641429Y40456429D01*
X-129855715Y40527858D01*
X-129998572Y40670715D01*
X-130070001Y40813572D01*
X-130141429Y41099286D01*
X-130141429Y41313572D01*
X-130070001Y41599286D01*
X-129998572Y41742143D01*
X-129855715Y41885000D01*
X-129641429Y41956429D01*
X-129498572Y41956429D01*
X-129284286Y41885000D01*
X-129212858Y41813572D01*
X-128355715Y40456429D02*
X-128498572Y40527858D01*
X-128570001Y40599286D01*
X-128641429Y40742143D01*
X-128641429Y41170715D01*
X-128570001Y41313572D01*
X-128498572Y41385000D01*
X-128355715Y41456429D01*
X-128141429Y41456429D01*
X-127998572Y41385000D01*
X-127927143Y41313572D01*
X-127855715Y41170715D01*
X-127855715Y40742143D01*
X-127927143Y40599286D01*
X-127998572Y40527858D01*
X-128141429Y40456429D01*
X-128355715Y40456429D01*
X-127212858Y41456429D02*
X-127212858Y39956429D01*
X-127212858Y41385000D02*
X-127070001Y41456429D01*
X-126784286Y41456429D01*
X-126641429Y41385000D01*
X-126570001Y41313572D01*
X-126498572Y41170715D01*
X-126498572Y40742143D01*
X-126570001Y40599286D01*
X-126641429Y40527858D01*
X-126784286Y40456429D01*
X-127070001Y40456429D01*
X-127212858Y40527858D01*
X-125855715Y41456429D02*
X-125855715Y39956429D01*
X-125855715Y41385000D02*
X-125712858Y41456429D01*
X-125427143Y41456429D01*
X-125284286Y41385000D01*
X-125212858Y41313572D01*
X-125141429Y41170715D01*
X-125141429Y40742143D01*
X-125212858Y40599286D01*
X-125284286Y40527858D01*
X-125427143Y40456429D01*
X-125712858Y40456429D01*
X-125855715Y40527858D01*
X-123927143Y40527858D02*
X-124070001Y40456429D01*
X-124355715Y40456429D01*
X-124498572Y40527858D01*
X-124570001Y40670715D01*
X-124570001Y41242143D01*
X-124498572Y41385000D01*
X-124355715Y41456429D01*
X-124070001Y41456429D01*
X-123927143Y41385000D01*
X-123855715Y41242143D01*
X-123855715Y41099286D01*
X-124570001Y40956429D01*
X-123212858Y40456429D02*
X-123212858Y41456429D01*
X-123212858Y41170715D02*
X-123141429Y41313572D01*
X-123070001Y41385000D01*
X-122927143Y41456429D01*
X-122784286Y41456429D01*
X-120641429Y41242143D02*
X-121141429Y41242143D01*
X-121141429Y40456429D02*
X-121141429Y41956429D01*
X-120427143Y41956429D01*
X-119855715Y40456429D02*
X-119855715Y41456429D01*
X-119855715Y41956429D02*
X-119927143Y41885000D01*
X-119855715Y41813572D01*
X-119784286Y41885000D01*
X-119855715Y41956429D01*
X-119855715Y41813572D01*
X-119141429Y41456429D02*
X-119141429Y40456429D01*
X-119141429Y41313572D02*
X-119070001Y41385000D01*
X-118927143Y41456429D01*
X-118712858Y41456429D01*
X-118570001Y41385000D01*
X-118498572Y41242143D01*
X-118498572Y40456429D01*
X-117784286Y40456429D02*
X-117784286Y41456429D01*
X-117784286Y41956429D02*
X-117855715Y41885000D01*
X-117784286Y41813572D01*
X-117712858Y41885000D01*
X-117784286Y41956429D01*
X-117784286Y41813572D01*
X-117141429Y40527858D02*
X-116998572Y40456429D01*
X-116712858Y40456429D01*
X-116570001Y40527858D01*
X-116498572Y40670715D01*
X-116498572Y40742143D01*
X-116570001Y40885000D01*
X-116712858Y40956429D01*
X-116927143Y40956429D01*
X-117070001Y41027858D01*
X-117141429Y41170715D01*
X-117141429Y41242143D01*
X-117070001Y41385000D01*
X-116927143Y41456429D01*
X-116712858Y41456429D01*
X-116570001Y41385000D01*
X-115855715Y40456429D02*
X-115855715Y41956429D01*
X-115212858Y40456429D02*
X-115212858Y41242143D01*
X-115284286Y41385000D01*
X-115427143Y41456429D01*
X-115641429Y41456429D01*
X-115784286Y41385000D01*
X-115855715Y41313572D01*
X-114498572Y40599286D02*
X-114427143Y40527858D01*
X-114498572Y40456429D01*
X-114570001Y40527858D01*
X-114498572Y40599286D01*
X-114498572Y40456429D01*
X-114498572Y41385000D02*
X-114427143Y41313572D01*
X-114498572Y41242143D01*
X-114570001Y41313572D01*
X-114498572Y41385000D01*
X-114498572Y41242143D01*
X-63455715Y36241429D02*
X-63455715Y37741429D01*
X-62884286Y37741429D01*
X-62741429Y37670000D01*
X-62670000Y37598572D01*
X-62598572Y37455715D01*
X-62598572Y37241429D01*
X-62670000Y37098572D01*
X-62741429Y37027143D01*
X-62884286Y36955715D01*
X-63455715Y36955715D01*
X-61741429Y36241429D02*
X-61884286Y36312858D01*
X-61955715Y36455715D01*
X-61955715Y37741429D01*
X-60527143Y36241429D02*
X-60527143Y37027143D01*
X-60598572Y37170000D01*
X-60741429Y37241429D01*
X-61027143Y37241429D01*
X-61170000Y37170000D01*
X-60527143Y36312858D02*
X-60670000Y36241429D01*
X-61027143Y36241429D01*
X-61170000Y36312858D01*
X-61241429Y36455715D01*
X-61241429Y36598572D01*
X-61170000Y36741429D01*
X-61027143Y36812858D01*
X-60670000Y36812858D01*
X-60527143Y36884286D01*
X-60027143Y37241429D02*
X-59455715Y37241429D01*
X-59812857Y37741429D02*
X-59812857Y36455715D01*
X-59741429Y36312858D01*
X-59598572Y36241429D01*
X-59455715Y36241429D01*
X-58384286Y36312858D02*
X-58527143Y36241429D01*
X-58812857Y36241429D01*
X-58955715Y36312858D01*
X-59027143Y36455715D01*
X-59027143Y37027143D01*
X-58955715Y37170000D01*
X-58812857Y37241429D01*
X-58527143Y37241429D01*
X-58384286Y37170000D01*
X-58312857Y37027143D01*
X-58312857Y36884286D01*
X-59027143Y36741429D01*
X-57027143Y36241429D02*
X-57027143Y37741429D01*
X-57027143Y36312858D02*
X-57170000Y36241429D01*
X-57455715Y36241429D01*
X-57598572Y36312858D01*
X-57670000Y36384286D01*
X-57741429Y36527143D01*
X-57741429Y36955715D01*
X-57670000Y37098572D01*
X-57598572Y37170000D01*
X-57455715Y37241429D01*
X-57170000Y37241429D01*
X-57027143Y37170000D01*
X-54670000Y37027143D02*
X-54455715Y36955715D01*
X-54384286Y36884286D01*
X-54312857Y36741429D01*
X-54312857Y36527143D01*
X-54384286Y36384286D01*
X-54455715Y36312858D01*
X-54598572Y36241429D01*
X-55170000Y36241429D01*
X-55170000Y37741429D01*
X-54670000Y37741429D01*
X-54527143Y37670000D01*
X-54455715Y37598572D01*
X-54384286Y37455715D01*
X-54384286Y37312858D01*
X-54455715Y37170000D01*
X-54527143Y37098572D01*
X-54670000Y37027143D01*
X-55170000Y37027143D01*
X-53455715Y36241429D02*
X-53598572Y36312858D01*
X-53670000Y36384286D01*
X-53741429Y36527143D01*
X-53741429Y36955715D01*
X-53670000Y37098572D01*
X-53598572Y37170000D01*
X-53455715Y37241429D01*
X-53241429Y37241429D01*
X-53098572Y37170000D01*
X-53027143Y37098572D01*
X-52955715Y36955715D01*
X-52955715Y36527143D01*
X-53027143Y36384286D01*
X-53098572Y36312858D01*
X-53241429Y36241429D01*
X-53455715Y36241429D01*
X-51670000Y36241429D02*
X-51670000Y37027143D01*
X-51741429Y37170000D01*
X-51884286Y37241429D01*
X-52170000Y37241429D01*
X-52312857Y37170000D01*
X-51670000Y36312858D02*
X-51812857Y36241429D01*
X-52170000Y36241429D01*
X-52312857Y36312858D01*
X-52384286Y36455715D01*
X-52384286Y36598572D01*
X-52312857Y36741429D01*
X-52170000Y36812858D01*
X-51812857Y36812858D01*
X-51670000Y36884286D01*
X-50955715Y36241429D02*
X-50955715Y37241429D01*
X-50955715Y36955715D02*
X-50884286Y37098572D01*
X-50812857Y37170000D01*
X-50670000Y37241429D01*
X-50527143Y37241429D01*
X-49384286Y36241429D02*
X-49384286Y37741429D01*
X-49384286Y36312858D02*
X-49527143Y36241429D01*
X-49812857Y36241429D01*
X-49955715Y36312858D01*
X-50027143Y36384286D01*
X-50098572Y36527143D01*
X-50098572Y36955715D01*
X-50027143Y37098572D01*
X-49955715Y37170000D01*
X-49812857Y37241429D01*
X-49527143Y37241429D01*
X-49384286Y37170000D01*
X-47527143Y37027143D02*
X-47027143Y37027143D01*
X-46812857Y36241429D02*
X-47527143Y36241429D01*
X-47527143Y37741429D01*
X-46812857Y37741429D01*
X-45527143Y36241429D02*
X-45527143Y37741429D01*
X-45527143Y36312858D02*
X-45670000Y36241429D01*
X-45955715Y36241429D01*
X-46098572Y36312858D01*
X-46170000Y36384286D01*
X-46241429Y36527143D01*
X-46241429Y36955715D01*
X-46170000Y37098572D01*
X-46098572Y37170000D01*
X-45955715Y37241429D01*
X-45670000Y37241429D01*
X-45527143Y37170000D01*
X-44170000Y37241429D02*
X-44170000Y36027143D01*
X-44241429Y35884286D01*
X-44312857Y35812858D01*
X-44455715Y35741429D01*
X-44670000Y35741429D01*
X-44812857Y35812858D01*
X-44170000Y36312858D02*
X-44312857Y36241429D01*
X-44598572Y36241429D01*
X-44741429Y36312858D01*
X-44812857Y36384286D01*
X-44884286Y36527143D01*
X-44884286Y36955715D01*
X-44812857Y37098572D01*
X-44741429Y37170000D01*
X-44598572Y37241429D01*
X-44312857Y37241429D01*
X-44170000Y37170000D01*
X-42884286Y36312858D02*
X-43027143Y36241429D01*
X-43312857Y36241429D01*
X-43455715Y36312858D01*
X-43527143Y36455715D01*
X-43527143Y37027143D01*
X-43455715Y37170000D01*
X-43312857Y37241429D01*
X-43027143Y37241429D01*
X-42884286Y37170000D01*
X-42812857Y37027143D01*
X-42812857Y36884286D01*
X-43527143Y36741429D01*
X-42170000Y36384286D02*
X-42098572Y36312858D01*
X-42170000Y36241429D01*
X-42241429Y36312858D01*
X-42170000Y36384286D01*
X-42170000Y36241429D01*
X-42170000Y37170000D02*
X-42098572Y37098572D01*
X-42170000Y37027143D01*
X-42241429Y37098572D01*
X-42170000Y37170000D01*
X-42170000Y37027143D01*
D10*
X-43006429Y102226429D02*
X-43863572Y102226429D01*
X-43435001Y102226429D02*
X-43435001Y103726429D01*
X-43577858Y103512143D01*
X-43720715Y103369286D01*
X-43863572Y103297858D01*
X-43006429Y90031429D02*
X-43863572Y90031429D01*
X-43435001Y90031429D02*
X-43435001Y91531429D01*
X-43577858Y91317143D01*
X-43720715Y91174286D01*
X-43863572Y91102858D01*
D11*
X14337857Y99142858D02*
X13671190Y99142858D01*
X13671190Y98095239D02*
X13671190Y100095239D01*
X14623571Y100095239D01*
X15385476Y98095239D02*
X15385476Y99428572D01*
X15385476Y100095239D02*
X15290238Y100000000D01*
X15385476Y99904762D01*
X15480714Y100000000D01*
X15385476Y100095239D01*
X15385476Y99904762D01*
X16337857Y98095239D02*
X16337857Y99428572D01*
X16337857Y99047620D02*
X16433095Y99238096D01*
X16528333Y99333334D01*
X16718809Y99428572D01*
X16909285Y99428572D01*
X17480714Y98190477D02*
X17671190Y98095239D01*
X18052142Y98095239D01*
X18242619Y98190477D01*
X18337857Y98380953D01*
X18337857Y98476191D01*
X18242619Y98666667D01*
X18052142Y98761905D01*
X17766428Y98761905D01*
X17575952Y98857143D01*
X17480714Y99047620D01*
X17480714Y99142858D01*
X17575952Y99333334D01*
X17766428Y99428572D01*
X18052142Y99428572D01*
X18242619Y99333334D01*
X18909285Y99428572D02*
X19671190Y99428572D01*
X19195000Y100095239D02*
X19195000Y98380953D01*
X19290238Y98190477D01*
X19480714Y98095239D01*
X19671190Y98095239D01*
X21671190Y99428572D02*
X22147380Y98095239D01*
X22623571Y99428572D01*
X24147380Y98190477D02*
X23956904Y98095239D01*
X23575952Y98095239D01*
X23385476Y98190477D01*
X23290238Y98380953D01*
X23290238Y99142858D01*
X23385476Y99333334D01*
X23575952Y99428572D01*
X23956904Y99428572D01*
X24147380Y99333334D01*
X24242619Y99142858D01*
X24242619Y98952381D01*
X23290238Y98761905D01*
X25099761Y98095239D02*
X25099761Y99428572D01*
X25099761Y99047620D02*
X25195000Y99238096D01*
X25290238Y99333334D01*
X25480714Y99428572D01*
X25671190Y99428572D01*
X26242619Y98190477D02*
X26433095Y98095239D01*
X26814047Y98095239D01*
X27004523Y98190477D01*
X27099761Y98380953D01*
X27099761Y98476191D01*
X27004523Y98666667D01*
X26814047Y98761905D01*
X26528333Y98761905D01*
X26337857Y98857143D01*
X26242619Y99047620D01*
X26242619Y99142858D01*
X26337857Y99333334D01*
X26528333Y99428572D01*
X26814047Y99428572D01*
X27004523Y99333334D01*
X27956904Y98095239D02*
X27956904Y99428572D01*
X27956904Y100095239D02*
X27861666Y100000000D01*
X27956904Y99904762D01*
X28052142Y100000000D01*
X27956904Y100095239D01*
X27956904Y99904762D01*
X29195000Y98095239D02*
X29004523Y98190477D01*
X28909285Y98285715D01*
X28814047Y98476191D01*
X28814047Y99047620D01*
X28909285Y99238096D01*
X29004523Y99333334D01*
X29195000Y99428572D01*
X29480714Y99428572D01*
X29671190Y99333334D01*
X29766428Y99238096D01*
X29861666Y99047620D01*
X29861666Y98476191D01*
X29766428Y98285715D01*
X29671190Y98190477D01*
X29480714Y98095239D01*
X29195000Y98095239D01*
X30718809Y99428572D02*
X30718809Y98095239D01*
X30718809Y99238096D02*
X30814047Y99333334D01*
X31004523Y99428572D01*
X31290238Y99428572D01*
X31480714Y99333334D01*
X31575952Y99142858D01*
X31575952Y98095239D01*
D10*
X-71192143Y75271429D02*
X-71049286Y75271429D01*
X-70906429Y75200000D01*
X-70835000Y75128572D01*
X-70763572Y74985715D01*
X-70692143Y74700000D01*
X-70692143Y74342858D01*
X-70763572Y74057143D01*
X-70835000Y73914286D01*
X-70906429Y73842858D01*
X-71049286Y73771429D01*
X-71192143Y73771429D01*
X-71335000Y73842858D01*
X-71406429Y73914286D01*
X-71477858Y74057143D01*
X-71549286Y74342858D01*
X-71549286Y74700000D01*
X-71477858Y74985715D01*
X-71406429Y75128572D01*
X-71335000Y75200000D01*
X-71192143Y75271429D01*
X-68906429Y73771429D02*
X-68906429Y74771429D01*
X-68906429Y74628572D02*
X-68835000Y74700000D01*
X-68692143Y74771429D01*
X-68477858Y74771429D01*
X-68335000Y74700000D01*
X-68263572Y74557143D01*
X-68263572Y73771429D01*
X-68263572Y74557143D02*
X-68192143Y74700000D01*
X-68049286Y74771429D01*
X-67835000Y74771429D01*
X-67692143Y74700000D01*
X-67620715Y74557143D01*
X-67620715Y73771429D01*
X-66906429Y73771429D02*
X-66906429Y74771429D01*
X-66906429Y74628572D02*
X-66835000Y74700000D01*
X-66692143Y74771429D01*
X-66477858Y74771429D01*
X-66335000Y74700000D01*
X-66263572Y74557143D01*
X-66263572Y73771429D01*
X-66263572Y74557143D02*
X-66192143Y74700000D01*
X-66049286Y74771429D01*
X-65835000Y74771429D01*
X-65692143Y74700000D01*
X-65620715Y74557143D01*
X-65620715Y73771429D01*
X-114963572Y95596429D02*
X-114106429Y95596429D01*
X-114535001Y94096429D02*
X-114535001Y95596429D01*
X-113392144Y94096429D02*
X-113535001Y94167858D01*
X-113606429Y94239286D01*
X-113677858Y94382143D01*
X-113677858Y94810715D01*
X-113606429Y94953572D01*
X-113535001Y95025000D01*
X-113392144Y95096429D01*
X-113177858Y95096429D01*
X-113035001Y95025000D01*
X-112963572Y94953572D01*
X-112892144Y94810715D01*
X-112892144Y94382143D01*
X-112963572Y94239286D01*
X-113035001Y94167858D01*
X-113177858Y94096429D01*
X-113392144Y94096429D01*
X-112249287Y95096429D02*
X-112249287Y93596429D01*
X-112249287Y95025000D02*
X-112106429Y95096429D01*
X-111820715Y95096429D01*
X-111677858Y95025000D01*
X-111606429Y94953572D01*
X-111535001Y94810715D01*
X-111535001Y94382143D01*
X-111606429Y94239286D01*
X-111677858Y94167858D01*
X-111820715Y94096429D01*
X-112106429Y94096429D01*
X-112249287Y94167858D01*
X-109820715Y94167858D02*
X-109606429Y94096429D01*
X-109249287Y94096429D01*
X-109106429Y94167858D01*
X-109035001Y94239286D01*
X-108963572Y94382143D01*
X-108963572Y94525000D01*
X-109035001Y94667858D01*
X-109106429Y94739286D01*
X-109249287Y94810715D01*
X-109535001Y94882143D01*
X-109677858Y94953572D01*
X-109749287Y95025000D01*
X-109820715Y95167858D01*
X-109820715Y95310715D01*
X-109749287Y95453572D01*
X-109677858Y95525000D01*
X-109535001Y95596429D01*
X-109177858Y95596429D01*
X-108963572Y95525000D01*
X-108106429Y94096429D02*
X-108249287Y94167858D01*
X-108320715Y94239286D01*
X-108392144Y94382143D01*
X-108392144Y94810715D01*
X-108320715Y94953572D01*
X-108249287Y95025000D01*
X-108106429Y95096429D01*
X-107892144Y95096429D01*
X-107749287Y95025000D01*
X-107677858Y94953572D01*
X-107606429Y94810715D01*
X-107606429Y94382143D01*
X-107677858Y94239286D01*
X-107749287Y94167858D01*
X-107892144Y94096429D01*
X-108106429Y94096429D01*
X-106749287Y94096429D02*
X-106892144Y94167858D01*
X-106963572Y94310715D01*
X-106963572Y95596429D01*
X-105535001Y94096429D02*
X-105535001Y95596429D01*
X-105535001Y94167858D02*
X-105677858Y94096429D01*
X-105963572Y94096429D01*
X-106106429Y94167858D01*
X-106177858Y94239286D01*
X-106249287Y94382143D01*
X-106249287Y94810715D01*
X-106177858Y94953572D01*
X-106106429Y95025000D01*
X-105963572Y95096429D01*
X-105677858Y95096429D01*
X-105535001Y95025000D01*
X-104249287Y94167858D02*
X-104392144Y94096429D01*
X-104677858Y94096429D01*
X-104820715Y94167858D01*
X-104892144Y94310715D01*
X-104892144Y94882143D01*
X-104820715Y95025000D01*
X-104677858Y95096429D01*
X-104392144Y95096429D01*
X-104249287Y95025000D01*
X-104177858Y94882143D01*
X-104177858Y94739286D01*
X-104892144Y94596429D01*
X-103535001Y94096429D02*
X-103535001Y95096429D01*
X-103535001Y94810715D02*
X-103463572Y94953572D01*
X-103392144Y95025000D01*
X-103249287Y95096429D01*
X-103106429Y95096429D01*
X-101463572Y94096429D02*
X-101463572Y95596429D01*
X-100963572Y94525000D01*
X-100463572Y95596429D01*
X-100463572Y94096429D01*
X-99106429Y94096429D02*
X-99106429Y94882143D01*
X-99177858Y95025000D01*
X-99320715Y95096429D01*
X-99606429Y95096429D01*
X-99749287Y95025000D01*
X-99106429Y94167858D02*
X-99249287Y94096429D01*
X-99606429Y94096429D01*
X-99749287Y94167858D01*
X-99820715Y94310715D01*
X-99820715Y94453572D01*
X-99749287Y94596429D01*
X-99606429Y94667858D01*
X-99249287Y94667858D01*
X-99106429Y94739286D01*
X-98463572Y94167858D02*
X-98320715Y94096429D01*
X-98035001Y94096429D01*
X-97892144Y94167858D01*
X-97820715Y94310715D01*
X-97820715Y94382143D01*
X-97892144Y94525000D01*
X-98035001Y94596429D01*
X-98249287Y94596429D01*
X-98392144Y94667858D01*
X-98463572Y94810715D01*
X-98463572Y94882143D01*
X-98392144Y95025000D01*
X-98249287Y95096429D01*
X-98035001Y95096429D01*
X-97892144Y95025000D01*
X-97177858Y94096429D02*
X-97177858Y95596429D01*
X-97035001Y94667858D02*
X-96606429Y94096429D01*
X-96606429Y95096429D02*
X-97177858Y94525000D01*
X-43006429Y73771429D02*
X-43863572Y73771429D01*
X-43435001Y73771429D02*
X-43435001Y75271429D01*
X-43577858Y75057143D01*
X-43720715Y74914286D01*
X-43863572Y74842858D01*
D12*
X-96798572Y50386429D02*
X-97512858Y50386429D01*
X-97584286Y49672143D01*
X-97512858Y49743572D01*
X-97370000Y49815000D01*
X-97012858Y49815000D01*
X-96870000Y49743572D01*
X-96798572Y49672143D01*
X-96727143Y49529286D01*
X-96727143Y49172143D01*
X-96798572Y49029286D01*
X-96870000Y48957858D01*
X-97012858Y48886429D01*
X-97370000Y48886429D01*
X-97512858Y48957858D01*
X-97584286Y49029286D01*
X-95870000Y49743572D02*
X-96012858Y49815000D01*
X-96084286Y49886429D01*
X-96155715Y50029286D01*
X-96155715Y50100715D01*
X-96084286Y50243572D01*
X-96012858Y50315000D01*
X-95870000Y50386429D01*
X-95584286Y50386429D01*
X-95441429Y50315000D01*
X-95370000Y50243572D01*
X-95298572Y50100715D01*
X-95298572Y50029286D01*
X-95370000Y49886429D01*
X-95441429Y49815000D01*
X-95584286Y49743572D01*
X-95870000Y49743572D01*
X-96012858Y49672143D01*
X-96084286Y49600715D01*
X-96155715Y49457858D01*
X-96155715Y49172143D01*
X-96084286Y49029286D01*
X-96012858Y48957858D01*
X-95870000Y48886429D01*
X-95584286Y48886429D01*
X-95441429Y48957858D01*
X-95370000Y49029286D01*
X-95298572Y49172143D01*
X-95298572Y49457858D01*
X-95370000Y49600715D01*
X-95441429Y49672143D01*
X-95584286Y49743572D01*
X-94655715Y49029286D02*
X-94584286Y48957858D01*
X-94655715Y48886429D01*
X-94727143Y48957858D01*
X-94655715Y49029286D01*
X-94655715Y48886429D01*
X-93655715Y50386429D02*
X-93512858Y50386429D01*
X-93370000Y50315000D01*
X-93298572Y50243572D01*
X-93227143Y50100715D01*
X-93155715Y49815000D01*
X-93155715Y49457858D01*
X-93227143Y49172143D01*
X-93298572Y49029286D01*
X-93370000Y48957858D01*
X-93512858Y48886429D01*
X-93655715Y48886429D01*
X-93798572Y48957858D01*
X-93870000Y49029286D01*
X-93941429Y49172143D01*
X-94012858Y49457858D01*
X-94012858Y49815000D01*
X-93941429Y50100715D01*
X-93870000Y50243572D01*
X-93798572Y50315000D01*
X-93655715Y50386429D01*
X-91798572Y50386429D02*
X-92512858Y50386429D01*
X-92584286Y49672143D01*
X-92512858Y49743572D01*
X-92370000Y49815000D01*
X-92012858Y49815000D01*
X-91870000Y49743572D01*
X-91798572Y49672143D01*
X-91727143Y49529286D01*
X-91727143Y49172143D01*
X-91798572Y49029286D01*
X-91870000Y48957858D01*
X-92012858Y48886429D01*
X-92370000Y48886429D01*
X-92512858Y48957858D01*
X-92584286Y49029286D01*
X-90798572Y50386429D02*
X-90655715Y50386429D01*
X-90512858Y50315000D01*
X-90441429Y50243572D01*
X-90370000Y50100715D01*
X-90298572Y49815000D01*
X-90298572Y49457858D01*
X-90370000Y49172143D01*
X-90441429Y49029286D01*
X-90512858Y48957858D01*
X-90655715Y48886429D01*
X-90798572Y48886429D01*
X-90941429Y48957858D01*
X-91012858Y49029286D01*
X-91084286Y49172143D01*
X-91155715Y49457858D01*
X-91155715Y49815000D01*
X-91084286Y50100715D01*
X-91012858Y50243572D01*
X-90941429Y50315000D01*
X-90798572Y50386429D01*
X-89370000Y50386429D02*
X-89227143Y50386429D01*
X-89084286Y50315000D01*
X-89012858Y50243572D01*
X-88941429Y50100715D01*
X-88870000Y49815000D01*
X-88870000Y49457858D01*
X-88941429Y49172143D01*
X-89012858Y49029286D01*
X-89084286Y48957858D01*
X-89227143Y48886429D01*
X-89370000Y48886429D01*
X-89512858Y48957858D01*
X-89584286Y49029286D01*
X-89655715Y49172143D01*
X-89727143Y49457858D01*
X-89727143Y49815000D01*
X-89655715Y50100715D01*
X-89584286Y50243572D01*
X-89512858Y50315000D01*
X-89370000Y50386429D01*
X-87084286Y48886429D02*
X-87084286Y49886429D01*
X-87084286Y49743572D02*
X-87012858Y49815000D01*
X-86870000Y49886429D01*
X-86655715Y49886429D01*
X-86512858Y49815000D01*
X-86441429Y49672143D01*
X-86441429Y48886429D01*
X-86441429Y49672143D02*
X-86370000Y49815000D01*
X-86227143Y49886429D01*
X-86012858Y49886429D01*
X-85870000Y49815000D01*
X-85798572Y49672143D01*
X-85798572Y48886429D01*
X-85084286Y48886429D02*
X-85084286Y49886429D01*
X-85084286Y49743572D02*
X-85012858Y49815000D01*
X-84870000Y49886429D01*
X-84655715Y49886429D01*
X-84512858Y49815000D01*
X-84441429Y49672143D01*
X-84441429Y48886429D01*
X-84441429Y49672143D02*
X-84370000Y49815000D01*
X-84227143Y49886429D01*
X-84012858Y49886429D01*
X-83870000Y49815000D01*
X-83798572Y49672143D01*
X-83798572Y48886429D01*
X-82084286Y48886429D02*
X-81298572Y49886429D01*
X-82084286Y49886429D02*
X-81298572Y48886429D01*
X-78870000Y50386429D02*
X-79584286Y50386429D01*
X-79655715Y49672143D01*
X-79584286Y49743572D01*
X-79441429Y49815000D01*
X-79084286Y49815000D01*
X-78941429Y49743572D01*
X-78870000Y49672143D01*
X-78798572Y49529286D01*
X-78798572Y49172143D01*
X-78870000Y49029286D01*
X-78941429Y48957858D01*
X-79084286Y48886429D01*
X-79441429Y48886429D01*
X-79584286Y48957858D01*
X-79655715Y49029286D01*
X-77941429Y49743572D02*
X-78084286Y49815000D01*
X-78155715Y49886429D01*
X-78227143Y50029286D01*
X-78227143Y50100715D01*
X-78155715Y50243572D01*
X-78084286Y50315000D01*
X-77941429Y50386429D01*
X-77655715Y50386429D01*
X-77512858Y50315000D01*
X-77441429Y50243572D01*
X-77370000Y50100715D01*
X-77370000Y50029286D01*
X-77441429Y49886429D01*
X-77512858Y49815000D01*
X-77655715Y49743572D01*
X-77941429Y49743572D01*
X-78084286Y49672143D01*
X-78155715Y49600715D01*
X-78227143Y49457858D01*
X-78227143Y49172143D01*
X-78155715Y49029286D01*
X-78084286Y48957858D01*
X-77941429Y48886429D01*
X-77655715Y48886429D01*
X-77512858Y48957858D01*
X-77441429Y49029286D01*
X-77370000Y49172143D01*
X-77370000Y49457858D01*
X-77441429Y49600715D01*
X-77512858Y49672143D01*
X-77655715Y49743572D01*
X-76727143Y49029286D02*
X-76655715Y48957858D01*
X-76727143Y48886429D01*
X-76798572Y48957858D01*
X-76727143Y49029286D01*
X-76727143Y48886429D01*
X-75727143Y50386429D02*
X-75584286Y50386429D01*
X-75441429Y50315000D01*
X-75370000Y50243572D01*
X-75298572Y50100715D01*
X-75227143Y49815000D01*
X-75227143Y49457858D01*
X-75298572Y49172143D01*
X-75370000Y49029286D01*
X-75441429Y48957858D01*
X-75584286Y48886429D01*
X-75727143Y48886429D01*
X-75870000Y48957858D01*
X-75941429Y49029286D01*
X-76012858Y49172143D01*
X-76084286Y49457858D01*
X-76084286Y49815000D01*
X-76012858Y50100715D01*
X-75941429Y50243572D01*
X-75870000Y50315000D01*
X-75727143Y50386429D01*
X-73870000Y50386429D02*
X-74584286Y50386429D01*
X-74655715Y49672143D01*
X-74584286Y49743572D01*
X-74441429Y49815000D01*
X-74084286Y49815000D01*
X-73941429Y49743572D01*
X-73870000Y49672143D01*
X-73798572Y49529286D01*
X-73798572Y49172143D01*
X-73870000Y49029286D01*
X-73941429Y48957858D01*
X-74084286Y48886429D01*
X-74441429Y48886429D01*
X-74584286Y48957858D01*
X-74655715Y49029286D01*
X-72870000Y50386429D02*
X-72727143Y50386429D01*
X-72584286Y50315000D01*
X-72512858Y50243572D01*
X-72441429Y50100715D01*
X-72370000Y49815000D01*
X-72370000Y49457858D01*
X-72441429Y49172143D01*
X-72512858Y49029286D01*
X-72584286Y48957858D01*
X-72727143Y48886429D01*
X-72870000Y48886429D01*
X-73012858Y48957858D01*
X-73084286Y49029286D01*
X-73155715Y49172143D01*
X-73227143Y49457858D01*
X-73227143Y49815000D01*
X-73155715Y50100715D01*
X-73084286Y50243572D01*
X-73012858Y50315000D01*
X-72870000Y50386429D01*
X-71441429Y50386429D02*
X-71298572Y50386429D01*
X-71155715Y50315000D01*
X-71084286Y50243572D01*
X-71012858Y50100715D01*
X-70941429Y49815000D01*
X-70941429Y49457858D01*
X-71012858Y49172143D01*
X-71084286Y49029286D01*
X-71155715Y48957858D01*
X-71298572Y48886429D01*
X-71441429Y48886429D01*
X-71584286Y48957858D01*
X-71655715Y49029286D01*
X-71727143Y49172143D01*
X-71798572Y49457858D01*
X-71798572Y49815000D01*
X-71727143Y50100715D01*
X-71655715Y50243572D01*
X-71584286Y50315000D01*
X-71441429Y50386429D01*
X-69155715Y48886429D02*
X-69155715Y49886429D01*
X-69155715Y49743572D02*
X-69084286Y49815000D01*
X-68941429Y49886429D01*
X-68727143Y49886429D01*
X-68584286Y49815000D01*
X-68512858Y49672143D01*
X-68512858Y48886429D01*
X-68512858Y49672143D02*
X-68441429Y49815000D01*
X-68298572Y49886429D01*
X-68084286Y49886429D01*
X-67941429Y49815000D01*
X-67870000Y49672143D01*
X-67870000Y48886429D01*
X-67155715Y48886429D02*
X-67155715Y49886429D01*
X-67155715Y49743572D02*
X-67084286Y49815000D01*
X-66941429Y49886429D01*
X-66727143Y49886429D01*
X-66584286Y49815000D01*
X-66512858Y49672143D01*
X-66512858Y48886429D01*
X-66512858Y49672143D02*
X-66441429Y49815000D01*
X-66298572Y49886429D01*
X-66084286Y49886429D01*
X-65941429Y49815000D01*
X-65870000Y49672143D01*
X-65870000Y48886429D01*
X-129212858Y53244286D02*
X-129284286Y53172858D01*
X-129498572Y53101429D01*
X-129641429Y53101429D01*
X-129855715Y53172858D01*
X-129998572Y53315715D01*
X-130070001Y53458572D01*
X-130141429Y53744286D01*
X-130141429Y53958572D01*
X-130070001Y54244286D01*
X-129998572Y54387143D01*
X-129855715Y54530000D01*
X-129641429Y54601429D01*
X-129498572Y54601429D01*
X-129284286Y54530000D01*
X-129212858Y54458572D01*
X-128355715Y53101429D02*
X-128498572Y53172858D01*
X-128570001Y53244286D01*
X-128641429Y53387143D01*
X-128641429Y53815715D01*
X-128570001Y53958572D01*
X-128498572Y54030000D01*
X-128355715Y54101429D01*
X-128141429Y54101429D01*
X-127998572Y54030000D01*
X-127927143Y53958572D01*
X-127855715Y53815715D01*
X-127855715Y53387143D01*
X-127927143Y53244286D01*
X-127998572Y53172858D01*
X-128141429Y53101429D01*
X-128355715Y53101429D01*
X-127212858Y54101429D02*
X-127212858Y52601429D01*
X-127212858Y54030000D02*
X-127070001Y54101429D01*
X-126784286Y54101429D01*
X-126641429Y54030000D01*
X-126570001Y53958572D01*
X-126498572Y53815715D01*
X-126498572Y53387143D01*
X-126570001Y53244286D01*
X-126641429Y53172858D01*
X-126784286Y53101429D01*
X-127070001Y53101429D01*
X-127212858Y53172858D01*
X-125855715Y54101429D02*
X-125855715Y52601429D01*
X-125855715Y54030000D02*
X-125712858Y54101429D01*
X-125427143Y54101429D01*
X-125284286Y54030000D01*
X-125212858Y53958572D01*
X-125141429Y53815715D01*
X-125141429Y53387143D01*
X-125212858Y53244286D01*
X-125284286Y53172858D01*
X-125427143Y53101429D01*
X-125712858Y53101429D01*
X-125855715Y53172858D01*
X-123927143Y53172858D02*
X-124070001Y53101429D01*
X-124355715Y53101429D01*
X-124498572Y53172858D01*
X-124570001Y53315715D01*
X-124570001Y53887143D01*
X-124498572Y54030000D01*
X-124355715Y54101429D01*
X-124070001Y54101429D01*
X-123927143Y54030000D01*
X-123855715Y53887143D01*
X-123855715Y53744286D01*
X-124570001Y53601429D01*
X-123212858Y53101429D02*
X-123212858Y54101429D01*
X-123212858Y53815715D02*
X-123141429Y53958572D01*
X-123070001Y54030000D01*
X-122927143Y54101429D01*
X-122784286Y54101429D01*
X-120427143Y53101429D02*
X-121141429Y53101429D01*
X-121141429Y54601429D01*
X-119284286Y53101429D02*
X-119284286Y53887143D01*
X-119355715Y54030000D01*
X-119498572Y54101429D01*
X-119784286Y54101429D01*
X-119927143Y54030000D01*
X-119284286Y53172858D02*
X-119427143Y53101429D01*
X-119784286Y53101429D01*
X-119927143Y53172858D01*
X-119998572Y53315715D01*
X-119998572Y53458572D01*
X-119927143Y53601429D01*
X-119784286Y53672858D01*
X-119427143Y53672858D01*
X-119284286Y53744286D01*
X-118712858Y54101429D02*
X-118355715Y53101429D01*
X-117998572Y54101429D02*
X-118355715Y53101429D01*
X-118498572Y52744286D01*
X-118570001Y52672858D01*
X-118712858Y52601429D01*
X-116855715Y53172858D02*
X-116998572Y53101429D01*
X-117284286Y53101429D01*
X-117427143Y53172858D01*
X-117498572Y53315715D01*
X-117498572Y53887143D01*
X-117427143Y54030000D01*
X-117284286Y54101429D01*
X-116998572Y54101429D01*
X-116855715Y54030000D01*
X-116784286Y53887143D01*
X-116784286Y53744286D01*
X-117498572Y53601429D01*
X-116141429Y53101429D02*
X-116141429Y54101429D01*
X-116141429Y53815715D02*
X-116070001Y53958572D01*
X-115998572Y54030000D01*
X-115855715Y54101429D01*
X-115712858Y54101429D01*
X-113212858Y53244286D02*
X-113284286Y53172858D01*
X-113498572Y53101429D01*
X-113641429Y53101429D01*
X-113855715Y53172858D01*
X-113998572Y53315715D01*
X-114070001Y53458572D01*
X-114141429Y53744286D01*
X-114141429Y53958572D01*
X-114070001Y54244286D01*
X-113998572Y54387143D01*
X-113855715Y54530000D01*
X-113641429Y54601429D01*
X-113498572Y54601429D01*
X-113284286Y54530000D01*
X-113212858Y54458572D01*
X-112355715Y53101429D02*
X-112498572Y53172858D01*
X-112570001Y53244286D01*
X-112641429Y53387143D01*
X-112641429Y53815715D01*
X-112570001Y53958572D01*
X-112498572Y54030000D01*
X-112355715Y54101429D01*
X-112141429Y54101429D01*
X-111998572Y54030000D01*
X-111927143Y53958572D01*
X-111855715Y53815715D01*
X-111855715Y53387143D01*
X-111927143Y53244286D01*
X-111998572Y53172858D01*
X-112141429Y53101429D01*
X-112355715Y53101429D01*
X-110570001Y54101429D02*
X-110570001Y53101429D01*
X-111212858Y54101429D02*
X-111212858Y53315715D01*
X-111141429Y53172858D01*
X-110998572Y53101429D01*
X-110784286Y53101429D01*
X-110641429Y53172858D01*
X-110570001Y53244286D01*
X-109855715Y54101429D02*
X-109855715Y53101429D01*
X-109855715Y53958572D02*
X-109784286Y54030000D01*
X-109641429Y54101429D01*
X-109427143Y54101429D01*
X-109284286Y54030000D01*
X-109212858Y53887143D01*
X-109212858Y53101429D01*
X-108712858Y54101429D02*
X-108141429Y54101429D01*
X-108498572Y54601429D02*
X-108498572Y53315715D01*
X-108427143Y53172858D01*
X-108284286Y53101429D01*
X-108141429Y53101429D01*
X-107641429Y53244286D02*
X-107570001Y53172858D01*
X-107641429Y53101429D01*
X-107712858Y53172858D01*
X-107641429Y53244286D01*
X-107641429Y53101429D01*
X-107641429Y54030000D02*
X-107570001Y53958572D01*
X-107641429Y53887143D01*
X-107712858Y53958572D01*
X-107641429Y54030000D01*
X-107641429Y53887143D01*
X-96727143Y44671429D02*
X-97584286Y44671429D01*
X-97155715Y44671429D02*
X-97155715Y46171429D01*
X-97298572Y45957143D01*
X-97441429Y45814286D01*
X-97584286Y45742858D01*
X-96084286Y44814286D02*
X-96012858Y44742858D01*
X-96084286Y44671429D01*
X-96155715Y44742858D01*
X-96084286Y44814286D01*
X-96084286Y44671429D01*
X-95084286Y46171429D02*
X-94941429Y46171429D01*
X-94798572Y46100000D01*
X-94727143Y46028572D01*
X-94655715Y45885715D01*
X-94584286Y45600000D01*
X-94584286Y45242858D01*
X-94655715Y44957143D01*
X-94727143Y44814286D01*
X-94798572Y44742858D01*
X-94941429Y44671429D01*
X-95084286Y44671429D01*
X-95227143Y44742858D01*
X-95298572Y44814286D01*
X-95370000Y44957143D01*
X-95441429Y45242858D01*
X-95441429Y45600000D01*
X-95370000Y45885715D01*
X-95298572Y46028572D01*
X-95227143Y46100000D01*
X-95084286Y46171429D01*
X-93655715Y46171429D02*
X-93512858Y46171429D01*
X-93370000Y46100000D01*
X-93298572Y46028572D01*
X-93227143Y45885715D01*
X-93155715Y45600000D01*
X-93155715Y45242858D01*
X-93227143Y44957143D01*
X-93298572Y44814286D01*
X-93370000Y44742858D01*
X-93512858Y44671429D01*
X-93655715Y44671429D01*
X-93798572Y44742858D01*
X-93870000Y44814286D01*
X-93941429Y44957143D01*
X-94012858Y45242858D01*
X-94012858Y45600000D01*
X-93941429Y45885715D01*
X-93870000Y46028572D01*
X-93798572Y46100000D01*
X-93655715Y46171429D01*
X-92227143Y46171429D02*
X-92084286Y46171429D01*
X-91941429Y46100000D01*
X-91870000Y46028572D01*
X-91798572Y45885715D01*
X-91727143Y45600000D01*
X-91727143Y45242858D01*
X-91798572Y44957143D01*
X-91870000Y44814286D01*
X-91941429Y44742858D01*
X-92084286Y44671429D01*
X-92227143Y44671429D01*
X-92370000Y44742858D01*
X-92441429Y44814286D01*
X-92512858Y44957143D01*
X-92584286Y45242858D01*
X-92584286Y45600000D01*
X-92512858Y45885715D01*
X-92441429Y46028572D01*
X-92370000Y46100000D01*
X-92227143Y46171429D01*
X-90798572Y46171429D02*
X-90655715Y46171429D01*
X-90512858Y46100000D01*
X-90441429Y46028572D01*
X-90370000Y45885715D01*
X-90298572Y45600000D01*
X-90298572Y45242858D01*
X-90370000Y44957143D01*
X-90441429Y44814286D01*
X-90512858Y44742858D01*
X-90655715Y44671429D01*
X-90798572Y44671429D01*
X-90941429Y44742858D01*
X-91012858Y44814286D01*
X-91084286Y44957143D01*
X-91155715Y45242858D01*
X-91155715Y45600000D01*
X-91084286Y45885715D01*
X-91012858Y46028572D01*
X-90941429Y46100000D01*
X-90798572Y46171429D01*
X-88512858Y44671429D02*
X-88512858Y45671429D01*
X-88512858Y45528572D02*
X-88441429Y45600000D01*
X-88298572Y45671429D01*
X-88084286Y45671429D01*
X-87941429Y45600000D01*
X-87870000Y45457143D01*
X-87870000Y44671429D01*
X-87870000Y45457143D02*
X-87798572Y45600000D01*
X-87655715Y45671429D01*
X-87441429Y45671429D01*
X-87298572Y45600000D01*
X-87227143Y45457143D01*
X-87227143Y44671429D01*
X-86512858Y44671429D02*
X-86512858Y45671429D01*
X-86512858Y45528572D02*
X-86441429Y45600000D01*
X-86298572Y45671429D01*
X-86084286Y45671429D01*
X-85941429Y45600000D01*
X-85870000Y45457143D01*
X-85870000Y44671429D01*
X-85870000Y45457143D02*
X-85798572Y45600000D01*
X-85655715Y45671429D01*
X-85441429Y45671429D01*
X-85298572Y45600000D01*
X-85227143Y45457143D01*
X-85227143Y44671429D01*
X-82298572Y46242858D02*
X-83584286Y44314286D01*
X-80370000Y46171429D02*
X-80227143Y46171429D01*
X-80084286Y46100000D01*
X-80012858Y46028572D01*
X-79941429Y45885715D01*
X-79870000Y45600000D01*
X-79870000Y45242858D01*
X-79941429Y44957143D01*
X-80012858Y44814286D01*
X-80084286Y44742858D01*
X-80227143Y44671429D01*
X-80370000Y44671429D01*
X-80512858Y44742858D01*
X-80584286Y44814286D01*
X-80655715Y44957143D01*
X-80727143Y45242858D01*
X-80727143Y45600000D01*
X-80655715Y45885715D01*
X-80584286Y46028572D01*
X-80512858Y46100000D01*
X-80370000Y46171429D01*
X-79227143Y44814286D02*
X-79155715Y44742858D01*
X-79227143Y44671429D01*
X-79298572Y44742858D01*
X-79227143Y44814286D01*
X-79227143Y44671429D01*
X-77727143Y44671429D02*
X-78584286Y44671429D01*
X-78155715Y44671429D02*
X-78155715Y46171429D01*
X-78298572Y45957143D01*
X-78441429Y45814286D01*
X-78584286Y45742858D01*
X-76798572Y46171429D02*
X-76655715Y46171429D01*
X-76512858Y46100000D01*
X-76441429Y46028572D01*
X-76370000Y45885715D01*
X-76298572Y45600000D01*
X-76298572Y45242858D01*
X-76370000Y44957143D01*
X-76441429Y44814286D01*
X-76512858Y44742858D01*
X-76655715Y44671429D01*
X-76798572Y44671429D01*
X-76941429Y44742858D01*
X-77012858Y44814286D01*
X-77084286Y44957143D01*
X-77155715Y45242858D01*
X-77155715Y45600000D01*
X-77084286Y45885715D01*
X-77012858Y46028572D01*
X-76941429Y46100000D01*
X-76798572Y46171429D01*
X-75370000Y46171429D02*
X-75227143Y46171429D01*
X-75084286Y46100000D01*
X-75012858Y46028572D01*
X-74941429Y45885715D01*
X-74870000Y45600000D01*
X-74870000Y45242858D01*
X-74941429Y44957143D01*
X-75012858Y44814286D01*
X-75084286Y44742858D01*
X-75227143Y44671429D01*
X-75370000Y44671429D01*
X-75512858Y44742858D01*
X-75584286Y44814286D01*
X-75655715Y44957143D01*
X-75727143Y45242858D01*
X-75727143Y45600000D01*
X-75655715Y45885715D01*
X-75584286Y46028572D01*
X-75512858Y46100000D01*
X-75370000Y46171429D01*
X-73941429Y46171429D02*
X-73798572Y46171429D01*
X-73655715Y46100000D01*
X-73584286Y46028572D01*
X-73512858Y45885715D01*
X-73441429Y45600000D01*
X-73441429Y45242858D01*
X-73512858Y44957143D01*
X-73584286Y44814286D01*
X-73655715Y44742858D01*
X-73798572Y44671429D01*
X-73941429Y44671429D01*
X-74084286Y44742858D01*
X-74155715Y44814286D01*
X-74227143Y44957143D01*
X-74298572Y45242858D01*
X-74298572Y45600000D01*
X-74227143Y45885715D01*
X-74155715Y46028572D01*
X-74084286Y46100000D01*
X-73941429Y46171429D01*
X-71655715Y44671429D02*
X-71655715Y45671429D01*
X-71655715Y45528572D02*
X-71584286Y45600000D01*
X-71441429Y45671429D01*
X-71227143Y45671429D01*
X-71084286Y45600000D01*
X-71012858Y45457143D01*
X-71012858Y44671429D01*
X-71012858Y45457143D02*
X-70941429Y45600000D01*
X-70798572Y45671429D01*
X-70584286Y45671429D01*
X-70441429Y45600000D01*
X-70370000Y45457143D01*
X-70370000Y44671429D01*
X-69655715Y44671429D02*
X-69655715Y45671429D01*
X-69655715Y45528572D02*
X-69584286Y45600000D01*
X-69441429Y45671429D01*
X-69227143Y45671429D01*
X-69084286Y45600000D01*
X-69012858Y45457143D01*
X-69012858Y44671429D01*
X-69012858Y45457143D02*
X-68941429Y45600000D01*
X-68798572Y45671429D01*
X-68584286Y45671429D01*
X-68441429Y45600000D01*
X-68370000Y45457143D01*
X-68370000Y44671429D01*
D10*
X-30920715Y103726429D02*
X-30777858Y103726429D01*
X-30635001Y103655000D01*
X-30563572Y103583572D01*
X-30492144Y103440715D01*
X-30420715Y103155000D01*
X-30420715Y102797858D01*
X-30492144Y102512143D01*
X-30563572Y102369286D01*
X-30635001Y102297858D01*
X-30777858Y102226429D01*
X-30920715Y102226429D01*
X-31063572Y102297858D01*
X-31135001Y102369286D01*
X-31206430Y102512143D01*
X-31277858Y102797858D01*
X-31277858Y103155000D01*
X-31206430Y103440715D01*
X-31135001Y103583572D01*
X-31063572Y103655000D01*
X-30920715Y103726429D01*
D12*
X-129570001Y49672143D02*
X-129355715Y49600715D01*
X-129284286Y49529286D01*
X-129212858Y49386429D01*
X-129212858Y49172143D01*
X-129284286Y49029286D01*
X-129355715Y48957858D01*
X-129498572Y48886429D01*
X-130070001Y48886429D01*
X-130070001Y50386429D01*
X-129570001Y50386429D01*
X-129427143Y50315000D01*
X-129355715Y50243572D01*
X-129284286Y50100715D01*
X-129284286Y49957858D01*
X-129355715Y49815000D01*
X-129427143Y49743572D01*
X-129570001Y49672143D01*
X-130070001Y49672143D01*
X-128355715Y48886429D02*
X-128498572Y48957858D01*
X-128570001Y49029286D01*
X-128641429Y49172143D01*
X-128641429Y49600715D01*
X-128570001Y49743572D01*
X-128498572Y49815000D01*
X-128355715Y49886429D01*
X-128141429Y49886429D01*
X-127998572Y49815000D01*
X-127927143Y49743572D01*
X-127855715Y49600715D01*
X-127855715Y49172143D01*
X-127927143Y49029286D01*
X-127998572Y48957858D01*
X-128141429Y48886429D01*
X-128355715Y48886429D01*
X-126570001Y48886429D02*
X-126570001Y49672143D01*
X-126641429Y49815000D01*
X-126784286Y49886429D01*
X-127070001Y49886429D01*
X-127212858Y49815000D01*
X-126570001Y48957858D02*
X-126712858Y48886429D01*
X-127070001Y48886429D01*
X-127212858Y48957858D01*
X-127284286Y49100715D01*
X-127284286Y49243572D01*
X-127212858Y49386429D01*
X-127070001Y49457858D01*
X-126712858Y49457858D01*
X-126570001Y49529286D01*
X-125855715Y48886429D02*
X-125855715Y49886429D01*
X-125855715Y49600715D02*
X-125784286Y49743572D01*
X-125712858Y49815000D01*
X-125570001Y49886429D01*
X-125427143Y49886429D01*
X-124284286Y48886429D02*
X-124284286Y50386429D01*
X-124284286Y48957858D02*
X-124427143Y48886429D01*
X-124712858Y48886429D01*
X-124855715Y48957858D01*
X-124927143Y49029286D01*
X-124998572Y49172143D01*
X-124998572Y49600715D01*
X-124927143Y49743572D01*
X-124855715Y49815000D01*
X-124712858Y49886429D01*
X-124427143Y49886429D01*
X-124284286Y49815000D01*
X-122212858Y48886429D02*
X-122355715Y48957858D01*
X-122427143Y49029286D01*
X-122498572Y49172143D01*
X-122498572Y49600715D01*
X-122427143Y49743572D01*
X-122355715Y49815000D01*
X-122212858Y49886429D01*
X-121998572Y49886429D01*
X-121855715Y49815000D01*
X-121784286Y49743572D01*
X-121712858Y49600715D01*
X-121712858Y49172143D01*
X-121784286Y49029286D01*
X-121855715Y48957858D01*
X-121998572Y48886429D01*
X-122212858Y48886429D01*
X-121212858Y49886429D02*
X-120855715Y48886429D01*
X-120498572Y49886429D01*
X-119355715Y48957858D02*
X-119498572Y48886429D01*
X-119784286Y48886429D01*
X-119927143Y48957858D01*
X-119998572Y49100715D01*
X-119998572Y49672143D01*
X-119927143Y49815000D01*
X-119784286Y49886429D01*
X-119498572Y49886429D01*
X-119355715Y49815000D01*
X-119284286Y49672143D01*
X-119284286Y49529286D01*
X-119998572Y49386429D01*
X-118641429Y48886429D02*
X-118641429Y49886429D01*
X-118641429Y49600715D02*
X-118570001Y49743572D01*
X-118498572Y49815000D01*
X-118355715Y49886429D01*
X-118212858Y49886429D01*
X-117070001Y48886429D02*
X-117070001Y49672143D01*
X-117141429Y49815000D01*
X-117284286Y49886429D01*
X-117570001Y49886429D01*
X-117712858Y49815000D01*
X-117070001Y48957858D02*
X-117212858Y48886429D01*
X-117570001Y48886429D01*
X-117712858Y48957858D01*
X-117784286Y49100715D01*
X-117784286Y49243572D01*
X-117712858Y49386429D01*
X-117570001Y49457858D01*
X-117212858Y49457858D01*
X-117070001Y49529286D01*
X-116141429Y48886429D02*
X-116284286Y48957858D01*
X-116355715Y49100715D01*
X-116355715Y50386429D01*
X-115355715Y48886429D02*
X-115498572Y48957858D01*
X-115570001Y49100715D01*
X-115570001Y50386429D01*
X-112998572Y48886429D02*
X-112998572Y50386429D01*
X-112998572Y48957858D02*
X-113141429Y48886429D01*
X-113427143Y48886429D01*
X-113570001Y48957858D01*
X-113641429Y49029286D01*
X-113712858Y49172143D01*
X-113712858Y49600715D01*
X-113641429Y49743572D01*
X-113570001Y49815000D01*
X-113427143Y49886429D01*
X-113141429Y49886429D01*
X-112998572Y49815000D01*
X-112284286Y48886429D02*
X-112284286Y49886429D01*
X-112284286Y50386429D02*
X-112355715Y50315000D01*
X-112284286Y50243572D01*
X-112212858Y50315000D01*
X-112284286Y50386429D01*
X-112284286Y50243572D01*
X-111570001Y48886429D02*
X-111570001Y49886429D01*
X-111570001Y49743572D02*
X-111498572Y49815000D01*
X-111355715Y49886429D01*
X-111141429Y49886429D01*
X-110998572Y49815000D01*
X-110927143Y49672143D01*
X-110927143Y48886429D01*
X-110927143Y49672143D02*
X-110855715Y49815000D01*
X-110712858Y49886429D01*
X-110498572Y49886429D01*
X-110355715Y49815000D01*
X-110284286Y49672143D01*
X-110284286Y48886429D01*
X-108998572Y48957858D02*
X-109141429Y48886429D01*
X-109427143Y48886429D01*
X-109570001Y48957858D01*
X-109641429Y49100715D01*
X-109641429Y49672143D01*
X-109570001Y49815000D01*
X-109427143Y49886429D01*
X-109141429Y49886429D01*
X-108998572Y49815000D01*
X-108927143Y49672143D01*
X-108927143Y49529286D01*
X-109641429Y49386429D01*
X-108284286Y49886429D02*
X-108284286Y48886429D01*
X-108284286Y49743572D02*
X-108212858Y49815000D01*
X-108070001Y49886429D01*
X-107855715Y49886429D01*
X-107712858Y49815000D01*
X-107641429Y49672143D01*
X-107641429Y48886429D01*
X-106998572Y48957858D02*
X-106855715Y48886429D01*
X-106570001Y48886429D01*
X-106427143Y48957858D01*
X-106355715Y49100715D01*
X-106355715Y49172143D01*
X-106427143Y49315000D01*
X-106570001Y49386429D01*
X-106784286Y49386429D01*
X-106927143Y49457858D01*
X-106998572Y49600715D01*
X-106998572Y49672143D01*
X-106927143Y49815000D01*
X-106784286Y49886429D01*
X-106570001Y49886429D01*
X-106427143Y49815000D01*
X-105712858Y48886429D02*
X-105712858Y49886429D01*
X-105712858Y50386429D02*
X-105784286Y50315000D01*
X-105712858Y50243572D01*
X-105641429Y50315000D01*
X-105712858Y50386429D01*
X-105712858Y50243572D01*
X-104784286Y48886429D02*
X-104927143Y48957858D01*
X-104998572Y49029286D01*
X-105070001Y49172143D01*
X-105070001Y49600715D01*
X-104998572Y49743572D01*
X-104927143Y49815000D01*
X-104784286Y49886429D01*
X-104570001Y49886429D01*
X-104427143Y49815000D01*
X-104355715Y49743572D01*
X-104284286Y49600715D01*
X-104284286Y49172143D01*
X-104355715Y49029286D01*
X-104427143Y48957858D01*
X-104570001Y48886429D01*
X-104784286Y48886429D01*
X-103641429Y49886429D02*
X-103641429Y48886429D01*
X-103641429Y49743572D02*
X-103570001Y49815000D01*
X-103427143Y49886429D01*
X-103212858Y49886429D01*
X-103070001Y49815000D01*
X-102998572Y49672143D01*
X-102998572Y48886429D01*
X-102355715Y48957858D02*
X-102212858Y48886429D01*
X-101927143Y48886429D01*
X-101784286Y48957858D01*
X-101712858Y49100715D01*
X-101712858Y49172143D01*
X-101784286Y49315000D01*
X-101927143Y49386429D01*
X-102141429Y49386429D01*
X-102284286Y49457858D01*
X-102355715Y49600715D01*
X-102355715Y49672143D01*
X-102284286Y49815000D01*
X-102141429Y49886429D01*
X-101927143Y49886429D01*
X-101784286Y49815000D01*
X-101070001Y49029286D02*
X-100998572Y48957858D01*
X-101070001Y48886429D01*
X-101141429Y48957858D01*
X-101070001Y49029286D01*
X-101070001Y48886429D01*
X-101070001Y49815000D02*
X-100998572Y49743572D01*
X-101070001Y49672143D01*
X-101141429Y49743572D01*
X-101070001Y49815000D01*
X-101070001Y49672143D01*
D11*
X-114833572Y108091429D02*
X-113976429Y108091429D01*
X-114405001Y106591429D02*
X-114405001Y108091429D01*
X-113619287Y107591429D02*
X-113262144Y106591429D01*
X-112905001Y107591429D02*
X-113262144Y106591429D01*
X-113405001Y106234286D01*
X-113476429Y106162858D01*
X-113619287Y106091429D01*
X-112333572Y107591429D02*
X-112333572Y106091429D01*
X-112333572Y107520000D02*
X-112190715Y107591429D01*
X-111905001Y107591429D01*
X-111762144Y107520000D01*
X-111690715Y107448572D01*
X-111619287Y107305715D01*
X-111619287Y106877143D01*
X-111690715Y106734286D01*
X-111762144Y106662858D01*
X-111905001Y106591429D01*
X-112190715Y106591429D01*
X-112333572Y106662858D01*
X-110405001Y106662858D02*
X-110547858Y106591429D01*
X-110833572Y106591429D01*
X-110976429Y106662858D01*
X-111047858Y106805715D01*
X-111047858Y107377143D01*
X-110976429Y107520000D01*
X-110833572Y107591429D01*
X-110547858Y107591429D01*
X-110405001Y107520000D01*
X-110333572Y107377143D01*
X-110333572Y107234286D01*
X-111047858Y107091429D01*
D12*
X-97512858Y40456429D02*
X-97512858Y41956429D01*
X-96798572Y40456429D02*
X-96798572Y41456429D01*
X-96798572Y41313572D02*
X-96727143Y41385000D01*
X-96584286Y41456429D01*
X-96370000Y41456429D01*
X-96227143Y41385000D01*
X-96155715Y41242143D01*
X-96155715Y40456429D01*
X-96155715Y41242143D02*
X-96084286Y41385000D01*
X-95941429Y41456429D01*
X-95727143Y41456429D01*
X-95584286Y41385000D01*
X-95512858Y41242143D01*
X-95512858Y40456429D01*
X-94798572Y40456429D02*
X-94798572Y41456429D01*
X-94798572Y41313572D02*
X-94727143Y41385000D01*
X-94584286Y41456429D01*
X-94370000Y41456429D01*
X-94227143Y41385000D01*
X-94155715Y41242143D01*
X-94155715Y40456429D01*
X-94155715Y41242143D02*
X-94084286Y41385000D01*
X-93941429Y41456429D01*
X-93727143Y41456429D01*
X-93584286Y41385000D01*
X-93512858Y41242143D01*
X-93512858Y40456429D01*
X-92227143Y40527858D02*
X-92370000Y40456429D01*
X-92655715Y40456429D01*
X-92798572Y40527858D01*
X-92870000Y40670715D01*
X-92870000Y41242143D01*
X-92798572Y41385000D01*
X-92655715Y41456429D01*
X-92370000Y41456429D01*
X-92227143Y41385000D01*
X-92155715Y41242143D01*
X-92155715Y41099286D01*
X-92870000Y40956429D01*
X-91512858Y40456429D02*
X-91512858Y41456429D01*
X-91512858Y41170715D02*
X-91441429Y41313572D01*
X-91370000Y41385000D01*
X-91227143Y41456429D01*
X-91084286Y41456429D01*
X-90655715Y40527858D02*
X-90512858Y40456429D01*
X-90227143Y40456429D01*
X-90084286Y40527858D01*
X-90012858Y40670715D01*
X-90012858Y40742143D01*
X-90084286Y40885000D01*
X-90227143Y40956429D01*
X-90441429Y40956429D01*
X-90584286Y41027858D01*
X-90655715Y41170715D01*
X-90655715Y41242143D01*
X-90584286Y41385000D01*
X-90441429Y41456429D01*
X-90227143Y41456429D01*
X-90084286Y41385000D01*
X-89370000Y40456429D02*
X-89370000Y41456429D01*
X-89370000Y41956429D02*
X-89441429Y41885000D01*
X-89370000Y41813572D01*
X-89298572Y41885000D01*
X-89370000Y41956429D01*
X-89370000Y41813572D01*
X-88441429Y40456429D02*
X-88584286Y40527858D01*
X-88655715Y40599286D01*
X-88727143Y40742143D01*
X-88727143Y41170715D01*
X-88655715Y41313572D01*
X-88584286Y41385000D01*
X-88441429Y41456429D01*
X-88227143Y41456429D01*
X-88084286Y41385000D01*
X-88012858Y41313572D01*
X-87941429Y41170715D01*
X-87941429Y40742143D01*
X-88012858Y40599286D01*
X-88084286Y40527858D01*
X-88227143Y40456429D01*
X-88441429Y40456429D01*
X-87298572Y41456429D02*
X-87298572Y40456429D01*
X-87298572Y41313572D02*
X-87227143Y41385000D01*
X-87084286Y41456429D01*
X-86870000Y41456429D01*
X-86727143Y41385000D01*
X-86655715Y41242143D01*
X-86655715Y40456429D01*
X-84155715Y41456429D02*
X-84155715Y40242143D01*
X-84227143Y40099286D01*
X-84298572Y40027858D01*
X-84441429Y39956429D01*
X-84655715Y39956429D01*
X-84798572Y40027858D01*
X-84155715Y40527858D02*
X-84298572Y40456429D01*
X-84584286Y40456429D01*
X-84727143Y40527858D01*
X-84798572Y40599286D01*
X-84870000Y40742143D01*
X-84870000Y41170715D01*
X-84798572Y41313572D01*
X-84727143Y41385000D01*
X-84584286Y41456429D01*
X-84298572Y41456429D01*
X-84155715Y41385000D01*
X-83227143Y40456429D02*
X-83370000Y40527858D01*
X-83441429Y40599286D01*
X-83512858Y40742143D01*
X-83512858Y41170715D01*
X-83441429Y41313572D01*
X-83370000Y41385000D01*
X-83227143Y41456429D01*
X-83012858Y41456429D01*
X-82870000Y41385000D01*
X-82798572Y41313572D01*
X-82727143Y41170715D01*
X-82727143Y40742143D01*
X-82798572Y40599286D01*
X-82870000Y40527858D01*
X-83012858Y40456429D01*
X-83227143Y40456429D01*
X-81870000Y40456429D02*
X-82012858Y40527858D01*
X-82084286Y40670715D01*
X-82084286Y41956429D01*
X-80655715Y40456429D02*
X-80655715Y41956429D01*
X-80655715Y40527858D02*
X-80798572Y40456429D01*
X-81084286Y40456429D01*
X-81227143Y40527858D01*
X-81298572Y40599286D01*
X-81370000Y40742143D01*
X-81370000Y41170715D01*
X-81298572Y41313572D01*
X-81227143Y41385000D01*
X-81084286Y41456429D01*
X-80798572Y41456429D01*
X-80655715Y41385000D01*
D10*
X-129563573Y70492143D02*
X-129349287Y70420715D01*
X-129277858Y70349286D01*
X-129206430Y70206429D01*
X-129206430Y69992143D01*
X-129277858Y69849286D01*
X-129349287Y69777858D01*
X-129492144Y69706429D01*
X-130063573Y69706429D01*
X-130063573Y71206429D01*
X-129563573Y71206429D01*
X-129420715Y71135000D01*
X-129349287Y71063572D01*
X-129277858Y70920715D01*
X-129277858Y70777858D01*
X-129349287Y70635000D01*
X-129420715Y70563572D01*
X-129563573Y70492143D01*
X-130063573Y70492143D01*
X-128563573Y69849286D02*
X-128492144Y69777858D01*
X-128563573Y69706429D01*
X-128635001Y69777858D01*
X-128563573Y69849286D01*
X-128563573Y69706429D01*
X-127920715Y69777858D02*
X-127706430Y69706429D01*
X-127349287Y69706429D01*
X-127206430Y69777858D01*
X-127135001Y69849286D01*
X-127063573Y69992143D01*
X-127063573Y70135000D01*
X-127135001Y70277858D01*
X-127206430Y70349286D01*
X-127349287Y70420715D01*
X-127635001Y70492143D01*
X-127777858Y70563572D01*
X-127849287Y70635000D01*
X-127920715Y70777858D01*
X-127920715Y70920715D01*
X-127849287Y71063572D01*
X-127777858Y71135000D01*
X-127635001Y71206429D01*
X-127277858Y71206429D01*
X-127063573Y71135000D01*
X-126420715Y69706429D02*
X-126420715Y70706429D01*
X-126420715Y71206429D02*
X-126492144Y71135000D01*
X-126420715Y71063572D01*
X-126349287Y71135000D01*
X-126420715Y71206429D01*
X-126420715Y71063572D01*
X-125492144Y69706429D02*
X-125635001Y69777858D01*
X-125706430Y69920715D01*
X-125706430Y71206429D01*
X-124920715Y69706429D02*
X-124920715Y71206429D01*
X-124777858Y70277858D02*
X-124349287Y69706429D01*
X-124349287Y70706429D02*
X-124920715Y70135000D01*
X-123777858Y69777858D02*
X-123635001Y69706429D01*
X-123349287Y69706429D01*
X-123206430Y69777858D01*
X-123135001Y69920715D01*
X-123135001Y69992143D01*
X-123206430Y70135000D01*
X-123349287Y70206429D01*
X-123563573Y70206429D01*
X-123706430Y70277858D01*
X-123777858Y70420715D01*
X-123777858Y70492143D01*
X-123706430Y70635000D01*
X-123563573Y70706429D01*
X-123349287Y70706429D01*
X-123206430Y70635000D01*
X-121849287Y69777858D02*
X-121992144Y69706429D01*
X-122277858Y69706429D01*
X-122420715Y69777858D01*
X-122492144Y69849286D01*
X-122563573Y69992143D01*
X-122563573Y70420715D01*
X-122492144Y70563572D01*
X-122420715Y70635000D01*
X-122277858Y70706429D01*
X-121992144Y70706429D01*
X-121849287Y70635000D01*
X-121206430Y69706429D02*
X-121206430Y70706429D01*
X-121206430Y70420715D02*
X-121135001Y70563572D01*
X-121063573Y70635000D01*
X-120920715Y70706429D01*
X-120777858Y70706429D01*
X-119706430Y69777858D02*
X-119849287Y69706429D01*
X-120135001Y69706429D01*
X-120277858Y69777858D01*
X-120349287Y69920715D01*
X-120349287Y70492143D01*
X-120277858Y70635000D01*
X-120135001Y70706429D01*
X-119849287Y70706429D01*
X-119706430Y70635000D01*
X-119635001Y70492143D01*
X-119635001Y70349286D01*
X-120349287Y70206429D01*
X-118420715Y69777858D02*
X-118563573Y69706429D01*
X-118849287Y69706429D01*
X-118992144Y69777858D01*
X-119063573Y69920715D01*
X-119063573Y70492143D01*
X-118992144Y70635000D01*
X-118849287Y70706429D01*
X-118563573Y70706429D01*
X-118420715Y70635000D01*
X-118349287Y70492143D01*
X-118349287Y70349286D01*
X-119063573Y70206429D01*
X-117706430Y70706429D02*
X-117706430Y69706429D01*
X-117706430Y70563572D02*
X-117635001Y70635000D01*
X-117492144Y70706429D01*
X-117277858Y70706429D01*
X-117135001Y70635000D01*
X-117063573Y70492143D01*
X-117063573Y69706429D01*
X-71192143Y99661429D02*
X-71049286Y99661429D01*
X-70906429Y99590000D01*
X-70835000Y99518572D01*
X-70763572Y99375715D01*
X-70692143Y99090000D01*
X-70692143Y98732858D01*
X-70763572Y98447143D01*
X-70835000Y98304286D01*
X-70906429Y98232858D01*
X-71049286Y98161429D01*
X-71192143Y98161429D01*
X-71335000Y98232858D01*
X-71406429Y98304286D01*
X-71477858Y98447143D01*
X-71549286Y98732858D01*
X-71549286Y99090000D01*
X-71477858Y99375715D01*
X-71406429Y99518572D01*
X-71335000Y99590000D01*
X-71192143Y99661429D01*
X-68906429Y98161429D02*
X-68906429Y99161429D01*
X-68906429Y99018572D02*
X-68835000Y99090000D01*
X-68692143Y99161429D01*
X-68477858Y99161429D01*
X-68335000Y99090000D01*
X-68263572Y98947143D01*
X-68263572Y98161429D01*
X-68263572Y98947143D02*
X-68192143Y99090000D01*
X-68049286Y99161429D01*
X-67835000Y99161429D01*
X-67692143Y99090000D01*
X-67620715Y98947143D01*
X-67620715Y98161429D01*
X-66906429Y98161429D02*
X-66906429Y99161429D01*
X-66906429Y99018572D02*
X-66835000Y99090000D01*
X-66692143Y99161429D01*
X-66477858Y99161429D01*
X-66335000Y99090000D01*
X-66263572Y98947143D01*
X-66263572Y98161429D01*
X-66263572Y98947143D02*
X-66192143Y99090000D01*
X-66049286Y99161429D01*
X-65835000Y99161429D01*
X-65692143Y99090000D01*
X-65620715Y98947143D01*
X-65620715Y98161429D01*
X-50963572Y95525000D02*
X-51106429Y95596429D01*
X-51320715Y95596429D01*
X-51535001Y95525000D01*
X-51677858Y95382143D01*
X-51749287Y95239286D01*
X-51820715Y94953572D01*
X-51820715Y94739286D01*
X-51749287Y94453572D01*
X-51677858Y94310715D01*
X-51535001Y94167858D01*
X-51320715Y94096429D01*
X-51177858Y94096429D01*
X-50963572Y94167858D01*
X-50892144Y94239286D01*
X-50892144Y94739286D01*
X-51177858Y94739286D01*
X-50249287Y94096429D02*
X-50249287Y95096429D01*
X-50249287Y94810715D02*
X-50177858Y94953572D01*
X-50106429Y95025000D01*
X-49963572Y95096429D01*
X-49820715Y95096429D01*
X-48749287Y94167858D02*
X-48892144Y94096429D01*
X-49177858Y94096429D01*
X-49320715Y94167858D01*
X-49392144Y94310715D01*
X-49392144Y94882143D01*
X-49320715Y95025000D01*
X-49177858Y95096429D01*
X-48892144Y95096429D01*
X-48749287Y95025000D01*
X-48677858Y94882143D01*
X-48677858Y94739286D01*
X-49392144Y94596429D01*
X-47463572Y94167858D02*
X-47606429Y94096429D01*
X-47892144Y94096429D01*
X-48035001Y94167858D01*
X-48106429Y94310715D01*
X-48106429Y94882143D01*
X-48035001Y95025000D01*
X-47892144Y95096429D01*
X-47606429Y95096429D01*
X-47463572Y95025000D01*
X-47392144Y94882143D01*
X-47392144Y94739286D01*
X-48106429Y94596429D01*
X-46749287Y95096429D02*
X-46749287Y94096429D01*
X-46749287Y94953572D02*
X-46677858Y95025000D01*
X-46535001Y95096429D01*
X-46320715Y95096429D01*
X-46177858Y95025000D01*
X-46106429Y94882143D01*
X-46106429Y94096429D01*
D11*
X-71562143Y108091429D02*
X-70705000Y108091429D01*
X-71133572Y106591429D02*
X-71133572Y108091429D01*
X-70205000Y106591429D02*
X-70205000Y108091429D01*
X-69562143Y106591429D02*
X-69562143Y107377143D01*
X-69633572Y107520000D01*
X-69776429Y107591429D01*
X-69990715Y107591429D01*
X-70133572Y107520000D01*
X-70205000Y107448572D01*
X-68847858Y106591429D02*
X-68847858Y107591429D01*
X-68847858Y108091429D02*
X-68919286Y108020000D01*
X-68847858Y107948572D01*
X-68776429Y108020000D01*
X-68847858Y108091429D01*
X-68847858Y107948572D01*
X-67490715Y106662858D02*
X-67633572Y106591429D01*
X-67919286Y106591429D01*
X-68062143Y106662858D01*
X-68133572Y106734286D01*
X-68205000Y106877143D01*
X-68205000Y107305715D01*
X-68133572Y107448572D01*
X-68062143Y107520000D01*
X-67919286Y107591429D01*
X-67633572Y107591429D01*
X-67490715Y107520000D01*
X-66847858Y106591429D02*
X-66847858Y108091429D01*
X-66705000Y107162858D02*
X-66276429Y106591429D01*
X-66276429Y107591429D02*
X-66847858Y107020000D01*
X-65633572Y107591429D02*
X-65633572Y106591429D01*
X-65633572Y107448572D02*
X-65562143Y107520000D01*
X-65419286Y107591429D01*
X-65205000Y107591429D01*
X-65062143Y107520000D01*
X-64990715Y107377143D01*
X-64990715Y106591429D01*
X-63705000Y106662858D02*
X-63847858Y106591429D01*
X-64133572Y106591429D01*
X-64276429Y106662858D01*
X-64347858Y106805715D01*
X-64347858Y107377143D01*
X-64276429Y107520000D01*
X-64133572Y107591429D01*
X-63847858Y107591429D01*
X-63705000Y107520000D01*
X-63633572Y107377143D01*
X-63633572Y107234286D01*
X-64347858Y107091429D01*
X-63062143Y106662858D02*
X-62919286Y106591429D01*
X-62633572Y106591429D01*
X-62490715Y106662858D01*
X-62419286Y106805715D01*
X-62419286Y106877143D01*
X-62490715Y107020000D01*
X-62633572Y107091429D01*
X-62847858Y107091429D01*
X-62990715Y107162858D01*
X-63062143Y107305715D01*
X-63062143Y107377143D01*
X-62990715Y107520000D01*
X-62847858Y107591429D01*
X-62633572Y107591429D01*
X-62490715Y107520000D01*
X-61847858Y106662858D02*
X-61705000Y106591429D01*
X-61419286Y106591429D01*
X-61276429Y106662858D01*
X-61205000Y106805715D01*
X-61205000Y106877143D01*
X-61276429Y107020000D01*
X-61419286Y107091429D01*
X-61633572Y107091429D01*
X-61776429Y107162858D01*
X-61847858Y107305715D01*
X-61847858Y107377143D01*
X-61776429Y107520000D01*
X-61633572Y107591429D01*
X-61419286Y107591429D01*
X-61276429Y107520000D01*
X-58990715Y106020000D02*
X-59062143Y106091429D01*
X-59205000Y106305715D01*
X-59276429Y106448572D01*
X-59347858Y106662858D01*
X-59419286Y107020000D01*
X-59419286Y107305715D01*
X-59347858Y107662858D01*
X-59276429Y107877143D01*
X-59205000Y108020000D01*
X-59062143Y108234286D01*
X-58990715Y108305715D01*
X-58419286Y106591429D02*
X-58419286Y107591429D01*
X-58419286Y107448572D02*
X-58347858Y107520000D01*
X-58205000Y107591429D01*
X-57990715Y107591429D01*
X-57847858Y107520000D01*
X-57776429Y107377143D01*
X-57776429Y106591429D01*
X-57776429Y107377143D02*
X-57705000Y107520000D01*
X-57562143Y107591429D01*
X-57347858Y107591429D01*
X-57205000Y107520000D01*
X-57133572Y107377143D01*
X-57133572Y106591429D01*
X-56419286Y106591429D02*
X-56419286Y107591429D01*
X-56419286Y107448572D02*
X-56347858Y107520000D01*
X-56205000Y107591429D01*
X-55990715Y107591429D01*
X-55847858Y107520000D01*
X-55776429Y107377143D01*
X-55776429Y106591429D01*
X-55776429Y107377143D02*
X-55705000Y107520000D01*
X-55562143Y107591429D01*
X-55347858Y107591429D01*
X-55205000Y107520000D01*
X-55133572Y107377143D01*
X-55133572Y106591429D01*
X-54562143Y106020000D02*
X-54490715Y106091429D01*
X-54347858Y106305715D01*
X-54276429Y106448572D01*
X-54205000Y106662858D01*
X-54133572Y107020000D01*
X-54133572Y107305715D01*
X-54205000Y107662858D01*
X-54276429Y107877143D01*
X-54347858Y108020000D01*
X-54490715Y108234286D01*
X-54562143Y108305715D01*
D10*
X-114106429Y90102858D02*
X-114249287Y90031429D01*
X-114535001Y90031429D01*
X-114677858Y90102858D01*
X-114749287Y90174286D01*
X-114820715Y90317143D01*
X-114820715Y90745715D01*
X-114749287Y90888572D01*
X-114677858Y90960000D01*
X-114535001Y91031429D01*
X-114249287Y91031429D01*
X-114106429Y90960000D01*
X-113249287Y90031429D02*
X-113392144Y90102858D01*
X-113463572Y90174286D01*
X-113535001Y90317143D01*
X-113535001Y90745715D01*
X-113463572Y90888572D01*
X-113392144Y90960000D01*
X-113249287Y91031429D01*
X-113035001Y91031429D01*
X-112892144Y90960000D01*
X-112820715Y90888572D01*
X-112749287Y90745715D01*
X-112749287Y90317143D01*
X-112820715Y90174286D01*
X-112892144Y90102858D01*
X-113035001Y90031429D01*
X-113249287Y90031429D01*
X-112106429Y91031429D02*
X-112106429Y89531429D01*
X-112106429Y90960000D02*
X-111963572Y91031429D01*
X-111677858Y91031429D01*
X-111535001Y90960000D01*
X-111463572Y90888572D01*
X-111392144Y90745715D01*
X-111392144Y90317143D01*
X-111463572Y90174286D01*
X-111535001Y90102858D01*
X-111677858Y90031429D01*
X-111963572Y90031429D01*
X-112106429Y90102858D01*
X-110749287Y91031429D02*
X-110749287Y89531429D01*
X-110749287Y90960000D02*
X-110606429Y91031429D01*
X-110320715Y91031429D01*
X-110177858Y90960000D01*
X-110106429Y90888572D01*
X-110035001Y90745715D01*
X-110035001Y90317143D01*
X-110106429Y90174286D01*
X-110177858Y90102858D01*
X-110320715Y90031429D01*
X-110606429Y90031429D01*
X-110749287Y90102858D01*
X-108820715Y90102858D02*
X-108963572Y90031429D01*
X-109249287Y90031429D01*
X-109392144Y90102858D01*
X-109463572Y90245715D01*
X-109463572Y90817143D01*
X-109392144Y90960000D01*
X-109249287Y91031429D01*
X-108963572Y91031429D01*
X-108820715Y90960000D01*
X-108749287Y90817143D01*
X-108749287Y90674286D01*
X-109463572Y90531429D01*
X-108106429Y90031429D02*
X-108106429Y91031429D01*
X-108106429Y90745715D02*
X-108035001Y90888572D01*
X-107963572Y90960000D01*
X-107820715Y91031429D01*
X-107677858Y91031429D01*
X-51892144Y71206429D02*
X-51535001Y69706429D01*
X-51249287Y70777858D01*
X-50963572Y69706429D01*
X-50606429Y71206429D01*
X-50035001Y69706429D02*
X-50035001Y71206429D01*
X-49392144Y69706429D02*
X-49392144Y70492143D01*
X-49463572Y70635000D01*
X-49606429Y70706429D01*
X-49820715Y70706429D01*
X-49963572Y70635000D01*
X-50035001Y70563572D01*
X-48677858Y69706429D02*
X-48677858Y70706429D01*
X-48677858Y71206429D02*
X-48749287Y71135000D01*
X-48677858Y71063572D01*
X-48606429Y71135000D01*
X-48677858Y71206429D01*
X-48677858Y71063572D01*
X-48177858Y70706429D02*
X-47606429Y70706429D01*
X-47963572Y71206429D02*
X-47963572Y69920715D01*
X-47892144Y69777858D01*
X-47749287Y69706429D01*
X-47606429Y69706429D01*
X-46535001Y69777858D02*
X-46677858Y69706429D01*
X-46963572Y69706429D01*
X-47106429Y69777858D01*
X-47177858Y69920715D01*
X-47177858Y70492143D01*
X-47106429Y70635000D01*
X-46963572Y70706429D01*
X-46677858Y70706429D01*
X-46535001Y70635000D01*
X-46463572Y70492143D01*
X-46463572Y70349286D01*
X-47177858Y70206429D01*
X-129563573Y98947143D02*
X-130063573Y98947143D01*
X-130063573Y98161429D02*
X-130063573Y99661429D01*
X-129349287Y99661429D01*
X-128777858Y98304286D02*
X-128706430Y98232858D01*
X-128777858Y98161429D01*
X-128849287Y98232858D01*
X-128777858Y98304286D01*
X-128777858Y98161429D01*
X-128063573Y98161429D02*
X-128063573Y99661429D01*
X-127492144Y99661429D01*
X-127349287Y99590000D01*
X-127277858Y99518572D01*
X-127206430Y99375715D01*
X-127206430Y99161429D01*
X-127277858Y99018572D01*
X-127349287Y98947143D01*
X-127492144Y98875715D01*
X-128063573Y98875715D01*
X-125920715Y98161429D02*
X-125920715Y98947143D01*
X-125992144Y99090000D01*
X-126135001Y99161429D01*
X-126420715Y99161429D01*
X-126563573Y99090000D01*
X-125920715Y98232858D02*
X-126063573Y98161429D01*
X-126420715Y98161429D01*
X-126563573Y98232858D01*
X-126635001Y98375715D01*
X-126635001Y98518572D01*
X-126563573Y98661429D01*
X-126420715Y98732858D01*
X-126063573Y98732858D01*
X-125920715Y98804286D01*
X-125277858Y98232858D02*
X-125135001Y98161429D01*
X-124849287Y98161429D01*
X-124706430Y98232858D01*
X-124635001Y98375715D01*
X-124635001Y98447143D01*
X-124706430Y98590000D01*
X-124849287Y98661429D01*
X-125063573Y98661429D01*
X-125206430Y98732858D01*
X-125277858Y98875715D01*
X-125277858Y98947143D01*
X-125206430Y99090000D01*
X-125063573Y99161429D01*
X-124849287Y99161429D01*
X-124706430Y99090000D01*
X-124206430Y99161429D02*
X-123635001Y99161429D01*
X-123992144Y99661429D02*
X-123992144Y98375715D01*
X-123920715Y98232858D01*
X-123777858Y98161429D01*
X-123635001Y98161429D01*
X-122563573Y98232858D02*
X-122706430Y98161429D01*
X-122992144Y98161429D01*
X-123135001Y98232858D01*
X-123206430Y98375715D01*
X-123206430Y98947143D01*
X-123135001Y99090000D01*
X-122992144Y99161429D01*
X-122706430Y99161429D01*
X-122563573Y99090000D01*
X-122492144Y98947143D01*
X-122492144Y98804286D01*
X-123206430Y98661429D01*
X-43006429Y81901429D02*
X-43863572Y81901429D01*
X-43435001Y81901429D02*
X-43435001Y83401429D01*
X-43577858Y83187143D01*
X-43720715Y83044286D01*
X-43863572Y82972858D01*
X-129563573Y78622143D02*
X-129349287Y78550715D01*
X-129277858Y78479286D01*
X-129206430Y78336429D01*
X-129206430Y78122143D01*
X-129277858Y77979286D01*
X-129349287Y77907858D01*
X-129492144Y77836429D01*
X-130063573Y77836429D01*
X-130063573Y79336429D01*
X-129563573Y79336429D01*
X-129420715Y79265000D01*
X-129349287Y79193572D01*
X-129277858Y79050715D01*
X-129277858Y78907858D01*
X-129349287Y78765000D01*
X-129420715Y78693572D01*
X-129563573Y78622143D01*
X-130063573Y78622143D01*
X-128563573Y77979286D02*
X-128492144Y77907858D01*
X-128563573Y77836429D01*
X-128635001Y77907858D01*
X-128563573Y77979286D01*
X-128563573Y77836429D01*
X-127849287Y77836429D02*
X-127849287Y79336429D01*
X-127349287Y78265000D01*
X-126849287Y79336429D01*
X-126849287Y77836429D01*
X-125492144Y77836429D02*
X-125492144Y78622143D01*
X-125563573Y78765000D01*
X-125706430Y78836429D01*
X-125992144Y78836429D01*
X-126135001Y78765000D01*
X-125492144Y77907858D02*
X-125635001Y77836429D01*
X-125992144Y77836429D01*
X-126135001Y77907858D01*
X-126206430Y78050715D01*
X-126206430Y78193572D01*
X-126135001Y78336429D01*
X-125992144Y78407858D01*
X-125635001Y78407858D01*
X-125492144Y78479286D01*
X-124849287Y77907858D02*
X-124706430Y77836429D01*
X-124420715Y77836429D01*
X-124277858Y77907858D01*
X-124206430Y78050715D01*
X-124206430Y78122143D01*
X-124277858Y78265000D01*
X-124420715Y78336429D01*
X-124635001Y78336429D01*
X-124777858Y78407858D01*
X-124849287Y78550715D01*
X-124849287Y78622143D01*
X-124777858Y78765000D01*
X-124635001Y78836429D01*
X-124420715Y78836429D01*
X-124277858Y78765000D01*
X-123563573Y77836429D02*
X-123563573Y79336429D01*
X-123420715Y78407858D02*
X-122992144Y77836429D01*
X-122992144Y78836429D02*
X-123563573Y78265000D01*
X-114963572Y99661429D02*
X-114106429Y99661429D01*
X-114535001Y98161429D02*
X-114535001Y99661429D01*
X-113392144Y98161429D02*
X-113535001Y98232858D01*
X-113606429Y98304286D01*
X-113677858Y98447143D01*
X-113677858Y98875715D01*
X-113606429Y99018572D01*
X-113535001Y99090000D01*
X-113392144Y99161429D01*
X-113177858Y99161429D01*
X-113035001Y99090000D01*
X-112963572Y99018572D01*
X-112892144Y98875715D01*
X-112892144Y98447143D01*
X-112963572Y98304286D01*
X-113035001Y98232858D01*
X-113177858Y98161429D01*
X-113392144Y98161429D01*
X-112249287Y99161429D02*
X-112249287Y97661429D01*
X-112249287Y99090000D02*
X-112106429Y99161429D01*
X-111820715Y99161429D01*
X-111677858Y99090000D01*
X-111606429Y99018572D01*
X-111535001Y98875715D01*
X-111535001Y98447143D01*
X-111606429Y98304286D01*
X-111677858Y98232858D01*
X-111820715Y98161429D01*
X-112106429Y98161429D01*
X-112249287Y98232858D01*
X-109820715Y98232858D02*
X-109606429Y98161429D01*
X-109249287Y98161429D01*
X-109106429Y98232858D01*
X-109035001Y98304286D01*
X-108963572Y98447143D01*
X-108963572Y98590000D01*
X-109035001Y98732858D01*
X-109106429Y98804286D01*
X-109249287Y98875715D01*
X-109535001Y98947143D01*
X-109677858Y99018572D01*
X-109749287Y99090000D01*
X-109820715Y99232858D01*
X-109820715Y99375715D01*
X-109749287Y99518572D01*
X-109677858Y99590000D01*
X-109535001Y99661429D01*
X-109177858Y99661429D01*
X-108963572Y99590000D01*
X-108106429Y98161429D02*
X-108249287Y98232858D01*
X-108320715Y98304286D01*
X-108392144Y98447143D01*
X-108392144Y98875715D01*
X-108320715Y99018572D01*
X-108249287Y99090000D01*
X-108106429Y99161429D01*
X-107892144Y99161429D01*
X-107749287Y99090000D01*
X-107677858Y99018572D01*
X-107606429Y98875715D01*
X-107606429Y98447143D01*
X-107677858Y98304286D01*
X-107749287Y98232858D01*
X-107892144Y98161429D01*
X-108106429Y98161429D01*
X-106749287Y98161429D02*
X-106892144Y98232858D01*
X-106963572Y98375715D01*
X-106963572Y99661429D01*
X-105535001Y98161429D02*
X-105535001Y99661429D01*
X-105535001Y98232858D02*
X-105677858Y98161429D01*
X-105963572Y98161429D01*
X-106106429Y98232858D01*
X-106177858Y98304286D01*
X-106249287Y98447143D01*
X-106249287Y98875715D01*
X-106177858Y99018572D01*
X-106106429Y99090000D01*
X-105963572Y99161429D01*
X-105677858Y99161429D01*
X-105535001Y99090000D01*
X-104249287Y98232858D02*
X-104392144Y98161429D01*
X-104677858Y98161429D01*
X-104820715Y98232858D01*
X-104892144Y98375715D01*
X-104892144Y98947143D01*
X-104820715Y99090000D01*
X-104677858Y99161429D01*
X-104392144Y99161429D01*
X-104249287Y99090000D01*
X-104177858Y98947143D01*
X-104177858Y98804286D01*
X-104892144Y98661429D01*
X-103535001Y98161429D02*
X-103535001Y99161429D01*
X-103535001Y98875715D02*
X-103463572Y99018572D01*
X-103392144Y99090000D01*
X-103249287Y99161429D01*
X-103106429Y99161429D01*
X-101463572Y98161429D02*
X-101463572Y99661429D01*
X-100892144Y99661429D01*
X-100749287Y99590000D01*
X-100677858Y99518572D01*
X-100606429Y99375715D01*
X-100606429Y99161429D01*
X-100677858Y99018572D01*
X-100749287Y98947143D01*
X-100892144Y98875715D01*
X-101463572Y98875715D01*
X-99320715Y98161429D02*
X-99320715Y98947143D01*
X-99392144Y99090000D01*
X-99535001Y99161429D01*
X-99820715Y99161429D01*
X-99963572Y99090000D01*
X-99320715Y98232858D02*
X-99463572Y98161429D01*
X-99820715Y98161429D01*
X-99963572Y98232858D01*
X-100035001Y98375715D01*
X-100035001Y98518572D01*
X-99963572Y98661429D01*
X-99820715Y98732858D01*
X-99463572Y98732858D01*
X-99320715Y98804286D01*
X-98677858Y98232858D02*
X-98535001Y98161429D01*
X-98249287Y98161429D01*
X-98106429Y98232858D01*
X-98035001Y98375715D01*
X-98035001Y98447143D01*
X-98106429Y98590000D01*
X-98249287Y98661429D01*
X-98463572Y98661429D01*
X-98606429Y98732858D01*
X-98677858Y98875715D01*
X-98677858Y98947143D01*
X-98606429Y99090000D01*
X-98463572Y99161429D01*
X-98249287Y99161429D01*
X-98106429Y99090000D01*
X-97606429Y99161429D02*
X-97035001Y99161429D01*
X-97392144Y99661429D02*
X-97392144Y98375715D01*
X-97320715Y98232858D01*
X-97177858Y98161429D01*
X-97035001Y98161429D01*
X-95963572Y98232858D02*
X-96106429Y98161429D01*
X-96392144Y98161429D01*
X-96535001Y98232858D01*
X-96606429Y98375715D01*
X-96606429Y98947143D01*
X-96535001Y99090000D01*
X-96392144Y99161429D01*
X-96106429Y99161429D01*
X-95963572Y99090000D01*
X-95892144Y98947143D01*
X-95892144Y98804286D01*
X-96606429Y98661429D01*
X-71192143Y91531429D02*
X-71049286Y91531429D01*
X-70906429Y91460000D01*
X-70835000Y91388572D01*
X-70763572Y91245715D01*
X-70692143Y90960000D01*
X-70692143Y90602858D01*
X-70763572Y90317143D01*
X-70835000Y90174286D01*
X-70906429Y90102858D01*
X-71049286Y90031429D01*
X-71192143Y90031429D01*
X-71335000Y90102858D01*
X-71406429Y90174286D01*
X-71477858Y90317143D01*
X-71549286Y90602858D01*
X-71549286Y90960000D01*
X-71477858Y91245715D01*
X-71406429Y91388572D01*
X-71335000Y91460000D01*
X-71192143Y91531429D01*
X-70049286Y90174286D02*
X-69977858Y90102858D01*
X-70049286Y90031429D01*
X-70120715Y90102858D01*
X-70049286Y90174286D01*
X-70049286Y90031429D01*
X-69049286Y91531429D02*
X-68906429Y91531429D01*
X-68763572Y91460000D01*
X-68692143Y91388572D01*
X-68620715Y91245715D01*
X-68549286Y90960000D01*
X-68549286Y90602858D01*
X-68620715Y90317143D01*
X-68692143Y90174286D01*
X-68763572Y90102858D01*
X-68906429Y90031429D01*
X-69049286Y90031429D01*
X-69192143Y90102858D01*
X-69263572Y90174286D01*
X-69335000Y90317143D01*
X-69406429Y90602858D01*
X-69406429Y90960000D01*
X-69335000Y91245715D01*
X-69263572Y91388572D01*
X-69192143Y91460000D01*
X-69049286Y91531429D01*
X-68049286Y91531429D02*
X-67120715Y91531429D01*
X-67620715Y90960000D01*
X-67406429Y90960000D01*
X-67263572Y90888572D01*
X-67192143Y90817143D01*
X-67120715Y90674286D01*
X-67120715Y90317143D01*
X-67192143Y90174286D01*
X-67263572Y90102858D01*
X-67406429Y90031429D01*
X-67835000Y90031429D01*
X-67977858Y90102858D01*
X-68049286Y90174286D01*
X-65763572Y91531429D02*
X-66477858Y91531429D01*
X-66549286Y90817143D01*
X-66477858Y90888572D01*
X-66335000Y90960000D01*
X-65977858Y90960000D01*
X-65835000Y90888572D01*
X-65763572Y90817143D01*
X-65692143Y90674286D01*
X-65692143Y90317143D01*
X-65763572Y90174286D01*
X-65835000Y90102858D01*
X-65977858Y90031429D01*
X-66335000Y90031429D01*
X-66477858Y90102858D01*
X-66549286Y90174286D01*
X-63906429Y90031429D02*
X-63906429Y91031429D01*
X-63906429Y90888572D02*
X-63835000Y90960000D01*
X-63692143Y91031429D01*
X-63477858Y91031429D01*
X-63335000Y90960000D01*
X-63263572Y90817143D01*
X-63263572Y90031429D01*
X-63263572Y90817143D02*
X-63192143Y90960000D01*
X-63049286Y91031429D01*
X-62835000Y91031429D01*
X-62692143Y90960000D01*
X-62620715Y90817143D01*
X-62620715Y90031429D01*
X-61906429Y90031429D02*
X-61906429Y91031429D01*
X-61906429Y90888572D02*
X-61835000Y90960000D01*
X-61692143Y91031429D01*
X-61477858Y91031429D01*
X-61335000Y90960000D01*
X-61263572Y90817143D01*
X-61263572Y90031429D01*
X-61263572Y90817143D02*
X-61192143Y90960000D01*
X-61049286Y91031429D01*
X-60835000Y91031429D01*
X-60692143Y90960000D01*
X-60620715Y90817143D01*
X-60620715Y90031429D01*
X-71192143Y103726429D02*
X-71049286Y103726429D01*
X-70906429Y103655000D01*
X-70835000Y103583572D01*
X-70763572Y103440715D01*
X-70692143Y103155000D01*
X-70692143Y102797858D01*
X-70763572Y102512143D01*
X-70835000Y102369286D01*
X-70906429Y102297858D01*
X-71049286Y102226429D01*
X-71192143Y102226429D01*
X-71335000Y102297858D01*
X-71406429Y102369286D01*
X-71477858Y102512143D01*
X-71549286Y102797858D01*
X-71549286Y103155000D01*
X-71477858Y103440715D01*
X-71406429Y103583572D01*
X-71335000Y103655000D01*
X-71192143Y103726429D01*
X-68906429Y102226429D02*
X-68906429Y103226429D01*
X-68906429Y103083572D02*
X-68835000Y103155000D01*
X-68692143Y103226429D01*
X-68477858Y103226429D01*
X-68335000Y103155000D01*
X-68263572Y103012143D01*
X-68263572Y102226429D01*
X-68263572Y103012143D02*
X-68192143Y103155000D01*
X-68049286Y103226429D01*
X-67835000Y103226429D01*
X-67692143Y103155000D01*
X-67620715Y103012143D01*
X-67620715Y102226429D01*
X-66906429Y102226429D02*
X-66906429Y103226429D01*
X-66906429Y103083572D02*
X-66835000Y103155000D01*
X-66692143Y103226429D01*
X-66477858Y103226429D01*
X-66335000Y103155000D01*
X-66263572Y103012143D01*
X-66263572Y102226429D01*
X-66263572Y103012143D02*
X-66192143Y103155000D01*
X-66049286Y103226429D01*
X-65835000Y103226429D01*
X-65692143Y103155000D01*
X-65620715Y103012143D01*
X-65620715Y102226429D01*
X-30920715Y95596429D02*
X-30777858Y95596429D01*
X-30635001Y95525000D01*
X-30563572Y95453572D01*
X-30492144Y95310715D01*
X-30420715Y95025000D01*
X-30420715Y94667858D01*
X-30492144Y94382143D01*
X-30563572Y94239286D01*
X-30635001Y94167858D01*
X-30777858Y94096429D01*
X-30920715Y94096429D01*
X-31063572Y94167858D01*
X-31135001Y94239286D01*
X-31206430Y94382143D01*
X-31277858Y94667858D01*
X-31277858Y95025000D01*
X-31206430Y95310715D01*
X-31135001Y95453572D01*
X-31063572Y95525000D01*
X-30920715Y95596429D01*
D12*
X-38327143Y46171429D02*
X-38184286Y46171429D01*
X-38041429Y46100000D01*
X-37970000Y46028572D01*
X-37898572Y45885715D01*
X-37827143Y45600000D01*
X-37827143Y45242858D01*
X-37898572Y44957143D01*
X-37970000Y44814286D01*
X-38041429Y44742858D01*
X-38184286Y44671429D01*
X-38327143Y44671429D01*
X-38470000Y44742858D01*
X-38541429Y44814286D01*
X-38612858Y44957143D01*
X-38684286Y45242858D01*
X-38684286Y45600000D01*
X-38612858Y45885715D01*
X-38541429Y46028572D01*
X-38470000Y46100000D01*
X-38327143Y46171429D01*
X-37184286Y44814286D02*
X-37112858Y44742858D01*
X-37184286Y44671429D01*
X-37255715Y44742858D01*
X-37184286Y44814286D01*
X-37184286Y44671429D01*
X-36612858Y46171429D02*
X-35684286Y46171429D01*
X-36184286Y45600000D01*
X-35970000Y45600000D01*
X-35827143Y45528572D01*
X-35755715Y45457143D01*
X-35684286Y45314286D01*
X-35684286Y44957143D01*
X-35755715Y44814286D01*
X-35827143Y44742858D01*
X-35970000Y44671429D01*
X-36398572Y44671429D01*
X-36541429Y44742858D01*
X-36612858Y44814286D01*
X-34755715Y46171429D02*
X-34612858Y46171429D01*
X-34470000Y46100000D01*
X-34398572Y46028572D01*
X-34327143Y45885715D01*
X-34255715Y45600000D01*
X-34255715Y45242858D01*
X-34327143Y44957143D01*
X-34398572Y44814286D01*
X-34470000Y44742858D01*
X-34612858Y44671429D01*
X-34755715Y44671429D01*
X-34898572Y44742858D01*
X-34970000Y44814286D01*
X-35041429Y44957143D01*
X-35112858Y45242858D01*
X-35112858Y45600000D01*
X-35041429Y45885715D01*
X-34970000Y46028572D01*
X-34898572Y46100000D01*
X-34755715Y46171429D01*
X-33327143Y46171429D02*
X-33184286Y46171429D01*
X-33041429Y46100000D01*
X-32970000Y46028572D01*
X-32898572Y45885715D01*
X-32827143Y45600000D01*
X-32827143Y45242858D01*
X-32898572Y44957143D01*
X-32970000Y44814286D01*
X-33041429Y44742858D01*
X-33184286Y44671429D01*
X-33327143Y44671429D01*
X-33470000Y44742858D01*
X-33541429Y44814286D01*
X-33612858Y44957143D01*
X-33684286Y45242858D01*
X-33684286Y45600000D01*
X-33612858Y45885715D01*
X-33541429Y46028572D01*
X-33470000Y46100000D01*
X-33327143Y46171429D01*
X-31898572Y46171429D02*
X-31755715Y46171429D01*
X-31612858Y46100000D01*
X-31541429Y46028572D01*
X-31470000Y45885715D01*
X-31398572Y45600000D01*
X-31398572Y45242858D01*
X-31470000Y44957143D01*
X-31541429Y44814286D01*
X-31612858Y44742858D01*
X-31755715Y44671429D01*
X-31898572Y44671429D01*
X-32041429Y44742858D01*
X-32112858Y44814286D01*
X-32184286Y44957143D01*
X-32255715Y45242858D01*
X-32255715Y45600000D01*
X-32184286Y45885715D01*
X-32112858Y46028572D01*
X-32041429Y46100000D01*
X-31898572Y46171429D01*
X-29612858Y44671429D02*
X-29612858Y45671429D01*
X-29612858Y45528572D02*
X-29541429Y45600000D01*
X-29398572Y45671429D01*
X-29184286Y45671429D01*
X-29041429Y45600000D01*
X-28970000Y45457143D01*
X-28970000Y44671429D01*
X-28970000Y45457143D02*
X-28898572Y45600000D01*
X-28755715Y45671429D01*
X-28541429Y45671429D01*
X-28398572Y45600000D01*
X-28327143Y45457143D01*
X-28327143Y44671429D01*
X-27612858Y44671429D02*
X-27612858Y45671429D01*
X-27612858Y45528572D02*
X-27541429Y45600000D01*
X-27398572Y45671429D01*
X-27184286Y45671429D01*
X-27041429Y45600000D01*
X-26970000Y45457143D01*
X-26970000Y44671429D01*
X-26970000Y45457143D02*
X-26898572Y45600000D01*
X-26755715Y45671429D01*
X-26541429Y45671429D01*
X-26398572Y45600000D01*
X-26327143Y45457143D01*
X-26327143Y44671429D01*
D10*
X-30920715Y79336429D02*
X-30777858Y79336429D01*
X-30635001Y79265000D01*
X-30563572Y79193572D01*
X-30492144Y79050715D01*
X-30420715Y78765000D01*
X-30420715Y78407858D01*
X-30492144Y78122143D01*
X-30563572Y77979286D01*
X-30635001Y77907858D01*
X-30777858Y77836429D01*
X-30920715Y77836429D01*
X-31063572Y77907858D01*
X-31135001Y77979286D01*
X-31206430Y78122143D01*
X-31277858Y78407858D01*
X-31277858Y78765000D01*
X-31206430Y79050715D01*
X-31135001Y79193572D01*
X-31063572Y79265000D01*
X-30920715Y79336429D01*
D12*
X-97512858Y32026429D02*
X-97512858Y33526429D01*
X-96655715Y32026429D01*
X-96655715Y33526429D01*
X-95727143Y32026429D02*
X-95870000Y32097858D01*
X-95941429Y32169286D01*
X-96012858Y32312143D01*
X-96012858Y32740715D01*
X-95941429Y32883572D01*
X-95870000Y32955000D01*
X-95727143Y33026429D01*
X-95512858Y33026429D01*
X-95370000Y32955000D01*
X-95298572Y32883572D01*
X-95227143Y32740715D01*
X-95227143Y32312143D01*
X-95298572Y32169286D01*
X-95370000Y32097858D01*
X-95512858Y32026429D01*
X-95727143Y32026429D01*
D10*
X-89577858Y69706429D02*
X-89577858Y71206429D01*
X-89220715Y71206429D01*
X-89006429Y71135000D01*
X-88863572Y70992143D01*
X-88792143Y70849286D01*
X-88720715Y70563572D01*
X-88720715Y70349286D01*
X-88792143Y70063572D01*
X-88863572Y69920715D01*
X-89006429Y69777858D01*
X-89220715Y69706429D01*
X-89577858Y69706429D01*
X-88077858Y69706429D02*
X-88077858Y70706429D01*
X-88077858Y71206429D02*
X-88149286Y71135000D01*
X-88077858Y71063572D01*
X-88006429Y71135000D01*
X-88077858Y71206429D01*
X-88077858Y71063572D01*
X-87363572Y69706429D02*
X-87363572Y70706429D01*
X-87363572Y70420715D02*
X-87292143Y70563572D01*
X-87220715Y70635000D01*
X-87077858Y70706429D01*
X-86935000Y70706429D01*
X-85863572Y69777858D02*
X-86006429Y69706429D01*
X-86292143Y69706429D01*
X-86435000Y69777858D01*
X-86506429Y69920715D01*
X-86506429Y70492143D01*
X-86435000Y70635000D01*
X-86292143Y70706429D01*
X-86006429Y70706429D01*
X-85863572Y70635000D01*
X-85792143Y70492143D01*
X-85792143Y70349286D01*
X-86506429Y70206429D01*
X-84506429Y69777858D02*
X-84649286Y69706429D01*
X-84935000Y69706429D01*
X-85077858Y69777858D01*
X-85149286Y69849286D01*
X-85220715Y69992143D01*
X-85220715Y70420715D01*
X-85149286Y70563572D01*
X-85077858Y70635000D01*
X-84935000Y70706429D01*
X-84649286Y70706429D01*
X-84506429Y70635000D01*
X-84077858Y70706429D02*
X-83506429Y70706429D01*
X-83863572Y71206429D02*
X-83863572Y69920715D01*
X-83792143Y69777858D01*
X-83649286Y69706429D01*
X-83506429Y69706429D01*
X-81863572Y69706429D02*
X-81863572Y71206429D01*
X-81292143Y71206429D01*
X-81149286Y71135000D01*
X-81077858Y71063572D01*
X-81006429Y70920715D01*
X-81006429Y70706429D01*
X-81077858Y70563572D01*
X-81149286Y70492143D01*
X-81292143Y70420715D01*
X-81863572Y70420715D01*
X-80363572Y69706429D02*
X-80363572Y70706429D01*
X-80363572Y70420715D02*
X-80292143Y70563572D01*
X-80220715Y70635000D01*
X-80077858Y70706429D01*
X-79935000Y70706429D01*
X-79435000Y69706429D02*
X-79435000Y70706429D01*
X-79435000Y71206429D02*
X-79506429Y71135000D01*
X-79435000Y71063572D01*
X-79363572Y71135000D01*
X-79435000Y71206429D01*
X-79435000Y71063572D01*
X-78720715Y70706429D02*
X-78720715Y69706429D01*
X-78720715Y70563572D02*
X-78649286Y70635000D01*
X-78506429Y70706429D01*
X-78292143Y70706429D01*
X-78149286Y70635000D01*
X-78077858Y70492143D01*
X-78077858Y69706429D01*
X-77577858Y70706429D02*
X-77006429Y70706429D01*
X-77363572Y71206429D02*
X-77363572Y69920715D01*
X-77292143Y69777858D01*
X-77149286Y69706429D01*
X-77006429Y69706429D01*
X-76506429Y69706429D02*
X-76506429Y70706429D01*
X-76506429Y71206429D02*
X-76577858Y71135000D01*
X-76506429Y71063572D01*
X-76435000Y71135000D01*
X-76506429Y71206429D01*
X-76506429Y71063572D01*
X-75792143Y70706429D02*
X-75792143Y69706429D01*
X-75792143Y70563572D02*
X-75720715Y70635000D01*
X-75577858Y70706429D01*
X-75363572Y70706429D01*
X-75220715Y70635000D01*
X-75149286Y70492143D01*
X-75149286Y69706429D01*
X-73792143Y70706429D02*
X-73792143Y69492143D01*
X-73863572Y69349286D01*
X-73935000Y69277858D01*
X-74077858Y69206429D01*
X-74292143Y69206429D01*
X-74435000Y69277858D01*
X-73792143Y69777858D02*
X-73935000Y69706429D01*
X-74220715Y69706429D01*
X-74363572Y69777858D01*
X-74435000Y69849286D01*
X-74506429Y69992143D01*
X-74506429Y70420715D01*
X-74435000Y70563572D01*
X-74363572Y70635000D01*
X-74220715Y70706429D01*
X-73935000Y70706429D01*
X-73792143Y70635000D01*
X-70692143Y85966429D02*
X-71549286Y85966429D01*
X-71120715Y85966429D02*
X-71120715Y87466429D01*
X-71263572Y87252143D01*
X-71406429Y87109286D01*
X-71549286Y87037858D01*
X-70049286Y86109286D02*
X-69977858Y86037858D01*
X-70049286Y85966429D01*
X-70120715Y86037858D01*
X-70049286Y86109286D01*
X-70049286Y85966429D01*
X-68620715Y87466429D02*
X-69335000Y87466429D01*
X-69406429Y86752143D01*
X-69335000Y86823572D01*
X-69192143Y86895000D01*
X-68835000Y86895000D01*
X-68692143Y86823572D01*
X-68620715Y86752143D01*
X-68549286Y86609286D01*
X-68549286Y86252143D01*
X-68620715Y86109286D01*
X-68692143Y86037858D01*
X-68835000Y85966429D01*
X-69192143Y85966429D01*
X-69335000Y86037858D01*
X-69406429Y86109286D01*
X-67120715Y85966429D02*
X-67977858Y85966429D01*
X-67549286Y85966429D02*
X-67549286Y87466429D01*
X-67692143Y87252143D01*
X-67835000Y87109286D01*
X-67977858Y87037858D01*
X-65335000Y85966429D02*
X-65335000Y86966429D01*
X-65335000Y86823572D02*
X-65263572Y86895000D01*
X-65120715Y86966429D01*
X-64906429Y86966429D01*
X-64763572Y86895000D01*
X-64692143Y86752143D01*
X-64692143Y85966429D01*
X-64692143Y86752143D02*
X-64620715Y86895000D01*
X-64477858Y86966429D01*
X-64263572Y86966429D01*
X-64120715Y86895000D01*
X-64049286Y86752143D01*
X-64049286Y85966429D01*
X-63335000Y85966429D02*
X-63335000Y86966429D01*
X-63335000Y86823572D02*
X-63263572Y86895000D01*
X-63120715Y86966429D01*
X-62906429Y86966429D01*
X-62763572Y86895000D01*
X-62692143Y86752143D01*
X-62692143Y85966429D01*
X-62692143Y86752143D02*
X-62620715Y86895000D01*
X-62477858Y86966429D01*
X-62263572Y86966429D01*
X-62120715Y86895000D01*
X-62049286Y86752143D01*
X-62049286Y85966429D01*
X-114249287Y74557143D02*
X-114035001Y74485715D01*
X-113963572Y74414286D01*
X-113892144Y74271429D01*
X-113892144Y74057143D01*
X-113963572Y73914286D01*
X-114035001Y73842858D01*
X-114177858Y73771429D01*
X-114749287Y73771429D01*
X-114749287Y75271429D01*
X-114249287Y75271429D01*
X-114106429Y75200000D01*
X-114035001Y75128572D01*
X-113963572Y74985715D01*
X-113963572Y74842858D01*
X-114035001Y74700000D01*
X-114106429Y74628572D01*
X-114249287Y74557143D01*
X-114749287Y74557143D01*
X-113035001Y73771429D02*
X-113177858Y73842858D01*
X-113249287Y73914286D01*
X-113320715Y74057143D01*
X-113320715Y74485715D01*
X-113249287Y74628572D01*
X-113177858Y74700000D01*
X-113035001Y74771429D01*
X-112820715Y74771429D01*
X-112677858Y74700000D01*
X-112606429Y74628572D01*
X-112535001Y74485715D01*
X-112535001Y74057143D01*
X-112606429Y73914286D01*
X-112677858Y73842858D01*
X-112820715Y73771429D01*
X-113035001Y73771429D01*
X-112106429Y74771429D02*
X-111535001Y74771429D01*
X-111892144Y75271429D02*
X-111892144Y73985715D01*
X-111820715Y73842858D01*
X-111677858Y73771429D01*
X-111535001Y73771429D01*
X-111249287Y74771429D02*
X-110677858Y74771429D01*
X-111035001Y75271429D02*
X-111035001Y73985715D01*
X-110963572Y73842858D01*
X-110820715Y73771429D01*
X-110677858Y73771429D01*
X-109963572Y73771429D02*
X-110106429Y73842858D01*
X-110177858Y73914286D01*
X-110249287Y74057143D01*
X-110249287Y74485715D01*
X-110177858Y74628572D01*
X-110106429Y74700000D01*
X-109963572Y74771429D01*
X-109749287Y74771429D01*
X-109606429Y74700000D01*
X-109535001Y74628572D01*
X-109463572Y74485715D01*
X-109463572Y74057143D01*
X-109535001Y73914286D01*
X-109606429Y73842858D01*
X-109749287Y73771429D01*
X-109963572Y73771429D01*
X-108820715Y73771429D02*
X-108820715Y74771429D01*
X-108820715Y74628572D02*
X-108749287Y74700000D01*
X-108606429Y74771429D01*
X-108392144Y74771429D01*
X-108249287Y74700000D01*
X-108177858Y74557143D01*
X-108177858Y73771429D01*
X-108177858Y74557143D02*
X-108106429Y74700000D01*
X-107963572Y74771429D01*
X-107749287Y74771429D01*
X-107606429Y74700000D01*
X-107535001Y74557143D01*
X-107535001Y73771429D01*
X-105749287Y73842858D02*
X-105535001Y73771429D01*
X-105177858Y73771429D01*
X-105035001Y73842858D01*
X-104963572Y73914286D01*
X-104892144Y74057143D01*
X-104892144Y74200000D01*
X-104963572Y74342858D01*
X-105035001Y74414286D01*
X-105177858Y74485715D01*
X-105463572Y74557143D01*
X-105606429Y74628572D01*
X-105677858Y74700000D01*
X-105749287Y74842858D01*
X-105749287Y74985715D01*
X-105677858Y75128572D01*
X-105606429Y75200000D01*
X-105463572Y75271429D01*
X-105106429Y75271429D01*
X-104892144Y75200000D01*
X-104035001Y73771429D02*
X-104177858Y73842858D01*
X-104249287Y73914286D01*
X-104320715Y74057143D01*
X-104320715Y74485715D01*
X-104249287Y74628572D01*
X-104177858Y74700000D01*
X-104035001Y74771429D01*
X-103820715Y74771429D01*
X-103677858Y74700000D01*
X-103606429Y74628572D01*
X-103535001Y74485715D01*
X-103535001Y74057143D01*
X-103606429Y73914286D01*
X-103677858Y73842858D01*
X-103820715Y73771429D01*
X-104035001Y73771429D01*
X-102677858Y73771429D02*
X-102820715Y73842858D01*
X-102892144Y73985715D01*
X-102892144Y75271429D01*
X-101463572Y73771429D02*
X-101463572Y75271429D01*
X-101463572Y73842858D02*
X-101606429Y73771429D01*
X-101892144Y73771429D01*
X-102035001Y73842858D01*
X-102106429Y73914286D01*
X-102177858Y74057143D01*
X-102177858Y74485715D01*
X-102106429Y74628572D01*
X-102035001Y74700000D01*
X-101892144Y74771429D01*
X-101606429Y74771429D01*
X-101463572Y74700000D01*
X-100177858Y73842858D02*
X-100320715Y73771429D01*
X-100606429Y73771429D01*
X-100749287Y73842858D01*
X-100820715Y73985715D01*
X-100820715Y74557143D01*
X-100749287Y74700000D01*
X-100606429Y74771429D01*
X-100320715Y74771429D01*
X-100177858Y74700000D01*
X-100106429Y74557143D01*
X-100106429Y74414286D01*
X-100820715Y74271429D01*
X-99463572Y73771429D02*
X-99463572Y74771429D01*
X-99463572Y74485715D02*
X-99392144Y74628572D01*
X-99320715Y74700000D01*
X-99177858Y74771429D01*
X-99035001Y74771429D01*
X-97392144Y73771429D02*
X-97392144Y75271429D01*
X-96820715Y75271429D01*
X-96677858Y75200000D01*
X-96606429Y75128572D01*
X-96535001Y74985715D01*
X-96535001Y74771429D01*
X-96606429Y74628572D01*
X-96677858Y74557143D01*
X-96820715Y74485715D01*
X-97392144Y74485715D01*
X-95249287Y73771429D02*
X-95249287Y74557143D01*
X-95320715Y74700000D01*
X-95463572Y74771429D01*
X-95749287Y74771429D01*
X-95892144Y74700000D01*
X-95249287Y73842858D02*
X-95392144Y73771429D01*
X-95749287Y73771429D01*
X-95892144Y73842858D01*
X-95963572Y73985715D01*
X-95963572Y74128572D01*
X-95892144Y74271429D01*
X-95749287Y74342858D01*
X-95392144Y74342858D01*
X-95249287Y74414286D01*
X-94606429Y73842858D02*
X-94463572Y73771429D01*
X-94177858Y73771429D01*
X-94035001Y73842858D01*
X-93963572Y73985715D01*
X-93963572Y74057143D01*
X-94035001Y74200000D01*
X-94177858Y74271429D01*
X-94392144Y74271429D01*
X-94535001Y74342858D01*
X-94606429Y74485715D01*
X-94606429Y74557143D01*
X-94535001Y74700000D01*
X-94392144Y74771429D01*
X-94177858Y74771429D01*
X-94035001Y74700000D01*
X-93535001Y74771429D02*
X-92963572Y74771429D01*
X-93320715Y75271429D02*
X-93320715Y73985715D01*
X-93249287Y73842858D01*
X-93106429Y73771429D01*
X-92963572Y73771429D01*
X-91892144Y73842858D02*
X-92035001Y73771429D01*
X-92320715Y73771429D01*
X-92463572Y73842858D01*
X-92535001Y73985715D01*
X-92535001Y74557143D01*
X-92463572Y74700000D01*
X-92320715Y74771429D01*
X-92035001Y74771429D01*
X-91892144Y74700000D01*
X-91820715Y74557143D01*
X-91820715Y74414286D01*
X-92535001Y74271429D01*
D12*
X-38612858Y36241429D02*
X-38612858Y37741429D01*
X-37755715Y36241429D01*
X-37755715Y37741429D01*
X-36827143Y36241429D02*
X-36970000Y36312858D01*
X-37041429Y36384286D01*
X-37112858Y36527143D01*
X-37112858Y36955715D01*
X-37041429Y37098572D01*
X-36970000Y37170000D01*
X-36827143Y37241429D01*
X-36612858Y37241429D01*
X-36470000Y37170000D01*
X-36398572Y37098572D01*
X-36327143Y36955715D01*
X-36327143Y36527143D01*
X-36398572Y36384286D01*
X-36470000Y36312858D01*
X-36612858Y36241429D01*
X-36827143Y36241429D01*
D10*
X-130063573Y85966429D02*
X-130063573Y87466429D01*
X-129706430Y87466429D01*
X-129492144Y87395000D01*
X-129349287Y87252143D01*
X-129277858Y87109286D01*
X-129206430Y86823572D01*
X-129206430Y86609286D01*
X-129277858Y86323572D01*
X-129349287Y86180715D01*
X-129492144Y86037858D01*
X-129706430Y85966429D01*
X-130063573Y85966429D01*
X-128563573Y85966429D02*
X-128563573Y86966429D01*
X-128563573Y87466429D02*
X-128635001Y87395000D01*
X-128563573Y87323572D01*
X-128492144Y87395000D01*
X-128563573Y87466429D01*
X-128563573Y87323572D01*
X-127277858Y86037858D02*
X-127420715Y85966429D01*
X-127706430Y85966429D01*
X-127849287Y86037858D01*
X-127920715Y86180715D01*
X-127920715Y86752143D01*
X-127849287Y86895000D01*
X-127706430Y86966429D01*
X-127420715Y86966429D01*
X-127277858Y86895000D01*
X-127206430Y86752143D01*
X-127206430Y86609286D01*
X-127920715Y86466429D01*
X-126349287Y85966429D02*
X-126492144Y86037858D01*
X-126563573Y86180715D01*
X-126563573Y87466429D01*
X-125206430Y86037858D02*
X-125349287Y85966429D01*
X-125635001Y85966429D01*
X-125777858Y86037858D01*
X-125849287Y86180715D01*
X-125849287Y86752143D01*
X-125777858Y86895000D01*
X-125635001Y86966429D01*
X-125349287Y86966429D01*
X-125206430Y86895000D01*
X-125135001Y86752143D01*
X-125135001Y86609286D01*
X-125849287Y86466429D01*
X-123849287Y86037858D02*
X-123992144Y85966429D01*
X-124277858Y85966429D01*
X-124420715Y86037858D01*
X-124492144Y86109286D01*
X-124563573Y86252143D01*
X-124563573Y86680715D01*
X-124492144Y86823572D01*
X-124420715Y86895000D01*
X-124277858Y86966429D01*
X-123992144Y86966429D01*
X-123849287Y86895000D01*
X-123420715Y86966429D02*
X-122849287Y86966429D01*
X-123206430Y87466429D02*
X-123206430Y86180715D01*
X-123135001Y86037858D01*
X-122992144Y85966429D01*
X-122849287Y85966429D01*
X-122349287Y85966429D02*
X-122349287Y86966429D01*
X-122349287Y86680715D02*
X-122277858Y86823572D01*
X-122206430Y86895000D01*
X-122063573Y86966429D01*
X-121920715Y86966429D01*
X-121420715Y85966429D02*
X-121420715Y86966429D01*
X-121420715Y87466429D02*
X-121492144Y87395000D01*
X-121420715Y87323572D01*
X-121349287Y87395000D01*
X-121420715Y87466429D01*
X-121420715Y87323572D01*
X-120063573Y86037858D02*
X-120206430Y85966429D01*
X-120492144Y85966429D01*
X-120635001Y86037858D01*
X-120706430Y86109286D01*
X-120777858Y86252143D01*
X-120777858Y86680715D01*
X-120706430Y86823572D01*
X-120635001Y86895000D01*
X-120492144Y86966429D01*
X-120206430Y86966429D01*
X-120063573Y86895000D01*
X-117492144Y85966429D02*
X-118349287Y85966429D01*
X-117920715Y85966429D02*
X-117920715Y87466429D01*
X-118063573Y87252143D01*
X-118206430Y87109286D01*
X-118349287Y87037858D01*
D12*
X-97584286Y54458572D02*
X-97512858Y54530000D01*
X-97370000Y54601429D01*
X-97012858Y54601429D01*
X-96870000Y54530000D01*
X-96798572Y54458572D01*
X-96727143Y54315715D01*
X-96727143Y54172858D01*
X-96798572Y53958572D01*
X-97655715Y53101429D01*
X-96727143Y53101429D01*
D10*
X-129563573Y103012143D02*
X-130063573Y103012143D01*
X-130063573Y102226429D02*
X-130063573Y103726429D01*
X-129349287Y103726429D01*
X-128777858Y102369286D02*
X-128706430Y102297858D01*
X-128777858Y102226429D01*
X-128849287Y102297858D01*
X-128777858Y102369286D01*
X-128777858Y102226429D01*
X-128135001Y102297858D02*
X-127920715Y102226429D01*
X-127563573Y102226429D01*
X-127420715Y102297858D01*
X-127349287Y102369286D01*
X-127277858Y102512143D01*
X-127277858Y102655000D01*
X-127349287Y102797858D01*
X-127420715Y102869286D01*
X-127563573Y102940715D01*
X-127849287Y103012143D01*
X-127992144Y103083572D01*
X-128063573Y103155000D01*
X-128135001Y103297858D01*
X-128135001Y103440715D01*
X-128063573Y103583572D01*
X-127992144Y103655000D01*
X-127849287Y103726429D01*
X-127492144Y103726429D01*
X-127277858Y103655000D01*
X-126635001Y102226429D02*
X-126635001Y103226429D01*
X-126635001Y103726429D02*
X-126706430Y103655000D01*
X-126635001Y103583572D01*
X-126563573Y103655000D01*
X-126635001Y103726429D01*
X-126635001Y103583572D01*
X-125706430Y102226429D02*
X-125849287Y102297858D01*
X-125920715Y102440715D01*
X-125920715Y103726429D01*
X-125135001Y102226429D02*
X-125135001Y103726429D01*
X-124992144Y102797858D02*
X-124563573Y102226429D01*
X-124563573Y103226429D02*
X-125135001Y102655000D01*
X-123992144Y102297858D02*
X-123849287Y102226429D01*
X-123563573Y102226429D01*
X-123420715Y102297858D01*
X-123349287Y102440715D01*
X-123349287Y102512143D01*
X-123420715Y102655000D01*
X-123563573Y102726429D01*
X-123777858Y102726429D01*
X-123920715Y102797858D01*
X-123992144Y102940715D01*
X-123992144Y103012143D01*
X-123920715Y103155000D01*
X-123777858Y103226429D01*
X-123563573Y103226429D01*
X-123420715Y103155000D01*
X-122063573Y102297858D02*
X-122206430Y102226429D01*
X-122492144Y102226429D01*
X-122635001Y102297858D01*
X-122706430Y102369286D01*
X-122777858Y102512143D01*
X-122777858Y102940715D01*
X-122706430Y103083572D01*
X-122635001Y103155000D01*
X-122492144Y103226429D01*
X-122206430Y103226429D01*
X-122063573Y103155000D01*
X-121420715Y102226429D02*
X-121420715Y103226429D01*
X-121420715Y102940715D02*
X-121349287Y103083572D01*
X-121277858Y103155000D01*
X-121135001Y103226429D01*
X-120992144Y103226429D01*
X-119920715Y102297858D02*
X-120063573Y102226429D01*
X-120349287Y102226429D01*
X-120492144Y102297858D01*
X-120563573Y102440715D01*
X-120563573Y103012143D01*
X-120492144Y103155000D01*
X-120349287Y103226429D01*
X-120063573Y103226429D01*
X-119920715Y103155000D01*
X-119849287Y103012143D01*
X-119849287Y102869286D01*
X-120563573Y102726429D01*
X-118635001Y102297858D02*
X-118777858Y102226429D01*
X-119063573Y102226429D01*
X-119206430Y102297858D01*
X-119277858Y102440715D01*
X-119277858Y103012143D01*
X-119206430Y103155000D01*
X-119063573Y103226429D01*
X-118777858Y103226429D01*
X-118635001Y103155000D01*
X-118563573Y103012143D01*
X-118563573Y102869286D01*
X-119277858Y102726429D01*
X-117920715Y103226429D02*
X-117920715Y102226429D01*
X-117920715Y103083572D02*
X-117849287Y103155000D01*
X-117706430Y103226429D01*
X-117492144Y103226429D01*
X-117349287Y103155000D01*
X-117277858Y103012143D01*
X-117277858Y102226429D01*
D13*
X-129904286Y59242858D02*
X-129618572Y59147620D01*
X-129523334Y59052381D01*
X-129428096Y58861905D01*
X-129428096Y58576191D01*
X-129523334Y58385715D01*
X-129618572Y58290477D01*
X-129809048Y58195239D01*
X-130570953Y58195239D01*
X-130570953Y60195239D01*
X-129904286Y60195239D01*
X-129713810Y60100000D01*
X-129618572Y60004762D01*
X-129523334Y59814286D01*
X-129523334Y59623810D01*
X-129618572Y59433334D01*
X-129713810Y59338096D01*
X-129904286Y59242858D01*
X-130570953Y59242858D01*
X-128190001Y60195239D02*
X-127809048Y60195239D01*
X-127618572Y60100000D01*
X-127428096Y59909524D01*
X-127332858Y59528572D01*
X-127332858Y58861905D01*
X-127428096Y58480953D01*
X-127618572Y58290477D01*
X-127809048Y58195239D01*
X-128190001Y58195239D01*
X-128380477Y58290477D01*
X-128570953Y58480953D01*
X-128666191Y58861905D01*
X-128666191Y59528572D01*
X-128570953Y59909524D01*
X-128380477Y60100000D01*
X-128190001Y60195239D01*
X-126570953Y58766667D02*
X-125618572Y58766667D01*
X-126761429Y58195239D02*
X-126094763Y60195239D01*
X-125428096Y58195239D01*
X-123618572Y58195239D02*
X-124285239Y59147620D01*
X-124761429Y58195239D02*
X-124761429Y60195239D01*
X-123999524Y60195239D01*
X-123809048Y60100000D01*
X-123713810Y60004762D01*
X-123618572Y59814286D01*
X-123618572Y59528572D01*
X-123713810Y59338096D01*
X-123809048Y59242858D01*
X-123999524Y59147620D01*
X-124761429Y59147620D01*
X-122761429Y58195239D02*
X-122761429Y60195239D01*
X-122285239Y60195239D01*
X-121999524Y60100000D01*
X-121809048Y59909524D01*
X-121713810Y59719048D01*
X-121618572Y59338096D01*
X-121618572Y59052381D01*
X-121713810Y58671429D01*
X-121809048Y58480953D01*
X-121999524Y58290477D01*
X-122285239Y58195239D01*
X-122761429Y58195239D01*
X-118094763Y58385715D02*
X-118190001Y58290477D01*
X-118475715Y58195239D01*
X-118666191Y58195239D01*
X-118951905Y58290477D01*
X-119142382Y58480953D01*
X-119237620Y58671429D01*
X-119332858Y59052381D01*
X-119332858Y59338096D01*
X-119237620Y59719048D01*
X-119142382Y59909524D01*
X-118951905Y60100000D01*
X-118666191Y60195239D01*
X-118475715Y60195239D01*
X-118190001Y60100000D01*
X-118094763Y60004762D01*
X-117237620Y58195239D02*
X-117237620Y60195239D01*
X-117237620Y59242858D02*
X-116094763Y59242858D01*
X-116094763Y58195239D02*
X-116094763Y60195239D01*
X-115237620Y58766667D02*
X-114285239Y58766667D01*
X-115428096Y58195239D02*
X-114761429Y60195239D01*
X-114094763Y58195239D01*
X-112285239Y58195239D02*
X-112951905Y59147620D01*
X-113428096Y58195239D02*
X-113428096Y60195239D01*
X-112666191Y60195239D01*
X-112475715Y60100000D01*
X-112380477Y60004762D01*
X-112285239Y59814286D01*
X-112285239Y59528572D01*
X-112380477Y59338096D01*
X-112475715Y59242858D01*
X-112666191Y59147620D01*
X-113428096Y59147620D01*
X-111523334Y58766667D02*
X-110570953Y58766667D01*
X-111713810Y58195239D02*
X-111047143Y60195239D01*
X-110380477Y58195239D01*
X-108570953Y58385715D02*
X-108666191Y58290477D01*
X-108951905Y58195239D01*
X-109142382Y58195239D01*
X-109428096Y58290477D01*
X-109618572Y58480953D01*
X-109713810Y58671429D01*
X-109809048Y59052381D01*
X-109809048Y59338096D01*
X-109713810Y59719048D01*
X-109618572Y59909524D01*
X-109428096Y60100000D01*
X-109142382Y60195239D01*
X-108951905Y60195239D01*
X-108666191Y60100000D01*
X-108570953Y60004762D01*
X-107999524Y60195239D02*
X-106856667Y60195239D01*
X-107428096Y58195239D02*
X-107428096Y60195239D01*
X-106190001Y59242858D02*
X-105523334Y59242858D01*
X-105237620Y58195239D02*
X-106190001Y58195239D01*
X-106190001Y60195239D01*
X-105237620Y60195239D01*
X-103237620Y58195239D02*
X-103904286Y59147620D01*
X-104380477Y58195239D02*
X-104380477Y60195239D01*
X-103618572Y60195239D01*
X-103428096Y60100000D01*
X-103332858Y60004762D01*
X-103237620Y59814286D01*
X-103237620Y59528572D01*
X-103332858Y59338096D01*
X-103428096Y59242858D01*
X-103618572Y59147620D01*
X-104380477Y59147620D01*
X-102380477Y58195239D02*
X-102380477Y60195239D01*
X-101523334Y58290477D02*
X-101237620Y58195239D01*
X-100761429Y58195239D01*
X-100570953Y58290477D01*
X-100475715Y58385715D01*
X-100380477Y58576191D01*
X-100380477Y58766667D01*
X-100475715Y58957143D01*
X-100570953Y59052381D01*
X-100761429Y59147620D01*
X-101142382Y59242858D01*
X-101332858Y59338096D01*
X-101428096Y59433334D01*
X-101523334Y59623810D01*
X-101523334Y59814286D01*
X-101428096Y60004762D01*
X-101332858Y60100000D01*
X-101142382Y60195239D01*
X-100666191Y60195239D01*
X-100380477Y60100000D01*
X-99809048Y60195239D02*
X-98666191Y60195239D01*
X-99237620Y58195239D02*
X-99237620Y60195239D01*
X-97999524Y58195239D02*
X-97999524Y60195239D01*
X-95904286Y58385715D02*
X-95999524Y58290477D01*
X-96285239Y58195239D01*
X-96475715Y58195239D01*
X-96761429Y58290477D01*
X-96951905Y58480953D01*
X-97047144Y58671429D01*
X-97142382Y59052381D01*
X-97142382Y59338096D01*
X-97047144Y59719048D01*
X-96951905Y59909524D01*
X-96761429Y60100000D01*
X-96475715Y60195239D01*
X-96285239Y60195239D01*
X-95999524Y60100000D01*
X-95904286Y60004762D01*
X-95142382Y58290477D02*
X-94856667Y58195239D01*
X-94380477Y58195239D01*
X-94190001Y58290477D01*
X-94094763Y58385715D01*
X-93999524Y58576191D01*
X-93999524Y58766667D01*
X-94094763Y58957143D01*
X-94190001Y59052381D01*
X-94380477Y59147620D01*
X-94761429Y59242858D01*
X-94951905Y59338096D01*
X-95047144Y59433334D01*
X-95142382Y59623810D01*
X-95142382Y59814286D01*
X-95047144Y60004762D01*
X-94951905Y60100000D01*
X-94761429Y60195239D01*
X-94285239Y60195239D01*
X-93999524Y60100000D01*
D10*
X-30920715Y99661429D02*
X-30777858Y99661429D01*
X-30635001Y99590000D01*
X-30563572Y99518572D01*
X-30492144Y99375715D01*
X-30420715Y99090000D01*
X-30420715Y98732858D01*
X-30492144Y98447143D01*
X-30563572Y98304286D01*
X-30635001Y98232858D01*
X-30777858Y98161429D01*
X-30920715Y98161429D01*
X-31063572Y98232858D01*
X-31135001Y98304286D01*
X-31206430Y98447143D01*
X-31277858Y98732858D01*
X-31277858Y99090000D01*
X-31206430Y99375715D01*
X-31135001Y99518572D01*
X-31063572Y99590000D01*
X-30920715Y99661429D01*
X-89577858Y102226429D02*
X-89577858Y103726429D01*
X-89220715Y103726429D01*
X-89006429Y103655000D01*
X-88863572Y103512143D01*
X-88792143Y103369286D01*
X-88720715Y103083572D01*
X-88720715Y102869286D01*
X-88792143Y102583572D01*
X-88863572Y102440715D01*
X-89006429Y102297858D01*
X-89220715Y102226429D01*
X-89577858Y102226429D01*
X-88077858Y102226429D02*
X-88077858Y103226429D01*
X-88077858Y103726429D02*
X-88149286Y103655000D01*
X-88077858Y103583572D01*
X-88006429Y103655000D01*
X-88077858Y103726429D01*
X-88077858Y103583572D01*
X-87363572Y102226429D02*
X-87363572Y103226429D01*
X-87363572Y102940715D02*
X-87292143Y103083572D01*
X-87220715Y103155000D01*
X-87077858Y103226429D01*
X-86935000Y103226429D01*
X-85863572Y102297858D02*
X-86006429Y102226429D01*
X-86292143Y102226429D01*
X-86435000Y102297858D01*
X-86506429Y102440715D01*
X-86506429Y103012143D01*
X-86435000Y103155000D01*
X-86292143Y103226429D01*
X-86006429Y103226429D01*
X-85863572Y103155000D01*
X-85792143Y103012143D01*
X-85792143Y102869286D01*
X-86506429Y102726429D01*
X-84506429Y102297858D02*
X-84649286Y102226429D01*
X-84935000Y102226429D01*
X-85077858Y102297858D01*
X-85149286Y102369286D01*
X-85220715Y102512143D01*
X-85220715Y102940715D01*
X-85149286Y103083572D01*
X-85077858Y103155000D01*
X-84935000Y103226429D01*
X-84649286Y103226429D01*
X-84506429Y103155000D01*
X-84077858Y103226429D02*
X-83506429Y103226429D01*
X-83863572Y103726429D02*
X-83863572Y102440715D01*
X-83792143Y102297858D01*
X-83649286Y102226429D01*
X-83506429Y102226429D01*
X-81863572Y102226429D02*
X-81863572Y103726429D01*
X-81292143Y103726429D01*
X-81149286Y103655000D01*
X-81077858Y103583572D01*
X-81006429Y103440715D01*
X-81006429Y103226429D01*
X-81077858Y103083572D01*
X-81149286Y103012143D01*
X-81292143Y102940715D01*
X-81863572Y102940715D01*
X-80363572Y102226429D02*
X-80363572Y103226429D01*
X-80363572Y102940715D02*
X-80292143Y103083572D01*
X-80220715Y103155000D01*
X-80077858Y103226429D01*
X-79935000Y103226429D01*
X-79435000Y102226429D02*
X-79435000Y103226429D01*
X-79435000Y103726429D02*
X-79506429Y103655000D01*
X-79435000Y103583572D01*
X-79363572Y103655000D01*
X-79435000Y103726429D01*
X-79435000Y103583572D01*
X-78720715Y103226429D02*
X-78720715Y102226429D01*
X-78720715Y103083572D02*
X-78649286Y103155000D01*
X-78506429Y103226429D01*
X-78292143Y103226429D01*
X-78149286Y103155000D01*
X-78077858Y103012143D01*
X-78077858Y102226429D01*
X-77577858Y103226429D02*
X-77006429Y103226429D01*
X-77363572Y103726429D02*
X-77363572Y102440715D01*
X-77292143Y102297858D01*
X-77149286Y102226429D01*
X-77006429Y102226429D01*
X-76506429Y102226429D02*
X-76506429Y103226429D01*
X-76506429Y103726429D02*
X-76577858Y103655000D01*
X-76506429Y103583572D01*
X-76435000Y103655000D01*
X-76506429Y103726429D01*
X-76506429Y103583572D01*
X-75792143Y103226429D02*
X-75792143Y102226429D01*
X-75792143Y103083572D02*
X-75720715Y103155000D01*
X-75577858Y103226429D01*
X-75363572Y103226429D01*
X-75220715Y103155000D01*
X-75149286Y103012143D01*
X-75149286Y102226429D01*
X-73792143Y103226429D02*
X-73792143Y102012143D01*
X-73863572Y101869286D01*
X-73935000Y101797858D01*
X-74077858Y101726429D01*
X-74292143Y101726429D01*
X-74435000Y101797858D01*
X-73792143Y102297858D02*
X-73935000Y102226429D01*
X-74220715Y102226429D01*
X-74363572Y102297858D01*
X-74435000Y102369286D01*
X-74506429Y102512143D01*
X-74506429Y102940715D01*
X-74435000Y103083572D01*
X-74363572Y103155000D01*
X-74220715Y103226429D01*
X-73935000Y103226429D01*
X-73792143Y103155000D01*
X-114249287Y70492143D02*
X-114035001Y70420715D01*
X-113963572Y70349286D01*
X-113892144Y70206429D01*
X-113892144Y69992143D01*
X-113963572Y69849286D01*
X-114035001Y69777858D01*
X-114177858Y69706429D01*
X-114749287Y69706429D01*
X-114749287Y71206429D01*
X-114249287Y71206429D01*
X-114106429Y71135000D01*
X-114035001Y71063572D01*
X-113963572Y70920715D01*
X-113963572Y70777858D01*
X-114035001Y70635000D01*
X-114106429Y70563572D01*
X-114249287Y70492143D01*
X-114749287Y70492143D01*
X-113035001Y69706429D02*
X-113177858Y69777858D01*
X-113249287Y69849286D01*
X-113320715Y69992143D01*
X-113320715Y70420715D01*
X-113249287Y70563572D01*
X-113177858Y70635000D01*
X-113035001Y70706429D01*
X-112820715Y70706429D01*
X-112677858Y70635000D01*
X-112606429Y70563572D01*
X-112535001Y70420715D01*
X-112535001Y69992143D01*
X-112606429Y69849286D01*
X-112677858Y69777858D01*
X-112820715Y69706429D01*
X-113035001Y69706429D01*
X-112106429Y70706429D02*
X-111535001Y70706429D01*
X-111892144Y71206429D02*
X-111892144Y69920715D01*
X-111820715Y69777858D01*
X-111677858Y69706429D01*
X-111535001Y69706429D01*
X-111249287Y70706429D02*
X-110677858Y70706429D01*
X-111035001Y71206429D02*
X-111035001Y69920715D01*
X-110963572Y69777858D01*
X-110820715Y69706429D01*
X-110677858Y69706429D01*
X-109963572Y69706429D02*
X-110106429Y69777858D01*
X-110177858Y69849286D01*
X-110249287Y69992143D01*
X-110249287Y70420715D01*
X-110177858Y70563572D01*
X-110106429Y70635000D01*
X-109963572Y70706429D01*
X-109749287Y70706429D01*
X-109606429Y70635000D01*
X-109535001Y70563572D01*
X-109463572Y70420715D01*
X-109463572Y69992143D01*
X-109535001Y69849286D01*
X-109606429Y69777858D01*
X-109749287Y69706429D01*
X-109963572Y69706429D01*
X-108820715Y69706429D02*
X-108820715Y70706429D01*
X-108820715Y70563572D02*
X-108749287Y70635000D01*
X-108606429Y70706429D01*
X-108392144Y70706429D01*
X-108249287Y70635000D01*
X-108177858Y70492143D01*
X-108177858Y69706429D01*
X-108177858Y70492143D02*
X-108106429Y70635000D01*
X-107963572Y70706429D01*
X-107749287Y70706429D01*
X-107606429Y70635000D01*
X-107535001Y70492143D01*
X-107535001Y69706429D01*
X-105749287Y69777858D02*
X-105535001Y69706429D01*
X-105177858Y69706429D01*
X-105035001Y69777858D01*
X-104963572Y69849286D01*
X-104892144Y69992143D01*
X-104892144Y70135000D01*
X-104963572Y70277858D01*
X-105035001Y70349286D01*
X-105177858Y70420715D01*
X-105463572Y70492143D01*
X-105606429Y70563572D01*
X-105677858Y70635000D01*
X-105749287Y70777858D01*
X-105749287Y70920715D01*
X-105677858Y71063572D01*
X-105606429Y71135000D01*
X-105463572Y71206429D01*
X-105106429Y71206429D01*
X-104892144Y71135000D01*
X-104249287Y69706429D02*
X-104249287Y70706429D01*
X-104249287Y71206429D02*
X-104320715Y71135000D01*
X-104249287Y71063572D01*
X-104177858Y71135000D01*
X-104249287Y71206429D01*
X-104249287Y71063572D01*
X-103320715Y69706429D02*
X-103463572Y69777858D01*
X-103535001Y69920715D01*
X-103535001Y71206429D01*
X-102749287Y69706429D02*
X-102749287Y71206429D01*
X-102606429Y70277858D02*
X-102177858Y69706429D01*
X-102177858Y70706429D02*
X-102749287Y70135000D01*
X-100463572Y69777858D02*
X-100249287Y69706429D01*
X-99892144Y69706429D01*
X-99749287Y69777858D01*
X-99677858Y69849286D01*
X-99606429Y69992143D01*
X-99606429Y70135000D01*
X-99677858Y70277858D01*
X-99749287Y70349286D01*
X-99892144Y70420715D01*
X-100177858Y70492143D01*
X-100320715Y70563572D01*
X-100392144Y70635000D01*
X-100463572Y70777858D01*
X-100463572Y70920715D01*
X-100392144Y71063572D01*
X-100320715Y71135000D01*
X-100177858Y71206429D01*
X-99820715Y71206429D01*
X-99606429Y71135000D01*
X-98320715Y69777858D02*
X-98463572Y69706429D01*
X-98749287Y69706429D01*
X-98892144Y69777858D01*
X-98963572Y69849286D01*
X-99035001Y69992143D01*
X-99035001Y70420715D01*
X-98963572Y70563572D01*
X-98892144Y70635000D01*
X-98749287Y70706429D01*
X-98463572Y70706429D01*
X-98320715Y70635000D01*
X-97677858Y69706429D02*
X-97677858Y70706429D01*
X-97677858Y70420715D02*
X-97606429Y70563572D01*
X-97535001Y70635000D01*
X-97392144Y70706429D01*
X-97249287Y70706429D01*
X-96177858Y69777858D02*
X-96320715Y69706429D01*
X-96606429Y69706429D01*
X-96749287Y69777858D01*
X-96820715Y69920715D01*
X-96820715Y70492143D01*
X-96749287Y70635000D01*
X-96606429Y70706429D01*
X-96320715Y70706429D01*
X-96177858Y70635000D01*
X-96106429Y70492143D01*
X-96106429Y70349286D01*
X-96820715Y70206429D01*
X-94892144Y69777858D02*
X-95035001Y69706429D01*
X-95320715Y69706429D01*
X-95463572Y69777858D01*
X-95535001Y69920715D01*
X-95535001Y70492143D01*
X-95463572Y70635000D01*
X-95320715Y70706429D01*
X-95035001Y70706429D01*
X-94892144Y70635000D01*
X-94820715Y70492143D01*
X-94820715Y70349286D01*
X-95535001Y70206429D01*
X-94177858Y70706429D02*
X-94177858Y69706429D01*
X-94177858Y70563572D02*
X-94106429Y70635000D01*
X-93963572Y70706429D01*
X-93749287Y70706429D01*
X-93606429Y70635000D01*
X-93535001Y70492143D01*
X-93535001Y69706429D01*
D12*
X-37827143Y53101429D02*
X-38684286Y53101429D01*
X-38255715Y53101429D02*
X-38255715Y54601429D01*
X-38398572Y54387143D01*
X-38541429Y54244286D01*
X-38684286Y54172858D01*
X-37184286Y53244286D02*
X-37112858Y53172858D01*
X-37184286Y53101429D01*
X-37255715Y53172858D01*
X-37184286Y53244286D01*
X-37184286Y53101429D01*
X-35827143Y54601429D02*
X-36112858Y54601429D01*
X-36255715Y54530000D01*
X-36327143Y54458572D01*
X-36470000Y54244286D01*
X-36541429Y53958572D01*
X-36541429Y53387143D01*
X-36470000Y53244286D01*
X-36398572Y53172858D01*
X-36255715Y53101429D01*
X-35970000Y53101429D01*
X-35827143Y53172858D01*
X-35755715Y53244286D01*
X-35684286Y53387143D01*
X-35684286Y53744286D01*
X-35755715Y53887143D01*
X-35827143Y53958572D01*
X-35970000Y54030000D01*
X-36255715Y54030000D01*
X-36398572Y53958572D01*
X-36470000Y53887143D01*
X-36541429Y53744286D01*
X-34755715Y54601429D02*
X-34612858Y54601429D01*
X-34470000Y54530000D01*
X-34398572Y54458572D01*
X-34327143Y54315715D01*
X-34255715Y54030000D01*
X-34255715Y53672858D01*
X-34327143Y53387143D01*
X-34398572Y53244286D01*
X-34470000Y53172858D01*
X-34612858Y53101429D01*
X-34755715Y53101429D01*
X-34898572Y53172858D01*
X-34970000Y53244286D01*
X-35041429Y53387143D01*
X-35112858Y53672858D01*
X-35112858Y54030000D01*
X-35041429Y54315715D01*
X-34970000Y54458572D01*
X-34898572Y54530000D01*
X-34755715Y54601429D01*
X-33327143Y54601429D02*
X-33184286Y54601429D01*
X-33041429Y54530000D01*
X-32970000Y54458572D01*
X-32898572Y54315715D01*
X-32827143Y54030000D01*
X-32827143Y53672858D01*
X-32898572Y53387143D01*
X-32970000Y53244286D01*
X-33041429Y53172858D01*
X-33184286Y53101429D01*
X-33327143Y53101429D01*
X-33470000Y53172858D01*
X-33541429Y53244286D01*
X-33612858Y53387143D01*
X-33684286Y53672858D01*
X-33684286Y54030000D01*
X-33612858Y54315715D01*
X-33541429Y54458572D01*
X-33470000Y54530000D01*
X-33327143Y54601429D01*
X-31898572Y54601429D02*
X-31755715Y54601429D01*
X-31612858Y54530000D01*
X-31541429Y54458572D01*
X-31470000Y54315715D01*
X-31398572Y54030000D01*
X-31398572Y53672858D01*
X-31470000Y53387143D01*
X-31541429Y53244286D01*
X-31612858Y53172858D01*
X-31755715Y53101429D01*
X-31898572Y53101429D01*
X-32041429Y53172858D01*
X-32112858Y53244286D01*
X-32184286Y53387143D01*
X-32255715Y53672858D01*
X-32255715Y54030000D01*
X-32184286Y54315715D01*
X-32112858Y54458572D01*
X-32041429Y54530000D01*
X-31898572Y54601429D01*
X-29612858Y53101429D02*
X-29612858Y54101429D01*
X-29612858Y53958572D02*
X-29541429Y54030000D01*
X-29398572Y54101429D01*
X-29184286Y54101429D01*
X-29041429Y54030000D01*
X-28970000Y53887143D01*
X-28970000Y53101429D01*
X-28970000Y53887143D02*
X-28898572Y54030000D01*
X-28755715Y54101429D01*
X-28541429Y54101429D01*
X-28398572Y54030000D01*
X-28327143Y53887143D01*
X-28327143Y53101429D01*
X-27612858Y53101429D02*
X-27612858Y54101429D01*
X-27612858Y53958572D02*
X-27541429Y54030000D01*
X-27398572Y54101429D01*
X-27184286Y54101429D01*
X-27041429Y54030000D01*
X-26970000Y53887143D01*
X-26970000Y53101429D01*
X-26970000Y53887143D02*
X-26898572Y54030000D01*
X-26755715Y54101429D01*
X-26541429Y54101429D01*
X-26398572Y54030000D01*
X-26327143Y53887143D01*
X-26327143Y53101429D01*
X-62955715Y53887143D02*
X-62741429Y53815715D01*
X-62670000Y53744286D01*
X-62598572Y53601429D01*
X-62598572Y53387143D01*
X-62670000Y53244286D01*
X-62741429Y53172858D01*
X-62884286Y53101429D01*
X-63455715Y53101429D01*
X-63455715Y54601429D01*
X-62955715Y54601429D01*
X-62812857Y54530000D01*
X-62741429Y54458572D01*
X-62670000Y54315715D01*
X-62670000Y54172858D01*
X-62741429Y54030000D01*
X-62812857Y53958572D01*
X-62955715Y53887143D01*
X-63455715Y53887143D01*
X-61741429Y53101429D02*
X-61884286Y53172858D01*
X-61955715Y53244286D01*
X-62027143Y53387143D01*
X-62027143Y53815715D01*
X-61955715Y53958572D01*
X-61884286Y54030000D01*
X-61741429Y54101429D01*
X-61527143Y54101429D01*
X-61384286Y54030000D01*
X-61312857Y53958572D01*
X-61241429Y53815715D01*
X-61241429Y53387143D01*
X-61312857Y53244286D01*
X-61384286Y53172858D01*
X-61527143Y53101429D01*
X-61741429Y53101429D01*
X-59955715Y53101429D02*
X-59955715Y53887143D01*
X-60027143Y54030000D01*
X-60170000Y54101429D01*
X-60455715Y54101429D01*
X-60598572Y54030000D01*
X-59955715Y53172858D02*
X-60098572Y53101429D01*
X-60455715Y53101429D01*
X-60598572Y53172858D01*
X-60670000Y53315715D01*
X-60670000Y53458572D01*
X-60598572Y53601429D01*
X-60455715Y53672858D01*
X-60098572Y53672858D01*
X-59955715Y53744286D01*
X-59241429Y53101429D02*
X-59241429Y54101429D01*
X-59241429Y53815715D02*
X-59170000Y53958572D01*
X-59098572Y54030000D01*
X-58955715Y54101429D01*
X-58812857Y54101429D01*
X-57670000Y53101429D02*
X-57670000Y54601429D01*
X-57670000Y53172858D02*
X-57812857Y53101429D01*
X-58098572Y53101429D01*
X-58241429Y53172858D01*
X-58312857Y53244286D01*
X-58384286Y53387143D01*
X-58384286Y53815715D01*
X-58312857Y53958572D01*
X-58241429Y54030000D01*
X-58098572Y54101429D01*
X-57812857Y54101429D01*
X-57670000Y54030000D01*
X-56027143Y54601429D02*
X-55170000Y54601429D01*
X-55598572Y53101429D02*
X-55598572Y54601429D01*
X-54670000Y53101429D02*
X-54670000Y54601429D01*
X-54027143Y53101429D02*
X-54027143Y53887143D01*
X-54098572Y54030000D01*
X-54241429Y54101429D01*
X-54455715Y54101429D01*
X-54598572Y54030000D01*
X-54670000Y53958572D01*
X-53312857Y53101429D02*
X-53312857Y54101429D01*
X-53312857Y54601429D02*
X-53384286Y54530000D01*
X-53312857Y54458572D01*
X-53241429Y54530000D01*
X-53312857Y54601429D01*
X-53312857Y54458572D01*
X-51955715Y53172858D02*
X-52098572Y53101429D01*
X-52384286Y53101429D01*
X-52527143Y53172858D01*
X-52598572Y53244286D01*
X-52670000Y53387143D01*
X-52670000Y53815715D01*
X-52598572Y53958572D01*
X-52527143Y54030000D01*
X-52384286Y54101429D01*
X-52098572Y54101429D01*
X-51955715Y54030000D01*
X-51312857Y53101429D02*
X-51312857Y54601429D01*
X-51170000Y53672858D02*
X-50741429Y53101429D01*
X-50741429Y54101429D02*
X-51312857Y53530000D01*
X-50098572Y54101429D02*
X-50098572Y53101429D01*
X-50098572Y53958572D02*
X-50027143Y54030000D01*
X-49884286Y54101429D01*
X-49670000Y54101429D01*
X-49527143Y54030000D01*
X-49455715Y53887143D01*
X-49455715Y53101429D01*
X-48170000Y53172858D02*
X-48312857Y53101429D01*
X-48598572Y53101429D01*
X-48741429Y53172858D01*
X-48812857Y53315715D01*
X-48812857Y53887143D01*
X-48741429Y54030000D01*
X-48598572Y54101429D01*
X-48312857Y54101429D01*
X-48170000Y54030000D01*
X-48098572Y53887143D01*
X-48098572Y53744286D01*
X-48812857Y53601429D01*
X-47527143Y53172858D02*
X-47384286Y53101429D01*
X-47098572Y53101429D01*
X-46955715Y53172858D01*
X-46884286Y53315715D01*
X-46884286Y53387143D01*
X-46955715Y53530000D01*
X-47098572Y53601429D01*
X-47312857Y53601429D01*
X-47455715Y53672858D01*
X-47527143Y53815715D01*
X-47527143Y53887143D01*
X-47455715Y54030000D01*
X-47312857Y54101429D01*
X-47098572Y54101429D01*
X-46955715Y54030000D01*
X-46312857Y53172858D02*
X-46170000Y53101429D01*
X-45884286Y53101429D01*
X-45741429Y53172858D01*
X-45670000Y53315715D01*
X-45670000Y53387143D01*
X-45741429Y53530000D01*
X-45884286Y53601429D01*
X-46098572Y53601429D01*
X-46241429Y53672858D01*
X-46312857Y53815715D01*
X-46312857Y53887143D01*
X-46241429Y54030000D01*
X-46098572Y54101429D01*
X-45884286Y54101429D01*
X-45741429Y54030000D01*
X-45027143Y53244286D02*
X-44955715Y53172858D01*
X-45027143Y53101429D01*
X-45098572Y53172858D01*
X-45027143Y53244286D01*
X-45027143Y53101429D01*
X-45027143Y54030000D02*
X-44955715Y53958572D01*
X-45027143Y53887143D01*
X-45098572Y53958572D01*
X-45027143Y54030000D01*
X-45027143Y53887143D01*
D10*
X-129563573Y90817143D02*
X-130063573Y90817143D01*
X-130063573Y90031429D02*
X-130063573Y91531429D01*
X-129349287Y91531429D01*
X-128777858Y90174286D02*
X-128706430Y90102858D01*
X-128777858Y90031429D01*
X-128849287Y90102858D01*
X-128777858Y90174286D01*
X-128777858Y90031429D01*
X-127206430Y90174286D02*
X-127277858Y90102858D01*
X-127492144Y90031429D01*
X-127635001Y90031429D01*
X-127849287Y90102858D01*
X-127992144Y90245715D01*
X-128063573Y90388572D01*
X-128135001Y90674286D01*
X-128135001Y90888572D01*
X-128063573Y91174286D01*
X-127992144Y91317143D01*
X-127849287Y91460000D01*
X-127635001Y91531429D01*
X-127492144Y91531429D01*
X-127277858Y91460000D01*
X-127206430Y91388572D01*
X-125920715Y91031429D02*
X-125920715Y90031429D01*
X-126563573Y91031429D02*
X-126563573Y90245715D01*
X-126492144Y90102858D01*
X-126349287Y90031429D01*
X-126135001Y90031429D01*
X-125992144Y90102858D01*
X-125920715Y90174286D01*
X-114106429Y81972858D02*
X-114249287Y81901429D01*
X-114535001Y81901429D01*
X-114677858Y81972858D01*
X-114749287Y82044286D01*
X-114820715Y82187143D01*
X-114820715Y82615715D01*
X-114749287Y82758572D01*
X-114677858Y82830000D01*
X-114535001Y82901429D01*
X-114249287Y82901429D01*
X-114106429Y82830000D01*
X-113249287Y81901429D02*
X-113392144Y81972858D01*
X-113463572Y82044286D01*
X-113535001Y82187143D01*
X-113535001Y82615715D01*
X-113463572Y82758572D01*
X-113392144Y82830000D01*
X-113249287Y82901429D01*
X-113035001Y82901429D01*
X-112892144Y82830000D01*
X-112820715Y82758572D01*
X-112749287Y82615715D01*
X-112749287Y82187143D01*
X-112820715Y82044286D01*
X-112892144Y81972858D01*
X-113035001Y81901429D01*
X-113249287Y81901429D01*
X-112106429Y82901429D02*
X-112106429Y81401429D01*
X-112106429Y82830000D02*
X-111963572Y82901429D01*
X-111677858Y82901429D01*
X-111535001Y82830000D01*
X-111463572Y82758572D01*
X-111392144Y82615715D01*
X-111392144Y82187143D01*
X-111463572Y82044286D01*
X-111535001Y81972858D01*
X-111677858Y81901429D01*
X-111963572Y81901429D01*
X-112106429Y81972858D01*
X-110749287Y82901429D02*
X-110749287Y81401429D01*
X-110749287Y82830000D02*
X-110606429Y82901429D01*
X-110320715Y82901429D01*
X-110177858Y82830000D01*
X-110106429Y82758572D01*
X-110035001Y82615715D01*
X-110035001Y82187143D01*
X-110106429Y82044286D01*
X-110177858Y81972858D01*
X-110320715Y81901429D01*
X-110606429Y81901429D01*
X-110749287Y81972858D01*
X-108820715Y81972858D02*
X-108963572Y81901429D01*
X-109249287Y81901429D01*
X-109392144Y81972858D01*
X-109463572Y82115715D01*
X-109463572Y82687143D01*
X-109392144Y82830000D01*
X-109249287Y82901429D01*
X-108963572Y82901429D01*
X-108820715Y82830000D01*
X-108749287Y82687143D01*
X-108749287Y82544286D01*
X-109463572Y82401429D01*
X-108106429Y81901429D02*
X-108106429Y82901429D01*
X-108106429Y82615715D02*
X-108035001Y82758572D01*
X-107963572Y82830000D01*
X-107820715Y82901429D01*
X-107677858Y82901429D01*
X-43006429Y69706429D02*
X-43863572Y69706429D01*
X-43435001Y69706429D02*
X-43435001Y71206429D01*
X-43577858Y70992143D01*
X-43720715Y70849286D01*
X-43863572Y70777858D01*
X-89577858Y77836429D02*
X-89577858Y79336429D01*
X-89220715Y79336429D01*
X-89006429Y79265000D01*
X-88863572Y79122143D01*
X-88792143Y78979286D01*
X-88720715Y78693572D01*
X-88720715Y78479286D01*
X-88792143Y78193572D01*
X-88863572Y78050715D01*
X-89006429Y77907858D01*
X-89220715Y77836429D01*
X-89577858Y77836429D01*
X-88077858Y77836429D02*
X-88077858Y78836429D01*
X-88077858Y78550715D02*
X-88006429Y78693572D01*
X-87935000Y78765000D01*
X-87792143Y78836429D01*
X-87649286Y78836429D01*
X-87292143Y78836429D02*
X-86935000Y77836429D01*
X-86577858Y78836429D02*
X-86935000Y77836429D01*
X-87077858Y77479286D01*
X-87149286Y77407858D01*
X-87292143Y77336429D01*
X-84363572Y78622143D02*
X-84863572Y78622143D01*
X-84863572Y77836429D02*
X-84863572Y79336429D01*
X-84149286Y79336429D01*
X-83577858Y77836429D02*
X-83577858Y78836429D01*
X-83577858Y79336429D02*
X-83649286Y79265000D01*
X-83577858Y79193572D01*
X-83506429Y79265000D01*
X-83577858Y79336429D01*
X-83577858Y79193572D01*
X-82649286Y77836429D02*
X-82792143Y77907858D01*
X-82863572Y78050715D01*
X-82863572Y79336429D01*
X-82077858Y77836429D02*
X-82077858Y78836429D01*
X-82077858Y78693572D02*
X-82006429Y78765000D01*
X-81863572Y78836429D01*
X-81649286Y78836429D01*
X-81506429Y78765000D01*
X-81435000Y78622143D01*
X-81435000Y77836429D01*
X-81435000Y78622143D02*
X-81363572Y78765000D01*
X-81220715Y78836429D01*
X-81006429Y78836429D01*
X-80863572Y78765000D01*
X-80792143Y78622143D01*
X-80792143Y77836429D01*
X-51892144Y103726429D02*
X-51535001Y102226429D01*
X-51249287Y103297858D01*
X-50963572Y102226429D01*
X-50606429Y103726429D01*
X-50035001Y102226429D02*
X-50035001Y103726429D01*
X-49392144Y102226429D02*
X-49392144Y103012143D01*
X-49463572Y103155000D01*
X-49606429Y103226429D01*
X-49820715Y103226429D01*
X-49963572Y103155000D01*
X-50035001Y103083572D01*
X-48677858Y102226429D02*
X-48677858Y103226429D01*
X-48677858Y103726429D02*
X-48749287Y103655000D01*
X-48677858Y103583572D01*
X-48606429Y103655000D01*
X-48677858Y103726429D01*
X-48677858Y103583572D01*
X-48177858Y103226429D02*
X-47606429Y103226429D01*
X-47963572Y103726429D02*
X-47963572Y102440715D01*
X-47892144Y102297858D01*
X-47749287Y102226429D01*
X-47606429Y102226429D01*
X-46535001Y102297858D02*
X-46677858Y102226429D01*
X-46963572Y102226429D01*
X-47106429Y102297858D01*
X-47177858Y102440715D01*
X-47177858Y103012143D01*
X-47106429Y103155000D01*
X-46963572Y103226429D01*
X-46677858Y103226429D01*
X-46535001Y103155000D01*
X-46463572Y103012143D01*
X-46463572Y102869286D01*
X-47177858Y102726429D01*
D11*
X-89447858Y106591429D02*
X-89447858Y108091429D01*
X-88947858Y107020000D01*
X-88447858Y108091429D01*
X-88447858Y106591429D01*
X-87090715Y106591429D02*
X-87090715Y107377143D01*
X-87162143Y107520000D01*
X-87305000Y107591429D01*
X-87590715Y107591429D01*
X-87733572Y107520000D01*
X-87090715Y106662858D02*
X-87233572Y106591429D01*
X-87590715Y106591429D01*
X-87733572Y106662858D01*
X-87805000Y106805715D01*
X-87805000Y106948572D01*
X-87733572Y107091429D01*
X-87590715Y107162858D01*
X-87233572Y107162858D01*
X-87090715Y107234286D01*
X-86590715Y107591429D02*
X-86019286Y107591429D01*
X-86376429Y108091429D02*
X-86376429Y106805715D01*
X-86305000Y106662858D01*
X-86162143Y106591429D01*
X-86019286Y106591429D01*
X-84947858Y106662858D02*
X-85090715Y106591429D01*
X-85376429Y106591429D01*
X-85519286Y106662858D01*
X-85590715Y106805715D01*
X-85590715Y107377143D01*
X-85519286Y107520000D01*
X-85376429Y107591429D01*
X-85090715Y107591429D01*
X-84947858Y107520000D01*
X-84876429Y107377143D01*
X-84876429Y107234286D01*
X-85590715Y107091429D01*
X-84233572Y106591429D02*
X-84233572Y107591429D01*
X-84233572Y107305715D02*
X-84162143Y107448572D01*
X-84090715Y107520000D01*
X-83947858Y107591429D01*
X-83805000Y107591429D01*
X-83305000Y106591429D02*
X-83305000Y107591429D01*
X-83305000Y108091429D02*
X-83376429Y108020000D01*
X-83305000Y107948572D01*
X-83233572Y108020000D01*
X-83305000Y108091429D01*
X-83305000Y107948572D01*
X-81947858Y106591429D02*
X-81947858Y107377143D01*
X-82019286Y107520000D01*
X-82162143Y107591429D01*
X-82447858Y107591429D01*
X-82590715Y107520000D01*
X-81947858Y106662858D02*
X-82090715Y106591429D01*
X-82447858Y106591429D01*
X-82590715Y106662858D01*
X-82662143Y106805715D01*
X-82662143Y106948572D01*
X-82590715Y107091429D01*
X-82447858Y107162858D01*
X-82090715Y107162858D01*
X-81947858Y107234286D01*
X-81019286Y106591429D02*
X-81162143Y106662858D01*
X-81233572Y106805715D01*
X-81233572Y108091429D01*
X-129219287Y106591429D02*
X-129933573Y106591429D01*
X-129933573Y108091429D01*
X-128076430Y106591429D02*
X-128076430Y107377143D01*
X-128147858Y107520000D01*
X-128290715Y107591429D01*
X-128576430Y107591429D01*
X-128719287Y107520000D01*
X-128076430Y106662858D02*
X-128219287Y106591429D01*
X-128576430Y106591429D01*
X-128719287Y106662858D01*
X-128790715Y106805715D01*
X-128790715Y106948572D01*
X-128719287Y107091429D01*
X-128576430Y107162858D01*
X-128219287Y107162858D01*
X-128076430Y107234286D01*
X-127505001Y107591429D02*
X-127147858Y106591429D01*
X-126790715Y107591429D02*
X-127147858Y106591429D01*
X-127290715Y106234286D01*
X-127362144Y106162858D01*
X-127505001Y106091429D01*
X-125647858Y106662858D02*
X-125790715Y106591429D01*
X-126076430Y106591429D01*
X-126219287Y106662858D01*
X-126290715Y106805715D01*
X-126290715Y107377143D01*
X-126219287Y107520000D01*
X-126076430Y107591429D01*
X-125790715Y107591429D01*
X-125647858Y107520000D01*
X-125576430Y107377143D01*
X-125576430Y107234286D01*
X-126290715Y107091429D01*
X-124933573Y106591429D02*
X-124933573Y107591429D01*
X-124933573Y107305715D02*
X-124862144Y107448572D01*
X-124790715Y107520000D01*
X-124647858Y107591429D01*
X-124505001Y107591429D01*
X-122862144Y106591429D02*
X-122862144Y108091429D01*
X-122005001Y106591429D01*
X-122005001Y108091429D01*
X-120647858Y106591429D02*
X-120647858Y107377143D01*
X-120719287Y107520000D01*
X-120862144Y107591429D01*
X-121147858Y107591429D01*
X-121290715Y107520000D01*
X-120647858Y106662858D02*
X-120790715Y106591429D01*
X-121147858Y106591429D01*
X-121290715Y106662858D01*
X-121362144Y106805715D01*
X-121362144Y106948572D01*
X-121290715Y107091429D01*
X-121147858Y107162858D01*
X-120790715Y107162858D01*
X-120647858Y107234286D01*
X-119933573Y106591429D02*
X-119933573Y107591429D01*
X-119933573Y107448572D02*
X-119862144Y107520000D01*
X-119719287Y107591429D01*
X-119505001Y107591429D01*
X-119362144Y107520000D01*
X-119290715Y107377143D01*
X-119290715Y106591429D01*
X-119290715Y107377143D02*
X-119219287Y107520000D01*
X-119076430Y107591429D01*
X-118862144Y107591429D01*
X-118719287Y107520000D01*
X-118647858Y107377143D01*
X-118647858Y106591429D01*
X-117362144Y106662858D02*
X-117505001Y106591429D01*
X-117790715Y106591429D01*
X-117933573Y106662858D01*
X-118005001Y106805715D01*
X-118005001Y107377143D01*
X-117933573Y107520000D01*
X-117790715Y107591429D01*
X-117505001Y107591429D01*
X-117362144Y107520000D01*
X-117290715Y107377143D01*
X-117290715Y107234286D01*
X-118005001Y107091429D01*
D10*
X-50963572Y79265000D02*
X-51106429Y79336429D01*
X-51320715Y79336429D01*
X-51535001Y79265000D01*
X-51677858Y79122143D01*
X-51749287Y78979286D01*
X-51820715Y78693572D01*
X-51820715Y78479286D01*
X-51749287Y78193572D01*
X-51677858Y78050715D01*
X-51535001Y77907858D01*
X-51320715Y77836429D01*
X-51177858Y77836429D01*
X-50963572Y77907858D01*
X-50892144Y77979286D01*
X-50892144Y78479286D01*
X-51177858Y78479286D01*
X-50249287Y77836429D02*
X-50249287Y78836429D01*
X-50249287Y78550715D02*
X-50177858Y78693572D01*
X-50106429Y78765000D01*
X-49963572Y78836429D01*
X-49820715Y78836429D01*
X-48749287Y77907858D02*
X-48892144Y77836429D01*
X-49177858Y77836429D01*
X-49320715Y77907858D01*
X-49392144Y78050715D01*
X-49392144Y78622143D01*
X-49320715Y78765000D01*
X-49177858Y78836429D01*
X-48892144Y78836429D01*
X-48749287Y78765000D01*
X-48677858Y78622143D01*
X-48677858Y78479286D01*
X-49392144Y78336429D01*
X-47463572Y77907858D02*
X-47606429Y77836429D01*
X-47892144Y77836429D01*
X-48035001Y77907858D01*
X-48106429Y78050715D01*
X-48106429Y78622143D01*
X-48035001Y78765000D01*
X-47892144Y78836429D01*
X-47606429Y78836429D01*
X-47463572Y78765000D01*
X-47392144Y78622143D01*
X-47392144Y78479286D01*
X-48106429Y78336429D01*
X-46749287Y78836429D02*
X-46749287Y77836429D01*
X-46749287Y78693572D02*
X-46677858Y78765000D01*
X-46535001Y78836429D01*
X-46320715Y78836429D01*
X-46177858Y78765000D01*
X-46106429Y78622143D01*
X-46106429Y77836429D01*
X-43935001Y79336429D02*
X-43006429Y79336429D01*
X-43506429Y78765000D01*
X-43292144Y78765000D01*
X-43149286Y78693572D01*
X-43077858Y78622143D01*
X-43006429Y78479286D01*
X-43006429Y78122143D01*
X-43077858Y77979286D01*
X-43149286Y77907858D01*
X-43292144Y77836429D01*
X-43720715Y77836429D01*
X-43863572Y77907858D01*
X-43935001Y77979286D01*
X-42363572Y77979286D02*
X-42292144Y77907858D01*
X-42363572Y77836429D01*
X-42435001Y77907858D01*
X-42363572Y77979286D01*
X-42363572Y77836429D01*
X-41792144Y79336429D02*
X-40863572Y79336429D01*
X-41363572Y78765000D01*
X-41149286Y78765000D01*
X-41006429Y78693572D01*
X-40935001Y78622143D01*
X-40863572Y78479286D01*
X-40863572Y78122143D01*
X-40935001Y77979286D01*
X-41006429Y77907858D01*
X-41149286Y77836429D01*
X-41577858Y77836429D01*
X-41720715Y77907858D01*
X-41792144Y77979286D01*
X-30920715Y91531429D02*
X-30777858Y91531429D01*
X-30635001Y91460000D01*
X-30563572Y91388572D01*
X-30492144Y91245715D01*
X-30420715Y90960000D01*
X-30420715Y90602858D01*
X-30492144Y90317143D01*
X-30563572Y90174286D01*
X-30635001Y90102858D01*
X-30777858Y90031429D01*
X-30920715Y90031429D01*
X-31063572Y90102858D01*
X-31135001Y90174286D01*
X-31206430Y90317143D01*
X-31277858Y90602858D01*
X-31277858Y90960000D01*
X-31206430Y91245715D01*
X-31135001Y91388572D01*
X-31063572Y91460000D01*
X-30920715Y91531429D01*
D12*
X-97512858Y36241429D02*
X-97512858Y37741429D01*
X-96655715Y36241429D01*
X-96655715Y37741429D01*
X-95727143Y36241429D02*
X-95870000Y36312858D01*
X-95941429Y36384286D01*
X-96012858Y36527143D01*
X-96012858Y36955715D01*
X-95941429Y37098572D01*
X-95870000Y37170000D01*
X-95727143Y37241429D01*
X-95512858Y37241429D01*
X-95370000Y37170000D01*
X-95298572Y37098572D01*
X-95227143Y36955715D01*
X-95227143Y36527143D01*
X-95298572Y36384286D01*
X-95370000Y36312858D01*
X-95512858Y36241429D01*
X-95727143Y36241429D01*
D10*
X-71192143Y79336429D02*
X-71049286Y79336429D01*
X-70906429Y79265000D01*
X-70835000Y79193572D01*
X-70763572Y79050715D01*
X-70692143Y78765000D01*
X-70692143Y78407858D01*
X-70763572Y78122143D01*
X-70835000Y77979286D01*
X-70906429Y77907858D01*
X-71049286Y77836429D01*
X-71192143Y77836429D01*
X-71335000Y77907858D01*
X-71406429Y77979286D01*
X-71477858Y78122143D01*
X-71549286Y78407858D01*
X-71549286Y78765000D01*
X-71477858Y79050715D01*
X-71406429Y79193572D01*
X-71335000Y79265000D01*
X-71192143Y79336429D01*
X-70049286Y77979286D02*
X-69977858Y77907858D01*
X-70049286Y77836429D01*
X-70120715Y77907858D01*
X-70049286Y77979286D01*
X-70049286Y77836429D01*
X-69049286Y79336429D02*
X-68906429Y79336429D01*
X-68763572Y79265000D01*
X-68692143Y79193572D01*
X-68620715Y79050715D01*
X-68549286Y78765000D01*
X-68549286Y78407858D01*
X-68620715Y78122143D01*
X-68692143Y77979286D01*
X-68763572Y77907858D01*
X-68906429Y77836429D01*
X-69049286Y77836429D01*
X-69192143Y77907858D01*
X-69263572Y77979286D01*
X-69335000Y78122143D01*
X-69406429Y78407858D01*
X-69406429Y78765000D01*
X-69335000Y79050715D01*
X-69263572Y79193572D01*
X-69192143Y79265000D01*
X-69049286Y79336429D01*
X-67120715Y77836429D02*
X-67977858Y77836429D01*
X-67549286Y77836429D02*
X-67549286Y79336429D01*
X-67692143Y79122143D01*
X-67835000Y78979286D01*
X-67977858Y78907858D01*
X-65335000Y77836429D02*
X-65335000Y78836429D01*
X-65335000Y78693572D02*
X-65263572Y78765000D01*
X-65120715Y78836429D01*
X-64906429Y78836429D01*
X-64763572Y78765000D01*
X-64692143Y78622143D01*
X-64692143Y77836429D01*
X-64692143Y78622143D02*
X-64620715Y78765000D01*
X-64477858Y78836429D01*
X-64263572Y78836429D01*
X-64120715Y78765000D01*
X-64049286Y78622143D01*
X-64049286Y77836429D01*
X-63335000Y77836429D02*
X-63335000Y78836429D01*
X-63335000Y78693572D02*
X-63263572Y78765000D01*
X-63120715Y78836429D01*
X-62906429Y78836429D01*
X-62763572Y78765000D01*
X-62692143Y78622143D01*
X-62692143Y77836429D01*
X-62692143Y78622143D02*
X-62620715Y78765000D01*
X-62477858Y78836429D01*
X-62263572Y78836429D01*
X-62120715Y78765000D01*
X-62049286Y78622143D01*
X-62049286Y77836429D01*
X-30920715Y87466429D02*
X-30777858Y87466429D01*
X-30635001Y87395000D01*
X-30563572Y87323572D01*
X-30492144Y87180715D01*
X-30420715Y86895000D01*
X-30420715Y86537858D01*
X-30492144Y86252143D01*
X-30563572Y86109286D01*
X-30635001Y86037858D01*
X-30777858Y85966429D01*
X-30920715Y85966429D01*
X-31063572Y86037858D01*
X-31135001Y86109286D01*
X-31206430Y86252143D01*
X-31277858Y86537858D01*
X-31277858Y86895000D01*
X-31206430Y87180715D01*
X-31135001Y87323572D01*
X-31063572Y87395000D01*
X-30920715Y87466429D01*
X-29777858Y86109286D02*
X-29706430Y86037858D01*
X-29777858Y85966429D01*
X-29849287Y86037858D01*
X-29777858Y86109286D01*
X-29777858Y85966429D01*
X-28777858Y87466429D02*
X-28635001Y87466429D01*
X-28492144Y87395000D01*
X-28420715Y87323572D01*
X-28349287Y87180715D01*
X-28277858Y86895000D01*
X-28277858Y86537858D01*
X-28349287Y86252143D01*
X-28420715Y86109286D01*
X-28492144Y86037858D01*
X-28635001Y85966429D01*
X-28777858Y85966429D01*
X-28920715Y86037858D01*
X-28992144Y86109286D01*
X-29063572Y86252143D01*
X-29135001Y86537858D01*
X-29135001Y86895000D01*
X-29063572Y87180715D01*
X-28992144Y87323572D01*
X-28920715Y87395000D01*
X-28777858Y87466429D01*
X-27706430Y87323572D02*
X-27635001Y87395000D01*
X-27492144Y87466429D01*
X-27135001Y87466429D01*
X-26992144Y87395000D01*
X-26920715Y87323572D01*
X-26849287Y87180715D01*
X-26849287Y87037858D01*
X-26920715Y86823572D01*
X-27777858Y85966429D01*
X-26849287Y85966429D01*
D11*
X-50762144Y106734286D02*
X-50833572Y106662858D01*
X-51047858Y106591429D01*
X-51190715Y106591429D01*
X-51405001Y106662858D01*
X-51547858Y106805715D01*
X-51619287Y106948572D01*
X-51690715Y107234286D01*
X-51690715Y107448572D01*
X-51619287Y107734286D01*
X-51547858Y107877143D01*
X-51405001Y108020000D01*
X-51190715Y108091429D01*
X-51047858Y108091429D01*
X-50833572Y108020000D01*
X-50762144Y107948572D01*
X-49905001Y106591429D02*
X-50047858Y106662858D01*
X-50119287Y106734286D01*
X-50190715Y106877143D01*
X-50190715Y107305715D01*
X-50119287Y107448572D01*
X-50047858Y107520000D01*
X-49905001Y107591429D01*
X-49690715Y107591429D01*
X-49547858Y107520000D01*
X-49476429Y107448572D01*
X-49405001Y107305715D01*
X-49405001Y106877143D01*
X-49476429Y106734286D01*
X-49547858Y106662858D01*
X-49690715Y106591429D01*
X-49905001Y106591429D01*
X-48547858Y106591429D02*
X-48690715Y106662858D01*
X-48762144Y106805715D01*
X-48762144Y108091429D01*
X-47762144Y106591429D02*
X-47905001Y106662858D01*
X-47976429Y106734286D01*
X-48047858Y106877143D01*
X-48047858Y107305715D01*
X-47976429Y107448572D01*
X-47905001Y107520000D01*
X-47762144Y107591429D01*
X-47547858Y107591429D01*
X-47405001Y107520000D01*
X-47333572Y107448572D01*
X-47262144Y107305715D01*
X-47262144Y106877143D01*
X-47333572Y106734286D01*
X-47405001Y106662858D01*
X-47547858Y106591429D01*
X-47762144Y106591429D01*
X-46619287Y106591429D02*
X-46619287Y107591429D01*
X-46619287Y107305715D02*
X-46547858Y107448572D01*
X-46476429Y107520000D01*
X-46333572Y107591429D01*
X-46190715Y107591429D01*
D10*
X-43006429Y98161429D02*
X-43863572Y98161429D01*
X-43435001Y98161429D02*
X-43435001Y99661429D01*
X-43577858Y99447143D01*
X-43720715Y99304286D01*
X-43863572Y99232858D01*
X-114963572Y103726429D02*
X-114106429Y103726429D01*
X-114535001Y102226429D02*
X-114535001Y103726429D01*
X-113392144Y102226429D02*
X-113535001Y102297858D01*
X-113606429Y102369286D01*
X-113677858Y102512143D01*
X-113677858Y102940715D01*
X-113606429Y103083572D01*
X-113535001Y103155000D01*
X-113392144Y103226429D01*
X-113177858Y103226429D01*
X-113035001Y103155000D01*
X-112963572Y103083572D01*
X-112892144Y102940715D01*
X-112892144Y102512143D01*
X-112963572Y102369286D01*
X-113035001Y102297858D01*
X-113177858Y102226429D01*
X-113392144Y102226429D01*
X-112249287Y103226429D02*
X-112249287Y101726429D01*
X-112249287Y103155000D02*
X-112106429Y103226429D01*
X-111820715Y103226429D01*
X-111677858Y103155000D01*
X-111606429Y103083572D01*
X-111535001Y102940715D01*
X-111535001Y102512143D01*
X-111606429Y102369286D01*
X-111677858Y102297858D01*
X-111820715Y102226429D01*
X-112106429Y102226429D01*
X-112249287Y102297858D01*
X-109820715Y102297858D02*
X-109606429Y102226429D01*
X-109249287Y102226429D01*
X-109106429Y102297858D01*
X-109035001Y102369286D01*
X-108963572Y102512143D01*
X-108963572Y102655000D01*
X-109035001Y102797858D01*
X-109106429Y102869286D01*
X-109249287Y102940715D01*
X-109535001Y103012143D01*
X-109677858Y103083572D01*
X-109749287Y103155000D01*
X-109820715Y103297858D01*
X-109820715Y103440715D01*
X-109749287Y103583572D01*
X-109677858Y103655000D01*
X-109535001Y103726429D01*
X-109177858Y103726429D01*
X-108963572Y103655000D01*
X-108320715Y102226429D02*
X-108320715Y103226429D01*
X-108320715Y103726429D02*
X-108392144Y103655000D01*
X-108320715Y103583572D01*
X-108249287Y103655000D01*
X-108320715Y103726429D01*
X-108320715Y103583572D01*
X-107392144Y102226429D02*
X-107535001Y102297858D01*
X-107606429Y102440715D01*
X-107606429Y103726429D01*
X-106820715Y102226429D02*
X-106820715Y103726429D01*
X-106677858Y102797858D02*
X-106249287Y102226429D01*
X-106249287Y103226429D02*
X-106820715Y102655000D01*
X-104535001Y102297858D02*
X-104320715Y102226429D01*
X-103963572Y102226429D01*
X-103820715Y102297858D01*
X-103749287Y102369286D01*
X-103677858Y102512143D01*
X-103677858Y102655000D01*
X-103749287Y102797858D01*
X-103820715Y102869286D01*
X-103963572Y102940715D01*
X-104249287Y103012143D01*
X-104392144Y103083572D01*
X-104463572Y103155000D01*
X-104535001Y103297858D01*
X-104535001Y103440715D01*
X-104463572Y103583572D01*
X-104392144Y103655000D01*
X-104249287Y103726429D01*
X-103892144Y103726429D01*
X-103677858Y103655000D01*
X-102392144Y102297858D02*
X-102535001Y102226429D01*
X-102820715Y102226429D01*
X-102963572Y102297858D01*
X-103035001Y102369286D01*
X-103106429Y102512143D01*
X-103106429Y102940715D01*
X-103035001Y103083572D01*
X-102963572Y103155000D01*
X-102820715Y103226429D01*
X-102535001Y103226429D01*
X-102392144Y103155000D01*
X-101749287Y102226429D02*
X-101749287Y103226429D01*
X-101749287Y102940715D02*
X-101677858Y103083572D01*
X-101606429Y103155000D01*
X-101463572Y103226429D01*
X-101320715Y103226429D01*
X-100249287Y102297858D02*
X-100392144Y102226429D01*
X-100677858Y102226429D01*
X-100820715Y102297858D01*
X-100892144Y102440715D01*
X-100892144Y103012143D01*
X-100820715Y103155000D01*
X-100677858Y103226429D01*
X-100392144Y103226429D01*
X-100249287Y103155000D01*
X-100177858Y103012143D01*
X-100177858Y102869286D01*
X-100892144Y102726429D01*
X-98963572Y102297858D02*
X-99106429Y102226429D01*
X-99392144Y102226429D01*
X-99535001Y102297858D01*
X-99606429Y102440715D01*
X-99606429Y103012143D01*
X-99535001Y103155000D01*
X-99392144Y103226429D01*
X-99106429Y103226429D01*
X-98963572Y103155000D01*
X-98892144Y103012143D01*
X-98892144Y102869286D01*
X-99606429Y102726429D01*
X-98249287Y103226429D02*
X-98249287Y102226429D01*
X-98249287Y103083572D02*
X-98177858Y103155000D01*
X-98035001Y103226429D01*
X-97820715Y103226429D01*
X-97677858Y103155000D01*
X-97606429Y103012143D01*
X-97606429Y102226429D01*
X-114106429Y86037858D02*
X-114249287Y85966429D01*
X-114535001Y85966429D01*
X-114677858Y86037858D01*
X-114749287Y86109286D01*
X-114820715Y86252143D01*
X-114820715Y86680715D01*
X-114749287Y86823572D01*
X-114677858Y86895000D01*
X-114535001Y86966429D01*
X-114249287Y86966429D01*
X-114106429Y86895000D01*
X-113249287Y85966429D02*
X-113392144Y86037858D01*
X-113463572Y86109286D01*
X-113535001Y86252143D01*
X-113535001Y86680715D01*
X-113463572Y86823572D01*
X-113392144Y86895000D01*
X-113249287Y86966429D01*
X-113035001Y86966429D01*
X-112892144Y86895000D01*
X-112820715Y86823572D01*
X-112749287Y86680715D01*
X-112749287Y86252143D01*
X-112820715Y86109286D01*
X-112892144Y86037858D01*
X-113035001Y85966429D01*
X-113249287Y85966429D01*
X-112106429Y85966429D02*
X-112106429Y86966429D01*
X-112106429Y86680715D02*
X-112035001Y86823572D01*
X-111963572Y86895000D01*
X-111820715Y86966429D01*
X-111677858Y86966429D01*
X-110606429Y86037858D02*
X-110749287Y85966429D01*
X-111035001Y85966429D01*
X-111177858Y86037858D01*
X-111249287Y86180715D01*
X-111249287Y86752143D01*
X-111177858Y86895000D01*
X-111035001Y86966429D01*
X-110749287Y86966429D01*
X-110606429Y86895000D01*
X-110535001Y86752143D01*
X-110535001Y86609286D01*
X-111249287Y86466429D01*
X-30920715Y83401429D02*
X-30777858Y83401429D01*
X-30635001Y83330000D01*
X-30563572Y83258572D01*
X-30492144Y83115715D01*
X-30420715Y82830000D01*
X-30420715Y82472858D01*
X-30492144Y82187143D01*
X-30563572Y82044286D01*
X-30635001Y81972858D01*
X-30777858Y81901429D01*
X-30920715Y81901429D01*
X-31063572Y81972858D01*
X-31135001Y82044286D01*
X-31206430Y82187143D01*
X-31277858Y82472858D01*
X-31277858Y82830000D01*
X-31206430Y83115715D01*
X-31135001Y83258572D01*
X-31063572Y83330000D01*
X-30920715Y83401429D01*
X-129563573Y94882143D02*
X-130063573Y94882143D01*
X-130063573Y94096429D02*
X-130063573Y95596429D01*
X-129349287Y95596429D01*
X-128777858Y94239286D02*
X-128706430Y94167858D01*
X-128777858Y94096429D01*
X-128849287Y94167858D01*
X-128777858Y94239286D01*
X-128777858Y94096429D01*
X-128063573Y94096429D02*
X-128063573Y95596429D01*
X-127563573Y94525000D01*
X-127063573Y95596429D01*
X-127063573Y94096429D01*
X-125706430Y94096429D02*
X-125706430Y94882143D01*
X-125777858Y95025000D01*
X-125920715Y95096429D01*
X-126206430Y95096429D01*
X-126349287Y95025000D01*
X-125706430Y94167858D02*
X-125849287Y94096429D01*
X-126206430Y94096429D01*
X-126349287Y94167858D01*
X-126420715Y94310715D01*
X-126420715Y94453572D01*
X-126349287Y94596429D01*
X-126206430Y94667858D01*
X-125849287Y94667858D01*
X-125706430Y94739286D01*
X-125063573Y94167858D02*
X-124920715Y94096429D01*
X-124635001Y94096429D01*
X-124492144Y94167858D01*
X-124420715Y94310715D01*
X-124420715Y94382143D01*
X-124492144Y94525000D01*
X-124635001Y94596429D01*
X-124849287Y94596429D01*
X-124992144Y94667858D01*
X-125063573Y94810715D01*
X-125063573Y94882143D01*
X-124992144Y95025000D01*
X-124849287Y95096429D01*
X-124635001Y95096429D01*
X-124492144Y95025000D01*
X-123777858Y94096429D02*
X-123777858Y95596429D01*
X-123635001Y94667858D02*
X-123206430Y94096429D01*
X-123206430Y95096429D02*
X-123777858Y94525000D01*
D11*
X-30362144Y106591429D02*
X-31076430Y106591429D01*
X-31076430Y108091429D01*
X-29647858Y106591429D02*
X-29790715Y106662858D01*
X-29862144Y106734286D01*
X-29933572Y106877143D01*
X-29933572Y107305715D01*
X-29862144Y107448572D01*
X-29790715Y107520000D01*
X-29647858Y107591429D01*
X-29433572Y107591429D01*
X-29290715Y107520000D01*
X-29219287Y107448572D01*
X-29147858Y107305715D01*
X-29147858Y106877143D01*
X-29219287Y106734286D01*
X-29290715Y106662858D01*
X-29433572Y106591429D01*
X-29647858Y106591429D01*
X-28576430Y106662858D02*
X-28433572Y106591429D01*
X-28147858Y106591429D01*
X-28005001Y106662858D01*
X-27933572Y106805715D01*
X-27933572Y106877143D01*
X-28005001Y107020000D01*
X-28147858Y107091429D01*
X-28362144Y107091429D01*
X-28505001Y107162858D01*
X-28576430Y107305715D01*
X-28576430Y107377143D01*
X-28505001Y107520000D01*
X-28362144Y107591429D01*
X-28147858Y107591429D01*
X-28005001Y107520000D01*
X-27362144Y106662858D02*
X-27219287Y106591429D01*
X-26933572Y106591429D01*
X-26790715Y106662858D01*
X-26719287Y106805715D01*
X-26719287Y106877143D01*
X-26790715Y107020000D01*
X-26933572Y107091429D01*
X-27147858Y107091429D01*
X-27290715Y107162858D01*
X-27362144Y107305715D01*
X-27362144Y107377143D01*
X-27290715Y107520000D01*
X-27147858Y107591429D01*
X-26933572Y107591429D01*
X-26790715Y107520000D01*
X-25147858Y108091429D02*
X-24290715Y108091429D01*
X-24719287Y106591429D02*
X-24719287Y108091429D01*
X-23147858Y106591429D02*
X-23147858Y107377143D01*
X-23219287Y107520000D01*
X-23362144Y107591429D01*
X-23647858Y107591429D01*
X-23790715Y107520000D01*
X-23147858Y106662858D02*
X-23290715Y106591429D01*
X-23647858Y106591429D01*
X-23790715Y106662858D01*
X-23862144Y106805715D01*
X-23862144Y106948572D01*
X-23790715Y107091429D01*
X-23647858Y107162858D01*
X-23290715Y107162858D01*
X-23147858Y107234286D01*
X-22433572Y107591429D02*
X-22433572Y106591429D01*
X-22433572Y107448572D02*
X-22362144Y107520000D01*
X-22219287Y107591429D01*
X-22005001Y107591429D01*
X-21862144Y107520000D01*
X-21790715Y107377143D01*
X-21790715Y106591429D01*
X-20433572Y107591429D02*
X-20433572Y106377143D01*
X-20505001Y106234286D01*
X-20576430Y106162858D01*
X-20719287Y106091429D01*
X-20933572Y106091429D01*
X-21076430Y106162858D01*
X-20433572Y106662858D02*
X-20576430Y106591429D01*
X-20862144Y106591429D01*
X-21005001Y106662858D01*
X-21076430Y106734286D01*
X-21147858Y106877143D01*
X-21147858Y107305715D01*
X-21076430Y107448572D01*
X-21005001Y107520000D01*
X-20862144Y107591429D01*
X-20576430Y107591429D01*
X-20433572Y107520000D01*
X-19147858Y106662858D02*
X-19290715Y106591429D01*
X-19576430Y106591429D01*
X-19719287Y106662858D01*
X-19790715Y106805715D01*
X-19790715Y107377143D01*
X-19719287Y107520000D01*
X-19576430Y107591429D01*
X-19290715Y107591429D01*
X-19147858Y107520000D01*
X-19076430Y107377143D01*
X-19076430Y107234286D01*
X-19790715Y107091429D01*
X-18433572Y107591429D02*
X-18433572Y106591429D01*
X-18433572Y107448572D02*
X-18362144Y107520000D01*
X-18219287Y107591429D01*
X-18005001Y107591429D01*
X-17862144Y107520000D01*
X-17790715Y107377143D01*
X-17790715Y106591429D01*
X-17290715Y107591429D02*
X-16719287Y107591429D01*
X-17076430Y108091429D02*
X-17076430Y106805715D01*
X-17005001Y106662858D01*
X-16862144Y106591429D01*
X-16719287Y106591429D01*
X2385476Y100095239D02*
X3052142Y98095239D01*
X3718809Y100095239D01*
X5433095Y98095239D02*
X4290238Y98095239D01*
X4861666Y98095239D02*
X4861666Y100095239D01*
X4671190Y99809524D01*
X4480714Y99619048D01*
X4290238Y99523810D01*
X7433095Y98095239D02*
X6766428Y99047620D01*
X6290238Y98095239D02*
X6290238Y100095239D01*
X7052142Y100095239D01*
X7242619Y100000000D01*
X7337857Y99904762D01*
X7433095Y99714286D01*
X7433095Y99428572D01*
X7337857Y99238096D01*
X7242619Y99142858D01*
X7052142Y99047620D01*
X6290238Y99047620D01*
X8671190Y100095239D02*
X8861666Y100095239D01*
X9052142Y100000000D01*
X9147380Y99904762D01*
X9242619Y99714286D01*
X9337857Y99333334D01*
X9337857Y98857143D01*
X9242619Y98476191D01*
X9147380Y98285715D01*
X9052142Y98190477D01*
X8861666Y98095239D01*
X8671190Y98095239D01*
X8480714Y98190477D01*
X8385476Y98285715D01*
X8290238Y98476191D01*
X8195000Y98857143D01*
X8195000Y99333334D01*
X8290238Y99714286D01*
X8385476Y99904762D01*
X8480714Y100000000D01*
X8671190Y100095239D01*
D12*
X-130070001Y44671429D02*
X-130070001Y46171429D01*
X-129570001Y45100000D01*
X-129070001Y46171429D01*
X-129070001Y44671429D01*
X-128355715Y44671429D02*
X-128355715Y45671429D01*
X-128355715Y46171429D02*
X-128427143Y46100000D01*
X-128355715Y46028572D01*
X-128284286Y46100000D01*
X-128355715Y46171429D01*
X-128355715Y46028572D01*
X-127641429Y45671429D02*
X-127641429Y44671429D01*
X-127641429Y45528572D02*
X-127570001Y45600000D01*
X-127427143Y45671429D01*
X-127212858Y45671429D01*
X-127070001Y45600000D01*
X-126998572Y45457143D01*
X-126998572Y44671429D01*
X-125355715Y45671429D02*
X-124784286Y45671429D01*
X-125141429Y46171429D02*
X-125141429Y44885715D01*
X-125070001Y44742858D01*
X-124927143Y44671429D01*
X-124784286Y44671429D01*
X-124284286Y44671429D02*
X-124284286Y45671429D01*
X-124284286Y45385715D02*
X-124212858Y45528572D01*
X-124141429Y45600000D01*
X-123998572Y45671429D01*
X-123855715Y45671429D01*
X-122712858Y44671429D02*
X-122712858Y45457143D01*
X-122784286Y45600000D01*
X-122927143Y45671429D01*
X-123212858Y45671429D01*
X-123355715Y45600000D01*
X-122712858Y44742858D02*
X-122855715Y44671429D01*
X-123212858Y44671429D01*
X-123355715Y44742858D01*
X-123427143Y44885715D01*
X-123427143Y45028572D01*
X-123355715Y45171429D01*
X-123212858Y45242858D01*
X-122855715Y45242858D01*
X-122712858Y45314286D01*
X-121355715Y44742858D02*
X-121498572Y44671429D01*
X-121784286Y44671429D01*
X-121927143Y44742858D01*
X-121998572Y44814286D01*
X-122070001Y44957143D01*
X-122070001Y45385715D01*
X-121998572Y45528572D01*
X-121927143Y45600000D01*
X-121784286Y45671429D01*
X-121498572Y45671429D01*
X-121355715Y45600000D01*
X-120712858Y44671429D02*
X-120712858Y46171429D01*
X-120570001Y45242858D02*
X-120141429Y44671429D01*
X-120141429Y45671429D02*
X-120712858Y45100000D01*
X-118427143Y46242858D02*
X-119712858Y44314286D01*
X-117998572Y44742858D02*
X-117855715Y44671429D01*
X-117570001Y44671429D01*
X-117427143Y44742858D01*
X-117355715Y44885715D01*
X-117355715Y44957143D01*
X-117427143Y45100000D01*
X-117570001Y45171429D01*
X-117784286Y45171429D01*
X-117927143Y45242858D01*
X-117998572Y45385715D01*
X-117998572Y45457143D01*
X-117927143Y45600000D01*
X-117784286Y45671429D01*
X-117570001Y45671429D01*
X-117427143Y45600000D01*
X-116712858Y45671429D02*
X-116712858Y44171429D01*
X-116712858Y45600000D02*
X-116570001Y45671429D01*
X-116284286Y45671429D01*
X-116141429Y45600000D01*
X-116070001Y45528572D01*
X-115998572Y45385715D01*
X-115998572Y44957143D01*
X-116070001Y44814286D01*
X-116141429Y44742858D01*
X-116284286Y44671429D01*
X-116570001Y44671429D01*
X-116712858Y44742858D01*
X-114712858Y44671429D02*
X-114712858Y45457143D01*
X-114784286Y45600000D01*
X-114927143Y45671429D01*
X-115212858Y45671429D01*
X-115355715Y45600000D01*
X-114712858Y44742858D02*
X-114855715Y44671429D01*
X-115212858Y44671429D01*
X-115355715Y44742858D01*
X-115427143Y44885715D01*
X-115427143Y45028572D01*
X-115355715Y45171429D01*
X-115212858Y45242858D01*
X-114855715Y45242858D01*
X-114712858Y45314286D01*
X-113355715Y44742858D02*
X-113498572Y44671429D01*
X-113784286Y44671429D01*
X-113927143Y44742858D01*
X-113998572Y44814286D01*
X-114070001Y44957143D01*
X-114070001Y45385715D01*
X-113998572Y45528572D01*
X-113927143Y45600000D01*
X-113784286Y45671429D01*
X-113498572Y45671429D01*
X-113355715Y45600000D01*
X-112712858Y44671429D02*
X-112712858Y45671429D01*
X-112712858Y46171429D02*
X-112784286Y46100000D01*
X-112712858Y46028572D01*
X-112641429Y46100000D01*
X-112712858Y46171429D01*
X-112712858Y46028572D01*
X-111998572Y45671429D02*
X-111998572Y44671429D01*
X-111998572Y45528572D02*
X-111927143Y45600000D01*
X-111784286Y45671429D01*
X-111570001Y45671429D01*
X-111427143Y45600000D01*
X-111355715Y45457143D01*
X-111355715Y44671429D01*
X-109998572Y45671429D02*
X-109998572Y44457143D01*
X-110070001Y44314286D01*
X-110141429Y44242858D01*
X-110284286Y44171429D01*
X-110498572Y44171429D01*
X-110641429Y44242858D01*
X-109998572Y44742858D02*
X-110141429Y44671429D01*
X-110427143Y44671429D01*
X-110570001Y44742858D01*
X-110641429Y44814286D01*
X-110712858Y44957143D01*
X-110712858Y45385715D01*
X-110641429Y45528572D01*
X-110570001Y45600000D01*
X-110427143Y45671429D01*
X-110141429Y45671429D01*
X-109998572Y45600000D01*
X-109284286Y44814286D02*
X-109212858Y44742858D01*
X-109284286Y44671429D01*
X-109355715Y44742858D01*
X-109284286Y44814286D01*
X-109284286Y44671429D01*
X-109284286Y45600000D02*
X-109212858Y45528572D01*
X-109284286Y45457143D01*
X-109355715Y45528572D01*
X-109284286Y45600000D01*
X-109284286Y45457143D01*
D10*
X-71192143Y71206429D02*
X-71049286Y71206429D01*
X-70906429Y71135000D01*
X-70835000Y71063572D01*
X-70763572Y70920715D01*
X-70692143Y70635000D01*
X-70692143Y70277858D01*
X-70763572Y69992143D01*
X-70835000Y69849286D01*
X-70906429Y69777858D01*
X-71049286Y69706429D01*
X-71192143Y69706429D01*
X-71335000Y69777858D01*
X-71406429Y69849286D01*
X-71477858Y69992143D01*
X-71549286Y70277858D01*
X-71549286Y70635000D01*
X-71477858Y70920715D01*
X-71406429Y71063572D01*
X-71335000Y71135000D01*
X-71192143Y71206429D01*
X-68906429Y69706429D02*
X-68906429Y70706429D01*
X-68906429Y70563572D02*
X-68835000Y70635000D01*
X-68692143Y70706429D01*
X-68477858Y70706429D01*
X-68335000Y70635000D01*
X-68263572Y70492143D01*
X-68263572Y69706429D01*
X-68263572Y70492143D02*
X-68192143Y70635000D01*
X-68049286Y70706429D01*
X-67835000Y70706429D01*
X-67692143Y70635000D01*
X-67620715Y70492143D01*
X-67620715Y69706429D01*
X-66906429Y69706429D02*
X-66906429Y70706429D01*
X-66906429Y70563572D02*
X-66835000Y70635000D01*
X-66692143Y70706429D01*
X-66477858Y70706429D01*
X-66335000Y70635000D01*
X-66263572Y70492143D01*
X-66263572Y69706429D01*
X-66263572Y70492143D02*
X-66192143Y70635000D01*
X-66049286Y70706429D01*
X-65835000Y70706429D01*
X-65692143Y70635000D01*
X-65620715Y70492143D01*
X-65620715Y69706429D01*
D12*
X-63455715Y40456429D02*
X-63455715Y41956429D01*
X-62741429Y40456429D02*
X-62741429Y41456429D01*
X-62741429Y41313572D02*
X-62670000Y41385000D01*
X-62527143Y41456429D01*
X-62312857Y41456429D01*
X-62170000Y41385000D01*
X-62098572Y41242143D01*
X-62098572Y40456429D01*
X-62098572Y41242143D02*
X-62027143Y41385000D01*
X-61884286Y41456429D01*
X-61670000Y41456429D01*
X-61527143Y41385000D01*
X-61455715Y41242143D01*
X-61455715Y40456429D01*
X-60741429Y41456429D02*
X-60741429Y39956429D01*
X-60741429Y41385000D02*
X-60598572Y41456429D01*
X-60312857Y41456429D01*
X-60170000Y41385000D01*
X-60098572Y41313572D01*
X-60027143Y41170715D01*
X-60027143Y40742143D01*
X-60098572Y40599286D01*
X-60170000Y40527858D01*
X-60312857Y40456429D01*
X-60598572Y40456429D01*
X-60741429Y40527858D01*
X-58812857Y40527858D02*
X-58955715Y40456429D01*
X-59241429Y40456429D01*
X-59384286Y40527858D01*
X-59455715Y40670715D01*
X-59455715Y41242143D01*
X-59384286Y41385000D01*
X-59241429Y41456429D01*
X-58955715Y41456429D01*
X-58812857Y41385000D01*
X-58741429Y41242143D01*
X-58741429Y41099286D01*
X-59455715Y40956429D01*
X-57455715Y40456429D02*
X-57455715Y41956429D01*
X-57455715Y40527858D02*
X-57598572Y40456429D01*
X-57884286Y40456429D01*
X-58027143Y40527858D01*
X-58098572Y40599286D01*
X-58170000Y40742143D01*
X-58170000Y41170715D01*
X-58098572Y41313572D01*
X-58027143Y41385000D01*
X-57884286Y41456429D01*
X-57598572Y41456429D01*
X-57455715Y41385000D01*
X-56098572Y40456429D02*
X-56098572Y41242143D01*
X-56170000Y41385000D01*
X-56312857Y41456429D01*
X-56598572Y41456429D01*
X-56741429Y41385000D01*
X-56098572Y40527858D02*
X-56241429Y40456429D01*
X-56598572Y40456429D01*
X-56741429Y40527858D01*
X-56812857Y40670715D01*
X-56812857Y40813572D01*
X-56741429Y40956429D01*
X-56598572Y41027858D01*
X-56241429Y41027858D01*
X-56098572Y41099286D01*
X-55384286Y41456429D02*
X-55384286Y40456429D01*
X-55384286Y41313572D02*
X-55312857Y41385000D01*
X-55170000Y41456429D01*
X-54955715Y41456429D01*
X-54812857Y41385000D01*
X-54741429Y41242143D01*
X-54741429Y40456429D01*
X-53384286Y40527858D02*
X-53527143Y40456429D01*
X-53812857Y40456429D01*
X-53955715Y40527858D01*
X-54027143Y40599286D01*
X-54098572Y40742143D01*
X-54098572Y41170715D01*
X-54027143Y41313572D01*
X-53955715Y41385000D01*
X-53812857Y41456429D01*
X-53527143Y41456429D01*
X-53384286Y41385000D01*
X-52170000Y40527858D02*
X-52312857Y40456429D01*
X-52598572Y40456429D01*
X-52741429Y40527858D01*
X-52812857Y40670715D01*
X-52812857Y41242143D01*
X-52741429Y41385000D01*
X-52598572Y41456429D01*
X-52312857Y41456429D01*
X-52170000Y41385000D01*
X-52098572Y41242143D01*
X-52098572Y41099286D01*
X-52812857Y40956429D01*
X-49455715Y40599286D02*
X-49527143Y40527858D01*
X-49741429Y40456429D01*
X-49884286Y40456429D01*
X-50098572Y40527858D01*
X-50241429Y40670715D01*
X-50312857Y40813572D01*
X-50384286Y41099286D01*
X-50384286Y41313572D01*
X-50312857Y41599286D01*
X-50241429Y41742143D01*
X-50098572Y41885000D01*
X-49884286Y41956429D01*
X-49741429Y41956429D01*
X-49527143Y41885000D01*
X-49455715Y41813572D01*
X-48598572Y40456429D02*
X-48741429Y40527858D01*
X-48812857Y40599286D01*
X-48884286Y40742143D01*
X-48884286Y41170715D01*
X-48812857Y41313572D01*
X-48741429Y41385000D01*
X-48598572Y41456429D01*
X-48384286Y41456429D01*
X-48241429Y41385000D01*
X-48170000Y41313572D01*
X-48098572Y41170715D01*
X-48098572Y40742143D01*
X-48170000Y40599286D01*
X-48241429Y40527858D01*
X-48384286Y40456429D01*
X-48598572Y40456429D01*
X-47455715Y41456429D02*
X-47455715Y40456429D01*
X-47455715Y41313572D02*
X-47384286Y41385000D01*
X-47241429Y41456429D01*
X-47027143Y41456429D01*
X-46884286Y41385000D01*
X-46812857Y41242143D01*
X-46812857Y40456429D01*
X-46312857Y41456429D02*
X-45741429Y41456429D01*
X-46098572Y41956429D02*
X-46098572Y40670715D01*
X-46027143Y40527858D01*
X-45884286Y40456429D01*
X-45741429Y40456429D01*
X-45241429Y40456429D02*
X-45241429Y41456429D01*
X-45241429Y41170715D02*
X-45170000Y41313572D01*
X-45098572Y41385000D01*
X-44955715Y41456429D01*
X-44812857Y41456429D01*
X-44098572Y40456429D02*
X-44241429Y40527858D01*
X-44312857Y40599286D01*
X-44384286Y40742143D01*
X-44384286Y41170715D01*
X-44312857Y41313572D01*
X-44241429Y41385000D01*
X-44098572Y41456429D01*
X-43884286Y41456429D01*
X-43741429Y41385000D01*
X-43670000Y41313572D01*
X-43598572Y41170715D01*
X-43598572Y40742143D01*
X-43670000Y40599286D01*
X-43741429Y40527858D01*
X-43884286Y40456429D01*
X-44098572Y40456429D01*
X-42741429Y40456429D02*
X-42884286Y40527858D01*
X-42955715Y40670715D01*
X-42955715Y41956429D01*
X-42170000Y40599286D02*
X-42098572Y40527858D01*
X-42170000Y40456429D01*
X-42241429Y40527858D01*
X-42170000Y40599286D01*
X-42170000Y40456429D01*
X-42170000Y41385000D02*
X-42098572Y41313572D01*
X-42170000Y41242143D01*
X-42241429Y41313572D01*
X-42170000Y41385000D01*
X-42170000Y41242143D01*
D10*
X-89577858Y94096429D02*
X-89577858Y95596429D01*
X-89220715Y95596429D01*
X-89006429Y95525000D01*
X-88863572Y95382143D01*
X-88792143Y95239286D01*
X-88720715Y94953572D01*
X-88720715Y94739286D01*
X-88792143Y94453572D01*
X-88863572Y94310715D01*
X-89006429Y94167858D01*
X-89220715Y94096429D01*
X-89577858Y94096429D01*
X-88077858Y94096429D02*
X-88077858Y95096429D01*
X-88077858Y94810715D02*
X-88006429Y94953572D01*
X-87935000Y95025000D01*
X-87792143Y95096429D01*
X-87649286Y95096429D01*
X-87292143Y95096429D02*
X-86935000Y94096429D01*
X-86577858Y95096429D02*
X-86935000Y94096429D01*
X-87077858Y93739286D01*
X-87149286Y93667858D01*
X-87292143Y93596429D01*
X-84363572Y94882143D02*
X-84863572Y94882143D01*
X-84863572Y94096429D02*
X-84863572Y95596429D01*
X-84149286Y95596429D01*
X-83577858Y94096429D02*
X-83577858Y95096429D01*
X-83577858Y95596429D02*
X-83649286Y95525000D01*
X-83577858Y95453572D01*
X-83506429Y95525000D01*
X-83577858Y95596429D01*
X-83577858Y95453572D01*
X-82649286Y94096429D02*
X-82792143Y94167858D01*
X-82863572Y94310715D01*
X-82863572Y95596429D01*
X-82077858Y94096429D02*
X-82077858Y95096429D01*
X-82077858Y94953572D02*
X-82006429Y95025000D01*
X-81863572Y95096429D01*
X-81649286Y95096429D01*
X-81506429Y95025000D01*
X-81435000Y94882143D01*
X-81435000Y94096429D01*
X-81435000Y94882143D02*
X-81363572Y95025000D01*
X-81220715Y95096429D01*
X-81006429Y95096429D01*
X-80863572Y95025000D01*
X-80792143Y94882143D01*
X-80792143Y94096429D01*
D12*
X-63455715Y44671429D02*
X-63455715Y46171429D01*
X-62955715Y45100000D01*
X-62455715Y46171429D01*
X-62455715Y44671429D01*
X-61741429Y44671429D02*
X-61741429Y45671429D01*
X-61741429Y46171429D02*
X-61812857Y46100000D01*
X-61741429Y46028572D01*
X-61670000Y46100000D01*
X-61741429Y46171429D01*
X-61741429Y46028572D01*
X-61027143Y45671429D02*
X-61027143Y44671429D01*
X-61027143Y45528572D02*
X-60955715Y45600000D01*
X-60812857Y45671429D01*
X-60598572Y45671429D01*
X-60455715Y45600000D01*
X-60384286Y45457143D01*
X-60384286Y44671429D01*
X-58527143Y44671429D02*
X-58527143Y46171429D01*
X-57884286Y44671429D02*
X-57884286Y45457143D01*
X-57955715Y45600000D01*
X-58098572Y45671429D01*
X-58312857Y45671429D01*
X-58455715Y45600000D01*
X-58527143Y45528572D01*
X-56955715Y44671429D02*
X-57098572Y44742858D01*
X-57170000Y44814286D01*
X-57241429Y44957143D01*
X-57241429Y45385715D01*
X-57170000Y45528572D01*
X-57098572Y45600000D01*
X-56955715Y45671429D01*
X-56741429Y45671429D01*
X-56598572Y45600000D01*
X-56527143Y45528572D01*
X-56455715Y45385715D01*
X-56455715Y44957143D01*
X-56527143Y44814286D01*
X-56598572Y44742858D01*
X-56741429Y44671429D01*
X-56955715Y44671429D01*
X-55598572Y44671429D02*
X-55741429Y44742858D01*
X-55812857Y44885715D01*
X-55812857Y46171429D01*
X-54455715Y44742858D02*
X-54598572Y44671429D01*
X-54884286Y44671429D01*
X-55027143Y44742858D01*
X-55098572Y44885715D01*
X-55098572Y45457143D01*
X-55027143Y45600000D01*
X-54884286Y45671429D01*
X-54598572Y45671429D01*
X-54455715Y45600000D01*
X-54384286Y45457143D01*
X-54384286Y45314286D01*
X-55098572Y45171429D01*
X-51955715Y44671429D02*
X-51955715Y46171429D01*
X-51955715Y44742858D02*
X-52098572Y44671429D01*
X-52384286Y44671429D01*
X-52527143Y44742858D01*
X-52598572Y44814286D01*
X-52670000Y44957143D01*
X-52670000Y45385715D01*
X-52598572Y45528572D01*
X-52527143Y45600000D01*
X-52384286Y45671429D01*
X-52098572Y45671429D01*
X-51955715Y45600000D01*
X-51241429Y44671429D02*
X-51241429Y45671429D01*
X-51241429Y46171429D02*
X-51312857Y46100000D01*
X-51241429Y46028572D01*
X-51170000Y46100000D01*
X-51241429Y46171429D01*
X-51241429Y46028572D01*
X-49884286Y44671429D02*
X-49884286Y45457143D01*
X-49955715Y45600000D01*
X-50098572Y45671429D01*
X-50384286Y45671429D01*
X-50527143Y45600000D01*
X-49884286Y44742858D02*
X-50027143Y44671429D01*
X-50384286Y44671429D01*
X-50527143Y44742858D01*
X-50598572Y44885715D01*
X-50598572Y45028572D01*
X-50527143Y45171429D01*
X-50384286Y45242858D01*
X-50027143Y45242858D01*
X-49884286Y45314286D01*
X-49170000Y44671429D02*
X-49170000Y45671429D01*
X-49170000Y45528572D02*
X-49098572Y45600000D01*
X-48955715Y45671429D01*
X-48741429Y45671429D01*
X-48598572Y45600000D01*
X-48527143Y45457143D01*
X-48527143Y44671429D01*
X-48527143Y45457143D02*
X-48455715Y45600000D01*
X-48312857Y45671429D01*
X-48098572Y45671429D01*
X-47955715Y45600000D01*
X-47884286Y45457143D01*
X-47884286Y44671429D01*
X-46598572Y44742858D02*
X-46741429Y44671429D01*
X-47027143Y44671429D01*
X-47170000Y44742858D01*
X-47241429Y44885715D01*
X-47241429Y45457143D01*
X-47170000Y45600000D01*
X-47027143Y45671429D01*
X-46741429Y45671429D01*
X-46598572Y45600000D01*
X-46527143Y45457143D01*
X-46527143Y45314286D01*
X-47241429Y45171429D01*
X-46098572Y45671429D02*
X-45527143Y45671429D01*
X-45884286Y46171429D02*
X-45884286Y44885715D01*
X-45812857Y44742858D01*
X-45670000Y44671429D01*
X-45527143Y44671429D01*
X-44455715Y44742858D02*
X-44598572Y44671429D01*
X-44884286Y44671429D01*
X-45027143Y44742858D01*
X-45098572Y44885715D01*
X-45098572Y45457143D01*
X-45027143Y45600000D01*
X-44884286Y45671429D01*
X-44598572Y45671429D01*
X-44455715Y45600000D01*
X-44384286Y45457143D01*
X-44384286Y45314286D01*
X-45098572Y45171429D01*
X-43741429Y44671429D02*
X-43741429Y45671429D01*
X-43741429Y45385715D02*
X-43670000Y45528572D01*
X-43598572Y45600000D01*
X-43455715Y45671429D01*
X-43312857Y45671429D01*
X-42812857Y44814286D02*
X-42741429Y44742858D01*
X-42812857Y44671429D01*
X-42884286Y44742858D01*
X-42812857Y44814286D01*
X-42812857Y44671429D01*
X-42812857Y45600000D02*
X-42741429Y45528572D01*
X-42812857Y45457143D01*
X-42884286Y45528572D01*
X-42812857Y45600000D01*
X-42812857Y45457143D01*
D10*
X-71192143Y83401429D02*
X-71049286Y83401429D01*
X-70906429Y83330000D01*
X-70835000Y83258572D01*
X-70763572Y83115715D01*
X-70692143Y82830000D01*
X-70692143Y82472858D01*
X-70763572Y82187143D01*
X-70835000Y82044286D01*
X-70906429Y81972858D01*
X-71049286Y81901429D01*
X-71192143Y81901429D01*
X-71335000Y81972858D01*
X-71406429Y82044286D01*
X-71477858Y82187143D01*
X-71549286Y82472858D01*
X-71549286Y82830000D01*
X-71477858Y83115715D01*
X-71406429Y83258572D01*
X-71335000Y83330000D01*
X-71192143Y83401429D01*
X-70049286Y82044286D02*
X-69977858Y81972858D01*
X-70049286Y81901429D01*
X-70120715Y81972858D01*
X-70049286Y82044286D01*
X-70049286Y81901429D01*
X-69049286Y83401429D02*
X-68906429Y83401429D01*
X-68763572Y83330000D01*
X-68692143Y83258572D01*
X-68620715Y83115715D01*
X-68549286Y82830000D01*
X-68549286Y82472858D01*
X-68620715Y82187143D01*
X-68692143Y82044286D01*
X-68763572Y81972858D01*
X-68906429Y81901429D01*
X-69049286Y81901429D01*
X-69192143Y81972858D01*
X-69263572Y82044286D01*
X-69335000Y82187143D01*
X-69406429Y82472858D01*
X-69406429Y82830000D01*
X-69335000Y83115715D01*
X-69263572Y83258572D01*
X-69192143Y83330000D01*
X-69049286Y83401429D01*
X-68049286Y83401429D02*
X-67120715Y83401429D01*
X-67620715Y82830000D01*
X-67406429Y82830000D01*
X-67263572Y82758572D01*
X-67192143Y82687143D01*
X-67120715Y82544286D01*
X-67120715Y82187143D01*
X-67192143Y82044286D01*
X-67263572Y81972858D01*
X-67406429Y81901429D01*
X-67835000Y81901429D01*
X-67977858Y81972858D01*
X-68049286Y82044286D01*
X-65763572Y83401429D02*
X-66477858Y83401429D01*
X-66549286Y82687143D01*
X-66477858Y82758572D01*
X-66335000Y82830000D01*
X-65977858Y82830000D01*
X-65835000Y82758572D01*
X-65763572Y82687143D01*
X-65692143Y82544286D01*
X-65692143Y82187143D01*
X-65763572Y82044286D01*
X-65835000Y81972858D01*
X-65977858Y81901429D01*
X-66335000Y81901429D01*
X-66477858Y81972858D01*
X-66549286Y82044286D01*
X-63906429Y81901429D02*
X-63906429Y82901429D01*
X-63906429Y82758572D02*
X-63835000Y82830000D01*
X-63692143Y82901429D01*
X-63477858Y82901429D01*
X-63335000Y82830000D01*
X-63263572Y82687143D01*
X-63263572Y81901429D01*
X-63263572Y82687143D02*
X-63192143Y82830000D01*
X-63049286Y82901429D01*
X-62835000Y82901429D01*
X-62692143Y82830000D01*
X-62620715Y82687143D01*
X-62620715Y81901429D01*
X-61906429Y81901429D02*
X-61906429Y82901429D01*
X-61906429Y82758572D02*
X-61835000Y82830000D01*
X-61692143Y82901429D01*
X-61477858Y82901429D01*
X-61335000Y82830000D01*
X-61263572Y82687143D01*
X-61263572Y81901429D01*
X-61263572Y82687143D02*
X-61192143Y82830000D01*
X-61049286Y82901429D01*
X-60835000Y82901429D01*
X-60692143Y82830000D01*
X-60620715Y82687143D01*
X-60620715Y81901429D01*
D14*
%TO.C,H2*%
X3200000Y0D02*
G75*
G03*
X3200000Y0I-3200000J0D01*
G01*
%TO.C,H3*%
X3200000Y50800000D02*
G75*
G03*
X3200000Y50800000I-3200000J0D01*
G01*
%TO.C,H1*%
X54000000Y50800000D02*
G75*
G03*
X54000000Y50800000I-3200000J0D01*
G01*
%TO.C,H4*%
X54000000Y0D02*
G75*
G03*
X54000000Y0I-3200000J0D01*
G01*
%TD*%
M02*
