%TF.GenerationSoftware,KiCad,Pcbnew,6.0.4-6f826c9f35~116~ubuntu18.04.1*%
%TF.CreationDate,2022-04-09T00:00:09+02:00*%
%TF.ProjectId,AE01.07.50.100,41453031-2e30-4372-9e35-302e3130302e,V1R0*%
%TF.SameCoordinates,PX9464480PY76a3180*%
%TF.FileFunction,AssemblyDrawing,Bot*%
%FSLAX46Y46*%
G04 Gerber Fmt 4.6, Leading zero omitted, Abs format (unit mm)*
G04 Created by KiCad (PCBNEW 6.0.4-6f826c9f35~116~ubuntu18.04.1) date 2022-04-09 00:00:09*
%MOMM*%
%LPD*%
G01*
G04 APERTURE LIST*
%ADD10C,0.100000*%
G04 APERTURE END LIST*
D10*
%TO.C,L1*%
X16550000Y9400000D02*
G75*
G03*
X16550000Y9400000I-1450000J0D01*
G01*
X16550000Y21600000D02*
G75*
G03*
X16550000Y21600000I-1450000J0D01*
G01*
%TD*%
%TO.C,CONN1*%
X31650000Y3745000D02*
X31650000Y1245000D01*
X34150000Y1245000D01*
X34150000Y3745000D01*
X31650000Y3745000D01*
X39230000Y2495000D02*
G75*
G03*
X39230000Y2495000I-1250000J0D01*
G01*
X44310000Y2495000D02*
G75*
G03*
X44310000Y2495000I-1250000J0D01*
G01*
%TD*%
%TO.C,L2*%
X29130000Y22275000D02*
X29130000Y19375000D01*
X32030000Y19375000D01*
X32030000Y22275000D01*
X29130000Y22275000D01*
X47270000Y20825000D02*
G75*
G03*
X47270000Y20825000I-1450000J0D01*
G01*
X47270000Y27175000D02*
G75*
G03*
X47270000Y27175000I-1450000J0D01*
G01*
X32030000Y27175000D02*
G75*
G03*
X32030000Y27175000I-1450000J0D01*
G01*
%TD*%
%TO.C,C1*%
X31650000Y15500000D02*
G75*
G03*
X31650000Y15500000I-1150000J0D01*
G01*
X46650000Y15500000D02*
G75*
G03*
X46650000Y15500000I-1150000J0D01*
G01*
%TD*%
%TO.C,C3*%
X52450000Y13450000D02*
G75*
G03*
X52450000Y13450000I-950000J0D01*
G01*
X52450000Y20950000D02*
G75*
G03*
X52450000Y20950000I-950000J0D01*
G01*
%TD*%
%TO.C,PS1*%
X6200000Y34250000D02*
X6200000Y32050000D01*
X8100000Y32050000D01*
X8100000Y34250000D01*
X6200000Y34250000D01*
X13330000Y33150000D02*
G75*
G03*
X13330000Y33150000I-1100000J0D01*
G01*
X38730000Y33150000D02*
G75*
G03*
X38730000Y33150000I-1100000J0D01*
G01*
X38730000Y50930000D02*
G75*
G03*
X38730000Y50930000I-1100000J0D01*
G01*
X33650000Y50930000D02*
G75*
G03*
X33650000Y50930000I-1100000J0D01*
G01*
%TD*%
%TO.C,C2*%
X15600000Y26600000D02*
G75*
G03*
X15600000Y26600000I-950000J0D01*
G01*
X23100000Y26600000D02*
G75*
G03*
X23100000Y26600000I-950000J0D01*
G01*
%TD*%
%TO.C,CONN2*%
X42200000Y52700000D02*
X42200000Y51100000D01*
X43800000Y51100000D01*
X43800000Y52700000D01*
X42200000Y52700000D01*
X43000000Y48560000D02*
X43000000Y48560000D01*
X43000000Y50160000D02*
X43000000Y50160000D01*
X43000000Y48560000D02*
G75*
G03*
X43000000Y50160000I0J800000D01*
G01*
X43000000Y50160000D02*
G75*
G03*
X43000000Y48560000I0J-800000D01*
G01*
X45540000Y51100000D02*
X45540000Y51100000D01*
X45540000Y52700000D02*
X45540000Y52700000D01*
X45540000Y51100000D02*
G75*
G03*
X45540000Y52700000I0J800000D01*
G01*
X45540000Y52700000D02*
G75*
G03*
X45540000Y51100000I0J-800000D01*
G01*
X45540000Y48560000D02*
X45540000Y48560000D01*
X45540000Y50160000D02*
X45540000Y50160000D01*
X45540000Y48560000D02*
G75*
G03*
X45540000Y50160000I0J800000D01*
G01*
X45540000Y50160000D02*
G75*
G03*
X45540000Y48560000I0J-800000D01*
G01*
%TD*%
%TO.C,H2*%
X1550000Y0D02*
G75*
G03*
X1550000Y0I-1550000J0D01*
G01*
%TD*%
%TO.C,C5*%
X44750000Y39602651D02*
X44750000Y38102651D01*
X46250000Y38102651D01*
X46250000Y39602651D01*
X44750000Y39602651D01*
X46250000Y35352651D02*
G75*
G03*
X46250000Y35352651I-750000J0D01*
G01*
%TD*%
%TO.C,F1*%
X18000000Y1600000D02*
G75*
G03*
X18000000Y1600000I-1300000J0D01*
G01*
X29400000Y1600000D02*
G75*
G03*
X29400000Y1600000I-1450000J0D01*
G01*
X6900000Y1600000D02*
G75*
G03*
X6900000Y1600000I-1450000J0D01*
G01*
%TD*%
%TO.C,H3*%
X1550000Y50800000D02*
G75*
G03*
X1550000Y50800000I-1550000J0D01*
G01*
%TD*%
%TO.C,RV1*%
X35100000Y11200000D02*
G75*
G03*
X35100000Y11200000I-850000J0D01*
G01*
X42600000Y9800000D02*
G75*
G03*
X42600000Y9800000I-850000J0D01*
G01*
%TD*%
%TO.C,R1*%
X1550000Y36390000D02*
G75*
G03*
X1550000Y36390000I-1150000J0D01*
G01*
X400000Y32460000D02*
X400000Y32460000D01*
X400000Y30160000D02*
X400000Y30160000D01*
X400000Y32460000D02*
G75*
G03*
X400000Y30160000I0J-1150000D01*
G01*
X400000Y30160000D02*
G75*
G03*
X400000Y32460000I0J1150000D01*
G01*
%TD*%
%TO.C,C4*%
X52450000Y40400000D02*
G75*
G03*
X52450000Y40400000I-750000J0D01*
G01*
X52450000Y35400000D02*
G75*
G03*
X52450000Y35400000I-750000J0D01*
G01*
%TD*%
%TO.C,H1*%
X52350000Y50800000D02*
G75*
G03*
X52350000Y50800000I-1550000J0D01*
G01*
%TD*%
%TO.C,H4*%
X49452944Y-1697056D02*
G75*
G03*
X49452944Y-1697056I-350000J0D01*
G01*
X49452944Y1697056D02*
G75*
G03*
X49452944Y1697056I-350000J0D01*
G01*
X52847056Y-1697056D02*
G75*
G03*
X52847056Y-1697056I-350000J0D01*
G01*
X51150000Y2400000D02*
G75*
G03*
X51150000Y2400000I-350000J0D01*
G01*
X48750000Y0D02*
G75*
G03*
X48750000Y0I-350000J0D01*
G01*
X53950000Y0D02*
G75*
G03*
X53950000Y0I-3150000J0D01*
G01*
X51150000Y-2400000D02*
G75*
G03*
X51150000Y-2400000I-350000J0D01*
G01*
X52847056Y1697056D02*
G75*
G03*
X52847056Y1697056I-350000J0D01*
G01*
X53550000Y0D02*
G75*
G03*
X53550000Y0I-350000J0D01*
G01*
%TD*%
%TO.C,TVS1*%
X41555000Y45650000D02*
X41555000Y43150000D01*
X44055000Y43150000D01*
X44055000Y45650000D01*
X41555000Y45650000D01*
X46635000Y44400000D02*
X46635000Y44400000D01*
X49135000Y44400000D02*
X49135000Y44400000D01*
X46635000Y44400000D02*
G75*
G03*
X49135000Y44400000I1250000J0D01*
G01*
X49135000Y44400000D02*
G75*
G03*
X46635000Y44400000I-1250000J0D01*
G01*
%TD*%
%TO.C,E2*%
X46500000Y22949240D02*
X46500000Y22026000D01*
X45100000Y22026000D01*
X45100000Y22949240D01*
X45800000Y23415907D01*
X46500000Y22949240D01*
X46500000Y25050760D02*
X45800000Y24584093D01*
X45100000Y25050760D01*
X45100000Y25974000D01*
X46500000Y25974000D01*
X46500000Y25050760D01*
%TD*%
%TO.C,E1*%
X31300000Y23049240D02*
X31300000Y22126000D01*
X29900000Y22126000D01*
X29900000Y23049240D01*
X30600000Y23515907D01*
X31300000Y23049240D01*
X31300000Y25150760D02*
X30600000Y24684093D01*
X29900000Y25150760D01*
X29900000Y26074000D01*
X31300000Y26074000D01*
X31300000Y25150760D01*
%TD*%
M02*
