%TF.GenerationSoftware,KiCad,Pcbnew,6.0.4-6f826c9f35~116~ubuntu18.04.1*%
%TF.CreationDate,2022-04-03T22:47:16+02:00*%
%TF.ProjectId,AE01.07.50.100,41453031-2e30-4372-9e35-302e3130302e,V1R0*%
%TF.SameCoordinates,PX9464480PY76a3180*%
%TF.FileFunction,Legend,Top*%
%TF.FilePolarity,Positive*%
%FSLAX46Y46*%
G04 Gerber Fmt 4.6, Leading zero omitted, Abs format (unit mm)*
G04 Created by KiCad (PCBNEW 6.0.4-6f826c9f35~116~ubuntu18.04.1) date 2022-04-03 22:47:16*
%MOMM*%
%LPD*%
G01*
G04 APERTURE LIST*
%ADD10C,0.100000*%
%ADD11C,0.350000*%
%ADD12C,0.700000*%
%ADD13C,1.050000*%
%ADD14C,0.400000*%
%ADD15C,0.460000*%
%ADD16C,0.500000*%
%TA.AperFunction,Profile*%
%ADD17C,0.050000*%
%TD*%
%ADD18C,0.150000*%
%ADD19C,0.120000*%
%ADD20C,0.010000*%
G04 APERTURE END LIST*
D10*
D11*
X-8597800Y114400000D02*
X-8597800Y78400000D01*
D10*
D11*
X1402200Y108400000D02*
X1402200Y78400000D01*
D10*
D11*
X11402200Y108400000D02*
X11402200Y78400000D01*
D10*
D11*
X81402200Y108400000D02*
X81402200Y78400000D01*
D10*
D11*
X106402200Y108400000D02*
X106402200Y78400000D01*
D10*
D11*
X131402200Y114400000D02*
X131402200Y64400000D01*
D10*
D11*
X131402200Y114400000D02*
X-8597800Y114400000D01*
D10*
D11*
X131402200Y108400000D02*
X-8597800Y108400000D01*
D10*
D11*
X131402200Y102400000D02*
X-8597800Y102400000D01*
D10*
D11*
X131402200Y96400000D02*
X-8597800Y96400000D01*
D10*
D11*
X131402200Y90400000D02*
X-8597800Y90400000D01*
D10*
D11*
X131402200Y84400000D02*
X-8597800Y84400000D01*
D10*
D11*
X131402200Y78400000D02*
X-8597800Y78400000D01*
D10*
D11*
X46342676Y110269048D02*
X45509342Y111459524D01*
X44914104Y110269048D02*
X44914104Y112769048D01*
X45866485Y112769048D01*
X46104580Y112650000D01*
X46223628Y112530953D01*
X46342676Y112292858D01*
X46342676Y111935715D01*
X46223628Y111697620D01*
X46104580Y111578572D01*
X45866485Y111459524D01*
X44914104Y111459524D01*
X47414104Y111578572D02*
X48247438Y111578572D01*
X48604580Y110269048D02*
X47414104Y110269048D01*
X47414104Y112769048D01*
X48604580Y112769048D01*
X49318866Y112769048D02*
X50152200Y110269048D01*
X50985533Y112769048D01*
X51818866Y110269048D02*
X51818866Y112769048D01*
X52890295Y110388096D02*
X53247438Y110269048D01*
X53842676Y110269048D01*
X54080771Y110388096D01*
X54199819Y110507143D01*
X54318866Y110745239D01*
X54318866Y110983334D01*
X54199819Y111221429D01*
X54080771Y111340477D01*
X53842676Y111459524D01*
X53366485Y111578572D01*
X53128390Y111697620D01*
X53009342Y111816667D01*
X52890295Y112054762D01*
X52890295Y112292858D01*
X53009342Y112530953D01*
X53128390Y112650000D01*
X53366485Y112769048D01*
X53961723Y112769048D01*
X54318866Y112650000D01*
X55390295Y110269048D02*
X55390295Y112769048D01*
X57056961Y112769048D02*
X57533152Y112769048D01*
X57771247Y112650000D01*
X58009342Y112411905D01*
X58128390Y111935715D01*
X58128390Y111102381D01*
X58009342Y110626191D01*
X57771247Y110388096D01*
X57533152Y110269048D01*
X57056961Y110269048D01*
X56818866Y110388096D01*
X56580771Y110626191D01*
X56461723Y111102381D01*
X56461723Y111935715D01*
X56580771Y112411905D01*
X56818866Y112650000D01*
X57056961Y112769048D01*
X59199819Y110269048D02*
X59199819Y112769048D01*
X60628390Y110269048D01*
X60628390Y112769048D01*
X63723628Y110269048D02*
X63723628Y112769048D01*
X63723628Y111578572D02*
X65152200Y111578572D01*
X65152200Y110269048D02*
X65152200Y112769048D01*
X66342676Y110269048D02*
X66342676Y112769048D01*
X67414104Y110388096D02*
X67771247Y110269048D01*
X68366485Y110269048D01*
X68604580Y110388096D01*
X68723628Y110507143D01*
X68842676Y110745239D01*
X68842676Y110983334D01*
X68723628Y111221429D01*
X68604580Y111340477D01*
X68366485Y111459524D01*
X67890295Y111578572D01*
X67652200Y111697620D01*
X67533152Y111816667D01*
X67414104Y112054762D01*
X67414104Y112292858D01*
X67533152Y112530953D01*
X67652200Y112650000D01*
X67890295Y112769048D01*
X68485533Y112769048D01*
X68842676Y112650000D01*
X69556961Y112769048D02*
X70985533Y112769048D01*
X70271247Y110269048D02*
X70271247Y112769048D01*
X72295057Y112769048D02*
X72771247Y112769048D01*
X73009342Y112650000D01*
X73247438Y112411905D01*
X73366485Y111935715D01*
X73366485Y111102381D01*
X73247438Y110626191D01*
X73009342Y110388096D01*
X72771247Y110269048D01*
X72295057Y110269048D01*
X72056961Y110388096D01*
X71818866Y110626191D01*
X71699819Y111102381D01*
X71699819Y111935715D01*
X71818866Y112411905D01*
X72056961Y112650000D01*
X72295057Y112769048D01*
X75866485Y110269048D02*
X75033152Y111459524D01*
X74437914Y110269048D02*
X74437914Y112769048D01*
X75390295Y112769048D01*
X75628390Y112650000D01*
X75747438Y112530953D01*
X75866485Y112292858D01*
X75866485Y111935715D01*
X75747438Y111697620D01*
X75628390Y111578572D01*
X75390295Y111459524D01*
X74437914Y111459524D01*
X77414104Y111459524D02*
X77414104Y110269048D01*
X76580771Y112769048D02*
X77414104Y111459524D01*
X78247438Y112769048D01*
D10*
D11*
X-8181134Y106769048D02*
X-6514467Y106769048D01*
X-8181134Y104269048D01*
X-6514467Y104269048D01*
X-5085896Y106769048D02*
X-4609705Y106769048D01*
X-4371610Y106650000D01*
X-4133515Y106411905D01*
X-4014467Y105935715D01*
X-4014467Y105102381D01*
X-4133515Y104626191D01*
X-4371610Y104388096D01*
X-4609705Y104269048D01*
X-5085896Y104269048D01*
X-5323991Y104388096D01*
X-5562086Y104626191D01*
X-5681134Y105102381D01*
X-5681134Y105935715D01*
X-5562086Y106411905D01*
X-5323991Y106650000D01*
X-5085896Y106769048D01*
X-2943039Y104269048D02*
X-2943039Y106769048D01*
X-1514467Y104269048D01*
X-1514467Y106769048D01*
X-323991Y105578572D02*
X509342Y105578572D01*
X866485Y104269048D02*
X-323991Y104269048D01*
X-323991Y106769048D01*
X866485Y106769048D01*
D10*
D11*
X4973628Y104269048D02*
X4140295Y105459524D01*
X3545057Y104269048D02*
X3545057Y106769048D01*
X4497438Y106769048D01*
X4735533Y106650000D01*
X4854580Y106530953D01*
X4973628Y106292858D01*
X4973628Y105935715D01*
X4854580Y105697620D01*
X4735533Y105578572D01*
X4497438Y105459524D01*
X3545057Y105459524D01*
X6045057Y105578572D02*
X6878390Y105578572D01*
X7235533Y104269048D02*
X6045057Y104269048D01*
X6045057Y106769048D01*
X7235533Y106769048D01*
X7949819Y106769048D02*
X8783152Y104269048D01*
X9616485Y106769048D01*
D10*
D11*
X34914104Y104269048D02*
X34914104Y106769048D01*
X35509342Y106769048D01*
X35866485Y106650000D01*
X36104580Y106411905D01*
X36223628Y106173810D01*
X36342676Y105697620D01*
X36342676Y105340477D01*
X36223628Y104864286D01*
X36104580Y104626191D01*
X35866485Y104388096D01*
X35509342Y104269048D01*
X34914104Y104269048D01*
X37414104Y105578572D02*
X38247438Y105578572D01*
X38604580Y104269048D02*
X37414104Y104269048D01*
X37414104Y106769048D01*
X38604580Y106769048D01*
X39556961Y104388096D02*
X39914104Y104269048D01*
X40509342Y104269048D01*
X40747438Y104388096D01*
X40866485Y104507143D01*
X40985533Y104745239D01*
X40985533Y104983334D01*
X40866485Y105221429D01*
X40747438Y105340477D01*
X40509342Y105459524D01*
X40033152Y105578572D01*
X39795057Y105697620D01*
X39676009Y105816667D01*
X39556961Y106054762D01*
X39556961Y106292858D01*
X39676009Y106530953D01*
X39795057Y106650000D01*
X40033152Y106769048D01*
X40628390Y106769048D01*
X40985533Y106650000D01*
X43485533Y104507143D02*
X43366485Y104388096D01*
X43009342Y104269048D01*
X42771247Y104269048D01*
X42414104Y104388096D01*
X42176009Y104626191D01*
X42056961Y104864286D01*
X41937914Y105340477D01*
X41937914Y105697620D01*
X42056961Y106173810D01*
X42176009Y106411905D01*
X42414104Y106650000D01*
X42771247Y106769048D01*
X43009342Y106769048D01*
X43366485Y106650000D01*
X43485533Y106530953D01*
X45985533Y104269048D02*
X45152200Y105459524D01*
X44556961Y104269048D02*
X44556961Y106769048D01*
X45509342Y106769048D01*
X45747438Y106650000D01*
X45866485Y106530953D01*
X45985533Y106292858D01*
X45985533Y105935715D01*
X45866485Y105697620D01*
X45747438Y105578572D01*
X45509342Y105459524D01*
X44556961Y105459524D01*
X47056961Y104269048D02*
X47056961Y106769048D01*
X48247438Y104269048D02*
X48247438Y106769048D01*
X49199819Y106769048D01*
X49437914Y106650000D01*
X49556961Y106530953D01*
X49676009Y106292858D01*
X49676009Y105935715D01*
X49556961Y105697620D01*
X49437914Y105578572D01*
X49199819Y105459524D01*
X48247438Y105459524D01*
X50390295Y106769048D02*
X51818866Y106769048D01*
X51104580Y104269048D02*
X51104580Y106769048D01*
X52652200Y104269048D02*
X52652200Y106769048D01*
X54318866Y106769048D02*
X54795057Y106769048D01*
X55033152Y106650000D01*
X55271247Y106411905D01*
X55390295Y105935715D01*
X55390295Y105102381D01*
X55271247Y104626191D01*
X55033152Y104388096D01*
X54795057Y104269048D01*
X54318866Y104269048D01*
X54080771Y104388096D01*
X53842676Y104626191D01*
X53723628Y105102381D01*
X53723628Y105935715D01*
X53842676Y106411905D01*
X54080771Y106650000D01*
X54318866Y106769048D01*
X56461723Y104269048D02*
X56461723Y106769048D01*
X57890295Y104269048D01*
X57890295Y106769048D01*
D10*
D11*
X109795057Y104983334D02*
X110985533Y104983334D01*
X109556961Y104269048D02*
X110390295Y106769048D01*
X111223628Y104269048D01*
X112056961Y104269048D02*
X112056961Y106769048D01*
X113009342Y106769048D01*
X113247438Y106650000D01*
X113366485Y106530953D01*
X113485533Y106292858D01*
X113485533Y105935715D01*
X113366485Y105697620D01*
X113247438Y105578572D01*
X113009342Y105459524D01*
X112056961Y105459524D01*
X114556961Y104269048D02*
X114556961Y106769048D01*
X115509342Y106769048D01*
X115747438Y106650000D01*
X115866485Y106530953D01*
X115985533Y106292858D01*
X115985533Y105935715D01*
X115866485Y105697620D01*
X115747438Y105578572D01*
X115509342Y105459524D01*
X114556961Y105459524D01*
X118485533Y104269048D02*
X117652200Y105459524D01*
X117056961Y104269048D02*
X117056961Y106769048D01*
X118009342Y106769048D01*
X118247438Y106650000D01*
X118366485Y106530953D01*
X118485533Y106292858D01*
X118485533Y105935715D01*
X118366485Y105697620D01*
X118247438Y105578572D01*
X118009342Y105459524D01*
X117056961Y105459524D01*
X120033152Y106769048D02*
X120509342Y106769048D01*
X120747438Y106650000D01*
X120985533Y106411905D01*
X121104580Y105935715D01*
X121104580Y105102381D01*
X120985533Y104626191D01*
X120747438Y104388096D01*
X120509342Y104269048D01*
X120033152Y104269048D01*
X119795057Y104388096D01*
X119556961Y104626191D01*
X119437914Y105102381D01*
X119437914Y105935715D01*
X119556961Y106411905D01*
X119795057Y106650000D01*
X120033152Y106769048D01*
X121818866Y106769048D02*
X122652200Y104269048D01*
X123485533Y106769048D01*
X124318866Y105578572D02*
X125152200Y105578572D01*
X125509342Y104269048D02*
X124318866Y104269048D01*
X124318866Y106769048D01*
X125509342Y106769048D01*
X126580771Y104269048D02*
X126580771Y106769048D01*
X127176009Y106769048D01*
X127533152Y106650000D01*
X127771247Y106411905D01*
X127890295Y106173810D01*
X128009342Y105697620D01*
X128009342Y105340477D01*
X127890295Y104864286D01*
X127771247Y104626191D01*
X127533152Y104388096D01*
X127176009Y104269048D01*
X126580771Y104269048D01*
D10*
D11*
X90092676Y104269048D02*
X90092676Y106769048D01*
X90687914Y106769048D01*
X91045057Y106650000D01*
X91283152Y106411905D01*
X91402200Y106173810D01*
X91521247Y105697620D01*
X91521247Y105340477D01*
X91402200Y104864286D01*
X91283152Y104626191D01*
X91045057Y104388096D01*
X90687914Y104269048D01*
X90092676Y104269048D01*
X92473628Y104983334D02*
X93664104Y104983334D01*
X92235533Y104269048D02*
X93068866Y106769048D01*
X93902200Y104269048D01*
X94378390Y106769048D02*
X95806961Y106769048D01*
X95092676Y104269048D02*
X95092676Y106769048D01*
X96640295Y105578572D02*
X97473628Y105578572D01*
X97830771Y104269048D02*
X96640295Y104269048D01*
X96640295Y106769048D01*
X97830771Y106769048D01*
D10*
D11*
X-140600000Y119400000D02*
X-140600000Y-80607200D01*
X136402200Y-80607200D01*
X136402200Y119400000D01*
X-140600000Y119400000D01*
D10*
D12*
X-135600000Y114400000D02*
X-135600000Y-75607200D01*
X131402200Y-75607200D01*
X131402200Y114400000D01*
X-135600000Y114400000D01*
D10*
D13*
X-7100000Y119400000D02*
X-7100000Y114400000D01*
D10*
D13*
X-7100000Y-80607200D02*
X-7100000Y-75607200D01*
D10*
D13*
X-140600000Y19400000D02*
X-135600000Y19400000D01*
D10*
D13*
X136402200Y19400000D02*
X131402200Y19400000D01*
D10*
D11*
X-107100000Y119400000D02*
X-107100000Y114400000D01*
D10*
D11*
X-57100000Y119400000D02*
X-57100000Y114400000D01*
D10*
D11*
X-7100000Y119400000D02*
X-7100000Y114400000D01*
D10*
D11*
X42900000Y119400000D02*
X42900000Y114400000D01*
D10*
D11*
X92900000Y119400000D02*
X92900000Y114400000D01*
D10*
D11*
X-107100000Y-80607200D02*
X-107100000Y-75607200D01*
D10*
D11*
X-57100000Y-80607200D02*
X-57100000Y-75607200D01*
D10*
D11*
X-7100000Y-80607200D02*
X-7100000Y-75607200D01*
D10*
D11*
X42900000Y-80607200D02*
X42900000Y-75607200D01*
D10*
D11*
X92900000Y-80607200D02*
X92900000Y-75607200D01*
D10*
D11*
X-140600000Y69400000D02*
X-135600000Y69400000D01*
D10*
D11*
X-140600000Y19400000D02*
X-135600000Y19400000D01*
D10*
D11*
X-140600000Y-30600000D02*
X-135600000Y-30600000D01*
D10*
D11*
X136402200Y69400000D02*
X131402200Y69400000D01*
D10*
D11*
X136402200Y19400000D02*
X131402200Y19400000D01*
D10*
D11*
X136402200Y-30600000D02*
X131402200Y-30600000D01*
D10*
D11*
X-131100000Y115316667D02*
X-133100000Y115316667D01*
X-132100000Y115316667D02*
X-132100000Y118816667D01*
X-132433334Y118316667D01*
X-132766667Y117983334D01*
X-133100000Y117816667D01*
D10*
D11*
X-83100000Y118483334D02*
X-82933334Y118650000D01*
X-82600000Y118816667D01*
X-81766667Y118816667D01*
X-81433334Y118650000D01*
X-81266667Y118483334D01*
X-81100000Y118150000D01*
X-81100000Y117816667D01*
X-81266667Y117316667D01*
X-83266667Y115316667D01*
X-81100000Y115316667D01*
D10*
D11*
X-33266667Y118816667D02*
X-31100000Y118816667D01*
X-32266667Y117483334D01*
X-31766667Y117483334D01*
X-31433334Y117316667D01*
X-31266667Y117150000D01*
X-31100000Y116816667D01*
X-31100000Y115983334D01*
X-31266667Y115650000D01*
X-31433334Y115483334D01*
X-31766667Y115316667D01*
X-32766667Y115316667D01*
X-33100000Y115483334D01*
X-33266667Y115650000D01*
D10*
D11*
X18566666Y117650000D02*
X18566666Y115316667D01*
X17733333Y118983334D02*
X16900000Y116483334D01*
X19066666Y116483334D01*
D10*
D11*
X68733333Y118816667D02*
X67066666Y118816667D01*
X66900000Y117150000D01*
X67066666Y117316667D01*
X67400000Y117483334D01*
X68233333Y117483334D01*
X68566666Y117316667D01*
X68733333Y117150000D01*
X68900000Y116816667D01*
X68900000Y115983334D01*
X68733333Y115650000D01*
X68566666Y115483334D01*
X68233333Y115316667D01*
X67400000Y115316667D01*
X67066666Y115483334D01*
X66900000Y115650000D01*
D10*
D11*
X118566666Y118816667D02*
X117900000Y118816667D01*
X117566666Y118650000D01*
X117400000Y118483334D01*
X117066666Y117983334D01*
X116900000Y117316667D01*
X116900000Y115983334D01*
X117066666Y115650000D01*
X117233333Y115483334D01*
X117566666Y115316667D01*
X118233333Y115316667D01*
X118566666Y115483334D01*
X118733333Y115650000D01*
X118900000Y115983334D01*
X118900000Y116816667D01*
X118733333Y117150000D01*
X118566666Y117316667D01*
X118233333Y117483334D01*
X117566666Y117483334D01*
X117233333Y117316667D01*
X117066666Y117150000D01*
X116900000Y116816667D01*
D10*
D11*
X133068866Y93816667D02*
X134735533Y93816667D01*
X132735533Y92816667D02*
X133902200Y96316667D01*
X135068866Y92816667D01*
D10*
D11*
X134152200Y44650000D02*
X134652200Y44483334D01*
X134818866Y44316667D01*
X134985533Y43983334D01*
X134985533Y43483334D01*
X134818866Y43150000D01*
X134652200Y42983334D01*
X134318866Y42816667D01*
X132985533Y42816667D01*
X132985533Y46316667D01*
X134152200Y46316667D01*
X134485533Y46150000D01*
X134652200Y45983334D01*
X134818866Y45650000D01*
X134818866Y45316667D01*
X134652200Y44983334D01*
X134485533Y44816667D01*
X134152200Y44650000D01*
X132985533Y44650000D01*
D10*
D11*
X134985533Y-6850000D02*
X134818866Y-7016666D01*
X134318866Y-7183333D01*
X133985533Y-7183333D01*
X133485533Y-7016666D01*
X133152200Y-6683333D01*
X132985533Y-6350000D01*
X132818866Y-5683333D01*
X132818866Y-5183333D01*
X132985533Y-4516666D01*
X133152200Y-4183333D01*
X133485533Y-3850000D01*
X133985533Y-3683333D01*
X134318866Y-3683333D01*
X134818866Y-3850000D01*
X134985533Y-4016666D01*
D10*
D11*
X132985533Y-57183333D02*
X132985533Y-53683333D01*
X133818866Y-53683333D01*
X134318866Y-53850000D01*
X134652200Y-54183333D01*
X134818866Y-54516666D01*
X134985533Y-55183333D01*
X134985533Y-55683333D01*
X134818866Y-56350000D01*
X134652200Y-56683333D01*
X134318866Y-57016666D01*
X133818866Y-57183333D01*
X132985533Y-57183333D01*
D10*
G36*
X-155600000Y124400000D02*
G01*
X-145600000Y124400000D01*
X-145600000Y119400000D01*
X-150600000Y119400000D01*
X-150600000Y114400000D01*
X-155600000Y114400000D01*
X-155600000Y124400000D01*
G37*
D11*
X-155600000Y124400000D02*
X-145600000Y124400000D01*
X-145600000Y119400000D01*
X-150600000Y119400000D01*
X-150600000Y114400000D01*
X-155600000Y114400000D01*
X-155600000Y124400000D01*
D10*
G36*
X-155600000Y-85607199D02*
G01*
X-155600000Y-75607199D01*
X-150600000Y-75607199D01*
X-150600000Y-80607199D01*
X-145600000Y-80607199D01*
X-145600000Y-85607199D01*
X-155600000Y-85607199D01*
G37*
D11*
X-155600000Y-85607199D02*
X-155600000Y-75607199D01*
X-150600000Y-75607199D01*
X-150600000Y-80607199D01*
X-145600000Y-80607199D01*
X-145600000Y-85607199D01*
X-155600000Y-85607199D01*
D10*
G36*
X141402200Y124400000D02*
G01*
X141402200Y114400000D01*
X136402200Y114400000D01*
X136402200Y119400000D01*
X131402200Y119400000D01*
X131402200Y124400000D01*
X141402200Y124400000D01*
G37*
D11*
X141402200Y124400000D02*
X141402200Y114400000D01*
X136402200Y114400000D01*
X136402200Y119400000D01*
X131402200Y119400000D01*
X131402200Y124400000D01*
X141402200Y124400000D01*
D10*
G36*
X141402200Y-85607199D02*
G01*
X131402200Y-85607199D01*
X131402200Y-80607199D01*
X136402200Y-80607199D01*
X136402200Y-75607199D01*
X141402200Y-75607199D01*
X141402200Y-85607199D01*
G37*
D11*
X141402200Y-85607199D02*
X131402200Y-85607199D01*
X131402200Y-80607199D01*
X136402200Y-80607199D01*
X136402200Y-75607199D01*
X141402200Y-75607199D01*
X141402200Y-85607199D01*
D10*
D12*
X131402200Y-75607200D02*
X131402200Y-30607200D01*
X-48597800Y-30607200D01*
X-48597800Y-75607200D01*
X131402200Y-75607200D01*
D10*
D11*
X131402200Y-48607200D02*
X-48597800Y-48607200D01*
D10*
D11*
X131402200Y-57607200D02*
X-48597800Y-57607200D01*
D10*
D11*
X131402200Y-66607200D02*
X-48597800Y-66607200D01*
D10*
D11*
X-16597800Y-30607200D02*
X-16597800Y-48607200D01*
D10*
D11*
X25402200Y-30607200D02*
X25402200Y-57607200D01*
D10*
D11*
X67402200Y-30607200D02*
X67402200Y-48607200D01*
D10*
D11*
X80402200Y-57607200D02*
X80402200Y-75607200D01*
D10*
D11*
X98292200Y-66607000D02*
X98292200Y-75607000D01*
D10*
D11*
X122402200Y-66607200D02*
X122402200Y-75607200D01*
D10*
D14*
X-46956848Y-33416723D02*
X-46671134Y-33511961D01*
X-46194943Y-33511961D01*
X-46004467Y-33416723D01*
X-45909229Y-33321485D01*
X-45813991Y-33131009D01*
X-45813991Y-32940533D01*
X-45909229Y-32750057D01*
X-46004467Y-32654819D01*
X-46194943Y-32559580D01*
X-46575896Y-32464342D01*
X-46766372Y-32369104D01*
X-46861610Y-32273866D01*
X-46956848Y-32083390D01*
X-46956848Y-31892914D01*
X-46861610Y-31702438D01*
X-46766372Y-31607200D01*
X-46575896Y-31511961D01*
X-46099705Y-31511961D01*
X-45813991Y-31607200D01*
X-45242562Y-31511961D02*
X-44099705Y-31511961D01*
X-44671134Y-33511961D02*
X-44671134Y-31511961D01*
X-43528277Y-32940533D02*
X-42575896Y-32940533D01*
X-43718753Y-33511961D02*
X-43052086Y-31511961D01*
X-42385420Y-33511961D01*
X-42004467Y-31511961D02*
X-40861610Y-31511961D01*
X-41433039Y-33511961D02*
X-41433039Y-31511961D01*
X-40194943Y-31511961D02*
X-40194943Y-33131009D01*
X-40099705Y-33321485D01*
X-40004467Y-33416723D01*
X-39813991Y-33511961D01*
X-39433039Y-33511961D01*
X-39242562Y-33416723D01*
X-39147324Y-33321485D01*
X-39052086Y-33131009D01*
X-39052086Y-31511961D01*
X-38194943Y-33416723D02*
X-37909229Y-33511961D01*
X-37433039Y-33511961D01*
X-37242562Y-33416723D01*
X-37147324Y-33321485D01*
X-37052086Y-33131009D01*
X-37052086Y-32940533D01*
X-37147324Y-32750057D01*
X-37242562Y-32654819D01*
X-37433039Y-32559580D01*
X-37813991Y-32464342D01*
X-38004467Y-32369104D01*
X-38099705Y-32273866D01*
X-38194943Y-32083390D01*
X-38194943Y-31892914D01*
X-38099705Y-31702438D01*
X-38004467Y-31607200D01*
X-37813991Y-31511961D01*
X-37337800Y-31511961D01*
X-37052086Y-31607200D01*
D10*
D14*
X-15147324Y-31511961D02*
X-14004467Y-31511961D01*
X-14575896Y-33511961D02*
X-14575896Y-31511961D01*
X-13337800Y-32464342D02*
X-12671134Y-32464342D01*
X-12385420Y-33511961D02*
X-13337800Y-33511961D01*
X-13337800Y-31511961D01*
X-12385420Y-31511961D01*
X-10385420Y-33321485D02*
X-10480658Y-33416723D01*
X-10766372Y-33511961D01*
X-10956848Y-33511961D01*
X-11242562Y-33416723D01*
X-11433039Y-33226247D01*
X-11528277Y-33035771D01*
X-11623515Y-32654819D01*
X-11623515Y-32369104D01*
X-11528277Y-31988152D01*
X-11433039Y-31797676D01*
X-11242562Y-31607200D01*
X-10956848Y-31511961D01*
X-10766372Y-31511961D01*
X-10480658Y-31607200D01*
X-10385420Y-31702438D01*
X-9528277Y-33511961D02*
X-9528277Y-31511961D01*
X-9528277Y-32464342D02*
X-8385420Y-32464342D01*
X-8385420Y-33511961D02*
X-8385420Y-31511961D01*
X-7433039Y-33511961D02*
X-7433039Y-31511961D01*
X-6290181Y-33511961D01*
X-6290181Y-31511961D01*
X-5337800Y-33511961D02*
X-5337800Y-31511961D01*
X-3242562Y-33321485D02*
X-3337800Y-33416723D01*
X-3623515Y-33511961D01*
X-3813991Y-33511961D01*
X-4099705Y-33416723D01*
X-4290181Y-33226247D01*
X-4385420Y-33035771D01*
X-4480658Y-32654819D01*
X-4480658Y-32369104D01*
X-4385420Y-31988152D01*
X-4290181Y-31797676D01*
X-4099705Y-31607200D01*
X-3813991Y-31511961D01*
X-3623515Y-31511961D01*
X-3337800Y-31607200D01*
X-3242562Y-31702438D01*
X-2480658Y-32940533D02*
X-1528277Y-32940533D01*
X-2671134Y-33511961D02*
X-2004467Y-31511961D01*
X-1337800Y-33511961D01*
X281247Y-33511961D02*
X-671134Y-33511961D01*
X-671134Y-31511961D01*
X3614580Y-33511961D02*
X2947914Y-32559580D01*
X2471723Y-33511961D02*
X2471723Y-31511961D01*
X3233628Y-31511961D01*
X3424104Y-31607200D01*
X3519342Y-31702438D01*
X3614580Y-31892914D01*
X3614580Y-32178628D01*
X3519342Y-32369104D01*
X3424104Y-32464342D01*
X3233628Y-32559580D01*
X2471723Y-32559580D01*
X4471723Y-32464342D02*
X5138390Y-32464342D01*
X5424104Y-33511961D02*
X4471723Y-33511961D01*
X4471723Y-31511961D01*
X5424104Y-31511961D01*
X6947914Y-32464342D02*
X6281247Y-32464342D01*
X6281247Y-33511961D02*
X6281247Y-31511961D01*
X7233628Y-31511961D01*
X7995533Y-32464342D02*
X8662200Y-32464342D01*
X8947914Y-33511961D02*
X7995533Y-33511961D01*
X7995533Y-31511961D01*
X8947914Y-31511961D01*
X10947914Y-33511961D02*
X10281247Y-32559580D01*
X9805057Y-33511961D02*
X9805057Y-31511961D01*
X10566961Y-31511961D01*
X10757438Y-31607200D01*
X10852676Y-31702438D01*
X10947914Y-31892914D01*
X10947914Y-32178628D01*
X10852676Y-32369104D01*
X10757438Y-32464342D01*
X10566961Y-32559580D01*
X9805057Y-32559580D01*
X11805057Y-32464342D02*
X12471723Y-32464342D01*
X12757438Y-33511961D02*
X11805057Y-33511961D01*
X11805057Y-31511961D01*
X12757438Y-31511961D01*
X13614580Y-33511961D02*
X13614580Y-31511961D01*
X14757438Y-33511961D01*
X14757438Y-31511961D01*
X16852676Y-33321485D02*
X16757438Y-33416723D01*
X16471723Y-33511961D01*
X16281247Y-33511961D01*
X15995533Y-33416723D01*
X15805057Y-33226247D01*
X15709819Y-33035771D01*
X15614580Y-32654819D01*
X15614580Y-32369104D01*
X15709819Y-31988152D01*
X15805057Y-31797676D01*
X15995533Y-31607200D01*
X16281247Y-31511961D01*
X16471723Y-31511961D01*
X16757438Y-31607200D01*
X16852676Y-31702438D01*
X17709819Y-32464342D02*
X18376485Y-32464342D01*
X18662200Y-33511961D02*
X17709819Y-33511961D01*
X17709819Y-31511961D01*
X18662200Y-31511961D01*
D10*
D14*
X27043152Y-33416723D02*
X27328866Y-33511961D01*
X27805057Y-33511961D01*
X27995533Y-33416723D01*
X28090771Y-33321485D01*
X28186009Y-33131009D01*
X28186009Y-32940533D01*
X28090771Y-32750057D01*
X27995533Y-32654819D01*
X27805057Y-32559580D01*
X27424104Y-32464342D01*
X27233628Y-32369104D01*
X27138390Y-32273866D01*
X27043152Y-32083390D01*
X27043152Y-31892914D01*
X27138390Y-31702438D01*
X27233628Y-31607200D01*
X27424104Y-31511961D01*
X27900295Y-31511961D01*
X28186009Y-31607200D01*
X28757438Y-31511961D02*
X29900295Y-31511961D01*
X29328866Y-33511961D02*
X29328866Y-31511961D01*
X30471723Y-32940533D02*
X31424104Y-32940533D01*
X30281247Y-33511961D02*
X30947914Y-31511961D01*
X31614580Y-33511961D01*
X32281247Y-33511961D02*
X32281247Y-31511961D01*
X33424104Y-33511961D01*
X33424104Y-31511961D01*
X34376485Y-33511961D02*
X34376485Y-31511961D01*
X34852676Y-31511961D01*
X35138390Y-31607200D01*
X35328866Y-31797676D01*
X35424104Y-31988152D01*
X35519342Y-32369104D01*
X35519342Y-32654819D01*
X35424104Y-33035771D01*
X35328866Y-33226247D01*
X35138390Y-33416723D01*
X34852676Y-33511961D01*
X34376485Y-33511961D01*
X36281247Y-32940533D02*
X37233628Y-32940533D01*
X36090771Y-33511961D02*
X36757438Y-31511961D01*
X37424104Y-33511961D01*
X39233628Y-33511961D02*
X38566961Y-32559580D01*
X38090771Y-33511961D02*
X38090771Y-31511961D01*
X38852676Y-31511961D01*
X39043152Y-31607200D01*
X39138390Y-31702438D01*
X39233628Y-31892914D01*
X39233628Y-32178628D01*
X39138390Y-32369104D01*
X39043152Y-32464342D01*
X38852676Y-32559580D01*
X38090771Y-32559580D01*
X40090771Y-33511961D02*
X40090771Y-31511961D01*
X40566961Y-31511961D01*
X40852676Y-31607200D01*
X41043152Y-31797676D01*
X41138390Y-31988152D01*
X41233628Y-32369104D01*
X41233628Y-32654819D01*
X41138390Y-33035771D01*
X41043152Y-33226247D01*
X40852676Y-33416723D01*
X40566961Y-33511961D01*
X40090771Y-33511961D01*
D10*
D14*
X70090771Y-33511961D02*
X69138390Y-33511961D01*
X69138390Y-31511961D01*
X70757438Y-33511961D02*
X70757438Y-31511961D01*
X72852676Y-33321485D02*
X72757438Y-33416723D01*
X72471723Y-33511961D01*
X72281247Y-33511961D01*
X71995533Y-33416723D01*
X71805057Y-33226247D01*
X71709819Y-33035771D01*
X71614580Y-32654819D01*
X71614580Y-32369104D01*
X71709819Y-31988152D01*
X71805057Y-31797676D01*
X71995533Y-31607200D01*
X72281247Y-31511961D01*
X72471723Y-31511961D01*
X72757438Y-31607200D01*
X72852676Y-31702438D01*
X73709819Y-32464342D02*
X74376485Y-32464342D01*
X74662200Y-33511961D02*
X73709819Y-33511961D01*
X73709819Y-31511961D01*
X74662200Y-31511961D01*
X75519342Y-33511961D02*
X75519342Y-31511961D01*
X76662200Y-33511961D01*
X76662200Y-31511961D01*
X77519342Y-33416723D02*
X77805057Y-33511961D01*
X78281247Y-33511961D01*
X78471723Y-33416723D01*
X78566961Y-33321485D01*
X78662200Y-33131009D01*
X78662200Y-32940533D01*
X78566961Y-32750057D01*
X78471723Y-32654819D01*
X78281247Y-32559580D01*
X77900295Y-32464342D01*
X77709819Y-32369104D01*
X77614580Y-32273866D01*
X77519342Y-32083390D01*
X77519342Y-31892914D01*
X77614580Y-31702438D01*
X77709819Y-31607200D01*
X77900295Y-31511961D01*
X78376485Y-31511961D01*
X78662200Y-31607200D01*
X79519342Y-32464342D02*
X80186009Y-32464342D01*
X80471723Y-33511961D02*
X79519342Y-33511961D01*
X79519342Y-31511961D01*
X80471723Y-31511961D01*
D10*
D14*
X27043152Y-41940533D02*
X27995533Y-41940533D01*
X26852676Y-42511961D02*
X27519342Y-40511961D01*
X28186009Y-42511961D01*
X28757438Y-42416723D02*
X29043152Y-42511961D01*
X29519342Y-42511961D01*
X29709819Y-42416723D01*
X29805057Y-42321485D01*
X29900295Y-42131009D01*
X29900295Y-41940533D01*
X29805057Y-41750057D01*
X29709819Y-41654819D01*
X29519342Y-41559580D01*
X29138390Y-41464342D01*
X28947914Y-41369104D01*
X28852676Y-41273866D01*
X28757438Y-41083390D01*
X28757438Y-40892914D01*
X28852676Y-40702438D01*
X28947914Y-40607200D01*
X29138390Y-40511961D01*
X29614580Y-40511961D01*
X29900295Y-40607200D01*
X30662200Y-42416723D02*
X30947914Y-42511961D01*
X31424104Y-42511961D01*
X31614580Y-42416723D01*
X31709819Y-42321485D01*
X31805057Y-42131009D01*
X31805057Y-41940533D01*
X31709819Y-41750057D01*
X31614580Y-41654819D01*
X31424104Y-41559580D01*
X31043152Y-41464342D01*
X30852676Y-41369104D01*
X30757438Y-41273866D01*
X30662200Y-41083390D01*
X30662200Y-40892914D01*
X30757438Y-40702438D01*
X30852676Y-40607200D01*
X31043152Y-40511961D01*
X31519342Y-40511961D01*
X31805057Y-40607200D01*
X32662200Y-41464342D02*
X33328866Y-41464342D01*
X33614580Y-42511961D02*
X32662200Y-42511961D01*
X32662200Y-40511961D01*
X33614580Y-40511961D01*
X34471723Y-42511961D02*
X34471723Y-40511961D01*
X35138390Y-41940533D01*
X35805057Y-40511961D01*
X35805057Y-42511961D01*
X37424104Y-41464342D02*
X37709819Y-41559580D01*
X37805057Y-41654819D01*
X37900295Y-41845295D01*
X37900295Y-42131009D01*
X37805057Y-42321485D01*
X37709819Y-42416723D01*
X37519342Y-42511961D01*
X36757438Y-42511961D01*
X36757438Y-40511961D01*
X37424104Y-40511961D01*
X37614580Y-40607200D01*
X37709819Y-40702438D01*
X37805057Y-40892914D01*
X37805057Y-41083390D01*
X37709819Y-41273866D01*
X37614580Y-41369104D01*
X37424104Y-41464342D01*
X36757438Y-41464342D01*
X39709819Y-42511961D02*
X38757438Y-42511961D01*
X38757438Y-40511961D01*
X40757438Y-41559580D02*
X40757438Y-42511961D01*
X40090771Y-40511961D02*
X40757438Y-41559580D01*
X41424104Y-40511961D01*
X43614580Y-42511961D02*
X43614580Y-40511961D01*
X44757438Y-42511961D01*
X44757438Y-40511961D01*
X45709819Y-40511961D02*
X45709819Y-42131009D01*
X45805057Y-42321485D01*
X45900295Y-42416723D01*
X46090771Y-42511961D01*
X46471723Y-42511961D01*
X46662200Y-42416723D01*
X46757438Y-42321485D01*
X46852676Y-42131009D01*
X46852676Y-40511961D01*
X47805057Y-42511961D02*
X47805057Y-40511961D01*
X48471723Y-41940533D01*
X49138390Y-40511961D01*
X49138390Y-42511961D01*
X50757438Y-41464342D02*
X51043152Y-41559580D01*
X51138390Y-41654819D01*
X51233628Y-41845295D01*
X51233628Y-42131009D01*
X51138390Y-42321485D01*
X51043152Y-42416723D01*
X50852676Y-42511961D01*
X50090771Y-42511961D01*
X50090771Y-40511961D01*
X50757438Y-40511961D01*
X50947914Y-40607200D01*
X51043152Y-40702438D01*
X51138390Y-40892914D01*
X51138390Y-41083390D01*
X51043152Y-41273866D01*
X50947914Y-41369104D01*
X50757438Y-41464342D01*
X50090771Y-41464342D01*
X52090771Y-41464342D02*
X52757438Y-41464342D01*
X53043152Y-42511961D02*
X52090771Y-42511961D01*
X52090771Y-40511961D01*
X53043152Y-40511961D01*
X55043152Y-42511961D02*
X54376485Y-41559580D01*
X53900295Y-42511961D02*
X53900295Y-40511961D01*
X54662200Y-40511961D01*
X54852676Y-40607200D01*
X54947914Y-40702438D01*
X55043152Y-40892914D01*
X55043152Y-41178628D01*
X54947914Y-41369104D01*
X54852676Y-41464342D01*
X54662200Y-41559580D01*
X53900295Y-41559580D01*
D10*
D14*
X69138390Y-42511961D02*
X69138390Y-40511961D01*
X70090771Y-42511961D02*
X70090771Y-40511961D01*
X70566961Y-40511961D01*
X70852676Y-40607200D01*
X71043152Y-40797676D01*
X71138390Y-40988152D01*
X71233628Y-41369104D01*
X71233628Y-41654819D01*
X71138390Y-42035771D01*
X71043152Y-42226247D01*
X70852676Y-42416723D01*
X70566961Y-42511961D01*
X70090771Y-42511961D01*
D10*
D14*
X81852676Y-67511961D02*
X82519342Y-69511961D01*
X83186009Y-67511961D01*
X83852676Y-68464342D02*
X84519342Y-68464342D01*
X84805057Y-69511961D02*
X83852676Y-69511961D01*
X83852676Y-67511961D01*
X84805057Y-67511961D01*
X86805057Y-69511961D02*
X86138390Y-68559580D01*
X85662200Y-69511961D02*
X85662200Y-67511961D01*
X86424104Y-67511961D01*
X86614580Y-67607200D01*
X86709819Y-67702438D01*
X86805057Y-67892914D01*
X86805057Y-68178628D01*
X86709819Y-68369104D01*
X86614580Y-68464342D01*
X86424104Y-68559580D01*
X85662200Y-68559580D01*
X87662200Y-69321485D02*
X87757438Y-69416723D01*
X87662200Y-69511961D01*
X87566961Y-69416723D01*
X87662200Y-69321485D01*
X87662200Y-69511961D01*
X90043152Y-67416723D02*
X88328866Y-69988152D01*
X91852676Y-69511961D02*
X91186009Y-68559580D01*
X90709819Y-69511961D02*
X90709819Y-67511961D01*
X91471723Y-67511961D01*
X91662200Y-67607200D01*
X91757438Y-67702438D01*
X91852676Y-67892914D01*
X91852676Y-68178628D01*
X91757438Y-68369104D01*
X91662200Y-68464342D01*
X91471723Y-68559580D01*
X90709819Y-68559580D01*
X92709819Y-68464342D02*
X93376485Y-68464342D01*
X93662200Y-69511961D02*
X92709819Y-69511961D01*
X92709819Y-67511961D01*
X93662200Y-67511961D01*
X94233628Y-67511961D02*
X94900295Y-69511961D01*
X95566961Y-67511961D01*
X96233628Y-69321485D02*
X96328866Y-69416723D01*
X96233628Y-69511961D01*
X96138390Y-69416723D01*
X96233628Y-69321485D01*
X96233628Y-69511961D01*
D10*
D14*
X99138390Y-69511961D02*
X99138390Y-67511961D01*
X99614580Y-67511961D01*
X99900295Y-67607200D01*
X100090771Y-67797676D01*
X100186009Y-67988152D01*
X100281247Y-68369104D01*
X100281247Y-68654819D01*
X100186009Y-69035771D01*
X100090771Y-69226247D01*
X99900295Y-69416723D01*
X99614580Y-69511961D01*
X99138390Y-69511961D01*
X101043152Y-68940533D02*
X101995533Y-68940533D01*
X100852676Y-69511961D02*
X101519342Y-67511961D01*
X102186009Y-69511961D01*
X102566961Y-67511961D02*
X103709819Y-67511961D01*
X103138390Y-69511961D02*
X103138390Y-67511961D01*
X104376485Y-68464342D02*
X105043152Y-68464342D01*
X105328866Y-69511961D02*
X104376485Y-69511961D01*
X104376485Y-67511961D01*
X105328866Y-67511961D01*
D10*
D14*
X123043152Y-69416723D02*
X123328866Y-69511961D01*
X123805057Y-69511961D01*
X123995533Y-69416723D01*
X124090771Y-69321485D01*
X124186009Y-69131009D01*
X124186009Y-68940533D01*
X124090771Y-68750057D01*
X123995533Y-68654819D01*
X123805057Y-68559580D01*
X123424104Y-68464342D01*
X123233628Y-68369104D01*
X123138390Y-68273866D01*
X123043152Y-68083390D01*
X123043152Y-67892914D01*
X123138390Y-67702438D01*
X123233628Y-67607200D01*
X123424104Y-67511961D01*
X123900295Y-67511961D01*
X124186009Y-67607200D01*
X125043152Y-69511961D02*
X125043152Y-67511961D01*
X125043152Y-68464342D02*
X126186009Y-68464342D01*
X126186009Y-69511961D02*
X126186009Y-67511961D01*
X127138390Y-68464342D02*
X127805057Y-68464342D01*
X128090771Y-69511961D02*
X127138390Y-69511961D01*
X127138390Y-67511961D01*
X128090771Y-67511961D01*
X128947914Y-68464342D02*
X129614580Y-68464342D01*
X129900295Y-69511961D02*
X128947914Y-69511961D01*
X128947914Y-67511961D01*
X129900295Y-67511961D01*
X130471723Y-67511961D02*
X131614580Y-67511961D01*
X131043152Y-69511961D02*
X131043152Y-67511961D01*
D10*
D11*
X69124819Y-45771485D02*
X70877200Y-45771485D01*
D10*
D15*
X88533152Y-62497676D02*
X88533152Y-61292914D01*
X88423628Y-61073866D01*
X88204580Y-60964342D01*
X87766485Y-60964342D01*
X87547438Y-61073866D01*
X88533152Y-62388152D02*
X88314104Y-62497676D01*
X87766485Y-62497676D01*
X87547438Y-62388152D01*
X87437914Y-62169104D01*
X87437914Y-61950057D01*
X87547438Y-61731009D01*
X87766485Y-61621485D01*
X88314104Y-61621485D01*
X88533152Y-61511961D01*
X89518866Y-62388152D02*
X89737914Y-62497676D01*
X90176009Y-62497676D01*
X90395057Y-62388152D01*
X90504580Y-62169104D01*
X90504580Y-62059580D01*
X90395057Y-61840533D01*
X90176009Y-61731009D01*
X89847438Y-61731009D01*
X89628390Y-61621485D01*
X89518866Y-61402438D01*
X89518866Y-61292914D01*
X89628390Y-61073866D01*
X89847438Y-60964342D01*
X90176009Y-60964342D01*
X90395057Y-61073866D01*
X91161723Y-60964342D02*
X92037914Y-60964342D01*
X91490295Y-60197676D02*
X91490295Y-62169104D01*
X91599819Y-62388152D01*
X91818866Y-62497676D01*
X92037914Y-62497676D01*
X92804580Y-62497676D02*
X92804580Y-60964342D01*
X92804580Y-61402438D02*
X92914104Y-61183390D01*
X93023628Y-61073866D01*
X93242676Y-60964342D01*
X93461723Y-60964342D01*
X94556961Y-62497676D02*
X94337914Y-62388152D01*
X94228390Y-62278628D01*
X94118866Y-62059580D01*
X94118866Y-61402438D01*
X94228390Y-61183390D01*
X94337914Y-61073866D01*
X94556961Y-60964342D01*
X94885533Y-60964342D01*
X95104580Y-61073866D01*
X95214104Y-61183390D01*
X95323628Y-61402438D01*
X95323628Y-62059580D01*
X95214104Y-62278628D01*
X95104580Y-62388152D01*
X94885533Y-62497676D01*
X94556961Y-62497676D01*
X97185533Y-62388152D02*
X96966485Y-62497676D01*
X96528390Y-62497676D01*
X96309342Y-62388152D01*
X96199819Y-62169104D01*
X96199819Y-61292914D01*
X96309342Y-61073866D01*
X96528390Y-60964342D01*
X96966485Y-60964342D01*
X97185533Y-61073866D01*
X97295057Y-61292914D01*
X97295057Y-61511961D01*
X96199819Y-61731009D01*
X98609342Y-62497676D02*
X98390295Y-62388152D01*
X98280771Y-62169104D01*
X98280771Y-60197676D01*
X100361723Y-62388152D02*
X100142676Y-62497676D01*
X99704580Y-62497676D01*
X99485533Y-62388152D01*
X99376009Y-62169104D01*
X99376009Y-61292914D01*
X99485533Y-61073866D01*
X99704580Y-60964342D01*
X100142676Y-60964342D01*
X100361723Y-61073866D01*
X100471247Y-61292914D01*
X100471247Y-61511961D01*
X99376009Y-61731009D01*
X102442676Y-62388152D02*
X102223628Y-62497676D01*
X101785533Y-62497676D01*
X101566485Y-62388152D01*
X101456961Y-62278628D01*
X101347438Y-62059580D01*
X101347438Y-61402438D01*
X101456961Y-61183390D01*
X101566485Y-61073866D01*
X101785533Y-60964342D01*
X102223628Y-60964342D01*
X102442676Y-61073866D01*
X103099819Y-60964342D02*
X103976009Y-60964342D01*
X103428390Y-60197676D02*
X103428390Y-62169104D01*
X103537914Y-62388152D01*
X103756961Y-62497676D01*
X103976009Y-62497676D01*
X104742676Y-62497676D02*
X104742676Y-60964342D01*
X104742676Y-61402438D02*
X104852200Y-61183390D01*
X104961723Y-61073866D01*
X105180771Y-60964342D01*
X105399819Y-60964342D01*
X106495057Y-62497676D02*
X106276009Y-62388152D01*
X106166485Y-62278628D01*
X106056961Y-62059580D01*
X106056961Y-61402438D01*
X106166485Y-61183390D01*
X106276009Y-61073866D01*
X106495057Y-60964342D01*
X106823628Y-60964342D01*
X107042676Y-61073866D01*
X107152200Y-61183390D01*
X107261723Y-61402438D01*
X107261723Y-62059580D01*
X107152200Y-62278628D01*
X107042676Y-62388152D01*
X106823628Y-62497676D01*
X106495057Y-62497676D01*
X108247438Y-60964342D02*
X108247438Y-62497676D01*
X108247438Y-61183390D02*
X108356961Y-61073866D01*
X108576009Y-60964342D01*
X108904580Y-60964342D01*
X109123628Y-61073866D01*
X109233152Y-61292914D01*
X109233152Y-62497676D01*
X110328390Y-62497676D02*
X110328390Y-60964342D01*
X110328390Y-60197676D02*
X110218866Y-60307200D01*
X110328390Y-60416723D01*
X110437914Y-60307200D01*
X110328390Y-60197676D01*
X110328390Y-60416723D01*
X112409342Y-62388152D02*
X112190295Y-62497676D01*
X111752200Y-62497676D01*
X111533152Y-62388152D01*
X111423628Y-62278628D01*
X111314104Y-62059580D01*
X111314104Y-61402438D01*
X111423628Y-61183390D01*
X111533152Y-61073866D01*
X111752200Y-60964342D01*
X112190295Y-60964342D01*
X112409342Y-61073866D01*
X114818866Y-61402438D02*
X114709342Y-61292914D01*
X114490295Y-61183390D01*
X114271247Y-61183390D01*
X114052200Y-61292914D01*
X113942676Y-61402438D01*
X113833152Y-61621485D01*
X113833152Y-61840533D01*
X113942676Y-62059580D01*
X114052200Y-62169104D01*
X114271247Y-62278628D01*
X114490295Y-62278628D01*
X114709342Y-62169104D01*
X114818866Y-62059580D01*
X114818866Y-61183390D02*
X114818866Y-62059580D01*
X114928390Y-62169104D01*
X115037914Y-62169104D01*
X115256961Y-62059580D01*
X115366485Y-61840533D01*
X115366485Y-61292914D01*
X115147438Y-60964342D01*
X114818866Y-60745295D01*
X114380771Y-60635771D01*
X113942676Y-60745295D01*
X113614104Y-60964342D01*
X113395057Y-61292914D01*
X113285533Y-61731009D01*
X113395057Y-62169104D01*
X113614104Y-62497676D01*
X113942676Y-62716723D01*
X114380771Y-62826247D01*
X114818866Y-62716723D01*
X115147438Y-62497676D01*
D10*
D11*
X81796247Y-71347676D02*
X82562914Y-73647676D01*
X83329580Y-71347676D01*
X85301009Y-73647676D02*
X83986723Y-73647676D01*
X84643866Y-73647676D02*
X84643866Y-71347676D01*
X84424819Y-71676247D01*
X84205771Y-71895295D01*
X83986723Y-72004819D01*
X87601009Y-73647676D02*
X86834342Y-72552438D01*
X86286723Y-73647676D02*
X86286723Y-71347676D01*
X87162914Y-71347676D01*
X87381961Y-71457200D01*
X87491485Y-71566723D01*
X87601009Y-71785771D01*
X87601009Y-72114342D01*
X87491485Y-72333390D01*
X87381961Y-72442914D01*
X87162914Y-72552438D01*
X86286723Y-72552438D01*
X89024819Y-71347676D02*
X89243866Y-71347676D01*
X89462914Y-71457200D01*
X89572438Y-71566723D01*
X89681961Y-71785771D01*
X89791485Y-72223866D01*
X89791485Y-72771485D01*
X89681961Y-73209580D01*
X89572438Y-73428628D01*
X89462914Y-73538152D01*
X89243866Y-73647676D01*
X89024819Y-73647676D01*
X88805771Y-73538152D01*
X88696247Y-73428628D01*
X88586723Y-73209580D01*
X88477200Y-72771485D01*
X88477200Y-72223866D01*
X88586723Y-71785771D01*
X88696247Y-71566723D01*
X88805771Y-71457200D01*
X89024819Y-71347676D01*
D10*
D11*
X99015295Y-71566723D02*
X99124819Y-71457200D01*
X99343866Y-71347676D01*
X99891485Y-71347676D01*
X100110533Y-71457200D01*
X100220057Y-71566723D01*
X100329580Y-71785771D01*
X100329580Y-72004819D01*
X100220057Y-72333390D01*
X98905771Y-73647676D01*
X100329580Y-73647676D01*
X101753390Y-71347676D02*
X101972438Y-71347676D01*
X102191485Y-71457200D01*
X102301009Y-71566723D01*
X102410533Y-71785771D01*
X102520057Y-72223866D01*
X102520057Y-72771485D01*
X102410533Y-73209580D01*
X102301009Y-73428628D01*
X102191485Y-73538152D01*
X101972438Y-73647676D01*
X101753390Y-73647676D01*
X101534342Y-73538152D01*
X101424819Y-73428628D01*
X101315295Y-73209580D01*
X101205771Y-72771485D01*
X101205771Y-72223866D01*
X101315295Y-71785771D01*
X101424819Y-71566723D01*
X101534342Y-71457200D01*
X101753390Y-71347676D01*
X103396247Y-71566723D02*
X103505771Y-71457200D01*
X103724819Y-71347676D01*
X104272438Y-71347676D01*
X104491485Y-71457200D01*
X104601009Y-71566723D01*
X104710533Y-71785771D01*
X104710533Y-72004819D01*
X104601009Y-72333390D01*
X103286723Y-73647676D01*
X104710533Y-73647676D01*
X105586723Y-71566723D02*
X105696247Y-71457200D01*
X105915295Y-71347676D01*
X106462914Y-71347676D01*
X106681961Y-71457200D01*
X106791485Y-71566723D01*
X106901009Y-71785771D01*
X106901009Y-72004819D01*
X106791485Y-72333390D01*
X105477200Y-73647676D01*
X106901009Y-73647676D01*
X107886723Y-72771485D02*
X109639104Y-72771485D01*
X111172438Y-71347676D02*
X111391485Y-71347676D01*
X111610533Y-71457200D01*
X111720057Y-71566723D01*
X111829580Y-71785771D01*
X111939104Y-72223866D01*
X111939104Y-72771485D01*
X111829580Y-73209580D01*
X111720057Y-73428628D01*
X111610533Y-73538152D01*
X111391485Y-73647676D01*
X111172438Y-73647676D01*
X110953390Y-73538152D01*
X110843866Y-73428628D01*
X110734342Y-73209580D01*
X110624819Y-72771485D01*
X110624819Y-72223866D01*
X110734342Y-71785771D01*
X110843866Y-71566723D01*
X110953390Y-71457200D01*
X111172438Y-71347676D01*
X113910533Y-72114342D02*
X113910533Y-73647676D01*
X113362914Y-71238152D02*
X112815295Y-72881009D01*
X114239104Y-72881009D01*
X115115295Y-72771485D02*
X116867676Y-72771485D01*
X118401009Y-71347676D02*
X118620057Y-71347676D01*
X118839104Y-71457200D01*
X118948628Y-71566723D01*
X119058152Y-71785771D01*
X119167676Y-72223866D01*
X119167676Y-72771485D01*
X119058152Y-73209580D01*
X118948628Y-73428628D01*
X118839104Y-73538152D01*
X118620057Y-73647676D01*
X118401009Y-73647676D01*
X118181961Y-73538152D01*
X118072438Y-73428628D01*
X117962914Y-73209580D01*
X117853390Y-72771485D01*
X117853390Y-72223866D01*
X117962914Y-71785771D01*
X118072438Y-71566723D01*
X118181961Y-71457200D01*
X118401009Y-71347676D01*
X119934342Y-71347676D02*
X121358152Y-71347676D01*
X120591485Y-72223866D01*
X120920057Y-72223866D01*
X121139104Y-72333390D01*
X121248628Y-72442914D01*
X121358152Y-72661961D01*
X121358152Y-73209580D01*
X121248628Y-73428628D01*
X121139104Y-73538152D01*
X120920057Y-73647676D01*
X120262914Y-73647676D01*
X120043866Y-73538152D01*
X119934342Y-73428628D01*
D10*
D11*
X27124819Y-45771485D02*
X28877200Y-45771485D01*
D10*
D11*
X125687914Y-73647676D02*
X124716485Y-73647676D01*
X125202200Y-73647676D02*
X125202200Y-71347676D01*
X125040295Y-71676247D01*
X124878390Y-71895295D01*
X124716485Y-72004819D01*
X127630771Y-71238152D02*
X126173628Y-74195295D01*
X129087914Y-73647676D02*
X128116485Y-73647676D01*
X128602200Y-73647676D02*
X128602200Y-71347676D01*
X128440295Y-71676247D01*
X128278390Y-71895295D01*
X128116485Y-72004819D01*
D10*
D11*
X70439104Y-37428628D02*
X70329580Y-37538152D01*
X70001009Y-37647676D01*
X69781961Y-37647676D01*
X69453390Y-37538152D01*
X69234342Y-37319104D01*
X69124819Y-37100057D01*
X69015295Y-36661961D01*
X69015295Y-36333390D01*
X69124819Y-35895295D01*
X69234342Y-35676247D01*
X69453390Y-35457200D01*
X69781961Y-35347676D01*
X70001009Y-35347676D01*
X70329580Y-35457200D01*
X70439104Y-35566723D01*
X72739104Y-37428628D02*
X72629580Y-37538152D01*
X72301009Y-37647676D01*
X72081961Y-37647676D01*
X71753390Y-37538152D01*
X71534342Y-37319104D01*
X71424819Y-37100057D01*
X71315295Y-36661961D01*
X71315295Y-36333390D01*
X71424819Y-35895295D01*
X71534342Y-35676247D01*
X71753390Y-35457200D01*
X72081961Y-35347676D01*
X72301009Y-35347676D01*
X72629580Y-35457200D01*
X72739104Y-35566723D01*
X76243866Y-36442914D02*
X76572438Y-36552438D01*
X76681961Y-36661961D01*
X76791485Y-36881009D01*
X76791485Y-37209580D01*
X76681961Y-37428628D01*
X76572438Y-37538152D01*
X76353390Y-37647676D01*
X75477200Y-37647676D01*
X75477200Y-35347676D01*
X76243866Y-35347676D01*
X76462914Y-35457200D01*
X76572438Y-35566723D01*
X76681961Y-35785771D01*
X76681961Y-36004819D01*
X76572438Y-36223866D01*
X76462914Y-36333390D01*
X76243866Y-36442914D01*
X75477200Y-36442914D01*
X78215295Y-36552438D02*
X78215295Y-37647676D01*
X77448628Y-35347676D02*
X78215295Y-36552438D01*
X78981961Y-35347676D01*
X79748628Y-36771485D02*
X81501009Y-36771485D01*
X82486723Y-37538152D02*
X82815295Y-37647676D01*
X83362914Y-37647676D01*
X83581961Y-37538152D01*
X83691485Y-37428628D01*
X83801009Y-37209580D01*
X83801009Y-36990533D01*
X83691485Y-36771485D01*
X83581961Y-36661961D01*
X83362914Y-36552438D01*
X82924819Y-36442914D01*
X82705771Y-36333390D01*
X82596247Y-36223866D01*
X82486723Y-36004819D01*
X82486723Y-35785771D01*
X82596247Y-35566723D01*
X82705771Y-35457200D01*
X82924819Y-35347676D01*
X83472438Y-35347676D01*
X83801009Y-35457200D01*
X84677200Y-36990533D02*
X85772438Y-36990533D01*
X84458152Y-37647676D02*
X85224819Y-35347676D01*
X85991485Y-37647676D01*
D10*
D11*
X112329580Y-46647676D02*
X111015295Y-46647676D01*
X111672438Y-46647676D02*
X111672438Y-44347676D01*
X111453390Y-44676247D01*
X111234342Y-44895295D01*
X111015295Y-45004819D01*
X113315295Y-46428628D02*
X113424819Y-46538152D01*
X113315295Y-46647676D01*
X113205771Y-46538152D01*
X113315295Y-46428628D01*
X113315295Y-46647676D01*
X113315295Y-45223866D02*
X113424819Y-45333390D01*
X113315295Y-45442914D01*
X113205771Y-45333390D01*
X113315295Y-45223866D01*
X113315295Y-45442914D01*
X115615295Y-46647676D02*
X114301009Y-46647676D01*
X114958152Y-46647676D02*
X114958152Y-44347676D01*
X114739104Y-44676247D01*
X114520057Y-44895295D01*
X114301009Y-45004819D01*
D10*
D11*
X-14875181Y-37647676D02*
X-14875181Y-35347676D01*
X-12465658Y-37647676D02*
X-13232324Y-36552438D01*
X-13779943Y-37647676D02*
X-13779943Y-35347676D01*
X-12903753Y-35347676D01*
X-12684705Y-35457200D01*
X-12575181Y-35566723D01*
X-12465658Y-35785771D01*
X-12465658Y-36114342D01*
X-12575181Y-36333390D01*
X-12684705Y-36442914D01*
X-12903753Y-36552438D01*
X-13779943Y-36552438D01*
X-11479943Y-37647676D02*
X-11479943Y-35347676D01*
X-10713277Y-36990533D01*
X-9946610Y-35347676D01*
X-9946610Y-37647676D01*
X-8851372Y-36771485D02*
X-7098991Y-36771485D01*
X-5565658Y-35347676D02*
X-5346610Y-35347676D01*
X-5127562Y-35457200D01*
X-5018039Y-35566723D01*
X-4908515Y-35785771D01*
X-4798991Y-36223866D01*
X-4798991Y-36771485D01*
X-4908515Y-37209580D01*
X-5018039Y-37428628D01*
X-5127562Y-37538152D01*
X-5346610Y-37647676D01*
X-5565658Y-37647676D01*
X-5784705Y-37538152D01*
X-5894229Y-37428628D01*
X-6003753Y-37209580D01*
X-6113277Y-36771485D01*
X-6113277Y-36223866D01*
X-6003753Y-35785771D01*
X-5894229Y-35566723D01*
X-5784705Y-35457200D01*
X-5565658Y-35347676D01*
X-4032324Y-35347676D02*
X-2608515Y-35347676D01*
X-3375181Y-36223866D01*
X-3046610Y-36223866D01*
X-2827562Y-36333390D01*
X-2718039Y-36442914D01*
X-2608515Y-36661961D01*
X-2608515Y-37209580D01*
X-2718039Y-37428628D01*
X-2827562Y-37538152D01*
X-3046610Y-37647676D01*
X-3703753Y-37647676D01*
X-3922800Y-37538152D01*
X-4032324Y-37428628D01*
X-1622800Y-36771485D02*
X129580Y-36771485D01*
X1115295Y-35566723D02*
X1224819Y-35457200D01*
X1443866Y-35347676D01*
X1991485Y-35347676D01*
X2210533Y-35457200D01*
X2320057Y-35566723D01*
X2429580Y-35785771D01*
X2429580Y-36004819D01*
X2320057Y-36333390D01*
X1005771Y-37647676D01*
X2429580Y-37647676D01*
X4401009Y-36114342D02*
X4401009Y-37647676D01*
X3853390Y-35238152D02*
X3305771Y-36881009D01*
X4729580Y-36881009D01*
D10*
D11*
X-46875181Y-37647676D02*
X-46875181Y-35347676D01*
X-45998991Y-35347676D01*
X-45779943Y-35457200D01*
X-45670420Y-35566723D01*
X-45560896Y-35785771D01*
X-45560896Y-36114342D01*
X-45670420Y-36333390D01*
X-45779943Y-36442914D01*
X-45998991Y-36552438D01*
X-46875181Y-36552438D01*
X-44575181Y-37647676D02*
X-44575181Y-36114342D01*
X-44575181Y-36552438D02*
X-44465658Y-36333390D01*
X-44356134Y-36223866D01*
X-44137086Y-36114342D01*
X-43918039Y-36114342D01*
X-42822800Y-37647676D02*
X-43041848Y-37538152D01*
X-43151372Y-37428628D01*
X-43260896Y-37209580D01*
X-43260896Y-36552438D01*
X-43151372Y-36333390D01*
X-43041848Y-36223866D01*
X-42822800Y-36114342D01*
X-42494229Y-36114342D01*
X-42275181Y-36223866D01*
X-42165658Y-36333390D01*
X-42056134Y-36552438D01*
X-42056134Y-37209580D01*
X-42165658Y-37428628D01*
X-42275181Y-37538152D01*
X-42494229Y-37647676D01*
X-42822800Y-37647676D01*
X-41398991Y-36114342D02*
X-40522800Y-36114342D01*
X-41070420Y-35347676D02*
X-41070420Y-37319104D01*
X-40960896Y-37538152D01*
X-40741848Y-37647676D01*
X-40522800Y-37647676D01*
X-39427562Y-37647676D02*
X-39646610Y-37538152D01*
X-39756134Y-37428628D01*
X-39865658Y-37209580D01*
X-39865658Y-36552438D01*
X-39756134Y-36333390D01*
X-39646610Y-36223866D01*
X-39427562Y-36114342D01*
X-39098991Y-36114342D01*
X-38879943Y-36223866D01*
X-38770420Y-36333390D01*
X-38660896Y-36552438D01*
X-38660896Y-37209580D01*
X-38770420Y-37428628D01*
X-38879943Y-37538152D01*
X-39098991Y-37647676D01*
X-39427562Y-37647676D01*
X-38003753Y-36114342D02*
X-37127562Y-36114342D01*
X-37675181Y-35347676D02*
X-37675181Y-37319104D01*
X-37565658Y-37538152D01*
X-37346610Y-37647676D01*
X-37127562Y-37647676D01*
X-36579943Y-36114342D02*
X-36032324Y-37647676D01*
X-35484705Y-36114342D02*
X-36032324Y-37647676D01*
X-36251372Y-38195295D01*
X-36360896Y-38304819D01*
X-36579943Y-38414342D01*
X-34608515Y-36114342D02*
X-34608515Y-38414342D01*
X-34608515Y-36223866D02*
X-34389467Y-36114342D01*
X-33951372Y-36114342D01*
X-33732324Y-36223866D01*
X-33622800Y-36333390D01*
X-33513277Y-36552438D01*
X-33513277Y-37209580D01*
X-33622800Y-37428628D01*
X-33732324Y-37538152D01*
X-33951372Y-37647676D01*
X-34389467Y-37647676D01*
X-34608515Y-37538152D01*
X-31651372Y-37538152D02*
X-31870420Y-37647676D01*
X-32308515Y-37647676D01*
X-32527562Y-37538152D01*
X-32637086Y-37319104D01*
X-32637086Y-36442914D01*
X-32527562Y-36223866D01*
X-32308515Y-36114342D01*
X-31870420Y-36114342D01*
X-31651372Y-36223866D01*
X-31541848Y-36442914D01*
X-31541848Y-36661961D01*
X-32637086Y-36881009D01*
D10*
D14*
X-14861610Y-42511961D02*
X-14861610Y-40511961D01*
X-14099705Y-40511961D01*
X-13909229Y-40607200D01*
X-13813991Y-40702438D01*
X-13718753Y-40892914D01*
X-13718753Y-41178628D01*
X-13813991Y-41369104D01*
X-13909229Y-41464342D01*
X-14099705Y-41559580D01*
X-14861610Y-41559580D01*
X-11718753Y-42321485D02*
X-11813991Y-42416723D01*
X-12099705Y-42511961D01*
X-12290181Y-42511961D01*
X-12575896Y-42416723D01*
X-12766372Y-42226247D01*
X-12861610Y-42035771D01*
X-12956848Y-41654819D01*
X-12956848Y-41369104D01*
X-12861610Y-40988152D01*
X-12766372Y-40797676D01*
X-12575896Y-40607200D01*
X-12290181Y-40511961D01*
X-12099705Y-40511961D01*
X-11813991Y-40607200D01*
X-11718753Y-40702438D01*
X-10194943Y-41464342D02*
X-9909229Y-41559580D01*
X-9813991Y-41654819D01*
X-9718753Y-41845295D01*
X-9718753Y-42131009D01*
X-9813991Y-42321485D01*
X-9909229Y-42416723D01*
X-10099705Y-42511961D01*
X-10861610Y-42511961D01*
X-10861610Y-40511961D01*
X-10194943Y-40511961D01*
X-10004467Y-40607200D01*
X-9909229Y-40702438D01*
X-9813991Y-40892914D01*
X-9813991Y-41083390D01*
X-9909229Y-41273866D01*
X-10004467Y-41369104D01*
X-10194943Y-41464342D01*
X-10861610Y-41464342D01*
X-7337800Y-42511961D02*
X-7337800Y-40511961D01*
X-6194943Y-42511961D01*
X-6194943Y-40511961D01*
X-5242562Y-40511961D02*
X-5242562Y-42131009D01*
X-5147324Y-42321485D01*
X-5052086Y-42416723D01*
X-4861610Y-42511961D01*
X-4480658Y-42511961D01*
X-4290181Y-42416723D01*
X-4194943Y-42321485D01*
X-4099705Y-42131009D01*
X-4099705Y-40511961D01*
X-3147324Y-42511961D02*
X-3147324Y-40511961D01*
X-2480658Y-41940533D01*
X-1813991Y-40511961D01*
X-1813991Y-42511961D01*
X-194943Y-41464342D02*
X90771Y-41559580D01*
X186009Y-41654819D01*
X281247Y-41845295D01*
X281247Y-42131009D01*
X186009Y-42321485D01*
X90771Y-42416723D01*
X-99705Y-42511961D01*
X-861610Y-42511961D01*
X-861610Y-40511961D01*
X-194943Y-40511961D01*
X-4467Y-40607200D01*
X90771Y-40702438D01*
X186009Y-40892914D01*
X186009Y-41083390D01*
X90771Y-41273866D01*
X-4467Y-41369104D01*
X-194943Y-41464342D01*
X-861610Y-41464342D01*
X1138390Y-41464342D02*
X1805057Y-41464342D01*
X2090771Y-42511961D02*
X1138390Y-42511961D01*
X1138390Y-40511961D01*
X2090771Y-40511961D01*
X4090771Y-42511961D02*
X3424104Y-41559580D01*
X2947914Y-42511961D02*
X2947914Y-40511961D01*
X3709819Y-40511961D01*
X3900295Y-40607200D01*
X3995533Y-40702438D01*
X4090771Y-40892914D01*
X4090771Y-41178628D01*
X3995533Y-41369104D01*
X3900295Y-41464342D01*
X3709819Y-41559580D01*
X2947914Y-41559580D01*
D10*
D14*
X-46861610Y-60511961D02*
X-46861610Y-58511961D01*
X-46385420Y-58511961D01*
X-46099705Y-58607200D01*
X-45909229Y-58797676D01*
X-45813991Y-58988152D01*
X-45718753Y-59369104D01*
X-45718753Y-59654819D01*
X-45813991Y-60035771D01*
X-45909229Y-60226247D01*
X-46099705Y-60416723D01*
X-46385420Y-60511961D01*
X-46861610Y-60511961D01*
X-44861610Y-59464342D02*
X-44194943Y-59464342D01*
X-43909229Y-60511961D02*
X-44861610Y-60511961D01*
X-44861610Y-58511961D01*
X-43909229Y-58511961D01*
X-43147324Y-60416723D02*
X-42861610Y-60511961D01*
X-42385420Y-60511961D01*
X-42194943Y-60416723D01*
X-42099705Y-60321485D01*
X-42004467Y-60131009D01*
X-42004467Y-59940533D01*
X-42099705Y-59750057D01*
X-42194943Y-59654819D01*
X-42385420Y-59559580D01*
X-42766372Y-59464342D01*
X-42956848Y-59369104D01*
X-43052086Y-59273866D01*
X-43147324Y-59083390D01*
X-43147324Y-58892914D01*
X-43052086Y-58702438D01*
X-42956848Y-58607200D01*
X-42766372Y-58511961D01*
X-42290181Y-58511961D01*
X-42004467Y-58607200D01*
X-40004467Y-60321485D02*
X-40099705Y-60416723D01*
X-40385420Y-60511961D01*
X-40575896Y-60511961D01*
X-40861610Y-60416723D01*
X-41052086Y-60226247D01*
X-41147324Y-60035771D01*
X-41242562Y-59654819D01*
X-41242562Y-59369104D01*
X-41147324Y-58988152D01*
X-41052086Y-58797676D01*
X-40861610Y-58607200D01*
X-40575896Y-58511961D01*
X-40385420Y-58511961D01*
X-40099705Y-58607200D01*
X-40004467Y-58702438D01*
X-38004467Y-60511961D02*
X-38671134Y-59559580D01*
X-39147324Y-60511961D02*
X-39147324Y-58511961D01*
X-38385420Y-58511961D01*
X-38194943Y-58607200D01*
X-38099705Y-58702438D01*
X-38004467Y-58892914D01*
X-38004467Y-59178628D01*
X-38099705Y-59369104D01*
X-38194943Y-59464342D01*
X-38385420Y-59559580D01*
X-39147324Y-59559580D01*
X-37147324Y-60511961D02*
X-37147324Y-58511961D01*
X-36194943Y-60511961D02*
X-36194943Y-58511961D01*
X-35433039Y-58511961D01*
X-35242562Y-58607200D01*
X-35147324Y-58702438D01*
X-35052086Y-58892914D01*
X-35052086Y-59178628D01*
X-35147324Y-59369104D01*
X-35242562Y-59464342D01*
X-35433039Y-59559580D01*
X-36194943Y-59559580D01*
X-34480658Y-58511961D02*
X-33337800Y-58511961D01*
X-33909229Y-60511961D02*
X-33909229Y-58511961D01*
X-32671134Y-60511961D02*
X-32671134Y-58511961D01*
X-31337800Y-58511961D02*
X-30956848Y-58511961D01*
X-30766372Y-58607200D01*
X-30575896Y-58797676D01*
X-30480658Y-59178628D01*
X-30480658Y-59845295D01*
X-30575896Y-60226247D01*
X-30766372Y-60416723D01*
X-30956848Y-60511961D01*
X-31337800Y-60511961D01*
X-31528277Y-60416723D01*
X-31718753Y-60226247D01*
X-31813991Y-59845295D01*
X-31813991Y-59178628D01*
X-31718753Y-58797676D01*
X-31528277Y-58607200D01*
X-31337800Y-58511961D01*
X-29623515Y-60511961D02*
X-29623515Y-58511961D01*
X-28480658Y-60511961D01*
X-28480658Y-58511961D01*
D10*
D14*
X110674152Y-42416723D02*
X110959866Y-42511961D01*
X111436057Y-42511961D01*
X111626533Y-42416723D01*
X111721771Y-42321485D01*
X111817009Y-42131009D01*
X111817009Y-41940533D01*
X111721771Y-41750057D01*
X111626533Y-41654819D01*
X111436057Y-41559580D01*
X111055104Y-41464342D01*
X110864628Y-41369104D01*
X110769390Y-41273866D01*
X110674152Y-41083390D01*
X110674152Y-40892914D01*
X110769390Y-40702438D01*
X110864628Y-40607200D01*
X111055104Y-40511961D01*
X111531295Y-40511961D01*
X111817009Y-40607200D01*
X113817009Y-42321485D02*
X113721771Y-42416723D01*
X113436057Y-42511961D01*
X113245580Y-42511961D01*
X112959866Y-42416723D01*
X112769390Y-42226247D01*
X112674152Y-42035771D01*
X112578914Y-41654819D01*
X112578914Y-41369104D01*
X112674152Y-40988152D01*
X112769390Y-40797676D01*
X112959866Y-40607200D01*
X113245580Y-40511961D01*
X113436057Y-40511961D01*
X113721771Y-40607200D01*
X113817009Y-40702438D01*
X114578914Y-41940533D02*
X115531295Y-41940533D01*
X114388438Y-42511961D02*
X115055104Y-40511961D01*
X115721771Y-42511961D01*
X117340819Y-42511961D02*
X116388438Y-42511961D01*
X116388438Y-40511961D01*
X118007485Y-41464342D02*
X118674152Y-41464342D01*
X118959866Y-42511961D02*
X118007485Y-42511961D01*
X118007485Y-40511961D01*
X118959866Y-40511961D01*
D10*
D11*
X27015295Y-54990533D02*
X28110533Y-54990533D01*
X26796247Y-55647676D02*
X27562914Y-53347676D01*
X28329580Y-55647676D01*
X29096247Y-54442914D02*
X29862914Y-54442914D01*
X30191485Y-55647676D02*
X29096247Y-55647676D01*
X29096247Y-53347676D01*
X30191485Y-53347676D01*
X31615295Y-53347676D02*
X31834342Y-53347676D01*
X32053390Y-53457200D01*
X32162914Y-53566723D01*
X32272438Y-53785771D01*
X32381961Y-54223866D01*
X32381961Y-54771485D01*
X32272438Y-55209580D01*
X32162914Y-55428628D01*
X32053390Y-55538152D01*
X31834342Y-55647676D01*
X31615295Y-55647676D01*
X31396247Y-55538152D01*
X31286723Y-55428628D01*
X31177200Y-55209580D01*
X31067676Y-54771485D01*
X31067676Y-54223866D01*
X31177200Y-53785771D01*
X31286723Y-53566723D01*
X31396247Y-53457200D01*
X31615295Y-53347676D01*
X34572438Y-55647676D02*
X33258152Y-55647676D01*
X33915295Y-55647676D02*
X33915295Y-53347676D01*
X33696247Y-53676247D01*
X33477200Y-53895295D01*
X33258152Y-54004819D01*
X35558152Y-55428628D02*
X35667676Y-55538152D01*
X35558152Y-55647676D01*
X35448628Y-55538152D01*
X35558152Y-55428628D01*
X35558152Y-55647676D01*
X37091485Y-53347676D02*
X37310533Y-53347676D01*
X37529580Y-53457200D01*
X37639104Y-53566723D01*
X37748628Y-53785771D01*
X37858152Y-54223866D01*
X37858152Y-54771485D01*
X37748628Y-55209580D01*
X37639104Y-55428628D01*
X37529580Y-55538152D01*
X37310533Y-55647676D01*
X37091485Y-55647676D01*
X36872438Y-55538152D01*
X36762914Y-55428628D01*
X36653390Y-55209580D01*
X36543866Y-54771485D01*
X36543866Y-54223866D01*
X36653390Y-53785771D01*
X36762914Y-53566723D01*
X36872438Y-53457200D01*
X37091485Y-53347676D01*
X38624819Y-53347676D02*
X40158152Y-53347676D01*
X39172438Y-55647676D01*
X41034342Y-55428628D02*
X41143866Y-55538152D01*
X41034342Y-55647676D01*
X40924819Y-55538152D01*
X41034342Y-55428628D01*
X41034342Y-55647676D01*
X43224819Y-53347676D02*
X42129580Y-53347676D01*
X42020057Y-54442914D01*
X42129580Y-54333390D01*
X42348628Y-54223866D01*
X42896247Y-54223866D01*
X43115295Y-54333390D01*
X43224819Y-54442914D01*
X43334342Y-54661961D01*
X43334342Y-55209580D01*
X43224819Y-55428628D01*
X43115295Y-55538152D01*
X42896247Y-55647676D01*
X42348628Y-55647676D01*
X42129580Y-55538152D01*
X42020057Y-55428628D01*
X44758152Y-53347676D02*
X44977200Y-53347676D01*
X45196247Y-53457200D01*
X45305771Y-53566723D01*
X45415295Y-53785771D01*
X45524819Y-54223866D01*
X45524819Y-54771485D01*
X45415295Y-55209580D01*
X45305771Y-55428628D01*
X45196247Y-55538152D01*
X44977200Y-55647676D01*
X44758152Y-55647676D01*
X44539104Y-55538152D01*
X44429580Y-55428628D01*
X44320057Y-55209580D01*
X44210533Y-54771485D01*
X44210533Y-54223866D01*
X44320057Y-53785771D01*
X44429580Y-53566723D01*
X44539104Y-53457200D01*
X44758152Y-53347676D01*
X46510533Y-55428628D02*
X46620057Y-55538152D01*
X46510533Y-55647676D01*
X46401009Y-55538152D01*
X46510533Y-55428628D01*
X46510533Y-55647676D01*
X48810533Y-55647676D02*
X47496247Y-55647676D01*
X48153390Y-55647676D02*
X48153390Y-53347676D01*
X47934342Y-53676247D01*
X47715295Y-53895295D01*
X47496247Y-54004819D01*
X50234342Y-53347676D02*
X50453390Y-53347676D01*
X50672438Y-53457200D01*
X50781961Y-53566723D01*
X50891485Y-53785771D01*
X51001009Y-54223866D01*
X51001009Y-54771485D01*
X50891485Y-55209580D01*
X50781961Y-55428628D01*
X50672438Y-55538152D01*
X50453390Y-55647676D01*
X50234342Y-55647676D01*
X50015295Y-55538152D01*
X49905771Y-55428628D01*
X49796247Y-55209580D01*
X49686723Y-54771485D01*
X49686723Y-54223866D01*
X49796247Y-53785771D01*
X49905771Y-53566723D01*
X50015295Y-53457200D01*
X50234342Y-53347676D01*
X52424819Y-53347676D02*
X52643866Y-53347676D01*
X52862914Y-53457200D01*
X52972438Y-53566723D01*
X53081961Y-53785771D01*
X53191485Y-54223866D01*
X53191485Y-54771485D01*
X53081961Y-55209580D01*
X52972438Y-55428628D01*
X52862914Y-55538152D01*
X52643866Y-55647676D01*
X52424819Y-55647676D01*
X52205771Y-55538152D01*
X52096247Y-55428628D01*
X51986723Y-55209580D01*
X51877200Y-54771485D01*
X51877200Y-54223866D01*
X51986723Y-53785771D01*
X52096247Y-53566723D01*
X52205771Y-53457200D01*
X52424819Y-53347676D01*
X54177200Y-55428628D02*
X54286723Y-55538152D01*
X54177200Y-55647676D01*
X54067676Y-55538152D01*
X54177200Y-55428628D01*
X54177200Y-55647676D01*
X55272438Y-55647676D02*
X55272438Y-53347676D01*
X55491485Y-54771485D02*
X56148628Y-55647676D01*
X56148628Y-54114342D02*
X55272438Y-54990533D01*
X57134342Y-55647676D02*
X57134342Y-54114342D01*
X57134342Y-53347676D02*
X57024819Y-53457200D01*
X57134342Y-53566723D01*
X57243866Y-53457200D01*
X57134342Y-53347676D01*
X57134342Y-53566723D01*
X59215295Y-55538152D02*
X58996247Y-55647676D01*
X58558152Y-55647676D01*
X58339104Y-55538152D01*
X58229580Y-55428628D01*
X58120057Y-55209580D01*
X58120057Y-54552438D01*
X58229580Y-54333390D01*
X58339104Y-54223866D01*
X58558152Y-54114342D01*
X58996247Y-54114342D01*
X59215295Y-54223866D01*
X61186723Y-55647676D02*
X61186723Y-54442914D01*
X61077200Y-54223866D01*
X60858152Y-54114342D01*
X60420057Y-54114342D01*
X60201009Y-54223866D01*
X61186723Y-55538152D02*
X60967676Y-55647676D01*
X60420057Y-55647676D01*
X60201009Y-55538152D01*
X60091485Y-55319104D01*
X60091485Y-55100057D01*
X60201009Y-54881009D01*
X60420057Y-54771485D01*
X60967676Y-54771485D01*
X61186723Y-54661961D01*
X63267676Y-55647676D02*
X63267676Y-53347676D01*
X63267676Y-55538152D02*
X63048628Y-55647676D01*
X62610533Y-55647676D01*
X62391485Y-55538152D01*
X62281961Y-55428628D01*
X62172438Y-55209580D01*
X62172438Y-54552438D01*
X62281961Y-54333390D01*
X62391485Y-54223866D01*
X62610533Y-54114342D01*
X63048628Y-54114342D01*
X63267676Y-54223866D01*
X63815295Y-55866723D02*
X65567676Y-55866723D01*
X66115295Y-54114342D02*
X66115295Y-56414342D01*
X66115295Y-54223866D02*
X66334342Y-54114342D01*
X66772438Y-54114342D01*
X66991485Y-54223866D01*
X67101009Y-54333390D01*
X67210533Y-54552438D01*
X67210533Y-55209580D01*
X67101009Y-55428628D01*
X66991485Y-55538152D01*
X66772438Y-55647676D01*
X66334342Y-55647676D01*
X66115295Y-55538152D01*
X69181961Y-55538152D02*
X68962914Y-55647676D01*
X68524819Y-55647676D01*
X68305771Y-55538152D01*
X68196247Y-55428628D01*
X68086723Y-55209580D01*
X68086723Y-54552438D01*
X68196247Y-54333390D01*
X68305771Y-54223866D01*
X68524819Y-54114342D01*
X68962914Y-54114342D01*
X69181961Y-54223866D01*
X70167676Y-55647676D02*
X70167676Y-53347676D01*
X70167676Y-54223866D02*
X70386723Y-54114342D01*
X70824819Y-54114342D01*
X71043866Y-54223866D01*
X71153390Y-54333390D01*
X71262914Y-54552438D01*
X71262914Y-55209580D01*
X71153390Y-55428628D01*
X71043866Y-55538152D01*
X70824819Y-55647676D01*
X70386723Y-55647676D01*
X70167676Y-55538152D01*
D10*
D11*
X29917676Y-79147676D02*
X29917676Y-76847676D01*
X31231961Y-79147676D02*
X30246247Y-77833390D01*
X31231961Y-76847676D02*
X29917676Y-78161961D01*
X32217676Y-79147676D02*
X32217676Y-77614342D01*
X32217676Y-76847676D02*
X32108152Y-76957200D01*
X32217676Y-77066723D01*
X32327200Y-76957200D01*
X32217676Y-76847676D01*
X32217676Y-77066723D01*
X34627200Y-78928628D02*
X34517676Y-79038152D01*
X34189104Y-79147676D01*
X33970057Y-79147676D01*
X33641485Y-79038152D01*
X33422438Y-78819104D01*
X33312914Y-78600057D01*
X33203390Y-78161961D01*
X33203390Y-77833390D01*
X33312914Y-77395295D01*
X33422438Y-77176247D01*
X33641485Y-76957200D01*
X33970057Y-76847676D01*
X34189104Y-76847676D01*
X34517676Y-76957200D01*
X34627200Y-77066723D01*
X36598628Y-79147676D02*
X36598628Y-77942914D01*
X36489104Y-77723866D01*
X36270057Y-77614342D01*
X35831961Y-77614342D01*
X35612914Y-77723866D01*
X36598628Y-79038152D02*
X36379580Y-79147676D01*
X35831961Y-79147676D01*
X35612914Y-79038152D01*
X35503390Y-78819104D01*
X35503390Y-78600057D01*
X35612914Y-78381009D01*
X35831961Y-78271485D01*
X36379580Y-78271485D01*
X36598628Y-78161961D01*
X38679580Y-79147676D02*
X38679580Y-76847676D01*
X38679580Y-79038152D02*
X38460533Y-79147676D01*
X38022438Y-79147676D01*
X37803390Y-79038152D01*
X37693866Y-78928628D01*
X37584342Y-78709580D01*
X37584342Y-78052438D01*
X37693866Y-77833390D01*
X37803390Y-77723866D01*
X38022438Y-77614342D01*
X38460533Y-77614342D01*
X38679580Y-77723866D01*
X41527200Y-77942914D02*
X42293866Y-77942914D01*
X42622438Y-79147676D02*
X41527200Y-79147676D01*
X41527200Y-76847676D01*
X42622438Y-76847676D01*
X43608152Y-78928628D02*
X43717676Y-79038152D01*
X43608152Y-79147676D01*
X43498628Y-79038152D01*
X43608152Y-78928628D01*
X43608152Y-79147676D01*
X44703390Y-79147676D02*
X44703390Y-76847676D01*
X45251009Y-76847676D01*
X45579580Y-76957200D01*
X45798628Y-77176247D01*
X45908152Y-77395295D01*
X46017676Y-77833390D01*
X46017676Y-78161961D01*
X45908152Y-78600057D01*
X45798628Y-78819104D01*
X45579580Y-79038152D01*
X45251009Y-79147676D01*
X44703390Y-79147676D01*
X47003390Y-78928628D02*
X47112914Y-79038152D01*
X47003390Y-79147676D01*
X46893866Y-79038152D01*
X47003390Y-78928628D01*
X47003390Y-79147676D01*
X47989104Y-78490533D02*
X49084342Y-78490533D01*
X47770057Y-79147676D02*
X48536723Y-76847676D01*
X49303390Y-79147676D01*
X50070057Y-78928628D02*
X50179580Y-79038152D01*
X50070057Y-79147676D01*
X49960533Y-79038152D01*
X50070057Y-78928628D01*
X50070057Y-79147676D01*
X54670057Y-79147676D02*
X54670057Y-76847676D01*
X54889104Y-78271485D02*
X55546247Y-79147676D01*
X55546247Y-77614342D02*
X54670057Y-78490533D01*
X56531961Y-79147676D02*
X56531961Y-77614342D01*
X56531961Y-76847676D02*
X56422438Y-76957200D01*
X56531961Y-77066723D01*
X56641485Y-76957200D01*
X56531961Y-76847676D01*
X56531961Y-77066723D01*
X58612914Y-79038152D02*
X58393866Y-79147676D01*
X57955771Y-79147676D01*
X57736723Y-79038152D01*
X57627200Y-78928628D01*
X57517676Y-78709580D01*
X57517676Y-78052438D01*
X57627200Y-77833390D01*
X57736723Y-77723866D01*
X57955771Y-77614342D01*
X58393866Y-77614342D01*
X58612914Y-77723866D01*
X60584342Y-79147676D02*
X60584342Y-77942914D01*
X60474819Y-77723866D01*
X60255771Y-77614342D01*
X59817676Y-77614342D01*
X59598628Y-77723866D01*
X60584342Y-79038152D02*
X60365295Y-79147676D01*
X59817676Y-79147676D01*
X59598628Y-79038152D01*
X59489104Y-78819104D01*
X59489104Y-78600057D01*
X59598628Y-78381009D01*
X59817676Y-78271485D01*
X60365295Y-78271485D01*
X60584342Y-78161961D01*
X62665295Y-79147676D02*
X62665295Y-76847676D01*
X62665295Y-79038152D02*
X62446247Y-79147676D01*
X62008152Y-79147676D01*
X61789104Y-79038152D01*
X61679580Y-78928628D01*
X61570057Y-78709580D01*
X61570057Y-78052438D01*
X61679580Y-77833390D01*
X61789104Y-77723866D01*
X62008152Y-77614342D01*
X62446247Y-77614342D01*
X62665295Y-77723866D01*
X66498628Y-76847676D02*
X66060533Y-76847676D01*
X65841485Y-76957200D01*
X65731961Y-77066723D01*
X65512914Y-77395295D01*
X65403390Y-77833390D01*
X65403390Y-78709580D01*
X65512914Y-78928628D01*
X65622438Y-79038152D01*
X65841485Y-79147676D01*
X66279580Y-79147676D01*
X66498628Y-79038152D01*
X66608152Y-78928628D01*
X66717676Y-78709580D01*
X66717676Y-78161961D01*
X66608152Y-77942914D01*
X66498628Y-77833390D01*
X66279580Y-77723866D01*
X65841485Y-77723866D01*
X65622438Y-77833390D01*
X65512914Y-77942914D01*
X65403390Y-78161961D01*
X67703390Y-78928628D02*
X67812914Y-79038152D01*
X67703390Y-79147676D01*
X67593866Y-79038152D01*
X67703390Y-78928628D01*
X67703390Y-79147676D01*
X69236723Y-76847676D02*
X69455771Y-76847676D01*
X69674819Y-76957200D01*
X69784342Y-77066723D01*
X69893866Y-77285771D01*
X70003390Y-77723866D01*
X70003390Y-78271485D01*
X69893866Y-78709580D01*
X69784342Y-78928628D01*
X69674819Y-79038152D01*
X69455771Y-79147676D01*
X69236723Y-79147676D01*
X69017676Y-79038152D01*
X68908152Y-78928628D01*
X68798628Y-78709580D01*
X68689104Y-78271485D01*
X68689104Y-77723866D01*
X68798628Y-77285771D01*
X68908152Y-77066723D01*
X69017676Y-76957200D01*
X69236723Y-76847676D01*
X70989104Y-78928628D02*
X71098628Y-79038152D01*
X70989104Y-79147676D01*
X70879580Y-79038152D01*
X70989104Y-78928628D01*
X70989104Y-79147676D01*
X73070057Y-77614342D02*
X73070057Y-79147676D01*
X72522438Y-76738152D02*
X71974819Y-78381009D01*
X73398628Y-78381009D01*
X74274819Y-78271485D02*
X76027200Y-78271485D01*
X78108152Y-76847676D02*
X77670057Y-76847676D01*
X77451009Y-76957200D01*
X77341485Y-77066723D01*
X77122438Y-77395295D01*
X77012914Y-77833390D01*
X77012914Y-78709580D01*
X77122438Y-78928628D01*
X77231961Y-79038152D01*
X77451009Y-79147676D01*
X77889104Y-79147676D01*
X78108152Y-79038152D01*
X78217676Y-78928628D01*
X78327200Y-78709580D01*
X78327200Y-78161961D01*
X78217676Y-77942914D01*
X78108152Y-77833390D01*
X77889104Y-77723866D01*
X77451009Y-77723866D01*
X77231961Y-77833390D01*
X77122438Y-77942914D01*
X77012914Y-78161961D01*
X78984342Y-77614342D02*
X79860533Y-77614342D01*
X79312914Y-79147676D02*
X79312914Y-77176247D01*
X79422438Y-76957200D01*
X79641485Y-76847676D01*
X79860533Y-76847676D01*
X80955771Y-77833390D02*
X80736723Y-77723866D01*
X80627200Y-77614342D01*
X80517676Y-77395295D01*
X80517676Y-77285771D01*
X80627200Y-77066723D01*
X80736723Y-76957200D01*
X80955771Y-76847676D01*
X81393866Y-76847676D01*
X81612914Y-76957200D01*
X81722438Y-77066723D01*
X81831961Y-77285771D01*
X81831961Y-77395295D01*
X81722438Y-77614342D01*
X81612914Y-77723866D01*
X81393866Y-77833390D01*
X80955771Y-77833390D01*
X80736723Y-77942914D01*
X80627200Y-78052438D01*
X80517676Y-78271485D01*
X80517676Y-78709580D01*
X80627200Y-78928628D01*
X80736723Y-79038152D01*
X80955771Y-79147676D01*
X81393866Y-79147676D01*
X81612914Y-79038152D01*
X81722438Y-78928628D01*
X81831961Y-78709580D01*
X81831961Y-78271485D01*
X81722438Y-78052438D01*
X81612914Y-77942914D01*
X81393866Y-77833390D01*
X82708152Y-77066723D02*
X82817676Y-76957200D01*
X83036723Y-76847676D01*
X83584342Y-76847676D01*
X83803390Y-76957200D01*
X83912914Y-77066723D01*
X84022438Y-77285771D01*
X84022438Y-77504819D01*
X83912914Y-77833390D01*
X82598628Y-79147676D01*
X84022438Y-79147676D01*
X85993866Y-76847676D02*
X85555771Y-76847676D01*
X85336723Y-76957200D01*
X85227200Y-77066723D01*
X85008152Y-77395295D01*
X84898628Y-77833390D01*
X84898628Y-78709580D01*
X85008152Y-78928628D01*
X85117676Y-79038152D01*
X85336723Y-79147676D01*
X85774819Y-79147676D01*
X85993866Y-79038152D01*
X86103390Y-78928628D01*
X86212914Y-78709580D01*
X86212914Y-78161961D01*
X86103390Y-77942914D01*
X85993866Y-77833390D01*
X85774819Y-77723866D01*
X85336723Y-77723866D01*
X85117676Y-77833390D01*
X85008152Y-77942914D01*
X84898628Y-78161961D01*
X88184342Y-79038152D02*
X87965295Y-79147676D01*
X87527200Y-79147676D01*
X87308152Y-79038152D01*
X87198628Y-78928628D01*
X87089104Y-78709580D01*
X87089104Y-78052438D01*
X87198628Y-77833390D01*
X87308152Y-77723866D01*
X87527200Y-77614342D01*
X87965295Y-77614342D01*
X88184342Y-77723866D01*
X89279580Y-79147676D02*
X89717676Y-79147676D01*
X89936723Y-79038152D01*
X90046247Y-78928628D01*
X90265295Y-78600057D01*
X90374819Y-78161961D01*
X90374819Y-77285771D01*
X90265295Y-77066723D01*
X90155771Y-76957200D01*
X89936723Y-76847676D01*
X89498628Y-76847676D01*
X89279580Y-76957200D01*
X89170057Y-77066723D01*
X89060533Y-77285771D01*
X89060533Y-77833390D01*
X89170057Y-78052438D01*
X89279580Y-78161961D01*
X89498628Y-78271485D01*
X89936723Y-78271485D01*
X90155771Y-78161961D01*
X90265295Y-78052438D01*
X90374819Y-77833390D01*
X91031961Y-77614342D02*
X91908152Y-77614342D01*
X91360533Y-79147676D02*
X91360533Y-77176247D01*
X91470057Y-76957200D01*
X91689104Y-76847676D01*
X91908152Y-76847676D01*
X92455771Y-76847676D02*
X93879580Y-76847676D01*
X93112914Y-77723866D01*
X93441485Y-77723866D01*
X93660533Y-77833390D01*
X93770057Y-77942914D01*
X93879580Y-78161961D01*
X93879580Y-78709580D01*
X93770057Y-78928628D01*
X93660533Y-79038152D01*
X93441485Y-79147676D01*
X92784342Y-79147676D01*
X92565295Y-79038152D01*
X92455771Y-78928628D01*
X95960533Y-76847676D02*
X94865295Y-76847676D01*
X94755771Y-77942914D01*
X94865295Y-77833390D01*
X95084342Y-77723866D01*
X95631961Y-77723866D01*
X95851009Y-77833390D01*
X95960533Y-77942914D01*
X96070057Y-78161961D01*
X96070057Y-78709580D01*
X95960533Y-78928628D01*
X95851009Y-79038152D01*
X95631961Y-79147676D01*
X95084342Y-79147676D01*
X94865295Y-79038152D01*
X94755771Y-78928628D01*
X96727200Y-78271485D02*
X96836723Y-78161961D01*
X97055771Y-78052438D01*
X97493866Y-78271485D01*
X97712914Y-78161961D01*
X97822438Y-78052438D01*
X99903390Y-79147676D02*
X98589104Y-79147676D01*
X99246247Y-79147676D02*
X99246247Y-76847676D01*
X99027200Y-77176247D01*
X98808152Y-77395295D01*
X98589104Y-77504819D01*
X102093866Y-79147676D02*
X100779580Y-79147676D01*
X101436723Y-79147676D02*
X101436723Y-76847676D01*
X101217676Y-77176247D01*
X100998628Y-77395295D01*
X100779580Y-77504819D01*
X104065295Y-76847676D02*
X103627200Y-76847676D01*
X103408152Y-76957200D01*
X103298628Y-77066723D01*
X103079580Y-77395295D01*
X102970057Y-77833390D01*
X102970057Y-78709580D01*
X103079580Y-78928628D01*
X103189104Y-79038152D01*
X103408152Y-79147676D01*
X103846247Y-79147676D01*
X104065295Y-79038152D01*
X104174819Y-78928628D01*
X104284342Y-78709580D01*
X104284342Y-78161961D01*
X104174819Y-77942914D01*
X104065295Y-77833390D01*
X103846247Y-77723866D01*
X103408152Y-77723866D01*
X103189104Y-77833390D01*
X103079580Y-77942914D01*
X102970057Y-78161961D01*
X104941485Y-78271485D02*
X105051009Y-78161961D01*
X105270057Y-78052438D01*
X105708152Y-78271485D01*
X105927200Y-78161961D01*
X106036723Y-78052438D01*
X107898628Y-77614342D02*
X107898628Y-79147676D01*
X106912914Y-77614342D02*
X106912914Y-78819104D01*
X107022438Y-79038152D01*
X107241485Y-79147676D01*
X107570057Y-79147676D01*
X107789104Y-79038152D01*
X107898628Y-78928628D01*
X108993866Y-79147676D02*
X108993866Y-76847676D01*
X108993866Y-77723866D02*
X109212914Y-77614342D01*
X109651009Y-77614342D01*
X109870057Y-77723866D01*
X109979580Y-77833390D01*
X110089104Y-78052438D01*
X110089104Y-78709580D01*
X109979580Y-78928628D01*
X109870057Y-79038152D01*
X109651009Y-79147676D01*
X109212914Y-79147676D01*
X108993866Y-79038152D01*
X112060533Y-77614342D02*
X112060533Y-79147676D01*
X111074819Y-77614342D02*
X111074819Y-78819104D01*
X111184342Y-79038152D01*
X111403390Y-79147676D01*
X111731961Y-79147676D01*
X111951009Y-79038152D01*
X112060533Y-78928628D01*
X113155771Y-77614342D02*
X113155771Y-79147676D01*
X113155771Y-77833390D02*
X113265295Y-77723866D01*
X113484342Y-77614342D01*
X113812914Y-77614342D01*
X114031961Y-77723866D01*
X114141485Y-77942914D01*
X114141485Y-79147676D01*
X114908152Y-77614342D02*
X115784342Y-77614342D01*
X115236723Y-76847676D02*
X115236723Y-78819104D01*
X115346247Y-79038152D01*
X115565295Y-79147676D01*
X115784342Y-79147676D01*
X117536723Y-77614342D02*
X117536723Y-79147676D01*
X116551009Y-77614342D02*
X116551009Y-78819104D01*
X116660533Y-79038152D01*
X116879580Y-79147676D01*
X117208152Y-79147676D01*
X117427200Y-79038152D01*
X117536723Y-78928628D01*
X119836723Y-79147676D02*
X118522438Y-79147676D01*
X119179580Y-79147676D02*
X119179580Y-76847676D01*
X118960533Y-77176247D01*
X118741485Y-77395295D01*
X118522438Y-77504819D01*
X121151009Y-77833390D02*
X120931961Y-77723866D01*
X120822438Y-77614342D01*
X120712914Y-77395295D01*
X120712914Y-77285771D01*
X120822438Y-77066723D01*
X120931961Y-76957200D01*
X121151009Y-76847676D01*
X121589104Y-76847676D01*
X121808152Y-76957200D01*
X121917676Y-77066723D01*
X122027200Y-77285771D01*
X122027200Y-77395295D01*
X121917676Y-77614342D01*
X121808152Y-77723866D01*
X121589104Y-77833390D01*
X121151009Y-77833390D01*
X120931961Y-77942914D01*
X120822438Y-78052438D01*
X120712914Y-78271485D01*
X120712914Y-78709580D01*
X120822438Y-78928628D01*
X120931961Y-79038152D01*
X121151009Y-79147676D01*
X121589104Y-79147676D01*
X121808152Y-79038152D01*
X121917676Y-78928628D01*
X122027200Y-78709580D01*
X122027200Y-78271485D01*
X121917676Y-78052438D01*
X121808152Y-77942914D01*
X121589104Y-77833390D01*
X123012914Y-78928628D02*
X123122438Y-79038152D01*
X123012914Y-79147676D01*
X122903390Y-79038152D01*
X123012914Y-78928628D01*
X123012914Y-79147676D01*
X124546247Y-76847676D02*
X124765295Y-76847676D01*
X124984342Y-76957200D01*
X125093866Y-77066723D01*
X125203390Y-77285771D01*
X125312914Y-77723866D01*
X125312914Y-78271485D01*
X125203390Y-78709580D01*
X125093866Y-78928628D01*
X124984342Y-79038152D01*
X124765295Y-79147676D01*
X124546247Y-79147676D01*
X124327200Y-79038152D01*
X124217676Y-78928628D01*
X124108152Y-78709580D01*
X123998628Y-78271485D01*
X123998628Y-77723866D01*
X124108152Y-77285771D01*
X124217676Y-77066723D01*
X124327200Y-76957200D01*
X124546247Y-76847676D01*
X127284342Y-77614342D02*
X127284342Y-79147676D01*
X126736723Y-76738152D02*
X126189104Y-78381009D01*
X127612914Y-78381009D01*
X128489104Y-78928628D02*
X128598628Y-79038152D01*
X128489104Y-79147676D01*
X128379580Y-79038152D01*
X128489104Y-78928628D01*
X128489104Y-79147676D01*
X130789104Y-79147676D02*
X129474819Y-79147676D01*
X130131961Y-79147676D02*
X130131961Y-76847676D01*
X129912914Y-77176247D01*
X129693866Y-77395295D01*
X129474819Y-77504819D01*
D10*
D11*
X27124819Y-37647676D02*
X27124819Y-35347676D01*
X28110533Y-37538152D02*
X28439104Y-37647676D01*
X28986723Y-37647676D01*
X29205771Y-37538152D01*
X29315295Y-37428628D01*
X29424819Y-37209580D01*
X29424819Y-36990533D01*
X29315295Y-36771485D01*
X29205771Y-36661961D01*
X28986723Y-36552438D01*
X28548628Y-36442914D01*
X28329580Y-36333390D01*
X28220057Y-36223866D01*
X28110533Y-36004819D01*
X28110533Y-35785771D01*
X28220057Y-35566723D01*
X28329580Y-35457200D01*
X28548628Y-35347676D01*
X29096247Y-35347676D01*
X29424819Y-35457200D01*
X30848628Y-35347676D02*
X31286723Y-35347676D01*
X31505771Y-35457200D01*
X31724819Y-35676247D01*
X31834342Y-36114342D01*
X31834342Y-36881009D01*
X31724819Y-37319104D01*
X31505771Y-37538152D01*
X31286723Y-37647676D01*
X30848628Y-37647676D01*
X30629580Y-37538152D01*
X30410533Y-37319104D01*
X30301009Y-36881009D01*
X30301009Y-36114342D01*
X30410533Y-35676247D01*
X30629580Y-35457200D01*
X30848628Y-35347676D01*
X32601009Y-35347676D02*
X34134342Y-35347676D01*
X33148628Y-37647676D01*
X34901009Y-35566723D02*
X35010533Y-35457200D01*
X35229580Y-35347676D01*
X35777200Y-35347676D01*
X35996247Y-35457200D01*
X36105771Y-35566723D01*
X36215295Y-35785771D01*
X36215295Y-36004819D01*
X36105771Y-36333390D01*
X34791485Y-37647676D01*
X36215295Y-37647676D01*
X37639104Y-35347676D02*
X37858152Y-35347676D01*
X38077200Y-35457200D01*
X38186723Y-35566723D01*
X38296247Y-35785771D01*
X38405771Y-36223866D01*
X38405771Y-36771485D01*
X38296247Y-37209580D01*
X38186723Y-37428628D01*
X38077200Y-37538152D01*
X37858152Y-37647676D01*
X37639104Y-37647676D01*
X37420057Y-37538152D01*
X37310533Y-37428628D01*
X37201009Y-37209580D01*
X37091485Y-36771485D01*
X37091485Y-36223866D01*
X37201009Y-35785771D01*
X37310533Y-35566723D01*
X37420057Y-35457200D01*
X37639104Y-35347676D01*
X39829580Y-35347676D02*
X40048628Y-35347676D01*
X40267676Y-35457200D01*
X40377200Y-35566723D01*
X40486723Y-35785771D01*
X40596247Y-36223866D01*
X40596247Y-36771485D01*
X40486723Y-37209580D01*
X40377200Y-37428628D01*
X40267676Y-37538152D01*
X40048628Y-37647676D01*
X39829580Y-37647676D01*
X39610533Y-37538152D01*
X39501009Y-37428628D01*
X39391485Y-37209580D01*
X39281961Y-36771485D01*
X39281961Y-36223866D01*
X39391485Y-35785771D01*
X39501009Y-35566723D01*
X39610533Y-35457200D01*
X39829580Y-35347676D01*
X41581961Y-36771485D02*
X43334342Y-36771485D01*
X44320057Y-35566723D02*
X44429580Y-35457200D01*
X44648628Y-35347676D01*
X45196247Y-35347676D01*
X45415295Y-35457200D01*
X45524819Y-35566723D01*
X45634342Y-35785771D01*
X45634342Y-36004819D01*
X45524819Y-36333390D01*
X44210533Y-37647676D01*
X45634342Y-37647676D01*
X47058152Y-35347676D02*
X47277200Y-35347676D01*
X47496247Y-35457200D01*
X47605771Y-35566723D01*
X47715295Y-35785771D01*
X47824819Y-36223866D01*
X47824819Y-36771485D01*
X47715295Y-37209580D01*
X47605771Y-37428628D01*
X47496247Y-37538152D01*
X47277200Y-37647676D01*
X47058152Y-37647676D01*
X46839104Y-37538152D01*
X46729580Y-37428628D01*
X46620057Y-37209580D01*
X46510533Y-36771485D01*
X46510533Y-36223866D01*
X46620057Y-35785771D01*
X46729580Y-35566723D01*
X46839104Y-35457200D01*
X47058152Y-35347676D01*
X49248628Y-35347676D02*
X49467676Y-35347676D01*
X49686723Y-35457200D01*
X49796247Y-35566723D01*
X49905771Y-35785771D01*
X50015295Y-36223866D01*
X50015295Y-36771485D01*
X49905771Y-37209580D01*
X49796247Y-37428628D01*
X49686723Y-37538152D01*
X49467676Y-37647676D01*
X49248628Y-37647676D01*
X49029580Y-37538152D01*
X48920057Y-37428628D01*
X48810533Y-37209580D01*
X48701009Y-36771485D01*
X48701009Y-36223866D01*
X48810533Y-35785771D01*
X48920057Y-35566723D01*
X49029580Y-35457200D01*
X49248628Y-35347676D01*
X51986723Y-36114342D02*
X51986723Y-37647676D01*
X51439104Y-35238152D02*
X50891485Y-36881009D01*
X52315295Y-36881009D01*
D10*
D11*
X111015295Y-36990533D02*
X112110533Y-36990533D01*
X110796247Y-37647676D02*
X111562914Y-35347676D01*
X112329580Y-37647676D01*
X114081961Y-36114342D02*
X114081961Y-37647676D01*
X113534342Y-35238152D02*
X112986723Y-36881009D01*
X114410533Y-36881009D01*
D10*
D11*
D10*
D14*
X111043152Y-33416723D02*
X111328866Y-33511961D01*
X111805057Y-33511961D01*
X111995533Y-33416723D01*
X112090771Y-33321485D01*
X112186009Y-33131009D01*
X112186009Y-32940533D01*
X112090771Y-32750057D01*
X111995533Y-32654819D01*
X111805057Y-32559580D01*
X111424104Y-32464342D01*
X111233628Y-32369104D01*
X111138390Y-32273866D01*
X111043152Y-32083390D01*
X111043152Y-31892914D01*
X111138390Y-31702438D01*
X111233628Y-31607200D01*
X111424104Y-31511961D01*
X111900295Y-31511961D01*
X112186009Y-31607200D01*
X113043152Y-33511961D02*
X113043152Y-31511961D01*
X113805057Y-31511961D02*
X115138390Y-31511961D01*
X113805057Y-33511961D01*
X115138390Y-33511961D01*
X115900295Y-32464342D02*
X116566961Y-32464342D01*
X116852676Y-33511961D02*
X115900295Y-33511961D01*
X115900295Y-31511961D01*
X116852676Y-31511961D01*
D10*
D14*
X-47147324Y-67511961D02*
X-46004467Y-67511961D01*
X-46575896Y-69511961D02*
X-46575896Y-67511961D01*
X-45337800Y-69511961D02*
X-45337800Y-67511961D01*
X-44671134Y-67511961D02*
X-43528277Y-67511961D01*
X-44099705Y-69511961D02*
X-44099705Y-67511961D01*
X-41909229Y-69511961D02*
X-42861610Y-69511961D01*
X-42861610Y-67511961D01*
X-41242562Y-68464342D02*
X-40575896Y-68464342D01*
X-40290181Y-69511961D02*
X-41242562Y-69511961D01*
X-41242562Y-67511961D01*
X-40290181Y-67511961D01*
D10*
D11*
X-46875181Y-73647676D02*
X-46875181Y-71347676D01*
X-44465658Y-73647676D02*
X-45232324Y-72552438D01*
X-45779943Y-73647676D02*
X-45779943Y-71347676D01*
X-44903753Y-71347676D01*
X-44684705Y-71457200D01*
X-44575181Y-71566723D01*
X-44465658Y-71785771D01*
X-44465658Y-72114342D01*
X-44575181Y-72333390D01*
X-44684705Y-72442914D01*
X-44903753Y-72552438D01*
X-45779943Y-72552438D01*
X-43479943Y-73647676D02*
X-43479943Y-71347676D01*
X-42713277Y-72990533D01*
X-41946610Y-71347676D01*
X-41946610Y-73647676D01*
X-40851372Y-72771485D02*
X-39098991Y-72771485D01*
X-37565658Y-71347676D02*
X-37346610Y-71347676D01*
X-37127562Y-71457200D01*
X-37018039Y-71566723D01*
X-36908515Y-71785771D01*
X-36798991Y-72223866D01*
X-36798991Y-72771485D01*
X-36908515Y-73209580D01*
X-37018039Y-73428628D01*
X-37127562Y-73538152D01*
X-37346610Y-73647676D01*
X-37565658Y-73647676D01*
X-37784705Y-73538152D01*
X-37894229Y-73428628D01*
X-38003753Y-73209580D01*
X-38113277Y-72771485D01*
X-38113277Y-72223866D01*
X-38003753Y-71785771D01*
X-37894229Y-71566723D01*
X-37784705Y-71457200D01*
X-37565658Y-71347676D01*
X-36032324Y-71347676D02*
X-34608515Y-71347676D01*
X-35375181Y-72223866D01*
X-35046610Y-72223866D01*
X-34827562Y-72333390D01*
X-34718039Y-72442914D01*
X-34608515Y-72661961D01*
X-34608515Y-73209580D01*
X-34718039Y-73428628D01*
X-34827562Y-73538152D01*
X-35046610Y-73647676D01*
X-35703753Y-73647676D01*
X-35922800Y-73538152D01*
X-36032324Y-73428628D01*
X-33622800Y-72771485D02*
X-31870420Y-72771485D01*
X-30884705Y-71566723D02*
X-30775181Y-71457200D01*
X-30556134Y-71347676D01*
X-30008515Y-71347676D01*
X-29789467Y-71457200D01*
X-29679943Y-71566723D01*
X-29570420Y-71785771D01*
X-29570420Y-72004819D01*
X-29679943Y-72333390D01*
X-30994229Y-73647676D01*
X-29570420Y-73647676D01*
X-27598991Y-72114342D02*
X-27598991Y-73647676D01*
X-28146610Y-71238152D02*
X-28694229Y-72881009D01*
X-27270420Y-72881009D01*
X-24751372Y-72990533D02*
X-23656134Y-72990533D01*
X-24970420Y-73647676D02*
X-24203753Y-71347676D01*
X-23437086Y-73647676D01*
X-21356134Y-73428628D02*
X-21465658Y-73538152D01*
X-21794229Y-73647676D01*
X-22013277Y-73647676D01*
X-22341848Y-73538152D01*
X-22560896Y-73319104D01*
X-22670420Y-73100057D01*
X-22779943Y-72661961D01*
X-22779943Y-72333390D01*
X-22670420Y-71895295D01*
X-22560896Y-71676247D01*
X-22341848Y-71457200D01*
X-22013277Y-71347676D01*
X-21794229Y-71347676D01*
X-21465658Y-71457200D01*
X-21356134Y-71566723D01*
X-18727562Y-71238152D02*
X-20698991Y-74195295D01*
X-17960896Y-73647676D02*
X-17960896Y-71347676D01*
X-17413277Y-71347676D01*
X-17084705Y-71457200D01*
X-16865658Y-71676247D01*
X-16756134Y-71895295D01*
X-16646610Y-72333390D01*
X-16646610Y-72661961D01*
X-16756134Y-73100057D01*
X-16865658Y-73319104D01*
X-17084705Y-73538152D01*
X-17413277Y-73647676D01*
X-17960896Y-73647676D01*
X-14346610Y-73428628D02*
X-14456134Y-73538152D01*
X-14784705Y-73647676D01*
X-15003753Y-73647676D01*
X-15332324Y-73538152D01*
X-15551372Y-73319104D01*
X-15660896Y-73100057D01*
X-15770420Y-72661961D01*
X-15770420Y-72333390D01*
X-15660896Y-71895295D01*
X-15551372Y-71676247D01*
X-15332324Y-71457200D01*
X-15003753Y-71347676D01*
X-14784705Y-71347676D01*
X-14456134Y-71457200D01*
X-14346610Y-71566723D01*
X-11608515Y-73647676D02*
X-11608515Y-71347676D01*
X-10732324Y-71347676D01*
X-10513277Y-71457200D01*
X-10403753Y-71566723D01*
X-10294229Y-71785771D01*
X-10294229Y-72114342D01*
X-10403753Y-72333390D01*
X-10513277Y-72442914D01*
X-10732324Y-72552438D01*
X-11608515Y-72552438D01*
X-8870420Y-71347676D02*
X-8432324Y-71347676D01*
X-8213277Y-71457200D01*
X-7994229Y-71676247D01*
X-7884705Y-72114342D01*
X-7884705Y-72881009D01*
X-7994229Y-73319104D01*
X-8213277Y-73538152D01*
X-8432324Y-73647676D01*
X-8870420Y-73647676D01*
X-9089467Y-73538152D01*
X-9308515Y-73319104D01*
X-9418039Y-72881009D01*
X-9418039Y-72114342D01*
X-9308515Y-71676247D01*
X-9089467Y-71457200D01*
X-8870420Y-71347676D01*
X-7118039Y-71347676D02*
X-6570420Y-73647676D01*
X-6132324Y-72004819D01*
X-5694229Y-73647676D01*
X-5146610Y-71347676D01*
X-4270420Y-72442914D02*
X-3503753Y-72442914D01*
X-3175181Y-73647676D02*
X-4270420Y-73647676D01*
X-4270420Y-71347676D01*
X-3175181Y-71347676D01*
X-875181Y-73647676D02*
X-1641848Y-72552438D01*
X-2189467Y-73647676D02*
X-2189467Y-71347676D01*
X-1313277Y-71347676D01*
X-1094229Y-71457200D01*
X-984705Y-71566723D01*
X-875181Y-71785771D01*
X-875181Y-72114342D01*
X-984705Y-72333390D01*
X-1094229Y-72442914D01*
X-1313277Y-72552438D01*
X-2189467Y-72552438D01*
X1753390Y-73538152D02*
X2081961Y-73647676D01*
X2629580Y-73647676D01*
X2848628Y-73538152D01*
X2958152Y-73428628D01*
X3067676Y-73209580D01*
X3067676Y-72990533D01*
X2958152Y-72771485D01*
X2848628Y-72661961D01*
X2629580Y-72552438D01*
X2191485Y-72442914D01*
X1972438Y-72333390D01*
X1862914Y-72223866D01*
X1753390Y-72004819D01*
X1753390Y-71785771D01*
X1862914Y-71566723D01*
X1972438Y-71457200D01*
X2191485Y-71347676D01*
X2739104Y-71347676D01*
X3067676Y-71457200D01*
X4053390Y-71347676D02*
X4053390Y-73209580D01*
X4162914Y-73428628D01*
X4272438Y-73538152D01*
X4491485Y-73647676D01*
X4929580Y-73647676D01*
X5148628Y-73538152D01*
X5258152Y-73428628D01*
X5367676Y-73209580D01*
X5367676Y-71347676D01*
X6462914Y-73647676D02*
X6462914Y-71347676D01*
X7339104Y-71347676D01*
X7558152Y-71457200D01*
X7667676Y-71566723D01*
X7777200Y-71785771D01*
X7777200Y-72114342D01*
X7667676Y-72333390D01*
X7558152Y-72442914D01*
X7339104Y-72552438D01*
X6462914Y-72552438D01*
X8762914Y-73647676D02*
X8762914Y-71347676D01*
X9639104Y-71347676D01*
X9858152Y-71457200D01*
X9967676Y-71566723D01*
X10077200Y-71785771D01*
X10077200Y-72114342D01*
X9967676Y-72333390D01*
X9858152Y-72442914D01*
X9639104Y-72552438D01*
X8762914Y-72552438D01*
X12158152Y-73647676D02*
X11062914Y-73647676D01*
X11062914Y-71347676D01*
X13362914Y-72552438D02*
X13362914Y-73647676D01*
X12596247Y-71347676D02*
X13362914Y-72552438D01*
X14129580Y-71347676D01*
D10*
D11*
X-46984705Y-62566723D02*
X-46875181Y-62457200D01*
X-46656134Y-62347676D01*
X-46108515Y-62347676D01*
X-45889467Y-62457200D01*
X-45779943Y-62566723D01*
X-45670420Y-62785771D01*
X-45670420Y-63004819D01*
X-45779943Y-63333390D01*
X-47094229Y-64647676D01*
X-45670420Y-64647676D01*
X-44903753Y-62347676D02*
X-43479943Y-62347676D01*
X-44246610Y-63223866D01*
X-43918039Y-63223866D01*
X-43698991Y-63333390D01*
X-43589467Y-63442914D01*
X-43479943Y-63661961D01*
X-43479943Y-64209580D01*
X-43589467Y-64428628D01*
X-43698991Y-64538152D01*
X-43918039Y-64647676D01*
X-44575181Y-64647676D01*
X-44794229Y-64538152D01*
X-44903753Y-64428628D01*
X-42056134Y-62347676D02*
X-41837086Y-62347676D01*
X-41618039Y-62457200D01*
X-41508515Y-62566723D01*
X-41398991Y-62785771D01*
X-41289467Y-63223866D01*
X-41289467Y-63771485D01*
X-41398991Y-64209580D01*
X-41508515Y-64428628D01*
X-41618039Y-64538152D01*
X-41837086Y-64647676D01*
X-42056134Y-64647676D01*
X-42275181Y-64538152D01*
X-42384705Y-64428628D01*
X-42494229Y-64209580D01*
X-42603753Y-63771485D01*
X-42603753Y-63223866D01*
X-42494229Y-62785771D01*
X-42384705Y-62566723D01*
X-42275181Y-62457200D01*
X-42056134Y-62347676D01*
X-40632324Y-62347676D02*
X-39865658Y-64647676D01*
X-39098991Y-62347676D01*
X-37346610Y-64647676D02*
X-37346610Y-63442914D01*
X-37456134Y-63223866D01*
X-37675181Y-63114342D01*
X-38113277Y-63114342D01*
X-38332324Y-63223866D01*
X-37346610Y-64538152D02*
X-37565658Y-64647676D01*
X-38113277Y-64647676D01*
X-38332324Y-64538152D01*
X-38441848Y-64319104D01*
X-38441848Y-64100057D01*
X-38332324Y-63881009D01*
X-38113277Y-63771485D01*
X-37565658Y-63771485D01*
X-37346610Y-63661961D01*
X-35265658Y-64538152D02*
X-35484705Y-64647676D01*
X-35922800Y-64647676D01*
X-36141848Y-64538152D01*
X-36251372Y-64428628D01*
X-36360896Y-64209580D01*
X-36360896Y-63552438D01*
X-36251372Y-63333390D01*
X-36141848Y-63223866D01*
X-35922800Y-63114342D01*
X-35484705Y-63114342D01*
X-35265658Y-63223866D01*
X-32527562Y-64647676D02*
X-32527562Y-63114342D01*
X-32527562Y-62347676D02*
X-32637086Y-62457200D01*
X-32527562Y-62566723D01*
X-32418039Y-62457200D01*
X-32527562Y-62347676D01*
X-32527562Y-62566723D01*
X-31432324Y-63114342D02*
X-31432324Y-64647676D01*
X-31432324Y-63333390D02*
X-31322800Y-63223866D01*
X-31103753Y-63114342D01*
X-30775181Y-63114342D01*
X-30556134Y-63223866D01*
X-30446610Y-63442914D01*
X-30446610Y-64647676D01*
X-29351372Y-63114342D02*
X-29351372Y-65414342D01*
X-29351372Y-63223866D02*
X-29132324Y-63114342D01*
X-28694229Y-63114342D01*
X-28475181Y-63223866D01*
X-28365658Y-63333390D01*
X-28256134Y-63552438D01*
X-28256134Y-64209580D01*
X-28365658Y-64428628D01*
X-28475181Y-64538152D01*
X-28694229Y-64647676D01*
X-29132324Y-64647676D01*
X-29351372Y-64538152D01*
X-26284705Y-63114342D02*
X-26284705Y-64647676D01*
X-27270420Y-63114342D02*
X-27270420Y-64319104D01*
X-27160896Y-64538152D01*
X-26941848Y-64647676D01*
X-26613277Y-64647676D01*
X-26394229Y-64538152D01*
X-26284705Y-64428628D01*
X-25518039Y-63114342D02*
X-24641848Y-63114342D01*
X-25189467Y-62347676D02*
X-25189467Y-64319104D01*
X-25079943Y-64538152D01*
X-24860896Y-64647676D01*
X-24641848Y-64647676D01*
X-23875181Y-64428628D02*
X-23765658Y-64538152D01*
X-23875181Y-64647676D01*
X-23984705Y-64538152D01*
X-23875181Y-64428628D01*
X-23875181Y-64647676D01*
X-21137086Y-62566723D02*
X-21027562Y-62457200D01*
X-20808515Y-62347676D01*
X-20260896Y-62347676D01*
X-20041848Y-62457200D01*
X-19932324Y-62566723D01*
X-19822800Y-62785771D01*
X-19822800Y-63004819D01*
X-19932324Y-63333390D01*
X-21246610Y-64647676D01*
X-19822800Y-64647676D01*
X-17851372Y-63114342D02*
X-17851372Y-64647676D01*
X-18398991Y-62238152D02*
X-18946610Y-63881009D01*
X-17522800Y-63881009D01*
X-16975181Y-62347676D02*
X-16208515Y-64647676D01*
X-15441848Y-62347676D01*
X-13689467Y-64647676D02*
X-13689467Y-62347676D01*
X-13689467Y-64538152D02*
X-13908515Y-64647676D01*
X-14346610Y-64647676D01*
X-14565658Y-64538152D01*
X-14675181Y-64428628D01*
X-14784705Y-64209580D01*
X-14784705Y-63552438D01*
X-14675181Y-63333390D01*
X-14565658Y-63223866D01*
X-14346610Y-63114342D01*
X-13908515Y-63114342D01*
X-13689467Y-63223866D01*
X-11608515Y-64538152D02*
X-11827562Y-64647676D01*
X-12265658Y-64647676D01*
X-12484705Y-64538152D01*
X-12594229Y-64428628D01*
X-12703753Y-64209580D01*
X-12703753Y-63552438D01*
X-12594229Y-63333390D01*
X-12484705Y-63223866D01*
X-12265658Y-63114342D01*
X-11827562Y-63114342D01*
X-11608515Y-63223866D01*
X-8979943Y-62238152D02*
X-10951372Y-65195295D01*
X-7008515Y-64647676D02*
X-8322800Y-64647676D01*
X-7665658Y-64647676D02*
X-7665658Y-62347676D01*
X-7884705Y-62676247D01*
X-8103753Y-62895295D01*
X-8322800Y-63004819D01*
X-6132324Y-62566723D02*
X-6022800Y-62457200D01*
X-5803753Y-62347676D01*
X-5256134Y-62347676D01*
X-5037086Y-62457200D01*
X-4927562Y-62566723D01*
X-4818039Y-62785771D01*
X-4818039Y-63004819D01*
X-4927562Y-63333390D01*
X-6241848Y-64647676D01*
X-4818039Y-64647676D01*
X-2737086Y-62347676D02*
X-3832324Y-62347676D01*
X-3941848Y-63442914D01*
X-3832324Y-63333390D01*
X-3613277Y-63223866D01*
X-3065658Y-63223866D01*
X-2846610Y-63333390D01*
X-2737086Y-63442914D01*
X-2627562Y-63661961D01*
X-2627562Y-64209580D01*
X-2737086Y-64428628D01*
X-2846610Y-64538152D01*
X-3065658Y-64647676D01*
X-3613277Y-64647676D01*
X-3832324Y-64538152D01*
X-3941848Y-64428628D01*
X-1641848Y-64647676D02*
X-1641848Y-63114342D01*
X-1641848Y-63333390D02*
X-1532324Y-63223866D01*
X-1313277Y-63114342D01*
X-984705Y-63114342D01*
X-765658Y-63223866D01*
X-656134Y-63442914D01*
X-656134Y-64647676D01*
X-656134Y-63442914D02*
X-546610Y-63223866D01*
X-327562Y-63114342D01*
X1009Y-63114342D01*
X220057Y-63223866D01*
X329580Y-63442914D01*
X329580Y-64647676D01*
X1315295Y-63990533D02*
X2410533Y-63990533D01*
X1096247Y-64647676D02*
X1862914Y-62347676D01*
X2629580Y-64647676D01*
X5039104Y-62238152D02*
X3067676Y-65195295D01*
X5586723Y-62347676D02*
X7010533Y-62347676D01*
X6243866Y-63223866D01*
X6572438Y-63223866D01*
X6791485Y-63333390D01*
X6901009Y-63442914D01*
X7010533Y-63661961D01*
X7010533Y-64209580D01*
X6901009Y-64428628D01*
X6791485Y-64538152D01*
X6572438Y-64647676D01*
X5915295Y-64647676D01*
X5696247Y-64538152D01*
X5586723Y-64428628D01*
X7777200Y-62347676D02*
X8324819Y-64647676D01*
X8762914Y-63004819D01*
X9201009Y-64647676D01*
X9748628Y-62347676D01*
X12705771Y-64647676D02*
X12486723Y-64538152D01*
X12377200Y-64428628D01*
X12267676Y-64209580D01*
X12267676Y-63552438D01*
X12377200Y-63333390D01*
X12486723Y-63223866D01*
X12705771Y-63114342D01*
X13034342Y-63114342D01*
X13253390Y-63223866D01*
X13362914Y-63333390D01*
X13472438Y-63552438D01*
X13472438Y-64209580D01*
X13362914Y-64428628D01*
X13253390Y-64538152D01*
X13034342Y-64647676D01*
X12705771Y-64647676D01*
X15443866Y-63114342D02*
X15443866Y-64647676D01*
X14458152Y-63114342D02*
X14458152Y-64319104D01*
X14567676Y-64538152D01*
X14786723Y-64647676D01*
X15115295Y-64647676D01*
X15334342Y-64538152D01*
X15443866Y-64428628D01*
X16210533Y-63114342D02*
X17086723Y-63114342D01*
X16539104Y-62347676D02*
X16539104Y-64319104D01*
X16648628Y-64538152D01*
X16867676Y-64647676D01*
X17086723Y-64647676D01*
X17853390Y-63114342D02*
X17853390Y-65414342D01*
X17853390Y-63223866D02*
X18072438Y-63114342D01*
X18510533Y-63114342D01*
X18729580Y-63223866D01*
X18839104Y-63333390D01*
X18948628Y-63552438D01*
X18948628Y-64209580D01*
X18839104Y-64428628D01*
X18729580Y-64538152D01*
X18510533Y-64647676D01*
X18072438Y-64647676D01*
X17853390Y-64538152D01*
X20920057Y-63114342D02*
X20920057Y-64647676D01*
X19934342Y-63114342D02*
X19934342Y-64319104D01*
X20043866Y-64538152D01*
X20262914Y-64647676D01*
X20591485Y-64647676D01*
X20810533Y-64538152D01*
X20920057Y-64428628D01*
X21686723Y-63114342D02*
X22562914Y-63114342D01*
X22015295Y-62347676D02*
X22015295Y-64319104D01*
X22124819Y-64538152D01*
X22343866Y-64647676D01*
X22562914Y-64647676D01*
X23329580Y-64428628D02*
X23439104Y-64538152D01*
X23329580Y-64647676D01*
X23220057Y-64538152D01*
X23329580Y-64428628D01*
X23329580Y-64647676D01*
X27381961Y-64647676D02*
X26067676Y-64647676D01*
X26724819Y-64647676D02*
X26724819Y-62347676D01*
X26505771Y-62676247D01*
X26286723Y-62895295D01*
X26067676Y-63004819D01*
X31105771Y-63114342D02*
X31105771Y-64976247D01*
X30996247Y-65195295D01*
X30886723Y-65304819D01*
X30667676Y-65414342D01*
X30339104Y-65414342D01*
X30120057Y-65304819D01*
X31105771Y-64538152D02*
X30886723Y-64647676D01*
X30448628Y-64647676D01*
X30229580Y-64538152D01*
X30120057Y-64428628D01*
X30010533Y-64209580D01*
X30010533Y-63552438D01*
X30120057Y-63333390D01*
X30229580Y-63223866D01*
X30448628Y-63114342D01*
X30886723Y-63114342D01*
X31105771Y-63223866D01*
X33186723Y-64647676D02*
X33186723Y-63442914D01*
X33077200Y-63223866D01*
X32858152Y-63114342D01*
X32420057Y-63114342D01*
X32201009Y-63223866D01*
X33186723Y-64538152D02*
X32967676Y-64647676D01*
X32420057Y-64647676D01*
X32201009Y-64538152D01*
X32091485Y-64319104D01*
X32091485Y-64100057D01*
X32201009Y-63881009D01*
X32420057Y-63771485D01*
X32967676Y-63771485D01*
X33186723Y-63661961D01*
X35267676Y-63114342D02*
X35267676Y-64647676D01*
X34281961Y-63114342D02*
X34281961Y-64319104D01*
X34391485Y-64538152D01*
X34610533Y-64647676D01*
X34939104Y-64647676D01*
X35158152Y-64538152D01*
X35267676Y-64428628D01*
X37348628Y-63114342D02*
X37348628Y-64976247D01*
X37239104Y-65195295D01*
X37129580Y-65304819D01*
X36910533Y-65414342D01*
X36581961Y-65414342D01*
X36362914Y-65304819D01*
X37348628Y-64538152D02*
X37129580Y-64647676D01*
X36691485Y-64647676D01*
X36472438Y-64538152D01*
X36362914Y-64428628D01*
X36253390Y-64209580D01*
X36253390Y-63552438D01*
X36362914Y-63333390D01*
X36472438Y-63223866D01*
X36691485Y-63114342D01*
X37129580Y-63114342D01*
X37348628Y-63223866D01*
X39320057Y-64538152D02*
X39101009Y-64647676D01*
X38662914Y-64647676D01*
X38443866Y-64538152D01*
X38334342Y-64319104D01*
X38334342Y-63442914D01*
X38443866Y-63223866D01*
X38662914Y-63114342D01*
X39101009Y-63114342D01*
X39320057Y-63223866D01*
X39429580Y-63442914D01*
X39429580Y-63661961D01*
X38334342Y-63881009D01*
X42496247Y-64647676D02*
X42277200Y-64538152D01*
X42167676Y-64428628D01*
X42058152Y-64209580D01*
X42058152Y-63552438D01*
X42167676Y-63333390D01*
X42277200Y-63223866D01*
X42496247Y-63114342D01*
X42824819Y-63114342D01*
X43043866Y-63223866D01*
X43153390Y-63333390D01*
X43262914Y-63552438D01*
X43262914Y-64209580D01*
X43153390Y-64428628D01*
X43043866Y-64538152D01*
X42824819Y-64647676D01*
X42496247Y-64647676D01*
X45234342Y-63114342D02*
X45234342Y-64647676D01*
X44248628Y-63114342D02*
X44248628Y-64319104D01*
X44358152Y-64538152D01*
X44577200Y-64647676D01*
X44905771Y-64647676D01*
X45124819Y-64538152D01*
X45234342Y-64428628D01*
X46001009Y-63114342D02*
X46877200Y-63114342D01*
X46329580Y-62347676D02*
X46329580Y-64319104D01*
X46439104Y-64538152D01*
X46658152Y-64647676D01*
X46877200Y-64647676D01*
X47972438Y-64647676D02*
X47753390Y-64538152D01*
X47643866Y-64319104D01*
X47643866Y-62347676D01*
X49724819Y-64538152D02*
X49505771Y-64647676D01*
X49067676Y-64647676D01*
X48848628Y-64538152D01*
X48739104Y-64319104D01*
X48739104Y-63442914D01*
X48848628Y-63223866D01*
X49067676Y-63114342D01*
X49505771Y-63114342D01*
X49724819Y-63223866D01*
X49834342Y-63442914D01*
X49834342Y-63661961D01*
X48739104Y-63881009D01*
X50491485Y-63114342D02*
X51367676Y-63114342D01*
X50820057Y-62347676D02*
X50820057Y-64319104D01*
X50929580Y-64538152D01*
X51148628Y-64647676D01*
X51367676Y-64647676D01*
X53777200Y-64538152D02*
X53996247Y-64647676D01*
X54434342Y-64647676D01*
X54653390Y-64538152D01*
X54762914Y-64319104D01*
X54762914Y-64209580D01*
X54653390Y-63990533D01*
X54434342Y-63881009D01*
X54105771Y-63881009D01*
X53886723Y-63771485D01*
X53777200Y-63552438D01*
X53777200Y-63442914D01*
X53886723Y-63223866D01*
X54105771Y-63114342D01*
X54434342Y-63114342D01*
X54653390Y-63223866D01*
X55748628Y-64647676D02*
X55748628Y-63114342D01*
X55748628Y-62347676D02*
X55639104Y-62457200D01*
X55748628Y-62566723D01*
X55858152Y-62457200D01*
X55748628Y-62347676D01*
X55748628Y-62566723D01*
X56624819Y-63114342D02*
X57829580Y-63114342D01*
X56624819Y-64647676D01*
X57829580Y-64647676D01*
X59581961Y-64538152D02*
X59362914Y-64647676D01*
X58924819Y-64647676D01*
X58705771Y-64538152D01*
X58596247Y-64319104D01*
X58596247Y-63442914D01*
X58705771Y-63223866D01*
X58924819Y-63114342D01*
X59362914Y-63114342D01*
X59581961Y-63223866D01*
X59691485Y-63442914D01*
X59691485Y-63661961D01*
X58596247Y-63881009D01*
X60677200Y-64428628D02*
X60786723Y-64538152D01*
X60677200Y-64647676D01*
X60567676Y-64538152D01*
X60677200Y-64428628D01*
X60677200Y-64647676D01*
D10*
D11*
X-46984705Y-45990533D02*
X-45889467Y-45990533D01*
X-47203753Y-46647676D02*
X-46437086Y-44347676D01*
X-45670420Y-46647676D01*
X-44903753Y-45442914D02*
X-44137086Y-45442914D01*
X-43808515Y-46647676D02*
X-44903753Y-46647676D01*
X-44903753Y-44347676D01*
X-43808515Y-44347676D01*
X-42384705Y-44347676D02*
X-42165658Y-44347676D01*
X-41946610Y-44457200D01*
X-41837086Y-44566723D01*
X-41727562Y-44785771D01*
X-41618039Y-45223866D01*
X-41618039Y-45771485D01*
X-41727562Y-46209580D01*
X-41837086Y-46428628D01*
X-41946610Y-46538152D01*
X-42165658Y-46647676D01*
X-42384705Y-46647676D01*
X-42603753Y-46538152D01*
X-42713277Y-46428628D01*
X-42822800Y-46209580D01*
X-42932324Y-45771485D01*
X-42932324Y-45223866D01*
X-42822800Y-44785771D01*
X-42713277Y-44566723D01*
X-42603753Y-44457200D01*
X-42384705Y-44347676D01*
X-39427562Y-46647676D02*
X-40741848Y-46647676D01*
X-40084705Y-46647676D02*
X-40084705Y-44347676D01*
X-40303753Y-44676247D01*
X-40522800Y-44895295D01*
X-40741848Y-45004819D01*
X-38441848Y-46428628D02*
X-38332324Y-46538152D01*
X-38441848Y-46647676D01*
X-38551372Y-46538152D01*
X-38441848Y-46428628D01*
X-38441848Y-46647676D01*
X-36908515Y-44347676D02*
X-36689467Y-44347676D01*
X-36470420Y-44457200D01*
X-36360896Y-44566723D01*
X-36251372Y-44785771D01*
X-36141848Y-45223866D01*
X-36141848Y-45771485D01*
X-36251372Y-46209580D01*
X-36360896Y-46428628D01*
X-36470420Y-46538152D01*
X-36689467Y-46647676D01*
X-36908515Y-46647676D01*
X-37127562Y-46538152D01*
X-37237086Y-46428628D01*
X-37346610Y-46209580D01*
X-37456134Y-45771485D01*
X-37456134Y-45223866D01*
X-37346610Y-44785771D01*
X-37237086Y-44566723D01*
X-37127562Y-44457200D01*
X-36908515Y-44347676D01*
X-35375181Y-44347676D02*
X-33841848Y-44347676D01*
X-34827562Y-46647676D01*
X-32965658Y-46428628D02*
X-32856134Y-46538152D01*
X-32965658Y-46647676D01*
X-33075181Y-46538152D01*
X-32965658Y-46428628D01*
X-32965658Y-46647676D01*
X-30775181Y-44347676D02*
X-31870420Y-44347676D01*
X-31979943Y-45442914D01*
X-31870420Y-45333390D01*
X-31651372Y-45223866D01*
X-31103753Y-45223866D01*
X-30884705Y-45333390D01*
X-30775181Y-45442914D01*
X-30665658Y-45661961D01*
X-30665658Y-46209580D01*
X-30775181Y-46428628D01*
X-30884705Y-46538152D01*
X-31103753Y-46647676D01*
X-31651372Y-46647676D01*
X-31870420Y-46538152D01*
X-31979943Y-46428628D01*
X-29241848Y-44347676D02*
X-29022800Y-44347676D01*
X-28803753Y-44457200D01*
X-28694229Y-44566723D01*
X-28584705Y-44785771D01*
X-28475181Y-45223866D01*
X-28475181Y-45771485D01*
X-28584705Y-46209580D01*
X-28694229Y-46428628D01*
X-28803753Y-46538152D01*
X-29022800Y-46647676D01*
X-29241848Y-46647676D01*
X-29460896Y-46538152D01*
X-29570420Y-46428628D01*
X-29679943Y-46209580D01*
X-29789467Y-45771485D01*
X-29789467Y-45223866D01*
X-29679943Y-44785771D01*
X-29570420Y-44566723D01*
X-29460896Y-44457200D01*
X-29241848Y-44347676D01*
X-27489467Y-46428628D02*
X-27379943Y-46538152D01*
X-27489467Y-46647676D01*
X-27598991Y-46538152D01*
X-27489467Y-46428628D01*
X-27489467Y-46647676D01*
X-25189467Y-46647676D02*
X-26503753Y-46647676D01*
X-25846610Y-46647676D02*
X-25846610Y-44347676D01*
X-26065658Y-44676247D01*
X-26284705Y-44895295D01*
X-26503753Y-45004819D01*
X-23765658Y-44347676D02*
X-23546610Y-44347676D01*
X-23327562Y-44457200D01*
X-23218039Y-44566723D01*
X-23108515Y-44785771D01*
X-22998991Y-45223866D01*
X-22998991Y-45771485D01*
X-23108515Y-46209580D01*
X-23218039Y-46428628D01*
X-23327562Y-46538152D01*
X-23546610Y-46647676D01*
X-23765658Y-46647676D01*
X-23984705Y-46538152D01*
X-24094229Y-46428628D01*
X-24203753Y-46209580D01*
X-24313277Y-45771485D01*
X-24313277Y-45223866D01*
X-24203753Y-44785771D01*
X-24094229Y-44566723D01*
X-23984705Y-44457200D01*
X-23765658Y-44347676D01*
X-21575181Y-44347676D02*
X-21356134Y-44347676D01*
X-21137086Y-44457200D01*
X-21027562Y-44566723D01*
X-20918039Y-44785771D01*
X-20808515Y-45223866D01*
X-20808515Y-45771485D01*
X-20918039Y-46209580D01*
X-21027562Y-46428628D01*
X-21137086Y-46538152D01*
X-21356134Y-46647676D01*
X-21575181Y-46647676D01*
X-21794229Y-46538152D01*
X-21903753Y-46428628D01*
X-22013277Y-46209580D01*
X-22122800Y-45771485D01*
X-22122800Y-45223866D01*
X-22013277Y-44785771D01*
X-21903753Y-44566723D01*
X-21794229Y-44457200D01*
X-21575181Y-44347676D01*
D10*
D11*
X-14875181Y-45771485D02*
X-13122800Y-45771485D01*
D10*
D14*
X-46956848Y-51416723D02*
X-46671134Y-51511961D01*
X-46194943Y-51511961D01*
X-46004467Y-51416723D01*
X-45909229Y-51321485D01*
X-45813991Y-51131009D01*
X-45813991Y-50940533D01*
X-45909229Y-50750057D01*
X-46004467Y-50654819D01*
X-46194943Y-50559580D01*
X-46575896Y-50464342D01*
X-46766372Y-50369104D01*
X-46861610Y-50273866D01*
X-46956848Y-50083390D01*
X-46956848Y-49892914D01*
X-46861610Y-49702438D01*
X-46766372Y-49607200D01*
X-46575896Y-49511961D01*
X-46099705Y-49511961D01*
X-45813991Y-49607200D01*
X-44956848Y-51511961D02*
X-44956848Y-49511961D01*
X-44956848Y-50464342D02*
X-43813991Y-50464342D01*
X-43813991Y-51511961D02*
X-43813991Y-49511961D01*
X-42861610Y-50464342D02*
X-42194943Y-50464342D01*
X-41909229Y-51511961D02*
X-42861610Y-51511961D01*
X-42861610Y-49511961D01*
X-41909229Y-49511961D01*
X-41052086Y-50464342D02*
X-40385420Y-50464342D01*
X-40099705Y-51511961D02*
X-41052086Y-51511961D01*
X-41052086Y-49511961D01*
X-40099705Y-49511961D01*
X-39528277Y-49511961D02*
X-38385420Y-49511961D01*
X-38956848Y-51511961D02*
X-38956848Y-49511961D01*
X-36194943Y-51511961D02*
X-36194943Y-49511961D01*
X-35052086Y-51511961D01*
X-35052086Y-49511961D01*
X-34194943Y-50940533D02*
X-33242562Y-50940533D01*
X-34385420Y-51511961D02*
X-33718753Y-49511961D01*
X-33052086Y-51511961D01*
X-32385420Y-51511961D02*
X-32385420Y-49511961D01*
X-31718753Y-50940533D01*
X-31052086Y-49511961D01*
X-31052086Y-51511961D01*
X-30099705Y-50464342D02*
X-29433039Y-50464342D01*
X-29147324Y-51511961D02*
X-30099705Y-51511961D01*
X-30099705Y-49511961D01*
X-29147324Y-49511961D01*
D10*
D14*
X27805057Y-50464342D02*
X27138390Y-50464342D01*
X27138390Y-51511961D02*
X27138390Y-49511961D01*
X28090771Y-49511961D01*
X28852676Y-51511961D02*
X28852676Y-49511961D01*
X30757438Y-51511961D02*
X29805057Y-51511961D01*
X29805057Y-49511961D01*
X31424104Y-50464342D02*
X32090771Y-50464342D01*
X32376485Y-51511961D02*
X31424104Y-51511961D01*
X31424104Y-49511961D01*
X32376485Y-49511961D01*
D10*
D14*
X-46861610Y-42511961D02*
X-46861610Y-40511961D01*
X-46099705Y-40511961D01*
X-45909229Y-40607200D01*
X-45813991Y-40702438D01*
X-45718753Y-40892914D01*
X-45718753Y-41178628D01*
X-45813991Y-41369104D01*
X-45909229Y-41464342D01*
X-46099705Y-41559580D01*
X-46861610Y-41559580D01*
X-44956848Y-41940533D02*
X-44004467Y-41940533D01*
X-45147324Y-42511961D02*
X-44480658Y-40511961D01*
X-43813991Y-42511961D01*
X-42004467Y-42511961D02*
X-42671134Y-41559580D01*
X-43147324Y-42511961D02*
X-43147324Y-40511961D01*
X-42385420Y-40511961D01*
X-42194943Y-40607200D01*
X-42099705Y-40702438D01*
X-42004467Y-40892914D01*
X-42004467Y-41178628D01*
X-42099705Y-41369104D01*
X-42194943Y-41464342D01*
X-42385420Y-41559580D01*
X-43147324Y-41559580D01*
X-41433039Y-40511961D02*
X-40290181Y-40511961D01*
X-40861610Y-42511961D02*
X-40861610Y-40511961D01*
X-38099705Y-42511961D02*
X-38099705Y-40511961D01*
X-36956848Y-42511961D01*
X-36956848Y-40511961D01*
X-36004467Y-40511961D02*
X-36004467Y-42131009D01*
X-35909229Y-42321485D01*
X-35813991Y-42416723D01*
X-35623515Y-42511961D01*
X-35242562Y-42511961D01*
X-35052086Y-42416723D01*
X-34956848Y-42321485D01*
X-34861610Y-42131009D01*
X-34861610Y-40511961D01*
X-33909229Y-42511961D02*
X-33909229Y-40511961D01*
X-33242562Y-41940533D01*
X-32575896Y-40511961D01*
X-32575896Y-42511961D01*
X-30956848Y-41464342D02*
X-30671134Y-41559580D01*
X-30575896Y-41654819D01*
X-30480658Y-41845295D01*
X-30480658Y-42131009D01*
X-30575896Y-42321485D01*
X-30671134Y-42416723D01*
X-30861610Y-42511961D01*
X-31623515Y-42511961D01*
X-31623515Y-40511961D01*
X-30956848Y-40511961D01*
X-30766372Y-40607200D01*
X-30671134Y-40702438D01*
X-30575896Y-40892914D01*
X-30575896Y-41083390D01*
X-30671134Y-41273866D01*
X-30766372Y-41369104D01*
X-30956848Y-41464342D01*
X-31623515Y-41464342D01*
X-29623515Y-41464342D02*
X-28956848Y-41464342D01*
X-28671134Y-42511961D02*
X-29623515Y-42511961D01*
X-29623515Y-40511961D01*
X-28671134Y-40511961D01*
X-26671134Y-42511961D02*
X-27337800Y-41559580D01*
X-27813991Y-42511961D02*
X-27813991Y-40511961D01*
X-27052086Y-40511961D01*
X-26861610Y-40607200D01*
X-26766372Y-40702438D01*
X-26671134Y-40892914D01*
X-26671134Y-41178628D01*
X-26766372Y-41369104D01*
X-26861610Y-41464342D01*
X-27052086Y-41559580D01*
X-27813991Y-41559580D01*
D10*
D11*
X109402200Y-39607200D02*
X109402200Y-48607200D01*
D10*
D11*
X109402200Y-30607200D02*
X109402200Y-39607200D01*
D10*
D11*
X131402200Y-39607200D02*
X-48597800Y-39607200D01*
D16*
X44700000Y30300000D02*
X36400000Y38600000D01*
X49500000Y29000000D02*
X54400000Y29000000D01*
X48200000Y30300000D02*
X49500000Y29000000D01*
X44700000Y30300000D02*
X48200000Y30300000D01*
X36400000Y38600000D02*
X-3600000Y38600000D01*
D17*
X-3600000Y27400000D02*
X-3600000Y52200000D01*
X52200000Y-3600000D02*
X-1400000Y-3600000D01*
X54400000Y27400000D02*
X54400000Y52200000D01*
X-1400000Y54400000D02*
X52200000Y54400000D01*
X52200000Y-3600000D02*
X54400000Y-1400000D01*
X41500000Y25900000D02*
X33300000Y34100000D01*
X15800000Y23400000D02*
X11000000Y23400000D01*
X39500000Y5600000D02*
X39500000Y17300000D01*
X23500000Y26100000D02*
X23500000Y29200000D01*
X-1400000Y54400000D02*
X-3600000Y52200000D01*
X19500000Y21100000D02*
X16353553Y24253553D01*
X40500000Y17300000D02*
G75*
G03*
X39500000Y17300000I-500000J0D01*
G01*
X40146447Y846447D02*
X41246447Y-253553D01*
X54400000Y17600000D02*
X54400000Y23400000D01*
X33800000Y20000000D02*
X33800000Y27800000D01*
X10300000Y34500000D02*
X10300000Y31400000D01*
X39500001Y5600000D02*
G75*
G03*
X39646447Y5246447I499999J0D01*
G01*
X21046447Y24446447D02*
G75*
G03*
X21400000Y24300000I353553J353553D01*
G01*
X22700000Y25300000D02*
X23500000Y26100000D01*
X-3600000Y23400000D02*
X-3600000Y-1400000D01*
X16300000Y17500000D02*
G75*
G03*
X16300000Y16500000I0J-500000D01*
G01*
X32453553Y30553553D02*
G75*
G03*
X32100000Y30700000I-353553J-353553D01*
G01*
X-1500000Y33400000D02*
X1600000Y33400000D01*
X17400000Y7100000D02*
X21346447Y11053553D01*
X20300000Y35100000D02*
X33500000Y35100000D01*
X36000000Y4900000D02*
X36353553Y5246447D01*
X31000000Y10200000D02*
X21900000Y10200000D01*
X24500000Y200000D02*
X24500000Y3000000D01*
X35146447Y5453553D02*
X35500000Y5800000D01*
X33300000Y34100000D02*
X20300000Y34100000D01*
X41246447Y-253553D02*
G75*
G03*
X41600000Y-400000I353553J353553D01*
G01*
X40000001Y1200000D02*
G75*
G03*
X40146447Y846447I499999J0D01*
G01*
X35146447Y5453553D02*
G75*
G03*
X35000000Y5100000I353553J-353553D01*
G01*
X36500000Y17300000D02*
X36500000Y5600000D01*
X24646447Y3353553D02*
G75*
G03*
X24500000Y3000000I353553J-353553D01*
G01*
X1600000Y33400000D02*
X4446447Y30546447D01*
X33400000Y4700000D02*
G75*
G03*
X33400000Y5700000I0J500000D01*
G01*
X35000000Y-700000D02*
X35000000Y5100000D01*
X25500000Y200000D02*
X25500000Y2800000D01*
X47700000Y12100000D02*
G75*
G03*
X48700000Y12100000I500000J0D01*
G01*
X16300000Y16500000D02*
X28200000Y16500000D01*
X41500000Y20000000D02*
G75*
G03*
X42500000Y20000000I500000J0D01*
G01*
X28553553Y23346447D02*
G75*
G03*
X28700000Y23700000I-353553J353553D01*
G01*
X45100000Y1400000D02*
X45100000Y5000000D01*
X36000000Y-700000D02*
X36000000Y4900000D01*
X31900000Y29700000D02*
X33800000Y27800000D01*
X42900000Y34300000D02*
X45100000Y32100000D01*
X48700000Y12100000D02*
X48700000Y16600000D01*
X24500000Y200000D02*
G75*
G03*
X25500000Y200000I500000J0D01*
G01*
X41000000Y1400000D02*
X41800000Y600000D01*
X25100000Y20100001D02*
G75*
G03*
X25453553Y20246447I0J499999D01*
G01*
X20800000Y26100000D02*
X21600000Y25300000D01*
X25200000Y29700000D02*
X24500000Y29000000D01*
X15800000Y23400000D02*
X18946447Y20246447D01*
X35500000Y5800000D02*
X35500000Y17300000D01*
X41500000Y25900000D02*
X41500000Y20000000D01*
X46100000Y1200000D02*
X46100000Y5000000D01*
X34800000Y20000000D02*
X34800000Y28000000D01*
X54400000Y27400000D02*
G75*
G03*
X54400000Y23400000I0J-2000000D01*
G01*
X27400000Y4700000D02*
X33400000Y4700000D01*
X19800001Y25900000D02*
G75*
G03*
X19946447Y25546447I499999J0D01*
G01*
X33853553Y34953553D02*
X42353553Y26453553D01*
X28000000Y17500000D02*
X28853553Y18353553D01*
X54400000Y52200000D02*
X52200000Y54400000D01*
X-3600000Y23400000D02*
G75*
G03*
X-3600000Y27400000I0J2000000D01*
G01*
X24353553Y25546447D02*
G75*
G03*
X24500000Y25900000I-353553J353553D01*
G01*
X33200000Y18500000D02*
X29200000Y18500000D01*
X54400000Y17600000D02*
X48700000Y17600000D01*
X29400000Y17500000D02*
X33200000Y17500000D01*
X32453553Y30553553D02*
X34653553Y28353553D01*
X20800000Y30400000D02*
X20800000Y26100000D01*
X17600000Y6100001D02*
G75*
G03*
X17953553Y6246447I0J499999D01*
G01*
X16300000Y17500000D02*
X28000000Y17500000D01*
X-3600000Y-1400000D02*
X-1400000Y-3600000D01*
X33846447Y41946447D02*
X42346447Y33446447D01*
X24900000Y21100000D02*
X27700000Y23900000D01*
X28200000Y16500001D02*
G75*
G03*
X28553553Y16646447I0J499999D01*
G01*
X14800000Y30400000D02*
G75*
G03*
X14800000Y31400000I0J500000D01*
G01*
X42499999Y26100000D02*
G75*
G03*
X42353553Y26453553I-499999J0D01*
G01*
X26846447Y5553553D02*
X24646447Y3353553D01*
X42346447Y33446447D02*
X44546447Y31246447D01*
X5000000Y31400000D02*
X9300000Y31400000D01*
X48700000Y25000000D02*
G75*
G03*
X47700000Y25000000I-500000J0D01*
G01*
X36500000Y17300000D02*
G75*
G03*
X35500000Y17300000I-500000J0D01*
G01*
X4446447Y30546447D02*
G75*
G03*
X4800000Y30400000I353553J353553D01*
G01*
X46100000Y5000000D02*
G75*
G03*
X45100000Y5000000I-500000J0D01*
G01*
X33800000Y20000000D02*
G75*
G03*
X34800000Y20000000I500000J0D01*
G01*
X11000000Y24400000D02*
X16000000Y24400000D01*
X27700000Y23900000D02*
X27700000Y26100000D01*
X23646447Y29553553D02*
G75*
G03*
X23500000Y29200000I353553J-353553D01*
G01*
X48700000Y17600000D02*
X48700000Y25000000D01*
X40999999Y5100000D02*
G75*
G03*
X40853553Y5453553I-499999J0D01*
G01*
X44300000Y600000D02*
X45100000Y1400000D01*
X34553553Y42653553D02*
X42900000Y34300000D01*
X41000000Y1400000D02*
X41000000Y5100000D01*
X44546447Y31246447D02*
G75*
G03*
X44900000Y31100000I353553J353553D01*
G01*
X24500000Y29000000D02*
X24500000Y25900000D01*
X17600000Y6100000D02*
X5600000Y6100000D01*
X40000000Y4900000D02*
X39646447Y5246447D01*
X44500000Y-399999D02*
G75*
G03*
X44853553Y-253553I0J499999D01*
G01*
X21600000Y25300000D02*
X22700000Y25300000D01*
X21400000Y24300000D02*
X22900000Y24300001D01*
X25200000Y29700000D02*
X31900000Y29700000D01*
X31000000Y11200000D02*
X21700000Y11200000D01*
X44853553Y-253553D02*
X45953553Y846447D01*
X5600000Y7100000D02*
X17400000Y7100000D01*
X48700000Y16600000D02*
X54400000Y16600000D01*
X23244891Y24446455D02*
X24353553Y25546447D01*
X31000000Y10200000D02*
G75*
G03*
X31000000Y11200000I0J500000D01*
G01*
X28700000Y26100000D02*
X28700000Y23700000D01*
X5600000Y7100000D02*
G75*
G03*
X5600000Y6100000I0J-500000D01*
G01*
X45953553Y846447D02*
G75*
G03*
X46100000Y1200000I-353553J353553D01*
G01*
X25000000Y30700000D02*
X32100000Y30700000D01*
X10300000Y34500000D02*
G75*
G03*
X9300000Y34500000I-500000J0D01*
G01*
X33853553Y34953553D02*
G75*
G03*
X33500000Y35100000I-353553J-353553D01*
G01*
X10300000Y31400000D02*
X14800000Y31400000D01*
X5000000Y31400000D02*
X2153553Y34253553D01*
X40000000Y4900000D02*
X40000000Y1200000D01*
X-1500000Y34400000D02*
G75*
G03*
X-1500000Y33400000I0J-500000D01*
G01*
X33200000Y17500000D02*
G75*
G03*
X33200000Y18500000I0J500000D01*
G01*
X18946447Y20246447D02*
G75*
G03*
X19300000Y20100000I353553J353553D01*
G01*
X36353553Y5246447D02*
G75*
G03*
X36500000Y5600000I-353553J353553D01*
G01*
X20300000Y35100000D02*
G75*
G03*
X20300000Y34100000I0J-500000D01*
G01*
X41800000Y600000D02*
X44300000Y600000D01*
X19500000Y21100000D02*
X24900000Y21100000D01*
X29400000Y17500000D02*
X28553553Y16646447D01*
X49900000Y31100000D02*
G75*
G03*
X49900000Y32100000I0J500000D01*
G01*
X41600000Y-400000D02*
X44500000Y-400000D01*
X19946447Y25546447D02*
X21046447Y24446447D01*
X42500000Y20000000D02*
X42500000Y26100000D01*
X29200000Y18500005D02*
G75*
G03*
X28853553Y18353553I0J-483005D01*
G01*
X34553553Y42653553D02*
G75*
G03*
X33846447Y41946447I-353553J-353553D01*
G01*
X33400000Y5700000D02*
X27200000Y5700000D01*
X49900000Y31100000D02*
X44900000Y31100000D01*
X35000000Y-700000D02*
G75*
G03*
X36000000Y-700000I500000J0D01*
G01*
X47700000Y25000000D02*
X47700000Y12100000D01*
X16353553Y24253553D02*
G75*
G03*
X16000000Y24400000I-353553J-353553D01*
G01*
X40853553Y5453553D02*
X40500000Y5800000D01*
X25000000Y30699999D02*
G75*
G03*
X24646447Y30553553I0J-499999D01*
G01*
X22900000Y24299975D02*
G75*
G03*
X23244891Y24446455I-8900J500225D01*
G01*
X21900000Y10200000D02*
X17953553Y6246447D01*
X21700000Y11199999D02*
G75*
G03*
X21346447Y11053553I0J-499999D01*
G01*
X19300000Y20100000D02*
X25100000Y20100000D01*
X2153553Y34253553D02*
G75*
G03*
X1800000Y34400000I-353553J-353553D01*
G01*
X54400000Y16600000D02*
X54400000Y-1400000D01*
X20800000Y30400000D02*
G75*
G03*
X19800000Y30400000I-500000J0D01*
G01*
X40500000Y5800000D02*
X40500000Y17300000D01*
X28700000Y26100000D02*
G75*
G03*
X27700000Y26100000I-500000J0D01*
G01*
X11000000Y24400000D02*
G75*
G03*
X11000000Y23400000I0J-500000D01*
G01*
X25453553Y20246447D02*
X28553553Y23346447D01*
X-1500000Y34400000D02*
X1800000Y34400000D01*
X9300000Y31400000D02*
X9300000Y34500000D01*
X14800000Y30400000D02*
X4800000Y30400000D01*
X34799999Y28000000D02*
G75*
G03*
X34653553Y28353553I-499999J0D01*
G01*
X45100000Y32100000D02*
X49900000Y32100000D01*
X25500000Y2800000D02*
X27400000Y4700000D01*
X27200000Y5699999D02*
G75*
G03*
X26846447Y5553553I0J-499999D01*
G01*
X19800000Y30400000D02*
X19800000Y25900000D01*
X23646447Y29553553D02*
X24646447Y30553553D01*
D18*
X33364523Y-3352380D02*
X32888333Y-3352380D01*
X32888333Y-2352380D01*
X38416904Y-2400000D02*
X38321666Y-2352380D01*
X38178809Y-2352380D01*
X38035952Y-2400000D01*
X37940714Y-2495238D01*
X37893095Y-2590476D01*
X37845476Y-2780952D01*
X37845476Y-2923809D01*
X37893095Y-3114285D01*
X37940714Y-3209523D01*
X38035952Y-3304761D01*
X38178809Y-3352380D01*
X38274047Y-3352380D01*
X38416904Y-3304761D01*
X38464523Y-3257142D01*
X38464523Y-2923809D01*
X38274047Y-2923809D01*
X42969285Y-3352380D02*
X42969285Y-2352380D01*
X43540714Y-3352380D01*
X43540714Y-2352380D01*
X47695238Y9162620D02*
X47695238Y10162620D01*
X47933333Y10162620D01*
X48076190Y10115000D01*
X48171428Y10019762D01*
X48219047Y9924524D01*
X48266666Y9734048D01*
X48266666Y9591191D01*
X48219047Y9400715D01*
X48171428Y9305477D01*
X48076190Y9210239D01*
X47933333Y9162620D01*
X47695238Y9162620D01*
X48647619Y9448334D02*
X49123809Y9448334D01*
X48552380Y9162620D02*
X48885714Y10162620D01*
X49219047Y9162620D01*
X49552380Y9162620D02*
X49552380Y10162620D01*
X50123809Y9162620D01*
X50123809Y10162620D01*
X51123809Y10115000D02*
X51028571Y10162620D01*
X50885714Y10162620D01*
X50742857Y10115000D01*
X50647619Y10019762D01*
X50600000Y9924524D01*
X50552380Y9734048D01*
X50552380Y9591191D01*
X50600000Y9400715D01*
X50647619Y9305477D01*
X50742857Y9210239D01*
X50885714Y9162620D01*
X50980952Y9162620D01*
X51123809Y9210239D01*
X51171428Y9257858D01*
X51171428Y9591191D01*
X50980952Y9591191D01*
X51600000Y9686429D02*
X51933333Y9686429D01*
X52076190Y9162620D02*
X51600000Y9162620D01*
X51600000Y10162620D01*
X52076190Y10162620D01*
X53076190Y9162620D02*
X52742857Y9638810D01*
X52504761Y9162620D02*
X52504761Y10162620D01*
X52885714Y10162620D01*
X52980952Y10115000D01*
X53028571Y10067381D01*
X53076190Y9972143D01*
X53076190Y9829286D01*
X53028571Y9734048D01*
X52980952Y9686429D01*
X52885714Y9638810D01*
X52504761Y9638810D01*
X53504761Y9257858D02*
X53552380Y9210239D01*
X53504761Y9162620D01*
X53457142Y9210239D01*
X53504761Y9257858D01*
X53504761Y9162620D01*
X53504761Y9543572D02*
X53457142Y10115000D01*
X53504761Y10162620D01*
X53552380Y10115000D01*
X53504761Y9543572D01*
X53504761Y10162620D01*
X49052380Y7552620D02*
X49052380Y8552620D01*
X49052380Y8076429D02*
X49623809Y8076429D01*
X49623809Y7552620D02*
X49623809Y8552620D01*
X50100000Y7552620D02*
X50100000Y8552620D01*
X51100000Y8505000D02*
X51004761Y8552620D01*
X50861904Y8552620D01*
X50719047Y8505000D01*
X50623809Y8409762D01*
X50576190Y8314524D01*
X50528571Y8124048D01*
X50528571Y7981191D01*
X50576190Y7790715D01*
X50623809Y7695477D01*
X50719047Y7600239D01*
X50861904Y7552620D01*
X50957142Y7552620D01*
X51100000Y7600239D01*
X51147619Y7647858D01*
X51147619Y7981191D01*
X50957142Y7981191D01*
X51576190Y7552620D02*
X51576190Y8552620D01*
X51576190Y8076429D02*
X52147619Y8076429D01*
X52147619Y7552620D02*
X52147619Y8552620D01*
X47576190Y6942620D02*
X47909523Y5942620D01*
X48242857Y6942620D01*
X48766666Y6942620D02*
X48957142Y6942620D01*
X49052380Y6895000D01*
X49147619Y6799762D01*
X49195238Y6609286D01*
X49195238Y6275953D01*
X49147619Y6085477D01*
X49052380Y5990239D01*
X48957142Y5942620D01*
X48766666Y5942620D01*
X48671428Y5990239D01*
X48576190Y6085477D01*
X48528571Y6275953D01*
X48528571Y6609286D01*
X48576190Y6799762D01*
X48671428Y6895000D01*
X48766666Y6942620D01*
X50100000Y5942620D02*
X49623809Y5942620D01*
X49623809Y6942620D01*
X50290476Y6942620D02*
X50861904Y6942620D01*
X50576190Y5942620D02*
X50576190Y6942620D01*
X51147619Y6228334D02*
X51623809Y6228334D01*
X51052380Y5942620D02*
X51385714Y6942620D01*
X51719047Y5942620D01*
X52576190Y6895000D02*
X52480952Y6942620D01*
X52338095Y6942620D01*
X52195238Y6895000D01*
X52100000Y6799762D01*
X52052380Y6704524D01*
X52004761Y6514048D01*
X52004761Y6371191D01*
X52052380Y6180715D01*
X52100000Y6085477D01*
X52195238Y5990239D01*
X52338095Y5942620D01*
X52433333Y5942620D01*
X52576190Y5990239D01*
X52623809Y6037858D01*
X52623809Y6371191D01*
X52433333Y6371191D01*
X53052380Y6466429D02*
X53385714Y6466429D01*
X53528571Y5942620D02*
X53052380Y5942620D01*
X53052380Y6942620D01*
X53528571Y6942620D01*
X49123809Y4380239D02*
X49266666Y4332620D01*
X49504761Y4332620D01*
X49600000Y4380239D01*
X49647619Y4427858D01*
X49695238Y4523096D01*
X49695238Y4618334D01*
X49647619Y4713572D01*
X49600000Y4761191D01*
X49504761Y4808810D01*
X49314285Y4856429D01*
X49219047Y4904048D01*
X49171428Y4951667D01*
X49123809Y5046905D01*
X49123809Y5142143D01*
X49171428Y5237381D01*
X49219047Y5285000D01*
X49314285Y5332620D01*
X49552380Y5332620D01*
X49695238Y5285000D01*
X50123809Y4332620D02*
X50123809Y5332620D01*
X50600000Y4332620D02*
X50600000Y5332620D01*
X50838095Y5332620D01*
X50980952Y5285000D01*
X51076190Y5189762D01*
X51123809Y5094524D01*
X51171428Y4904048D01*
X51171428Y4761191D01*
X51123809Y4570715D01*
X51076190Y4475477D01*
X50980952Y4380239D01*
X50838095Y4332620D01*
X50600000Y4332620D01*
X51600000Y4856429D02*
X51933333Y4856429D01*
X52076190Y4332620D02*
X51600000Y4332620D01*
X51600000Y5332620D01*
X52076190Y5332620D01*
X50285714Y32757620D02*
X50285714Y33757620D01*
X50619047Y33043334D01*
X50952380Y33757620D01*
X50952380Y32757620D01*
X51380952Y33043334D02*
X51857142Y33043334D01*
X51285714Y32757620D02*
X51619047Y33757620D01*
X51952380Y32757620D01*
X52285714Y32757620D02*
X52285714Y33757620D01*
X52523809Y33757620D01*
X52666666Y33710000D01*
X52761904Y33614762D01*
X52809523Y33519524D01*
X52857142Y33329048D01*
X52857142Y33186191D01*
X52809523Y32995715D01*
X52761904Y32900477D01*
X52666666Y32805239D01*
X52523809Y32757620D01*
X52285714Y32757620D01*
X53285714Y33281429D02*
X53619047Y33281429D01*
X53761904Y32757620D02*
X53285714Y32757620D01*
X53285714Y33757620D01*
X53761904Y33757620D01*
X51476190Y31147620D02*
X51476190Y32147620D01*
X51952380Y31147620D02*
X51952380Y32147620D01*
X52523809Y31147620D01*
X52523809Y32147620D01*
X50023809Y29585239D02*
X50166666Y29537620D01*
X50404761Y29537620D01*
X50500000Y29585239D01*
X50547619Y29632858D01*
X50595238Y29728096D01*
X50595238Y29823334D01*
X50547619Y29918572D01*
X50500000Y29966191D01*
X50404761Y30013810D01*
X50214285Y30061429D01*
X50119047Y30109048D01*
X50071428Y30156667D01*
X50023809Y30251905D01*
X50023809Y30347143D01*
X50071428Y30442381D01*
X50119047Y30490000D01*
X50214285Y30537620D01*
X50452380Y30537620D01*
X50595238Y30490000D01*
X51023809Y29537620D02*
X51023809Y30537620D01*
X51404761Y30537620D01*
X51500000Y30490000D01*
X51547619Y30442381D01*
X51595238Y30347143D01*
X51595238Y30204286D01*
X51547619Y30109048D01*
X51500000Y30061429D01*
X51404761Y30013810D01*
X51023809Y30013810D01*
X51976190Y29823334D02*
X52452380Y29823334D01*
X51880952Y29537620D02*
X52214285Y30537620D01*
X52547619Y29537620D01*
X52880952Y29537620D02*
X52880952Y30537620D01*
X53357142Y29537620D02*
X53357142Y30537620D01*
X53928571Y29537620D01*
X53928571Y30537620D01*
X45219047Y53828572D02*
X45980952Y53828572D01*
X42619047Y53828572D02*
X43380952Y53828572D01*
X43000000Y53447620D02*
X43000000Y54209524D01*
X1133333Y28257620D02*
X800000Y28733810D01*
X561904Y28257620D02*
X561904Y29257620D01*
X942857Y29257620D01*
X1038095Y29210000D01*
X1085714Y29162381D01*
X1133333Y29067143D01*
X1133333Y28924286D01*
X1085714Y28829048D01*
X1038095Y28781429D01*
X942857Y28733810D01*
X561904Y28733810D01*
X1752380Y29257620D02*
X1942857Y29257620D01*
X2038095Y29210000D01*
X2133333Y29114762D01*
X2180952Y28924286D01*
X2180952Y28590953D01*
X2133333Y28400477D01*
X2038095Y28305239D01*
X1942857Y28257620D01*
X1752380Y28257620D01*
X1657142Y28305239D01*
X1561904Y28400477D01*
X1514285Y28590953D01*
X1514285Y28924286D01*
X1561904Y29114762D01*
X1657142Y29210000D01*
X1752380Y29257620D01*
X2609523Y28257620D02*
X2609523Y29257620D01*
X2609523Y28781429D02*
X3180952Y28781429D01*
X3180952Y28257620D02*
X3180952Y29257620D01*
X3609523Y28305239D02*
X3752380Y28257620D01*
X3990476Y28257620D01*
X4085714Y28305239D01*
X4133333Y28352858D01*
X4180952Y28448096D01*
X4180952Y28543334D01*
X4133333Y28638572D01*
X4085714Y28686191D01*
X3990476Y28733810D01*
X3800000Y28781429D01*
X3704761Y28829048D01*
X3657142Y28876667D01*
X3609523Y28971905D01*
X3609523Y29067143D01*
X3657142Y29162381D01*
X3704761Y29210000D01*
X3800000Y29257620D01*
X4038095Y29257620D01*
X4180952Y29210000D01*
X5942857Y28352858D02*
X5895238Y28305239D01*
X5752380Y28257620D01*
X5657142Y28257620D01*
X5514285Y28305239D01*
X5419047Y28400477D01*
X5371428Y28495715D01*
X5323809Y28686191D01*
X5323809Y28829048D01*
X5371428Y29019524D01*
X5419047Y29114762D01*
X5514285Y29210000D01*
X5657142Y29257620D01*
X5752380Y29257620D01*
X5895238Y29210000D01*
X5942857Y29162381D01*
X6561904Y29257620D02*
X6752380Y29257620D01*
X6847619Y29210000D01*
X6942857Y29114762D01*
X6990476Y28924286D01*
X6990476Y28590953D01*
X6942857Y28400477D01*
X6847619Y28305239D01*
X6752380Y28257620D01*
X6561904Y28257620D01*
X6466666Y28305239D01*
X6371428Y28400477D01*
X6323809Y28590953D01*
X6323809Y28924286D01*
X6371428Y29114762D01*
X6466666Y29210000D01*
X6561904Y29257620D01*
X7419047Y28257620D02*
X7419047Y29257620D01*
X7752380Y28543334D01*
X8085714Y29257620D01*
X8085714Y28257620D01*
X8561904Y28257620D02*
X8561904Y29257620D01*
X8942857Y29257620D01*
X9038095Y29210000D01*
X9085714Y29162381D01*
X9133333Y29067143D01*
X9133333Y28924286D01*
X9085714Y28829048D01*
X9038095Y28781429D01*
X8942857Y28733810D01*
X8561904Y28733810D01*
X10038095Y28257620D02*
X9561904Y28257620D01*
X9561904Y29257620D01*
X10371428Y28257620D02*
X10371428Y29257620D01*
X10800000Y28543334D02*
X11276190Y28543334D01*
X10704761Y28257620D02*
X11038095Y29257620D01*
X11371428Y28257620D01*
X11704761Y28257620D02*
X11704761Y29257620D01*
X12276190Y28257620D01*
X12276190Y29257620D01*
X12609523Y29257620D02*
X13180952Y29257620D01*
X12895238Y28257620D02*
X12895238Y29257620D01*
X3514285Y26647620D02*
X3038095Y26647620D01*
X3038095Y27647620D01*
X3847619Y27171429D02*
X4180952Y27171429D01*
X4323809Y26647620D02*
X3847619Y26647620D01*
X3847619Y27647620D01*
X4323809Y27647620D01*
X4704761Y26933334D02*
X5180952Y26933334D01*
X4609523Y26647620D02*
X4942857Y27647620D01*
X5276190Y26647620D01*
X5609523Y26647620D02*
X5609523Y27647620D01*
X5847619Y27647620D01*
X5990476Y27600000D01*
X6085714Y27504762D01*
X6133333Y27409524D01*
X6180952Y27219048D01*
X6180952Y27076191D01*
X6133333Y26885715D01*
X6085714Y26790477D01*
X5990476Y26695239D01*
X5847619Y26647620D01*
X5609523Y26647620D01*
X7704761Y27171429D02*
X7371428Y27171429D01*
X7371428Y26647620D02*
X7371428Y27647620D01*
X7847619Y27647620D01*
X8800000Y26647620D02*
X8466666Y27123810D01*
X8228571Y26647620D02*
X8228571Y27647620D01*
X8609523Y27647620D01*
X8704761Y27600000D01*
X8752380Y27552381D01*
X8800000Y27457143D01*
X8800000Y27314286D01*
X8752380Y27219048D01*
X8704761Y27171429D01*
X8609523Y27123810D01*
X8228571Y27123810D01*
X9228571Y27171429D02*
X9561904Y27171429D01*
X9704761Y26647620D02*
X9228571Y26647620D01*
X9228571Y27647620D01*
X9704761Y27647620D01*
X10133333Y27171429D02*
X10466666Y27171429D01*
X10609523Y26647620D02*
X10133333Y26647620D01*
X10133333Y27647620D01*
X10609523Y27647620D01*
X4252380Y26037620D02*
X4252380Y25228096D01*
X4300000Y25132858D01*
X4347619Y25085239D01*
X4442857Y25037620D01*
X4633333Y25037620D01*
X4728571Y25085239D01*
X4776190Y25132858D01*
X4823809Y25228096D01*
X4823809Y26037620D01*
X5776190Y25037620D02*
X5300000Y25037620D01*
X5300000Y26037620D01*
X6157142Y25037620D02*
X6347619Y25037620D01*
X6442857Y25085239D01*
X6490476Y25132858D01*
X6585714Y25275715D01*
X6633333Y25466191D01*
X6633333Y25847143D01*
X6585714Y25942381D01*
X6538095Y25990000D01*
X6442857Y26037620D01*
X6252380Y26037620D01*
X6157142Y25990000D01*
X6109523Y25942381D01*
X6061904Y25847143D01*
X6061904Y25609048D01*
X6109523Y25513810D01*
X6157142Y25466191D01*
X6252380Y25418572D01*
X6442857Y25418572D01*
X6538095Y25466191D01*
X6585714Y25513810D01*
X6633333Y25609048D01*
X7490476Y25704286D02*
X7490476Y25037620D01*
X7252380Y26085239D02*
X7014285Y25370953D01*
X7633333Y25370953D01*
X7871428Y26037620D02*
X8204761Y25037620D01*
X8538095Y26037620D01*
X9061904Y26037620D02*
X9157142Y26037620D01*
X9252380Y25990000D01*
X9300000Y25942381D01*
X9347619Y25847143D01*
X9395238Y25656667D01*
X9395238Y25418572D01*
X9347619Y25228096D01*
X9300000Y25132858D01*
X9252380Y25085239D01*
X9157142Y25037620D01*
X9061904Y25037620D01*
X8966666Y25085239D01*
X8919047Y25132858D01*
X8871428Y25228096D01*
X8823809Y25418572D01*
X8823809Y25656667D01*
X8871428Y25847143D01*
X8919047Y25942381D01*
X8966666Y25990000D01*
X9061904Y26037620D01*
X5966666Y23951429D02*
X5633333Y23951429D01*
X5633333Y23427620D02*
X5633333Y24427620D01*
X6109523Y24427620D01*
X7061904Y23427620D02*
X6728571Y23903810D01*
X6490476Y23427620D02*
X6490476Y24427620D01*
X6871428Y24427620D01*
X6966666Y24380000D01*
X7014285Y24332381D01*
X7061904Y24237143D01*
X7061904Y24094286D01*
X7014285Y23999048D01*
X6966666Y23951429D01*
X6871428Y23903810D01*
X6490476Y23903810D01*
X7919047Y24094286D02*
X7919047Y23427620D01*
X7680952Y24475239D02*
X7442857Y23760953D01*
X8061904Y23760953D01*
X-752620Y10904762D02*
X-1276429Y10904762D01*
X-1371667Y10857143D01*
X-1419286Y10761905D01*
X-1419286Y10571429D01*
X-1371667Y10476191D01*
X-800239Y10904762D02*
X-752620Y10809524D01*
X-752620Y10571429D01*
X-800239Y10476191D01*
X-895477Y10428572D01*
X-990715Y10428572D01*
X-1085953Y10476191D01*
X-1133572Y10571429D01*
X-1133572Y10809524D01*
X-1181191Y10904762D01*
X-800239Y11333334D02*
X-752620Y11428572D01*
X-752620Y11619048D01*
X-800239Y11714286D01*
X-895477Y11761905D01*
X-943096Y11761905D01*
X-1038334Y11714286D01*
X-1085953Y11619048D01*
X-1085953Y11476191D01*
X-1133572Y11380953D01*
X-1228810Y11333334D01*
X-1276429Y11333334D01*
X-1371667Y11380953D01*
X-1419286Y11476191D01*
X-1419286Y11619048D01*
X-1371667Y11714286D01*
X-1419286Y12047620D02*
X-1419286Y12428572D01*
X-1752620Y12190477D02*
X-895477Y12190477D01*
X-800239Y12238096D01*
X-752620Y12333334D01*
X-752620Y12428572D01*
X-752620Y12761905D02*
X-1419286Y12761905D01*
X-1228810Y12761905D02*
X-1324048Y12809524D01*
X-1371667Y12857143D01*
X-1419286Y12952381D01*
X-1419286Y13047620D01*
X-752620Y13523810D02*
X-800239Y13428572D01*
X-847858Y13380953D01*
X-943096Y13333334D01*
X-1228810Y13333334D01*
X-1324048Y13380953D01*
X-1371667Y13428572D01*
X-1419286Y13523810D01*
X-1419286Y13666667D01*
X-1371667Y13761905D01*
X-1324048Y13809524D01*
X-1228810Y13857143D01*
X-943096Y13857143D01*
X-847858Y13809524D01*
X-800239Y13761905D01*
X-752620Y13666667D01*
X-752620Y13523810D01*
X-800239Y14666667D02*
X-752620Y14571429D01*
X-752620Y14380953D01*
X-800239Y14285715D01*
X-895477Y14238096D01*
X-1276429Y14238096D01*
X-1371667Y14285715D01*
X-1419286Y14380953D01*
X-1419286Y14571429D01*
X-1371667Y14666667D01*
X-1276429Y14714286D01*
X-1181191Y14714286D01*
X-1085953Y14238096D01*
X-752620Y15285715D02*
X-800239Y15190477D01*
X-895477Y15142858D01*
X-1752620Y15142858D01*
X-800239Y16047620D02*
X-752620Y15952381D01*
X-752620Y15761905D01*
X-800239Y15666667D01*
X-895477Y15619048D01*
X-1276429Y15619048D01*
X-1371667Y15666667D01*
X-1419286Y15761905D01*
X-1419286Y15952381D01*
X-1371667Y16047620D01*
X-1276429Y16095239D01*
X-1181191Y16095239D01*
X-1085953Y15619048D01*
X-800239Y16952381D02*
X-752620Y16857143D01*
X-752620Y16666667D01*
X-800239Y16571429D01*
X-847858Y16523810D01*
X-943096Y16476191D01*
X-1228810Y16476191D01*
X-1324048Y16523810D01*
X-1371667Y16571429D01*
X-1419286Y16666667D01*
X-1419286Y16857143D01*
X-1371667Y16952381D01*
X-1419286Y17238096D02*
X-1419286Y17619048D01*
X-1752620Y17380953D02*
X-895477Y17380953D01*
X-800239Y17428572D01*
X-752620Y17523810D01*
X-752620Y17619048D01*
X-752620Y17952381D02*
X-1419286Y17952381D01*
X-1228810Y17952381D02*
X-1324048Y18000000D01*
X-1371667Y18047620D01*
X-1419286Y18142858D01*
X-1419286Y18238096D01*
X-752620Y18714286D02*
X-800239Y18619048D01*
X-847858Y18571429D01*
X-943096Y18523810D01*
X-1228810Y18523810D01*
X-1324048Y18571429D01*
X-1371667Y18619048D01*
X-1419286Y18714286D01*
X-1419286Y18857143D01*
X-1371667Y18952381D01*
X-1324048Y19000000D01*
X-1228810Y19047620D01*
X-943096Y19047620D01*
X-847858Y19000000D01*
X-800239Y18952381D01*
X-752620Y18857143D01*
X-752620Y18714286D01*
X-1419286Y19476191D02*
X-752620Y19476191D01*
X-1324048Y19476191D02*
X-1371667Y19523810D01*
X-1419286Y19619048D01*
X-1419286Y19761905D01*
X-1371667Y19857143D01*
X-1276429Y19904762D01*
X-752620Y19904762D01*
X-752620Y20380953D02*
X-1419286Y20380953D01*
X-1752620Y20380953D02*
X-1705000Y20333334D01*
X-1657381Y20380953D01*
X-1705000Y20428572D01*
X-1752620Y20380953D01*
X-1657381Y20380953D01*
X-800239Y21285715D02*
X-752620Y21190477D01*
X-752620Y21000000D01*
X-800239Y20904762D01*
X-847858Y20857143D01*
X-943096Y20809524D01*
X-1228810Y20809524D01*
X-1324048Y20857143D01*
X-1371667Y20904762D01*
X-1419286Y21000000D01*
X-1419286Y21190477D01*
X-1371667Y21285715D01*
X-1228810Y22333334D02*
X-1276429Y22285715D01*
X-1324048Y22190477D01*
X-1324048Y22095239D01*
X-1276429Y22000000D01*
X-1228810Y21952381D01*
X-1133572Y21904762D01*
X-1038334Y21904762D01*
X-943096Y21952381D01*
X-895477Y22000000D01*
X-847858Y22095239D01*
X-847858Y22190477D01*
X-895477Y22285715D01*
X-943096Y22333334D01*
X-1324048Y22333334D02*
X-943096Y22333334D01*
X-895477Y22380953D01*
X-895477Y22428572D01*
X-943096Y22523810D01*
X-1038334Y22571429D01*
X-1276429Y22571429D01*
X-1419286Y22476191D01*
X-1514524Y22333334D01*
X-1562143Y22142858D01*
X-1514524Y21952381D01*
X-1419286Y21809524D01*
X-1276429Y21714286D01*
X-1085953Y21666667D01*
X-895477Y21714286D01*
X-752620Y21809524D01*
X-657381Y21952381D01*
X-609762Y22142858D01*
X-657381Y22333334D01*
X-752620Y22476191D01*
X571666Y8547620D02*
X571666Y9023810D01*
X857380Y8452381D02*
X-142620Y8785715D01*
X857380Y9119048D01*
X333571Y9452381D02*
X333571Y9785715D01*
X857380Y9928572D02*
X857380Y9452381D01*
X-142620Y9452381D01*
X-142620Y9928572D01*
X-142620Y10547620D02*
X-142620Y10642858D01*
X-95000Y10738096D01*
X-47381Y10785715D01*
X47857Y10833334D01*
X238333Y10880953D01*
X476428Y10880953D01*
X666904Y10833334D01*
X762142Y10785715D01*
X809761Y10738096D01*
X857380Y10642858D01*
X857380Y10547620D01*
X809761Y10452381D01*
X762142Y10404762D01*
X666904Y10357143D01*
X476428Y10309524D01*
X238333Y10309524D01*
X47857Y10357143D01*
X-47381Y10404762D01*
X-95000Y10452381D01*
X-142620Y10547620D01*
X857380Y11833334D02*
X857380Y11261905D01*
X857380Y11547620D02*
X-142620Y11547620D01*
X238Y11452381D01*
X95476Y11357143D01*
X143095Y11261905D01*
X762142Y12261905D02*
X809761Y12309524D01*
X857380Y12261905D01*
X809761Y12214286D01*
X762142Y12261905D01*
X857380Y12261905D01*
X-142620Y12928572D02*
X-142620Y13023810D01*
X-95000Y13119048D01*
X-47381Y13166667D01*
X47857Y13214286D01*
X238333Y13261905D01*
X476428Y13261905D01*
X666904Y13214286D01*
X762142Y13166667D01*
X809761Y13119048D01*
X857380Y13023810D01*
X857380Y12928572D01*
X809761Y12833334D01*
X762142Y12785715D01*
X666904Y12738096D01*
X476428Y12690477D01*
X238333Y12690477D01*
X47857Y12738096D01*
X-47381Y12785715D01*
X-95000Y12833334D01*
X-142620Y12928572D01*
X-142620Y13595239D02*
X-142620Y14261905D01*
X857380Y13833334D01*
X762142Y14642858D02*
X809761Y14690477D01*
X857380Y14642858D01*
X809761Y14595239D01*
X762142Y14642858D01*
X857380Y14642858D01*
X-142620Y15595239D02*
X-142620Y15119048D01*
X333571Y15071429D01*
X285952Y15119048D01*
X238333Y15214286D01*
X238333Y15452381D01*
X285952Y15547620D01*
X333571Y15595239D01*
X428809Y15642858D01*
X666904Y15642858D01*
X762142Y15595239D01*
X809761Y15547620D01*
X857380Y15452381D01*
X857380Y15214286D01*
X809761Y15119048D01*
X762142Y15071429D01*
X-142620Y16261905D02*
X-142620Y16357143D01*
X-95000Y16452381D01*
X-47381Y16500000D01*
X47857Y16547620D01*
X238333Y16595239D01*
X476428Y16595239D01*
X666904Y16547620D01*
X762142Y16500000D01*
X809761Y16452381D01*
X857380Y16357143D01*
X857380Y16261905D01*
X809761Y16166667D01*
X762142Y16119048D01*
X666904Y16071429D01*
X476428Y16023810D01*
X238333Y16023810D01*
X47857Y16071429D01*
X-47381Y16119048D01*
X-95000Y16166667D01*
X-142620Y16261905D01*
X762142Y17023810D02*
X809761Y17071429D01*
X857380Y17023810D01*
X809761Y16976191D01*
X762142Y17023810D01*
X857380Y17023810D01*
X857380Y18023810D02*
X857380Y17452381D01*
X857380Y17738096D02*
X-142620Y17738096D01*
X238Y17642858D01*
X95476Y17547620D01*
X143095Y17452381D01*
X-142620Y18642858D02*
X-142620Y18738096D01*
X-95000Y18833334D01*
X-47381Y18880953D01*
X47857Y18928572D01*
X238333Y18976191D01*
X476428Y18976191D01*
X666904Y18928572D01*
X762142Y18880953D01*
X809761Y18833334D01*
X857380Y18738096D01*
X857380Y18642858D01*
X809761Y18547620D01*
X762142Y18500000D01*
X666904Y18452381D01*
X476428Y18404762D01*
X238333Y18404762D01*
X47857Y18452381D01*
X-47381Y18500000D01*
X-95000Y18547620D01*
X-142620Y18642858D01*
X-142620Y19595239D02*
X-142620Y19690477D01*
X-95000Y19785715D01*
X-47381Y19833334D01*
X47857Y19880953D01*
X238333Y19928572D01*
X476428Y19928572D01*
X666904Y19880953D01*
X762142Y19833334D01*
X809761Y19785715D01*
X857380Y19690477D01*
X857380Y19595239D01*
X809761Y19500000D01*
X762142Y19452381D01*
X666904Y19404762D01*
X476428Y19357143D01*
X238333Y19357143D01*
X47857Y19404762D01*
X-47381Y19452381D01*
X-95000Y19500000D01*
X-142620Y19595239D01*
X-142620Y20976191D02*
X857380Y21309524D01*
X-142620Y21642858D01*
X857380Y22500000D02*
X857380Y21928572D01*
X857380Y22214286D02*
X-142620Y22214286D01*
X238Y22119048D01*
X95476Y22023810D01*
X143095Y21928572D01*
X857380Y23500000D02*
X381190Y23166667D01*
X857380Y22928572D02*
X-142620Y22928572D01*
X-142620Y23309524D01*
X-95000Y23404762D01*
X-47381Y23452381D01*
X47857Y23500000D01*
X190714Y23500000D01*
X285952Y23452381D01*
X333571Y23404762D01*
X381190Y23309524D01*
X381190Y22928572D01*
X-142620Y24119048D02*
X-142620Y24214286D01*
X-95000Y24309524D01*
X-47381Y24357143D01*
X47857Y24404762D01*
X238333Y24452381D01*
X476428Y24452381D01*
X666904Y24404762D01*
X762142Y24357143D01*
X809761Y24309524D01*
X857380Y24214286D01*
X857380Y24119048D01*
X809761Y24023810D01*
X762142Y23976191D01*
X666904Y23928572D01*
X476428Y23880953D01*
X238333Y23880953D01*
X47857Y23928572D01*
X-47381Y23976191D01*
X-95000Y24023810D01*
X-142620Y24119048D01*
D17*
X1666666Y0D02*
G75*
G03*
X1666666Y0I-1666666J0D01*
G01*
X-2500000Y0D02*
X2500000Y0D01*
X0Y2500000D02*
X0Y-2500000D01*
X1666666Y0D02*
G75*
G03*
X1666666Y0I-1666666J0D01*
G01*
X-2500000Y0D02*
X2500000Y0D01*
X0Y2500000D02*
X0Y-2500000D01*
D18*
%TO.C,L1*%
X2733333Y23247620D02*
X2257142Y23247620D01*
X2257142Y24247620D01*
X3590476Y23247620D02*
X3019047Y23247620D01*
X3304761Y23247620D02*
X3304761Y24247620D01*
X3209523Y24104762D01*
X3114285Y24009524D01*
X3019047Y23961905D01*
%TO.C,CONN1*%
X47157142Y-2538095D02*
X47204761Y-2585714D01*
X47252380Y-2728571D01*
X47252380Y-2823809D01*
X47204761Y-2966666D01*
X47109523Y-3061904D01*
X47014285Y-3109523D01*
X46823809Y-3157142D01*
X46680952Y-3157142D01*
X46490476Y-3109523D01*
X46395238Y-3061904D01*
X46300000Y-2966666D01*
X46252380Y-2823809D01*
X46252380Y-2728571D01*
X46300000Y-2585714D01*
X46347619Y-2538095D01*
X46252380Y-1919047D02*
X46252380Y-1728571D01*
X46300000Y-1633333D01*
X46395238Y-1538095D01*
X46585714Y-1490476D01*
X46919047Y-1490476D01*
X47109523Y-1538095D01*
X47204761Y-1633333D01*
X47252380Y-1728571D01*
X47252380Y-1919047D01*
X47204761Y-2014285D01*
X47109523Y-2109523D01*
X46919047Y-2157142D01*
X46585714Y-2157142D01*
X46395238Y-2109523D01*
X46300000Y-2014285D01*
X46252380Y-1919047D01*
X47252380Y-1061904D02*
X46252380Y-1061904D01*
X47252380Y-490476D01*
X46252380Y-490476D01*
X47252380Y-14285D02*
X46252380Y-14285D01*
X47252380Y557143D01*
X46252380Y557143D01*
X47252380Y1557143D02*
X47252380Y985715D01*
X47252380Y1271429D02*
X46252380Y1271429D01*
X46395238Y1176191D01*
X46490476Y1080953D01*
X46538095Y985715D01*
%TO.C,L2*%
X49352380Y27433334D02*
X49352380Y26957143D01*
X48352380Y26957143D01*
X48447619Y27719048D02*
X48400000Y27766667D01*
X48352380Y27861905D01*
X48352380Y28100000D01*
X48400000Y28195239D01*
X48447619Y28242858D01*
X48542857Y28290477D01*
X48638095Y28290477D01*
X48780952Y28242858D01*
X49352380Y27671429D01*
X49352380Y28290477D01*
%TO.C,C1*%
X47057142Y11633334D02*
X47104761Y11585715D01*
X47152380Y11442858D01*
X47152380Y11347620D01*
X47104761Y11204762D01*
X47009523Y11109524D01*
X46914285Y11061905D01*
X46723809Y11014286D01*
X46580952Y11014286D01*
X46390476Y11061905D01*
X46295238Y11109524D01*
X46200000Y11204762D01*
X46152380Y11347620D01*
X46152380Y11442858D01*
X46200000Y11585715D01*
X46247619Y11633334D01*
X47152380Y12585715D02*
X47152380Y12014286D01*
X47152380Y12300000D02*
X46152380Y12300000D01*
X46295238Y12204762D01*
X46390476Y12109524D01*
X46438095Y12014286D01*
%TO.C,C3*%
X50833333Y22442858D02*
X50785714Y22395239D01*
X50642857Y22347620D01*
X50547619Y22347620D01*
X50404761Y22395239D01*
X50309523Y22490477D01*
X50261904Y22585715D01*
X50214285Y22776191D01*
X50214285Y22919048D01*
X50261904Y23109524D01*
X50309523Y23204762D01*
X50404761Y23300000D01*
X50547619Y23347620D01*
X50642857Y23347620D01*
X50785714Y23300000D01*
X50833333Y23252381D01*
X51166666Y23347620D02*
X51785714Y23347620D01*
X51452380Y22966667D01*
X51595238Y22966667D01*
X51690476Y22919048D01*
X51738095Y22871429D01*
X51785714Y22776191D01*
X51785714Y22538096D01*
X51738095Y22442858D01*
X51690476Y22395239D01*
X51595238Y22347620D01*
X51309523Y22347620D01*
X51214285Y22395239D01*
X51166666Y22442858D01*
%TO.C,PS1*%
X3452380Y51585715D02*
X2452380Y51585715D01*
X2452380Y51966667D01*
X2500000Y52061905D01*
X2547619Y52109524D01*
X2642857Y52157143D01*
X2785714Y52157143D01*
X2880952Y52109524D01*
X2928571Y52061905D01*
X2976190Y51966667D01*
X2976190Y51585715D01*
X3404761Y52538096D02*
X3452380Y52680953D01*
X3452380Y52919048D01*
X3404761Y53014286D01*
X3357142Y53061905D01*
X3261904Y53109524D01*
X3166666Y53109524D01*
X3071428Y53061905D01*
X3023809Y53014286D01*
X2976190Y52919048D01*
X2928571Y52728572D01*
X2880952Y52633334D01*
X2833333Y52585715D01*
X2738095Y52538096D01*
X2642857Y52538096D01*
X2547619Y52585715D01*
X2500000Y52633334D01*
X2452380Y52728572D01*
X2452380Y52966667D01*
X2500000Y53109524D01*
X3452380Y54061905D02*
X3452380Y53490477D01*
X3452380Y53776191D02*
X2452380Y53776191D01*
X2595238Y53680953D01*
X2690476Y53585715D01*
X2738095Y53490477D01*
%TO.C,C2*%
X12533333Y24842858D02*
X12485714Y24795239D01*
X12342857Y24747620D01*
X12247619Y24747620D01*
X12104761Y24795239D01*
X12009523Y24890477D01*
X11961904Y24985715D01*
X11914285Y25176191D01*
X11914285Y25319048D01*
X11961904Y25509524D01*
X12009523Y25604762D01*
X12104761Y25700000D01*
X12247619Y25747620D01*
X12342857Y25747620D01*
X12485714Y25700000D01*
X12533333Y25652381D01*
X12914285Y25652381D02*
X12961904Y25700000D01*
X13057142Y25747620D01*
X13295238Y25747620D01*
X13390476Y25700000D01*
X13438095Y25652381D01*
X13485714Y25557143D01*
X13485714Y25461905D01*
X13438095Y25319048D01*
X12866666Y24747620D01*
X13485714Y24747620D01*
%TO.C,C5*%
X48033333Y32442858D02*
X47985714Y32395239D01*
X47842857Y32347620D01*
X47747619Y32347620D01*
X47604761Y32395239D01*
X47509523Y32490477D01*
X47461904Y32585715D01*
X47414285Y32776191D01*
X47414285Y32919048D01*
X47461904Y33109524D01*
X47509523Y33204762D01*
X47604761Y33300000D01*
X47747619Y33347620D01*
X47842857Y33347620D01*
X47985714Y33300000D01*
X48033333Y33252381D01*
X48938095Y33347620D02*
X48461904Y33347620D01*
X48414285Y32871429D01*
X48461904Y32919048D01*
X48557142Y32966667D01*
X48795238Y32966667D01*
X48890476Y32919048D01*
X48938095Y32871429D01*
X48985714Y32776191D01*
X48985714Y32538096D01*
X48938095Y32442858D01*
X48890476Y32395239D01*
X48795238Y32347620D01*
X48557142Y32347620D01*
X48461904Y32395239D01*
X48414285Y32442858D01*
%TO.C,F1*%
X4528571Y4066667D02*
X4528571Y3733334D01*
X5052380Y3733334D02*
X4052380Y3733334D01*
X4052380Y4209524D01*
X5052380Y5114286D02*
X5052380Y4542858D01*
X5052380Y4828572D02*
X4052380Y4828572D01*
X4195238Y4733334D01*
X4290476Y4638096D01*
X4338095Y4542858D01*
%TO.C,RV1*%
X29652380Y8204762D02*
X29176190Y7871429D01*
X29652380Y7633334D02*
X28652380Y7633334D01*
X28652380Y8014286D01*
X28700000Y8109524D01*
X28747619Y8157143D01*
X28842857Y8204762D01*
X28985714Y8204762D01*
X29080952Y8157143D01*
X29128571Y8109524D01*
X29176190Y8014286D01*
X29176190Y7633334D01*
X28652380Y8490477D02*
X29652380Y8823810D01*
X28652380Y9157143D01*
X29652380Y10014286D02*
X29652380Y9442858D01*
X29652380Y9728572D02*
X28652380Y9728572D01*
X28795238Y9633334D01*
X28890476Y9538096D01*
X28938095Y9442858D01*
%TO.C,R1*%
X-1547620Y31233334D02*
X-2023810Y30900000D01*
X-1547620Y30661905D02*
X-2547620Y30661905D01*
X-2547620Y31042858D01*
X-2500000Y31138096D01*
X-2452381Y31185715D01*
X-2357143Y31233334D01*
X-2214286Y31233334D01*
X-2119048Y31185715D01*
X-2071429Y31138096D01*
X-2023810Y31042858D01*
X-2023810Y30661905D01*
X-1547620Y32185715D02*
X-1547620Y31614286D01*
X-1547620Y31900000D02*
X-2547620Y31900000D01*
X-2404762Y31804762D01*
X-2309524Y31709524D01*
X-2261905Y31614286D01*
%TO.C,C4*%
X53657142Y41633334D02*
X53704761Y41585715D01*
X53752380Y41442858D01*
X53752380Y41347620D01*
X53704761Y41204762D01*
X53609523Y41109524D01*
X53514285Y41061905D01*
X53323809Y41014286D01*
X53180952Y41014286D01*
X52990476Y41061905D01*
X52895238Y41109524D01*
X52800000Y41204762D01*
X52752380Y41347620D01*
X52752380Y41442858D01*
X52800000Y41585715D01*
X52847619Y41633334D01*
X53085714Y42490477D02*
X53752380Y42490477D01*
X52704761Y42252381D02*
X53419047Y42014286D01*
X53419047Y42633334D01*
%TO.C,TVS1*%
X50852380Y42733334D02*
X50852380Y43304762D01*
X51852380Y43019048D02*
X50852380Y43019048D01*
X50852380Y43495239D02*
X51852380Y43828572D01*
X50852380Y44161905D01*
X51804761Y44447620D02*
X51852380Y44590477D01*
X51852380Y44828572D01*
X51804761Y44923810D01*
X51757142Y44971429D01*
X51661904Y45019048D01*
X51566666Y45019048D01*
X51471428Y44971429D01*
X51423809Y44923810D01*
X51376190Y44828572D01*
X51328571Y44638096D01*
X51280952Y44542858D01*
X51233333Y44495239D01*
X51138095Y44447620D01*
X51042857Y44447620D01*
X50947619Y44495239D01*
X50900000Y44542858D01*
X50852380Y44638096D01*
X50852380Y44876191D01*
X50900000Y45019048D01*
X51852380Y45971429D02*
X51852380Y45400000D01*
X51852380Y45685715D02*
X50852380Y45685715D01*
X50995238Y45590477D01*
X51090476Y45495239D01*
X51138095Y45400000D01*
X42543095Y41647620D02*
X42543095Y42647620D01*
X43114523Y41647620D02*
X42685952Y42219048D01*
X43114523Y42647620D02*
X42543095Y42076191D01*
D19*
%TO.C,L1*%
X13934000Y22970000D02*
X2280000Y22970000D01*
X27920000Y8030000D02*
X27920000Y22970000D01*
X2280000Y8030000D02*
X2280000Y22970000D01*
X27920000Y22970000D02*
X16266000Y22970000D01*
X27920000Y8030000D02*
X16266000Y8030000D01*
X13934000Y8030000D02*
X2280000Y8030000D01*
%TO.C,LOGO3*%
G36*
X3117822Y3927029D02*
G01*
X2250198Y3927029D01*
X2250198Y7447822D01*
X3117822Y7447822D01*
X3117822Y3927029D01*
G37*
D20*
X3117822Y3927029D02*
X2250198Y3927029D01*
X2250198Y7447822D01*
X3117822Y7447822D01*
X3117822Y3927029D01*
G36*
X-2138218Y4580891D02*
G01*
X-2138218Y4648686D01*
X-2139304Y4688338D01*
X-2144546Y4709884D01*
X-2147666Y4712520D01*
X-2156919Y4720338D01*
X-2170396Y4724558D01*
X-2205373Y4741781D01*
X-2247421Y4774862D01*
X-2290644Y4818107D01*
X-2329146Y4865826D01*
X-2349199Y4897170D01*
X-2371149Y4932877D01*
X-2389033Y4950629D01*
X-2238812Y4950629D01*
X-2230746Y4932013D01*
X-2211180Y4904817D01*
X-2187056Y4877552D01*
X-2165318Y4858733D01*
X-2162492Y4857057D01*
X-2147666Y4851384D01*
X-2142144Y4857045D01*
X-2025049Y4857045D01*
X-1996757Y4863066D01*
X-1974382Y4866137D01*
X-1932283Y4870452D01*
X-1875822Y4875512D01*
X-1810365Y4880819D01*
X-1786138Y4882656D01*
X-1716579Y4888073D01*
X-1651982Y4893541D01*
X-1598452Y4898512D01*
X-1562090Y4902439D01*
X-1555491Y4903325D01*
X-1541944Y4906666D01*
X-1526086Y4913899D01*
X-1509865Y4924195D01*
X-1315326Y4924195D01*
X-1302896Y4924727D01*
X-1267890Y4927231D01*
X-1212785Y4931504D01*
X-1140057Y4937347D01*
X-1052186Y4944557D01*
X-951649Y4952934D01*
X-840923Y4962277D01*
X-735795Y4971242D01*
X-616517Y4981398D01*
X-503920Y4990858D01*
X-400695Y4999404D01*
X-309527Y5006821D01*
X-233105Y5012892D01*
X-174117Y5017399D01*
X-135251Y5020127D01*
X-120156Y5020884D01*
X-110762Y5022065D01*
X-107034Y5026744D01*
X-110529Y5036724D01*
X-122801Y5053810D01*
X-145406Y5079804D01*
X-179900Y5116510D01*
X-227838Y5165733D01*
X-290776Y5229274D01*
X-358032Y5296695D01*
X-633523Y5572399D01*
X-635594Y5570467D01*
X-743705Y5469591D01*
X-799623Y5417232D01*
X-862052Y5358465D01*
X-928557Y5295615D01*
X-996702Y5231005D01*
X-1064052Y5166958D01*
X-1128172Y5105797D01*
X-1186628Y5049847D01*
X-1236982Y5001430D01*
X-1276802Y4962870D01*
X-1303650Y4936491D01*
X-1315092Y4924616D01*
X-1315326Y4924195D01*
X-1509865Y4924195D01*
X-1506139Y4926560D01*
X-1480327Y4946189D01*
X-1446871Y4974322D01*
X-1403993Y5012498D01*
X-1349917Y5062254D01*
X-1282864Y5125129D01*
X-1201057Y5202659D01*
X-1118050Y5281749D01*
X-1035906Y5360436D01*
X-959831Y5433888D01*
X-891675Y5500276D01*
X-833288Y5557773D01*
X-786519Y5604549D01*
X-753218Y5638776D01*
X-737778Y5655818D01*
X-536954Y5655818D01*
X-527830Y5644278D01*
X-502800Y5617290D01*
X-463948Y5576979D01*
X-413357Y5525471D01*
X-353112Y5464891D01*
X-285296Y5397364D01*
X-229435Y5342174D01*
X76129Y5041276D01*
X361555Y5063599D01*
X445219Y5070331D01*
X521727Y5076843D01*
X587081Y5082766D01*
X637281Y5087732D01*
X668329Y5091371D01*
X675273Y5092542D01*
X703565Y5099162D01*
X703565Y6048636D01*
X624606Y6054974D01*
X531315Y6074110D01*
X448791Y6114154D01*
X380038Y6172582D01*
X328063Y6246871D01*
X296863Y6330252D01*
X282228Y6357302D01*
X250819Y6370844D01*
X249434Y6371128D01*
X236174Y6372753D01*
X222595Y6370744D01*
X206181Y6363142D01*
X184411Y6347984D01*
X154767Y6323312D01*
X114732Y6287164D01*
X61785Y6237580D01*
X-6591Y6172599D01*
X-10995Y6168401D01*
X-84389Y6098507D01*
X-162563Y6024200D01*
X-240136Y5950586D01*
X-311725Y5882771D01*
X-371949Y5825860D01*
X-385413Y5813168D01*
X-436180Y5764513D01*
X-479625Y5721291D01*
X-512759Y5686605D01*
X-532595Y5663556D01*
X-536954Y5655818D01*
X-737778Y5655818D01*
X-735233Y5658627D01*
X-732558Y5662860D01*
X-742259Y5673997D01*
X-767559Y5700029D01*
X-805918Y5738430D01*
X-854800Y5786672D01*
X-911666Y5842230D01*
X-953094Y5882408D01*
X-1170000Y6092169D01*
X-1170000Y5473663D01*
X-1408911Y5473663D01*
X-1408911Y6228119D01*
X-1302458Y6228119D01*
X-1440346Y6366435D01*
X-1538160Y6464553D01*
X-1578234Y6504752D01*
X-1701048Y6504752D01*
X-1757550Y6505137D01*
X-1793495Y6506900D01*
X-1813470Y6510950D01*
X-1816562Y6513558D01*
X-1404297Y6513558D01*
X-1397146Y6503666D01*
X-1374159Y6478476D01*
X-1337561Y6440190D01*
X-1289578Y6391011D01*
X-1232434Y6333139D01*
X-1168353Y6268778D01*
X-1099562Y6200129D01*
X-1028284Y6129395D01*
X-956745Y6058778D01*
X-887170Y5990480D01*
X-821783Y5926704D01*
X-762809Y5869650D01*
X-712473Y5821522D01*
X-673001Y5784522D01*
X-646617Y5760852D01*
X-635594Y5752710D01*
X-624220Y5761016D01*
X-597437Y5784267D01*
X-557708Y5820135D01*
X-507493Y5866287D01*
X-449254Y5920394D01*
X-385453Y5980126D01*
X-318551Y6043152D01*
X-251010Y6107142D01*
X-185290Y6169764D01*
X-123854Y6228690D01*
X-69163Y6281588D01*
X-23678Y6326128D01*
X10138Y6359980D01*
X29826Y6380812D01*
X33837Y6386494D01*
X20891Y6388366D01*
X-14866Y6392254D01*
X-71196Y6397943D01*
X-145860Y6405219D01*
X-236620Y6413869D01*
X-341238Y6423678D01*
X-457474Y6434434D01*
X-583092Y6445921D01*
X-684382Y6455093D01*
X-815721Y6466826D01*
X-939448Y6477665D01*
X-1053319Y6487430D01*
X-1155089Y6495937D01*
X-1242513Y6503005D01*
X-1313347Y6508451D01*
X-1365347Y6512092D01*
X-1396268Y6513747D01*
X-1404297Y6513558D01*
X-1816562Y6513558D01*
X-1822063Y6518199D01*
X-1823861Y6529130D01*
X-1826502Y6541288D01*
X-1837088Y6550273D01*
X-1859619Y6557174D01*
X-1898091Y6563076D01*
X-1956502Y6569065D01*
X-1977896Y6570987D01*
X-2025049Y6575148D01*
X-2025049Y4857045D01*
X-2142144Y4857045D01*
X-2140538Y4858692D01*
X-2138338Y4884007D01*
X-2138218Y4901092D01*
X-2138218Y4958119D01*
X-2188515Y4958119D01*
X-2220024Y4956456D01*
X-2237537Y4952303D01*
X-2238812Y4950629D01*
X-2389033Y4950629D01*
X-2389589Y4951181D01*
X-2411332Y4957612D01*
X-2424282Y4958106D01*
X-2427425Y4958106D01*
X-2465148Y4958119D01*
X-2465148Y5063952D01*
X-2463971Y5112645D01*
X-2460835Y5150595D01*
X-2456329Y5171692D01*
X-2454505Y5173977D01*
X-2451705Y5187359D01*
X-2452852Y5219926D01*
X-2457607Y5266084D01*
X-2461997Y5297624D01*
X-2470622Y5354812D01*
X-2478409Y5407114D01*
X-2484153Y5446418D01*
X-2485785Y5457945D01*
X-2495112Y5488063D01*
X-2509728Y5498812D01*
X-2367107Y5498812D01*
X-2358504Y5413935D01*
X-2351244Y5354632D01*
X-2341621Y5291449D01*
X-2334748Y5253614D01*
X-2319593Y5178168D01*
X-2228905Y5174474D01*
X-2138218Y5170779D01*
X-2138218Y6585302D01*
X-2187214Y6537458D01*
X-2247676Y6463150D01*
X-2294309Y6371184D01*
X-2327751Y6260002D01*
X-2346247Y6149529D01*
X-2354878Y6077227D01*
X-2263960Y6077227D01*
X-2263960Y5498812D01*
X-2367107Y5498812D01*
X-2509728Y5498812D01*
X-2515680Y5502080D01*
X-2520222Y5513770D01*
X-2523530Y5536712D01*
X-2525785Y5573735D01*
X-2526442Y5599406D01*
X-2427425Y5599406D01*
X-2364554Y5599406D01*
X-2364554Y5976633D01*
X-2427425Y5976633D01*
X-2427425Y5599406D01*
X-2526442Y5599406D01*
X-2527166Y5627668D01*
X-2527850Y5701340D01*
X-2528020Y5788020D01*
X-2527923Y5880529D01*
X-2527470Y5950906D01*
X-2526410Y6002164D01*
X-2524497Y6037320D01*
X-2521481Y6059389D01*
X-2517115Y6071385D01*
X-2511151Y6076324D01*
X-2504216Y6077227D01*
X-2482205Y6084921D01*
X-2469679Y6110121D01*
X-2465212Y6156009D01*
X-2465148Y6164264D01*
X-2457132Y6241973D01*
X-2435064Y6330233D01*
X-2401916Y6421085D01*
X-2360661Y6506570D01*
X-2314269Y6578726D01*
X-2306918Y6588072D01*
X-2283002Y6618533D01*
X-2273424Y6636572D01*
X-2276520Y6649169D01*
X-2289296Y6662100D01*
X-2314322Y6700293D01*
X-2323929Y6749998D01*
X-2318933Y6803524D01*
X-2300149Y6853178D01*
X-2268394Y6891267D01*
X-2264703Y6894025D01*
X-2205425Y6922526D01*
X-2144066Y6927828D01*
X-2085573Y6910518D01*
X-2034896Y6871180D01*
X-2030711Y6866370D01*
X-2010833Y6838440D01*
X-2002079Y6810102D01*
X-2001447Y6770263D01*
X-2002008Y6760311D01*
X-2003438Y6721332D01*
X-2000161Y6701254D01*
X-1990272Y6693985D01*
X-1981039Y6693240D01*
X-1954256Y6691716D01*
X-1913975Y6687935D01*
X-1889876Y6685218D01*
X-1851599Y6681277D01*
X-1832004Y6682916D01*
X-1824842Y6692421D01*
X-1823861Y6709351D01*
X-1827099Y6719392D01*
X-1837580Y6735590D01*
X-1856452Y6759145D01*
X-1884865Y6791257D01*
X-1910874Y6819109D01*
X-1728828Y6819109D01*
X-1647821Y6737376D01*
X-1598572Y6691270D01*
X-1560841Y6663694D01*
X-1538160Y6655643D01*
X-1522730Y6657471D01*
X-1514133Y6666723D01*
X-1510387Y6689050D01*
X-1509511Y6730105D01*
X-1509505Y6737376D01*
X-1509505Y6819109D01*
X-1728828Y6819109D01*
X-1910874Y6819109D01*
X-1923965Y6833128D01*
X-1974903Y6885957D01*
X-2038827Y6950945D01*
X-2116886Y7029291D01*
X-2210228Y7122197D01*
X-2320002Y7230863D01*
X-2373048Y7283231D01*
X-2922233Y7825049D01*
X-2835152Y7824430D01*
X-2748069Y7823811D01*
X-2289109Y7372086D01*
X-1830148Y6920361D01*
X-1619529Y6920032D01*
X-1408911Y6919703D01*
X-1408911Y6644610D01*
X-1355470Y6637522D01*
X-1331112Y6634838D01*
X-1285241Y6630313D01*
X-1220595Y6624191D01*
X-1139909Y6616712D01*
X-1045919Y6608119D01*
X-941363Y6598654D01*
X-828975Y6588558D01*
X-711493Y6578074D01*
X-591652Y6567444D01*
X-472189Y6556909D01*
X-355841Y6546713D01*
X-245343Y6537095D01*
X-143431Y6528300D01*
X-52842Y6520568D01*
X23687Y6514142D01*
X83421Y6509263D01*
X123624Y6506175D01*
X141559Y6505117D01*
X141644Y6505118D01*
X156035Y6512827D01*
X185748Y6535981D01*
X231131Y6574895D01*
X292529Y6629884D01*
X370288Y6701264D01*
X464754Y6789349D01*
X576272Y6894454D01*
X705188Y7016895D01*
X741287Y7051310D01*
X1313416Y7597137D01*
X1401436Y7508881D01*
X1323758Y7437485D01*
X1295686Y7411366D01*
X1252274Y7370566D01*
X1196366Y7317777D01*
X1130808Y7255691D01*
X1058441Y7187000D01*
X982112Y7114396D01*
X936524Y7070960D01*
X851119Y6989416D01*
X782710Y6923504D01*
X730053Y6871544D01*
X691905Y6831855D01*
X667020Y6802757D01*
X654156Y6782569D01*
X652068Y6769610D01*
X659513Y6762200D01*
X675246Y6758658D01*
X698023Y6757303D01*
X704239Y6757121D01*
X747061Y6747703D01*
X798819Y6724497D01*
X851328Y6692136D01*
X896403Y6655252D01*
X910328Y6640493D01*
X959047Y6564767D01*
X986306Y6476308D01*
X992773Y6398100D01*
X980576Y6309468D01*
X944813Y6227612D01*
X886722Y6155164D01*
X872262Y6141797D01*
X816733Y6092918D01*
X816733Y5247326D01*
X992773Y5247326D01*
X992773Y5020990D01*
X910531Y5020990D01*
X854386Y5018150D01*
X815416Y5008607D01*
X794219Y4997009D01*
X779052Y4988723D01*
X757062Y4981627D01*
X724987Y4975252D01*
X679569Y4969128D01*
X617548Y4962784D01*
X535662Y4955750D01*
X474746Y4950934D01*
X189343Y4928839D01*
X738805Y4386435D01*
X838228Y4288363D01*
X933815Y4194216D01*
X1023810Y4105715D01*
X1106457Y4024580D01*
X1180001Y3952531D01*
X1242684Y3891288D01*
X1292752Y3842573D01*
X1328448Y3808104D01*
X1347995Y3789621D01*
X1378944Y3759257D01*
X1400530Y3733929D01*
X1407723Y3720305D01*
X1399297Y3702905D01*
X1378245Y3677540D01*
X1369671Y3668942D01*
X1331620Y3632486D01*
X1127658Y3833198D01*
X1075699Y3884404D01*
X1008820Y3950431D01*
X929950Y4028382D01*
X842014Y4115362D01*
X747941Y4208474D01*
X650658Y4304821D01*
X553093Y4401508D01*
X483145Y4470866D01*
X376550Y4576297D01*
X286307Y4664871D01*
X211192Y4737719D01*
X149986Y4795977D01*
X101466Y4840775D01*
X76129Y4862979D01*
X64411Y4873249D01*
X37599Y4894529D01*
X19808Y4905749D01*
X11570Y4908246D01*
X-6410Y4907300D01*
X-47108Y4904427D01*
X-108181Y4899813D01*
X-187287Y4893642D01*
X-282086Y4886102D01*
X-390233Y4877379D01*
X-509388Y4867657D01*
X-637209Y4857124D01*
X-739365Y4848635D01*
X-1315326Y4800604D01*
X-1459274Y4788599D01*
X-2090842Y4188062D01*
X-2722411Y3587525D01*
X-2810685Y3587966D01*
X-2898960Y3588408D01*
X-2795334Y3685417D01*
X-2737537Y3739709D01*
X-2669632Y3803808D01*
X-2593428Y3875984D01*
X-2510731Y3954508D01*
X-2423347Y4037651D01*
X-2333085Y4123681D01*
X-2241750Y4210870D01*
X-2151151Y4297487D01*
X-2063093Y4381803D01*
X-1979385Y4462088D01*
X-1901833Y4536613D01*
X-1832243Y4603646D01*
X-1772424Y4661459D01*
X-1724182Y4708321D01*
X-1689324Y4742504D01*
X-1669657Y4762276D01*
X-1665884Y4766610D01*
X-1679008Y4766908D01*
X-1712611Y4765269D01*
X-1762120Y4761977D01*
X-1822963Y4757318D01*
X-1847268Y4755318D01*
X-2025049Y4740423D01*
X-2025049Y4580891D01*
X-2138218Y4580891D01*
G37*
X-2138218Y4580891D02*
X-2138218Y4648686D01*
X-2139304Y4688338D01*
X-2144546Y4709884D01*
X-2147666Y4712520D01*
X-2156919Y4720338D01*
X-2170396Y4724558D01*
X-2205373Y4741781D01*
X-2247421Y4774862D01*
X-2290644Y4818107D01*
X-2329146Y4865826D01*
X-2349199Y4897170D01*
X-2371149Y4932877D01*
X-2389033Y4950629D01*
X-2238812Y4950629D01*
X-2230746Y4932013D01*
X-2211180Y4904817D01*
X-2187056Y4877552D01*
X-2165318Y4858733D01*
X-2162492Y4857057D01*
X-2147666Y4851384D01*
X-2142144Y4857045D01*
X-2025049Y4857045D01*
X-1996757Y4863066D01*
X-1974382Y4866137D01*
X-1932283Y4870452D01*
X-1875822Y4875512D01*
X-1810365Y4880819D01*
X-1786138Y4882656D01*
X-1716579Y4888073D01*
X-1651982Y4893541D01*
X-1598452Y4898512D01*
X-1562090Y4902439D01*
X-1555491Y4903325D01*
X-1541944Y4906666D01*
X-1526086Y4913899D01*
X-1509865Y4924195D01*
X-1315326Y4924195D01*
X-1302896Y4924727D01*
X-1267890Y4927231D01*
X-1212785Y4931504D01*
X-1140057Y4937347D01*
X-1052186Y4944557D01*
X-951649Y4952934D01*
X-840923Y4962277D01*
X-735795Y4971242D01*
X-616517Y4981398D01*
X-503920Y4990858D01*
X-400695Y4999404D01*
X-309527Y5006821D01*
X-233105Y5012892D01*
X-174117Y5017399D01*
X-135251Y5020127D01*
X-120156Y5020884D01*
X-110762Y5022065D01*
X-107034Y5026744D01*
X-110529Y5036724D01*
X-122801Y5053810D01*
X-145406Y5079804D01*
X-179900Y5116510D01*
X-227838Y5165733D01*
X-290776Y5229274D01*
X-358032Y5296695D01*
X-633523Y5572399D01*
X-635594Y5570467D01*
X-743705Y5469591D01*
X-799623Y5417232D01*
X-862052Y5358465D01*
X-928557Y5295615D01*
X-996702Y5231005D01*
X-1064052Y5166958D01*
X-1128172Y5105797D01*
X-1186628Y5049847D01*
X-1236982Y5001430D01*
X-1276802Y4962870D01*
X-1303650Y4936491D01*
X-1315092Y4924616D01*
X-1315326Y4924195D01*
X-1509865Y4924195D01*
X-1506139Y4926560D01*
X-1480327Y4946189D01*
X-1446871Y4974322D01*
X-1403993Y5012498D01*
X-1349917Y5062254D01*
X-1282864Y5125129D01*
X-1201057Y5202659D01*
X-1118050Y5281749D01*
X-1035906Y5360436D01*
X-959831Y5433888D01*
X-891675Y5500276D01*
X-833288Y5557773D01*
X-786519Y5604549D01*
X-753218Y5638776D01*
X-737778Y5655818D01*
X-536954Y5655818D01*
X-527830Y5644278D01*
X-502800Y5617290D01*
X-463948Y5576979D01*
X-413357Y5525471D01*
X-353112Y5464891D01*
X-285296Y5397364D01*
X-229435Y5342174D01*
X76129Y5041276D01*
X361555Y5063599D01*
X445219Y5070331D01*
X521727Y5076843D01*
X587081Y5082766D01*
X637281Y5087732D01*
X668329Y5091371D01*
X675273Y5092542D01*
X703565Y5099162D01*
X703565Y6048636D01*
X624606Y6054974D01*
X531315Y6074110D01*
X448791Y6114154D01*
X380038Y6172582D01*
X328063Y6246871D01*
X296863Y6330252D01*
X282228Y6357302D01*
X250819Y6370844D01*
X249434Y6371128D01*
X236174Y6372753D01*
X222595Y6370744D01*
X206181Y6363142D01*
X184411Y6347984D01*
X154767Y6323312D01*
X114732Y6287164D01*
X61785Y6237580D01*
X-6591Y6172599D01*
X-10995Y6168401D01*
X-84389Y6098507D01*
X-162563Y6024200D01*
X-240136Y5950586D01*
X-311725Y5882771D01*
X-371949Y5825860D01*
X-385413Y5813168D01*
X-436180Y5764513D01*
X-479625Y5721291D01*
X-512759Y5686605D01*
X-532595Y5663556D01*
X-536954Y5655818D01*
X-737778Y5655818D01*
X-735233Y5658627D01*
X-732558Y5662860D01*
X-742259Y5673997D01*
X-767559Y5700029D01*
X-805918Y5738430D01*
X-854800Y5786672D01*
X-911666Y5842230D01*
X-953094Y5882408D01*
X-1170000Y6092169D01*
X-1170000Y5473663D01*
X-1408911Y5473663D01*
X-1408911Y6228119D01*
X-1302458Y6228119D01*
X-1440346Y6366435D01*
X-1538160Y6464553D01*
X-1578234Y6504752D01*
X-1701048Y6504752D01*
X-1757550Y6505137D01*
X-1793495Y6506900D01*
X-1813470Y6510950D01*
X-1816562Y6513558D01*
X-1404297Y6513558D01*
X-1397146Y6503666D01*
X-1374159Y6478476D01*
X-1337561Y6440190D01*
X-1289578Y6391011D01*
X-1232434Y6333139D01*
X-1168353Y6268778D01*
X-1099562Y6200129D01*
X-1028284Y6129395D01*
X-956745Y6058778D01*
X-887170Y5990480D01*
X-821783Y5926704D01*
X-762809Y5869650D01*
X-712473Y5821522D01*
X-673001Y5784522D01*
X-646617Y5760852D01*
X-635594Y5752710D01*
X-624220Y5761016D01*
X-597437Y5784267D01*
X-557708Y5820135D01*
X-507493Y5866287D01*
X-449254Y5920394D01*
X-385453Y5980126D01*
X-318551Y6043152D01*
X-251010Y6107142D01*
X-185290Y6169764D01*
X-123854Y6228690D01*
X-69163Y6281588D01*
X-23678Y6326128D01*
X10138Y6359980D01*
X29826Y6380812D01*
X33837Y6386494D01*
X20891Y6388366D01*
X-14866Y6392254D01*
X-71196Y6397943D01*
X-145860Y6405219D01*
X-236620Y6413869D01*
X-341238Y6423678D01*
X-457474Y6434434D01*
X-583092Y6445921D01*
X-684382Y6455093D01*
X-815721Y6466826D01*
X-939448Y6477665D01*
X-1053319Y6487430D01*
X-1155089Y6495937D01*
X-1242513Y6503005D01*
X-1313347Y6508451D01*
X-1365347Y6512092D01*
X-1396268Y6513747D01*
X-1404297Y6513558D01*
X-1816562Y6513558D01*
X-1822063Y6518199D01*
X-1823861Y6529130D01*
X-1826502Y6541288D01*
X-1837088Y6550273D01*
X-1859619Y6557174D01*
X-1898091Y6563076D01*
X-1956502Y6569065D01*
X-1977896Y6570987D01*
X-2025049Y6575148D01*
X-2025049Y4857045D01*
X-2142144Y4857045D01*
X-2140538Y4858692D01*
X-2138338Y4884007D01*
X-2138218Y4901092D01*
X-2138218Y4958119D01*
X-2188515Y4958119D01*
X-2220024Y4956456D01*
X-2237537Y4952303D01*
X-2238812Y4950629D01*
X-2389033Y4950629D01*
X-2389589Y4951181D01*
X-2411332Y4957612D01*
X-2424282Y4958106D01*
X-2427425Y4958106D01*
X-2465148Y4958119D01*
X-2465148Y5063952D01*
X-2463971Y5112645D01*
X-2460835Y5150595D01*
X-2456329Y5171692D01*
X-2454505Y5173977D01*
X-2451705Y5187359D01*
X-2452852Y5219926D01*
X-2457607Y5266084D01*
X-2461997Y5297624D01*
X-2470622Y5354812D01*
X-2478409Y5407114D01*
X-2484153Y5446418D01*
X-2485785Y5457945D01*
X-2495112Y5488063D01*
X-2509728Y5498812D01*
X-2367107Y5498812D01*
X-2358504Y5413935D01*
X-2351244Y5354632D01*
X-2341621Y5291449D01*
X-2334748Y5253614D01*
X-2319593Y5178168D01*
X-2228905Y5174474D01*
X-2138218Y5170779D01*
X-2138218Y6585302D01*
X-2187214Y6537458D01*
X-2247676Y6463150D01*
X-2294309Y6371184D01*
X-2327751Y6260002D01*
X-2346247Y6149529D01*
X-2354878Y6077227D01*
X-2263960Y6077227D01*
X-2263960Y5498812D01*
X-2367107Y5498812D01*
X-2509728Y5498812D01*
X-2515680Y5502080D01*
X-2520222Y5513770D01*
X-2523530Y5536712D01*
X-2525785Y5573735D01*
X-2526442Y5599406D01*
X-2427425Y5599406D01*
X-2364554Y5599406D01*
X-2364554Y5976633D01*
X-2427425Y5976633D01*
X-2427425Y5599406D01*
X-2526442Y5599406D01*
X-2527166Y5627668D01*
X-2527850Y5701340D01*
X-2528020Y5788020D01*
X-2527923Y5880529D01*
X-2527470Y5950906D01*
X-2526410Y6002164D01*
X-2524497Y6037320D01*
X-2521481Y6059389D01*
X-2517115Y6071385D01*
X-2511151Y6076324D01*
X-2504216Y6077227D01*
X-2482205Y6084921D01*
X-2469679Y6110121D01*
X-2465212Y6156009D01*
X-2465148Y6164264D01*
X-2457132Y6241973D01*
X-2435064Y6330233D01*
X-2401916Y6421085D01*
X-2360661Y6506570D01*
X-2314269Y6578726D01*
X-2306918Y6588072D01*
X-2283002Y6618533D01*
X-2273424Y6636572D01*
X-2276520Y6649169D01*
X-2289296Y6662100D01*
X-2314322Y6700293D01*
X-2323929Y6749998D01*
X-2318933Y6803524D01*
X-2300149Y6853178D01*
X-2268394Y6891267D01*
X-2264703Y6894025D01*
X-2205425Y6922526D01*
X-2144066Y6927828D01*
X-2085573Y6910518D01*
X-2034896Y6871180D01*
X-2030711Y6866370D01*
X-2010833Y6838440D01*
X-2002079Y6810102D01*
X-2001447Y6770263D01*
X-2002008Y6760311D01*
X-2003438Y6721332D01*
X-2000161Y6701254D01*
X-1990272Y6693985D01*
X-1981039Y6693240D01*
X-1954256Y6691716D01*
X-1913975Y6687935D01*
X-1889876Y6685218D01*
X-1851599Y6681277D01*
X-1832004Y6682916D01*
X-1824842Y6692421D01*
X-1823861Y6709351D01*
X-1827099Y6719392D01*
X-1837580Y6735590D01*
X-1856452Y6759145D01*
X-1884865Y6791257D01*
X-1910874Y6819109D01*
X-1728828Y6819109D01*
X-1647821Y6737376D01*
X-1598572Y6691270D01*
X-1560841Y6663694D01*
X-1538160Y6655643D01*
X-1522730Y6657471D01*
X-1514133Y6666723D01*
X-1510387Y6689050D01*
X-1509511Y6730105D01*
X-1509505Y6737376D01*
X-1509505Y6819109D01*
X-1728828Y6819109D01*
X-1910874Y6819109D01*
X-1923965Y6833128D01*
X-1974903Y6885957D01*
X-2038827Y6950945D01*
X-2116886Y7029291D01*
X-2210228Y7122197D01*
X-2320002Y7230863D01*
X-2373048Y7283231D01*
X-2922233Y7825049D01*
X-2835152Y7824430D01*
X-2748069Y7823811D01*
X-2289109Y7372086D01*
X-1830148Y6920361D01*
X-1619529Y6920032D01*
X-1408911Y6919703D01*
X-1408911Y6644610D01*
X-1355470Y6637522D01*
X-1331112Y6634838D01*
X-1285241Y6630313D01*
X-1220595Y6624191D01*
X-1139909Y6616712D01*
X-1045919Y6608119D01*
X-941363Y6598654D01*
X-828975Y6588558D01*
X-711493Y6578074D01*
X-591652Y6567444D01*
X-472189Y6556909D01*
X-355841Y6546713D01*
X-245343Y6537095D01*
X-143431Y6528300D01*
X-52842Y6520568D01*
X23687Y6514142D01*
X83421Y6509263D01*
X123624Y6506175D01*
X141559Y6505117D01*
X141644Y6505118D01*
X156035Y6512827D01*
X185748Y6535981D01*
X231131Y6574895D01*
X292529Y6629884D01*
X370288Y6701264D01*
X464754Y6789349D01*
X576272Y6894454D01*
X705188Y7016895D01*
X741287Y7051310D01*
X1313416Y7597137D01*
X1401436Y7508881D01*
X1323758Y7437485D01*
X1295686Y7411366D01*
X1252274Y7370566D01*
X1196366Y7317777D01*
X1130808Y7255691D01*
X1058441Y7187000D01*
X982112Y7114396D01*
X936524Y7070960D01*
X851119Y6989416D01*
X782710Y6923504D01*
X730053Y6871544D01*
X691905Y6831855D01*
X667020Y6802757D01*
X654156Y6782569D01*
X652068Y6769610D01*
X659513Y6762200D01*
X675246Y6758658D01*
X698023Y6757303D01*
X704239Y6757121D01*
X747061Y6747703D01*
X798819Y6724497D01*
X851328Y6692136D01*
X896403Y6655252D01*
X910328Y6640493D01*
X959047Y6564767D01*
X986306Y6476308D01*
X992773Y6398100D01*
X980576Y6309468D01*
X944813Y6227612D01*
X886722Y6155164D01*
X872262Y6141797D01*
X816733Y6092918D01*
X816733Y5247326D01*
X992773Y5247326D01*
X992773Y5020990D01*
X910531Y5020990D01*
X854386Y5018150D01*
X815416Y5008607D01*
X794219Y4997009D01*
X779052Y4988723D01*
X757062Y4981627D01*
X724987Y4975252D01*
X679569Y4969128D01*
X617548Y4962784D01*
X535662Y4955750D01*
X474746Y4950934D01*
X189343Y4928839D01*
X738805Y4386435D01*
X838228Y4288363D01*
X933815Y4194216D01*
X1023810Y4105715D01*
X1106457Y4024580D01*
X1180001Y3952531D01*
X1242684Y3891288D01*
X1292752Y3842573D01*
X1328448Y3808104D01*
X1347995Y3789621D01*
X1378944Y3759257D01*
X1400530Y3733929D01*
X1407723Y3720305D01*
X1399297Y3702905D01*
X1378245Y3677540D01*
X1369671Y3668942D01*
X1331620Y3632486D01*
X1127658Y3833198D01*
X1075699Y3884404D01*
X1008820Y3950431D01*
X929950Y4028382D01*
X842014Y4115362D01*
X747941Y4208474D01*
X650658Y4304821D01*
X553093Y4401508D01*
X483145Y4470866D01*
X376550Y4576297D01*
X286307Y4664871D01*
X211192Y4737719D01*
X149986Y4795977D01*
X101466Y4840775D01*
X76129Y4862979D01*
X64411Y4873249D01*
X37599Y4894529D01*
X19808Y4905749D01*
X11570Y4908246D01*
X-6410Y4907300D01*
X-47108Y4904427D01*
X-108181Y4899813D01*
X-187287Y4893642D01*
X-282086Y4886102D01*
X-390233Y4877379D01*
X-509388Y4867657D01*
X-637209Y4857124D01*
X-739365Y4848635D01*
X-1315326Y4800604D01*
X-1459274Y4788599D01*
X-2090842Y4188062D01*
X-2722411Y3587525D01*
X-2810685Y3587966D01*
X-2898960Y3588408D01*
X-2795334Y3685417D01*
X-2737537Y3739709D01*
X-2669632Y3803808D01*
X-2593428Y3875984D01*
X-2510731Y3954508D01*
X-2423347Y4037651D01*
X-2333085Y4123681D01*
X-2241750Y4210870D01*
X-2151151Y4297487D01*
X-2063093Y4381803D01*
X-1979385Y4462088D01*
X-1901833Y4536613D01*
X-1832243Y4603646D01*
X-1772424Y4661459D01*
X-1724182Y4708321D01*
X-1689324Y4742504D01*
X-1669657Y4762276D01*
X-1665884Y4766610D01*
X-1679008Y4766908D01*
X-1712611Y4765269D01*
X-1762120Y4761977D01*
X-1822963Y4757318D01*
X-1847268Y4755318D01*
X-2025049Y4740423D01*
X-2025049Y4580891D01*
X-2138218Y4580891D01*
D19*
%TO.C,CONN1*%
X41833000Y1472000D02*
X41786000Y1426000D01*
X30300000Y-1605000D02*
X45660000Y-1605000D01*
X44130000Y3770000D02*
X44095000Y3734000D01*
X36753000Y1472000D02*
X36706000Y1426000D01*
X39050000Y3770000D02*
X39015000Y3734000D01*
X30060000Y-1665000D02*
X30060000Y-2405000D01*
X42026000Y1256000D02*
X41991000Y1221000D01*
X39255000Y3564000D02*
X39208000Y3518000D01*
X30300000Y7756000D02*
X30300000Y-2165000D01*
X30300000Y7756000D02*
X45660000Y7756000D01*
X30060000Y-2405000D02*
X30560000Y-2405000D01*
X44335000Y3564000D02*
X44288000Y3518000D01*
X30300000Y-2165000D02*
X45660000Y-2165000D01*
X36946000Y1256000D02*
X36911000Y1221000D01*
X45660000Y7756000D02*
X45660000Y-2165000D01*
X30300000Y4796000D02*
X45660000Y4796000D01*
X30300000Y-105000D02*
X45660000Y-105000D01*
X33584000Y4030000D02*
G75*
G03*
X32216958Y4030427I-684001J-1534993D01*
G01*
X32216000Y960000D02*
G75*
G03*
X32928805Y814747I683999J1535001D01*
G01*
X31365000Y3179000D02*
G75*
G03*
X31364573Y1811958I1534993J-684001D01*
G01*
X34435001Y1811000D02*
G75*
G03*
X34435427Y3178042I-1535001J684000D01*
G01*
X32900000Y815000D02*
G75*
G03*
X33583318Y960244I0J1680000D01*
G01*
X44740000Y2495000D02*
G75*
G03*
X44740000Y2495000I-1680000J0D01*
G01*
X39660000Y2495000D02*
G75*
G03*
X39660000Y2495000I-1680000J0D01*
G01*
%TO.C,L2*%
X47972000Y29518000D02*
X47972000Y18482000D01*
X28428000Y29518000D02*
X28428000Y18482000D01*
X28428000Y29518000D02*
X47972000Y29518000D01*
X28428000Y18482000D02*
X47972000Y18482000D01*
%TO.C,C1*%
X28880000Y12880000D02*
X47120000Y12880000D01*
X28880000Y18120000D02*
X47120000Y18120000D01*
X47120000Y18120000D02*
X47120000Y12880000D01*
X28880000Y18120000D02*
X28880000Y12880000D01*
%TO.C,LOGO2*%
G36*
X2746280Y47620402D02*
G01*
X2747559Y47577104D01*
X2748796Y47505714D01*
X2749983Y47407673D01*
X2751115Y47284422D01*
X2752186Y47137403D01*
X2753189Y46968057D01*
X2754119Y46777826D01*
X2754968Y46568151D01*
X2755732Y46340473D01*
X2756403Y46096235D01*
X2756976Y45836877D01*
X2757444Y45563841D01*
X2757802Y45278568D01*
X2758042Y44982500D01*
X2758159Y44677079D01*
X2758171Y44548924D01*
X2758171Y41448970D01*
X2374847Y41670053D01*
X2293680Y41716856D01*
X2189166Y41777102D01*
X2064801Y41848778D01*
X1924082Y41929869D01*
X1770503Y42018362D01*
X1607562Y42112240D01*
X1438754Y42209491D01*
X1267575Y42308100D01*
X1097521Y42406053D01*
X1054512Y42430825D01*
X897857Y42521152D01*
X748803Y42607289D01*
X609568Y42687942D01*
X482371Y42761816D01*
X369432Y42827617D01*
X272968Y42884050D01*
X195200Y42929821D01*
X138346Y42963635D01*
X104625Y42984198D01*
X96040Y42989953D01*
X89189Y43002058D01*
X91158Y43022094D01*
X103736Y43054619D01*
X128712Y43104193D01*
X167876Y43175374D01*
X170988Y43180916D01*
X208476Y43246474D01*
X241319Y43301798D01*
X266205Y43341455D01*
X279820Y43360012D01*
X280487Y43360531D01*
X299390Y43356048D01*
X341605Y43335486D01*
X404832Y43300183D01*
X486772Y43251480D01*
X585122Y43190718D01*
X697585Y43119236D01*
X725165Y43101445D01*
X801699Y43055093D01*
X867556Y43021342D01*
X916782Y43003153D01*
X926507Y43001286D01*
X969312Y43002115D01*
X1037209Y43011394D01*
X1125843Y43027968D01*
X1230859Y43050680D01*
X1347902Y43078373D01*
X1472616Y43109890D01*
X1600645Y43144075D01*
X1727634Y43179771D01*
X1849228Y43215821D01*
X1961072Y43251068D01*
X2058810Y43284356D01*
X2138087Y43314528D01*
X2185122Y43335561D01*
X2235225Y43360337D01*
X2283168Y43383730D01*
X2285793Y43384997D01*
X2334220Y43423699D01*
X2366828Y43480184D01*
X2382454Y43545939D01*
X2379937Y43612451D01*
X2358114Y43671205D01*
X2329382Y43704258D01*
X2250583Y43751859D01*
X2152378Y43786739D01*
X2044779Y43805877D01*
X1983780Y43808588D01*
X1869935Y43797670D01*
X1775660Y43765624D01*
X1696379Y43710726D01*
X1678733Y43693607D01*
X1629235Y43642661D01*
X1279362Y43639163D01*
X929489Y43635664D01*
X794531Y43724818D01*
X733445Y43766654D01*
X678493Y43806945D01*
X637336Y43839943D01*
X622192Y43854126D01*
X584810Y43894281D01*
X614098Y43948665D01*
X635084Y43983039D01*
X651378Y44001846D01*
X654307Y44003049D01*
X666728Y44015903D01*
X675977Y44037896D01*
X684313Y44059150D01*
X700149Y44091694D01*
X725033Y44138322D01*
X760509Y44201829D01*
X808123Y44285008D01*
X869422Y44390653D01*
X902932Y44448062D01*
X943071Y44515594D01*
X971659Y44559885D01*
X992039Y44584855D01*
X1007553Y44594423D01*
X1021546Y44592508D01*
X1024796Y44590911D01*
X1045266Y44575376D01*
X1083665Y44542136D01*
X1135696Y44495062D01*
X1197066Y44438028D01*
X1249090Y44388700D01*
X1372567Y44275030D01*
X1479591Y44186105D01*
X1571240Y44121134D01*
X1648588Y44079321D01*
X1687866Y44065217D01*
X1722249Y44059392D01*
X1780899Y44053375D01*
X1857117Y44047696D01*
X1944202Y44042884D01*
X1999268Y44040619D01*
X2094464Y44037459D01*
X2164062Y44036069D01*
X2213409Y44036858D01*
X2247854Y44040235D01*
X2272743Y44046608D01*
X2293425Y44056387D01*
X2306053Y44064067D01*
X2354726Y44108421D01*
X2388645Y44165574D01*
X2403438Y44225708D01*
X2398086Y44270773D01*
X2374930Y44311576D01*
X2333462Y44362724D01*
X2280912Y44417042D01*
X2224516Y44467357D01*
X2171505Y44506494D01*
X2145889Y44520905D01*
X2110814Y44542491D01*
X2057389Y44581753D01*
X1989789Y44635102D01*
X1912190Y44698952D01*
X1828768Y44769715D01*
X1743698Y44843804D01*
X1661155Y44917632D01*
X1585316Y44987611D01*
X1520356Y45050155D01*
X1472669Y45099260D01*
X1425032Y45153779D01*
X1389908Y45199642D01*
X1370949Y45231811D01*
X1368864Y45242489D01*
X1377274Y45258853D01*
X1399846Y45299671D01*
X1435224Y45362586D01*
X1482054Y45445244D01*
X1538981Y45545289D01*
X1604649Y45660366D01*
X1677703Y45788119D01*
X1756788Y45926194D01*
X1840548Y46072234D01*
X1927629Y46223884D01*
X2016676Y46378790D01*
X2106332Y46534595D01*
X2195243Y46688944D01*
X2282054Y46839482D01*
X2365409Y46983854D01*
X2443954Y47119704D01*
X2516333Y47244677D01*
X2581190Y47356417D01*
X2637171Y47452570D01*
X2682920Y47530779D01*
X2717083Y47588689D01*
X2738304Y47623946D01*
X2744963Y47634165D01*
X2746280Y47620402D01*
G37*
D20*
X2746280Y47620402D02*
X2747559Y47577104D01*
X2748796Y47505714D01*
X2749983Y47407673D01*
X2751115Y47284422D01*
X2752186Y47137403D01*
X2753189Y46968057D01*
X2754119Y46777826D01*
X2754968Y46568151D01*
X2755732Y46340473D01*
X2756403Y46096235D01*
X2756976Y45836877D01*
X2757444Y45563841D01*
X2757802Y45278568D01*
X2758042Y44982500D01*
X2758159Y44677079D01*
X2758171Y44548924D01*
X2758171Y41448970D01*
X2374847Y41670053D01*
X2293680Y41716856D01*
X2189166Y41777102D01*
X2064801Y41848778D01*
X1924082Y41929869D01*
X1770503Y42018362D01*
X1607562Y42112240D01*
X1438754Y42209491D01*
X1267575Y42308100D01*
X1097521Y42406053D01*
X1054512Y42430825D01*
X897857Y42521152D01*
X748803Y42607289D01*
X609568Y42687942D01*
X482371Y42761816D01*
X369432Y42827617D01*
X272968Y42884050D01*
X195200Y42929821D01*
X138346Y42963635D01*
X104625Y42984198D01*
X96040Y42989953D01*
X89189Y43002058D01*
X91158Y43022094D01*
X103736Y43054619D01*
X128712Y43104193D01*
X167876Y43175374D01*
X170988Y43180916D01*
X208476Y43246474D01*
X241319Y43301798D01*
X266205Y43341455D01*
X279820Y43360012D01*
X280487Y43360531D01*
X299390Y43356048D01*
X341605Y43335486D01*
X404832Y43300183D01*
X486772Y43251480D01*
X585122Y43190718D01*
X697585Y43119236D01*
X725165Y43101445D01*
X801699Y43055093D01*
X867556Y43021342D01*
X916782Y43003153D01*
X926507Y43001286D01*
X969312Y43002115D01*
X1037209Y43011394D01*
X1125843Y43027968D01*
X1230859Y43050680D01*
X1347902Y43078373D01*
X1472616Y43109890D01*
X1600645Y43144075D01*
X1727634Y43179771D01*
X1849228Y43215821D01*
X1961072Y43251068D01*
X2058810Y43284356D01*
X2138087Y43314528D01*
X2185122Y43335561D01*
X2235225Y43360337D01*
X2283168Y43383730D01*
X2285793Y43384997D01*
X2334220Y43423699D01*
X2366828Y43480184D01*
X2382454Y43545939D01*
X2379937Y43612451D01*
X2358114Y43671205D01*
X2329382Y43704258D01*
X2250583Y43751859D01*
X2152378Y43786739D01*
X2044779Y43805877D01*
X1983780Y43808588D01*
X1869935Y43797670D01*
X1775660Y43765624D01*
X1696379Y43710726D01*
X1678733Y43693607D01*
X1629235Y43642661D01*
X1279362Y43639163D01*
X929489Y43635664D01*
X794531Y43724818D01*
X733445Y43766654D01*
X678493Y43806945D01*
X637336Y43839943D01*
X622192Y43854126D01*
X584810Y43894281D01*
X614098Y43948665D01*
X635084Y43983039D01*
X651378Y44001846D01*
X654307Y44003049D01*
X666728Y44015903D01*
X675977Y44037896D01*
X684313Y44059150D01*
X700149Y44091694D01*
X725033Y44138322D01*
X760509Y44201829D01*
X808123Y44285008D01*
X869422Y44390653D01*
X902932Y44448062D01*
X943071Y44515594D01*
X971659Y44559885D01*
X992039Y44584855D01*
X1007553Y44594423D01*
X1021546Y44592508D01*
X1024796Y44590911D01*
X1045266Y44575376D01*
X1083665Y44542136D01*
X1135696Y44495062D01*
X1197066Y44438028D01*
X1249090Y44388700D01*
X1372567Y44275030D01*
X1479591Y44186105D01*
X1571240Y44121134D01*
X1648588Y44079321D01*
X1687866Y44065217D01*
X1722249Y44059392D01*
X1780899Y44053375D01*
X1857117Y44047696D01*
X1944202Y44042884D01*
X1999268Y44040619D01*
X2094464Y44037459D01*
X2164062Y44036069D01*
X2213409Y44036858D01*
X2247854Y44040235D01*
X2272743Y44046608D01*
X2293425Y44056387D01*
X2306053Y44064067D01*
X2354726Y44108421D01*
X2388645Y44165574D01*
X2403438Y44225708D01*
X2398086Y44270773D01*
X2374930Y44311576D01*
X2333462Y44362724D01*
X2280912Y44417042D01*
X2224516Y44467357D01*
X2171505Y44506494D01*
X2145889Y44520905D01*
X2110814Y44542491D01*
X2057389Y44581753D01*
X1989789Y44635102D01*
X1912190Y44698952D01*
X1828768Y44769715D01*
X1743698Y44843804D01*
X1661155Y44917632D01*
X1585316Y44987611D01*
X1520356Y45050155D01*
X1472669Y45099260D01*
X1425032Y45153779D01*
X1389908Y45199642D01*
X1370949Y45231811D01*
X1368864Y45242489D01*
X1377274Y45258853D01*
X1399846Y45299671D01*
X1435224Y45362586D01*
X1482054Y45445244D01*
X1538981Y45545289D01*
X1604649Y45660366D01*
X1677703Y45788119D01*
X1756788Y45926194D01*
X1840548Y46072234D01*
X1927629Y46223884D01*
X2016676Y46378790D01*
X2106332Y46534595D01*
X2195243Y46688944D01*
X2282054Y46839482D01*
X2365409Y46983854D01*
X2443954Y47119704D01*
X2516333Y47244677D01*
X2581190Y47356417D01*
X2637171Y47452570D01*
X2682920Y47530779D01*
X2717083Y47588689D01*
X2738304Y47623946D01*
X2744963Y47634165D01*
X2746280Y47620402D01*
G36*
X2192242Y47920636D02*
G01*
X2170203Y47881941D01*
X2134971Y47820487D01*
X2087711Y47738298D01*
X2029589Y47637396D01*
X1961771Y47519805D01*
X1885424Y47387546D01*
X1801714Y47242642D01*
X1711806Y47087117D01*
X1616867Y46922992D01*
X1580732Y46860549D01*
X1484083Y46693487D01*
X1391938Y46534074D01*
X1305475Y46384355D01*
X1225871Y46246376D01*
X1154305Y46122185D01*
X1091955Y46013827D01*
X1039998Y45923348D01*
X999613Y45852796D01*
X971978Y45804215D01*
X958272Y45779654D01*
X956974Y45777085D01*
X945220Y45784569D01*
X913795Y45810614D01*
X865594Y45852559D01*
X803510Y45907746D01*
X730439Y45973517D01*
X649276Y46047212D01*
X562916Y46126173D01*
X474253Y46207740D01*
X386182Y46289254D01*
X301599Y46368057D01*
X223397Y46441490D01*
X154472Y46506893D01*
X97719Y46561608D01*
X56032Y46602977D01*
X42363Y46617164D01*
X-1799Y46664180D01*
X34619Y46687528D01*
X53693Y46698908D01*
X97421Y46724488D01*
X163619Y46763002D01*
X250102Y46813186D01*
X354685Y46873775D01*
X475183Y46943503D01*
X609412Y47021107D01*
X755187Y47105320D01*
X910323Y47194879D01*
X1070000Y47286998D01*
X1233117Y47381076D01*
X1389709Y47471402D01*
X1537506Y47556665D01*
X1674240Y47635557D01*
X1797642Y47706769D01*
X1905444Y47768991D01*
X1995377Y47820913D01*
X2065173Y47861228D01*
X2112564Y47888624D01*
X2134786Y47901507D01*
X2172330Y47922507D01*
X2195831Y47933925D01*
X2199920Y47934551D01*
X2192242Y47920636D01*
G37*
X2192242Y47920636D02*
X2170203Y47881941D01*
X2134971Y47820487D01*
X2087711Y47738298D01*
X2029589Y47637396D01*
X1961771Y47519805D01*
X1885424Y47387546D01*
X1801714Y47242642D01*
X1711806Y47087117D01*
X1616867Y46922992D01*
X1580732Y46860549D01*
X1484083Y46693487D01*
X1391938Y46534074D01*
X1305475Y46384355D01*
X1225871Y46246376D01*
X1154305Y46122185D01*
X1091955Y46013827D01*
X1039998Y45923348D01*
X999613Y45852796D01*
X971978Y45804215D01*
X958272Y45779654D01*
X956974Y45777085D01*
X945220Y45784569D01*
X913795Y45810614D01*
X865594Y45852559D01*
X803510Y45907746D01*
X730439Y45973517D01*
X649276Y46047212D01*
X562916Y46126173D01*
X474253Y46207740D01*
X386182Y46289254D01*
X301599Y46368057D01*
X223397Y46441490D01*
X154472Y46506893D01*
X97719Y46561608D01*
X56032Y46602977D01*
X42363Y46617164D01*
X-1799Y46664180D01*
X34619Y46687528D01*
X53693Y46698908D01*
X97421Y46724488D01*
X163619Y46763002D01*
X250102Y46813186D01*
X354685Y46873775D01*
X475183Y46943503D01*
X609412Y47021107D01*
X755187Y47105320D01*
X910323Y47194879D01*
X1070000Y47286998D01*
X1233117Y47381076D01*
X1389709Y47471402D01*
X1537506Y47556665D01*
X1674240Y47635557D01*
X1797642Y47706769D01*
X1905444Y47768991D01*
X1995377Y47820913D01*
X2065173Y47861228D01*
X2112564Y47888624D01*
X2134786Y47901507D01*
X2172330Y47922507D01*
X2195831Y47933925D01*
X2199920Y47934551D01*
X2192242Y47920636D01*
G36*
X-1068035Y46018501D02*
G01*
X-1040118Y45981114D01*
X-1005275Y45924235D01*
X-966246Y45852312D01*
X-929157Y45777015D01*
X-884183Y45674560D01*
X-843774Y45566817D01*
X-807031Y45450073D01*
X-773058Y45320618D01*
X-740956Y45174740D01*
X-709827Y45008726D01*
X-678773Y44818866D01*
X-649855Y44622469D01*
X-624200Y44451834D01*
X-598802Y44308545D01*
X-572398Y44189008D01*
X-543727Y44089630D01*
X-511527Y44006818D01*
X-474535Y43936978D01*
X-431488Y43876518D01*
X-381125Y43821845D01*
X-362417Y43804214D01*
X-318861Y43766000D01*
X-283318Y43737732D01*
X-262417Y43724618D01*
X-260703Y43724268D01*
X-250194Y43719680D01*
X-250076Y43703758D01*
X-261746Y43673266D01*
X-286604Y43624968D01*
X-326048Y43555627D01*
X-354413Y43507439D01*
X-398753Y43435583D01*
X-436721Y43379742D01*
X-465584Y43343667D01*
X-482612Y43331113D01*
X-482736Y43331121D01*
X-498963Y43338906D01*
X-539600Y43360892D01*
X-602433Y43395803D01*
X-685248Y43442363D01*
X-785828Y43499295D01*
X-901960Y43565323D01*
X-1031429Y43639172D01*
X-1172020Y43719564D01*
X-1321518Y43805224D01*
X-1477708Y43894876D01*
X-1638376Y43987243D01*
X-1801307Y44081049D01*
X-1964287Y44175018D01*
X-2125100Y44267874D01*
X-2281532Y44358340D01*
X-2431367Y44445141D01*
X-2572392Y44527000D01*
X-2702391Y44602641D01*
X-2819151Y44670787D01*
X-2920455Y44730163D01*
X-3004089Y44779493D01*
X-3067838Y44817500D01*
X-3109489Y44842907D01*
X-3126825Y44854440D01*
X-3127195Y44854923D01*
X-3114165Y44864043D01*
X-3076755Y44887065D01*
X-3017486Y44922534D01*
X-2938882Y44968996D01*
X-2843462Y45024996D01*
X-2733750Y45089081D01*
X-2612266Y45159796D01*
X-2481532Y45235687D01*
X-2344070Y45315299D01*
X-2202402Y45397178D01*
X-2059049Y45479870D01*
X-1916533Y45561921D01*
X-1777376Y45641876D01*
X-1644099Y45718281D01*
X-1519224Y45789682D01*
X-1405273Y45854624D01*
X-1304767Y45911653D01*
X-1220228Y45959315D01*
X-1154178Y45996155D01*
X-1109138Y46020720D01*
X-1087630Y46031554D01*
X-1086286Y46031951D01*
X-1068035Y46018501D01*
G37*
X-1068035Y46018501D02*
X-1040118Y45981114D01*
X-1005275Y45924235D01*
X-966246Y45852312D01*
X-929157Y45777015D01*
X-884183Y45674560D01*
X-843774Y45566817D01*
X-807031Y45450073D01*
X-773058Y45320618D01*
X-740956Y45174740D01*
X-709827Y45008726D01*
X-678773Y44818866D01*
X-649855Y44622469D01*
X-624200Y44451834D01*
X-598802Y44308545D01*
X-572398Y44189008D01*
X-543727Y44089630D01*
X-511527Y44006818D01*
X-474535Y43936978D01*
X-431488Y43876518D01*
X-381125Y43821845D01*
X-362417Y43804214D01*
X-318861Y43766000D01*
X-283318Y43737732D01*
X-262417Y43724618D01*
X-260703Y43724268D01*
X-250194Y43719680D01*
X-250076Y43703758D01*
X-261746Y43673266D01*
X-286604Y43624968D01*
X-326048Y43555627D01*
X-354413Y43507439D01*
X-398753Y43435583D01*
X-436721Y43379742D01*
X-465584Y43343667D01*
X-482612Y43331113D01*
X-482736Y43331121D01*
X-498963Y43338906D01*
X-539600Y43360892D01*
X-602433Y43395803D01*
X-685248Y43442363D01*
X-785828Y43499295D01*
X-901960Y43565323D01*
X-1031429Y43639172D01*
X-1172020Y43719564D01*
X-1321518Y43805224D01*
X-1477708Y43894876D01*
X-1638376Y43987243D01*
X-1801307Y44081049D01*
X-1964287Y44175018D01*
X-2125100Y44267874D01*
X-2281532Y44358340D01*
X-2431367Y44445141D01*
X-2572392Y44527000D01*
X-2702391Y44602641D01*
X-2819151Y44670787D01*
X-2920455Y44730163D01*
X-3004089Y44779493D01*
X-3067838Y44817500D01*
X-3109489Y44842907D01*
X-3126825Y44854440D01*
X-3127195Y44854923D01*
X-3114165Y44864043D01*
X-3076755Y44887065D01*
X-3017486Y44922534D01*
X-2938882Y44968996D01*
X-2843462Y45024996D01*
X-2733750Y45089081D01*
X-2612266Y45159796D01*
X-2481532Y45235687D01*
X-2344070Y45315299D01*
X-2202402Y45397178D01*
X-2059049Y45479870D01*
X-1916533Y45561921D01*
X-1777376Y45641876D01*
X-1644099Y45718281D01*
X-1519224Y45789682D01*
X-1405273Y45854624D01*
X-1304767Y45911653D01*
X-1220228Y45959315D01*
X-1154178Y45996155D01*
X-1109138Y46020720D01*
X-1087630Y46031554D01*
X-1086286Y46031951D01*
X-1068035Y46018501D01*
D19*
%TO.C,C3*%
X52756000Y13330000D02*
X54120000Y13330000D01*
X52756000Y21070000D02*
X54120000Y21070000D01*
X54120000Y13330000D02*
X54120000Y21070000D01*
X48880000Y21070000D02*
X50244000Y21070000D01*
X48880000Y13330000D02*
X50244000Y13330000D01*
X48880000Y13330000D02*
X48880000Y21070000D01*
%TO.C,PS1*%
X3770000Y54160000D02*
X3770000Y29920000D01*
X3770000Y29920000D02*
X41010000Y29920000D01*
X5150000Y29540000D02*
X11150000Y29540000D01*
X41010000Y29920000D02*
X41010000Y54160000D01*
X3770000Y54160000D02*
X41010000Y54160000D01*
%TO.C,C2*%
X14530000Y29220000D02*
X14530000Y27856000D01*
X22270000Y25344000D02*
X22270000Y23980000D01*
X14530000Y29220000D02*
X22270000Y29220000D01*
X14530000Y25344000D02*
X14530000Y23980000D01*
X22270000Y29220000D02*
X22270000Y27856000D01*
X14530000Y23980000D02*
X22270000Y23980000D01*
%TO.C,CONN2*%
X44270000Y50630000D02*
X44270000Y53230000D01*
X41670000Y51900000D02*
X41670000Y53230000D01*
X46870000Y48030000D02*
X46870000Y53230000D01*
X41670000Y48030000D02*
X46870000Y48030000D01*
X41670000Y50630000D02*
X44270000Y50630000D01*
X41670000Y53230000D02*
X43000000Y53230000D01*
X41670000Y48030000D02*
X41670000Y50630000D01*
X44270000Y53230000D02*
X46870000Y53230000D01*
%TO.C,C5*%
X48215000Y41112349D02*
X47415000Y41112349D01*
X48993000Y34981651D02*
X46540000Y34981651D01*
X49510000Y36341651D02*
X46540000Y36341651D01*
X44460000Y35661651D02*
X41679000Y35661651D01*
X44460000Y36301651D02*
X41498000Y36301651D01*
X44460000Y35301651D02*
X41834000Y35301651D01*
X48689000Y34541651D02*
X46540000Y34541651D01*
X46268000Y33061651D02*
X44732000Y33061651D01*
X48865000Y34781651D02*
X46540000Y34781651D01*
X49568000Y36782651D02*
X41432000Y36782651D01*
X49350000Y35741651D02*
X46540000Y35741651D01*
X49290000Y35581651D02*
X46540000Y35581651D01*
X48367000Y34181651D02*
X42633000Y34181651D01*
X48284000Y34101651D02*
X42716000Y34101651D01*
X44460000Y35021651D02*
X41983000Y35021651D01*
X44460000Y35581651D02*
X41710000Y35581651D01*
X48056000Y33901651D02*
X42944000Y33901651D01*
X44460000Y35181651D02*
X41894000Y35181651D01*
X49485000Y36221651D02*
X46540000Y36221651D01*
X48326000Y34141651D02*
X42674000Y34141651D01*
X48197000Y34021651D02*
X42803000Y34021651D01*
X49494000Y36261651D02*
X46540000Y36261651D01*
X49425000Y35981651D02*
X46540000Y35981651D01*
X48445000Y34261651D02*
X42555000Y34261651D01*
X44460000Y34581651D02*
X42280000Y34581651D01*
X49363000Y35781651D02*
X46540000Y35781651D01*
X48151000Y33981651D02*
X42849000Y33981651D01*
X49574000Y36862651D02*
X41426000Y36862651D01*
X49524000Y36422651D02*
X41476000Y36422651D01*
X44460000Y36261651D02*
X41506000Y36261651D01*
X49204000Y35381651D02*
X46540000Y35381651D01*
X48780000Y34661651D02*
X46540000Y34661651D01*
X48969000Y34941651D02*
X46540000Y34941651D01*
X48590000Y34421651D02*
X46540000Y34421651D01*
X49557000Y36662651D02*
X41443000Y36662651D01*
X49577000Y36942651D02*
X41423000Y36942651D01*
X49447000Y36061651D02*
X46540000Y36061651D01*
X44460000Y35221651D02*
X41873000Y35221651D01*
X47728000Y33661651D02*
X43272000Y33661651D01*
X48656000Y34501651D02*
X46540000Y34501651D01*
X47815000Y41512349D02*
X47815000Y40712349D01*
X47787000Y33701651D02*
X43213000Y33701651D01*
X44460000Y34861651D02*
X42082000Y34861651D01*
X49537000Y36502651D02*
X41463000Y36502651D01*
X44460000Y36341651D02*
X41490000Y36341651D01*
X48750000Y34621651D02*
X46540000Y34621651D01*
X49476000Y36181651D02*
X46540000Y36181651D01*
X48944000Y34901651D02*
X46540000Y34901651D01*
X48809000Y34701651D02*
X46540000Y34701651D01*
X49502000Y36301651D02*
X46540000Y36301651D01*
X44460000Y35341651D02*
X41814000Y35341651D01*
X44460000Y35781651D02*
X41637000Y35781651D01*
X49186000Y35341651D02*
X46540000Y35341651D01*
X48104000Y33941651D02*
X42896000Y33941651D01*
X44460000Y35541651D02*
X41726000Y35541651D01*
X48555000Y34381651D02*
X46540000Y34381651D01*
X44460000Y34701651D02*
X42191000Y34701651D01*
X44460000Y36061651D02*
X41553000Y36061651D01*
X47052000Y33301651D02*
X43948000Y33301651D01*
X47231000Y33381651D02*
X43769000Y33381651D01*
X49467000Y36141651D02*
X46540000Y36141651D01*
X46846000Y33221651D02*
X44154000Y33221651D01*
X44460000Y34901651D02*
X42056000Y34901651D01*
X44460000Y35621651D02*
X41695000Y35621651D01*
X48519000Y34341651D02*
X46540000Y34341651D01*
X44460000Y35141651D02*
X41916000Y35141651D01*
X48005000Y33861651D02*
X42995000Y33861651D01*
X44460000Y35701651D02*
X41665000Y35701651D01*
X44460000Y36381651D02*
X41483000Y36381651D01*
X47313000Y33421651D02*
X43687000Y33421651D01*
X49530000Y36462651D02*
X41470000Y36462651D01*
X48892000Y34821651D02*
X46540000Y34821651D01*
X46598000Y33141651D02*
X44402000Y33141651D01*
X44460000Y35941651D02*
X41586000Y35941651D01*
X47464000Y33501651D02*
X43536000Y33501651D01*
X49166000Y35301651D02*
X46540000Y35301651D01*
X47845000Y33741651D02*
X43155000Y33741651D01*
X49321000Y35661651D02*
X46540000Y35661651D01*
X44460000Y36181651D02*
X41524000Y36181651D01*
X49580000Y37062651D02*
X41420000Y37062651D01*
X44460000Y36101651D02*
X41543000Y36101651D01*
X49548000Y36582651D02*
X41452000Y36582651D01*
X47666000Y33621651D02*
X43334000Y33621651D01*
X48838000Y34741651D02*
X46540000Y34741651D01*
X49240000Y35461651D02*
X46540000Y35461651D01*
X44460000Y34661651D02*
X42220000Y34661651D01*
X44460000Y34501651D02*
X42344000Y34501651D01*
X49335000Y35701651D02*
X46540000Y35701651D01*
X49436000Y36021651D02*
X46540000Y36021651D01*
X47390000Y33461651D02*
X43610000Y33461651D01*
X49389000Y35861651D02*
X46540000Y35861651D01*
X48624000Y34461651D02*
X46540000Y34461651D01*
X44460000Y35461651D02*
X41760000Y35461651D01*
X47602000Y33581651D02*
X43398000Y33581651D01*
X49377000Y35821651D02*
X46540000Y35821651D01*
X49106000Y35181651D02*
X46540000Y35181651D01*
X44460000Y34421651D02*
X42410000Y34421651D01*
X49402000Y35901651D02*
X46540000Y35901651D01*
X49576000Y36902651D02*
X41424000Y36902651D01*
X47145000Y33341651D02*
X43855000Y33341651D01*
X44460000Y34981651D02*
X42007000Y34981651D01*
X49517000Y36381651D02*
X46540000Y36381651D01*
X48483000Y34301651D02*
X42517000Y34301651D01*
X48241000Y34061651D02*
X42759000Y34061651D01*
X44460000Y36141651D02*
X41533000Y36141651D01*
X46729000Y33181651D02*
X44271000Y33181651D01*
X49040000Y35061651D02*
X46540000Y35061651D01*
X44460000Y34381651D02*
X42445000Y34381651D01*
X44460000Y34821651D02*
X42108000Y34821651D01*
X49552000Y36622651D02*
X41448000Y36622651D01*
X44460000Y36221651D02*
X41515000Y36221651D01*
X46033000Y33021651D02*
X44967000Y33021651D01*
X49222000Y35421651D02*
X46540000Y35421651D01*
X44460000Y34621651D02*
X42250000Y34621651D01*
X44460000Y35981651D02*
X41575000Y35981651D01*
X47900000Y33781651D02*
X43100000Y33781651D01*
X44460000Y35861651D02*
X41611000Y35861651D01*
X49062000Y35101651D02*
X46540000Y35101651D01*
X49571000Y36822651D02*
X41429000Y36822651D01*
X49579000Y36982651D02*
X41421000Y36982651D01*
X49457000Y36101651D02*
X46540000Y36101651D01*
X49257000Y35501651D02*
X46540000Y35501651D01*
X49414000Y35941651D02*
X46540000Y35941651D01*
X44460000Y36021651D02*
X41564000Y36021651D01*
X44460000Y34781651D02*
X42135000Y34781651D01*
X44460000Y35901651D02*
X41598000Y35901651D01*
X46448000Y33101651D02*
X44552000Y33101651D01*
X44460000Y34461651D02*
X42376000Y34461651D01*
X44460000Y34741651D02*
X42162000Y34741651D01*
X44460000Y35101651D02*
X41938000Y35101651D01*
X49084000Y35141651D02*
X46540000Y35141651D01*
X49565000Y36742651D02*
X41435000Y36742651D01*
X44460000Y34541651D02*
X42311000Y34541651D01*
X48720000Y34581651D02*
X46540000Y34581651D01*
X49542000Y36542651D02*
X41458000Y36542651D01*
X44460000Y34941651D02*
X42031000Y34941651D01*
X49580000Y37102651D02*
X41420000Y37102651D01*
X44460000Y35741651D02*
X41650000Y35741651D01*
X49147000Y35261651D02*
X46540000Y35261651D01*
X49561000Y36702651D02*
X41439000Y36702651D01*
X47534000Y33541651D02*
X43466000Y33541651D01*
X49017000Y35021651D02*
X46540000Y35021651D01*
X44460000Y35381651D02*
X41796000Y35381651D01*
X49580000Y37022651D02*
X41420000Y37022651D01*
X49274000Y35541651D02*
X46540000Y35541651D01*
X48407000Y34221651D02*
X42593000Y34221651D01*
X44460000Y34341651D02*
X42481000Y34341651D01*
X47954000Y33821651D02*
X43046000Y33821651D01*
X44460000Y35261651D02*
X41853000Y35261651D01*
X44460000Y35061651D02*
X41960000Y35061651D01*
X49305000Y35621651D02*
X46540000Y35621651D01*
X48918000Y34861651D02*
X46540000Y34861651D01*
X49127000Y35221651D02*
X46540000Y35221651D01*
X44460000Y35421651D02*
X41778000Y35421651D01*
X44460000Y35501651D02*
X41743000Y35501651D01*
X46953000Y33261651D02*
X44047000Y33261651D01*
X44460000Y35821651D02*
X41623000Y35821651D01*
X49620000Y37102651D02*
G75*
G03*
X49620000Y37102651I-4120000J0D01*
G01*
%TO.C,F1*%
X5340000Y6510000D02*
X5340000Y3350000D01*
X28060000Y6510000D02*
X5340000Y6510000D01*
X5340000Y-150000D02*
X5340000Y-3310000D01*
X28060000Y6510000D02*
X28060000Y3350000D01*
X28060000Y-150000D02*
X28060000Y-3310000D01*
X28060000Y-3310000D02*
X5340000Y-3310000D01*
D18*
%TO.C,RV1*%
X30250000Y12450000D02*
X30250000Y8550000D01*
X30250000Y12450000D02*
X45750000Y12450000D01*
X45750000Y12450000D02*
X45750000Y8550000D01*
X30250000Y8550000D02*
X45750000Y8550000D01*
D19*
%TO.C,R1*%
X400000Y33770000D02*
X400000Y32810000D01*
X3020000Y36390000D02*
G75*
G03*
X3020000Y36390000I-2620000J0D01*
G01*
%TO.C,C4*%
X53421000Y35230000D02*
X52755000Y35230000D01*
X49979000Y40570000D02*
X49979000Y35230000D01*
X53421000Y40570000D02*
X52755000Y40570000D01*
X50645000Y40570000D02*
X49979000Y40570000D01*
X53421000Y40570000D02*
X53421000Y35230000D01*
X50645000Y35230000D02*
X49979000Y35230000D01*
%TO.C,TVS1*%
X45160000Y44400000D02*
X44405000Y44400000D01*
X50610000Y44400000D02*
G75*
G03*
X50610000Y44400000I-2725000J0D01*
G01*
%TD*%
M02*
