%TF.GenerationSoftware,KiCad,Pcbnew,6.0.4-6f826c9f35~116~ubuntu18.04.1*%
%TF.CreationDate,2022-04-09T00:00:09+02:00*%
%TF.ProjectId,AE01.07.50.100,41453031-2e30-4372-9e35-302e3130302e,V1R0*%
%TF.SameCoordinates,PX9464480PY76a3180*%
%TF.FileFunction,Legend,Top*%
%TF.FilePolarity,Positive*%
%FSLAX46Y46*%
G04 Gerber Fmt 4.6, Leading zero omitted, Abs format (unit mm)*
G04 Created by KiCad (PCBNEW 6.0.4-6f826c9f35~116~ubuntu18.04.1) date 2022-04-09 00:00:09*
%MOMM*%
%LPD*%
G01*
G04 APERTURE LIST*
%ADD10C,0.500000*%
%ADD11C,0.150000*%
%ADD12C,0.120000*%
%ADD13C,0.010000*%
G04 APERTURE END LIST*
D10*
X44700000Y30300000D02*
X36400000Y38600000D01*
X49500000Y29000000D02*
X54400000Y29000000D01*
X48200000Y30300000D02*
X49500000Y29000000D01*
X44700000Y30300000D02*
X48200000Y30300000D01*
X36400000Y38600000D02*
X-3600000Y38600000D01*
D11*
X33364523Y-3352380D02*
X32888333Y-3352380D01*
X32888333Y-2352380D01*
X38416904Y-2400000D02*
X38321666Y-2352380D01*
X38178809Y-2352380D01*
X38035952Y-2400000D01*
X37940714Y-2495238D01*
X37893095Y-2590476D01*
X37845476Y-2780952D01*
X37845476Y-2923809D01*
X37893095Y-3114285D01*
X37940714Y-3209523D01*
X38035952Y-3304761D01*
X38178809Y-3352380D01*
X38274047Y-3352380D01*
X38416904Y-3304761D01*
X38464523Y-3257142D01*
X38464523Y-2923809D01*
X38274047Y-2923809D01*
X42969285Y-3352380D02*
X42969285Y-2352380D01*
X43540714Y-3352380D01*
X43540714Y-2352380D01*
X47695238Y9162620D02*
X47695238Y10162620D01*
X47933333Y10162620D01*
X48076190Y10115000D01*
X48171428Y10019762D01*
X48219047Y9924524D01*
X48266666Y9734048D01*
X48266666Y9591191D01*
X48219047Y9400715D01*
X48171428Y9305477D01*
X48076190Y9210239D01*
X47933333Y9162620D01*
X47695238Y9162620D01*
X48647619Y9448334D02*
X49123809Y9448334D01*
X48552380Y9162620D02*
X48885714Y10162620D01*
X49219047Y9162620D01*
X49552380Y9162620D02*
X49552380Y10162620D01*
X50123809Y9162620D01*
X50123809Y10162620D01*
X51123809Y10115000D02*
X51028571Y10162620D01*
X50885714Y10162620D01*
X50742857Y10115000D01*
X50647619Y10019762D01*
X50600000Y9924524D01*
X50552380Y9734048D01*
X50552380Y9591191D01*
X50600000Y9400715D01*
X50647619Y9305477D01*
X50742857Y9210239D01*
X50885714Y9162620D01*
X50980952Y9162620D01*
X51123809Y9210239D01*
X51171428Y9257858D01*
X51171428Y9591191D01*
X50980952Y9591191D01*
X51600000Y9686429D02*
X51933333Y9686429D01*
X52076190Y9162620D02*
X51600000Y9162620D01*
X51600000Y10162620D01*
X52076190Y10162620D01*
X53076190Y9162620D02*
X52742857Y9638810D01*
X52504761Y9162620D02*
X52504761Y10162620D01*
X52885714Y10162620D01*
X52980952Y10115000D01*
X53028571Y10067381D01*
X53076190Y9972143D01*
X53076190Y9829286D01*
X53028571Y9734048D01*
X52980952Y9686429D01*
X52885714Y9638810D01*
X52504761Y9638810D01*
X53504761Y9257858D02*
X53552380Y9210239D01*
X53504761Y9162620D01*
X53457142Y9210239D01*
X53504761Y9257858D01*
X53504761Y9162620D01*
X53504761Y9543572D02*
X53457142Y10115000D01*
X53504761Y10162620D01*
X53552380Y10115000D01*
X53504761Y9543572D01*
X53504761Y10162620D01*
X49052380Y7552620D02*
X49052380Y8552620D01*
X49052380Y8076429D02*
X49623809Y8076429D01*
X49623809Y7552620D02*
X49623809Y8552620D01*
X50100000Y7552620D02*
X50100000Y8552620D01*
X51100000Y8505000D02*
X51004761Y8552620D01*
X50861904Y8552620D01*
X50719047Y8505000D01*
X50623809Y8409762D01*
X50576190Y8314524D01*
X50528571Y8124048D01*
X50528571Y7981191D01*
X50576190Y7790715D01*
X50623809Y7695477D01*
X50719047Y7600239D01*
X50861904Y7552620D01*
X50957142Y7552620D01*
X51100000Y7600239D01*
X51147619Y7647858D01*
X51147619Y7981191D01*
X50957142Y7981191D01*
X51576190Y7552620D02*
X51576190Y8552620D01*
X51576190Y8076429D02*
X52147619Y8076429D01*
X52147619Y7552620D02*
X52147619Y8552620D01*
X47576190Y6942620D02*
X47909523Y5942620D01*
X48242857Y6942620D01*
X48766666Y6942620D02*
X48957142Y6942620D01*
X49052380Y6895000D01*
X49147619Y6799762D01*
X49195238Y6609286D01*
X49195238Y6275953D01*
X49147619Y6085477D01*
X49052380Y5990239D01*
X48957142Y5942620D01*
X48766666Y5942620D01*
X48671428Y5990239D01*
X48576190Y6085477D01*
X48528571Y6275953D01*
X48528571Y6609286D01*
X48576190Y6799762D01*
X48671428Y6895000D01*
X48766666Y6942620D01*
X50100000Y5942620D02*
X49623809Y5942620D01*
X49623809Y6942620D01*
X50290476Y6942620D02*
X50861904Y6942620D01*
X50576190Y5942620D02*
X50576190Y6942620D01*
X51147619Y6228334D02*
X51623809Y6228334D01*
X51052380Y5942620D02*
X51385714Y6942620D01*
X51719047Y5942620D01*
X52576190Y6895000D02*
X52480952Y6942620D01*
X52338095Y6942620D01*
X52195238Y6895000D01*
X52100000Y6799762D01*
X52052380Y6704524D01*
X52004761Y6514048D01*
X52004761Y6371191D01*
X52052380Y6180715D01*
X52100000Y6085477D01*
X52195238Y5990239D01*
X52338095Y5942620D01*
X52433333Y5942620D01*
X52576190Y5990239D01*
X52623809Y6037858D01*
X52623809Y6371191D01*
X52433333Y6371191D01*
X53052380Y6466429D02*
X53385714Y6466429D01*
X53528571Y5942620D02*
X53052380Y5942620D01*
X53052380Y6942620D01*
X53528571Y6942620D01*
X49123809Y4380239D02*
X49266666Y4332620D01*
X49504761Y4332620D01*
X49600000Y4380239D01*
X49647619Y4427858D01*
X49695238Y4523096D01*
X49695238Y4618334D01*
X49647619Y4713572D01*
X49600000Y4761191D01*
X49504761Y4808810D01*
X49314285Y4856429D01*
X49219047Y4904048D01*
X49171428Y4951667D01*
X49123809Y5046905D01*
X49123809Y5142143D01*
X49171428Y5237381D01*
X49219047Y5285000D01*
X49314285Y5332620D01*
X49552380Y5332620D01*
X49695238Y5285000D01*
X50123809Y4332620D02*
X50123809Y5332620D01*
X50600000Y4332620D02*
X50600000Y5332620D01*
X50838095Y5332620D01*
X50980952Y5285000D01*
X51076190Y5189762D01*
X51123809Y5094524D01*
X51171428Y4904048D01*
X51171428Y4761191D01*
X51123809Y4570715D01*
X51076190Y4475477D01*
X50980952Y4380239D01*
X50838095Y4332620D01*
X50600000Y4332620D01*
X51600000Y4856429D02*
X51933333Y4856429D01*
X52076190Y4332620D02*
X51600000Y4332620D01*
X51600000Y5332620D01*
X52076190Y5332620D01*
X50285714Y32757620D02*
X50285714Y33757620D01*
X50619047Y33043334D01*
X50952380Y33757620D01*
X50952380Y32757620D01*
X51380952Y33043334D02*
X51857142Y33043334D01*
X51285714Y32757620D02*
X51619047Y33757620D01*
X51952380Y32757620D01*
X52285714Y32757620D02*
X52285714Y33757620D01*
X52523809Y33757620D01*
X52666666Y33710000D01*
X52761904Y33614762D01*
X52809523Y33519524D01*
X52857142Y33329048D01*
X52857142Y33186191D01*
X52809523Y32995715D01*
X52761904Y32900477D01*
X52666666Y32805239D01*
X52523809Y32757620D01*
X52285714Y32757620D01*
X53285714Y33281429D02*
X53619047Y33281429D01*
X53761904Y32757620D02*
X53285714Y32757620D01*
X53285714Y33757620D01*
X53761904Y33757620D01*
X51476190Y31147620D02*
X51476190Y32147620D01*
X51952380Y31147620D02*
X51952380Y32147620D01*
X52523809Y31147620D01*
X52523809Y32147620D01*
X50023809Y29585239D02*
X50166666Y29537620D01*
X50404761Y29537620D01*
X50500000Y29585239D01*
X50547619Y29632858D01*
X50595238Y29728096D01*
X50595238Y29823334D01*
X50547619Y29918572D01*
X50500000Y29966191D01*
X50404761Y30013810D01*
X50214285Y30061429D01*
X50119047Y30109048D01*
X50071428Y30156667D01*
X50023809Y30251905D01*
X50023809Y30347143D01*
X50071428Y30442381D01*
X50119047Y30490000D01*
X50214285Y30537620D01*
X50452380Y30537620D01*
X50595238Y30490000D01*
X51023809Y29537620D02*
X51023809Y30537620D01*
X51404761Y30537620D01*
X51500000Y30490000D01*
X51547619Y30442381D01*
X51595238Y30347143D01*
X51595238Y30204286D01*
X51547619Y30109048D01*
X51500000Y30061429D01*
X51404761Y30013810D01*
X51023809Y30013810D01*
X51976190Y29823334D02*
X52452380Y29823334D01*
X51880952Y29537620D02*
X52214285Y30537620D01*
X52547619Y29537620D01*
X52880952Y29537620D02*
X52880952Y30537620D01*
X53357142Y29537620D02*
X53357142Y30537620D01*
X53928571Y29537620D01*
X53928571Y30537620D01*
X45219047Y53828572D02*
X45980952Y53828572D01*
X42619047Y53828572D02*
X43380952Y53828572D01*
X43000000Y53447620D02*
X43000000Y54209524D01*
X1133333Y28257620D02*
X800000Y28733810D01*
X561904Y28257620D02*
X561904Y29257620D01*
X942857Y29257620D01*
X1038095Y29210000D01*
X1085714Y29162381D01*
X1133333Y29067143D01*
X1133333Y28924286D01*
X1085714Y28829048D01*
X1038095Y28781429D01*
X942857Y28733810D01*
X561904Y28733810D01*
X1752380Y29257620D02*
X1942857Y29257620D01*
X2038095Y29210000D01*
X2133333Y29114762D01*
X2180952Y28924286D01*
X2180952Y28590953D01*
X2133333Y28400477D01*
X2038095Y28305239D01*
X1942857Y28257620D01*
X1752380Y28257620D01*
X1657142Y28305239D01*
X1561904Y28400477D01*
X1514285Y28590953D01*
X1514285Y28924286D01*
X1561904Y29114762D01*
X1657142Y29210000D01*
X1752380Y29257620D01*
X2609523Y28257620D02*
X2609523Y29257620D01*
X2609523Y28781429D02*
X3180952Y28781429D01*
X3180952Y28257620D02*
X3180952Y29257620D01*
X3609523Y28305239D02*
X3752380Y28257620D01*
X3990476Y28257620D01*
X4085714Y28305239D01*
X4133333Y28352858D01*
X4180952Y28448096D01*
X4180952Y28543334D01*
X4133333Y28638572D01*
X4085714Y28686191D01*
X3990476Y28733810D01*
X3800000Y28781429D01*
X3704761Y28829048D01*
X3657142Y28876667D01*
X3609523Y28971905D01*
X3609523Y29067143D01*
X3657142Y29162381D01*
X3704761Y29210000D01*
X3800000Y29257620D01*
X4038095Y29257620D01*
X4180952Y29210000D01*
X5942857Y28352858D02*
X5895238Y28305239D01*
X5752380Y28257620D01*
X5657142Y28257620D01*
X5514285Y28305239D01*
X5419047Y28400477D01*
X5371428Y28495715D01*
X5323809Y28686191D01*
X5323809Y28829048D01*
X5371428Y29019524D01*
X5419047Y29114762D01*
X5514285Y29210000D01*
X5657142Y29257620D01*
X5752380Y29257620D01*
X5895238Y29210000D01*
X5942857Y29162381D01*
X6561904Y29257620D02*
X6752380Y29257620D01*
X6847619Y29210000D01*
X6942857Y29114762D01*
X6990476Y28924286D01*
X6990476Y28590953D01*
X6942857Y28400477D01*
X6847619Y28305239D01*
X6752380Y28257620D01*
X6561904Y28257620D01*
X6466666Y28305239D01*
X6371428Y28400477D01*
X6323809Y28590953D01*
X6323809Y28924286D01*
X6371428Y29114762D01*
X6466666Y29210000D01*
X6561904Y29257620D01*
X7419047Y28257620D02*
X7419047Y29257620D01*
X7752380Y28543334D01*
X8085714Y29257620D01*
X8085714Y28257620D01*
X8561904Y28257620D02*
X8561904Y29257620D01*
X8942857Y29257620D01*
X9038095Y29210000D01*
X9085714Y29162381D01*
X9133333Y29067143D01*
X9133333Y28924286D01*
X9085714Y28829048D01*
X9038095Y28781429D01*
X8942857Y28733810D01*
X8561904Y28733810D01*
X10038095Y28257620D02*
X9561904Y28257620D01*
X9561904Y29257620D01*
X10371428Y28257620D02*
X10371428Y29257620D01*
X10800000Y28543334D02*
X11276190Y28543334D01*
X10704761Y28257620D02*
X11038095Y29257620D01*
X11371428Y28257620D01*
X11704761Y28257620D02*
X11704761Y29257620D01*
X12276190Y28257620D01*
X12276190Y29257620D01*
X12609523Y29257620D02*
X13180952Y29257620D01*
X12895238Y28257620D02*
X12895238Y29257620D01*
X3514285Y26647620D02*
X3038095Y26647620D01*
X3038095Y27647620D01*
X3847619Y27171429D02*
X4180952Y27171429D01*
X4323809Y26647620D02*
X3847619Y26647620D01*
X3847619Y27647620D01*
X4323809Y27647620D01*
X4704761Y26933334D02*
X5180952Y26933334D01*
X4609523Y26647620D02*
X4942857Y27647620D01*
X5276190Y26647620D01*
X5609523Y26647620D02*
X5609523Y27647620D01*
X5847619Y27647620D01*
X5990476Y27600000D01*
X6085714Y27504762D01*
X6133333Y27409524D01*
X6180952Y27219048D01*
X6180952Y27076191D01*
X6133333Y26885715D01*
X6085714Y26790477D01*
X5990476Y26695239D01*
X5847619Y26647620D01*
X5609523Y26647620D01*
X7704761Y27171429D02*
X7371428Y27171429D01*
X7371428Y26647620D02*
X7371428Y27647620D01*
X7847619Y27647620D01*
X8800000Y26647620D02*
X8466666Y27123810D01*
X8228571Y26647620D02*
X8228571Y27647620D01*
X8609523Y27647620D01*
X8704761Y27600000D01*
X8752380Y27552381D01*
X8800000Y27457143D01*
X8800000Y27314286D01*
X8752380Y27219048D01*
X8704761Y27171429D01*
X8609523Y27123810D01*
X8228571Y27123810D01*
X9228571Y27171429D02*
X9561904Y27171429D01*
X9704761Y26647620D02*
X9228571Y26647620D01*
X9228571Y27647620D01*
X9704761Y27647620D01*
X10133333Y27171429D02*
X10466666Y27171429D01*
X10609523Y26647620D02*
X10133333Y26647620D01*
X10133333Y27647620D01*
X10609523Y27647620D01*
X4252380Y26037620D02*
X4252380Y25228096D01*
X4300000Y25132858D01*
X4347619Y25085239D01*
X4442857Y25037620D01*
X4633333Y25037620D01*
X4728571Y25085239D01*
X4776190Y25132858D01*
X4823809Y25228096D01*
X4823809Y26037620D01*
X5776190Y25037620D02*
X5300000Y25037620D01*
X5300000Y26037620D01*
X6157142Y25037620D02*
X6347619Y25037620D01*
X6442857Y25085239D01*
X6490476Y25132858D01*
X6585714Y25275715D01*
X6633333Y25466191D01*
X6633333Y25847143D01*
X6585714Y25942381D01*
X6538095Y25990000D01*
X6442857Y26037620D01*
X6252380Y26037620D01*
X6157142Y25990000D01*
X6109523Y25942381D01*
X6061904Y25847143D01*
X6061904Y25609048D01*
X6109523Y25513810D01*
X6157142Y25466191D01*
X6252380Y25418572D01*
X6442857Y25418572D01*
X6538095Y25466191D01*
X6585714Y25513810D01*
X6633333Y25609048D01*
X7490476Y25704286D02*
X7490476Y25037620D01*
X7252380Y26085239D02*
X7014285Y25370953D01*
X7633333Y25370953D01*
X7871428Y26037620D02*
X8204761Y25037620D01*
X8538095Y26037620D01*
X9061904Y26037620D02*
X9157142Y26037620D01*
X9252380Y25990000D01*
X9300000Y25942381D01*
X9347619Y25847143D01*
X9395238Y25656667D01*
X9395238Y25418572D01*
X9347619Y25228096D01*
X9300000Y25132858D01*
X9252380Y25085239D01*
X9157142Y25037620D01*
X9061904Y25037620D01*
X8966666Y25085239D01*
X8919047Y25132858D01*
X8871428Y25228096D01*
X8823809Y25418572D01*
X8823809Y25656667D01*
X8871428Y25847143D01*
X8919047Y25942381D01*
X8966666Y25990000D01*
X9061904Y26037620D01*
X5966666Y23951429D02*
X5633333Y23951429D01*
X5633333Y23427620D02*
X5633333Y24427620D01*
X6109523Y24427620D01*
X7061904Y23427620D02*
X6728571Y23903810D01*
X6490476Y23427620D02*
X6490476Y24427620D01*
X6871428Y24427620D01*
X6966666Y24380000D01*
X7014285Y24332381D01*
X7061904Y24237143D01*
X7061904Y24094286D01*
X7014285Y23999048D01*
X6966666Y23951429D01*
X6871428Y23903810D01*
X6490476Y23903810D01*
X7919047Y24094286D02*
X7919047Y23427620D01*
X7680952Y24475239D02*
X7442857Y23760953D01*
X8061904Y23760953D01*
X-752620Y10904762D02*
X-1276429Y10904762D01*
X-1371667Y10857143D01*
X-1419286Y10761905D01*
X-1419286Y10571429D01*
X-1371667Y10476191D01*
X-800239Y10904762D02*
X-752620Y10809524D01*
X-752620Y10571429D01*
X-800239Y10476191D01*
X-895477Y10428572D01*
X-990715Y10428572D01*
X-1085953Y10476191D01*
X-1133572Y10571429D01*
X-1133572Y10809524D01*
X-1181191Y10904762D01*
X-800239Y11333334D02*
X-752620Y11428572D01*
X-752620Y11619048D01*
X-800239Y11714286D01*
X-895477Y11761905D01*
X-943096Y11761905D01*
X-1038334Y11714286D01*
X-1085953Y11619048D01*
X-1085953Y11476191D01*
X-1133572Y11380953D01*
X-1228810Y11333334D01*
X-1276429Y11333334D01*
X-1371667Y11380953D01*
X-1419286Y11476191D01*
X-1419286Y11619048D01*
X-1371667Y11714286D01*
X-1419286Y12047620D02*
X-1419286Y12428572D01*
X-1752620Y12190477D02*
X-895477Y12190477D01*
X-800239Y12238096D01*
X-752620Y12333334D01*
X-752620Y12428572D01*
X-752620Y12761905D02*
X-1419286Y12761905D01*
X-1228810Y12761905D02*
X-1324048Y12809524D01*
X-1371667Y12857143D01*
X-1419286Y12952381D01*
X-1419286Y13047620D01*
X-752620Y13523810D02*
X-800239Y13428572D01*
X-847858Y13380953D01*
X-943096Y13333334D01*
X-1228810Y13333334D01*
X-1324048Y13380953D01*
X-1371667Y13428572D01*
X-1419286Y13523810D01*
X-1419286Y13666667D01*
X-1371667Y13761905D01*
X-1324048Y13809524D01*
X-1228810Y13857143D01*
X-943096Y13857143D01*
X-847858Y13809524D01*
X-800239Y13761905D01*
X-752620Y13666667D01*
X-752620Y13523810D01*
X-800239Y14666667D02*
X-752620Y14571429D01*
X-752620Y14380953D01*
X-800239Y14285715D01*
X-895477Y14238096D01*
X-1276429Y14238096D01*
X-1371667Y14285715D01*
X-1419286Y14380953D01*
X-1419286Y14571429D01*
X-1371667Y14666667D01*
X-1276429Y14714286D01*
X-1181191Y14714286D01*
X-1085953Y14238096D01*
X-752620Y15285715D02*
X-800239Y15190477D01*
X-895477Y15142858D01*
X-1752620Y15142858D01*
X-800239Y16047620D02*
X-752620Y15952381D01*
X-752620Y15761905D01*
X-800239Y15666667D01*
X-895477Y15619048D01*
X-1276429Y15619048D01*
X-1371667Y15666667D01*
X-1419286Y15761905D01*
X-1419286Y15952381D01*
X-1371667Y16047620D01*
X-1276429Y16095239D01*
X-1181191Y16095239D01*
X-1085953Y15619048D01*
X-800239Y16952381D02*
X-752620Y16857143D01*
X-752620Y16666667D01*
X-800239Y16571429D01*
X-847858Y16523810D01*
X-943096Y16476191D01*
X-1228810Y16476191D01*
X-1324048Y16523810D01*
X-1371667Y16571429D01*
X-1419286Y16666667D01*
X-1419286Y16857143D01*
X-1371667Y16952381D01*
X-1419286Y17238096D02*
X-1419286Y17619048D01*
X-1752620Y17380953D02*
X-895477Y17380953D01*
X-800239Y17428572D01*
X-752620Y17523810D01*
X-752620Y17619048D01*
X-752620Y17952381D02*
X-1419286Y17952381D01*
X-1228810Y17952381D02*
X-1324048Y18000000D01*
X-1371667Y18047620D01*
X-1419286Y18142858D01*
X-1419286Y18238096D01*
X-752620Y18714286D02*
X-800239Y18619048D01*
X-847858Y18571429D01*
X-943096Y18523810D01*
X-1228810Y18523810D01*
X-1324048Y18571429D01*
X-1371667Y18619048D01*
X-1419286Y18714286D01*
X-1419286Y18857143D01*
X-1371667Y18952381D01*
X-1324048Y19000000D01*
X-1228810Y19047620D01*
X-943096Y19047620D01*
X-847858Y19000000D01*
X-800239Y18952381D01*
X-752620Y18857143D01*
X-752620Y18714286D01*
X-1419286Y19476191D02*
X-752620Y19476191D01*
X-1324048Y19476191D02*
X-1371667Y19523810D01*
X-1419286Y19619048D01*
X-1419286Y19761905D01*
X-1371667Y19857143D01*
X-1276429Y19904762D01*
X-752620Y19904762D01*
X-752620Y20380953D02*
X-1419286Y20380953D01*
X-1752620Y20380953D02*
X-1705000Y20333334D01*
X-1657381Y20380953D01*
X-1705000Y20428572D01*
X-1752620Y20380953D01*
X-1657381Y20380953D01*
X-800239Y21285715D02*
X-752620Y21190477D01*
X-752620Y21000000D01*
X-800239Y20904762D01*
X-847858Y20857143D01*
X-943096Y20809524D01*
X-1228810Y20809524D01*
X-1324048Y20857143D01*
X-1371667Y20904762D01*
X-1419286Y21000000D01*
X-1419286Y21190477D01*
X-1371667Y21285715D01*
X-1228810Y22333334D02*
X-1276429Y22285715D01*
X-1324048Y22190477D01*
X-1324048Y22095239D01*
X-1276429Y22000000D01*
X-1228810Y21952381D01*
X-1133572Y21904762D01*
X-1038334Y21904762D01*
X-943096Y21952381D01*
X-895477Y22000000D01*
X-847858Y22095239D01*
X-847858Y22190477D01*
X-895477Y22285715D01*
X-943096Y22333334D01*
X-1324048Y22333334D02*
X-943096Y22333334D01*
X-895477Y22380953D01*
X-895477Y22428572D01*
X-943096Y22523810D01*
X-1038334Y22571429D01*
X-1276429Y22571429D01*
X-1419286Y22476191D01*
X-1514524Y22333334D01*
X-1562143Y22142858D01*
X-1514524Y21952381D01*
X-1419286Y21809524D01*
X-1276429Y21714286D01*
X-1085953Y21666667D01*
X-895477Y21714286D01*
X-752620Y21809524D01*
X-657381Y21952381D01*
X-609762Y22142858D01*
X-657381Y22333334D01*
X-752620Y22476191D01*
X571666Y8547620D02*
X571666Y9023810D01*
X857380Y8452381D02*
X-142620Y8785715D01*
X857380Y9119048D01*
X333571Y9452381D02*
X333571Y9785715D01*
X857380Y9928572D02*
X857380Y9452381D01*
X-142620Y9452381D01*
X-142620Y9928572D01*
X-142620Y10547620D02*
X-142620Y10642858D01*
X-95000Y10738096D01*
X-47381Y10785715D01*
X47857Y10833334D01*
X238333Y10880953D01*
X476428Y10880953D01*
X666904Y10833334D01*
X762142Y10785715D01*
X809761Y10738096D01*
X857380Y10642858D01*
X857380Y10547620D01*
X809761Y10452381D01*
X762142Y10404762D01*
X666904Y10357143D01*
X476428Y10309524D01*
X238333Y10309524D01*
X47857Y10357143D01*
X-47381Y10404762D01*
X-95000Y10452381D01*
X-142620Y10547620D01*
X857380Y11833334D02*
X857380Y11261905D01*
X857380Y11547620D02*
X-142620Y11547620D01*
X238Y11452381D01*
X95476Y11357143D01*
X143095Y11261905D01*
X762142Y12261905D02*
X809761Y12309524D01*
X857380Y12261905D01*
X809761Y12214286D01*
X762142Y12261905D01*
X857380Y12261905D01*
X-142620Y12928572D02*
X-142620Y13023810D01*
X-95000Y13119048D01*
X-47381Y13166667D01*
X47857Y13214286D01*
X238333Y13261905D01*
X476428Y13261905D01*
X666904Y13214286D01*
X762142Y13166667D01*
X809761Y13119048D01*
X857380Y13023810D01*
X857380Y12928572D01*
X809761Y12833334D01*
X762142Y12785715D01*
X666904Y12738096D01*
X476428Y12690477D01*
X238333Y12690477D01*
X47857Y12738096D01*
X-47381Y12785715D01*
X-95000Y12833334D01*
X-142620Y12928572D01*
X-142620Y13595239D02*
X-142620Y14261905D01*
X857380Y13833334D01*
X762142Y14642858D02*
X809761Y14690477D01*
X857380Y14642858D01*
X809761Y14595239D01*
X762142Y14642858D01*
X857380Y14642858D01*
X-142620Y15595239D02*
X-142620Y15119048D01*
X333571Y15071429D01*
X285952Y15119048D01*
X238333Y15214286D01*
X238333Y15452381D01*
X285952Y15547620D01*
X333571Y15595239D01*
X428809Y15642858D01*
X666904Y15642858D01*
X762142Y15595239D01*
X809761Y15547620D01*
X857380Y15452381D01*
X857380Y15214286D01*
X809761Y15119048D01*
X762142Y15071429D01*
X-142620Y16261905D02*
X-142620Y16357143D01*
X-95000Y16452381D01*
X-47381Y16500000D01*
X47857Y16547620D01*
X238333Y16595239D01*
X476428Y16595239D01*
X666904Y16547620D01*
X762142Y16500000D01*
X809761Y16452381D01*
X857380Y16357143D01*
X857380Y16261905D01*
X809761Y16166667D01*
X762142Y16119048D01*
X666904Y16071429D01*
X476428Y16023810D01*
X238333Y16023810D01*
X47857Y16071429D01*
X-47381Y16119048D01*
X-95000Y16166667D01*
X-142620Y16261905D01*
X762142Y17023810D02*
X809761Y17071429D01*
X857380Y17023810D01*
X809761Y16976191D01*
X762142Y17023810D01*
X857380Y17023810D01*
X857380Y18023810D02*
X857380Y17452381D01*
X857380Y17738096D02*
X-142620Y17738096D01*
X238Y17642858D01*
X95476Y17547620D01*
X143095Y17452381D01*
X-142620Y18642858D02*
X-142620Y18738096D01*
X-95000Y18833334D01*
X-47381Y18880953D01*
X47857Y18928572D01*
X238333Y18976191D01*
X476428Y18976191D01*
X666904Y18928572D01*
X762142Y18880953D01*
X809761Y18833334D01*
X857380Y18738096D01*
X857380Y18642858D01*
X809761Y18547620D01*
X762142Y18500000D01*
X666904Y18452381D01*
X476428Y18404762D01*
X238333Y18404762D01*
X47857Y18452381D01*
X-47381Y18500000D01*
X-95000Y18547620D01*
X-142620Y18642858D01*
X-142620Y19595239D02*
X-142620Y19690477D01*
X-95000Y19785715D01*
X-47381Y19833334D01*
X47857Y19880953D01*
X238333Y19928572D01*
X476428Y19928572D01*
X666904Y19880953D01*
X762142Y19833334D01*
X809761Y19785715D01*
X857380Y19690477D01*
X857380Y19595239D01*
X809761Y19500000D01*
X762142Y19452381D01*
X666904Y19404762D01*
X476428Y19357143D01*
X238333Y19357143D01*
X47857Y19404762D01*
X-47381Y19452381D01*
X-95000Y19500000D01*
X-142620Y19595239D01*
X-142620Y20976191D02*
X857380Y21309524D01*
X-142620Y21642858D01*
X857380Y22500000D02*
X857380Y21928572D01*
X857380Y22214286D02*
X-142620Y22214286D01*
X238Y22119048D01*
X95476Y22023810D01*
X143095Y21928572D01*
X857380Y23500000D02*
X381190Y23166667D01*
X857380Y22928572D02*
X-142620Y22928572D01*
X-142620Y23309524D01*
X-95000Y23404762D01*
X-47381Y23452381D01*
X47857Y23500000D01*
X190714Y23500000D01*
X285952Y23452381D01*
X333571Y23404762D01*
X381190Y23309524D01*
X381190Y22928572D01*
X-142620Y24119048D02*
X-142620Y24214286D01*
X-95000Y24309524D01*
X-47381Y24357143D01*
X47857Y24404762D01*
X238333Y24452381D01*
X476428Y24452381D01*
X666904Y24404762D01*
X762142Y24357143D01*
X809761Y24309524D01*
X857380Y24214286D01*
X857380Y24119048D01*
X809761Y24023810D01*
X762142Y23976191D01*
X666904Y23928572D01*
X476428Y23880953D01*
X238333Y23880953D01*
X47857Y23928572D01*
X-47381Y23976191D01*
X-95000Y24023810D01*
X-142620Y24119048D01*
%TO.C,TVS1*%
X42543095Y41647620D02*
X42543095Y42647620D01*
X43114523Y41647620D02*
X42685952Y42219048D01*
X43114523Y42647620D02*
X42543095Y42076191D01*
D12*
%TO.C,L1*%
X13934000Y22970000D02*
X2280000Y22970000D01*
X27920000Y8030000D02*
X27920000Y22970000D01*
X2280000Y8030000D02*
X2280000Y22970000D01*
X27920000Y22970000D02*
X16266000Y22970000D01*
X27920000Y8030000D02*
X16266000Y8030000D01*
X13934000Y8030000D02*
X2280000Y8030000D01*
%TO.C,LOGO3*%
G36*
X3117822Y3927029D02*
G01*
X2250198Y3927029D01*
X2250198Y7447822D01*
X3117822Y7447822D01*
X3117822Y3927029D01*
G37*
D13*
X3117822Y3927029D02*
X2250198Y3927029D01*
X2250198Y7447822D01*
X3117822Y7447822D01*
X3117822Y3927029D01*
G36*
X-2138218Y4580891D02*
G01*
X-2138218Y4648686D01*
X-2139304Y4688338D01*
X-2144546Y4709884D01*
X-2147666Y4712520D01*
X-2156919Y4720338D01*
X-2170396Y4724558D01*
X-2205373Y4741781D01*
X-2247421Y4774862D01*
X-2290644Y4818107D01*
X-2329146Y4865826D01*
X-2349199Y4897170D01*
X-2371149Y4932877D01*
X-2389033Y4950629D01*
X-2238812Y4950629D01*
X-2230746Y4932013D01*
X-2211180Y4904817D01*
X-2187056Y4877552D01*
X-2165318Y4858733D01*
X-2162492Y4857057D01*
X-2147666Y4851384D01*
X-2142144Y4857045D01*
X-2025049Y4857045D01*
X-1996757Y4863066D01*
X-1974382Y4866137D01*
X-1932283Y4870452D01*
X-1875822Y4875512D01*
X-1810365Y4880819D01*
X-1786138Y4882656D01*
X-1716579Y4888073D01*
X-1651982Y4893541D01*
X-1598452Y4898512D01*
X-1562090Y4902439D01*
X-1555491Y4903325D01*
X-1541944Y4906666D01*
X-1526086Y4913899D01*
X-1509865Y4924195D01*
X-1315326Y4924195D01*
X-1302896Y4924727D01*
X-1267890Y4927231D01*
X-1212785Y4931504D01*
X-1140057Y4937347D01*
X-1052186Y4944557D01*
X-951649Y4952934D01*
X-840923Y4962277D01*
X-735795Y4971242D01*
X-616517Y4981398D01*
X-503920Y4990858D01*
X-400695Y4999404D01*
X-309527Y5006821D01*
X-233105Y5012892D01*
X-174117Y5017399D01*
X-135251Y5020127D01*
X-120156Y5020884D01*
X-110762Y5022065D01*
X-107034Y5026744D01*
X-110529Y5036724D01*
X-122801Y5053810D01*
X-145406Y5079804D01*
X-179900Y5116510D01*
X-227838Y5165733D01*
X-290776Y5229274D01*
X-358032Y5296695D01*
X-633523Y5572399D01*
X-635594Y5570467D01*
X-743705Y5469591D01*
X-799623Y5417232D01*
X-862052Y5358465D01*
X-928557Y5295615D01*
X-996702Y5231005D01*
X-1064052Y5166958D01*
X-1128172Y5105797D01*
X-1186628Y5049847D01*
X-1236982Y5001430D01*
X-1276802Y4962870D01*
X-1303650Y4936491D01*
X-1315092Y4924616D01*
X-1315326Y4924195D01*
X-1509865Y4924195D01*
X-1506139Y4926560D01*
X-1480327Y4946189D01*
X-1446871Y4974322D01*
X-1403993Y5012498D01*
X-1349917Y5062254D01*
X-1282864Y5125129D01*
X-1201057Y5202659D01*
X-1118050Y5281749D01*
X-1035906Y5360436D01*
X-959831Y5433888D01*
X-891675Y5500276D01*
X-833288Y5557773D01*
X-786519Y5604549D01*
X-753218Y5638776D01*
X-737778Y5655818D01*
X-536954Y5655818D01*
X-527830Y5644278D01*
X-502800Y5617290D01*
X-463948Y5576979D01*
X-413357Y5525471D01*
X-353112Y5464891D01*
X-285296Y5397364D01*
X-229435Y5342174D01*
X76129Y5041276D01*
X361555Y5063599D01*
X445219Y5070331D01*
X521727Y5076843D01*
X587081Y5082766D01*
X637281Y5087732D01*
X668329Y5091371D01*
X675273Y5092542D01*
X703565Y5099162D01*
X703565Y6048636D01*
X624606Y6054974D01*
X531315Y6074110D01*
X448791Y6114154D01*
X380038Y6172582D01*
X328063Y6246871D01*
X296863Y6330252D01*
X282228Y6357302D01*
X250819Y6370844D01*
X249434Y6371128D01*
X236174Y6372753D01*
X222595Y6370744D01*
X206181Y6363142D01*
X184411Y6347984D01*
X154767Y6323312D01*
X114732Y6287164D01*
X61785Y6237580D01*
X-6591Y6172599D01*
X-10995Y6168401D01*
X-84389Y6098507D01*
X-162563Y6024200D01*
X-240136Y5950586D01*
X-311725Y5882771D01*
X-371949Y5825860D01*
X-385413Y5813168D01*
X-436180Y5764513D01*
X-479625Y5721291D01*
X-512759Y5686605D01*
X-532595Y5663556D01*
X-536954Y5655818D01*
X-737778Y5655818D01*
X-735233Y5658627D01*
X-732558Y5662860D01*
X-742259Y5673997D01*
X-767559Y5700029D01*
X-805918Y5738430D01*
X-854800Y5786672D01*
X-911666Y5842230D01*
X-953094Y5882408D01*
X-1170000Y6092169D01*
X-1170000Y5473663D01*
X-1408911Y5473663D01*
X-1408911Y6228119D01*
X-1302458Y6228119D01*
X-1440346Y6366435D01*
X-1538160Y6464553D01*
X-1578234Y6504752D01*
X-1701048Y6504752D01*
X-1757550Y6505137D01*
X-1793495Y6506900D01*
X-1813470Y6510950D01*
X-1816562Y6513558D01*
X-1404297Y6513558D01*
X-1397146Y6503666D01*
X-1374159Y6478476D01*
X-1337561Y6440190D01*
X-1289578Y6391011D01*
X-1232434Y6333139D01*
X-1168353Y6268778D01*
X-1099562Y6200129D01*
X-1028284Y6129395D01*
X-956745Y6058778D01*
X-887170Y5990480D01*
X-821783Y5926704D01*
X-762809Y5869650D01*
X-712473Y5821522D01*
X-673001Y5784522D01*
X-646617Y5760852D01*
X-635594Y5752710D01*
X-624220Y5761016D01*
X-597437Y5784267D01*
X-557708Y5820135D01*
X-507493Y5866287D01*
X-449254Y5920394D01*
X-385453Y5980126D01*
X-318551Y6043152D01*
X-251010Y6107142D01*
X-185290Y6169764D01*
X-123854Y6228690D01*
X-69163Y6281588D01*
X-23678Y6326128D01*
X10138Y6359980D01*
X29826Y6380812D01*
X33837Y6386494D01*
X20891Y6388366D01*
X-14866Y6392254D01*
X-71196Y6397943D01*
X-145860Y6405219D01*
X-236620Y6413869D01*
X-341238Y6423678D01*
X-457474Y6434434D01*
X-583092Y6445921D01*
X-684382Y6455093D01*
X-815721Y6466826D01*
X-939448Y6477665D01*
X-1053319Y6487430D01*
X-1155089Y6495937D01*
X-1242513Y6503005D01*
X-1313347Y6508451D01*
X-1365347Y6512092D01*
X-1396268Y6513747D01*
X-1404297Y6513558D01*
X-1816562Y6513558D01*
X-1822063Y6518199D01*
X-1823861Y6529130D01*
X-1826502Y6541288D01*
X-1837088Y6550273D01*
X-1859619Y6557174D01*
X-1898091Y6563076D01*
X-1956502Y6569065D01*
X-1977896Y6570987D01*
X-2025049Y6575148D01*
X-2025049Y4857045D01*
X-2142144Y4857045D01*
X-2140538Y4858692D01*
X-2138338Y4884007D01*
X-2138218Y4901092D01*
X-2138218Y4958119D01*
X-2188515Y4958119D01*
X-2220024Y4956456D01*
X-2237537Y4952303D01*
X-2238812Y4950629D01*
X-2389033Y4950629D01*
X-2389589Y4951181D01*
X-2411332Y4957612D01*
X-2424282Y4958106D01*
X-2427425Y4958106D01*
X-2465148Y4958119D01*
X-2465148Y5063952D01*
X-2463971Y5112645D01*
X-2460835Y5150595D01*
X-2456329Y5171692D01*
X-2454505Y5173977D01*
X-2451705Y5187359D01*
X-2452852Y5219926D01*
X-2457607Y5266084D01*
X-2461997Y5297624D01*
X-2470622Y5354812D01*
X-2478409Y5407114D01*
X-2484153Y5446418D01*
X-2485785Y5457945D01*
X-2495112Y5488063D01*
X-2509728Y5498812D01*
X-2367107Y5498812D01*
X-2358504Y5413935D01*
X-2351244Y5354632D01*
X-2341621Y5291449D01*
X-2334748Y5253614D01*
X-2319593Y5178168D01*
X-2228905Y5174474D01*
X-2138218Y5170779D01*
X-2138218Y6585302D01*
X-2187214Y6537458D01*
X-2247676Y6463150D01*
X-2294309Y6371184D01*
X-2327751Y6260002D01*
X-2346247Y6149529D01*
X-2354878Y6077227D01*
X-2263960Y6077227D01*
X-2263960Y5498812D01*
X-2367107Y5498812D01*
X-2509728Y5498812D01*
X-2515680Y5502080D01*
X-2520222Y5513770D01*
X-2523530Y5536712D01*
X-2525785Y5573735D01*
X-2526442Y5599406D01*
X-2427425Y5599406D01*
X-2364554Y5599406D01*
X-2364554Y5976633D01*
X-2427425Y5976633D01*
X-2427425Y5599406D01*
X-2526442Y5599406D01*
X-2527166Y5627668D01*
X-2527850Y5701340D01*
X-2528020Y5788020D01*
X-2527923Y5880529D01*
X-2527470Y5950906D01*
X-2526410Y6002164D01*
X-2524497Y6037320D01*
X-2521481Y6059389D01*
X-2517115Y6071385D01*
X-2511151Y6076324D01*
X-2504216Y6077227D01*
X-2482205Y6084921D01*
X-2469679Y6110121D01*
X-2465212Y6156009D01*
X-2465148Y6164264D01*
X-2457132Y6241973D01*
X-2435064Y6330233D01*
X-2401916Y6421085D01*
X-2360661Y6506570D01*
X-2314269Y6578726D01*
X-2306918Y6588072D01*
X-2283002Y6618533D01*
X-2273424Y6636572D01*
X-2276520Y6649169D01*
X-2289296Y6662100D01*
X-2314322Y6700293D01*
X-2323929Y6749998D01*
X-2318933Y6803524D01*
X-2300149Y6853178D01*
X-2268394Y6891267D01*
X-2264703Y6894025D01*
X-2205425Y6922526D01*
X-2144066Y6927828D01*
X-2085573Y6910518D01*
X-2034896Y6871180D01*
X-2030711Y6866370D01*
X-2010833Y6838440D01*
X-2002079Y6810102D01*
X-2001447Y6770263D01*
X-2002008Y6760311D01*
X-2003438Y6721332D01*
X-2000161Y6701254D01*
X-1990272Y6693985D01*
X-1981039Y6693240D01*
X-1954256Y6691716D01*
X-1913975Y6687935D01*
X-1889876Y6685218D01*
X-1851599Y6681277D01*
X-1832004Y6682916D01*
X-1824842Y6692421D01*
X-1823861Y6709351D01*
X-1827099Y6719392D01*
X-1837580Y6735590D01*
X-1856452Y6759145D01*
X-1884865Y6791257D01*
X-1910874Y6819109D01*
X-1728828Y6819109D01*
X-1647821Y6737376D01*
X-1598572Y6691270D01*
X-1560841Y6663694D01*
X-1538160Y6655643D01*
X-1522730Y6657471D01*
X-1514133Y6666723D01*
X-1510387Y6689050D01*
X-1509511Y6730105D01*
X-1509505Y6737376D01*
X-1509505Y6819109D01*
X-1728828Y6819109D01*
X-1910874Y6819109D01*
X-1923965Y6833128D01*
X-1974903Y6885957D01*
X-2038827Y6950945D01*
X-2116886Y7029291D01*
X-2210228Y7122197D01*
X-2320002Y7230863D01*
X-2373048Y7283231D01*
X-2922233Y7825049D01*
X-2835152Y7824430D01*
X-2748069Y7823811D01*
X-2289109Y7372086D01*
X-1830148Y6920361D01*
X-1619529Y6920032D01*
X-1408911Y6919703D01*
X-1408911Y6644610D01*
X-1355470Y6637522D01*
X-1331112Y6634838D01*
X-1285241Y6630313D01*
X-1220595Y6624191D01*
X-1139909Y6616712D01*
X-1045919Y6608119D01*
X-941363Y6598654D01*
X-828975Y6588558D01*
X-711493Y6578074D01*
X-591652Y6567444D01*
X-472189Y6556909D01*
X-355841Y6546713D01*
X-245343Y6537095D01*
X-143431Y6528300D01*
X-52842Y6520568D01*
X23687Y6514142D01*
X83421Y6509263D01*
X123624Y6506175D01*
X141559Y6505117D01*
X141644Y6505118D01*
X156035Y6512827D01*
X185748Y6535981D01*
X231131Y6574895D01*
X292529Y6629884D01*
X370288Y6701264D01*
X464754Y6789349D01*
X576272Y6894454D01*
X705188Y7016895D01*
X741287Y7051310D01*
X1313416Y7597137D01*
X1401436Y7508881D01*
X1323758Y7437485D01*
X1295686Y7411366D01*
X1252274Y7370566D01*
X1196366Y7317777D01*
X1130808Y7255691D01*
X1058441Y7187000D01*
X982112Y7114396D01*
X936524Y7070960D01*
X851119Y6989416D01*
X782710Y6923504D01*
X730053Y6871544D01*
X691905Y6831855D01*
X667020Y6802757D01*
X654156Y6782569D01*
X652068Y6769610D01*
X659513Y6762200D01*
X675246Y6758658D01*
X698023Y6757303D01*
X704239Y6757121D01*
X747061Y6747703D01*
X798819Y6724497D01*
X851328Y6692136D01*
X896403Y6655252D01*
X910328Y6640493D01*
X959047Y6564767D01*
X986306Y6476308D01*
X992773Y6398100D01*
X980576Y6309468D01*
X944813Y6227612D01*
X886722Y6155164D01*
X872262Y6141797D01*
X816733Y6092918D01*
X816733Y5247326D01*
X992773Y5247326D01*
X992773Y5020990D01*
X910531Y5020990D01*
X854386Y5018150D01*
X815416Y5008607D01*
X794219Y4997009D01*
X779052Y4988723D01*
X757062Y4981627D01*
X724987Y4975252D01*
X679569Y4969128D01*
X617548Y4962784D01*
X535662Y4955750D01*
X474746Y4950934D01*
X189343Y4928839D01*
X738805Y4386435D01*
X838228Y4288363D01*
X933815Y4194216D01*
X1023810Y4105715D01*
X1106457Y4024580D01*
X1180001Y3952531D01*
X1242684Y3891288D01*
X1292752Y3842573D01*
X1328448Y3808104D01*
X1347995Y3789621D01*
X1378944Y3759257D01*
X1400530Y3733929D01*
X1407723Y3720305D01*
X1399297Y3702905D01*
X1378245Y3677540D01*
X1369671Y3668942D01*
X1331620Y3632486D01*
X1127658Y3833198D01*
X1075699Y3884404D01*
X1008820Y3950431D01*
X929950Y4028382D01*
X842014Y4115362D01*
X747941Y4208474D01*
X650658Y4304821D01*
X553093Y4401508D01*
X483145Y4470866D01*
X376550Y4576297D01*
X286307Y4664871D01*
X211192Y4737719D01*
X149986Y4795977D01*
X101466Y4840775D01*
X76129Y4862979D01*
X64411Y4873249D01*
X37599Y4894529D01*
X19808Y4905749D01*
X11570Y4908246D01*
X-6410Y4907300D01*
X-47108Y4904427D01*
X-108181Y4899813D01*
X-187287Y4893642D01*
X-282086Y4886102D01*
X-390233Y4877379D01*
X-509388Y4867657D01*
X-637209Y4857124D01*
X-739365Y4848635D01*
X-1315326Y4800604D01*
X-1459274Y4788599D01*
X-2090842Y4188062D01*
X-2722411Y3587525D01*
X-2810685Y3587966D01*
X-2898960Y3588408D01*
X-2795334Y3685417D01*
X-2737537Y3739709D01*
X-2669632Y3803808D01*
X-2593428Y3875984D01*
X-2510731Y3954508D01*
X-2423347Y4037651D01*
X-2333085Y4123681D01*
X-2241750Y4210870D01*
X-2151151Y4297487D01*
X-2063093Y4381803D01*
X-1979385Y4462088D01*
X-1901833Y4536613D01*
X-1832243Y4603646D01*
X-1772424Y4661459D01*
X-1724182Y4708321D01*
X-1689324Y4742504D01*
X-1669657Y4762276D01*
X-1665884Y4766610D01*
X-1679008Y4766908D01*
X-1712611Y4765269D01*
X-1762120Y4761977D01*
X-1822963Y4757318D01*
X-1847268Y4755318D01*
X-2025049Y4740423D01*
X-2025049Y4580891D01*
X-2138218Y4580891D01*
G37*
X-2138218Y4580891D02*
X-2138218Y4648686D01*
X-2139304Y4688338D01*
X-2144546Y4709884D01*
X-2147666Y4712520D01*
X-2156919Y4720338D01*
X-2170396Y4724558D01*
X-2205373Y4741781D01*
X-2247421Y4774862D01*
X-2290644Y4818107D01*
X-2329146Y4865826D01*
X-2349199Y4897170D01*
X-2371149Y4932877D01*
X-2389033Y4950629D01*
X-2238812Y4950629D01*
X-2230746Y4932013D01*
X-2211180Y4904817D01*
X-2187056Y4877552D01*
X-2165318Y4858733D01*
X-2162492Y4857057D01*
X-2147666Y4851384D01*
X-2142144Y4857045D01*
X-2025049Y4857045D01*
X-1996757Y4863066D01*
X-1974382Y4866137D01*
X-1932283Y4870452D01*
X-1875822Y4875512D01*
X-1810365Y4880819D01*
X-1786138Y4882656D01*
X-1716579Y4888073D01*
X-1651982Y4893541D01*
X-1598452Y4898512D01*
X-1562090Y4902439D01*
X-1555491Y4903325D01*
X-1541944Y4906666D01*
X-1526086Y4913899D01*
X-1509865Y4924195D01*
X-1315326Y4924195D01*
X-1302896Y4924727D01*
X-1267890Y4927231D01*
X-1212785Y4931504D01*
X-1140057Y4937347D01*
X-1052186Y4944557D01*
X-951649Y4952934D01*
X-840923Y4962277D01*
X-735795Y4971242D01*
X-616517Y4981398D01*
X-503920Y4990858D01*
X-400695Y4999404D01*
X-309527Y5006821D01*
X-233105Y5012892D01*
X-174117Y5017399D01*
X-135251Y5020127D01*
X-120156Y5020884D01*
X-110762Y5022065D01*
X-107034Y5026744D01*
X-110529Y5036724D01*
X-122801Y5053810D01*
X-145406Y5079804D01*
X-179900Y5116510D01*
X-227838Y5165733D01*
X-290776Y5229274D01*
X-358032Y5296695D01*
X-633523Y5572399D01*
X-635594Y5570467D01*
X-743705Y5469591D01*
X-799623Y5417232D01*
X-862052Y5358465D01*
X-928557Y5295615D01*
X-996702Y5231005D01*
X-1064052Y5166958D01*
X-1128172Y5105797D01*
X-1186628Y5049847D01*
X-1236982Y5001430D01*
X-1276802Y4962870D01*
X-1303650Y4936491D01*
X-1315092Y4924616D01*
X-1315326Y4924195D01*
X-1509865Y4924195D01*
X-1506139Y4926560D01*
X-1480327Y4946189D01*
X-1446871Y4974322D01*
X-1403993Y5012498D01*
X-1349917Y5062254D01*
X-1282864Y5125129D01*
X-1201057Y5202659D01*
X-1118050Y5281749D01*
X-1035906Y5360436D01*
X-959831Y5433888D01*
X-891675Y5500276D01*
X-833288Y5557773D01*
X-786519Y5604549D01*
X-753218Y5638776D01*
X-737778Y5655818D01*
X-536954Y5655818D01*
X-527830Y5644278D01*
X-502800Y5617290D01*
X-463948Y5576979D01*
X-413357Y5525471D01*
X-353112Y5464891D01*
X-285296Y5397364D01*
X-229435Y5342174D01*
X76129Y5041276D01*
X361555Y5063599D01*
X445219Y5070331D01*
X521727Y5076843D01*
X587081Y5082766D01*
X637281Y5087732D01*
X668329Y5091371D01*
X675273Y5092542D01*
X703565Y5099162D01*
X703565Y6048636D01*
X624606Y6054974D01*
X531315Y6074110D01*
X448791Y6114154D01*
X380038Y6172582D01*
X328063Y6246871D01*
X296863Y6330252D01*
X282228Y6357302D01*
X250819Y6370844D01*
X249434Y6371128D01*
X236174Y6372753D01*
X222595Y6370744D01*
X206181Y6363142D01*
X184411Y6347984D01*
X154767Y6323312D01*
X114732Y6287164D01*
X61785Y6237580D01*
X-6591Y6172599D01*
X-10995Y6168401D01*
X-84389Y6098507D01*
X-162563Y6024200D01*
X-240136Y5950586D01*
X-311725Y5882771D01*
X-371949Y5825860D01*
X-385413Y5813168D01*
X-436180Y5764513D01*
X-479625Y5721291D01*
X-512759Y5686605D01*
X-532595Y5663556D01*
X-536954Y5655818D01*
X-737778Y5655818D01*
X-735233Y5658627D01*
X-732558Y5662860D01*
X-742259Y5673997D01*
X-767559Y5700029D01*
X-805918Y5738430D01*
X-854800Y5786672D01*
X-911666Y5842230D01*
X-953094Y5882408D01*
X-1170000Y6092169D01*
X-1170000Y5473663D01*
X-1408911Y5473663D01*
X-1408911Y6228119D01*
X-1302458Y6228119D01*
X-1440346Y6366435D01*
X-1538160Y6464553D01*
X-1578234Y6504752D01*
X-1701048Y6504752D01*
X-1757550Y6505137D01*
X-1793495Y6506900D01*
X-1813470Y6510950D01*
X-1816562Y6513558D01*
X-1404297Y6513558D01*
X-1397146Y6503666D01*
X-1374159Y6478476D01*
X-1337561Y6440190D01*
X-1289578Y6391011D01*
X-1232434Y6333139D01*
X-1168353Y6268778D01*
X-1099562Y6200129D01*
X-1028284Y6129395D01*
X-956745Y6058778D01*
X-887170Y5990480D01*
X-821783Y5926704D01*
X-762809Y5869650D01*
X-712473Y5821522D01*
X-673001Y5784522D01*
X-646617Y5760852D01*
X-635594Y5752710D01*
X-624220Y5761016D01*
X-597437Y5784267D01*
X-557708Y5820135D01*
X-507493Y5866287D01*
X-449254Y5920394D01*
X-385453Y5980126D01*
X-318551Y6043152D01*
X-251010Y6107142D01*
X-185290Y6169764D01*
X-123854Y6228690D01*
X-69163Y6281588D01*
X-23678Y6326128D01*
X10138Y6359980D01*
X29826Y6380812D01*
X33837Y6386494D01*
X20891Y6388366D01*
X-14866Y6392254D01*
X-71196Y6397943D01*
X-145860Y6405219D01*
X-236620Y6413869D01*
X-341238Y6423678D01*
X-457474Y6434434D01*
X-583092Y6445921D01*
X-684382Y6455093D01*
X-815721Y6466826D01*
X-939448Y6477665D01*
X-1053319Y6487430D01*
X-1155089Y6495937D01*
X-1242513Y6503005D01*
X-1313347Y6508451D01*
X-1365347Y6512092D01*
X-1396268Y6513747D01*
X-1404297Y6513558D01*
X-1816562Y6513558D01*
X-1822063Y6518199D01*
X-1823861Y6529130D01*
X-1826502Y6541288D01*
X-1837088Y6550273D01*
X-1859619Y6557174D01*
X-1898091Y6563076D01*
X-1956502Y6569065D01*
X-1977896Y6570987D01*
X-2025049Y6575148D01*
X-2025049Y4857045D01*
X-2142144Y4857045D01*
X-2140538Y4858692D01*
X-2138338Y4884007D01*
X-2138218Y4901092D01*
X-2138218Y4958119D01*
X-2188515Y4958119D01*
X-2220024Y4956456D01*
X-2237537Y4952303D01*
X-2238812Y4950629D01*
X-2389033Y4950629D01*
X-2389589Y4951181D01*
X-2411332Y4957612D01*
X-2424282Y4958106D01*
X-2427425Y4958106D01*
X-2465148Y4958119D01*
X-2465148Y5063952D01*
X-2463971Y5112645D01*
X-2460835Y5150595D01*
X-2456329Y5171692D01*
X-2454505Y5173977D01*
X-2451705Y5187359D01*
X-2452852Y5219926D01*
X-2457607Y5266084D01*
X-2461997Y5297624D01*
X-2470622Y5354812D01*
X-2478409Y5407114D01*
X-2484153Y5446418D01*
X-2485785Y5457945D01*
X-2495112Y5488063D01*
X-2509728Y5498812D01*
X-2367107Y5498812D01*
X-2358504Y5413935D01*
X-2351244Y5354632D01*
X-2341621Y5291449D01*
X-2334748Y5253614D01*
X-2319593Y5178168D01*
X-2228905Y5174474D01*
X-2138218Y5170779D01*
X-2138218Y6585302D01*
X-2187214Y6537458D01*
X-2247676Y6463150D01*
X-2294309Y6371184D01*
X-2327751Y6260002D01*
X-2346247Y6149529D01*
X-2354878Y6077227D01*
X-2263960Y6077227D01*
X-2263960Y5498812D01*
X-2367107Y5498812D01*
X-2509728Y5498812D01*
X-2515680Y5502080D01*
X-2520222Y5513770D01*
X-2523530Y5536712D01*
X-2525785Y5573735D01*
X-2526442Y5599406D01*
X-2427425Y5599406D01*
X-2364554Y5599406D01*
X-2364554Y5976633D01*
X-2427425Y5976633D01*
X-2427425Y5599406D01*
X-2526442Y5599406D01*
X-2527166Y5627668D01*
X-2527850Y5701340D01*
X-2528020Y5788020D01*
X-2527923Y5880529D01*
X-2527470Y5950906D01*
X-2526410Y6002164D01*
X-2524497Y6037320D01*
X-2521481Y6059389D01*
X-2517115Y6071385D01*
X-2511151Y6076324D01*
X-2504216Y6077227D01*
X-2482205Y6084921D01*
X-2469679Y6110121D01*
X-2465212Y6156009D01*
X-2465148Y6164264D01*
X-2457132Y6241973D01*
X-2435064Y6330233D01*
X-2401916Y6421085D01*
X-2360661Y6506570D01*
X-2314269Y6578726D01*
X-2306918Y6588072D01*
X-2283002Y6618533D01*
X-2273424Y6636572D01*
X-2276520Y6649169D01*
X-2289296Y6662100D01*
X-2314322Y6700293D01*
X-2323929Y6749998D01*
X-2318933Y6803524D01*
X-2300149Y6853178D01*
X-2268394Y6891267D01*
X-2264703Y6894025D01*
X-2205425Y6922526D01*
X-2144066Y6927828D01*
X-2085573Y6910518D01*
X-2034896Y6871180D01*
X-2030711Y6866370D01*
X-2010833Y6838440D01*
X-2002079Y6810102D01*
X-2001447Y6770263D01*
X-2002008Y6760311D01*
X-2003438Y6721332D01*
X-2000161Y6701254D01*
X-1990272Y6693985D01*
X-1981039Y6693240D01*
X-1954256Y6691716D01*
X-1913975Y6687935D01*
X-1889876Y6685218D01*
X-1851599Y6681277D01*
X-1832004Y6682916D01*
X-1824842Y6692421D01*
X-1823861Y6709351D01*
X-1827099Y6719392D01*
X-1837580Y6735590D01*
X-1856452Y6759145D01*
X-1884865Y6791257D01*
X-1910874Y6819109D01*
X-1728828Y6819109D01*
X-1647821Y6737376D01*
X-1598572Y6691270D01*
X-1560841Y6663694D01*
X-1538160Y6655643D01*
X-1522730Y6657471D01*
X-1514133Y6666723D01*
X-1510387Y6689050D01*
X-1509511Y6730105D01*
X-1509505Y6737376D01*
X-1509505Y6819109D01*
X-1728828Y6819109D01*
X-1910874Y6819109D01*
X-1923965Y6833128D01*
X-1974903Y6885957D01*
X-2038827Y6950945D01*
X-2116886Y7029291D01*
X-2210228Y7122197D01*
X-2320002Y7230863D01*
X-2373048Y7283231D01*
X-2922233Y7825049D01*
X-2835152Y7824430D01*
X-2748069Y7823811D01*
X-2289109Y7372086D01*
X-1830148Y6920361D01*
X-1619529Y6920032D01*
X-1408911Y6919703D01*
X-1408911Y6644610D01*
X-1355470Y6637522D01*
X-1331112Y6634838D01*
X-1285241Y6630313D01*
X-1220595Y6624191D01*
X-1139909Y6616712D01*
X-1045919Y6608119D01*
X-941363Y6598654D01*
X-828975Y6588558D01*
X-711493Y6578074D01*
X-591652Y6567444D01*
X-472189Y6556909D01*
X-355841Y6546713D01*
X-245343Y6537095D01*
X-143431Y6528300D01*
X-52842Y6520568D01*
X23687Y6514142D01*
X83421Y6509263D01*
X123624Y6506175D01*
X141559Y6505117D01*
X141644Y6505118D01*
X156035Y6512827D01*
X185748Y6535981D01*
X231131Y6574895D01*
X292529Y6629884D01*
X370288Y6701264D01*
X464754Y6789349D01*
X576272Y6894454D01*
X705188Y7016895D01*
X741287Y7051310D01*
X1313416Y7597137D01*
X1401436Y7508881D01*
X1323758Y7437485D01*
X1295686Y7411366D01*
X1252274Y7370566D01*
X1196366Y7317777D01*
X1130808Y7255691D01*
X1058441Y7187000D01*
X982112Y7114396D01*
X936524Y7070960D01*
X851119Y6989416D01*
X782710Y6923504D01*
X730053Y6871544D01*
X691905Y6831855D01*
X667020Y6802757D01*
X654156Y6782569D01*
X652068Y6769610D01*
X659513Y6762200D01*
X675246Y6758658D01*
X698023Y6757303D01*
X704239Y6757121D01*
X747061Y6747703D01*
X798819Y6724497D01*
X851328Y6692136D01*
X896403Y6655252D01*
X910328Y6640493D01*
X959047Y6564767D01*
X986306Y6476308D01*
X992773Y6398100D01*
X980576Y6309468D01*
X944813Y6227612D01*
X886722Y6155164D01*
X872262Y6141797D01*
X816733Y6092918D01*
X816733Y5247326D01*
X992773Y5247326D01*
X992773Y5020990D01*
X910531Y5020990D01*
X854386Y5018150D01*
X815416Y5008607D01*
X794219Y4997009D01*
X779052Y4988723D01*
X757062Y4981627D01*
X724987Y4975252D01*
X679569Y4969128D01*
X617548Y4962784D01*
X535662Y4955750D01*
X474746Y4950934D01*
X189343Y4928839D01*
X738805Y4386435D01*
X838228Y4288363D01*
X933815Y4194216D01*
X1023810Y4105715D01*
X1106457Y4024580D01*
X1180001Y3952531D01*
X1242684Y3891288D01*
X1292752Y3842573D01*
X1328448Y3808104D01*
X1347995Y3789621D01*
X1378944Y3759257D01*
X1400530Y3733929D01*
X1407723Y3720305D01*
X1399297Y3702905D01*
X1378245Y3677540D01*
X1369671Y3668942D01*
X1331620Y3632486D01*
X1127658Y3833198D01*
X1075699Y3884404D01*
X1008820Y3950431D01*
X929950Y4028382D01*
X842014Y4115362D01*
X747941Y4208474D01*
X650658Y4304821D01*
X553093Y4401508D01*
X483145Y4470866D01*
X376550Y4576297D01*
X286307Y4664871D01*
X211192Y4737719D01*
X149986Y4795977D01*
X101466Y4840775D01*
X76129Y4862979D01*
X64411Y4873249D01*
X37599Y4894529D01*
X19808Y4905749D01*
X11570Y4908246D01*
X-6410Y4907300D01*
X-47108Y4904427D01*
X-108181Y4899813D01*
X-187287Y4893642D01*
X-282086Y4886102D01*
X-390233Y4877379D01*
X-509388Y4867657D01*
X-637209Y4857124D01*
X-739365Y4848635D01*
X-1315326Y4800604D01*
X-1459274Y4788599D01*
X-2090842Y4188062D01*
X-2722411Y3587525D01*
X-2810685Y3587966D01*
X-2898960Y3588408D01*
X-2795334Y3685417D01*
X-2737537Y3739709D01*
X-2669632Y3803808D01*
X-2593428Y3875984D01*
X-2510731Y3954508D01*
X-2423347Y4037651D01*
X-2333085Y4123681D01*
X-2241750Y4210870D01*
X-2151151Y4297487D01*
X-2063093Y4381803D01*
X-1979385Y4462088D01*
X-1901833Y4536613D01*
X-1832243Y4603646D01*
X-1772424Y4661459D01*
X-1724182Y4708321D01*
X-1689324Y4742504D01*
X-1669657Y4762276D01*
X-1665884Y4766610D01*
X-1679008Y4766908D01*
X-1712611Y4765269D01*
X-1762120Y4761977D01*
X-1822963Y4757318D01*
X-1847268Y4755318D01*
X-2025049Y4740423D01*
X-2025049Y4580891D01*
X-2138218Y4580891D01*
D12*
%TO.C,CONN1*%
X41833000Y1472000D02*
X41786000Y1426000D01*
X30300000Y-1605000D02*
X45660000Y-1605000D01*
X44130000Y3770000D02*
X44095000Y3734000D01*
X36753000Y1472000D02*
X36706000Y1426000D01*
X39050000Y3770000D02*
X39015000Y3734000D01*
X30060000Y-1665000D02*
X30060000Y-2405000D01*
X42026000Y1256000D02*
X41991000Y1221000D01*
X39255000Y3564000D02*
X39208000Y3518000D01*
X30300000Y7756000D02*
X30300000Y-2165000D01*
X30300000Y7756000D02*
X45660000Y7756000D01*
X30060000Y-2405000D02*
X30560000Y-2405000D01*
X44335000Y3564000D02*
X44288000Y3518000D01*
X30300000Y-2165000D02*
X45660000Y-2165000D01*
X36946000Y1256000D02*
X36911000Y1221000D01*
X45660000Y7756000D02*
X45660000Y-2165000D01*
X30300000Y4796000D02*
X45660000Y4796000D01*
X30300000Y-105000D02*
X45660000Y-105000D01*
X33584000Y4030000D02*
G75*
G03*
X32216958Y4030427I-684001J-1534993D01*
G01*
X32216000Y960000D02*
G75*
G03*
X32928805Y814747I683999J1535001D01*
G01*
X31365000Y3179000D02*
G75*
G03*
X31364573Y1811958I1534993J-684001D01*
G01*
X34435001Y1811000D02*
G75*
G03*
X34435427Y3178042I-1535001J684000D01*
G01*
X32900000Y815000D02*
G75*
G03*
X33583318Y960244I0J1680000D01*
G01*
X44740000Y2495000D02*
G75*
G03*
X44740000Y2495000I-1680000J0D01*
G01*
X39660000Y2495000D02*
G75*
G03*
X39660000Y2495000I-1680000J0D01*
G01*
%TO.C,L2*%
X47972000Y29518000D02*
X47972000Y18482000D01*
X28428000Y29518000D02*
X28428000Y18482000D01*
X28428000Y29518000D02*
X47972000Y29518000D01*
X28428000Y18482000D02*
X47972000Y18482000D01*
%TO.C,C1*%
X28880000Y12880000D02*
X47120000Y12880000D01*
X28880000Y18120000D02*
X47120000Y18120000D01*
X47120000Y18120000D02*
X47120000Y12880000D01*
X28880000Y18120000D02*
X28880000Y12880000D01*
%TO.C,LOGO2*%
G36*
X2746280Y47620402D02*
G01*
X2747559Y47577104D01*
X2748796Y47505714D01*
X2749983Y47407673D01*
X2751115Y47284422D01*
X2752186Y47137403D01*
X2753189Y46968057D01*
X2754119Y46777826D01*
X2754968Y46568151D01*
X2755732Y46340473D01*
X2756403Y46096235D01*
X2756976Y45836877D01*
X2757444Y45563841D01*
X2757802Y45278568D01*
X2758042Y44982500D01*
X2758159Y44677079D01*
X2758171Y44548924D01*
X2758171Y41448970D01*
X2374847Y41670053D01*
X2293680Y41716856D01*
X2189166Y41777102D01*
X2064801Y41848778D01*
X1924082Y41929869D01*
X1770503Y42018362D01*
X1607562Y42112240D01*
X1438754Y42209491D01*
X1267575Y42308100D01*
X1097521Y42406053D01*
X1054512Y42430825D01*
X897857Y42521152D01*
X748803Y42607289D01*
X609568Y42687942D01*
X482371Y42761816D01*
X369432Y42827617D01*
X272968Y42884050D01*
X195200Y42929821D01*
X138346Y42963635D01*
X104625Y42984198D01*
X96040Y42989953D01*
X89189Y43002058D01*
X91158Y43022094D01*
X103736Y43054619D01*
X128712Y43104193D01*
X167876Y43175374D01*
X170988Y43180916D01*
X208476Y43246474D01*
X241319Y43301798D01*
X266205Y43341455D01*
X279820Y43360012D01*
X280487Y43360531D01*
X299390Y43356048D01*
X341605Y43335486D01*
X404832Y43300183D01*
X486772Y43251480D01*
X585122Y43190718D01*
X697585Y43119236D01*
X725165Y43101445D01*
X801699Y43055093D01*
X867556Y43021342D01*
X916782Y43003153D01*
X926507Y43001286D01*
X969312Y43002115D01*
X1037209Y43011394D01*
X1125843Y43027968D01*
X1230859Y43050680D01*
X1347902Y43078373D01*
X1472616Y43109890D01*
X1600645Y43144075D01*
X1727634Y43179771D01*
X1849228Y43215821D01*
X1961072Y43251068D01*
X2058810Y43284356D01*
X2138087Y43314528D01*
X2185122Y43335561D01*
X2235225Y43360337D01*
X2283168Y43383730D01*
X2285793Y43384997D01*
X2334220Y43423699D01*
X2366828Y43480184D01*
X2382454Y43545939D01*
X2379937Y43612451D01*
X2358114Y43671205D01*
X2329382Y43704258D01*
X2250583Y43751859D01*
X2152378Y43786739D01*
X2044779Y43805877D01*
X1983780Y43808588D01*
X1869935Y43797670D01*
X1775660Y43765624D01*
X1696379Y43710726D01*
X1678733Y43693607D01*
X1629235Y43642661D01*
X1279362Y43639163D01*
X929489Y43635664D01*
X794531Y43724818D01*
X733445Y43766654D01*
X678493Y43806945D01*
X637336Y43839943D01*
X622192Y43854126D01*
X584810Y43894281D01*
X614098Y43948665D01*
X635084Y43983039D01*
X651378Y44001846D01*
X654307Y44003049D01*
X666728Y44015903D01*
X675977Y44037896D01*
X684313Y44059150D01*
X700149Y44091694D01*
X725033Y44138322D01*
X760509Y44201829D01*
X808123Y44285008D01*
X869422Y44390653D01*
X902932Y44448062D01*
X943071Y44515594D01*
X971659Y44559885D01*
X992039Y44584855D01*
X1007553Y44594423D01*
X1021546Y44592508D01*
X1024796Y44590911D01*
X1045266Y44575376D01*
X1083665Y44542136D01*
X1135696Y44495062D01*
X1197066Y44438028D01*
X1249090Y44388700D01*
X1372567Y44275030D01*
X1479591Y44186105D01*
X1571240Y44121134D01*
X1648588Y44079321D01*
X1687866Y44065217D01*
X1722249Y44059392D01*
X1780899Y44053375D01*
X1857117Y44047696D01*
X1944202Y44042884D01*
X1999268Y44040619D01*
X2094464Y44037459D01*
X2164062Y44036069D01*
X2213409Y44036858D01*
X2247854Y44040235D01*
X2272743Y44046608D01*
X2293425Y44056387D01*
X2306053Y44064067D01*
X2354726Y44108421D01*
X2388645Y44165574D01*
X2403438Y44225708D01*
X2398086Y44270773D01*
X2374930Y44311576D01*
X2333462Y44362724D01*
X2280912Y44417042D01*
X2224516Y44467357D01*
X2171505Y44506494D01*
X2145889Y44520905D01*
X2110814Y44542491D01*
X2057389Y44581753D01*
X1989789Y44635102D01*
X1912190Y44698952D01*
X1828768Y44769715D01*
X1743698Y44843804D01*
X1661155Y44917632D01*
X1585316Y44987611D01*
X1520356Y45050155D01*
X1472669Y45099260D01*
X1425032Y45153779D01*
X1389908Y45199642D01*
X1370949Y45231811D01*
X1368864Y45242489D01*
X1377274Y45258853D01*
X1399846Y45299671D01*
X1435224Y45362586D01*
X1482054Y45445244D01*
X1538981Y45545289D01*
X1604649Y45660366D01*
X1677703Y45788119D01*
X1756788Y45926194D01*
X1840548Y46072234D01*
X1927629Y46223884D01*
X2016676Y46378790D01*
X2106332Y46534595D01*
X2195243Y46688944D01*
X2282054Y46839482D01*
X2365409Y46983854D01*
X2443954Y47119704D01*
X2516333Y47244677D01*
X2581190Y47356417D01*
X2637171Y47452570D01*
X2682920Y47530779D01*
X2717083Y47588689D01*
X2738304Y47623946D01*
X2744963Y47634165D01*
X2746280Y47620402D01*
G37*
D13*
X2746280Y47620402D02*
X2747559Y47577104D01*
X2748796Y47505714D01*
X2749983Y47407673D01*
X2751115Y47284422D01*
X2752186Y47137403D01*
X2753189Y46968057D01*
X2754119Y46777826D01*
X2754968Y46568151D01*
X2755732Y46340473D01*
X2756403Y46096235D01*
X2756976Y45836877D01*
X2757444Y45563841D01*
X2757802Y45278568D01*
X2758042Y44982500D01*
X2758159Y44677079D01*
X2758171Y44548924D01*
X2758171Y41448970D01*
X2374847Y41670053D01*
X2293680Y41716856D01*
X2189166Y41777102D01*
X2064801Y41848778D01*
X1924082Y41929869D01*
X1770503Y42018362D01*
X1607562Y42112240D01*
X1438754Y42209491D01*
X1267575Y42308100D01*
X1097521Y42406053D01*
X1054512Y42430825D01*
X897857Y42521152D01*
X748803Y42607289D01*
X609568Y42687942D01*
X482371Y42761816D01*
X369432Y42827617D01*
X272968Y42884050D01*
X195200Y42929821D01*
X138346Y42963635D01*
X104625Y42984198D01*
X96040Y42989953D01*
X89189Y43002058D01*
X91158Y43022094D01*
X103736Y43054619D01*
X128712Y43104193D01*
X167876Y43175374D01*
X170988Y43180916D01*
X208476Y43246474D01*
X241319Y43301798D01*
X266205Y43341455D01*
X279820Y43360012D01*
X280487Y43360531D01*
X299390Y43356048D01*
X341605Y43335486D01*
X404832Y43300183D01*
X486772Y43251480D01*
X585122Y43190718D01*
X697585Y43119236D01*
X725165Y43101445D01*
X801699Y43055093D01*
X867556Y43021342D01*
X916782Y43003153D01*
X926507Y43001286D01*
X969312Y43002115D01*
X1037209Y43011394D01*
X1125843Y43027968D01*
X1230859Y43050680D01*
X1347902Y43078373D01*
X1472616Y43109890D01*
X1600645Y43144075D01*
X1727634Y43179771D01*
X1849228Y43215821D01*
X1961072Y43251068D01*
X2058810Y43284356D01*
X2138087Y43314528D01*
X2185122Y43335561D01*
X2235225Y43360337D01*
X2283168Y43383730D01*
X2285793Y43384997D01*
X2334220Y43423699D01*
X2366828Y43480184D01*
X2382454Y43545939D01*
X2379937Y43612451D01*
X2358114Y43671205D01*
X2329382Y43704258D01*
X2250583Y43751859D01*
X2152378Y43786739D01*
X2044779Y43805877D01*
X1983780Y43808588D01*
X1869935Y43797670D01*
X1775660Y43765624D01*
X1696379Y43710726D01*
X1678733Y43693607D01*
X1629235Y43642661D01*
X1279362Y43639163D01*
X929489Y43635664D01*
X794531Y43724818D01*
X733445Y43766654D01*
X678493Y43806945D01*
X637336Y43839943D01*
X622192Y43854126D01*
X584810Y43894281D01*
X614098Y43948665D01*
X635084Y43983039D01*
X651378Y44001846D01*
X654307Y44003049D01*
X666728Y44015903D01*
X675977Y44037896D01*
X684313Y44059150D01*
X700149Y44091694D01*
X725033Y44138322D01*
X760509Y44201829D01*
X808123Y44285008D01*
X869422Y44390653D01*
X902932Y44448062D01*
X943071Y44515594D01*
X971659Y44559885D01*
X992039Y44584855D01*
X1007553Y44594423D01*
X1021546Y44592508D01*
X1024796Y44590911D01*
X1045266Y44575376D01*
X1083665Y44542136D01*
X1135696Y44495062D01*
X1197066Y44438028D01*
X1249090Y44388700D01*
X1372567Y44275030D01*
X1479591Y44186105D01*
X1571240Y44121134D01*
X1648588Y44079321D01*
X1687866Y44065217D01*
X1722249Y44059392D01*
X1780899Y44053375D01*
X1857117Y44047696D01*
X1944202Y44042884D01*
X1999268Y44040619D01*
X2094464Y44037459D01*
X2164062Y44036069D01*
X2213409Y44036858D01*
X2247854Y44040235D01*
X2272743Y44046608D01*
X2293425Y44056387D01*
X2306053Y44064067D01*
X2354726Y44108421D01*
X2388645Y44165574D01*
X2403438Y44225708D01*
X2398086Y44270773D01*
X2374930Y44311576D01*
X2333462Y44362724D01*
X2280912Y44417042D01*
X2224516Y44467357D01*
X2171505Y44506494D01*
X2145889Y44520905D01*
X2110814Y44542491D01*
X2057389Y44581753D01*
X1989789Y44635102D01*
X1912190Y44698952D01*
X1828768Y44769715D01*
X1743698Y44843804D01*
X1661155Y44917632D01*
X1585316Y44987611D01*
X1520356Y45050155D01*
X1472669Y45099260D01*
X1425032Y45153779D01*
X1389908Y45199642D01*
X1370949Y45231811D01*
X1368864Y45242489D01*
X1377274Y45258853D01*
X1399846Y45299671D01*
X1435224Y45362586D01*
X1482054Y45445244D01*
X1538981Y45545289D01*
X1604649Y45660366D01*
X1677703Y45788119D01*
X1756788Y45926194D01*
X1840548Y46072234D01*
X1927629Y46223884D01*
X2016676Y46378790D01*
X2106332Y46534595D01*
X2195243Y46688944D01*
X2282054Y46839482D01*
X2365409Y46983854D01*
X2443954Y47119704D01*
X2516333Y47244677D01*
X2581190Y47356417D01*
X2637171Y47452570D01*
X2682920Y47530779D01*
X2717083Y47588689D01*
X2738304Y47623946D01*
X2744963Y47634165D01*
X2746280Y47620402D01*
G36*
X2192242Y47920636D02*
G01*
X2170203Y47881941D01*
X2134971Y47820487D01*
X2087711Y47738298D01*
X2029589Y47637396D01*
X1961771Y47519805D01*
X1885424Y47387546D01*
X1801714Y47242642D01*
X1711806Y47087117D01*
X1616867Y46922992D01*
X1580732Y46860549D01*
X1484083Y46693487D01*
X1391938Y46534074D01*
X1305475Y46384355D01*
X1225871Y46246376D01*
X1154305Y46122185D01*
X1091955Y46013827D01*
X1039998Y45923348D01*
X999613Y45852796D01*
X971978Y45804215D01*
X958272Y45779654D01*
X956974Y45777085D01*
X945220Y45784569D01*
X913795Y45810614D01*
X865594Y45852559D01*
X803510Y45907746D01*
X730439Y45973517D01*
X649276Y46047212D01*
X562916Y46126173D01*
X474253Y46207740D01*
X386182Y46289254D01*
X301599Y46368057D01*
X223397Y46441490D01*
X154472Y46506893D01*
X97719Y46561608D01*
X56032Y46602977D01*
X42363Y46617164D01*
X-1799Y46664180D01*
X34619Y46687528D01*
X53693Y46698908D01*
X97421Y46724488D01*
X163619Y46763002D01*
X250102Y46813186D01*
X354685Y46873775D01*
X475183Y46943503D01*
X609412Y47021107D01*
X755187Y47105320D01*
X910323Y47194879D01*
X1070000Y47286998D01*
X1233117Y47381076D01*
X1389709Y47471402D01*
X1537506Y47556665D01*
X1674240Y47635557D01*
X1797642Y47706769D01*
X1905444Y47768991D01*
X1995377Y47820913D01*
X2065173Y47861228D01*
X2112564Y47888624D01*
X2134786Y47901507D01*
X2172330Y47922507D01*
X2195831Y47933925D01*
X2199920Y47934551D01*
X2192242Y47920636D01*
G37*
X2192242Y47920636D02*
X2170203Y47881941D01*
X2134971Y47820487D01*
X2087711Y47738298D01*
X2029589Y47637396D01*
X1961771Y47519805D01*
X1885424Y47387546D01*
X1801714Y47242642D01*
X1711806Y47087117D01*
X1616867Y46922992D01*
X1580732Y46860549D01*
X1484083Y46693487D01*
X1391938Y46534074D01*
X1305475Y46384355D01*
X1225871Y46246376D01*
X1154305Y46122185D01*
X1091955Y46013827D01*
X1039998Y45923348D01*
X999613Y45852796D01*
X971978Y45804215D01*
X958272Y45779654D01*
X956974Y45777085D01*
X945220Y45784569D01*
X913795Y45810614D01*
X865594Y45852559D01*
X803510Y45907746D01*
X730439Y45973517D01*
X649276Y46047212D01*
X562916Y46126173D01*
X474253Y46207740D01*
X386182Y46289254D01*
X301599Y46368057D01*
X223397Y46441490D01*
X154472Y46506893D01*
X97719Y46561608D01*
X56032Y46602977D01*
X42363Y46617164D01*
X-1799Y46664180D01*
X34619Y46687528D01*
X53693Y46698908D01*
X97421Y46724488D01*
X163619Y46763002D01*
X250102Y46813186D01*
X354685Y46873775D01*
X475183Y46943503D01*
X609412Y47021107D01*
X755187Y47105320D01*
X910323Y47194879D01*
X1070000Y47286998D01*
X1233117Y47381076D01*
X1389709Y47471402D01*
X1537506Y47556665D01*
X1674240Y47635557D01*
X1797642Y47706769D01*
X1905444Y47768991D01*
X1995377Y47820913D01*
X2065173Y47861228D01*
X2112564Y47888624D01*
X2134786Y47901507D01*
X2172330Y47922507D01*
X2195831Y47933925D01*
X2199920Y47934551D01*
X2192242Y47920636D01*
G36*
X-1068035Y46018501D02*
G01*
X-1040118Y45981114D01*
X-1005275Y45924235D01*
X-966246Y45852312D01*
X-929157Y45777015D01*
X-884183Y45674560D01*
X-843774Y45566817D01*
X-807031Y45450073D01*
X-773058Y45320618D01*
X-740956Y45174740D01*
X-709827Y45008726D01*
X-678773Y44818866D01*
X-649855Y44622469D01*
X-624200Y44451834D01*
X-598802Y44308545D01*
X-572398Y44189008D01*
X-543727Y44089630D01*
X-511527Y44006818D01*
X-474535Y43936978D01*
X-431488Y43876518D01*
X-381125Y43821845D01*
X-362417Y43804214D01*
X-318861Y43766000D01*
X-283318Y43737732D01*
X-262417Y43724618D01*
X-260703Y43724268D01*
X-250194Y43719680D01*
X-250076Y43703758D01*
X-261746Y43673266D01*
X-286604Y43624968D01*
X-326048Y43555627D01*
X-354413Y43507439D01*
X-398753Y43435583D01*
X-436721Y43379742D01*
X-465584Y43343667D01*
X-482612Y43331113D01*
X-482736Y43331121D01*
X-498963Y43338906D01*
X-539600Y43360892D01*
X-602433Y43395803D01*
X-685248Y43442363D01*
X-785828Y43499295D01*
X-901960Y43565323D01*
X-1031429Y43639172D01*
X-1172020Y43719564D01*
X-1321518Y43805224D01*
X-1477708Y43894876D01*
X-1638376Y43987243D01*
X-1801307Y44081049D01*
X-1964287Y44175018D01*
X-2125100Y44267874D01*
X-2281532Y44358340D01*
X-2431367Y44445141D01*
X-2572392Y44527000D01*
X-2702391Y44602641D01*
X-2819151Y44670787D01*
X-2920455Y44730163D01*
X-3004089Y44779493D01*
X-3067838Y44817500D01*
X-3109489Y44842907D01*
X-3126825Y44854440D01*
X-3127195Y44854923D01*
X-3114165Y44864043D01*
X-3076755Y44887065D01*
X-3017486Y44922534D01*
X-2938882Y44968996D01*
X-2843462Y45024996D01*
X-2733750Y45089081D01*
X-2612266Y45159796D01*
X-2481532Y45235687D01*
X-2344070Y45315299D01*
X-2202402Y45397178D01*
X-2059049Y45479870D01*
X-1916533Y45561921D01*
X-1777376Y45641876D01*
X-1644099Y45718281D01*
X-1519224Y45789682D01*
X-1405273Y45854624D01*
X-1304767Y45911653D01*
X-1220228Y45959315D01*
X-1154178Y45996155D01*
X-1109138Y46020720D01*
X-1087630Y46031554D01*
X-1086286Y46031951D01*
X-1068035Y46018501D01*
G37*
X-1068035Y46018501D02*
X-1040118Y45981114D01*
X-1005275Y45924235D01*
X-966246Y45852312D01*
X-929157Y45777015D01*
X-884183Y45674560D01*
X-843774Y45566817D01*
X-807031Y45450073D01*
X-773058Y45320618D01*
X-740956Y45174740D01*
X-709827Y45008726D01*
X-678773Y44818866D01*
X-649855Y44622469D01*
X-624200Y44451834D01*
X-598802Y44308545D01*
X-572398Y44189008D01*
X-543727Y44089630D01*
X-511527Y44006818D01*
X-474535Y43936978D01*
X-431488Y43876518D01*
X-381125Y43821845D01*
X-362417Y43804214D01*
X-318861Y43766000D01*
X-283318Y43737732D01*
X-262417Y43724618D01*
X-260703Y43724268D01*
X-250194Y43719680D01*
X-250076Y43703758D01*
X-261746Y43673266D01*
X-286604Y43624968D01*
X-326048Y43555627D01*
X-354413Y43507439D01*
X-398753Y43435583D01*
X-436721Y43379742D01*
X-465584Y43343667D01*
X-482612Y43331113D01*
X-482736Y43331121D01*
X-498963Y43338906D01*
X-539600Y43360892D01*
X-602433Y43395803D01*
X-685248Y43442363D01*
X-785828Y43499295D01*
X-901960Y43565323D01*
X-1031429Y43639172D01*
X-1172020Y43719564D01*
X-1321518Y43805224D01*
X-1477708Y43894876D01*
X-1638376Y43987243D01*
X-1801307Y44081049D01*
X-1964287Y44175018D01*
X-2125100Y44267874D01*
X-2281532Y44358340D01*
X-2431367Y44445141D01*
X-2572392Y44527000D01*
X-2702391Y44602641D01*
X-2819151Y44670787D01*
X-2920455Y44730163D01*
X-3004089Y44779493D01*
X-3067838Y44817500D01*
X-3109489Y44842907D01*
X-3126825Y44854440D01*
X-3127195Y44854923D01*
X-3114165Y44864043D01*
X-3076755Y44887065D01*
X-3017486Y44922534D01*
X-2938882Y44968996D01*
X-2843462Y45024996D01*
X-2733750Y45089081D01*
X-2612266Y45159796D01*
X-2481532Y45235687D01*
X-2344070Y45315299D01*
X-2202402Y45397178D01*
X-2059049Y45479870D01*
X-1916533Y45561921D01*
X-1777376Y45641876D01*
X-1644099Y45718281D01*
X-1519224Y45789682D01*
X-1405273Y45854624D01*
X-1304767Y45911653D01*
X-1220228Y45959315D01*
X-1154178Y45996155D01*
X-1109138Y46020720D01*
X-1087630Y46031554D01*
X-1086286Y46031951D01*
X-1068035Y46018501D01*
D12*
%TO.C,C3*%
X52756000Y13330000D02*
X54120000Y13330000D01*
X52756000Y21070000D02*
X54120000Y21070000D01*
X54120000Y13330000D02*
X54120000Y21070000D01*
X48880000Y21070000D02*
X50244000Y21070000D01*
X48880000Y13330000D02*
X50244000Y13330000D01*
X48880000Y13330000D02*
X48880000Y21070000D01*
%TO.C,PS1*%
X3770000Y54160000D02*
X3770000Y29920000D01*
X3770000Y29920000D02*
X41010000Y29920000D01*
X5150000Y29540000D02*
X11150000Y29540000D01*
X41010000Y29920000D02*
X41010000Y54160000D01*
X3770000Y54160000D02*
X41010000Y54160000D01*
%TO.C,C2*%
X14530000Y29220000D02*
X14530000Y27856000D01*
X22270000Y25344000D02*
X22270000Y23980000D01*
X14530000Y29220000D02*
X22270000Y29220000D01*
X14530000Y25344000D02*
X14530000Y23980000D01*
X22270000Y29220000D02*
X22270000Y27856000D01*
X14530000Y23980000D02*
X22270000Y23980000D01*
%TO.C,CONN2*%
X44270000Y50630000D02*
X44270000Y53230000D01*
X41670000Y51900000D02*
X41670000Y53230000D01*
X46870000Y48030000D02*
X46870000Y53230000D01*
X41670000Y48030000D02*
X46870000Y48030000D01*
X41670000Y50630000D02*
X44270000Y50630000D01*
X41670000Y53230000D02*
X43000000Y53230000D01*
X41670000Y48030000D02*
X41670000Y50630000D01*
X44270000Y53230000D02*
X46870000Y53230000D01*
%TO.C,C5*%
X48215000Y41112349D02*
X47415000Y41112349D01*
X48993000Y34981651D02*
X46540000Y34981651D01*
X49510000Y36341651D02*
X46540000Y36341651D01*
X44460000Y35661651D02*
X41679000Y35661651D01*
X44460000Y36301651D02*
X41498000Y36301651D01*
X44460000Y35301651D02*
X41834000Y35301651D01*
X48689000Y34541651D02*
X46540000Y34541651D01*
X46268000Y33061651D02*
X44732000Y33061651D01*
X48865000Y34781651D02*
X46540000Y34781651D01*
X49568000Y36782651D02*
X41432000Y36782651D01*
X49350000Y35741651D02*
X46540000Y35741651D01*
X49290000Y35581651D02*
X46540000Y35581651D01*
X48367000Y34181651D02*
X42633000Y34181651D01*
X48284000Y34101651D02*
X42716000Y34101651D01*
X44460000Y35021651D02*
X41983000Y35021651D01*
X44460000Y35581651D02*
X41710000Y35581651D01*
X48056000Y33901651D02*
X42944000Y33901651D01*
X44460000Y35181651D02*
X41894000Y35181651D01*
X49485000Y36221651D02*
X46540000Y36221651D01*
X48326000Y34141651D02*
X42674000Y34141651D01*
X48197000Y34021651D02*
X42803000Y34021651D01*
X49494000Y36261651D02*
X46540000Y36261651D01*
X49425000Y35981651D02*
X46540000Y35981651D01*
X48445000Y34261651D02*
X42555000Y34261651D01*
X44460000Y34581651D02*
X42280000Y34581651D01*
X49363000Y35781651D02*
X46540000Y35781651D01*
X48151000Y33981651D02*
X42849000Y33981651D01*
X49574000Y36862651D02*
X41426000Y36862651D01*
X49524000Y36422651D02*
X41476000Y36422651D01*
X44460000Y36261651D02*
X41506000Y36261651D01*
X49204000Y35381651D02*
X46540000Y35381651D01*
X48780000Y34661651D02*
X46540000Y34661651D01*
X48969000Y34941651D02*
X46540000Y34941651D01*
X48590000Y34421651D02*
X46540000Y34421651D01*
X49557000Y36662651D02*
X41443000Y36662651D01*
X49577000Y36942651D02*
X41423000Y36942651D01*
X49447000Y36061651D02*
X46540000Y36061651D01*
X44460000Y35221651D02*
X41873000Y35221651D01*
X47728000Y33661651D02*
X43272000Y33661651D01*
X48656000Y34501651D02*
X46540000Y34501651D01*
X47815000Y41512349D02*
X47815000Y40712349D01*
X47787000Y33701651D02*
X43213000Y33701651D01*
X44460000Y34861651D02*
X42082000Y34861651D01*
X49537000Y36502651D02*
X41463000Y36502651D01*
X44460000Y36341651D02*
X41490000Y36341651D01*
X48750000Y34621651D02*
X46540000Y34621651D01*
X49476000Y36181651D02*
X46540000Y36181651D01*
X48944000Y34901651D02*
X46540000Y34901651D01*
X48809000Y34701651D02*
X46540000Y34701651D01*
X49502000Y36301651D02*
X46540000Y36301651D01*
X44460000Y35341651D02*
X41814000Y35341651D01*
X44460000Y35781651D02*
X41637000Y35781651D01*
X49186000Y35341651D02*
X46540000Y35341651D01*
X48104000Y33941651D02*
X42896000Y33941651D01*
X44460000Y35541651D02*
X41726000Y35541651D01*
X48555000Y34381651D02*
X46540000Y34381651D01*
X44460000Y34701651D02*
X42191000Y34701651D01*
X44460000Y36061651D02*
X41553000Y36061651D01*
X47052000Y33301651D02*
X43948000Y33301651D01*
X47231000Y33381651D02*
X43769000Y33381651D01*
X49467000Y36141651D02*
X46540000Y36141651D01*
X46846000Y33221651D02*
X44154000Y33221651D01*
X44460000Y34901651D02*
X42056000Y34901651D01*
X44460000Y35621651D02*
X41695000Y35621651D01*
X48519000Y34341651D02*
X46540000Y34341651D01*
X44460000Y35141651D02*
X41916000Y35141651D01*
X48005000Y33861651D02*
X42995000Y33861651D01*
X44460000Y35701651D02*
X41665000Y35701651D01*
X44460000Y36381651D02*
X41483000Y36381651D01*
X47313000Y33421651D02*
X43687000Y33421651D01*
X49530000Y36462651D02*
X41470000Y36462651D01*
X48892000Y34821651D02*
X46540000Y34821651D01*
X46598000Y33141651D02*
X44402000Y33141651D01*
X44460000Y35941651D02*
X41586000Y35941651D01*
X47464000Y33501651D02*
X43536000Y33501651D01*
X49166000Y35301651D02*
X46540000Y35301651D01*
X47845000Y33741651D02*
X43155000Y33741651D01*
X49321000Y35661651D02*
X46540000Y35661651D01*
X44460000Y36181651D02*
X41524000Y36181651D01*
X49580000Y37062651D02*
X41420000Y37062651D01*
X44460000Y36101651D02*
X41543000Y36101651D01*
X49548000Y36582651D02*
X41452000Y36582651D01*
X47666000Y33621651D02*
X43334000Y33621651D01*
X48838000Y34741651D02*
X46540000Y34741651D01*
X49240000Y35461651D02*
X46540000Y35461651D01*
X44460000Y34661651D02*
X42220000Y34661651D01*
X44460000Y34501651D02*
X42344000Y34501651D01*
X49335000Y35701651D02*
X46540000Y35701651D01*
X49436000Y36021651D02*
X46540000Y36021651D01*
X47390000Y33461651D02*
X43610000Y33461651D01*
X49389000Y35861651D02*
X46540000Y35861651D01*
X48624000Y34461651D02*
X46540000Y34461651D01*
X44460000Y35461651D02*
X41760000Y35461651D01*
X47602000Y33581651D02*
X43398000Y33581651D01*
X49377000Y35821651D02*
X46540000Y35821651D01*
X49106000Y35181651D02*
X46540000Y35181651D01*
X44460000Y34421651D02*
X42410000Y34421651D01*
X49402000Y35901651D02*
X46540000Y35901651D01*
X49576000Y36902651D02*
X41424000Y36902651D01*
X47145000Y33341651D02*
X43855000Y33341651D01*
X44460000Y34981651D02*
X42007000Y34981651D01*
X49517000Y36381651D02*
X46540000Y36381651D01*
X48483000Y34301651D02*
X42517000Y34301651D01*
X48241000Y34061651D02*
X42759000Y34061651D01*
X44460000Y36141651D02*
X41533000Y36141651D01*
X46729000Y33181651D02*
X44271000Y33181651D01*
X49040000Y35061651D02*
X46540000Y35061651D01*
X44460000Y34381651D02*
X42445000Y34381651D01*
X44460000Y34821651D02*
X42108000Y34821651D01*
X49552000Y36622651D02*
X41448000Y36622651D01*
X44460000Y36221651D02*
X41515000Y36221651D01*
X46033000Y33021651D02*
X44967000Y33021651D01*
X49222000Y35421651D02*
X46540000Y35421651D01*
X44460000Y34621651D02*
X42250000Y34621651D01*
X44460000Y35981651D02*
X41575000Y35981651D01*
X47900000Y33781651D02*
X43100000Y33781651D01*
X44460000Y35861651D02*
X41611000Y35861651D01*
X49062000Y35101651D02*
X46540000Y35101651D01*
X49571000Y36822651D02*
X41429000Y36822651D01*
X49579000Y36982651D02*
X41421000Y36982651D01*
X49457000Y36101651D02*
X46540000Y36101651D01*
X49257000Y35501651D02*
X46540000Y35501651D01*
X49414000Y35941651D02*
X46540000Y35941651D01*
X44460000Y36021651D02*
X41564000Y36021651D01*
X44460000Y34781651D02*
X42135000Y34781651D01*
X44460000Y35901651D02*
X41598000Y35901651D01*
X46448000Y33101651D02*
X44552000Y33101651D01*
X44460000Y34461651D02*
X42376000Y34461651D01*
X44460000Y34741651D02*
X42162000Y34741651D01*
X44460000Y35101651D02*
X41938000Y35101651D01*
X49084000Y35141651D02*
X46540000Y35141651D01*
X49565000Y36742651D02*
X41435000Y36742651D01*
X44460000Y34541651D02*
X42311000Y34541651D01*
X48720000Y34581651D02*
X46540000Y34581651D01*
X49542000Y36542651D02*
X41458000Y36542651D01*
X44460000Y34941651D02*
X42031000Y34941651D01*
X49580000Y37102651D02*
X41420000Y37102651D01*
X44460000Y35741651D02*
X41650000Y35741651D01*
X49147000Y35261651D02*
X46540000Y35261651D01*
X49561000Y36702651D02*
X41439000Y36702651D01*
X47534000Y33541651D02*
X43466000Y33541651D01*
X49017000Y35021651D02*
X46540000Y35021651D01*
X44460000Y35381651D02*
X41796000Y35381651D01*
X49580000Y37022651D02*
X41420000Y37022651D01*
X49274000Y35541651D02*
X46540000Y35541651D01*
X48407000Y34221651D02*
X42593000Y34221651D01*
X44460000Y34341651D02*
X42481000Y34341651D01*
X47954000Y33821651D02*
X43046000Y33821651D01*
X44460000Y35261651D02*
X41853000Y35261651D01*
X44460000Y35061651D02*
X41960000Y35061651D01*
X49305000Y35621651D02*
X46540000Y35621651D01*
X48918000Y34861651D02*
X46540000Y34861651D01*
X49127000Y35221651D02*
X46540000Y35221651D01*
X44460000Y35421651D02*
X41778000Y35421651D01*
X44460000Y35501651D02*
X41743000Y35501651D01*
X46953000Y33261651D02*
X44047000Y33261651D01*
X44460000Y35821651D02*
X41623000Y35821651D01*
X49620000Y37102651D02*
G75*
G03*
X49620000Y37102651I-4120000J0D01*
G01*
%TO.C,F1*%
X5340000Y6510000D02*
X5340000Y3350000D01*
X28060000Y6510000D02*
X5340000Y6510000D01*
X5340000Y-150000D02*
X5340000Y-3310000D01*
X28060000Y6510000D02*
X28060000Y3350000D01*
X28060000Y-150000D02*
X28060000Y-3310000D01*
X28060000Y-3310000D02*
X5340000Y-3310000D01*
D11*
%TO.C,RV1*%
X30250000Y12450000D02*
X30250000Y8550000D01*
X30250000Y12450000D02*
X45750000Y12450000D01*
X45750000Y12450000D02*
X45750000Y8550000D01*
X30250000Y8550000D02*
X45750000Y8550000D01*
D12*
%TO.C,R1*%
X400000Y33770000D02*
X400000Y32810000D01*
X3020000Y36390000D02*
G75*
G03*
X3020000Y36390000I-2620000J0D01*
G01*
%TO.C,C4*%
X53421000Y35230000D02*
X52755000Y35230000D01*
X49979000Y40570000D02*
X49979000Y35230000D01*
X53421000Y40570000D02*
X52755000Y40570000D01*
X50645000Y40570000D02*
X49979000Y40570000D01*
X53421000Y40570000D02*
X53421000Y35230000D01*
X50645000Y35230000D02*
X49979000Y35230000D01*
%TO.C,TVS1*%
X45160000Y44400000D02*
X44405000Y44400000D01*
X50610000Y44400000D02*
G75*
G03*
X50610000Y44400000I-2725000J0D01*
G01*
%TD*%
M02*
