%TF.GenerationSoftware,KiCad,Pcbnew,6.0.4-6f826c9f35~116~ubuntu18.04.1*%
%TF.CreationDate,2022-04-09T00:00:08+02:00*%
%TF.ProjectId,AE01.07.50.100,41453031-2e30-4372-9e35-302e3130302e,V1R0*%
%TF.SameCoordinates,PX9464480PY76a3180*%
%TF.FileFunction,Copper,L2,Bot*%
%TF.FilePolarity,Positive*%
%FSLAX46Y46*%
G04 Gerber Fmt 4.6, Leading zero omitted, Abs format (unit mm)*
G04 Created by KiCad (PCBNEW 6.0.4-6f826c9f35~116~ubuntu18.04.1) date 2022-04-09 00:00:08*
%MOMM*%
%LPD*%
G01*
G04 APERTURE LIST*
G04 Aperture macros list*
%AMFreePoly0*
4,1,6,1.000000,0.000000,0.500000,-0.750000,-0.500000,-0.750000,-0.500000,0.750000,0.500000,0.750000,1.000000,0.000000,1.000000,0.000000,$1*%
G04 Aperture macros list end*
%TA.AperFunction,EtchedComponent*%
%ADD10C,0.381000*%
%TD*%
%TA.AperFunction,ComponentPad*%
%ADD11C,3.000000*%
%TD*%
%TA.AperFunction,ComponentPad*%
%ADD12R,2.600000X2.600000*%
%TD*%
%TA.AperFunction,ComponentPad*%
%ADD13C,2.600000*%
%TD*%
%TA.AperFunction,ComponentPad*%
%ADD14R,3.000000X3.000000*%
%TD*%
%TA.AperFunction,ComponentPad*%
%ADD15C,2.400000*%
%TD*%
%TA.AperFunction,ComponentPad*%
%ADD16C,2.000000*%
%TD*%
%TA.AperFunction,ComponentPad*%
%ADD17R,2.000000X2.300000*%
%TD*%
%TA.AperFunction,ComponentPad*%
%ADD18C,2.300000*%
%TD*%
%TA.AperFunction,ComponentPad*%
%ADD19R,1.700000X1.700000*%
%TD*%
%TA.AperFunction,ComponentPad*%
%ADD20O,1.700000X1.700000*%
%TD*%
%TA.AperFunction,ComponentPad*%
%ADD21R,1.600000X1.600000*%
%TD*%
%TA.AperFunction,ComponentPad*%
%ADD22C,1.600000*%
%TD*%
%TA.AperFunction,ComponentPad*%
%ADD23C,1.800000*%
%TD*%
%TA.AperFunction,ComponentPad*%
%ADD24O,2.400000X2.400000*%
%TD*%
%TA.AperFunction,ComponentPad*%
%ADD25C,0.800000*%
%TD*%
%TA.AperFunction,ComponentPad*%
%ADD26C,6.400000*%
%TD*%
%TA.AperFunction,ComponentPad*%
%ADD27O,2.600000X2.600000*%
%TD*%
%TA.AperFunction,SMDPad,CuDef*%
%ADD28FreePoly0,90.000000*%
%TD*%
%TA.AperFunction,SMDPad,CuDef*%
%ADD29FreePoly0,270.000000*%
%TD*%
%TA.AperFunction,Conductor*%
%ADD30C,2.000000*%
%TD*%
%TA.AperFunction,Conductor*%
%ADD31C,1.500000*%
%TD*%
G04 APERTURE END LIST*
D10*
%TO.C,LOGO5*%
X10399000Y9206000D02*
X5700000Y16191000D01*
X1001000Y9206000D02*
X10399000Y9206000D01*
X6599160Y11799340D02*
X5298680Y14600960D01*
X6197840Y9800360D02*
X5598400Y10498860D01*
X4998960Y12899160D02*
X5598400Y12500380D01*
X6599160Y11799340D02*
X5400280Y12599440D01*
X5700000Y16191000D02*
X1001000Y9206000D01*
X5400280Y12599440D02*
X6197840Y9800360D01*
X6197840Y9800360D02*
X4998960Y12899160D01*
X6197840Y9800360D02*
X6299440Y10699520D01*
X5799060Y14799080D02*
X6599160Y11799340D01*
%TD*%
D11*
%TO.P,L1,1,1*%
%TO.N,/FUSE*%
X15100000Y9400000D03*
%TO.P,L1,2,2*%
%TO.N,/IND*%
X15100000Y21600000D03*
%TD*%
D12*
%TO.P,CONN1,1,Pin_1*%
%TO.N,/LINE*%
X32900000Y2495000D03*
D13*
%TO.P,CONN1,2,Pin_2*%
%TO.N,GNDPWR*%
X37980000Y2495000D03*
%TO.P,CONN1,3,Pin_3*%
%TO.N,/NEUTRAL*%
X43060000Y2495000D03*
%TD*%
D14*
%TO.P,L2,1,1*%
%TO.N,/IND*%
X30580000Y20825000D03*
D11*
%TO.P,L2,2,2*%
%TO.N,/NEUTRAL*%
X45820000Y20825000D03*
%TO.P,L2,3,3*%
%TO.N,/CHOKE_N*%
X45820000Y27175000D03*
%TO.P,L2,4,4*%
%TO.N,/CHOKE_L*%
X30580000Y27175000D03*
%TD*%
D15*
%TO.P,C1,1*%
%TO.N,/FUSE*%
X30500000Y15500000D03*
%TO.P,C1,2*%
%TO.N,/NEUTRAL*%
X45500000Y15500000D03*
%TD*%
D16*
%TO.P,C3,1*%
%TO.N,GNDPWR*%
X51500000Y13450000D03*
%TO.P,C3,2*%
%TO.N,/CHOKE_N*%
X51500000Y20950000D03*
%TD*%
D17*
%TO.P,PS1,1,AC/L*%
%TO.N,/CHOKE_R*%
X7150000Y33150000D03*
D18*
%TO.P,PS1,3,AC/N*%
%TO.N,/CHOKE_N*%
X12230000Y33150000D03*
%TO.P,PS1,5,NC*%
%TO.N,unconnected-(PS1-Pad5)*%
X37630000Y33150000D03*
%TO.P,PS1,14,-Vo*%
%TO.N,GND*%
X37630000Y50930000D03*
%TO.P,PS1,16,+Vo*%
%TO.N,+24V*%
X32550000Y50930000D03*
%TD*%
D16*
%TO.P,C2,1*%
%TO.N,/CHOKE_L*%
X14650000Y26600000D03*
%TO.P,C2,2*%
%TO.N,GNDPWR*%
X22150000Y26600000D03*
%TD*%
D19*
%TO.P,CONN2,1,Pin_1*%
%TO.N,+24V*%
X43000000Y51900000D03*
D20*
%TO.P,CONN2,2,Pin_2*%
X43000000Y49360000D03*
%TO.P,CONN2,3,Pin_3*%
%TO.N,GND*%
X45540000Y51900000D03*
%TO.P,CONN2,4,Pin_4*%
X45540000Y49360000D03*
%TD*%
D21*
%TO.P,C5,1*%
%TO.N,+24V*%
X45500000Y38852651D03*
D22*
%TO.P,C5,2*%
%TO.N,GND*%
X45500000Y35352651D03*
%TD*%
D11*
%TO.P,F1,1*%
%TO.N,/LINE*%
X27950000Y1600000D03*
%TO.P,F1,2*%
%TO.N,/FUSE*%
X5450000Y1600000D03*
%TD*%
D23*
%TO.P,RV1,1*%
%TO.N,/FUSE*%
X34250000Y11200000D03*
%TO.P,RV1,2*%
%TO.N,/NEUTRAL*%
X41750000Y9800000D03*
%TD*%
D15*
%TO.P,R1,1*%
%TO.N,/CHOKE_R*%
X400000Y36390000D03*
D24*
%TO.P,R1,2*%
%TO.N,/CHOKE_L*%
X400000Y31310000D03*
%TD*%
D22*
%TO.P,C4,1*%
%TO.N,+24V*%
X51700000Y40400000D03*
%TO.P,C4,2*%
%TO.N,GND*%
X51700000Y35400000D03*
%TD*%
D25*
%TO.P,H4,1,1*%
%TO.N,GNDPWR*%
X49102944Y-1697056D03*
X49102944Y1697056D03*
X52497056Y-1697056D03*
X50800000Y2400000D03*
X48400000Y0D03*
D26*
X50800000Y0D03*
D25*
X50800000Y-2400000D03*
X52497056Y1697056D03*
X53200000Y0D03*
%TD*%
D12*
%TO.P,TVS1,1,A1*%
%TO.N,+24V*%
X42805000Y44400000D03*
D27*
%TO.P,TVS1,2,A2*%
%TO.N,GND*%
X47885000Y44400000D03*
%TD*%
D28*
%TO.P,E2,1*%
%TO.N,/NEUTRAL*%
X45800000Y22476000D03*
D29*
%TO.P,E2,2*%
%TO.N,/CHOKE_N*%
X45800000Y25524000D03*
%TD*%
D28*
%TO.P,E1,1*%
%TO.N,/IND*%
X30600000Y22576000D03*
D29*
%TO.P,E1,2*%
%TO.N,/CHOKE_L*%
X30600000Y25624000D03*
%TD*%
D30*
%TO.N,/FUSE*%
X34250000Y9550000D02*
X32500000Y7800000D01*
X32500000Y7800000D02*
X25200000Y7800000D01*
X30500000Y15500000D02*
X29300000Y14300000D01*
X29300000Y14300000D02*
X20000000Y14300000D01*
X8049521Y4199521D02*
X5450000Y1600000D01*
X34250000Y14050000D02*
X32800000Y15500000D01*
X32800000Y15500000D02*
X30500000Y15500000D01*
X25200000Y7800000D02*
X21599521Y4199521D01*
X34250000Y11200000D02*
X34250000Y9550000D01*
X34250000Y11200000D02*
X34250000Y14050000D01*
X20000000Y14300000D02*
X15100000Y9400000D01*
X21599521Y4199521D02*
X8049521Y4199521D01*
%TO.N,/NEUTRAL*%
X45500000Y20505000D02*
X45820000Y20825000D01*
X45500000Y13550000D02*
X45500000Y15500000D01*
X41750000Y9800000D02*
X45500000Y13550000D01*
X45500000Y15500000D02*
X45500000Y20505000D01*
X41750000Y7850000D02*
X41750000Y9800000D01*
X43060000Y6540000D02*
X41750000Y7850000D01*
X43060000Y2300000D02*
X43060000Y6540000D01*
%TO.N,/LINE*%
X32005000Y1600000D02*
X32900000Y2495000D01*
X27950000Y1600000D02*
X32005000Y1600000D01*
%TO.N,/IND*%
X17900000Y18800000D02*
X15100000Y21600000D01*
X28625000Y20825000D02*
X26600000Y18800000D01*
X30580000Y20825000D02*
X28625000Y20825000D01*
X26600000Y18800000D02*
X17900000Y18800000D01*
%TO.N,/CHOKE_R*%
X3910000Y36390000D02*
X7150000Y33150000D01*
X400000Y36390000D02*
X3910000Y36390000D01*
%TO.N,/CHOKE_N*%
X38603200Y35499511D02*
X40401356Y33701355D01*
X49225000Y27175000D02*
X45820000Y27175000D01*
X44025000Y27175000D02*
X45820000Y27175000D01*
X34500000Y36800000D02*
X35800489Y35499511D01*
X51500000Y20950000D02*
X51450000Y20950000D01*
X51450000Y20950000D02*
X50100000Y22300000D01*
X15880000Y36800000D02*
X34500000Y36800000D01*
X12230000Y33150000D02*
X15880000Y36800000D01*
X50100000Y22300000D02*
X50100000Y26300000D01*
X50100000Y26300000D02*
X49225000Y27175000D01*
X40401356Y33701355D02*
X40401356Y30798644D01*
X40401356Y30798644D02*
X44025000Y27175000D01*
X35800489Y35499511D02*
X38603200Y35499511D01*
D31*
%TO.N,GND*%
X43747349Y35352651D02*
X45500000Y35352651D01*
X35260000Y53300000D02*
X30600000Y53300000D01*
X29700000Y49400000D02*
X43747349Y35352651D01*
X37630000Y50930000D02*
X35260000Y53300000D01*
X53500000Y42600000D02*
X51700000Y44400000D01*
X53500000Y37200000D02*
X53500000Y42600000D01*
X51700000Y35400000D02*
X53500000Y37200000D01*
X51652651Y35352651D02*
X51700000Y35400000D01*
X29700000Y52400000D02*
X29700000Y49400000D01*
X45500000Y35352651D02*
X51652651Y35352651D01*
X51700000Y44400000D02*
X47885000Y44400000D01*
X30600000Y53300000D02*
X29700000Y52400000D01*
X45540000Y49360000D02*
X45540000Y51900000D01*
X47885000Y44400000D02*
X47885000Y47055000D01*
X47885000Y47055000D02*
X45590000Y49350000D01*
D30*
%TO.N,GNDPWR*%
X24100000Y32500000D02*
X22150000Y30550000D01*
X48700000Y-2100000D02*
X50800000Y0D01*
X22150000Y30550000D02*
X22150000Y26600000D01*
X37980000Y2495000D02*
X37980000Y-680000D01*
X51500000Y700000D02*
X50800000Y0D01*
X39400000Y-2100000D02*
X48700000Y-2100000D01*
X32600000Y32500000D02*
X24100000Y32500000D01*
X51500000Y13450000D02*
X51500000Y700000D01*
X37980000Y27120000D02*
X32600000Y32500000D01*
X37980000Y-680000D02*
X39400000Y-2100000D01*
X37980000Y2495000D02*
X37980000Y27120000D01*
%TO.N,/CHOKE_L*%
X30580000Y27220000D02*
X29500000Y28300000D01*
X27200000Y28300000D02*
X26200000Y27300000D01*
X5110000Y26600000D02*
X400000Y31310000D01*
X20100000Y22800000D02*
X16300000Y26600000D01*
X26200000Y27300000D02*
X26200000Y24600000D01*
X26200000Y24600000D02*
X24400000Y22800000D01*
X30580000Y27175000D02*
X30580000Y27220000D01*
X16300000Y26600000D02*
X14650000Y26600000D01*
X14650000Y26600000D02*
X5110000Y26600000D01*
X24400000Y22800000D02*
X20100000Y22800000D01*
X29500000Y28300000D02*
X27200000Y28300000D01*
D31*
%TO.N,+24V*%
X43000000Y49360000D02*
X43000000Y51900000D01*
X45495000Y41700000D02*
X42800000Y44395000D01*
X39700000Y45100000D02*
X39700000Y42800000D01*
X42805000Y44400000D02*
X42805000Y49105000D01*
X50400000Y41700000D02*
X45495000Y41700000D01*
X43647349Y38852651D02*
X45500000Y38852651D01*
X42805000Y49105000D02*
X43050000Y49350000D01*
X33870000Y50930000D02*
X39700000Y45100000D01*
X51700000Y40400000D02*
X50400000Y41700000D01*
X42800000Y44395000D02*
X42805000Y44400000D01*
X32550000Y50930000D02*
X33870000Y50930000D01*
X51052651Y38852651D02*
X51700000Y39500000D01*
X51700000Y39500000D02*
X51700000Y40400000D01*
X39700000Y42800000D02*
X43647349Y38852651D01*
X45500000Y38852651D02*
X51052651Y38852651D01*
%TD*%
M02*
