%TF.GenerationSoftware,KiCad,Pcbnew,6.0.4-6f826c9f35~116~ubuntu18.04.1*%
%TF.CreationDate,2022-04-09T00:00:09+02:00*%
%TF.ProjectId,AE01.07.50.100,41453031-2e30-4372-9e35-302e3130302e,V1R0*%
%TF.SameCoordinates,PX9464480PY76a3180*%
%TF.FileFunction,OtherDrawing,Comment*%
%FSLAX46Y46*%
G04 Gerber Fmt 4.6, Leading zero omitted, Abs format (unit mm)*
G04 Created by KiCad (PCBNEW 6.0.4-6f826c9f35~116~ubuntu18.04.1) date 2022-04-09 00:00:09*
%MOMM*%
%LPD*%
G01*
G04 APERTURE LIST*
%ADD10C,0.150000*%
%ADD11C,0.100000*%
G04 APERTURE END LIST*
D10*
X4695238Y20509524D02*
X4885714Y20509524D01*
X5076190Y20414286D01*
X5171428Y20223810D01*
X5171428Y20033334D01*
X5076190Y19842858D01*
X4885714Y19747620D01*
X4695238Y19747620D01*
X4504761Y19842858D01*
X4409523Y20033334D01*
X4409523Y20223810D01*
X4504761Y20414286D01*
X4695238Y20509524D01*
X5171428Y20509524D02*
X4409523Y19747620D01*
X6076190Y20747620D02*
X5885714Y20747620D01*
X5790476Y20700000D01*
X5742857Y20652381D01*
X5647619Y20509524D01*
X5600000Y20319048D01*
X5600000Y19938096D01*
X5647619Y19842858D01*
X5695238Y19795239D01*
X5790476Y19747620D01*
X5980952Y19747620D01*
X6076190Y19795239D01*
X6123809Y19842858D01*
X6171428Y19938096D01*
X6171428Y20176191D01*
X6123809Y20271429D01*
X6076190Y20319048D01*
X5980952Y20366667D01*
X5790476Y20366667D01*
X5695238Y20319048D01*
X5647619Y20271429D01*
X5600000Y20176191D01*
X6600000Y19747620D02*
X6600000Y20414286D01*
X6600000Y20319048D02*
X6647619Y20366667D01*
X6742857Y20414286D01*
X6885714Y20414286D01*
X6980952Y20366667D01*
X7028571Y20271429D01*
X7028571Y19747620D01*
X7028571Y20271429D02*
X7076190Y20366667D01*
X7171428Y20414286D01*
X7314285Y20414286D01*
X7409523Y20366667D01*
X7457142Y20271429D01*
X7457142Y19747620D01*
X7933333Y19747620D02*
X7933333Y20414286D01*
X7933333Y20319048D02*
X7980952Y20366667D01*
X8076190Y20414286D01*
X8219047Y20414286D01*
X8314285Y20366667D01*
X8361904Y20271429D01*
X8361904Y19747620D01*
X8361904Y20271429D02*
X8409523Y20366667D01*
X8504761Y20414286D01*
X8647619Y20414286D01*
X8742857Y20366667D01*
X8790476Y20271429D01*
X8790476Y19747620D01*
D11*
X-1146447Y22946447D02*
X1600000Y20200000D01*
X-1146447Y22946447D02*
X-764551Y21735226D01*
X-1146447Y22946447D02*
X64774Y22564551D01*
X1600000Y20200000D02*
X3596429Y20200000D01*
D10*
X10333333Y-6052380D02*
X10428571Y-6052380D01*
X10523809Y-6100000D01*
X10571428Y-6147619D01*
X10619047Y-6242857D01*
X10666666Y-6433333D01*
X10666666Y-6671428D01*
X10619047Y-6861904D01*
X10571428Y-6957142D01*
X10523809Y-7004761D01*
X10428571Y-7052380D01*
X10333333Y-7052380D01*
X10238095Y-7004761D01*
X10190476Y-6957142D01*
X10142857Y-6861904D01*
X10095238Y-6671428D01*
X10095238Y-6433333D01*
X10142857Y-6242857D01*
X10190476Y-6147619D01*
X10238095Y-6100000D01*
X10333333Y-6052380D01*
X11142857Y-7004761D02*
X11142857Y-7052380D01*
X11095238Y-7147619D01*
X11047619Y-7195238D01*
X11761904Y-6052380D02*
X11857142Y-6052380D01*
X11952380Y-6100000D01*
X12000000Y-6147619D01*
X12047619Y-6242857D01*
X12095238Y-6433333D01*
X12095238Y-6671428D01*
X12047619Y-6861904D01*
X12000000Y-6957142D01*
X11952380Y-7004761D01*
X11857142Y-7052380D01*
X11761904Y-7052380D01*
X11666666Y-7004761D01*
X11619047Y-6957142D01*
X11571428Y-6861904D01*
X11523809Y-6671428D01*
X11523809Y-6433333D01*
X11571428Y-6242857D01*
X11619047Y-6147619D01*
X11666666Y-6100000D01*
X11761904Y-6052380D01*
X13476190Y-6052380D02*
X13666666Y-6052380D01*
X13761904Y-6100000D01*
X13857142Y-6195238D01*
X13904761Y-6385714D01*
X13904761Y-6719047D01*
X13857142Y-6909523D01*
X13761904Y-7004761D01*
X13666666Y-7052380D01*
X13476190Y-7052380D01*
X13380952Y-7004761D01*
X13285714Y-6909523D01*
X13238095Y-6719047D01*
X13238095Y-6385714D01*
X13285714Y-6195238D01*
X13380952Y-6100000D01*
X13476190Y-6052380D01*
X14904761Y-7052380D02*
X14571428Y-6576190D01*
X14333333Y-7052380D02*
X14333333Y-6052380D01*
X14714285Y-6052380D01*
X14809523Y-6100000D01*
X14857142Y-6147619D01*
X14904761Y-6242857D01*
X14904761Y-6385714D01*
X14857142Y-6480952D01*
X14809523Y-6528571D01*
X14714285Y-6576190D01*
X14333333Y-6576190D01*
X15333333Y-7052380D02*
X15333333Y-6052380D01*
X16333333Y-6100000D02*
X16238095Y-6052380D01*
X16095238Y-6052380D01*
X15952380Y-6100000D01*
X15857142Y-6195238D01*
X15809523Y-6290476D01*
X15761904Y-6480952D01*
X15761904Y-6623809D01*
X15809523Y-6814285D01*
X15857142Y-6909523D01*
X15952380Y-7004761D01*
X16095238Y-7052380D01*
X16190476Y-7052380D01*
X16333333Y-7004761D01*
X16380952Y-6957142D01*
X16380952Y-6623809D01*
X16190476Y-6623809D01*
X16809523Y-7052380D02*
X16809523Y-6052380D01*
X17285714Y-7052380D02*
X17285714Y-6052380D01*
X17857142Y-7052380D01*
X17857142Y-6052380D01*
D11*
X353553Y-353553D02*
X6600000Y-6600000D01*
X353553Y-353553D02*
X735449Y-1564774D01*
X353553Y-353553D02*
X1564774Y-735449D01*
X9329762Y-5682500D02*
X9329762Y-7517500D01*
X9329762Y-7517500D02*
X18670238Y-7517500D01*
X18670238Y-7517500D02*
X18670238Y-5682500D01*
X18670238Y-5682500D02*
X9329762Y-5682500D01*
X6600000Y-6600000D02*
X9329762Y-6600000D01*
D10*
X5095238Y29009524D02*
X5285714Y29009524D01*
X5476190Y28914286D01*
X5571428Y28723810D01*
X5571428Y28533334D01*
X5476190Y28342858D01*
X5285714Y28247620D01*
X5095238Y28247620D01*
X4904761Y28342858D01*
X4809523Y28533334D01*
X4809523Y28723810D01*
X4904761Y28914286D01*
X5095238Y29009524D01*
X5571428Y29009524D02*
X4809523Y28247620D01*
X6476190Y28914286D02*
X6476190Y28247620D01*
X6238095Y29295239D02*
X6000000Y28580953D01*
X6619047Y28580953D01*
X7000000Y28247620D02*
X7000000Y28914286D01*
X7000000Y28819048D02*
X7047619Y28866667D01*
X7142857Y28914286D01*
X7285714Y28914286D01*
X7380952Y28866667D01*
X7428571Y28771429D01*
X7428571Y28247620D01*
X7428571Y28771429D02*
X7476190Y28866667D01*
X7571428Y28914286D01*
X7714285Y28914286D01*
X7809523Y28866667D01*
X7857142Y28771429D01*
X7857142Y28247620D01*
X8333333Y28247620D02*
X8333333Y28914286D01*
X8333333Y28819048D02*
X8380952Y28866667D01*
X8476190Y28914286D01*
X8619047Y28914286D01*
X8714285Y28866667D01*
X8761904Y28771429D01*
X8761904Y28247620D01*
X8761904Y28771429D02*
X8809523Y28866667D01*
X8904761Y28914286D01*
X9047619Y28914286D01*
X9142857Y28866667D01*
X9190476Y28771429D01*
X9190476Y28247620D01*
D11*
X-1736445Y26987395D02*
X2500000Y28700000D01*
X-1736445Y26987395D02*
X-472268Y26865920D01*
X-1736445Y26987395D02*
X-911836Y27953273D01*
X2500000Y28700000D02*
X3996429Y28700000D01*
X-5000000Y26800000D02*
X-2200000Y24000000D01*
X-2200000Y26800000D02*
X-5000000Y24000000D01*
X48500000Y53100000D02*
X53100000Y48500000D01*
X53100000Y53100000D02*
X48500000Y48500000D01*
X-2300000Y-2300000D02*
X2300000Y2300000D01*
X-2300000Y2300000D02*
X2300000Y-2300000D01*
X48500000Y-2300000D02*
X53100000Y2300000D01*
X48500000Y2300000D02*
X53100000Y-2300000D01*
X55800000Y26800000D02*
X53000000Y24000000D01*
X55800000Y24000000D02*
X53000000Y26800000D01*
X-2300000Y48500000D02*
X2300000Y53100000D01*
X-2300000Y53100000D02*
X2300000Y48500000D01*
D10*
X23447619Y66597620D02*
X22971428Y66597620D01*
X22923809Y66121429D01*
X22971428Y66169048D01*
X23066666Y66216667D01*
X23304761Y66216667D01*
X23400000Y66169048D01*
X23447619Y66121429D01*
X23495238Y66026191D01*
X23495238Y65788096D01*
X23447619Y65692858D01*
X23400000Y65645239D01*
X23304761Y65597620D01*
X23066666Y65597620D01*
X22971428Y65645239D01*
X22923809Y65692858D01*
X24066666Y66169048D02*
X23971428Y66216667D01*
X23923809Y66264286D01*
X23876190Y66359524D01*
X23876190Y66407143D01*
X23923809Y66502381D01*
X23971428Y66550000D01*
X24066666Y66597620D01*
X24257142Y66597620D01*
X24352380Y66550000D01*
X24400000Y66502381D01*
X24447619Y66407143D01*
X24447619Y66359524D01*
X24400000Y66264286D01*
X24352380Y66216667D01*
X24257142Y66169048D01*
X24066666Y66169048D01*
X23971428Y66121429D01*
X23923809Y66073810D01*
X23876190Y65978572D01*
X23876190Y65788096D01*
X23923809Y65692858D01*
X23971428Y65645239D01*
X24066666Y65597620D01*
X24257142Y65597620D01*
X24352380Y65645239D01*
X24400000Y65692858D01*
X24447619Y65788096D01*
X24447619Y65978572D01*
X24400000Y66073810D01*
X24352380Y66121429D01*
X24257142Y66169048D01*
X25638095Y65597620D02*
X25638095Y66264286D01*
X25638095Y66169048D02*
X25685714Y66216667D01*
X25780952Y66264286D01*
X25923809Y66264286D01*
X26019047Y66216667D01*
X26066666Y66121429D01*
X26066666Y65597620D01*
X26066666Y66121429D02*
X26114285Y66216667D01*
X26209523Y66264286D01*
X26352380Y66264286D01*
X26447619Y66216667D01*
X26495238Y66121429D01*
X26495238Y65597620D01*
X26971428Y65597620D02*
X26971428Y66264286D01*
X26971428Y66169048D02*
X27019047Y66216667D01*
X27114285Y66264286D01*
X27257142Y66264286D01*
X27352380Y66216667D01*
X27400000Y66121429D01*
X27400000Y65597620D01*
X27400000Y66121429D02*
X27447619Y66216667D01*
X27542857Y66264286D01*
X27685714Y66264286D01*
X27780952Y66216667D01*
X27828571Y66121429D01*
X27828571Y65597620D01*
D11*
X54400000Y52600000D02*
X54400000Y65486420D01*
X-3600000Y65486420D02*
X-3600000Y52600000D01*
X54400000Y64900000D02*
X-3600000Y64900000D01*
X54400000Y64900000D02*
X-3600000Y64900000D01*
X54400000Y64900000D02*
X53273496Y65486421D01*
X54400000Y64900000D02*
X53273496Y64313579D01*
X-3600000Y64900000D02*
X-2473496Y64313579D01*
X-3600000Y64900000D02*
X-2473496Y65486421D01*
D10*
X45629761Y60697620D02*
X45058333Y60697620D01*
X45344047Y60697620D02*
X45344047Y61697620D01*
X45248809Y61554762D01*
X45153571Y61459524D01*
X45058333Y61411905D01*
X46582142Y60697620D02*
X46010714Y60697620D01*
X46296428Y60697620D02*
X46296428Y61697620D01*
X46201190Y61554762D01*
X46105952Y61459524D01*
X46010714Y61411905D01*
X47010714Y60792858D02*
X47058333Y60745239D01*
X47010714Y60697620D01*
X46963095Y60745239D01*
X47010714Y60792858D01*
X47010714Y60697620D01*
X47391666Y61697620D02*
X48010714Y61697620D01*
X47677380Y61316667D01*
X47820238Y61316667D01*
X47915476Y61269048D01*
X47963095Y61221429D01*
X48010714Y61126191D01*
X48010714Y60888096D01*
X47963095Y60792858D01*
X47915476Y60745239D01*
X47820238Y60697620D01*
X47534523Y60697620D01*
X47439285Y60745239D01*
X47391666Y60792858D01*
X48915476Y61697620D02*
X48439285Y61697620D01*
X48391666Y61221429D01*
X48439285Y61269048D01*
X48534523Y61316667D01*
X48772619Y61316667D01*
X48867857Y61269048D01*
X48915476Y61221429D01*
X48963095Y61126191D01*
X48963095Y60888096D01*
X48915476Y60792858D01*
X48867857Y60745239D01*
X48772619Y60697620D01*
X48534523Y60697620D01*
X48439285Y60745239D01*
X48391666Y60792858D01*
X50153571Y60697620D02*
X50153571Y61364286D01*
X50153571Y61269048D02*
X50201190Y61316667D01*
X50296428Y61364286D01*
X50439285Y61364286D01*
X50534523Y61316667D01*
X50582142Y61221429D01*
X50582142Y60697620D01*
X50582142Y61221429D02*
X50629761Y61316667D01*
X50725000Y61364286D01*
X50867857Y61364286D01*
X50963095Y61316667D01*
X51010714Y61221429D01*
X51010714Y60697620D01*
X51486904Y60697620D02*
X51486904Y61364286D01*
X51486904Y61269048D02*
X51534523Y61316667D01*
X51629761Y61364286D01*
X51772619Y61364286D01*
X51867857Y61316667D01*
X51915476Y61221429D01*
X51915476Y60697620D01*
X51915476Y61221429D02*
X51963095Y61316667D01*
X52058333Y61364286D01*
X52201190Y61364286D01*
X52296428Y61316667D01*
X52344047Y61221429D01*
X52344047Y60697620D01*
D11*
X43050000Y52400000D02*
X43050000Y60586420D01*
X54400000Y60586420D02*
X54400000Y52400000D01*
X43050000Y60000000D02*
X54400000Y60000000D01*
X43050000Y60000000D02*
X54400000Y60000000D01*
X43050000Y60000000D02*
X44176504Y59413579D01*
X43050000Y60000000D02*
X44176504Y60586421D01*
X54400000Y60000000D02*
X53273496Y60586421D01*
X54400000Y60000000D02*
X53273496Y59413579D01*
D10*
X56452380Y638096D02*
X56452380Y1257143D01*
X56833333Y923810D01*
X56833333Y1066667D01*
X56880952Y1161905D01*
X56928571Y1209524D01*
X57023809Y1257143D01*
X57261904Y1257143D01*
X57357142Y1209524D01*
X57404761Y1161905D01*
X57452380Y1066667D01*
X57452380Y780953D01*
X57404761Y685715D01*
X57357142Y638096D01*
X57357142Y1685715D02*
X57404761Y1733334D01*
X57452380Y1685715D01*
X57404761Y1638096D01*
X57357142Y1685715D01*
X57452380Y1685715D01*
X56452380Y2590477D02*
X56452380Y2400000D01*
X56500000Y2304762D01*
X56547619Y2257143D01*
X56690476Y2161905D01*
X56880952Y2114286D01*
X57261904Y2114286D01*
X57357142Y2161905D01*
X57404761Y2209524D01*
X57452380Y2304762D01*
X57452380Y2495239D01*
X57404761Y2590477D01*
X57357142Y2638096D01*
X57261904Y2685715D01*
X57023809Y2685715D01*
X56928571Y2638096D01*
X56880952Y2590477D01*
X56833333Y2495239D01*
X56833333Y2304762D01*
X56880952Y2209524D01*
X56928571Y2161905D01*
X57023809Y2114286D01*
X57452380Y3876191D02*
X56785714Y3876191D01*
X56880952Y3876191D02*
X56833333Y3923810D01*
X56785714Y4019048D01*
X56785714Y4161905D01*
X56833333Y4257143D01*
X56928571Y4304762D01*
X57452380Y4304762D01*
X56928571Y4304762D02*
X56833333Y4352381D01*
X56785714Y4447620D01*
X56785714Y4590477D01*
X56833333Y4685715D01*
X56928571Y4733334D01*
X57452380Y4733334D01*
X57452380Y5209524D02*
X56785714Y5209524D01*
X56880952Y5209524D02*
X56833333Y5257143D01*
X56785714Y5352381D01*
X56785714Y5495239D01*
X56833333Y5590477D01*
X56928571Y5638096D01*
X57452380Y5638096D01*
X56928571Y5638096D02*
X56833333Y5685715D01*
X56785714Y5780953D01*
X56785714Y5923810D01*
X56833333Y6019048D01*
X56928571Y6066667D01*
X57452380Y6066667D01*
D11*
X51300000Y0D02*
X57586420Y0D01*
X57586420Y-3600000D02*
X51300000Y-3600000D01*
X57000000Y-79762D02*
X57000000Y-3600000D01*
X57000000Y0D02*
X56413579Y-1126504D01*
X57000000Y0D02*
X57586421Y-1126504D01*
X57000000Y-3600000D02*
X57586421Y-2473496D01*
X57000000Y-3600000D02*
X56413579Y-2473496D01*
D10*
X-9602381Y8423810D02*
X-9650000Y8471429D01*
X-9697620Y8566667D01*
X-9697620Y8804762D01*
X-9650000Y8900000D01*
X-9602381Y8947620D01*
X-9507143Y8995239D01*
X-9411905Y8995239D01*
X-9269048Y8947620D01*
X-8697620Y8376191D01*
X-8697620Y8995239D01*
X-8697620Y9471429D02*
X-8697620Y9661905D01*
X-8745239Y9757143D01*
X-8792858Y9804762D01*
X-8935715Y9900000D01*
X-9126191Y9947620D01*
X-9507143Y9947620D01*
X-9602381Y9900000D01*
X-9650000Y9852381D01*
X-9697620Y9757143D01*
X-9697620Y9566667D01*
X-9650000Y9471429D01*
X-9602381Y9423810D01*
X-9507143Y9376191D01*
X-9269048Y9376191D01*
X-9173810Y9423810D01*
X-9126191Y9471429D01*
X-9078572Y9566667D01*
X-9078572Y9757143D01*
X-9126191Y9852381D01*
X-9173810Y9900000D01*
X-9269048Y9947620D01*
X-8697620Y11138096D02*
X-9364286Y11138096D01*
X-9269048Y11138096D02*
X-9316667Y11185715D01*
X-9364286Y11280953D01*
X-9364286Y11423810D01*
X-9316667Y11519048D01*
X-9221429Y11566667D01*
X-8697620Y11566667D01*
X-9221429Y11566667D02*
X-9316667Y11614286D01*
X-9364286Y11709524D01*
X-9364286Y11852381D01*
X-9316667Y11947620D01*
X-9221429Y11995239D01*
X-8697620Y11995239D01*
X-8697620Y12471429D02*
X-9364286Y12471429D01*
X-9269048Y12471429D02*
X-9316667Y12519048D01*
X-9364286Y12614286D01*
X-9364286Y12757143D01*
X-9316667Y12852381D01*
X-9221429Y12900000D01*
X-8697620Y12900000D01*
X-9221429Y12900000D02*
X-9316667Y12947620D01*
X-9364286Y13042858D01*
X-9364286Y13185715D01*
X-9316667Y13280953D01*
X-9221429Y13328572D01*
X-8697620Y13328572D01*
D11*
X-1900000Y-3600000D02*
X-8586420Y-3600000D01*
X-8586420Y25400000D02*
X-1900000Y25400000D01*
X-8000000Y-3600000D02*
X-8000000Y25400000D01*
X-8000000Y-3600000D02*
X-8000000Y25400000D01*
X-8000000Y-3600000D02*
X-7413579Y-2473496D01*
X-8000000Y-3600000D02*
X-8586421Y-2473496D01*
X-8000000Y25400000D02*
X-8586421Y24273496D01*
X-8000000Y25400000D02*
X-7413579Y24273496D01*
D10*
X-7452381Y46085715D02*
X-7500000Y46133334D01*
X-7547620Y46228572D01*
X-7547620Y46466667D01*
X-7500000Y46561905D01*
X-7452381Y46609524D01*
X-7357143Y46657143D01*
X-7261905Y46657143D01*
X-7119048Y46609524D01*
X-6547620Y46038096D01*
X-6547620Y46657143D01*
X-6642858Y47085715D02*
X-6595239Y47133334D01*
X-6547620Y47085715D01*
X-6595239Y47038096D01*
X-6642858Y47085715D01*
X-6547620Y47085715D01*
X-7452381Y47514286D02*
X-7500000Y47561905D01*
X-7547620Y47657143D01*
X-7547620Y47895239D01*
X-7500000Y47990477D01*
X-7452381Y48038096D01*
X-7357143Y48085715D01*
X-7261905Y48085715D01*
X-7119048Y48038096D01*
X-6547620Y47466667D01*
X-6547620Y48085715D01*
X-6547620Y49276191D02*
X-7214286Y49276191D01*
X-7119048Y49276191D02*
X-7166667Y49323810D01*
X-7214286Y49419048D01*
X-7214286Y49561905D01*
X-7166667Y49657143D01*
X-7071429Y49704762D01*
X-6547620Y49704762D01*
X-7071429Y49704762D02*
X-7166667Y49752381D01*
X-7214286Y49847620D01*
X-7214286Y49990477D01*
X-7166667Y50085715D01*
X-7071429Y50133334D01*
X-6547620Y50133334D01*
X-6547620Y50609524D02*
X-7214286Y50609524D01*
X-7119048Y50609524D02*
X-7166667Y50657143D01*
X-7214286Y50752381D01*
X-7214286Y50895239D01*
X-7166667Y50990477D01*
X-7071429Y51038096D01*
X-6547620Y51038096D01*
X-7071429Y51038096D02*
X-7166667Y51085715D01*
X-7214286Y51180953D01*
X-7214286Y51323810D01*
X-7166667Y51419048D01*
X-7071429Y51466667D01*
X-6547620Y51466667D01*
D11*
X-1900000Y54400000D02*
X-7586420Y54400000D01*
X-7586420Y52200000D02*
X-4100000Y52200000D01*
X-7000000Y54400000D02*
X-7000000Y52279762D01*
X-7000000Y54400000D02*
X-7586421Y53273496D01*
X-7000000Y54400000D02*
X-6413579Y53273496D01*
X-7000000Y52200000D02*
X-6413579Y53326504D01*
X-7000000Y52200000D02*
X-7586421Y53326504D01*
D10*
X-714286Y58452381D02*
X-666667Y58500000D01*
X-571429Y58547620D01*
X-333334Y58547620D01*
X-238096Y58500000D01*
X-190477Y58452381D01*
X-142858Y58357143D01*
X-142858Y58261905D01*
X-190477Y58119048D01*
X-761905Y57547620D01*
X-142858Y57547620D01*
X285714Y57642858D02*
X333333Y57595239D01*
X285714Y57547620D01*
X238095Y57595239D01*
X285714Y57642858D01*
X285714Y57547620D01*
X714285Y58452381D02*
X761904Y58500000D01*
X857142Y58547620D01*
X1095238Y58547620D01*
X1190476Y58500000D01*
X1238095Y58452381D01*
X1285714Y58357143D01*
X1285714Y58261905D01*
X1238095Y58119048D01*
X666666Y57547620D01*
X1285714Y57547620D01*
X2476190Y57547620D02*
X2476190Y58214286D01*
X2476190Y58119048D02*
X2523809Y58166667D01*
X2619047Y58214286D01*
X2761904Y58214286D01*
X2857142Y58166667D01*
X2904761Y58071429D01*
X2904761Y57547620D01*
X2904761Y58071429D02*
X2952380Y58166667D01*
X3047619Y58214286D01*
X3190476Y58214286D01*
X3285714Y58166667D01*
X3333333Y58071429D01*
X3333333Y57547620D01*
X3809523Y57547620D02*
X3809523Y58214286D01*
X3809523Y58119048D02*
X3857142Y58166667D01*
X3952380Y58214286D01*
X4095238Y58214286D01*
X4190476Y58166667D01*
X4238095Y58071429D01*
X4238095Y57547620D01*
X4238095Y58071429D02*
X4285714Y58166667D01*
X4380952Y58214286D01*
X4523809Y58214286D01*
X4619047Y58166667D01*
X4666666Y58071429D01*
X4666666Y57547620D01*
D11*
X-3600000Y52700000D02*
X-3600000Y58586420D01*
X-1400000Y58586420D02*
X-1400000Y54900000D01*
X-3600000Y58000000D02*
X-1479762Y58000000D01*
X-3600000Y58000000D02*
X-2473496Y57413579D01*
X-3600000Y58000000D02*
X-2473496Y58586421D01*
X-1400000Y58000000D02*
X-2526504Y58586421D01*
X-1400000Y58000000D02*
X-2526504Y57413579D01*
D10*
X63302380Y23447620D02*
X63302380Y22971429D01*
X63778571Y22923810D01*
X63730952Y22971429D01*
X63683333Y23066667D01*
X63683333Y23304762D01*
X63730952Y23400000D01*
X63778571Y23447620D01*
X63873809Y23495239D01*
X64111904Y23495239D01*
X64207142Y23447620D01*
X64254761Y23400000D01*
X64302380Y23304762D01*
X64302380Y23066667D01*
X64254761Y22971429D01*
X64207142Y22923810D01*
X63730952Y24066667D02*
X63683333Y23971429D01*
X63635714Y23923810D01*
X63540476Y23876191D01*
X63492857Y23876191D01*
X63397619Y23923810D01*
X63350000Y23971429D01*
X63302380Y24066667D01*
X63302380Y24257143D01*
X63350000Y24352381D01*
X63397619Y24400000D01*
X63492857Y24447620D01*
X63540476Y24447620D01*
X63635714Y24400000D01*
X63683333Y24352381D01*
X63730952Y24257143D01*
X63730952Y24066667D01*
X63778571Y23971429D01*
X63826190Y23923810D01*
X63921428Y23876191D01*
X64111904Y23876191D01*
X64207142Y23923810D01*
X64254761Y23971429D01*
X64302380Y24066667D01*
X64302380Y24257143D01*
X64254761Y24352381D01*
X64207142Y24400000D01*
X64111904Y24447620D01*
X63921428Y24447620D01*
X63826190Y24400000D01*
X63778571Y24352381D01*
X63730952Y24257143D01*
X64302380Y25638096D02*
X63635714Y25638096D01*
X63730952Y25638096D02*
X63683333Y25685715D01*
X63635714Y25780953D01*
X63635714Y25923810D01*
X63683333Y26019048D01*
X63778571Y26066667D01*
X64302380Y26066667D01*
X63778571Y26066667D02*
X63683333Y26114286D01*
X63635714Y26209524D01*
X63635714Y26352381D01*
X63683333Y26447620D01*
X63778571Y26495239D01*
X64302380Y26495239D01*
X64302380Y26971429D02*
X63635714Y26971429D01*
X63730952Y26971429D02*
X63683333Y27019048D01*
X63635714Y27114286D01*
X63635714Y27257143D01*
X63683333Y27352381D01*
X63778571Y27400000D01*
X64302380Y27400000D01*
X63778571Y27400000D02*
X63683333Y27447620D01*
X63635714Y27542858D01*
X63635714Y27685715D01*
X63683333Y27780953D01*
X63778571Y27828572D01*
X64302380Y27828572D01*
D11*
X52700000Y-3600000D02*
X65586420Y-3600000D01*
X65586420Y54400000D02*
X52700000Y54400000D01*
X65000000Y-3600000D02*
X65000000Y54400000D01*
X65000000Y-3600000D02*
X65000000Y54400000D01*
X65000000Y-3600000D02*
X65586421Y-2473496D01*
X65000000Y-3600000D02*
X64413579Y-2473496D01*
X65000000Y54400000D02*
X64413579Y53273496D01*
X65000000Y54400000D02*
X65586421Y53273496D01*
D10*
X59302380Y21483334D02*
X59302380Y21007143D01*
X59778571Y20959524D01*
X59730952Y21007143D01*
X59683333Y21102381D01*
X59683333Y21340477D01*
X59730952Y21435715D01*
X59778571Y21483334D01*
X59873809Y21530953D01*
X60111904Y21530953D01*
X60207142Y21483334D01*
X60254761Y21435715D01*
X60302380Y21340477D01*
X60302380Y21102381D01*
X60254761Y21007143D01*
X60207142Y20959524D01*
X59302380Y22435715D02*
X59302380Y21959524D01*
X59778571Y21911905D01*
X59730952Y21959524D01*
X59683333Y22054762D01*
X59683333Y22292858D01*
X59730952Y22388096D01*
X59778571Y22435715D01*
X59873809Y22483334D01*
X60111904Y22483334D01*
X60207142Y22435715D01*
X60254761Y22388096D01*
X60302380Y22292858D01*
X60302380Y22054762D01*
X60254761Y21959524D01*
X60207142Y21911905D01*
X60207142Y22911905D02*
X60254761Y22959524D01*
X60302380Y22911905D01*
X60254761Y22864286D01*
X60207142Y22911905D01*
X60302380Y22911905D01*
X59302380Y23864286D02*
X59302380Y23388096D01*
X59778571Y23340477D01*
X59730952Y23388096D01*
X59683333Y23483334D01*
X59683333Y23721429D01*
X59730952Y23816667D01*
X59778571Y23864286D01*
X59873809Y23911905D01*
X60111904Y23911905D01*
X60207142Y23864286D01*
X60254761Y23816667D01*
X60302380Y23721429D01*
X60302380Y23483334D01*
X60254761Y23388096D01*
X60207142Y23340477D01*
X60302380Y25102381D02*
X59635714Y25102381D01*
X59730952Y25102381D02*
X59683333Y25150000D01*
X59635714Y25245239D01*
X59635714Y25388096D01*
X59683333Y25483334D01*
X59778571Y25530953D01*
X60302380Y25530953D01*
X59778571Y25530953D02*
X59683333Y25578572D01*
X59635714Y25673810D01*
X59635714Y25816667D01*
X59683333Y25911905D01*
X59778571Y25959524D01*
X60302380Y25959524D01*
X60302380Y26435715D02*
X59635714Y26435715D01*
X59730952Y26435715D02*
X59683333Y26483334D01*
X59635714Y26578572D01*
X59635714Y26721429D01*
X59683333Y26816667D01*
X59778571Y26864286D01*
X60302380Y26864286D01*
X59778571Y26864286D02*
X59683333Y26911905D01*
X59635714Y27007143D01*
X59635714Y27150000D01*
X59683333Y27245239D01*
X59778571Y27292858D01*
X60302380Y27292858D01*
D11*
X43550000Y51900000D02*
X61586420Y51900000D01*
X61586420Y-3600000D02*
X43550000Y-3600000D01*
X61000000Y51900000D02*
X61000000Y-3600000D01*
X61000000Y51900000D02*
X61000000Y-3600000D01*
X61000000Y51900000D02*
X60413579Y50773496D01*
X61000000Y51900000D02*
X61586421Y50773496D01*
X61000000Y-3600000D02*
X61586421Y-2473496D01*
X61000000Y-3600000D02*
X60413579Y-2473496D01*
D10*
X55038095Y-6452380D02*
X55657142Y-6452380D01*
X55323809Y-6833333D01*
X55466666Y-6833333D01*
X55561904Y-6880952D01*
X55609523Y-6928571D01*
X55657142Y-7023809D01*
X55657142Y-7261904D01*
X55609523Y-7357142D01*
X55561904Y-7404761D01*
X55466666Y-7452380D01*
X55180952Y-7452380D01*
X55085714Y-7404761D01*
X55038095Y-7357142D01*
X56085714Y-7357142D02*
X56133333Y-7404761D01*
X56085714Y-7452380D01*
X56038095Y-7404761D01*
X56085714Y-7357142D01*
X56085714Y-7452380D01*
X56990476Y-6452380D02*
X56800000Y-6452380D01*
X56704761Y-6500000D01*
X56657142Y-6547619D01*
X56561904Y-6690476D01*
X56514285Y-6880952D01*
X56514285Y-7261904D01*
X56561904Y-7357142D01*
X56609523Y-7404761D01*
X56704761Y-7452380D01*
X56895238Y-7452380D01*
X56990476Y-7404761D01*
X57038095Y-7357142D01*
X57085714Y-7261904D01*
X57085714Y-7023809D01*
X57038095Y-6928571D01*
X56990476Y-6880952D01*
X56895238Y-6833333D01*
X56704761Y-6833333D01*
X56609523Y-6880952D01*
X56561904Y-6928571D01*
X56514285Y-7023809D01*
X58276190Y-7452380D02*
X58276190Y-6785714D01*
X58276190Y-6880952D02*
X58323809Y-6833333D01*
X58419047Y-6785714D01*
X58561904Y-6785714D01*
X58657142Y-6833333D01*
X58704761Y-6928571D01*
X58704761Y-7452380D01*
X58704761Y-6928571D02*
X58752380Y-6833333D01*
X58847619Y-6785714D01*
X58990476Y-6785714D01*
X59085714Y-6833333D01*
X59133333Y-6928571D01*
X59133333Y-7452380D01*
X59609523Y-7452380D02*
X59609523Y-6785714D01*
X59609523Y-6880952D02*
X59657142Y-6833333D01*
X59752380Y-6785714D01*
X59895238Y-6785714D01*
X59990476Y-6833333D01*
X60038095Y-6928571D01*
X60038095Y-7452380D01*
X60038095Y-6928571D02*
X60085714Y-6833333D01*
X60180952Y-6785714D01*
X60323809Y-6785714D01*
X60419047Y-6833333D01*
X60466666Y-6928571D01*
X60466666Y-7452380D01*
D11*
X50800000Y-500000D02*
X50800000Y-7586420D01*
X54400000Y-7586420D02*
X54400000Y-500000D01*
X50800000Y-7000000D02*
X54320238Y-7000000D01*
X50800000Y-7000000D02*
X51926504Y-7586421D01*
X50800000Y-7000000D02*
X51926504Y-6413579D01*
X54400000Y-7000000D02*
X53273496Y-6413579D01*
X54400000Y-7000000D02*
X53273496Y-7586421D01*
M02*
